<?xml version="1.0" standalone="no"?>
<!DOCTYPE svg PUBLIC "-//W3C//DTD SVG 1.1//EN" "http://www.w3.org/Graphics/SVG/1.1/DTD/svg11.dtd">
<svg class="icon" viewBox="0 0 1024 1024" version="1.1" xmlns="http://www.w3.org/2000/svg">
  <path fill="#fff5db" d="m1023.59995,511.99998c0,282.48631 -228.93459,511.59995 -511.59996,511.59995c-176.62349,0 -332.31615,-89.37651 -424.18032,-225.56442c-55.13769,-81.57461 -87.41964,-179.99365 -87.41964,-286.03553c0,-282.48631 228.93459,-511.59995 511.59996,-511.59995s511.59996,229.11364 511.59996,511.59995z"></path>
  <path fill="#ffb45d" d="m541.63441,238.05099l65.58711,133.15028c5.39098,10.78197 15.69333,18.2897 27.40897,19.92682l146.63734,21.33372c29.98615,4.45092 41.93201,41.25414 20.14425,62.35124l-106.11223,103.61818c-8.66522,8.4414 -12.41269,20.40005 -10.53896,32.3523l25.0684,146.27922c5.14797,29.76872 -26.23868,52.50934 -52.9506,38.44674l-131.17423,-69.15552a36.28523,36.28523 0 0 0 -33.96384,0l-131.18062,69.15552c-26.70552,14.069 -58.09218,-8.67801 -52.93781,-38.44674l25.0684,-146.27922a36.17012,36.17012 0 0 0 -10.55175,-32.3523l-106.09944,-103.61178c-21.55115,-21.1035 -9.60529,-57.90672 20.14425,-62.35764l146.63734,-21.33372a35.74165,35.74165 0 0 0 27.40897,-19.92682l65.57432,-133.15028c13.58937,-26.96132 52.47097,-26.96132 65.82373,0l0.00639,0z"></path>
</svg>