<?xml version="1.0" standalone="no"?>
<!DOCTYPE svg PUBLIC "-//W3C//DTD SVG 1.1//EN" "http://www.w3.org/Graphics/SVG/1.1/DTD/svg11.dtd">
<svg class="icon" viewBox="0 0 1024 1024" version="1.1" xmlns="http://www.w3.org/2000/svg">
  <path fill="#e7505a" d="m511.99999,0c-282.76524,0 -511.99999,229.23477 -511.99999,512.00002s229.23476,512.00002 511.99999,512.00002s511.99999,-229.23477 511.99999,-512.00002s-229.23476,-512.00002 -511.99999,-512.00002zm-180.97729,752.49879l-37.51136,0c-23.02234,0 -41.67798,-20.0092 -41.67798,-44.5852l0,-257.44773a46.23301,46.23301 0 0 1 12.20561,-31.53214a40.35972,40.35973 0 0 1 29.42529,-13.05306l37.51136,0.42372l0.04708,346.1944zm474.05314,-312.77905l-45.60919,257.44773c-5.68497,32.0971 -31.90878,55.31954 -62.38161,55.31954l-326.4559,0l0,-345.75891l6.01453,0.05885c45.79752,-4.70805 85.29802,-47.61012 85.29802,-97.9509l0,-39.22979c0,-43.4435 4.10777,-78.11826 41.60736,-83.93269c42.53719,-6.6148 85.1097,44.30271 85.1097,96.30308c0,22.91641 -3.93122,48.94014 -11.77011,78.23596l165.68791,-1.17701c18.92634,0 36.864,9.01591 48.94014,24.61131a71.47991,71.47991 0 0 1 13.55917,56.07283z"></path>
</svg>