<?xml version="1.0" standalone="no"?>
<!DOCTYPE svg PUBLIC "-//W3C//DTD SVG 1.1//EN" "http://www.w3.org/Graphics/SVG/1.1/DTD/svg11.dtd">
<svg class="icon" viewBox="0 0 1024 1024" version="1.1" xmlns="http://www.w3.org/2000/svg">
  <path fill="#990000" d="m512.000004,512.00003m-512.316014,0a512.316014,511.814812 0 1 0 1024.632027,0a512.316014,511.814812 0 1 0 -1024.632027,0z"></path>
  <path fill="#ffffff" d="m343.322648,582.334604c0,-61.964178 0.407293,-123.928357 -0.232739,-185.834407c-0.174554,-18.019602 6.283944,-27.494424 23.855714,-33.53971c66.91237,-23.018588 106.53613,-71.671512 125.969809,-138.402166c6.749422,-23.192971 12.975181,-46.792836 22.459282,-68.88138c15.302568,-35.86482 43.463948,-48.478541 82.564046,-40.108145c30.139659,6.45218 49.22423,32.202772 49.515154,68.300103c0.407293,45.979048 0.058185,91.958096 0.174554,137.937144c0.058185,25.227442 4.48022,30.342684 30.197843,30.633323c51.784356,0.581277 103.626896,1.743832 155.353067,-0.290639c46.082258,-1.80196 79.480258,28.191957 67.901509,79.46063c-13.906136,61.382901 -31.419721,122.010141 -48.526014,182.637381c-10.531425,37.376141 -22.92476,74.287261 -35.085356,111.19838c-16.058969,48.827307 -45.965889,70.450829 -96.470182,70.450829l-339.449361,0c-36.481788,0 -38.227328,-1.743832 -38.227328,-37.318014l0,-176.243329zm-55.44999,-1.336938c0,60.045963 0.116369,120.091925 -0.058185,180.137888c-0.116369,29.528895 -5.585728,34.760393 -34.503509,34.81852c-8.320408,0 -16.640815,0.058128 -24.961223,0c-33.921662,-0.174383 -50.038816,-15.98513 -50.271554,-50.745523c-0.349108,-62.603583 -0.116369,-125.207167 -0.116369,-187.81075c0,-45.979048 -0.174554,-92.016223 0.058185,-137.995271c0.232739,-36.562353 17.920878,-54.058805 53.995373,-54.17506c55.799098,-0.232511 55.857283,-0.232511 55.857283,54.756338c0.058185,53.65191 0.058185,107.303821 0,161.013859z"></path>
</svg>