<?xml version="1.0" standalone="no"?>
<!DOCTYPE svg PUBLIC "-//W3C//DTD SVG 1.1//EN" "http://www.w3.org/Graphics/SVG/1.1/DTD/svg11.dtd">
<svg class="icon" viewBox="0 0 1024 1024" version="1.1" xmlns="http://www.w3.org/2000/svg">
  <path fill="#64bd63" d="M1012.369872 614.689811c-11.708377-22.180226-23.320151-44.437736-36.09117-66.076981-14.83834-25.116981-15.417962-49.364528-0.50234-74.636075 12.771019-21.639245 24.363472-43.916075 36.187774-66.03834 22.470038-42.080604 11.708377-73.264302-32.787321-94.922868a2595.279698 2595.279698 0 0 0-72.008453-34.101132c-25.967094-11.669736-39.607547-30.797283-43.143245-57.769057a1358.963925 1358.963925 0 0 0-12.886943-79.89132c-7.805585-40.515623-36.033208-59.488604-78.616151-53.441208-27.995774 3.980075-56.030189 7.882868-83.774793 13.138113-27.416151 5.177962-49.847547-1.700226-69.013736-20.615245a3486.101736 3486.101736 0 0 0-56.571169-54.54249c-36.09117-34.04317-66.56-34.197736-102.322717-0.444378-19.571925 18.489962-38.776755 37.347019-58.116831 56.06883-18.721811 18.142189-40.766792 24.537358-67.274868 19.610566a1812.190189 1812.190189 0 0 0-85.977358-13.485886c-41.056604-5.62234-69.419472 13.968906-76.819321 53.170717-5.023396 26.508075-9.679698 53.132075-13.041509 79.872-3.516377 27.918491-17.736453 47.200604-44.592302 59.044226a1576.534943 1576.534943 0 0 0-73.959849 35.144453c-40.573585 20.48-51.103396 51.663698-30.777962 90.749585a3045.028226 3045.028226 0 0 0 39.95532 73.747321c11.727698 21.098264 11.824302 41.887396 0.154566 63.004981a5065.322264 5065.322264 0 0 0-38.93132 71.873207c-22.180226 41.73283-12.114113 72.105057 31.280301 93.589736 25.09766 12.423245 50.42717 24.421434 75.930567 36.129811 24.344151 11.167396 36.979925 29.560755 40.631547 54.697057 4.192604 28.787925 8.597736 57.59517 14.065509 86.189887 6.704302 34.970566 36.748075 55.064151 73.129057 49.712302 29.44483-4.308528 58.947623-8.404528 88.199245-13.795019 27.319547-5.062038 49.847547 1.468377 69.033057 20.537962 18.586566 18.432 37.578868 36.496906 56.629132 54.484528 36.303698 34.275019 66.154264 34.468226 102.129509 0.618264a4306.673509 4306.673509 0 0 0 58.252076-55.972226c18.721811-18.277434 40.766792-24.402113 67.236226-19.649207 32.169057 5.757585 64.608604 10.143396 90.749585 14.162113 42.988679-0.289811 65.304151-17.465962 71.699321-51.586415 5.235925-27.918491 9.853585-55.972226 13.795019-84.083925 3.670943-26.083019 16.828377-44.708226 42.061283-56.049509 24.923774-11.206038 49.499774-23.068981 73.979169-35.125132 43.722868-21.523321 54.078792-51.683019 32.111095-93.319246zM766.899683 426.273811c-88.431094 84.238491-176.920151 168.419019-265.46717 252.522264-13.524528 12.867623-26.894491 12.693736-40.689509-0.502339-50.929509-48.746264-102.129509-97.241358-153.290868-145.794415-5.989434-5.680302-10.549132-11.901585-10.471849-24.460076 4.289208-16.499925 20.48-28.208302 37.482264-37.868679 14.336-8.153358 24.981736 2.318491 34.700075 11.592453 33.154415 31.608755 66.791849 62.753811 99.30868 94.942189 10.24 10.162717 16.094189 9.776302 26.314868-0.096604 68.511396-66.076981 137.73766-131.535698 206.59683-197.303547 10.162717-9.699019 20.518642-21.677887 36.11049-14.876982 17.678491 7.728302 32.284981 20.576604 38.525585 39.047246 2.975396 8.790943-2.56966 16.577208-9.119396 22.79849z" />
</svg>