<svg viewBox="0 0 2048 1024" version="1.1" xmlns="http://www.w3.org/2000/svg">
  <path d="M455.111111 512m-56.888889 0a56.888889 56.888889 0 1 0 113.777778 0 56.888889 56.888889 0 1 0-113.777778 0Z" fill="#e03e2d"></path>
  <path d="M910.222222 512m-56.888889 0a56.888889 56.888889 0 1 0 113.777778 0 56.888889 56.888889 0 1 0-113.777778 0Z" fill="#e67e23"></path>
  <path d="M1365.333333 512m-56.888889 0a56.888889 56.888889 0 1 0 113.777778 0 56.888889 56.888889 0 1 0-113.777778 0Z" fill="#f1c40f"></path>
  <path d="M682.666667 512m-56.888889 0a56.888889 56.888889 0 1 0 113.777778 0 56.888889 56.888889 0 1 0-113.777778 0Z" fill="#169179"></path>
  <path d="M1137.777778 512m-56.888889 0a56.888889 56.888889 0 1 0 113.777778 0 56.888889 56.888889 0 1 0-113.777778 0Z" fill="#3598db"></path>
  <path d="M1592.888889 512m-56.888889 0a56.888889 56.888889 0 1 0 113.777778 0 56.888889 56.888889 0 1 0-113.777778 0Z" fill="#b96ad9"></path>
</svg>