<?xml version="1.0" standalone="no"?>
<!DOCTYPE svg PUBLIC "-//W3C//DTD SVG 1.1//EN" "http://www.w3.org/Graphics/SVG/1.1/DTD/svg11.dtd">
<svg viewBox="0 0 1529 1024" version="1.1" xmlns="http://www.w3.org/2000/svg" xmlns:xlink="http://www.w3.org/1999/xlink">
  <path d="M3.011765 2.505788h1518.760659V1014.603294H2.999718z" fill="#036C35"></path>
  <path d="M602.256565 321.536h-2.505789l-7.505317 9.999059-3.746635 13.757741 6.252423 8.758212 9.999059-2.505788 7.517365-13.757742-7.505318 6.264471-7.517365 1.240847-2.493741-7.505318 7.505318-16.263529z m-191.415718-55.055059v15.010635l-2.493741 6.264471c3.746635-6.264471 7.505318-12.528941 8.758212-18.769318l-2.505789-12.516894-7.505317 2.505789-3.758683 7.505317h7.505318z m195.162353 9.999059l3.758682-4.999529-1.252894 10.011105h-1.252894l-1.252894-4.999529z m3.758682 20.022212c-8.758212 13.757741-22.528 22.528-36.285741 30.02127l-12.504847 3.758683v-2.505789l9.999059-7.505317c11.264-8.758212 22.528-17.516424 31.286212-30.021271-6.264471-4.999529-6.264471-13.757741-3.758683-20.022212l8.758212-9.999058 11.264 1.252894 2.493741 12.504847-3.746635 12.504847 1.252894 6.26447-8.758212 3.746636z m-130.108235-20.010165l8.758212-3.758682 3.746635 3.758682h5.011577l3.746635-6.264471-2.493741-6.252423-5.011577 7.505318-3.746635-11.251953h-1.252894l-6.264471 9.999058h-3.746635l-1.252894-8.746164-1.252894-2.505788H474.654118l-1.252894 9.999058 6.252423 7.517365z m-77.571012 88.822965l-9.999059-7.505318c-7.505318-13.769788-10.011106-30.033318-10.011105-45.043953 0-7.505318 1.252894-13.757741 3.746635-21.263059h2.505788v20.010165c1.252894 10.011106 2.505788 18.769318 4.99953 27.527529l6.26447 7.505318 4.99953-3.758682c4.999529-11.251953 3.758682-22.515953 6.26447-33.767906 2.493741-7.505318 4.999529-13.769788 9.999059-20.022212l8.758212-7.505318 6.26447 4.99953-1.264941 11.264-3.746635 16.263529 1.252894 13.757741 1.252894 5.011577 7.505318 12.504847 7.505317 2.505788c-1.252894-8.758212-1.252894-16.263529-2.505788-23.768847s-1.252894-15.010635-1.252894-22.528c-1.252894-7.493271-3.746635-13.757741-3.746635-20.010165v-11.264l6.252423-9.999058 6.264471 7.505317c3.734588 6.252424 7.493271 13.757741 7.49327 21.263059l-4.999529 4.99953 3.746635 37.538635 1.252894 7.505317v6.264471l9.999059-17.528471c-1.240847-8.758212-3.734588-18.757271-4.987482-27.515482-2.505788-7.505318-1.252894-15.010635 1.240847-21.275106l2.505788-1.252894c7.505318 6.264471 11.264 16.263529 8.758212 25.021741-1.252894 10.011106 1.252894 18.769318 3.758682 28.780424l6.252424 9.999059 13.757741 2.505788 3.758682-6.252424c-1.252894-11.264-5.011576-23.768847-8.758211-35.032847l-3.758683-12.504847 3.758683-6.26447 6.252423-6.252424 8.758212 8.758212 4.999529 7.505318v6.26447l-6.252423 1.252894c2.505788 9.999059 4.999529 18.757271 6.26447 28.768377 0 7.505318 1.240847 16.263529-3.758682 22.528l-15.010635 9.999059-17.516424-4.99953-5.011576-12.516894H474.654118l-3.758683 7.505318-7.505317 10.011106c0 8.758212 1.252894 17.516424 1.252894 26.262588 0 12.528941 2.493741 25.033788 1.252894 38.791529l-5.011577 12.504847h-1.252894l-1.240847-17.504376-1.252894-13.769788c-1.252894-12.504847-3.758682-26.262588-5.011576-40.032377-7.505318 0-15.010635-2.493741-20.010165-8.758212-6.264471-8.758212-7.505318-20.010165-7.505318-31.274164l1.240847-15.010636v-8.758211h-1.240847l-6.26447 20.022211-1.240847 8.758212c-1.252894 8.746165-2.505788 16.263529-7.505318 23.768847l-7.517365 7.505318z m736.8704-7.505318c-2.505788-21.275106-6.264471-41.285271-5.011576-62.560376l6.26447 2.505788-1.252894-7.505318-11.264-26.262588-3.746635-6.264471-3.758682 2.505789-7.505318 9.999058 1.252894 11.264c1.252894 8.758212 2.505788 18.769318 3.746635 27.52753l1.252895 11.251953 1.252894 15.010635c3.758682 27.527529 6.264471 56.295906 8.758211 85.07633 1.252894 13.757741 1.252894 28.768376-3.746635 41.28527-3.758682 11.251953-12.516894 21.263059-21.275106 28.768377-7.505318 6.264471-15.010635 11.264-22.528 16.263529l-6.240376 6.264471 17.516423-2.505789c12.504847-2.505788 25.009694-9.999059 32.527059-20.022211a82.522353 82.522353 0 0 0 15.010635-33.779953c2.493741-11.251953 2.493741-23.768847 2.493742-35.0208 0-20.022212-1.240847-42.538165-3.746636-63.801224z m-93.834541 145.118871l3.758682-11.264v-2.505789l-13.757741-1.240847-2.505788 6.252424 6.264471 4.999529-8.770259 12.516894 6.26447 2.493742 16.26353-7.505318v-4.999529l-7.517365 1.252894z m-22.515953 246.458729c-7.505318 1.240847-16.263529 0-23.768847 0l-6.26447-3.758682-4.99953 2.505788v2.493741c-7.505318 1.252894-16.263529 0-23.768847 1.252894l-3.746635-6.26447v-6.240377c21.263059 0 42.526118-1.252894 63.801223-1.252894l-1.252894 11.264z m20.022212-26.274635l-16.263529-5.011577c-22.528 0-43.791059 1.252894-66.307012 1.252894v-7.505317l3.746635-8.758212-6.252423-8.758212h-3.746636l-5.011576 8.758212 5.011576 9.999059v5.011576c-81.317647 1.252894-162.635294 1.252894-242.712094 1.252894h-46.2848c-41.285271 0-82.570541-1.252894-123.843765-1.252894-21.275106 0-41.297318-1.252894-61.319529 0 5.011576 8.758212 13.769788 13.769788 22.528 17.516424 15.010635 4.999529 31.274165 6.264471 46.2848 7.505318 16.263529 1.252894 33.779953 0 51.296376 1.252894H761.133176c48.790588 0 98.834071-1.252894 147.624659-2.505789 15.010635 0 31.274165-1.252894 46.2848-1.252894v5.011577l-4.999529 7.505317 7.505318 12.504847h1.252894l4.999529-7.505317c7.505318 0 16.263529-1.240847 23.768847 0l6.264471 5.011576 6.252423-5.011576h26.262588l6.264471 5.011576 11.264-2.505788 4.999529-18.769318-6.26447-18.75727z m-638.036329-227.689412l-6.264471-5.011576c-2.493741-8.758212 0-17.516424 2.505788-26.262589l1.252894-18.769317h-1.252894l-4.999529 16.263529a72.824471 72.824471 0 0 0-3.746636 23.768847l1.240848 17.516424 10.011105 7.505317 11.264-9.999058v-13.769789l-10.011105 8.758212z m25.021741-98.834071l12.504847-5.011576v-9.999059h-3.746636a90.292706 90.292706 0 0 0-25.021741 11.251953c-9.999059 6.264471-20.022212 15.010635-26.262588 25.021741l11.251953-7.505317c9.999059-3.746635 21.263059-8.758212 31.274165-13.757742z m65.054117 8.758212l13.757742-2.505788-6.252424-7.505318-6.264471-2.505788-1.240847 1.252894v11.264z m32.527059 86.317177c-7.505318 7.505318-17.516424 11.264-27.527529 15.010635-13.757741 5.011576-27.515482 8.758212-41.285271 8.758212-8.758212 0-17.504376-1.252894-23.768847-6.252424l-7.505318-9.999059c-6.252424-12.528941-7.505318-26.286682-6.252423-40.044423 1.252894-11.251953 2.505788-23.768847 8.758212-33.779953v35.032847c1.252894 9.999059 2.505788 20.022212 9.999059 27.527529 5.011576 6.252424 13.769788 8.758212 22.528 8.758212 7.505318 0 15.010635-1.252894 22.528-3.758682 12.504847-3.758682 25.009694-9.999059 35.0208-18.769318 6.264471-4.999529 11.251953-11.251953 13.757741-18.75727l1.252894-18.769318v-26.262588l-7.505318 4.999529c0 7.505318 1.252894 16.263529-1.252894 23.768847-4.999529 15.010635-17.516424 26.262588-30.021271 33.779953-10.011106 4.999529-21.275106 11.251953-33.779952 8.746165-9.999059-1.240847-17.516424-8.746165-21.263059-17.504377-5.011576-7.505318-5.011576-15.010635-5.011577-22.528 0-7.505318 1.252894-13.757741 2.505788-21.263058l4.99953-7.505318v11.264c-1.252894 11.251953 1.252894 23.768847 8.758212 33.767906l16.263529 5.011576a46.345035 46.345035 0 0 0 22.528-10.011106l18.757271-16.263529 3.758682-6.264471 1.252894-11.251953-16.263529 3.758683-15.022683-2.505788-2.493741-4.99953v-17.516423l6.252424-16.26353 9.999059-8.758212 11.264 4.99953 13.769788 17.516423 9.999059-6.26447c0-18.757271-3.746635-38.767435-4.99953-57.536753l-2.505788-18.769318v-6.26447l-1.252894-18.757271v-4.999529l-2.493741-8.758212 6.26447-7.505318 6.240377-4.999529 5.011576 12.504847c2.493741 7.505318 4.999529 15.010635 8.758212 22.528l1.240847 9.999059-3.746635 2.505788-4.99953-2.505788c1.240847 13.757741 2.493741 28.768376 2.493741 42.526117 1.252894 11.264 1.252894 23.780894 2.505789 35.032847l9.999059-8.758211 3.758682 3.758682 1.252894 16.263529 7.505318 4.99953 11.264-7.505318 7.505317-17.516423h1.252894l3.746636 17.516423 7.505317 5.011577 5.011577-7.505318-1.252894-10.011106v-3.758682l7.505317-4.99953 2.505789 12.504847-1.252895 18.769318-7.505317 6.264471-13.769788-2.505789-4.99953-5.011576h-2.505788l-6.252424 6.26447-16.263529 3.746636-12.504847-8.758212h-1.252894v21.263059c1.252894 13.769788 1.252894 27.527529-2.505788 41.28527-2.505788 10.011106-8.758212 20.022212-16.26353 26.274636z m524.191624-111.338918c1.240847 20.010165 2.493741 40.032376 2.493741 60.042541 0 11.264-1.252894 22.528-7.505318 31.286212-2.505788 6.252424-9.999059 11.251953-17.516423 11.251953a34.177506 34.177506 0 0 1-23.768847-9.999059l-7.505318-10.011106-4.999529 2.493741-10.011106 17.516424c-4.999529 10.011106-9.999059 20.022212-16.26353 28.780423l-6.26447 3.746636-11.251953-3.746636c-4.999529-5.011576-12.504847-8.758212-15.010636-16.263529-3.758682-11.264-1.252894-22.528 1.252895-33.779953l4.999529-16.263529h1.252894l1.252894 18.769317 2.505788 16.26353 2.493742-11.264c2.505788-17.516424-2.493741-35.032847-3.746636-52.549271-1.252894-12.504847-3.758682-25.021741-5.011576-37.526588-2.493741-18.769318-4.999529-38.791529-7.505318-57.5488-1.252894-7.505318-1.252894-15.010635-3.746635-22.528a55.308047 55.308047 0 0 1-2.505788-25.009694l8.758211-17.516424 8.758212-3.746635 6.264471 4.999529 4.999529 13.757742c2.493741 8.758212 6.252424 16.263529 11.251953 23.768847l1.252894 12.516894-9.999059 4.999529c0 9.999059 2.493741 21.263059 2.493742 31.274165 1.252894 13.769788 3.746635 27.527529 4.999529 41.28527 1.252894 8.758212 2.505788 17.516424 2.505788 26.274636 2.505788 13.757741 6.264471 27.527529 3.758683 41.28527-1.252894 9.999059-3.758682 18.769318-8.758212 27.52753l-8.758212 6.252423-6.26447-2.505788 6.26447 9.999059h7.505318l6.252423-8.746165c4.999529-11.264 11.264-22.528 17.516424-32.527059l8.758212-12.516894h7.505317l13.757741 16.26353 11.264 5.011576 8.758212-4.999529 4.99953-13.769789c1.252894-23.768847-1.252894-48.790588-2.505789-72.559435 0-6.264471-1.240847-13.757741-1.240847-20.022212l-1.252894-13.757741c-11.264-13.757741-21.275106-26.262588-31.286212-40.032376l-7.505317-15.010636v-20.022211l7.505317 3.758682c5.011576 7.505318 12.516894 12.504847 18.769318 18.769318l2.505788 3.746635v2.505788h-3.758682l11.264 16.26353c0-6.264471-1.252894-13.757741-2.505788-20.022212l-2.493741-12.504847 7.505317-13.757741 3.746635 3.746635c3.758682 9.999059 7.505318 21.275106 11.264 31.274165v5.011576l-5.011576-2.505788c0 11.264 1.252894 22.528 2.505788 32.527059 7.505318 9.999059 15.010635 21.263059 22.528 31.274164-1.252894-9.999059-3.758682-20.010165-5.011576-30.02127-2.505788-16.263529-3.758682-33.779953-4.99953-50.043483l-1.252894-8.758211 6.252424-12.504847 3.758682-2.505789 4.99953 12.504847c2.505788 8.758212 3.746635 16.263529 6.26447 25.021742v7.505317l-2.517835 1.252894-2.493741-1.252894v11.264s2.493741 27.527529 3.746635 40.032377c1.252894 8.758212 1.252894 18.769318 2.505788 27.527529 4.999529 7.505318 9.999059 15.010635 15.010635 23.768847 7.505318 11.251953 17.516424 22.515953 21.263059 36.273694l1.252894 18.769318h-1.252894l-7.49327-12.504847c-8.758212-12.516894-17.516424-25.021741-26.274636-36.285741 1.252894 7.505318 0 16.263529 1.252895 23.768847l-1.252895 15.010635-3.758682 12.516894-2.505788-5.011576c0-9.999059 1.252894-20.010165 0-30.021271-1.240847-8.758212-2.493741-16.263529-3.746635-25.021741l2.505788-7.505318c-8.758212-12.504847-17.516424-23.768847-25.021741-35.032847 0 6.264471 1.252894 12.516894 1.252894 20.022212z m-37.538636-2.505788c-8.758212 8.758212-20.010165 15.010635-28.768376 23.768847l-2.505788 6.26447 8.758211-5.011576c7.505318-6.264471 15.010635-9.999059 22.528-15.010635l9.999059-4.99953v-10.011106l-9.999059 4.99953z m-115.0976-88.822965c1.252894 12.516894 3.758682 23.768847 5.011577 36.285741 2.493741 18.757271 3.746635 37.526588 4.999529 56.295906 1.252894 18.757271 1.252894 37.526588 2.505789 55.043012 1.252894 7.505318 1.252894 15.010635 0 21.263059-1.252894 10.011106-6.264471 20.022212-12.516895 27.527529-8.758212 9.999059-18.757271 18.769318-30.02127 25.021741l-18.769318 7.505318v2.505788l13.769788 1.240847c7.505318-1.240847 16.263529-1.240847 23.768847-4.999529 8.758212-4.999529 15.010635-13.757741 21.263059-21.263059 8.758212-10.011106 12.504847-22.528 13.757741-35.032847 1.252894-12.516894 1.252894-25.021741 1.252895-37.526588a483.689412 483.689412 0 0 0-3.746636-60.054588c-2.505788-21.263059-5.011576-41.285271-3.758682-62.54833l6.264471 1.252894v-6.26447l-5.011577-17.516424-1.252894-4.999529-3.746635-9.999059-3.758683 1.240847-8.758211 9.999059-1.252895 10.023153v4.999529z m-319.006117 168.899765l2.493741-1.252894 5.011576-12.516894v-13.757742l-11.264-2.505788v9.999059l7.505318 1.264941v11.251953l-3.746635 7.505318z m297.743059-141.372235l1.252894 1.252894 3.746635 8.746164 5.011576-9.999058 1.252895-2.505789h1.240847l1.252894 15.010636-1.252894 2.505788-4.99953 1.252894-6.26447-3.758682-8.746165 3.758682-1.252894-13.769788h1.252894l2.505788 7.505317 2.493741-1.240847 2.505789-8.758211z m101.339858 30.02127h3.746636l2.505788-2.505788 9.999059 16.263529 3.758682 6.264471 2.505788-5.011577V337.799529l2.493742-4.999529 7.517364 1.252894v-5.011576l-3.758682-7.505318-2.505788-1.252894-8.758212 8.758212 1.252894 16.263529-1.252894 7.505318-4.99953-9.999059-7.505317-13.769788-3.758683 1.252894-1.240847 4.999529v11.264z m38.779483 83.823435l6.252423-7.505317c2.505788-7.505318-1.252894-16.263529-6.26447-22.528l-4.99953-1.240847-4.999529 8.746164 9.999059 10.011106v12.516894z m82.570541-120.109176a79.546729 79.546729 0 0 0-7.505318-22.515953l-1.252894-6.264471 6.252424-6.240376c6.264471 8.758212 7.505318 20.010165 8.758211 30.021271l-2.505788 16.263529h-1.252894l-2.493741-11.264z m-362.809224 71.318588H734.870588l-3.758682-7.505317-3.758682-3.758683-1.240848 9.999059-1.252894 5.011576h-2.505788l-4.999529-12.504847-1.252894-2.505788 1.252894 18.769318 6.252423 2.493741 4.99953-6.252424h1.252894l5.011576 3.758683 7.505318-6.264471-3.758682-16.263529-1.252895 11.264v3.758682z m36.285742 0l13.757741 6.252424 3.758682 3.746635-17.516423 3.758682-1.252895-12.504847 1.252895-1.252894z m-141.372236 12.504847c2.505788 7.505318 7.505318 13.757741 9.999059 21.275106l2.517835 13.757741-8.758211 13.757741c-7.505318 6.264471-16.263529 13.757741-23.768847 20.022212V439.115294h-1.252895c-5.011576 7.505318-7.505318 15.010635-9.999058 23.768847l-2.517836 9.999059-1.252894 1.252894c-15.010635 10.011106-30.021271 18.769318-45.031906 27.52753l-20.022211 9.999058v2.505789h5.011576c21.263059-6.252424 41.285271-12.504847 60.042541-21.263059 1.252894 7.505318 2.505788 15.010635 7.505318 20.022212 6.264471 6.252424 15.022682 7.505318 23.780894 6.252423 13.757741-2.505788 25.021741-10.011106 35.0208-20.022212 10.011106-8.758212 17.516424-20.010165 25.021741-30.02127 3.758682 11.264 10.011106 21.263059 18.769318 28.768376 13.757741 12.516894 32.527059 17.516424 50.043482 20.022212l9.999059-2.505788 2.505788-13.757741-11.251953-4.99953-13.769788-10.011106v-10.011106l15.010635-8.758211c16.263529-6.264471 32.527059-11.251953 50.043483-15.010636l13.769788-3.758682 6.252423-11.251953 1.252895-7.505318h-13.769789c-18.757271 1.252894-38.779482 1.252894-57.5488 1.252894h-23.768847c12.516894-6.264471 26.274635-11.264 40.032377-16.263529l8.758212 1.240847v-3.746635c7.505318-2.505788 15.010635-5.011576 20.022211-11.264l7.505318-16.26353-13.757741-16.263529c-6.264471-4.999529-13.769788-8.758212-22.528-8.758212l-11.251953 6.264471-8.758212 17.504376 3.746635 15.022683-33.767906 11.251953-15.022682 7.505317-7.505318 13.769788-2.493741 11.251953 7.505318 2.505789c7.505318 0 15.010635 0 22.515953 1.252894 7.505318 0 15.010635 1.252894 20.022212 6.252423l2.493741 2.505789c-9.999059 3.746635-18.757271 9.999059-22.515953 20.010164v16.26353c-9.999059-2.505788-21.263059-8.758212-27.52753-18.769318-6.252424-11.251953-7.505318-25.009694-9.999058-37.526588-1.252894-8.758212-3.758682-16.263529-5.011577-25.021741v1.252894c-2.493741-16.263529-8.758212-31.274165-15.010635-46.2848l-4.99953-8.758212-6.26447 9.999059-1.240847 13.769788c4.999529 12.504847 8.758212 25.021741 12.504847 37.526588l4.999529 16.26353 3.758683 12.516894c-7.505318 13.757741-16.263529 25.021741-26.262589 36.273694-8.770259 7.505318-17.528471 13.769788-28.79247 16.263529l-14.998588-2.493741-3.758683-12.516894c11.264-6.264471 21.263059-13.757741 30.021271-23.768847 7.505318-7.505318 13.769788-15.010635 16.263529-25.021741a75.727812 75.727812 0 0 0 0-23.768847l-1.240847-3.758683-5.011576-13.757741 5.011576-1.252894-5.011576-11.251953-9.999059-11.264h-5.011577l-4.999529 8.758212-2.505788 9.999059 6.26447 5.011576zM793.660235 510.433882l1.252894-15.010635-9.999058 2.493741 6.252423-4.999529 12.504847-4.99953-2.505788 16.26353 1.252894 2.493741c7.505318-1.252894 13.769788-6.252424 21.275106-8.758212h4.999529l-4.999529 5.011577c-6.264471 4.999529-12.516894 11.251953-21.275106 9.999059l-8.758212-2.493742zM649.794259 352.798118l-12.504847-8.758212c-8.758212-11.251953-12.516894-26.262588-11.264-40.032377 1.252894-8.758212 2.505788-17.516424 7.505317-25.021741h1.252895l-2.505789 13.769788c0 7.505318 0 16.263529 1.252894 23.768848l1.252895 6.252423 9.999058 12.504847 7.517365-6.252423c3.746635-11.251953 8.758212-21.263059 13.757741-32.527059 3.758682-7.505318 7.505318-15.010635 12.504847-21.263059l6.264471-2.505788 3.746635 4.999529-1.252894 11.264c-2.493741 12.516894-1.240847 25.021741-1.240847 37.526588l6.252424 13.769789h13.757741l13.757741-11.264 5.011576-17.516424c0-12.504847-2.505788-23.768847-5.011576-36.273694l-1.252894-11.264 6.26447-12.504847h2.493742c3.758682 6.252424 5.011576 13.757741 6.26447 20.010165 1.252894 8.758212 2.493741 18.769318 2.493741 28.780423 1.252894 9.999059 3.758682 20.010165 10.011106 27.515482l9.999059 7.505318 7.517365-4.999529v-20.022212c-1.252894-8.746165-3.758682-16.263529-6.264471-25.009694l-4.999529-13.769788 5.011576-8.758212 3.746635-7.505318 7.505318 3.758683 11.264 18.75727 1.252894 7.517365h-5.011576l-6.252424-3.758683 3.758683 9.999059c2.493741 7.517365 2.493741 13.769788 3.746635 21.275106 1.252894 9.999059-1.252894 21.275106-6.252424 30.021271l-17.516423 8.758212c-9.999059-2.493741-16.263529-9.999059-21.263059-16.26353a43.899482 43.899482 0 0 1-23.768847 21.275106l-20.022212 1.252894-9.999059-16.263529c-2.505788-8.758212-2.505788-18.769318-1.252894-28.780424v-6.26447h-1.252894l-5.011576 10.023153c-3.746635 9.999059-6.252424 18.757271-9.999059 28.768376l-11.264 7.505318z m216.425412-77.558965l-3.746636-3.758682 3.746636-9.999059 7.505317 6.252423c5.011576 8.758212 7.517365 20.010165 2.505788 30.021271l-4.999529 6.26447v-18.769317l-5.011576-10.011106z m-80.064753 7.505318V260.216471l1.252894-2.493742 6.26447 1.252895c8.746165 7.505318 17.504376 15.010635 25.009694 22.528l5.011577 8.746164h-10.011106c4.999529 8.758212 11.251953 16.263529 17.516424 25.021741l1.252894 1.252895c-1.252894-10.011106-3.758682-20.022212-2.505789-31.274165l-3.758682-8.758212 3.758682-10.011106 4.99953-4.999529 5.011576 4.999529c3.746635 9.999059 8.758212 18.769318 11.251953 28.768377l2.505789 11.264-1.252895 2.505788-7.505317-1.252894c0 8.758212 0 16.263529 1.252894 25.021741l1.252894 11.251953c8.758212 13.769788 17.516424 26.274635 25.021741 40.032376 8.758212 15.022682 17.504376 30.033318 23.768847 46.296847 3.746635 9.999059 7.505318 20.010165 7.505318 30.021271h-2.505788l-8.758212-17.516424c-12.504847-26.262588-28.768376-52.537224-45.031906-77.558964 0 7.505318 1.252894 16.263529 1.252894 23.768847 1.240847 16.263529 3.746635 31.274165 3.746635 47.537694s-1.252894 33.779953-7.505317 50.043482l-4.99953 4.99953 1.240847-11.251953c3.758682-10.011106 2.505788-21.275106 2.505789-32.527059-1.252894-25.021741-4.999529-50.043482-8.758212-73.812329l-1.252894-11.264c-1.240847-7.505318-1.240847-15.010635-2.493741-21.263059-11.264-17.516424-23.768847-33.779953-36.285742-51.296377l-8.758211-7.505317z m-80.064753 4.999529v16.263529h1.252894l2.505788-8.758211c0-8.758212 1.240847-17.516424-1.252894-26.262589l-5.011577-7.505317-4.999529 4.999529 1.252894 6.264471 6.264471 14.998588z" fill="#FFFFFF"></path>
</svg>