<?xml version="1.0" standalone="no"?>
<!DOCTYPE svg PUBLIC "-//W3C//DTD SVG 1.1//EN" "http://www.w3.org/Graphics/SVG/1.1/DTD/svg11.dtd">
<svg viewBox="0 0 1820 1024" version="1.1" xmlns="http://www.w3.org/2000/svg" xmlns:xlink="http://www.w3.org/1999/xlink">
  <path d="M-2.20303223-92.78818703h1815.55626275v1209.87429986H-2.20303223z" fill="#00458F"></path>
  <path d="M1811.86360467 330.41458161h-725.29893796V-92.78818703h-363.46876255v423.20276864H-2.20303223v363.46876257h725.29893639v423.20276865h363.46876255V693.88334418h725.29893796v-363.46876257z m0 0" fill="#FFFFFF"></path>
  <path d="M1811.86360467 977.95503731L205.74876738-92.78818703H-2.20303223v140.62070138l1604.62520987 1069.25359848h209.44142703v-139.13107552z m0 0" fill="#FFFFFF"></path>
  <path d="M-2.20303223 977.95503731L1603.9118035-92.78818703h207.80283826v140.62070138L207.23839478 1117.08611283H-2.20303223v-139.13107552z m0 0" fill="#FFFFFF"></path>
  <path d="M1811.86360467 406.68343648h-801.56779281V-92.78818703H799.36476058v499.47162351H-2.20303223v210.93105284h801.56779281v499.47162351h210.93105128V617.61448932h801.56779281V406.68343648z m0 0" fill="#CC3440"></path>
  <path d="M1811.86360467 1114.10685958V1018.47286561l-487.55461519-324.58952143h-143.59995464l631.15456983 420.2235154z m0-1206.89504661h-143.59995463l-581.69898333 387.30277921v35.89998943h89.67549061L1811.86360467-92.78818703zM628.95153603 693.88334418L-2.20303223 1114.10685958v2.97925325h137.6414497l587.65748669-390.28203248v-32.92073617h-94.14436813zM-2.20303223-92.78818703v95.63399395l490.5338669 327.56877469h145.08958048L-2.20303223-92.78818703z m0 0" fill="#CC3440"></path>
</svg>