<?xml version="1.0" standalone="no"?>
<!DOCTYPE svg PUBLIC "-//W3C//DTD SVG 1.1//EN" "http://www.w3.org/Graphics/SVG/1.1/DTD/svg11.dtd">
<svg viewBox="0 0 1505 1024" version="1.1" xmlns="http://www.w3.org/2000/svg" xmlns:xlink="http://www.w3.org/1999/xlink">
  <path d="M0 0h1446.249412v972.619294H0V0z" fill="#C8414B"></path>
  <path d="M0 204.860235h1446.249412v562.898824H0V204.8z" fill="#FFD250"></path>
  <path d="M627.350588 486.339765l21.684706-97.641412a14.516706 14.516706 0 0 0-8.131765-16.203294 14.456471 14.456471 0 0 0-6.324705-1.264941h-15.058824a13.854118 13.854118 0 0 0-13.854118 17.468235l21.684706 97.581176z" fill="#C8414B"></path>
  <path d="M602.593882 435.079529h51.2v217.569883h-51.2V435.079529z" fill="#F5F5F5"></path>
  <path d="M588.739765 409.780706h74.089411v25.298823h-74.089411v-25.298823z" fill="#FAB446"></path>
  <path d="M537.539765 486.339765h125.289411v25.298823h-125.289411v-25.298823z m125.289411 102.4l-76.498823-25.901177v-25.298823l76.498823 25.298823v25.901177z m-421.767529-102.4l21.684706-97.641412a15.058824 15.058824 0 0 0-14.456471-17.468235h-12.649411a15.058824 15.058824 0 0 0-14.456471 17.468235l19.877647 97.581176z" fill="#C8414B"></path>
  <path d="M332.619294 409.780706a25.298824 25.298824 0 0 0-25.298823 25.298823v166.309647c0 31.322353 28.912941 89.810824 127.759058 89.810824 98.785882 0 127.759059-60.235294 127.759059-89.750588V435.019294a25.298824 25.298824 0 0 0-25.298823-25.298823H332.619294z" fill="#F5F5F5"></path>
  <path d="M435.079529 537.539765h-127.698823v-102.4a25.298824 25.298824 0 0 1 25.298823-25.359059h102.4v127.759059z m0 0h127.759059v63.849411a63.849412 63.849412 0 0 1-127.698823 0v-63.849411z" fill="#C8414B">
  </path><path d="M307.320471 537.539765h127.759058v63.849411a63.849412 63.849412 0 0 1-127.698823 0v-63.849411z" fill="#FAB446"></path>
  <path d="M409.780706 652.649412V537.539765h-25.901177v129.505882a66.861176 66.861176 0 0 0 25.901177-14.456471z m-48.188235 14.45647V540.551529h-28.912942v115.049412c8.553412 6.083765 18.492235 9.999059 28.912942 11.444706z" fill="#C8414B"></path>
  <path d="M332.619294 486.339765h77.161412v25.298823h-77.101177v-25.298823z" fill="#FFB441"></path>
  <path d="M332.619294 435.079529h77.161412v25.901177h-77.101177v-25.901177z" fill="#FAB446"></path>
  <path d="M345.328941 450.138353h51.2v46.381176h-51.2v-46.381176z" fill="#FAB446"></path>
  <path d="M217.569882 435.079529h51.2v217.569883h-51.2V435.079529z" fill="#F5F5F5"></path>
  <path d="M204.920471 640h76.498823v27.105882h-76.498823v-27.105882z m0-230.219294h76.498823v25.298823h-76.498823v-25.298823z" fill="#FAB446"></path>
  <path d="M192.210824 667.105882h101.857882v25.901177h-101.797647v-25.901177z" fill="#5064AA"></path>
  <path d="M602.593882 640h77.161412v27.105882h-77.101176v-27.105882z" fill="#FAB446"></path>
  <path d="M576.090353 667.105882h102.460235v25.901177h-102.4v-25.901177z" fill="#5064AA"></path>
  <path d="M361.592471 383.879529h149.985882v25.901177h-149.985882v-25.901177z" fill="#FAB446"></path>
  <path d="M421.827765 305.513412h25.298823v78.305882h-25.298823v-78.305882z" fill="#FFB441"></path>
  <path d="M409.780706 345.328941a37.948235 37.948235 0 0 1-38.550588-39.755294 38.550588 38.550588 0 1 1 76.498823 0 37.948235 37.948235 0 0 1-37.948235 39.755294z m0-51.2a13.251765 13.251765 0 1 0-5.601882 25.840941 13.251765 13.251765 0 0 0 5.601882-25.901176z" fill="#F5F5F5"></path>
  <path d="M460.980706 345.328941a37.948235 37.948235 0 0 1-39.152941-39.755294 38.550588 38.550588 0 0 1 77.101176 0 37.948235 37.948235 0 0 1-37.948235 39.755294z m0-51.2a13.251765 13.251765 0 1 0-5.601882 25.840941 13.251765 13.251765 0 0 0 5.601882-25.901176z" fill="#F5F5F5"></path>
  <path d="M511.638588 371.230118a38.550588 38.550588 0 1 1 0-77.101177 38.550588 38.550588 0 0 1 0 77.101177z m0-51.2a12.649412 12.649412 0 1 0 0 25.298823 12.649412 12.649412 0 0 0 0-25.298823z m-150.046117 51.2a38.550588 38.550588 0 1 1 0-77.101177 38.550588 38.550588 0 0 1 0 77.101177z m0-51.2a12.649412 12.649412 0 1 0 0 25.298823 12.649412 12.649412 0 0 0 0-25.298823z" fill="#F5F5F5"></path>
  <path d="M511.638588 588.739765v12.649411a12.649412 12.649412 0 0 1-25.298823 0v-12.649411h25.298823z m25.901177-25.901177h-76.498824v38.550588a38.550588 38.550588 0 0 0 37.948235 38.550589 38.550588 38.550588 0 0 0 38.550589-38.550589v-38.550588z" fill="#FAB446"></path>
  <path d="M498.989176 511.638588a25.298824 25.298824 0 0 1-25.298823-25.298823v-25.298824a24.696471 24.696471 0 0 1 25.901176-25.298823 25.901176 25.901176 0 0 1 25.298824 25.298823v25.298824a25.298824 25.298824 0 0 1-25.901177 25.298823z" fill="#FFA0D2"></path>
  <path d="M396.528941 537.539765a38.550588 38.550588 0 1 0 77.101177 0 38.550588 38.550588 0 0 0-77.101177 0z" fill="#5064AA"></path>
  <path d="M421.827765 256.120471h25.298823v76.498823h-25.298823v-76.498823z" fill="#FAB446"></path>
  <path d="M361.592471 383.879529l-25.901177-25.298823 15.058824-15.058824a123.542588 123.542588 0 0 1 174.682353 0l15.119058 15.058824-25.901176 25.298823H361.592471z" fill="#C8414B"></path>
  <path d="M421.827765 358.580706a12.649412 12.649412 0 1 0 25.298823 0 12.649412 12.649412 0 0 0-25.298823 0z m-50.597647 0a12.649412 12.649412 0 1 0 25.298823 0 12.649412 12.649412 0 0 0-25.298823 0z m102.4 0a12.649412 12.649412 0 1 0 25.298823 0 12.649412 12.649412 0 0 0-25.298823 0z" fill="#FFD250"></path>
  <path d="M204.920471 486.339765h127.698823v25.298823h-127.698823v-25.298823z m0 102.4l76.498823-25.901177v-25.298823l-76.498823 25.298823v25.901177z" fill="#C8414B"></path>
</svg>