<?xml version="1.0" standalone="no"?>
<!DOCTYPE svg PUBLIC "-//W3C//DTD SVG 1.1//EN" "http://www.w3.org/Graphics/SVG/1.1/DTD/svg11.dtd">
<svg viewBox="0 0 1755 1024" version="1.1" xmlns="http://www.w3.org/2000/svg" xmlns:xlink="http://www.w3.org/1999/xlink">
  <path d="M0 0h1755.488871v1024H0z" fill="#FFFFFF"></path>
  <path d="M1126.315581 192.601484l35.476999-23.637263 65.065788 97.630338-35.455895 23.637263zM1203.115581 307.91756l35.455895-23.658368 65.107996 97.630338-35.476999 23.637263zM1179.668261 156.997857l35.476999-23.637263 142.01352 212.988623-35.476999 23.637263zM1232.97873 121.563067l35.455895-23.637263 65.107997 97.630338-35.455895 23.637263zM1309.652102 236.836933l35.455895-23.637263 65.107996 97.630338-35.455894 23.637263zM451.68277 642.215993l35.455894-23.658367L629.152185 831.525144l-35.477 23.637263zM398.456719 677.608574l35.455894-23.637263 65.086892 97.630338-35.455894 23.637263zM475.488871 792.987964l35.476999-23.637263 65.086892 97.630338-35.455895 23.637263zM345.251772 713.212201l35.455895-23.637263 142.034625 213.009728-35.476999 23.637263zM451.703875 381.995054L593.675185 169.027535l35.455895 23.637263-141.992416 213.009728zM398.604452 346.45474l141.992415-213.009728 35.476999 23.637263-141.992415 213.009728zM345.125144 310.766694l141.992416-213.009728 35.476999 23.637263-141.992416 213.030833zM1126.336686 831.525144l65.086892-97.630338 35.455894 23.637263-65.065787 97.651443zM1202.988953 716.251278l65.086892-97.651443 35.455894 23.637263-65.065787 97.651443zM1179.415004 867.107667l65.107997-97.651443 35.455894 23.637263-65.086892 97.651443zM1256.320528 751.622754l65.086892-97.630339 35.455894 23.637263-65.065787 97.651443zM1232.852102 902.479143l65.086892-97.630338 35.455895 23.637263-65.086892 97.651442zM1309.799835 787.3108l65.086892-97.630338 35.455895 23.637263-65.065788 97.651442z"></path>
  <path d="M664.798021 369.965375l-2.74361 4.22094 2.74361-4.22094M1019.77906 299.053586a256 256 0 0 0-354.981039 70.911789 128.105523 128.105523 0 1 0 212.946414 142.034625A127.894477 127.894477 0 1 1 1090.690849 654.245672a256 256 0 0 0-70.911789-354.981039" fill="#B50037"></path>
  <path d="M664.798021 369.965375a128.105523 128.105523 0 1 0 212.946414 142.034625A127.894477 127.894477 0 1 1 1090.690849 654.245672 256 256 0 1 1 664.798021 369.965375" fill="#1E3476"></path>
</svg>