<?xml version="1.0" standalone="no"?>
<!DOCTYPE svg PUBLIC "-//W3C//DTD SVG 1.1//EN" "http://www.w3.org/Graphics/SVG/1.1/DTD/svg11.dtd">
<svg viewBox="0 0 1536 1024" version="1.1" xmlns="http://www.w3.org/2000/svg" xmlns:xlink="http://www.w3.org/1999/xlink">
  <path d="M0 0h1536v1024H0z" fill="#D8231D"></path>
  <path d="M626.74 261.58a165.478 165.478 0 0 1 14.386 14.03l14.285 15.001 36.608-17.664a163.84 163.84 0 0 1-8.96 18.432c-3.072 6.042-6.297 11.981-9.523 18.176l28.877 30.003a25.6 25.6 0 0 1-3.072 0l-34.919-6.553c-3.379-0.615-3.379-0.512-5.12 2.611l-16.179 30.72-1.945 3.226-1.23-8.295c-1.535-10.24-2.918-20.48-4.3-30.72-0.41-2.457-0.41-2.509-2.918-3.02l-35.84-6.554a5.12 5.12 0 0 1-1.844-0.717c5.99-3.38 12.135-6.144 18.176-9.114l18.535-8.908-5.12-40.397z m-124.724-90.93l0.614-0.512 37.325 15.36 26.727-31.642v4.3l-2.304 33.946c0 3.38 0 3.38 2.918 4.608l32.717 13.21c0.768 0 1.382 0.614 2.713 1.178l-3.072 1.075-34.56 8.448c-2.918 0.614-2.918 0.614-3.174 3.686l-2.458 37.018-0.307 1.843-2.099-3.226c-6.144-9.83-12.288-19.712-18.586-29.542-1.69-2.765-1.792-2.765-5.12-1.894l-34.201 8.345-2.919 0.563c9.063-10.905 17.818-21.196 26.727-31.795l-21.043-34.611z m-63.488 144.076l-80.947 59.75-1.997 1.486c-2.304 1.792-2.304 1.792-1.382 4.659l22.118 67.584 10.24 31.437 0.768 2.508h-0.614l-1.792-1.228-86.016-62.976-0.768-0.461h-0.717l-88.371 64.973-0.615-0.461 33.587-105.011-88.473-64.359v-0.768h105.318c4.608 0 3.84 0.563 5.12-3.84l32.256-96.205a9.472 9.472 0 0 1 1.69-3.276l33.536 103.27c6.041 0.307 12.134 0 18.125 0h91.443v0.666z m161.229 253.901l-34.253 8.295-3.226 0.921-2.816 41.677-1.996-2.816-18.74-29.798c-1.792-2.816-1.843-2.816-5.12-2.048l-34.15 8.448-3.072 0.512 26.778-31.847-21.044-34.56 0.41-0.512c6.349 2.15 12.442 5.12 18.688 7.424l18.893 7.68 26.214-31.13h0.512v3.482l-2.304 33.843v1.23a2.56 2.56 0 0 0 1.997 3.174l14.131 5.683 19.661 7.885 2.714 1.126-3.226 1.075z m99.174-122.47L671.898 467.2c-2.663 2.048-2.663 2.048-1.536 5.12l11.673 32.614a6.451 6.451 0 0 1 0.359 3.226l-33.792-23.398-32.461 25.19-0.512-0.41 11.417-39.475-33.484-23.04v-0.768c13.414-0.665 26.88-0.512 40.704-1.28l11.827-38.81h0.512l1.229 3.073 11.52 32.358c1.024 2.918 1.024 2.918 4.096 2.816l34.252-1.024h3.226v0.614z" fill="#FFFA30"></path>
</svg>