<?xml version="1.0" encoding="utf-8"?>
<!DOCTYPE svg PUBLIC "-//W3C//DTD SVG 1.1//EN" "http://www.w3.org/Graphics/SVG/1.1/DTD/svg11.dtd">
<svg xmlns="http://www.w3.org/2000/svg" xmlns:xlink="http://www.w3.org/1999/xlink" viewBox="0 0 100 100">
<path fill="#666666" d="M55.463,32.991v34.018l11.36-4.488c0.381-0.149,0.815-0.027,1.063,0.298c0.122,0.164,0.183,0.358,0.183,0.549
	c0,0.194-0.063,0.391-0.189,0.555L50.722,86.24c-0.173,0.224-0.44,0.355-0.722,0.355c-0.282,0-0.55-0.132-0.723-0.355L32.121,63.922
	c-0.252-0.325-0.253-0.775-0.006-1.104c0.246-0.325,0.68-0.447,1.061-0.298l11.361,4.488V32.991l-11.36,4.488
	c-0.381,0.149-0.815,0.027-1.063-0.298c-0.122-0.164-0.183-0.358-0.183-0.549c0-0.194,0.063-0.391,0.189-0.555L49.278,13.76
	c0.173-0.224,0.44-0.355,0.722-0.355c0.282,0,0.55,0.132,0.723,0.355l17.156,22.318c0.252,0.325,0.253,0.775,0.006,1.104
	c-0.246,0.325-0.68,0.447-1.061,0.298L55.463,32.991z"/>
</svg>