<svg viewBox="0 0 1575 1024" version="1.1" xmlns="http://www.w3.org/2000/svg">
  <path d="M1308.416788 1024H373.898634A380.849231 380.849231 0 0 1 0.059865 636.534154C0.059865 422.557538 148.067249 275.692308 354.521403 275.692308a678.281846 678.281846 0 0 1 118.153846 0c63.291077-152.891077 197.789538-275.692308 368.482462-275.692308C1069.746018 0 1260.367557 156.947692 1260.367557 393.846154c0 16.187077 1.693538 63.015385 0 78.769231 13.036308-1.969231 26.348308-1.969231 39.384615 0a277.504 277.504 0 0 1 275.692308 274.628923A272.029538 272.029538 0 0 1 1308.416788 1024z" fill="#004f7c"></path>
  <path d="M189.46048 973.312l488.920615-491.913846L823.198326 626.215385 427.501095 1024H373.898634a361.668923 361.668923 0 0 1-184.438154-50.688z" fill="#de3f03"></path>
  <path d="M1119.646326 321.811692a277.307077 277.307077 0 0 1-56.832 305.388308 270.532923 270.532923 0 0 1-253.085538 73.334154 298.259692 298.259692 0 0 1-212.164923-262.104616 274.944 274.944 0 0 1 79.084307-200.861538 271.163077 271.163077 0 0 1 302.592-57.344l-197.277538 199.089231 140.445538 141.784615 197.238154-199.286154z" fill="#ffffff"></path>
</svg>