<svg viewBox="0 0 1024 1024" version="1.1" xmlns="http://www.w3.org/2000/svg">
  <g>
    <path d="M189.987592 435.873455S6.669916 594.939439 6.233921 595.345434c-8.311895 8.343894-8.311895 21.843723 0 30.187617a21.465728 21.465728 0 0 0 15.749801 6.217921l210.567331-21.31173 224.879149-225.317144L189.987592 435.873455zM588.122545 834.036408s-159.063984 183.287677-159.501978 183.693671c-8.311895 8.343894-21.813723 8.343894-30.125618 0-4.311945-4.311945-6.375919-10.031873-6.249921-15.687801l21.31373-210.59933 225.317144-224.87915-50.753357 267.47261z" fill="#CCD1D9"></path>
    <path d="M323.055905 821.630565l-120.69047-120.68847v-120.69047L443.744376 821.630565z" fill="#434A54"></path>
    <path d="M1012.445167 11.582833c-113.878557-30.407615-240.442952-0.937988-329.75782 88.37488l-480.321912 480.293912L443.744376 821.630565l480.323911-480.291912c89.314868-89.344867 118.816494-215.879264 88.37688-329.75582z" fill="#E6E9ED"></path>
    <path d="M995.757378 236.243985c30.937608-71.095099 36.501537-150.566091 16.687789-224.661152-74.12506-19.781749-153.564053-14.21982-224.629153 16.687789L995.757378 236.243985zM504.059611 550.094007c8.375894-8.343894 8.311895-21.845723 0-30.157618-8.311895-8.341894-21.875723-8.311895-30.189617 0.032l-271.504559 271.476559c-8.313895 8.343894-8.313895 21.843723 0 30.187617 8.311895 8.311895 21.875723 8.311895 30.187618 0L504.059611 550.094007z" fill="#CCD1D9"></path>
    <path d="M730.376742 414.341728c-33.375577 33.313578-87.374892 33.313578-120.69047 0-33.313578-33.343577-33.313578-87.376892 0-120.69047 33.313578-33.345577 87.312893-33.345577 120.69047 0 33.313578 33.313578 33.313578 87.344893 0 120.69047z" fill="#434A54"></path>
    <path d="M669.999508 460.655141c-28.499639 0-55.2513-11.093859-75.441044-31.249604-20.123745-20.125745-31.187605-46.939405-31.187605-75.409044 0-28.499639 11.06186-55.283299 31.187605-75.439044 20.189744-20.157744 46.941405-31.249604 75.441044-31.249604s55.313299 11.093859 75.441043 31.249604c20.123745 20.157744 31.249604 46.939405 31.249604 75.439044 0 28.469639-11.123859 55.283299-31.249604 75.409044-20.127745 20.155745-46.941405 31.249604-75.441043 31.249604z m0-170.659837c-17.061784 0-33.187579 6.657916-45.251427 18.749762-12.061847 12.063847-18.749762 28.157643-18.749762 45.251427s6.687915 33.15758 18.749762 45.249426c12.063847 12.093847 28.189643 18.749762 45.251427 18.749763 17.123783 0 33.187579-6.655916 45.251426-18.749763 12.123846-12.093847 18.751762-28.157643 18.751762-45.249426 0-17.093783-6.625916-33.187579-18.751762-45.251427-12.063847-12.093847-28.125643-18.749762-45.251426-18.749762z" fill="#CCD1D9"></path>
  </g>
</svg>