<?xml version="1.0" standalone="no"?>
<!DOCTYPE svg PUBLIC "-//W3C//DTD SVG 1.1//EN" "http://www.w3.org/Graphics/SVG/1.1/DTD/svg11.dtd">
<svg viewBox="0 0 1024 1024" version="1.1" xmlns="http://www.w3.org/2000/svg">
  <path d="M512 789.333333l-106.666667-128v-128h213.333334v128z" fill="#FF9800"></path>
  <path d="M704 405.333333m-42.666667 0a42.666667 42.666667 0 1 0 85.333334 0 42.666667 42.666667 0 1 0-85.333334 0Z" fill="#FFA726"></path>
  <path d="M320 405.333333m-42.666667 0a42.666667 42.666667 0 1 0 85.333334 0 42.666667 42.666667 0 1 0-85.333334 0Z" fill="#FFA726"></path>
  <path d="M704 277.333333c0-162.133333-384-106.666667-384 0v149.333334c0 106.666667 85.333333 192 192 192s192-85.333333 192-192v-149.333334z" fill="#FFB74D"></path>
  <path d="M512 85.333333c-130.133333 0-213.333333 104.533333-213.333333 234.666667v49.066667l42.666666 36.266666v-106.666666l256-85.333334 85.333334 85.333334v106.666666l42.666666-36.266666V320c0-85.333333-21.333333-170.666667-128-192l-21.333333-42.666667h-64z" fill="#FF5722"></path>
  <path d="M597.333333 405.333333m-21.333333 0a21.333333 21.333333 0 1 0 42.666667 0 21.333333 21.333333 0 1 0-42.666667 0Z" fill="#784719"></path>
  <path d="M426.666667 405.333333m-21.333334 0a21.333333 21.333333 0 1 0 42.666667 0 21.333333 21.333333 0 1 0-42.666667 0Z" fill="#784719"></path>
  <path d="M618.666667 661.333333l-106.666667 21.333334-106.666667-21.333334S170.666667 704 170.666667 938.666667h682.666666c0-234.666667-234.666667-277.333333-234.666666-277.333334z" fill="#CFD8DC"></path>
  <path d="M490.666667 746.666667l-21.333334 192h85.333334l-21.333334-192 21.333334-21.333334-42.666667-42.666666-42.666667 42.666666z" fill="#3F51B5"></path>
</svg>