<?xml version="1.0" standalone="no"?>
<!DOCTYPE svg PUBLIC "-//W3C//DTD SVG 1.1//EN" "http://www.w3.org/Graphics/SVG/1.1/DTD/svg11.dtd">
<svg class="icon" viewBox="0 0 1969 1024" version="1.1" xmlns="http://www.w3.org/2000/svg">
  <path d="M1401.285 171.737l-11.323-23.631c-4.923-6.952-11.914-12.15-15.912-20.244h-1.122v-1.142a81.762 81.762 0 0 1 20.42-2.245c4.097 3.919 10.34 6.577 13.589 11.244 2.441 3.506 2.855 7.188 5.69 10.162 0.02 11.973-3.17 19.83-10.22 24.733l-1.122 1.123z m508.002 506.466c-18.766-11.815-40.566-18.55-60.08-30.385-10.99-6.636-21.525-14.828-31.745-22.508-9.393-7.03-19.89-20.382-26.112-30.386-3.21-5.218-3.86-11.52-7.916-15.754 1.201-9.196 12.997-9.275 20.401-12.366 26.053-10.91 56.517-14.612 96.394-13.529-1.221-10.161-25.955-22.489-34.009-28.12-16.108-11.265-32.748-23.493-49.9-33.793-8.98-5.356-24.537-9.51-34.009-13.489-13.548-5.671-43.323-11.165-51.042-21.386-14.67-19.436-24.773-43.027-35.15-66.402-10.398-23.414-23.573-48.069-34.049-72.035-5.16-11.854-7.68-22.567-13.588-33.772-36.548-69.533-89.993-127.842-155.332-168.802-21.465-13.45-45.096-25.817-71.464-33.773-14.907-4.49-32.788-1.969-48.758-5.612h-10.22c-8.92-2.619-16.404-12.012-23.828-16.896-15.38-10.141-30.562-17.27-48.738-24.753-6.853-2.836-25.167-9.531-31.744-4.51-3.88 1.26-5.593 2.875-6.814 6.755-3.84 5.75-0.335 14.69 2.265 20.243 7.286 15.735 17.801 25.285 27.214 38.282 8.488 11.717 18.826 25.088 24.95 38.282 12.8 27.59 18.472 58.21 30.602 85.544 4.687 10.436 11.402 22.41 18.157 31.507 5.454 7.326 15.202 12.879 18.117 22.489 6.203 9.65-9.059 42.476-12.446 52.893-13.056 40.31-10.299 96.67 4.53 131.703 5.868 13.824 11.42 29.971 27.234 33.732 1.142-0.866 0.256-0.393 2.264-1.102 3.348-26.979 4.53-52.973 13.588-74.28 5.691-13.351 16.483-22.469 23.828-33.772 5.395 3.072 5.336 12.052 7.916 18.018 6.695 15.4 13.627 32.119 21.563 47.262 16.64 31.724 34.895 62.188 55.572 90.033 7.325 9.905 17.191 20.638 26.053 29.283 3.8 3.662 8.408 5.553 11.362 10.102h1.123v1.142c-15.242-5.18-24.498-20.44-36.293-29.263-22.705-17.014-49.526-42.28-64.63-66.402l-20.402-40.507v-1.142c-2.835 3.76-1.95 7.876-3.406 13.508-6.42 24.773-1.399 52.835-23.828 61.893-25.6 10.359-44.229-16.66-52.145-29.262-25.797-41.04-32.453-109.982-14.73-165.455 3.919-12.308 4.312-27.412 11.323-37.14-1.142-8.724-8.29-11.224-12.485-16.856-6.794-9.236-12.74-20.087-18.137-30.405-10.653-20.382-17.821-44.347-26.072-66.403-3.348-8.94-4.037-17.428-7.956-25.876-5.947-12.878-16.6-25.698-24.93-37.14-11.855-16.324-45.037-47.733-31.744-79.91 21.07-51.004 94.03-12.21 122.466 5.612 7.129 4.49 15.045 13.745 22.686 16.896l37.415 2.245c23.237 5.474 45.253 9.649 63.508 20.243 85.858 49.88 141.272 100.589 192.768 184.596 10.732 17.506 16.344 36.746 24.93 56.28a1439.35 1439.35 0 0 0 40.842 85.524c6.794 12.997 11.599 27.136 20.401 38.282 3.722 4.707 13.627 6.184 19.279 9.02 16.778 8.388 36.332 14.808 52.165 24.733 28.554 17.88 56.241 39.325 81.644 60.77 9.689 8.232 16.05 20.205 24.95 29.263v4.51c-7.936 2.244-15.872 4.51-23.827 6.734-17.605 4.53-32.827 3.348-49.88 7.877-10.142 2.718-23.04 6.696-34.03 7.917l1.143 1.102c6.459 17.92 41.196 32.827 56.714 43.914 19.436 13.844 37.73 30.523 52.145 49.507l14.75 14.65c3.347 4.786 4.273 11.127 7.936 15.755v1.102c-6.952-2.442-10.536-8.507-15.892-12.386-10.811-7.857-21.8-16.64-32.886-23.63z m-617.649-53.17h123.156c6.262 0 11.855 0.414 18.117 1.261 54.39 7.424 81.9 31.016 81.9 69.908V849.23c0 31.527-11.677 48.423-38.597 59.411l63.902 57.266h-75.323l-51.693-46.336-52.066 3.288h-69.396a144.05 144.05 0 0 1-38.124-5.395c-41.256-11.146-61.263-32.67-61.263-68.234V696.2c0-38.891 27.51-62.483 81.88-69.907 5.652-0.847 11.895-1.26 17.527-1.26z m-29.361 220.476c0 2.068 0.61 4.135 1.26 6.597 3.742 17.802 20.618 27.727 46.238 27.727h58.939l-54.134-48.522h75.323l47.222 42.319c8.704-4.608 14.434-11.658 16.443-20.677 0.61-2.068 0.61-4.136 0.61-6.203V699.924c0-1.654 0-3.742-0.61-5.79-3.742-16.561-20.638-26.072-45.647-26.072h-98.146c-28.751 0-47.498 12.406-47.498 31.862v145.585zM961.85 667.845c-23.099 2.028-29.972 5.75-33.083 18.964-0.63 2.087-0.63 3.741-0.63 5.376v29.321c0 2.048 0 3.683 0.63 5.75 3.111 17.37 15.596 25.187 41.787 25.187h78.592c19.358 0 39.326 3.289 55.532 9.492 30.583 11.56 46.16 28.908 46.16 47.458v47.065c0 22.705-13.707 40.034-41.788 52.834-16.837 7.858-38.065 12.387-59.904 12.387H862.661v-42.93h179.003c2.52 0 4.391-0.393 6.892-0.393 12.466-0.847 21.82-4.136 27.432-9.098 6.242-4.963 9.354-10.713 9.354-15.281v-37.534a15.281 15.281 0 0 0-4.963-11.56c-6.262-7.423-15.005-11.145-35.584-12.8-1.87-0.393-4.352-0.393-6.873-0.393h-67.347c-6.243 0-12.505-0.433-18.708-0.827-55.532-5.79-88.615-30.543-88.615-59.451v-37.554c0-33.004 16.876-52.027 55.532-63.98 12.485-3.722 26.19-5.376 52.42-5.376h182.155v42.93H968.074c-1.87 0-4.352 0.433-6.223 0.433z m-251.865 343.847H505.108V968.37c0.354 0 204.682 0.06 205.194 0 41.767-4.391 36.824-24.99 36.824-31.921v-16.896H609.28c-64.158-0.59-105.02-28.377-105.511-60.337-0.04-2.954 1.378-143.104-0.04-144.502h64.867v140.09c-0.591 7.602 2.461 25.463 38.006 26.034 18.117 0.276 139.933 0 141.056 0V714.043h65.004c0.315 0-0.059 227.446-0.059 228.411 0.374 56.123-70.144 68.273-102.597 69.238z m-325.1-344.28l-100.43 221.676c-11.836 26.82-27.452 36.313-59.255 36.313-31.823 0-48.049-9.492-59.884-36.313L64.887 667.412v254.267H0V667.845c0-24.793 9.964-36.746 30.582-42.93 49.27-15.3 82.944-2.067 97.28 30.937l95.468 218.782 98.56-218.782c14.967-33.004 48.03-46.237 97.32-30.936 20.559 6.183 30.562 18.136 30.562 42.929v253.834h-64.886V667.412z m1235.574 179.14c0 22.706 14.317 32.198 52.382 32.198h170.299v42.929h-169.059a279.63 279.63 0 0 1-18.707-0.827c-66.757-4.923-99.8-29.736-99.8-73.886V624.482h64.885v222.09z m300.938-16.482c25.265 0 47.833 19.102 47.833 47.459 0 28.357-22.568 47.458-47.833 47.458-25.226 0-47.793-19.101-47.793-47.458s22.567-47.459 47.793-47.459z m0 85.07c20.54 0 37.12-16.088 37.12-37.611 0-21.504-16.58-37.573-37.12-37.573-20.775 0-37.08 16.069-37.08 37.573 0 21.523 16.305 37.612 37.08 37.612z m22.705-49.112c0 9.846-6.38 13.923-14.769 14.809l15.675 23.788h-10.712L1920 881.191h-8.546v23.434h-9.157v-54.154h21.307c13.509 0 20.48 4.53 20.48 15.557z m-32.65-7.995v15.597h9.827c6.892 0 12.879-0.65 12.879-8.252 0-6.32-6.617-7.345-12.111-7.345h-10.594z" fill="#00758f" />
</svg>