<svg xmlns="http://www.w3.org/2000/svg" width="1600" height="500"><path d="M236,646L-57,655L453,652Z" fill="#7f8494" stroke="#7f8494" stroke-width="1.51"/><path d="M442,-158L643,-155L838,-167Z" fill="#b8e1c5" stroke="#b8e1c5" stroke-width="1.51"/><path d="M-60,-168L442,-158L838,-167Z" fill="#d2edc1" stroke="#d2edc1" stroke-width="1.51"/><path d="M453,652L-57,655L851,672Z" fill="#677b93" stroke="#677b93" stroke-width="1.51"/><path d="M-57,655L-173,659L851,672Z" fill="#7e8391" stroke="#7e8391" stroke-width="1.51"/><path d="M-60,-168L838,-167L1037,-169Z" fill="#bbe2c6" stroke="#bbe2c6" stroke-width="1.51"/><path d="M838,-167L940,-166L1037,-169Z" fill="#a6cec8" stroke="#a6cec8" stroke-width="1.51"/><path d="M1037,-169L1164,-157L1358,-160Z" fill="#9fb6c1" stroke="#9fb6c1" stroke-width="1.51"/><path d="M1358,-160L1433,-143L1538,-146Z" fill="#9b9bb4" stroke="#9b9bb4" stroke-width="1.51"/><path d="M1455,658L1264,664L1649,662Z" fill="#1c3484" stroke="#1c3484" stroke-width="1.51"/><path d="M1543,642L1455,658L1649,662Z" fill="#1d2d82" stroke="#1d2d82" stroke-width="1.51"/><path d="M1358,-160L1538,-146L1740,-141Z" fill="#9a92b0" stroke="#9a92b0" stroke-width="1.51"/><path d="M1538,-146L1663,-135L1740,-141Z" fill="#928ca2" stroke="#928ca2" stroke-width="1.51"/><path d="M1737,436L1665,452L1741,569Z" fill="#1c3f88" stroke="#1c3f88" stroke-width="1.51"/><path d="M1645,42L1659,162L1753,149Z" fill="#5b7897" stroke="#5b7897" stroke-width="1.51"/><path d="M1753,149L1674,238L1764,241Z" fill="#3f6d94" stroke="#3f6d94" stroke-width="1.51"/><path d="M1674,238L1739,327L1764,241Z" fill="#306795" stroke="#306795" stroke-width="1.51"/><path d="M1739,327L1737,436L1764,241Z" fill="#235c91" stroke="#235c91" stroke-width="1.51"/><path d="M1645,42L1753,149L1772,71Z" fill="#637992" stroke="#637992" stroke-width="1.51"/><path d="M1753,-61L1645,42L1772,71Z" fill="#778091" stroke="#778091" stroke-width="1.51"/><path d="M1753,149L1764,241L1772,71Z" fill="#4b708e" stroke="#4b708e" stroke-width="1.51"/><path d="M1649,662L1264,664L1772,668Z" fill="#1b2b7d" stroke="#1b2b7d" stroke-width="1.51"/><path d="M1264,664L966,671L1772,668Z" fill="#1c3d86" stroke="#1c3d86" stroke-width="1.51"/><path d="M1741,569L1649,662L1772,668Z" fill="#152772" stroke="#152772" stroke-width="1.51"/><path d="M1764,241L1737,436L1772,668Z" fill="#1a4487" stroke="#1a4487" stroke-width="1.51"/><path d="M1737,436L1741,569L1772,668Z" fill="#1a307e" stroke="#1a307e" stroke-width="1.51"/><path d="M1772,71L1764,241L1772,668Z" fill="#245c8f" stroke="#245c8f" stroke-width="1.51"/><path d="M1633,351L1737,436L1739,327Z" fill="#215896" stroke="#215896" stroke-width="1.51"/><path d="M1658,569L1649,662L1741,569Z" fill="#1c2c80" stroke="#1c2c80" stroke-width="1.51"/><path d="M1665,452L1658,569L1741,569Z" fill="#1e3888" stroke="#1e3888" stroke-width="1.51"/><path d="M1627,-58L1645,42L1753,-61Z" fill="#828596" stroke="#828596" stroke-width="1.51"/><path d="M1659,162L1674,238L1753,149Z" fill="#487198" stroke="#487198" stroke-width="1.51"/><path d="M-60,-168L126,-145L442,-158Z" fill="#eaf7be" stroke="#eaf7be" stroke-width="1.51"/><path d="M1633,351L1665,452L1737,436Z" fill="#215095" stroke="#215095" stroke-width="1.51"/><path d="M1740,-141L1663,-135L1753,-61Z" fill="#8b8794" stroke="#8b8794" stroke-width="1.51"/><path d="M1663,-135L1627,-58L1753,-61Z" fill="#8c8895" stroke="#8c8895" stroke-width="1.51"/><path d="M1674,238L1633,351L1739,327Z" fill="#2d649b" stroke="#2d649b" stroke-width="1.51"/><path d="M1541,462L1528,547L1658,569Z" fill="#253f96" stroke="#253f96" stroke-width="1.51"/><path d="M1559,143L1542,257L1659,162Z" fill="#4f77a6" stroke="#4f77a6" stroke-width="1.51"/><path d="M1645,42L1559,143L1659,162Z" fill="#617c9f" stroke="#617c9f" stroke-width="1.51"/><path d="M1541,462L1658,569L1665,452Z" fill="#224293" stroke="#224293" stroke-width="1.51"/><path d="M1659,162L1542,257L1674,238Z" fill="#4372a2" stroke="#4372a2" stroke-width="1.51"/><path d="M1542,257L1633,351L1674,238Z" fill="#356ba4" stroke="#356ba4" stroke-width="1.51"/><path d="M1543,642L1649,662L1658,569Z" fill="#1d2d81" stroke="#1d2d81" stroke-width="1.51"/><path d="M1538,-146L1627,-58L1663,-135Z" fill="#938da2" stroke="#938da2" stroke-width="1.51"/><path d="M1633,351L1541,462L1665,452Z" fill="#25529b" stroke="#25529b" stroke-width="1.51"/><path d="M1627,-58L1552,26L1645,42Z" fill="#82889f" stroke="#82889f" stroke-width="1.51"/><path d="M1542,257L1548,342L1633,351Z" fill="#3268a8" stroke="#3268a8" stroke-width="1.51"/><path d="M1528,547L1543,642L1658,569Z" fill="#233390" stroke="#233390" stroke-width="1.51"/><path d="M1552,26L1559,143L1645,42Z" fill="#7283a3" stroke="#7283a3" stroke-width="1.51"/><path d="M1538,-146L1556,-59L1627,-58Z" fill="#958fa3" stroke="#958fa3" stroke-width="1.51"/><path d="M1548,342L1541,462L1633,351Z" fill="#295ca4" stroke="#295ca4" stroke-width="1.51"/><path d="M1556,-59L1552,26L1627,-58Z" fill="#8b8ba3" stroke="#8b8ba3" stroke-width="1.51"/><path d="M670,642L453,652L851,672Z" fill="#477197" stroke="#477197" stroke-width="1.51"/><path d="M1470,145L1465,267L1542,257Z" fill="#467bae" stroke="#467bae" stroke-width="1.51"/><path d="M1528,547L1458,555L1543,642Z" fill="#263996" stroke="#263996" stroke-width="1.51"/><path d="M1457,442L1541,462L1548,342Z" fill="#2959a6" stroke="#2959a6" stroke-width="1.51"/><path d="M1451,353L1457,442L1548,342Z" fill="#2a64ab" stroke="#2a64ab" stroke-width="1.51"/><path d="M1542,257L1465,267L1548,342Z" fill="#3970ad" stroke="#3970ad" stroke-width="1.51"/><path d="M1471,-31L1552,26L1556,-59Z" fill="#8c8ea7" stroke="#8c8ea7" stroke-width="1.51"/><path d="M1538,-146L1471,-31L1556,-59Z" fill="#9692a7" stroke="#9692a7" stroke-width="1.51"/><path d="M1470,145L1542,257L1559,143Z" fill="#537cab" stroke="#537cab" stroke-width="1.51"/><path d="M1552,26L1460,46L1559,143Z" fill="#7587a9" stroke="#7587a9" stroke-width="1.51"/><path d="M1460,46L1470,145L1559,143Z" fill="#6785ab" stroke="#6785ab" stroke-width="1.51"/><path d="M1433,-143L1471,-31L1538,-146Z" fill="#9997ac" stroke="#9997ac" stroke-width="1.51"/><path d="M1344,636L1264,664L1455,658Z" fill="#1d3d8a" stroke="#1d3d8a" stroke-width="1.51"/><path d="M1458,555L1455,658L1543,642Z" fill="#22368e" stroke="#22368e" stroke-width="1.51"/><path d="M1465,267L1451,353L1548,342Z" fill="#326eae" stroke="#326eae" stroke-width="1.51"/><path d="M1471,-31L1460,46L1552,26Z" fill="#8590a9" stroke="#8590a9" stroke-width="1.51"/><path d="M1457,442L1458,555L1528,547Z" fill="#26489e" stroke="#26489e" stroke-width="1.51"/><path d="M1457,442L1528,547L1541,462Z" fill="#264b9f" stroke="#264b9f" stroke-width="1.51"/><path d="M1451,353L1370,447L1457,442Z" fill="#2761aa" stroke="#2761aa" stroke-width="1.51"/><path d="M1344,636L1455,658L1458,555Z" fill="#223c91" stroke="#223c91" stroke-width="1.51"/><path d="M1352,558L1344,636L1458,555Z" fill="#26439b" stroke="#26439b" stroke-width="1.51"/><path d="M1457,442L1370,447L1458,555Z" fill="#2553a3" stroke="#2553a3" stroke-width="1.51"/><path d="M1370,447L1352,558L1458,555Z" fill="#264ea0" stroke="#264ea0" stroke-width="1.51"/><path d="M1331,-26L1355,65L1460,46Z" fill="#8298ad" stroke="#8298ad" stroke-width="1.51"/><path d="M1373,343L1451,353L1465,267Z" fill="#3172b0" stroke="#3172b0" stroke-width="1.51"/><path d="M1342,160L1373,232L1470,145Z" fill="#5187b0" stroke="#5187b0" stroke-width="1.51"/><path d="M1460,46L1355,65L1470,145Z" fill="#708ead" stroke="#708ead" stroke-width="1.51"/><path d="M1355,65L1342,160L1470,145Z" fill="#628daf" stroke="#628daf" stroke-width="1.51"/><path d="M1373,232L1465,267L1470,145Z" fill="#4880b0" stroke="#4880b0" stroke-width="1.51"/><path d="M1331,-26L1460,46L1471,-31Z" fill="#8997ab" stroke="#8997ab" stroke-width="1.51"/><path d="M1433,-143L1331,-26L1471,-31Z" fill="#949bac" stroke="#949bac" stroke-width="1.51"/><path d="M1156,635L966,671L1264,664Z" fill="#205292" stroke="#205292" stroke-width="1.51"/><path d="M1373,343L1370,447L1451,353Z" fill="#276bae" stroke="#276bae" stroke-width="1.51"/><path d="M1373,232L1373,343L1465,267Z" fill="#377cb2" stroke="#377cb2" stroke-width="1.51"/><path d="M1358,-160L1331,-26L1433,-143Z" fill="#99a1b0" stroke="#99a1b0" stroke-width="1.51"/><path d="M1164,-157L1248,-133L1358,-160Z" fill="#9daebb" stroke="#9daebb" stroke-width="1.51"/><path d="M126,-145L267,-140L442,-158Z" fill="#e1f3bd" stroke="#e1f3bd" stroke-width="1.51"/><path d="M1030,642L966,671L1156,635Z" fill="#225a98" stroke="#225a98" stroke-width="1.51"/><path d="M1259,429L1274,569L1352,558Z" fill="#2457a4" stroke="#2457a4" stroke-width="1.51"/><path d="M1248,-133L1331,-26L1358,-160Z" fill="#99a6b2" stroke="#99a6b2" stroke-width="1.51"/><path d="M1259,429L1352,558L1370,447Z" fill="#235ca7" stroke="#235ca7" stroke-width="1.51"/><path d="M1259,429L1370,447L1373,343Z" fill="#256aae" stroke="#256aae" stroke-width="1.51"/><path d="M1237,368L1259,429L1373,343Z" fill="#2374b3" stroke="#2374b3" stroke-width="1.51"/><path d="M1226,269L1237,368L1373,343Z" fill="#2b7fb6" stroke="#2b7fb6" stroke-width="1.51"/><path d="M1226,269L1373,343L1373,232Z" fill="#3482b5" stroke="#3482b5" stroke-width="1.51"/><path d="M1342,160L1226,269L1373,232Z" fill="#438bb5" stroke="#438bb5" stroke-width="1.51"/><path d="M1248,-133L1239,-42L1331,-26Z" fill="#95a8b1" stroke="#95a8b1" stroke-width="1.51"/><path d="M1236,73L1237,151L1342,160Z" fill="#5f98b3" stroke="#5f98b3" stroke-width="1.51"/><path d="M1237,151L1226,269L1342,160Z" fill="#4b91b6" stroke="#4b91b6" stroke-width="1.51"/><path d="M1274,569L1344,636L1352,558Z" fill="#26479d" stroke="#26479d" stroke-width="1.51"/><path d="M1236,73L1342,160L1355,65Z" fill="#6a97b1" stroke="#6a97b1" stroke-width="1.51"/><path d="M1331,-26L1236,73L1355,65Z" fill="#7f9eb0" stroke="#7f9eb0" stroke-width="1.51"/><path d="M1239,-42L1236,73L1331,-26Z" fill="#89a5b1" stroke="#89a5b1" stroke-width="1.51"/><path d="M1274,569L1264,664L1344,636Z" fill="#214694" stroke="#214694" stroke-width="1.51"/><path d="M1171,168L1226,269L1237,151Z" fill="#4a98b9" stroke="#4a98b9" stroke-width="1.51"/><path d="M1173,58L1236,73L1239,-42Z" fill="#83a9b4" stroke="#83a9b4" stroke-width="1.51"/><path d="M1140,447L1127,535L1259,429Z" fill="#236baf" stroke="#236baf" stroke-width="1.51"/><path d="M1259,429L1127,535L1274,569Z" fill="#255fa9" stroke="#255fa9" stroke-width="1.51"/><path d="M1156,635L1264,664L1274,569Z" fill="#234c98" stroke="#234c98" stroke-width="1.51"/><path d="M1127,535L1156,635L1274,569Z" fill="#2956a4" stroke="#2956a4" stroke-width="1.51"/><path d="M1171,168L1150,233L1226,269Z" fill="#4198bb" stroke="#4198bb" stroke-width="1.51"/><path d="M1164,-157L1239,-42L1248,-133Z" fill="#9bb1b7" stroke="#9bb1b7" stroke-width="1.51"/><path d="M1237,368L1140,447L1259,429Z" fill="#2374b2" stroke="#2374b2" stroke-width="1.51"/><path d="M1226,269L1141,355L1237,368Z" fill="#2986b9" stroke="#2986b9" stroke-width="1.51"/><path d="M1236,73L1173,58L1237,151Z" fill="#6da2b5" stroke="#6da2b5" stroke-width="1.51"/><path d="M1173,58L1171,168L1237,151Z" fill="#60a0b7" stroke="#60a0b7" stroke-width="1.51"/><path d="M1133,-40L1173,58L1239,-42Z" fill="#8bafb5" stroke="#8bafb5" stroke-width="1.51"/><path d="M1164,-157L1133,-40L1239,-42Z" fill="#99b4b5" stroke="#99b4b5" stroke-width="1.51"/><path d="M1141,355L1140,447L1237,368Z" fill="#227eb7" stroke="#227eb7" stroke-width="1.51"/><path d="M1150,233L1141,355L1226,269Z" fill="#3091bc" stroke="#3091bc" stroke-width="1.51"/><path d="M1050,239L1141,355L1150,233Z" fill="#3098bf" stroke="#3098bf" stroke-width="1.51"/><path d="M1037,-169L1133,-40L1164,-157Z" fill="#9ebdbd" stroke="#9ebdbd" stroke-width="1.51"/><path d="M1029,73L1031,163L1171,168Z" fill="#5cacbd" stroke="#5cacbd" stroke-width="1.51"/><path d="M1029,73L1171,168L1173,58Z" fill="#6babba" stroke="#6babba" stroke-width="1.51"/><path d="M1133,-40L1029,73L1173,58Z" fill="#84b4b8" stroke="#84b4b8" stroke-width="1.51"/><path d="M1031,163L1150,233L1171,168Z" fill="#4ca2bd" stroke="#4ca2bd" stroke-width="1.51"/><path d="M1037,-37L1029,73L1133,-40Z" fill="#8cbcba" stroke="#8cbcba" stroke-width="1.51"/><path d="M1031,163L1050,239L1150,233Z" fill="#44a4bf" stroke="#44a4bf" stroke-width="1.51"/><path d="M1127,535L1030,642L1156,635Z" fill="#295ba3" stroke="#295ba3" stroke-width="1.51"/><path d="M1037,-169L1037,-37L1133,-40Z" fill="#9bc0b9" stroke="#9bc0b9" stroke-width="1.51"/><path d="M1059,432L1140,447L1141,355Z" fill="#227fb8" stroke="#227fb8" stroke-width="1.51"/><path d="M1050,239L1033,361L1141,355Z" fill="#2895c0" stroke="#2895c0" stroke-width="1.51"/><path d="M1059,432L1044,526L1127,535Z" fill="#2570b1" stroke="#2570b1" stroke-width="1.51"/><path d="M1044,526L1030,642L1127,535Z" fill="#2b64ab" stroke="#2b64ab" stroke-width="1.51"/><path d="M1059,432L1127,535L1140,447Z" fill="#2372b2" stroke="#2372b2" stroke-width="1.51"/><path d="M1033,361L1059,432L1141,355Z" fill="#2089bd" stroke="#2089bd" stroke-width="1.51"/><path d="M972,33L1029,73L1037,-37Z" fill="#89bebc" stroke="#89bebc" stroke-width="1.51"/><path d="M1037,-169L967,-59L1037,-37Z" fill="#9ec5bb" stroke="#9ec5bb" stroke-width="1.51"/><path d="M930,563L1030,642L1044,526Z" fill="#2f67ac" stroke="#2f67ac" stroke-width="1.51"/><path d="M943,358L1033,361L1050,239Z" fill="#2b9bc2" stroke="#2b9bc2" stroke-width="1.51"/><path d="M927,240L943,358L1050,239Z" fill="#34a4c2" stroke="#34a4c2" stroke-width="1.51"/><path d="M969,468L1044,526L1059,432Z" fill="#2679b4" stroke="#2679b4" stroke-width="1.51"/><path d="M1033,361L969,468L1059,432Z" fill="#2486bb" stroke="#2486bb" stroke-width="1.51"/><path d="M571,634L453,652L670,642Z" fill="#53769a" stroke="#53769a" stroke-width="1.51"/><path d="M1029,73L932,137L1031,163Z" fill="#63b4be" stroke="#63b4be" stroke-width="1.51"/><path d="M943,358L969,468L1033,361Z" fill="#278ebd" stroke="#278ebd" stroke-width="1.51"/><path d="M940,-166L967,-59L1037,-169Z" fill="#a2cac2" stroke="#a2cac2" stroke-width="1.51"/><path d="M1031,163L927,240L1050,239Z" fill="#44aac1" stroke="#44aac1" stroke-width="1.51"/><path d="M969,468L930,563L1044,526Z" fill="#2d74b1" stroke="#2d74b1" stroke-width="1.51"/><path d="M930,563L966,671L1030,642Z" fill="#2c63a0" stroke="#2c63a0" stroke-width="1.51"/><path d="M967,-59L972,33L1037,-37Z" fill="#92c3bb" stroke="#92c3bb" stroke-width="1.51"/><path d="M932,137L927,240L1031,163Z" fill="#51b1c0" stroke="#51b1c0" stroke-width="1.51"/><path d="M972,33L932,137L1029,73Z" fill="#75bbbd" stroke="#75bbbd" stroke-width="1.51"/><path d="M930,563L851,672L966,671Z" fill="#30669e" stroke="#30669e" stroke-width="1.51"/><path d="M940,-166L874,-74L967,-59Z" fill="#a2cdbd" stroke="#a2cdbd" stroke-width="1.51"/><path d="M943,358L874,448L969,468Z" fill="#2d8cbb" stroke="#2d8cbb" stroke-width="1.51"/><path d="M874,448L930,563L969,468Z" fill="#307cb4" stroke="#307cb4" stroke-width="1.51"/><path d="M849,34L932,137L972,33Z" fill="#7cc0bd" stroke="#7cc0bd" stroke-width="1.51"/><path d="M967,-59L874,-74L972,33Z" fill="#96c8bc" stroke="#96c8bc" stroke-width="1.51"/><path d="M874,-74L849,34L972,33Z" fill="#91c9bc" stroke="#91c9bc" stroke-width="1.51"/><path d="M872,368L874,448L943,358Z" fill="#2d96bf" stroke="#2d96bf" stroke-width="1.51"/><path d="M927,240L872,368L943,358Z" fill="#31a1c2" stroke="#31a1c2" stroke-width="1.51"/><path d="M726,635L670,642L851,672Z" fill="#3c6e9a" stroke="#3c6e9a" stroke-width="1.51"/><path d="M841,243L872,368L927,240Z" fill="#39aac3" stroke="#39aac3" stroke-width="1.51"/><path d="M874,448L858,558L930,563Z" fill="#357ab1" stroke="#357ab1" stroke-width="1.51"/><path d="M858,558L851,672L930,563Z" fill="#376da9" stroke="#376da9" stroke-width="1.51"/><path d="M849,34L827,127L932,137Z" fill="#72c1be" stroke="#72c1be" stroke-width="1.51"/><path d="M841,243L927,240L932,137Z" fill="#4cb3c2" stroke="#4cb3c2" stroke-width="1.51"/><path d="M827,127L841,243L932,137Z" fill="#59b9c1" stroke="#59b9c1" stroke-width="1.51"/><path d="M838,-167L874,-74L940,-166Z" fill="#a6d1c3" stroke="#a6d1c3" stroke-width="1.51"/><path d="M143,637L-57,655L236,646Z" fill="#888796" stroke="#888796" stroke-width="1.51"/><path d="M643,-155L743,-126L838,-167Z" fill="#aedbc5" stroke="#aedbc5" stroke-width="1.51"/><path d="M827,127L754,171L841,243Z" fill="#58bcc2" stroke="#58bcc2" stroke-width="1.51"/><path d="M726,635L851,672L858,558Z" fill="#396ea3" stroke="#396ea3" stroke-width="1.51"/><path d="M841,243L749,266L872,368Z" fill="#3badc4" stroke="#3badc4" stroke-width="1.51"/><path d="M749,266L734,357L872,368Z" fill="#3aa9c2" stroke="#3aa9c2" stroke-width="1.51"/><path d="M734,357L731,441L872,368Z" fill="#389ebf" stroke="#389ebf" stroke-width="1.51"/><path d="M838,-167L743,-126L874,-74Z" fill="#a7d6c1" stroke="#a7d6c1" stroke-width="1.51"/><path d="M743,-126L773,-31L874,-74Z" fill="#a4d6bc" stroke="#a4d6bc" stroke-width="1.51"/><path d="M773,-31L849,34L874,-74Z" fill="#99d0bc" stroke="#99d0bc" stroke-width="1.51"/><path d="M747,538L858,558L874,448Z" fill="#397fb3" stroke="#397fb3" stroke-width="1.51"/><path d="M731,441L747,538L874,448Z" fill="#3a89b6" stroke="#3a89b6" stroke-width="1.51"/><path d="M872,368L731,441L874,448Z" fill="#3494bc" stroke="#3494bc" stroke-width="1.51"/><path d="M769,56L827,127L849,34Z" fill="#7ec8be" stroke="#7ec8be" stroke-width="1.51"/><path d="M747,538L726,635L858,558Z" fill="#4277ad" stroke="#4277ad" stroke-width="1.51"/><path d="M773,-31L769,56L849,34Z" fill="#91d0bd" stroke="#91d0bd" stroke-width="1.51"/><path d="M754,171L749,266L841,243Z" fill="#4cb9c3" stroke="#4cb9c3" stroke-width="1.51"/><path d="M769,56L754,171L827,127Z" fill="#6fc5bf" stroke="#6fc5bf" stroke-width="1.51"/><path d="M-60,-168L51,-148L126,-145Z" fill="#f3fabe" stroke="#f3fabe" stroke-width="1.51"/><path d="M38,639L-57,655L143,637Z" fill="#8d8896" stroke="#8d8896" stroke-width="1.51"/><path d="M442,-158L560,-135L643,-155Z" fill="#bfe5c1" stroke="#bfe5c1" stroke-width="1.51"/><path d="M674,-74L625,67L769,56Z" fill="#9bd5ba" stroke="#9bd5ba" stroke-width="1.51"/><path d="M656,131L754,171L769,56Z" fill="#74c7be" stroke="#74c7be" stroke-width="1.51"/><path d="M674,-74L769,56L773,-31Z" fill="#9dd5bb" stroke="#9dd5bb" stroke-width="1.51"/><path d="M743,-126L674,-74L773,-31Z" fill="#aad9ba" stroke="#aad9ba" stroke-width="1.51"/><path d="M649,254L749,266L754,171Z" fill="#55bcc2" stroke="#55bcc2" stroke-width="1.51"/><path d="M625,67L656,131L769,56Z" fill="#85cdbc" stroke="#85cdbc" stroke-width="1.51"/><path d="M649,254L640,355L734,357Z" fill="#4eafc1" stroke="#4eafc1" stroke-width="1.51"/><path d="M636,559L726,635L747,538Z" fill="#4c7aac" stroke="#4c7aac" stroke-width="1.51"/><path d="M731,441L653,447L747,538Z" fill="#468db5" stroke="#468db5" stroke-width="1.51"/><path d="M649,254L734,357L749,266Z" fill="#4cb3c2" stroke="#4cb3c2" stroke-width="1.51"/><path d="M656,131L649,254L754,171Z" fill="#66c1c0" stroke="#66c1c0" stroke-width="1.51"/><path d="M636,559L670,642L726,635Z" fill="#4b75a4" stroke="#4b75a4" stroke-width="1.51"/><path d="M653,447L731,441L734,357Z" fill="#469bbb" stroke="#469bbb" stroke-width="1.51"/><path d="M653,447L636,559L747,538Z" fill="#4d86b1" stroke="#4d86b1" stroke-width="1.51"/><path d="M640,355L653,447L734,357Z" fill="#4aa3be" stroke="#4aa3be" stroke-width="1.51"/><path d="M643,-155L674,-74L743,-126Z" fill="#b1ddbf" stroke="#b1ddbf" stroke-width="1.51"/><path d="M267,-140L333,-138L442,-158Z" fill="#d8f0bd" stroke="#d8f0bd" stroke-width="1.51"/><path d="M565,470L636,559L653,447Z" fill="#538eb2" stroke="#538eb2" stroke-width="1.51"/><path d="M564,260L649,254L656,131Z" fill="#65c1c0" stroke="#65c1c0" stroke-width="1.51"/><path d="M526,164L564,260L656,131Z" fill="#71c6be" stroke="#71c6be" stroke-width="1.51"/><path d="M636,559L571,634L670,642Z" fill="#5278a3" stroke="#5278a3" stroke-width="1.51"/><path d="M547,-36L625,67L674,-74Z" fill="#a7dab8" stroke="#a7dab8" stroke-width="1.51"/><path d="M643,-155L560,-135L674,-74Z" fill="#b7e0be" stroke="#b7e0be" stroke-width="1.51"/><path d="M560,-135L547,-36L674,-74Z" fill="#b5e0b8" stroke="#b5e0b8" stroke-width="1.51"/><path d="M564,260L640,355L649,254Z" fill="#58b8c1" stroke="#58b8c1" stroke-width="1.51"/><path d="M547,-36L540,45L625,67Z" fill="#a3dab8" stroke="#a3dab8" stroke-width="1.51"/><path d="M533,355L565,470L640,355Z" fill="#57a6bb" stroke="#57a6bb" stroke-width="1.51"/><path d="M640,355L565,470L653,447Z" fill="#529db9" stroke="#529db9" stroke-width="1.51"/><path d="M625,67L526,164L656,131Z" fill="#80ccbc" stroke="#80ccbc" stroke-width="1.51"/><path d="M564,260L533,355L640,355Z" fill="#5ab4bf" stroke="#5ab4bf" stroke-width="1.51"/><path d="M551,570L571,634L636,559Z" fill="#5a7ca9" stroke="#5a7ca9" stroke-width="1.51"/><path d="M565,470L551,570L636,559Z" fill="#5987ae" stroke="#5987ae" stroke-width="1.51"/><path d="M540,45L526,164L625,67Z" fill="#8ed2ba" stroke="#8ed2ba" stroke-width="1.51"/><path d="M328,627L236,646L453,652Z" fill="#758197" stroke="#758197" stroke-width="1.51"/><path d="M449,132L526,164L540,45Z" fill="#8fd3ba" stroke="#8fd3ba" stroke-width="1.51"/><path d="M474,450L429,527L551,570Z" fill="#688fae" stroke="#688fae" stroke-width="1.51"/><path d="M442,-158L547,-36L560,-135Z" fill="#c0e5ba" stroke="#c0e5ba" stroke-width="1.51"/><path d="M437,266L533,355L564,260Z" fill="#68bcbf" stroke="#68bcbf" stroke-width="1.51"/><path d="M474,450L551,570L565,470Z" fill="#5f90b0" stroke="#5f90b0" stroke-width="1.51"/><path d="M533,355L474,450L565,470Z" fill="#60a1b7" stroke="#60a1b7" stroke-width="1.51"/><path d="M551,570L453,652L571,634Z" fill="#5d7ba0" stroke="#5d7ba0" stroke-width="1.51"/><path d="M442,-158L438,-30L547,-36Z" fill="#c1e5b5" stroke="#c1e5b5" stroke-width="1.51"/><path d="M526,164L437,266L564,260Z" fill="#71c6be" stroke="#71c6be" stroke-width="1.51"/><path d="M441,64L449,132L540,45Z" fill="#9ed8b9" stroke="#9ed8b9" stroke-width="1.51"/><path d="M437,266L434,347L533,355Z" fill="#6eb9be" stroke="#6eb9be" stroke-width="1.51"/><path d="M438,-30L540,45L547,-36Z" fill="#b1dfb7" stroke="#b1dfb7" stroke-width="1.51"/><path d="M429,527L453,652L551,570Z" fill="#6982a9" stroke="#6982a9" stroke-width="1.51"/><path d="M438,-30L441,64L540,45Z" fill="#afdfb7" stroke="#afdfb7" stroke-width="1.51"/><path d="M434,347L474,450L533,355Z" fill="#68adbb" stroke="#68adbb" stroke-width="1.51"/><path d="M449,132L437,266L526,164Z" fill="#82ccbc" stroke="#82ccbc" stroke-width="1.51"/><path d="M365,-42L438,-30L442,-158Z" fill="#c9e9b4" stroke="#c9e9b4" stroke-width="1.51"/><path d="M333,225L437,266L449,132Z" fill="#87cebc" stroke="#87cebc" stroke-width="1.51"/><path d="M338,154L333,225L449,132Z" fill="#94d3ba" stroke="#94d3ba" stroke-width="1.51"/><path d="M429,527L328,627L453,652Z" fill="#7283a3" stroke="#7283a3" stroke-width="1.51"/><path d="M434,347L352,462L474,450Z" fill="#73a8b7" stroke="#73a8b7" stroke-width="1.51"/><path d="M352,462L429,527L474,450Z" fill="#7299b1" stroke="#7299b1" stroke-width="1.51"/><path d="M328,565L328,627L429,527Z" fill="#7b8aa9" stroke="#7b8aa9" stroke-width="1.51"/><path d="M365,-42L370,72L438,-30Z" fill="#c0e5b5" stroke="#c0e5b5" stroke-width="1.51"/><path d="M438,-30L370,72L441,64Z" fill="#b5e1b6" stroke="#b5e1b6" stroke-width="1.51"/><path d="M333,-138L365,-42L442,-158Z" fill="#d2edb8" stroke="#d2edb8" stroke-width="1.51"/><path d="M441,64L370,72L449,132Z" fill="#a4dab8" stroke="#a4dab8" stroke-width="1.51"/><path d="M333,330L434,347L437,266Z" fill="#7abfbd" stroke="#7abfbd" stroke-width="1.51"/><path d="M370,72L338,154L449,132Z" fill="#9fd8b9" stroke="#9fd8b9" stroke-width="1.51"/><path d="M333,330L352,462L434,347Z" fill="#7bb4ba" stroke="#7bb4ba" stroke-width="1.51"/><path d="M333,225L333,330L437,266Z" fill="#83c7bd" stroke="#83c7bd" stroke-width="1.51"/><path d="M352,462L328,565L429,527Z" fill="#7994ad" stroke="#7994ad" stroke-width="1.51"/><path d="M333,330L269,349L352,462Z" fill="#83b6ba" stroke="#83b6ba" stroke-width="1.51"/><path d="M269,349L247,427L352,462Z" fill="#87b0b6" stroke="#87b0b6" stroke-width="1.51"/><path d="M333,-138L271,-66L365,-42Z" fill="#d6eeb3" stroke="#d6eeb3" stroke-width="1.51"/><path d="M271,-66L251,62L365,-42Z" fill="#cfebb4" stroke="#cfebb4" stroke-width="1.51"/><path d="M365,-42L251,62L370,72Z" fill="#c2e7b5" stroke="#c2e7b5" stroke-width="1.51"/><path d="M251,62L338,154L370,72Z" fill="#afdfb7" stroke="#afdfb7" stroke-width="1.51"/><path d="M264,552L328,565L352,462Z" fill="#8295ac" stroke="#8295ac" stroke-width="1.51"/><path d="M247,247L333,330L333,225Z" fill="#8eccbc" stroke="#8eccbc" stroke-width="1.51"/><path d="M247,427L264,552L352,462Z" fill="#85a0b0" stroke="#85a0b0" stroke-width="1.51"/><path d="M264,552L328,627L328,565Z" fill="#828aa7" stroke="#828aa7" stroke-width="1.51"/><path d="M247,247L269,349L333,330Z" fill="#8dc6bc" stroke="#8dc6bc" stroke-width="1.51"/><path d="M267,-140L271,-66L333,-138Z" fill="#ddf2b8" stroke="#ddf2b8" stroke-width="1.51"/><path d="M259,174L333,225L338,154Z" fill="#9bd5ba" stroke="#9bd5ba" stroke-width="1.51"/><path d="M251,62L259,174L338,154Z" fill="#a9dcb8" stroke="#a9dcb8" stroke-width="1.51"/><path d="M259,174L247,247L333,225Z" fill="#98d3bb" stroke="#98d3bb" stroke-width="1.51"/><path d="M264,552L236,646L328,627Z" fill="#8287a1" stroke="#8287a1" stroke-width="1.51"/><path d="M173,-57L162,66L251,62Z" fill="#cfecb4" stroke="#cfecb4" stroke-width="1.51"/><path d="M251,62L162,66L259,174Z" fill="#b7e2b6" stroke="#b7e2b6" stroke-width="1.51"/><path d="M162,66L129,167L259,174Z" fill="#afdeb7" stroke="#afdeb7" stroke-width="1.51"/><path d="M247,427L164,525L264,552Z" fill="#8a9cad" stroke="#8a9cad" stroke-width="1.51"/><path d="M164,525L236,646L264,552Z" fill="#8a8ea7" stroke="#8a8ea7" stroke-width="1.51"/><path d="M247,247L174,346L269,349Z" fill="#91c6bc" stroke="#91c6bc" stroke-width="1.51"/><path d="M174,346L247,427L269,349Z" fill="#8dbbba" stroke="#8dbbba" stroke-width="1.51"/><path d="M267,-140L173,-57L271,-66Z" fill="#dff3b2" stroke="#dff3b2" stroke-width="1.51"/><path d="M173,-57L251,62L271,-66Z" fill="#d5eeb3" stroke="#d5eeb3" stroke-width="1.51"/><path d="M150,272L174,346L247,247Z" fill="#97ccbc" stroke="#97ccbc" stroke-width="1.51"/><path d="M126,-145L173,-57L267,-140Z" fill="#e5f5b6" stroke="#e5f5b6" stroke-width="1.51"/><path d="M164,525L143,637L236,646Z" fill="#8a8ba2" stroke="#8a8ba2" stroke-width="1.51"/><path d="M129,167L247,247L259,174Z" fill="#a2d7ba" stroke="#a2d7ba" stroke-width="1.51"/><path d="M142,425L164,525L247,427Z" fill="#8ea7b1" stroke="#8ea7b1" stroke-width="1.51"/><path d="M174,346L142,425L247,427Z" fill="#90b6b7" stroke="#90b6b7" stroke-width="1.51"/><path d="M129,167L150,272L247,247Z" fill="#9fd5bb" stroke="#9fd5bb" stroke-width="1.51"/><path d="M74,51L129,167L162,66Z" fill="#c1e6b6" stroke="#c1e6b6" stroke-width="1.51"/><path d="M26,558L143,637L164,525Z" fill="#9391a8" stroke="#9391a8" stroke-width="1.51"/><path d="M126,-145L60,-73L173,-57Z" fill="#e9f6b2" stroke="#e9f6b2" stroke-width="1.51"/><path d="M74,51L162,66L173,-57Z" fill="#d5eeb3" stroke="#d5eeb3" stroke-width="1.51"/><path d="M60,-73L74,51L173,-57Z" fill="#dff2b3" stroke="#dff2b3" stroke-width="1.51"/><path d="M150,272L32,373L174,346Z" fill="#9ac6bb" stroke="#9ac6bb" stroke-width="1.51"/><path d="M32,373L142,425L174,346Z" fill="#96bcb9" stroke="#96bcb9" stroke-width="1.51"/><path d="M129,167L61,171L150,272Z" fill="#a9d9ba" stroke="#a9d9ba" stroke-width="1.51"/><path d="M61,171L32,242L150,272Z" fill="#a7d8ba" stroke="#a7d8ba" stroke-width="1.51"/><path d="M142,425L35,433L164,525Z" fill="#94a8b1" stroke="#94a8b1" stroke-width="1.51"/><path d="M35,433L26,558L164,525Z" fill="#96a0ad" stroke="#96a0ad" stroke-width="1.51"/><path d="M74,51L61,171L129,167Z" fill="#b9e2b6" stroke="#b9e2b6" stroke-width="1.51"/><path d="M26,558L38,639L143,637Z" fill="#918c9f" stroke="#918c9f" stroke-width="1.51"/><path d="M32,242L32,373L150,272Z" fill="#a0cebb" stroke="#a0cebb" stroke-width="1.51"/><path d="M32,373L35,433L142,425Z" fill="#99b6b6" stroke="#99b6b6" stroke-width="1.51"/><path d="M51,-148L60,-73L126,-145Z" fill="#eef8b7" stroke="#eef8b7" stroke-width="1.51"/><path d="M-38,359L32,373L32,242Z" fill="#a1cabe" stroke="#a1cabe" stroke-width="1.51"/><path d="M-59,-75L-34,63L60,-73Z" fill="#e6f5b7" stroke="#e6f5b7" stroke-width="1.51"/><path d="M-34,63L-39,163L61,171Z" fill="#bde4bb" stroke="#bde4bb" stroke-width="1.51"/><path d="M-34,63L61,171L74,51Z" fill="#c7e8b7" stroke="#c7e8b7" stroke-width="1.51"/><path d="M60,-73L-34,63L74,51Z" fill="#ddf2b4" stroke="#ddf2b4" stroke-width="1.51"/><path d="M-55,441L-43,557L26,558Z" fill="#999fb1" stroke="#999fb1" stroke-width="1.51"/><path d="M-60,256L-38,359L32,242Z" fill="#a5d1c1" stroke="#a5d1c1" stroke-width="1.51"/><path d="M-55,441L26,558L35,433Z" fill="#9aa7b3" stroke="#9aa7b3" stroke-width="1.51"/><path d="M51,-148L-59,-75L60,-73Z" fill="#eff9b6" stroke="#eff9b6" stroke-width="1.51"/><path d="M-39,163L32,242L61,171Z" fill="#b1ddbb" stroke="#b1ddbb" stroke-width="1.51"/><path d="M-60,-168L-59,-75L51,-148Z" fill="#f3fbbe" stroke="#f3fbbe" stroke-width="1.51"/><path d="M-39,163L-60,256L32,242Z" fill="#addbc0" stroke="#addbc0" stroke-width="1.51"/><path d="M32,373L-38,359L35,433Z" fill="#9dbdbb" stroke="#9dbdbb" stroke-width="1.51"/><path d="M-38,359L-55,441L35,433Z" fill="#9db8bb" stroke="#9db8bb" stroke-width="1.51"/><path d="M26,558L-43,557L38,639Z" fill="#9891aa" stroke="#9891aa" stroke-width="1.51"/><path d="M-43,557L-57,655L38,639Z" fill="#938da3" stroke="#938da3" stroke-width="1.51"/><path d="M-55,441L-139,540L-43,557Z" fill="#9ba1b6" stroke="#9ba1b6" stroke-width="1.51"/><path d="M-139,540L-57,655L-43,557Z" fill="#9b92b0" stroke="#9b92b0" stroke-width="1.51"/><path d="M-127,153L-60,256L-39,163Z" fill="#b4dfc2" stroke="#b4dfc2" stroke-width="1.51"/><path d="M-143,352L-55,441L-38,359Z" fill="#9fbfc2" stroke="#9fbfc2" stroke-width="1.51"/><path d="M-60,256L-143,352L-38,359Z" fill="#a4ccc5" stroke="#a4ccc5" stroke-width="1.51"/><path d="M-59,-75L-130,-58L-34,63Z" fill="#e7f5bc" stroke="#e7f5bc" stroke-width="1.51"/><path d="M-130,-58L-150,52L-34,63Z" fill="#e1f3bf" stroke="#e1f3bf" stroke-width="1.51"/><path d="M-127,153L-39,163L-34,63Z" fill="#c1e6bf" stroke="#c1e6bf" stroke-width="1.51"/><path d="M-150,52L-127,153L-34,63Z" fill="#cdebc1" stroke="#cdebc1" stroke-width="1.51"/><path d="M-127,153L-148,243L-60,256Z" fill="#b1ddc6" stroke="#b1ddc6" stroke-width="1.51"/><path d="M-174,-129L-130,-58L-60,-168Z" fill="#f6fcc4" stroke="#f6fcc4" stroke-width="1.51"/><path d="M-60,-168L-130,-58L-59,-75Z" fill="#f3fbbe" stroke="#f3fbbe" stroke-width="1.51"/><path d="M-139,540L-173,659L-57,655Z" fill="#968eaa" stroke="#968eaa" stroke-width="1.51"/><path d="M-148,243L-143,352L-60,256Z" fill="#a8d3c8" stroke="#a8d3c8" stroke-width="1.51"/><path d="M-164,432L-139,540L-55,441Z" fill="#9daabc" stroke="#9daabc" stroke-width="1.51"/><path d="M-143,352L-164,432L-55,441Z" fill="#9fbac2" stroke="#9fbac2" stroke-width="1.51"/><path d="M-174,-129L-150,52L-130,-58Z" fill="#eef8c1" stroke="#eef8c1" stroke-width="1.51"/><path d="M-150,52L-148,243L-127,153Z" fill="#bee4c6" stroke="#bee4c6" stroke-width="1.51"/><path d="M-164,432L-173,659L-139,540Z" fill="#9d9cb9" stroke="#9d9cb9" stroke-width="1.51"/><path d="M-148,243L-164,432L-143,352Z" fill="#a4caca" stroke="#a4caca" stroke-width="1.51"/><path d="M-150,52L-174,-129L-148,243Z" fill="#d9f0c4" stroke="#d9f0c4" stroke-width="1.51"/><path d="M-174,-129L-164,432L-148,243Z" fill="#b8e1c9" stroke="#b8e1c9" stroke-width="1.51"/><path d="M-174,-129L-173,659L-164,432Z" fill="#a6cdcc" stroke="#a6cdcc" stroke-width="1.51"/></svg>