<svg viewBox="0 0 1024 1024" version="1.1" xmlns="http://www.w3.org/2000/svg">
  <g class="fore">
    <path d="M1024.35739 750.933c0 51.2-20.48 61.44-98.987 61.44C904.89039 614.4 805.90339 518.827 703.50339 471.04c68.267-92.16 71.68-225.28 6.827-324.267 78.507-23.893 160.427 30.72 180.907 116.054 17.066 75.093-17.067 157.013-85.334 187.733 129.707 34.133 218.454 157.013 218.454 300.373z m-419.84-262.826C730.81039 515.413 877.58339 604.16 877.58339 860.16c0 68.267-85.333 68.267-361.813 68.267-279.893 0-361.813 0-361.813-68.267 0-252.587 146.773-344.747 273.066-372.053C328.03739 433.493 293.90339 307.2 341.69139 204.8s167.253-139.947 259.413-85.333S730.81139 300.373 679.61139 399.36c-17.067 40.96-44.373 68.267-75.093 88.747zM321.21039 471.04c-102.4 47.787-201.387 146.773-221.867 341.333-78.506 0-98.986-10.24-98.986-61.44-6.827-143.36 85.333-269.653 215.04-300.373-75.094-37.547-109.227-129.707-75.094-211.627 30.72-71.68 102.4-109.226 174.08-88.746-64.853 95.573-61.44 225.28 6.827 320.853z"></path>
  </g>
</svg>