<svg viewBox="0 0 1024 1024" version="1.1" xmlns="http://www.w3.org/2000/svg">
  <g class="fore">
    <path d="M192 0l0 1024 768 0 0-1024-768 0zM576 256.32c70.496 0 127.68 57.152 127.68 127.68s-57.152 127.68-127.68 127.68-127.68-57.152-127.68-127.68 57.152-127.68 127.68-127.68l0 0zM768 768l-384 0 0-64c0-70.688 57.312-128 128-128l0 0 128 0c70.688 0 128 57.312 128 128l0 64z"></path>
    <path d="M64 64l96 0 0 192-96 0 0-192z"></path>
    <path d="M64 320l96 0 0 192-96 0 0-192z"></path>
    <path d="M64 576l96 0 0 192-96 0 0-192z"></path>
    <path d="M64 832l96 0 0 192-96 0 0-192z"></path>
  </g>
</svg>