<svg viewBox="0 0 1024 1024" version="1.1" xmlns="http://www.w3.org/2000/svg">
  <g class="fore">
    <path d="M512.01024 480l-112.832 59.328 21.504-125.632-91.264-89.024 126.144-18.368L512.01024 192l56.448 114.304 126.144 18.368-91.264 88.96 21.504 125.696L512.01024 480z m447.872 32c-8.96-47.936 67.904-133.952 64-192-11.328-66.304-254.208-206.272-511.744-256C274.89024 106.24 9.09824 253.696 0.39424 320c-6.528 58.048 70.272 144.064 64 192v128h895.488V512z m-449.024 448c-463.36 0-446.464-191.616-446.464-255.744 138.624 0 294.336 0.96 447.744 0 164.096-0.96 310.912 0 447.744 0 0 63.232 14.272 255.744-449.024 255.744z"></path>
  </g>
</svg>