<svg viewBox="0 0 1024 1024" version="1.1" xmlns="http://www.w3.org/2000/svg">
  <g class="fore">
    <path d="M469.333333 1.749333C220.586667 22.272 22.272 220.629333 1.706667 469.333333h171.52A341.504 341.504 0 0 1 469.333333 173.312V1.706667zM554.666667 173.312V1.706667C803.413333 22.272 1001.728 220.629333 1022.250667 469.333333h-171.562667A341.504 341.504 0 0 0 554.666667 173.312z"></path>
    <path d="M469.333333 259.541333V384h85.333334V259.541333A256.213333 256.213333 0 0 1 764.458667 469.333333H640v85.333334h124.458667A256.213333 256.213333 0 0 1 554.666667 764.458667V640h-85.333334v124.458667A256.213333 256.213333 0 0 1 259.541333 554.666667H384v-85.333334H259.541333A256.213333 256.213333 0 0 1 469.333333 259.541333zM512 554.666667a42.666667 42.666667 0 1 0 0-85.333334 42.666667 42.666667 0 0 0 0 85.333334z"></path>
    <path d="M173.312 554.666667H1.706667C22.272 803.413333 220.629333 1001.728 469.333333 1022.250667v-171.562667A341.504 341.504 0 0 1 173.312 554.666667zM554.666667 850.688v171.52c248.746667-20.48 447.061333-218.794667 467.584-467.541333h-171.562667A341.504 341.504 0 0 1 554.666667 850.688z"></path>
  </g>
</svg>