<svg viewBox="0 0 1024 1024" version="1.1" xmlns="http://www.w3.org/2000/svg">
  <g class="fore">
    <path d="m4.883104,138.362305a46.575761,46.575477 0 0 0 -5.216478,21.424721l0,192.216974a46.575761,46.575477 0 0 0 5.216478,21.378142a256.166669,256.165106 0 0 0 250.95018,137.583955l0,466.825967a46.575761,46.575477 0 0 0 46.575761,46.575466l139.727272,0a46.575761,46.575477 0 0 0 46.575761,-46.575466l0,-721.919841a256.166669,256.165106 0 0 0 -483.828974,-117.509919zm227.662305,117.509919a46.575761,46.575477 0 0 1 46.575761,-46.575466l23.287875,0a46.575761,46.575477 0 0 1 0,93.150943l-23.287875,0a46.575761,46.575477 0 0 1 -46.575761,-46.575477zm302.742419,0l0,721.919841a46.575761,46.575477 0 0 0 46.575761,46.575466l139.727272,0a46.575761,46.575477 0 0 0 46.575761,-46.575466l0,-466.825967a256.166669,256.165106 0 0 0 250.95018,-137.630523a46.575761,46.575477 0 0 0 5.216478,-21.284995l0,-192.310132a46.575761,46.575477 0 0 0 -5.216478,-21.378142a256.166669,256.165106 0 0 0 -483.828974,117.509919zm139.727272,0a46.575761,46.575477 0 0 1 46.575761,-46.575466l23.287875,0a46.575761,46.575477 0 1 1 0,93.150943l-23.287875,0a46.575761,46.575477 0 0 1 -46.575761,-46.575477z"></path>
  </g>
</svg>