<svg viewBox="0 0 1024 1024" version="1.1" xmlns="http://www.w3.org/2000/svg">
  <g class="fore">
    <path d="M542.960941 8.613647c-232.207059 0-420.623059 179.440941-420.623059 400.624941C122.337882 630.603294 434.236235 963.764706 542.960941 963.764706 651.866353 963.764706 963.764706 630.603294 963.764706 409.238588 963.764706 188.054588 775.408941 8.613647 542.960941 8.613647zM475.557647 656.263529c-19.034353 19.154824-85.172706-16.323765-147.456-79.570823C265.697882 513.686588 230.640941 446.945882 249.675294 427.670588c18.974118-19.335529 85.052235 16.203294 147.395765 79.329883 62.223059 63.126588 97.520941 129.807059 78.486588 149.263058z m133.662118-0.481882c-19.275294-19.275294 16.263529-85.895529 79.570823-148.961882 63.186824-63.066353 129.987765-98.544941 149.38353-79.149177 19.275294 19.154824-16.323765 85.775059-79.510589 148.781177-63.247059 63.066353-130.168471 98.424471-149.443764 79.329882z"></path>
  </g>
</svg>