<svg viewBox="0 0 1024 1024" version="1.1" xmlns="http://www.w3.org/2000/svg">
  <g class="fore">
    <path d="M279.542857 550.514286c-22.628571 2.285714-65.257143 12.228571-88.457143 32.685714-69.714286 60.571429-28 171.428571 113.142857 171.428571 82.057143 0 164-52.228571 228.342858-136-91.657143-44.457143-169.257143-76.342857-253.028572-68.114285z m526.285714 76.571428c114.4 38.171429 176.8 49.142857 190.514286 51.2A509.6 509.6 0 0 0 1024 512c0-282.742857-229.257143-512-512-512S0 229.257143 0 512s229.257143 512 512 512c178.171429 0 335.085714-91.085714 426.857143-229.142857-86.4-34.057143-244.114286-97.142857-327.771429-137.257143-79.885714 97.942857-182.971429 157.485714-289.942857 157.485714-181.028571 0-242.4-157.828571-156.8-261.714285 18.628571-22.628571 50.514286-44.228571 99.771429-56.457143 77.142857-18.857143 200 11.771429 315.085714 49.6 20.685714-38.057143 38.171429-79.885714 51.085714-124.457143H275.542857V386.285714h182.857143v-64.228571H236.914286v-35.771429h221.485714v-91.542857s0-15.428571 15.657143-15.428571H563.428571v106.971428h219.085715v35.771429H563.542857V386.285714h178.742857c-17.142857 69.828571-43.085714 134.171429-75.657143 190.628572 54.285714 19.542857 102.971429 38.057143 139.2 50.171428z"></path>
  </g>
</svg>