<svg viewBox="0 0 1024 1024" version="1.1" xmlns="http://www.w3.org/2000/svg">
  <g class="fore">
    <path d="M820.3264 622.2336c148.2752 49.408 181.1968 53.5552 181.1968 53.5552L1001.5232 68.4032c0-32.9216-26.6752-59.5968-59.5968-59.5968L68.352 8.8064c-32.9216 0-59.5968 26.6752-59.5968 59.5968l0 873.5744c0 32.9216 26.6752 59.4944 59.5968 59.4944l873.5744 0c32.9216 0 59.5968-26.624 59.5968-59.4944l0-107.7248c0 0-267.6736-111.2064-403.5584-177.0496-90.624 111.2576-207.9744 179.1488-329.472 179.1488-203.8272 0-273.8688-179.1488-177.1008-296.5504 20.5824-24.6784 57.6512-49.3568 113.2544-63.7952 88.5248-22.6304 228.5568 12.3392 358.2464 55.552 22.6304-43.2128 43.2128-90.624 57.6512-142.0288L217.0368 389.5296 217.0368 348.416l207.9744 0L425.0112 278.3744 173.824 278.3744 173.824 237.2096l251.1872 0L425.0112 132.1472c0 0 0-18.4832 18.5344-18.4832l100.9152 0 0 121.5488L793.6 235.2128l0 41.1648-249.1392 0 0 72.0384 203.8272 0c-20.5824 78.2336-49.3568 152.3712-86.4768 216.2176C723.5584 587.2128 779.1104 607.744 820.3264 622.2336"></path>
    <path d="M223.232 535.808c-26.7776 1.9968-74.1376 14.2848-100.864 37.0176-80.2816 70.0416-32.9728 195.6864 127.6416 195.6864 92.672 0 185.344-59.7504 261.4784-154.5216C406.4768 562.4832 317.952 525.4656 223.232 535.808"></path>
  </g>
</svg>