<svg viewBox="0 0 1024 1024" version="1.1" xmlns="http://www.w3.org/2000/svg">
  <g class="fore">
    <path d="M1000.887495 193.903124C1030.585725 362.954591 1030.585725 656.510182 1000.887495 828.988369 980.327181 951.208012 954.055669 979.764004 829.551546 1001.466557 658.215599 1028.880309 369.228968 1031.164788 194.466301 1000.324317 71.104418 978.621764 44.832906 953.492492 23.130353 828.988369-7.710118 658.794661-7.710118 367.52355 23.130353 193.903124 44.832906 71.68348 69.962179 44.269729 194.466301 22.567175 364.660009-8.273294 657.07336-7.131055 829.551546 23.709416 952.913429 45.411969 979.184942 70.541241 1000.887495 193.903124L1000.887495 193.903124 1000.887495 193.903124ZM352.095373 133.364422C297.26787 133.364422 251.578283 177.911768 251.578283 232.739271 251.578283 288.709015 297.26787 333.256361 352.095373 333.256361 370.371207 333.256361 387.504802 328.687403 402.353917 319.549486 507.439964 259.010783 516.577883 256.726305 622.80617 320.691725 637.655286 328.687403 654.78888 334.398601 673.064714 334.398601 727.892218 334.398601 772.439565 289.851254 772.439565 233.881512 772.439565 179.054007 729.034458 133.364422 673.064714 133.364422 654.78888 133.364422 637.655286 139.07562 622.80617 147.071297 514.293403 208.752239 510.866684 208.752239 402.353917 147.071297 387.504802 137.93338 370.371207 133.364422 352.095373 133.364422L352.095373 133.364422 352.095373 133.364422ZM832.978266 611.962836C887.805769 611.962836 932.353115 567.415489 932.353115 511.445747 932.353115 456.618243 887.805769 412.070896 832.978266 412.070896 814.702431 412.070896 797.568836 416.639855 782.719721 424.635533 676.491433 485.174235 635.370806 476.036318 547.418352 439.484649L533.711477 434.915691C526.858039 432.631211 520.004601 431.488971 512.008924 431.488971 506.297725 431.488971 499.444288 432.631211 491.44861 433.77345L477.741734 439.484649C384.078083 476.036318 349.810893 486.316474 241.298126 423.493294 226.449011 415.497616 209.315416 410.928657 192.181821 410.928657 136.212078 410.928657 91.664732 455.476004 91.664732 510.303506 91.664732 566.27325 136.212078 610.820597 191.039582 610.820597 209.315416 610.820597 226.449011 606.251638 241.298126 597.113721 341.815216 538.859499 395.50048 543.428457 416.060793 561.704292 424.056471 566.27325 417.203032 573.126687 400.069439 594.829241 373.797926 625.669712 318.970422 670.217058 269.854117 715.906644 249.293804 735.324719 239.013648 759.311751 239.013648 787.867742 239.013648 843.837486 283.560994 888.384832 338.388497 888.384832 350.953134 888.384832 363.517769 886.100352 376.082405 882.673633 472.030537 856.402122 549.702832 810.712535 599.961377 786.725503 613.668252 778.729825 605.672575 790.152222 619.37945 823.277171 628.517369 848.406444 658.215599 886.100352 701.620706 889.527071 767.870606 896.380509 804.422275 839.268527 789.573158 785.583263 771.297324 720.475602 705.047425 673.643777 635.370806 701.057529 561.125228 731.898 494.875329 746.747115 421.771991 746.747115 408.065115 745.604875 409.207356 741.035917 412.634074 733.040239 421.771991 699.91529 477.741734 605.109397 542.849394 573.126687 609.099294 542.286217 665.069038 530.863821 781.577482 598.25596 796.426597 606.251638 813.560192 611.962836 832.978266 611.962836L832.978266 611.962836Z"></path>
  </g>
</svg>