<svg viewBox="0 0 1024 1024" version="1.1" xmlns="http://www.w3.org/2000/svg">
  <g class="fore">
    <path d="M895.837532 223.956259c-35.193126 0-63.987502 28.794376-63.987503 63.987502v143.97188c0 8.798282-7.198594 15.996876-15.996875 15.996876h-31.993752c-8.798282 0-15.996876-7.198594-15.996875-15.996876V127.975005c0-35.193126-28.794376-63.987502-63.987503-63.987503s-63.987502 28.794376-63.987502 63.987503v303.940636c0 8.798282-7.198594 15.996876-15.996876 15.996876h-31.993751c-8.798282 0-15.996876-7.198594-15.996875-15.996876V63.987502c0-35.193126-28.794376-63.987502-63.987503-63.987502s-63.987502 28.794376-63.987502 63.987502v367.928139c0 8.798282-7.198594 15.996876-15.996876 15.996876h-31.993751c-8.798282 0-15.996876-7.198594-15.996876-15.996876V127.975005c0-35.193126-28.794376-63.987502-63.987502-63.987503S255.962507 92.781879 255.962507 127.975005v481.905878l-47.190783-64.987308c-25.994923-35.793009-75.985159-43.591486-111.778168-17.596563s-43.591486 75.985159-17.596563 111.778169l251.150947 345.332552c17.996485 24.795157 46.990822 39.592267 77.584847 39.592267h395.122827c44.591291 0 83.183753-30.594025 93.381762-73.98555l52.98965-225.355985c6.39875-27.394649 9.798086-56.588947 10.198008-84.58348V287.943761c0-35.193126-28.794376-63.987502-63.987502-63.987502zM415.931263 831.837532c-17.596563 0-31.993751-14.397188-31.993751-31.993751s14.397188-31.993751 31.993751-31.993752 31.993751 14.397188 31.993752 31.993752-14.397188 31.993751-31.993752 31.993751z m0-191.962508c-17.596563 0-31.993751-14.397188-31.993751-31.993751s14.397188-31.993751 31.993751-31.993751 31.993751 14.397188 31.993752 31.993751-14.397188 31.993751-31.993752 31.993751z m127.975005 255.95001c-17.596563 0-31.993751-14.397188-31.993751-31.993751s14.397188-31.993751 31.993751-31.993751 31.993751 14.397188 31.993752 31.993751-14.397188 31.993751-31.993752 31.993751z m0-191.962507c-17.596563 0-31.993751-14.397188-31.993751-31.993751s14.397188-31.993751 31.993751-31.993752 31.993751 14.397188 31.993752 31.993752-14.397188 31.993751-31.993752 31.993751z m127.975005 63.987502c-17.596563 0-31.993751-14.397188-31.993751-31.993751s14.397188-31.993751 31.993751-31.993751 31.993751 14.397188 31.993751 31.993751-14.397188 31.993751-31.993751 31.993751z m63.987503 127.975005c-17.596563 0-31.993751-14.397188-31.993752-31.993751s14.397188-31.993751 31.993752-31.993751 31.993751 14.397188 31.993751 31.993751-14.397188 31.993751-31.993751 31.993751z m63.987502-255.95001c-17.596563 0-31.993751-14.397188-31.993751-31.993751s14.397188-31.993751 31.993751-31.993751 31.993751 14.397188 31.993751 31.993751-14.397188 31.993751-31.993751 31.993751z"></path>
  </g>
</svg>