<svg viewBox="0 0 1024 1024" version="1.1" xmlns="http://www.w3.org/2000/svg">
  <g class="fore">
    <path d="M472.736 41.792a73.152 73.152 0 0 1 109.728 63.36l-0.16-3.648 254.72 191.04h130.592a32 32 0 0 1 32 32V992a32 32 0 0 1-32 32H56.384a32 32 0 0 1-32-32V324.576a32 32 0 0 1 32-32H186.88L436.16 105.6v-0.512c0-24.256 12-46.816 31.84-60.352zM837.12 780.16H186.912v68.256h650.176v-68.256z m0-162.528H186.912v68.256h650.176v-68.256z m0-162.56H186.912v68.256h650.176v-68.256zM470.144 166.912L310.432 292.576h398.176l-160.736-125.344-1.984 1.248a73.152 73.152 0 0 1-67.84 2.784l-5.312-2.784a73.376 73.376 0 0 1-2.56-1.6z"></path>
  </g>
</svg>