<svg viewBox="0 0 1024 1024" version="1.1" xmlns="http://www.w3.org/2000/svg">
  <g class="fore">
    <path d="M511.780575 1023.908573c121.286977 0 227.141087-130.283388 227.141087-270.4226 0-21.851038-3.839931-40.282709-11.57465-55.276727 12.434064 3.419368 24.868127 6.418171 36.863341 9.855824 29.567472 8.136998 38.582168 19.711648 34.285102 45.420903l-31.286298 205.290049c-3.839931 24.429278 11.154087 38.984447 31.268013 38.984447 21.028196 0 30.445171-12.854628 33.864538-34.285102l35.144515-222.423457c8.155283-50.138533-12.434064-77.566615-67.290226-90.421243l-193.276549-44.982054-0.420564-4.297066c18.431671-8.996411 30.847449-26.568668 36.424492-45.859752l131.563365-18.852235c53.576186-7.29587 77.5849-37.302191 77.584901-90.000679v-148.294494c0-20.991625-12.0135-32.98684-32.584561-32.98684s-32.54799 12.434064-32.547991 32.98684V433.36369c0 30.426885-16.310566 40.282709-44.159211 44.140926l-98.137676 13.293477c-4.71763-13.293477-13.293477-25.288691-24.868128-33.005125v-4.278781c73.287834-12.854628 114.009393-57.416118 114.009393-122.566954 0-54.856163-20.571061-104.994697-53.99675-143.576865l3.839932-2.998803c41.580972-29.988036 49.297405-74.147247 22.308173-121.707541l-25.288692-41.580972C672.490848 6.509598 663.073874 7.131301 649.780397 7.131301c-17.553972 0-30.847449 5.796468-30.847449 22.509313 0 7.716434 1.279977 11.995214 5.997607 20.571061l22.271602 33.864538c13.714041 22.271602 13.714041 41.562686-3.839931 56.995554a46.737451 46.737451 0 0 1-7.29587 5.577043 221.820039 221.820039 0 0 0-124.285781-38.143319c-44.982054 0-87.422439 14.134605-122.566954 37.70447a41.142122 41.142122 0 0 1-7.277584-5.577044c-17.151694-14.994018-17.572258-34.285102-3.437653-56.556704l22.289888-33.864538c4.71763-8.575847 5.997607-12.854628 5.997607-20.571061C406.785879 12.927769 393.510687 7.131301 375.956715 7.131301c-13.293477 0-22.728737-0.639989-30.865734 13.933466l-25.288692 41.580971c-26.989232 47.560294-19.272799 91.70122 22.289888 121.707541l2.998804 2.139391c-33.846253 38.582168-55.276727 89.141265-55.276728 144.436278 0 65.132551 41.142122 109.712327 114.411672 122.566954v4.278781c-11.556365 7.716434-20.132212 19.711648-24.849842 33.005125l-98.137677-13.293477c-28.287495-3.839931-44.140926-13.714041-44.140926-44.140926v-135.001018c0-20.571061-11.995214-32.98684-32.566275-32.98684s-32.584561 11.995214-32.584561 32.98684v148.294494c0 52.716773 24.008714 82.704809 77.5849 90.000679l131.563365 18.833949c5.577043 19.309369 17.992822 36.881627 36.424492 45.878038v4.278781l-193.715398 45.000339c-55.276727 12.854628-75.427225 40.282709-67.290226 90.421243l35.144515 222.423457c3.017089 21.430474 12.872913 34.285102 33.864538 34.285102 20.150497 0 35.144515-14.573454 31.286298-38.984447l-31.286298-205.290049c-4.278781-25.709255 4.71763-37.302191 34.285102-45.420903 11.995214-3.437653 24.429278-6.436456 36.863342-9.874109-7.716434 14.994018-11.57465 33.443974-11.574651 55.295012 0 140.139212 105.85411 270.440885 226.702238 270.440885z"></path>
  </g>
</svg>