<svg viewBox="0 0 1024 1024" version="1.1" xmlns="http://www.w3.org/2000/svg">
  <g class="fore">
    <path d="M117.78432 256.576a25.472 25.472 0 0 1 34.688 11.328c1.856 3.392 150.272 288.512 408.832 444.288 178.944 107.968 361.536 193.408 461.12 237.504 8.96-34.944-18.112-50.176-95.616-127.68-45.44-45.44-111.68-129.28-181.824-214.656-70.656 24.704-157.888 25.984-175.744 25.984h-1.6a25.856 25.856 0 0 1 0-51.712h0.256c2.88 0 43.904-0.256 90.112-7.104 18.688-2.88 35.712-6.336 50.944-10.496-17.6-20.992-35.2-41.792-52.544-61.504-35.712 4.224-73.28 5.504-106.944 5.504-61.504 0-110.592-4.48-114.56-4.992a25.472 25.472 0 0 1-23.104-28.096 25.856 25.856 0 0 1 28.096-23.36c1.28 0 87.488 8.128 173.12 2.88-29.184-30.976-57.024-58.304-82.496-78.592-122.176-98.24-301.376-175.808-420.16-170.496L43.09632 31.936A22.4 22.4 0 0 0 15.25632 18.816 22.08 22.08 0 0 0 1.62432 48l67.264 174.464s-186.048 272.192 179.2 547.584c321.344 242.496 648.192 258.304 740.416 220.992-103.552-46.272-280.64-130.304-454.272-234.88-271.936-163.712-421.952-452.736-428.288-465.088a26.56 26.56 0 0 1 11.84-34.432z"></path>
  </g>
</svg>