<svg viewBox="0 0 1024 1024" version="1.1" xmlns="http://www.w3.org/2000/svg">
  <g class="fore">
    <path d="m1021.05735,56.24833l-53.20851,-53.21181c-2.00787,-2.00799 -4.5177,-2.88649 -7.15303,-2.88649s-5.14516,1.004 -7.15303,2.88649l-95.49924,95.50517c-42.29073,-28.7394 -91.4835,-43.04635 -140.67627,-43.04635c-64.25179,0 -128.50357,24.47241 -177.57085,73.54274l-127.87611,127.88405c-3.89024,3.89049 -3.89024,10.29096 0,14.18145l340.96114,340.9823c2.00787,2.00799 4.5177,2.88649 7.15303,2.88649c2.50984,0 5.14516,-1.004 7.15303,-2.88649l127.87611,-127.88405c86.46383,-86.5947 96.62866,-220.50273 30.4945,-318.14138l95.49924,-95.50517c3.89024,-4.01599 3.89024,-10.41646 0,-14.30695zm-425.16612,499.36275c-3.89024,-3.89049 -10.29033,-3.89049 -14.18057,0l-83.57752,83.58271l-113.31907,-113.3261l83.70301,-83.70821c3.89024,-3.89049 3.89024,-10.29096 0,-14.18145l-45.679,-45.68184c-3.89024,-3.89049 -10.29033,-3.89049 -14.18057,0l-83.70301,83.70821l-53.96146,-53.96481c-2.00787,-2.00799 -4.5177,-2.88649 -7.15303,-2.88649c-2.50984,0 -5.14516,1.004 -7.15303,2.88649l-127.75062,127.88405c-86.46383,86.4692 -96.62866,220.50273 -30.4945,318.14138l-95.49924,95.50517c-3.89024,3.89049 -3.89024,10.29096 0,14.18145l53.20851,53.21181c2.00787,2.00799 4.5177,2.88649 7.15303,2.88649s5.14516,-1.004 7.15303,-2.88649l95.49924,-95.50517c42.29073,28.7394 91.4835,43.04635 140.67627,43.04635c64.25179,0 128.50357,-24.47241 177.57085,-73.54274l127.87611,-127.88405c3.89024,-3.89049 3.89024,-10.29096 0,-14.18145l-53.96146,-53.96481l83.70301,-83.70821c3.89024,-3.89049 3.89024,-10.29096 0,-14.18145l-45.92999,-45.43084z"></path>
  </g>
</svg>