<svg viewBox="0 0 1024 1024" version="1.1" xmlns="http://www.w3.org/2000/svg">
  <g class="fore">
    <path d="M483.556 10.724a85.333 85.333 0 0 1 82.574 0L948.082 221.78a85.333 85.333 0 0 1 44.089 74.695v419.016a85.333 85.333 0 0 1-44.09 74.666L566.13 1001.273a85.333 85.333 0 0 1-82.546 0L101.632 790.215a85.333 85.333 0 0 1-44.089-74.723V296.505a85.333 85.333 0 0 1 44.089-74.638L483.556 10.695v0.029zM222.15 338.688a42.667 42.667 0 0 0 16.669 58.027l243.37 134.457v268.174a42.667 42.667 0 0 0 85.334 0V531.172l243.37-134.543a42.667 42.667 0 0 0-41.244-74.638L524.857 457.244 280.12 321.991a42.667 42.667 0 0 0-57.97 16.725z"></path>
  </g>
</svg>