<svg viewBox="0 0 1024 1024" version="1.1" xmlns="http://www.w3.org/2000/svg">
  <g class="fore">
    <path d="M791.489559 544.090212c-1.290235-129.678896 105.758341-191.876433 110.550644-194.968902-60.149545-88.022725-153.845209-100.085402-187.24797-101.478037-79.748834-8.069091-155.586003 46.939992-196.074818 46.939992-40.365935 0-102.809232-45.752156-168.959395-44.543841-86.916809 1.290235-167.054762 50.544459-211.803402 128.38866-90.295997 156.691919-23.121837 388.831888 64.880408 515.930313 43.007846 62.197537 94.289582 132.075047 161.627581 129.576496 64.839448-2.580471 89.35392-41.96337 167.751079-41.96337s100.43356 41.96337 169.041315 40.673134c69.77511-1.290235 113.991272-63.405853 156.691919-125.78771 49.397583-72.171262 69.73415-142.028292 70.921986-145.632759-1.556474-0.696318-136.068633-52.244293-137.399828-207.133978zM662.568421 163.511735c35.737472-43.356005 59.862826-103.505549 53.288769-163.511735-51.486536 2.088953-113.868392 34.283397-150.81418 77.557482-33.136521 38.379383-62.156577 99.634843-54.374205 158.432713 57.466674 4.485104 116.121184-29.204375 151.899616-72.457981z"></path>
  </g>
</svg>