<svg viewBox="0 0 1024 1024" version="1.1" xmlns="http://www.w3.org/2000/svg">
  <g class="fore">
    <path d="M744.727273 93.090909c-81.547636 0-172.218182 8.564364-279.645091 49.058909C357.748364 182.644364 265.122909 247.342545 186.181818 325.818182c-79.313455 78.848-186.181818 232.727273-186.181818 279.272727s105.658182 180.875636 249.297455 243.991273c143.546182 63.115636 222.487273 74.286545 305.617454 83.316363 74.193455 8.005818 180.782545-2.513455 268.567273-21.690181C892.928 895.627636 1023.441455 866.676364 1024 837.818182c0 0-256.558545-5.864727-279.272727-46.545455-23.179636-41.425455-23.272727-147.642182 0-186.181818 24.017455-39.842909 232.727273 93.090909 232.727272 93.090909 59.950545 24.017455 59.950545-396.381091 0-372.363636 0 0-211.968 134.702545-232.727272 93.090909-23.272727-46.545455-23.272727-139.636364 0-186.181818 20.759273-41.611636 279.272727-46.545455 279.272727-46.545455 0-46.545455-197.725091-93.090909-279.272727-93.090909zM327.121455 419.095273a94.394182 94.394182 0 1 1 0 188.788363 94.394182 94.394182 0 0 1 0-188.788363z"></path>
  </g>
</svg>