<svg viewBox="0 0 1024 1024" version="1.1" xmlns="http://www.w3.org/2000/svg">
  <g class="fore">
    <path d="M960 320.256c35.84 2.816 64 28.48 64 65.28v502.784c0 39.616-31.616 71.68-70.592 71.68H70.592C31.616 960 0 927.936 0 888.32V135.68C0 96.064 31.616 64 70.592 64H204.8c28.288 0 53.76 16.832 64.96 42.88l8.768 21.12h610.88C928.384 128 960 159.616 960 198.592v121.664zM650.304 320H896V198.592A6.592 6.592 0 0 0 889.408 192H305.024l32.384 78.144c9.344 29.696 36.48 49.856 67.2 49.856h245.76zM192 832a64 64 0 1 0 0-128 64 64 0 0 0 0 128z"></path>
  </g>
</svg>