<svg viewBox="0 0 1024 1024" version="1.1" xmlns="http://www.w3.org/2000/svg">
  <g class="fore">
    <path d="m455.13337,-0.27679l454.9333,264.82463l-346.54544,0l0,87.00258c245.77771,9.26156 441.39903,84.86961 458.97083,205.77513a50.8388,50.18084 0 0 0 1.30793,-11.28227l0,335.32478c-162.46805,95.30992 -288.37084,142.90875 -377.76523,142.90875l0,-154.35942l-248.84851,0l0,154.35942c-160.47772,-8.70026 -292.80644,-56.35522 -396.98617,-142.90875l0,-335.32478c0,3.87302 0.39807,7.63377 1.25107,11.28227c17.45807,-120.00743 210.40665,-195.33482 453.68223,-205.49448l0,-352.10786zm-350.12804,575.56416c0,32.5558 89.79246,75.159 221.49565,97.33063c57.54906,4.77111 120.10239,7.18473 185.49905,7.18473c61.24539,0 119.98866,-2.13297 174.41005,-6.34277c134.54652,-21.89097 226.67051,-65.22387 226.67051,-98.22872c0,-42.26641 -151.43592,-110.97039 -349.55937,-122.02813l0,162.44224l-108.38786,0l0,-162.49837c-198.40778,10.88936 -350.12804,79.70559 -350.12804,122.08427l0,0.05613z"></path>
  </g>
</svg>