<svg viewBox="0 0 1024 1024" version="1.1" xmlns="http://www.w3.org/2000/svg">
  <g class="fore">
    <path d="M137.34912 512l432.77312 432.9472a46.32064 46.32064 0 0 1 0 65.48992 46.27456 46.27456 0 0 1-65.4592 0L39.15776 544.7424a46.32064 46.32064 0 0 1 0-65.4848L504.66304 13.56288a46.27456 46.27456 0 0 1 65.4592 0 46.32064 46.32064 0 0 1 0 65.4848L137.34912 512z m414.72 0l432.77312 432.9472a46.32064 46.32064 0 0 1 0 65.48992 46.27456 46.27456 0 0 1-65.4592 0l-465.50528-465.69472a46.32064 46.32064 0 0 1 0-65.4848l465.50528-465.69472a46.27456 46.27456 0 0 1 65.4592 0 46.32064 46.32064 0 0 1 0 65.4848L552.06912 512z"></path>
  </g>
</svg>