<svg viewBox="0 0 1024 1024" version="1.1" xmlns="http://www.w3.org/2000/svg">
  <g class="fore">
    <path d="M890.06 512c80.26-109.78 83.02-197.24 50.28-256-21.82-39.04-81.08-101.46-232.66-83.76C664.72 69.78 599.28 0 512 0s-152.72 69.78-195.68 172.24C164.86 154.68 105.46 216.96 83.66 256c-32.76 58.8-30 146.18 50.28 256-80.26 109.78-83.02 197.24-50.28 256 58.42 104.68 203.36 87.16 232.66 83.76C359.26 954.2 424.72 1024 512 1024s152.74-69.8 195.68-172.24c29.28 3.4 174.22 20.92 232.66-83.76 32.76-58.8 30-146.18-50.28-256zM190.76 704c-8.06-14.42-0.38-49.6 29.9-96.58 13.92 13.06 28.4 25.78 43.74 38.36 3.42 27.42 8 54.16 13.52 80.16-49.12 1.78-79.78-8.74-87.16-21.94z m73.64-325.76c-15.32 12.58-29.8 25.3-43.74 38.36-30.26-47-37.94-82.18-29.9-96.6 6.82-12.28 32.78-22.94 75.84-22.94 3.42 0 7.74 0.6 11.38 0.74a944.382 944.382 0 0 0-13.58 80.44zM512 128c18.94 0 44.4 27.04 67.72 74.52-22.38 7.4-44.88 16-67.72 25.72-22.84-9.72-45.34-18.32-67.72-25.72C467.6 155.04 493.06 128 512 128z m0 768c-18.94 0-44.4-27.04-67.72-74.52 22.38-7.4 44.88-16 67.72-25.72 22.84 9.72 45.34 18.32 67.72 25.72C556.4 868.96 530.94 896 512 896z m125-314.66c-53.4 38.16-92.28 58.66-125 74.96-32.7-16.28-71.6-36.82-125-74.96-3.98-55.58-3.98-83.08 0-138.66 53.34-38.1 92.26-58.64 125-74.96 32.78 16.34 71.72 36.88 125 74.96 3.96 55.56 3.98 83.06 0 138.66zM833.24 704c-7.34 13.24-38 23.64-87.16 21.9 5.52-26 10.1-52.74 13.52-80.12 15.32-12.58 29.8-25.3 43.74-38.36 30.26 46.98 37.94 82.16 29.9 96.58z m-29.9-287.42c-13.92-13.06-28.4-25.78-43.74-38.36a947.07 947.07 0 0 0-13.58-80.44c3.64-0.14 7.94-0.74 11.38-0.74 43.04 0 69.02 10.68 75.84 22.94 8.04 14.44 0.36 49.62-29.9 96.6zM512 448c-35.34 0-64 28.66-64 64s28.66 64 64 64 64-28.66 64-64-28.66-64-64-64z"></path>
  </g>
</svg>