<svg viewBox="0 0 1024 1024" version="1.1" xmlns="http://www.w3.org/2000/svg">
  <g class="fore">
    <path d="M512 0C229.166545 0 0 229.166545 0 512s229.166545 512 512 512 512-229.166545 512-512S794.833455 0 512 0z m0 981.410909c-144.244364 0-273.477818-65.466182-359.633455-168.122182 43.822545-18.944 153.111273-58.344727 222.277819-78.522182 5.422545-1.722182 6.4-1.954909 6.4-26.344727 0-26.065455-2.955636-44.544-9.355637-58.088727-8.610909-18.455273-18.944-49.710545-22.644363-77.777455-10.333091-12.055273-24.366545-35.700364-33.466182-80.989091-7.889455-39.866182-4.189091-54.388364 0.977454-67.956363 0.488727-1.466182 1.233455-2.932364 1.466182-4.421818 1.978182-9.076364-0.721455-57.832727-7.610182-95.488-4.677818-25.832727 1.210182-80.756364 36.910546-126.277819 22.411636-28.811636 65.489455-64 142.778182-68.933818h43.054545c78.545455 4.933818 121.623273 40.122182 144.011636 68.933818 35.700364 45.521455 41.611636 100.421818 36.677819 126.277819-6.888727 37.655273-9.588364 86.155636-7.633455 95.488 0.232727 1.489455 1.000727 2.955636 1.489455 4.189091 5.166545 13.544727 9.099636 28.066909 0.977454 67.956363-9.099636 45.288727-23.133091 68.910545-33.489454 80.989091-3.677091 28.043636-14.010182 59.066182-22.644364 77.777455-8.122182 16.989091-16.244364 37.166545-16.244364 57.344 0 24.366545 1.000727 24.622545 6.656 26.344727 65.722182 19.432727 178.967273 58.577455 228.910546 79.010909C785.733818 915.688727 656.523636 981.410909 512 981.410909z"></path>
  </g>
</svg>