<svg viewBox="0 0 1024 1024" version="1.1" xmlns="http://www.w3.org/2000/svg">
  <g class="fore">
    <path d="m451.622624,226.052829q17.388679,0 30.430189,12.558491t13.041509,30.913208t-13.041509,30.913208t-30.430189,12.558491q-18.354717,0 -30.913208,-12.558491t-12.558491,-30.913208t12.558491,-30.913208t30.913208,-12.558491zm-334.249057,285.94717q0,-50.233962 6.762264,-97.086792t20.286792,-90.324528l725.49434,403.803774q-24.150943,65.690566 -60.860377,119.788679t-83.079245,93.222642t-100.950943,60.860377t-113.509434,21.735849q-81.14717,0 -153.116981,-40.090566t-125.584906,-109.645283t-84.528302,-162.777358t-30.913208,-199.486792l0,-0.000002zm754.475472,-209.630189q16.422642,48.301887 25.6,100.950943t9.177358,108.679245q0,86.943396 -22.218868,167.124528l-304.301887,-170.022642l291.743397,-206.732074zm-337.14717,181.615095l-372.890566,-207.698113q24.150943,-61.826415 60.860377,-112.543396t81.630189,-86.943396t97.569811,-56.513208t109.645283,-20.286792q55.064151,0 105.298113,18.354717t94.188679,51.683019t79.698113,80.181132t61.826415,103.849057l-319.758491,227.018868l1.932077,2.898112zm-12.558491,-65.690566l205.766038,-138.143396q-15.456604,-45.403774 -43.471698,-81.14717q-11.592453,-15.456604 -28.015094,-29.94717t-37.192453,-26.083019t-46.369811,-18.354717t-56.513208,-6.762264q-28.981132,0 -53.132075,7.245283t-44.437736,18.837736t-37.192453,26.566038t-30.430189,30.430189q-31.879245,36.709434 -52.166038,82.113208l223.154717,135.245282zm50.233963,-192.24151q18.354717,0 30.913208,12.558491t12.558491,30.913208t-12.558491,30.913208t-30.913208,12.558491t-30.913208,-12.558491t-12.558491,-30.913208t12.558491,-30.913208t30.913208,-12.558491z"></path>
  </g>
</svg>