<svg viewBox="0 0 1024 1024" version="1.1" xmlns="http://www.w3.org/2000/svg">
  <g class="fore">
    <path d="M1021.76254 206.066332A47.50801 47.50801 0 0 0 962.717442 174.214371l-30.23237 8.95774a223.643556 223.643556 0 0 0-96.975525-94.816071l7.578087-28.932697a47.46802 47.46802 0 0 0-91.976786-23.81399l-7.518103 28.732748a223.823511 223.823511 0 0 0-44.648731 2.939258 773.284836 773.284836 0 0 0-88.63763 20.814747l-8.59783-23.993944a47.46802 47.46802 0 0 0-89.477417 31.692001l8.59783 24.093919a766.606522 766.606522 0 0 0-117.350383 63.643938l-15.995963-21.254636a47.687964 47.687964 0 0 0-66.463226-9.597578 47.128106 47.128106 0 0 0-9.657562 66.163302l15.995963 21.254635a772.085139 772.085139 0 0 0-93.376434 94.85606l-21.994449-15.995962a47.34805 47.34805 0 1 0-55.98587 76.320737l22.174404 16.115933a766.706496 766.706496 0 0 0-61.824397 117.470353l-25.853475-8.857765a47.288065 47.288065 0 1 0-30.932193 89.357448l25.99344 8.957739a771.425306 771.425306 0 0 0-18.595307 81.039547A223.103692 223.103692 0 0 0 64.88404 750.069035L34.011831 759.186734a47.26807 47.26807 0 0 0 27.013182 90.597135l29.992431-8.877759a222.923738 222.923738 0 0 0 97.03551 94.456161l-7.698057 29.492556a47.30806 47.30806 0 0 0 33.991421 57.645452 49.387535 49.387535 0 0 0 11.996972 1.499621 47.448025 47.448025 0 0 0 45.988393-35.391068l7.618078-29.252617c2.739309 0.099975 5.538602 0.699823 8.257915 0.699823A222.383874 222.383874 0 0 0 409.916959 923.025384l22.894222 23.474076a47.38804 47.38804 0 0 0 68.142802-65.843382l-24.373848-24.993692a221.943985 221.943985 0 0 0 32.21187-82.779108 317.299919 317.299919 0 0 1 10.317396-41.409549l23.993944 11.277153a47.30806 47.30806 0 1 0 40.369812-85.558406l-23.434086-10.97723c1.779551-2.639334 3.179198-5.538602 5.038728-8.117951a315.640338 315.640338 0 0 1 20.914722-24.973697 318.91951 318.91951 0 0 1 31.172132-30.552289 324.278158 324.278158 0 0 1 26.453324-20.794752c2.999243-1.999495 6.198436-3.779046 9.257664-5.738551l10.45736 23.594045a47.46802 47.46802 0 0 0 86.938059-38.150372l-10.717296-24.213888a317.659828 317.659828 0 0 1 32.971679-8.197931 221.943985 221.943985 0 0 0 89.977291-37.070644l26.653273 23.993944a47.368045 47.368045 0 1 0 63.743913-69.982338l-25.87347-23.334111A221.604071 221.604071 0 0 0 958.198582 274.189139l31.572032-9.357638a47.208085 47.208085 0 0 0 31.991926-58.765169zM319.939668 736.072568a95.975777 95.975777 0 1 1 95.975777-95.975777 95.975777 95.975777 0 0 1-95.975777 95.975777z m159.959629-271.931369a47.987889 47.987889 0 1 1 47.987888-47.987889 47.987889 47.987889 0 0 1-47.987888 47.987889z"></path>
  </g>
</svg>