<svg viewBox="0 0 1024 1024" version="1.1" xmlns="http://www.w3.org/2000/svg">
  <g class="fore">
    <path d="M865.954133 1024c58.965333 0 106.845867-43.4688 106.845867-97.211733V318.976C972.8 265.309867 924.893867 221.866667 865.954133 221.866667H158.037333C99.106133 221.866667 51.2 265.309867 51.2 318.976v607.812267C51.2 980.5312 99.072 1024 158.045867 1024H865.962667z m0-85.333333H158.037333c-11.938133 0-21.512533-8.490667-21.512533-18.884267V325.9904C136.533333 315.690667 146.116267 307.2 158.045867 307.2H865.962667c11.9296 0 21.512533 8.490667 21.512533 18.7904v593.792c0 10.3936-9.5744 18.884267-21.512533 18.884267zM358.4 435.2V239.837867C358.4 154.436267 427.2128 85.333333 512.0512 85.333333 596.795733 85.333333 665.6 154.453333 665.6 239.837867V435.2a42.666667 42.666667 0 1 0 85.333333 0V239.837867C750.933333 107.400533 644.010667 0 512.0512 0 380.0064 0 273.066667 107.383467 273.066667 239.837867V435.2a42.666667 42.666667 0 0 0 85.333333 0z"></path>
  </g>
</svg>