<svg viewBox="0 0 1024 1024" version="1.1" xmlns="http://www.w3.org/2000/svg">
  <g class="fore">
    <path d="M989.866667 494.933333h17.066666c-10.24-259.413333-218.453333-467.626667-477.866666-477.866666V34.133333c0 30.72 3.413333 58.026667 6.826666 85.333334h27.306667c10.24 0 17.066667 6.826667 17.066667 17.066666s-6.826667 17.066667-17.066667 17.066667H546.133333c10.24 37.546667 23.893333 71.68 40.96 102.4l17.066667-10.24c10.24-3.413333 17.066667 0 23.893333 6.826667 3.413333 10.24 0 17.066667-6.826666 23.893333l-13.653334 6.826667c17.066667 23.893333 34.133333 47.786667 54.613334 71.68l6.826666-6.826667c6.826667-6.826667 17.066667-6.826667 23.893334 0s6.826667 17.066667 0 23.893333l-6.826667 6.826667c20.48 20.48 44.373333 37.546667 71.68 51.2l3.413333-10.24c3.413333-10.24 13.653333-13.653333 23.893334-6.826667 10.24 3.413333 13.653333 13.653333 6.826666 23.893334l-6.826666 10.24c37.546667 17.066667 75.093333 30.72 116.053333 37.546666v-27.306666c0-10.24 6.826667-17.066667 17.066667-17.066667s17.066667 6.826667 17.066666 17.066667v30.72c20.48 6.826667 37.546667 6.826667 54.613334 6.826666z"></path>
    <path d="M989.866667 529.066667c-17.066667 0-34.133333 0-51.2-3.413334v3.413334c0 10.24-6.826667 17.066667-17.066667 17.066666s-17.066667-6.826667-17.066667-17.066666v-6.826667c-47.786667-6.826667-92.16-23.893333-133.12-44.373333l-10.24 20.48c-3.413333 6.826667-10.24 10.24-17.066666 10.24h-6.826667c-10.24-3.413333-13.653333-13.653333-6.826667-23.893334l10.24-20.48c-30.72-17.066667-54.613333-37.546667-81.92-58.026666l-17.066666 17.066666c-3.413333 3.413333-6.826667 3.413333-13.653334 3.413334s-10.24 0-13.653333-3.413334c-6.826667-6.826667-6.826667-17.066667 0-23.893333l17.066667-17.066667c-23.893333-23.893333-44.373333-51.2-64.853334-78.506666l-10.24 3.413333h-6.826666c-6.826667 0-13.653333-3.413333-17.066667-10.24-3.413333-10.24 0-17.066667 6.826667-23.893333l13.653333-6.826667c-20.48-37.546667-34.133333-75.093333-44.373333-116.053333H477.866667c-10.24 0-17.066667-6.826667-17.066667-17.066667s6.826667-17.066667 17.066667-17.066667h23.893333c-3.413333-27.306667-6.826667-54.613333-6.826667-85.333333V13.653333C235.52 20.48 23.893333 232.106667 17.066667 491.52H34.133333c17.066667 0 34.133333 0 51.2 3.413333V477.866667c0-10.24 6.826667-17.066667 17.066667-17.066667s17.066667 6.826667 17.066667 17.066667v23.893333c44.373333 10.24 85.333333 23.893333 126.293333 40.96l17.066667-34.133333c3.413333-10.24 13.653333-13.653333 23.893333-6.826667 10.24 3.413333 13.653333 13.653333 6.826667 23.893333l-17.066667 34.133334c27.306667 17.066667 54.613333 34.133333 78.506667 54.613333l27.306666-27.306667c6.826667-6.826667 17.066667-6.826667 23.893334 0s6.826667 17.066667 0 23.893334l-23.893334 23.893333c23.893333 23.893333 44.373333 47.786667 64.853334 75.093333l23.893333-10.24c10.24-3.413333 17.066667 0 23.893333 6.826667 3.413333 10.24 0 17.066667-6.826666 23.893333l-20.48 10.24c23.893333 40.96 40.96 85.333333 54.613333 129.706667h23.893333c10.24 0 17.066667 6.826667 17.066667 17.066667s-6.826667 17.066667-17.066667 17.066666h-23.893333c3.413333 27.306667 6.826667 54.613333 6.826667 85.333334v17.066666c259.413333-6.826667 471.04-218.453333 477.866666-477.866666H989.866667z"></path>
    <path d="M34.133333 529.066667H17.066667c10.24 259.413333 218.453333 467.626667 474.453333 474.453333v-17.066667c0-30.72-3.413333-58.026667-6.826667-85.333333H443.733333c-10.24 0-17.066667-6.826667-17.066666-17.066667s6.826667-17.066667 17.066666-17.066666h34.133334c-10.24-40.96-27.306667-81.92-47.786667-116.053334l-10.24 3.413334h-6.826667c-6.826667 0-13.653333-3.413333-17.066666-10.24-3.413333-10.24 0-17.066667 6.826666-23.893334l6.826667-3.413333c-17.066667-23.893333-34.133333-44.373333-54.613333-64.853333-3.413333 3.413333-6.826667 3.413333-10.24 3.413333-3.413333 0-10.24 0-13.653334-3.413333-6.826667-6.826667-6.826667-13.653333-3.413333-20.48-20.48-17.066667-44.373333-34.133333-71.68-47.786667-3.413333 3.413333-6.826667 6.826667-13.653333 6.826667h-6.826667c-6.826667-3.413333-10.24-13.653333-10.24-20.48-34.133333-17.066667-71.68-27.306667-112.64-37.546667v13.653333c0 10.24-6.826667 17.066667-17.066667 17.066667s-10.24-6.826667-10.24-17.066667v-13.653333c-17.066667-3.413333-34.133333-3.413333-51.2-3.413333z"></path>
  </g>
</svg>