<svg viewBox="0 0 1024 1024" version="1.1" xmlns="http://www.w3.org/2000/svg">
  <g class="fore">
    <path d="m209.553008,954.333308c-36.29364,0 -67.934256,-20.952629 -83.289257,-51.217534l0,0l-121.444101,-440.470825l-4.653023,-20.487011c0,-25.608772 20.938638,-46.561401 46.5303,-46.561401l213.108814,0l214.039405,-305.908382c8.375455,-12.10596 22.334547,-20.021405 38.154855,-20.021405c15.820308,0 30.244696,7.915445 38.620151,20.487022l213.574109,305.442765l213.108814,0c25.591662,0 46.5303,20.952629 46.5303,46.561401l-1.861205,13.502802l-124.23592,447.455035c-15.355001,30.264905 -46.995617,51.217534 -83.289257,51.217534l-604.893985,0m302.446992,-757.088325l-139.590921,198.351554l279.181842,0l-139.590921,-198.351554m0,384.597148c-51.183334,0 -93.060611,41.905258 -93.060611,93.122792c0,51.217534 41.877276,93.122792 93.060611,93.122792c51.183334,0 93.060611,-41.905258 93.060611,-93.122792c0,-51.217534 -41.877276,-93.122792 -93.060611,-93.122792z"></path>
  </g>
</svg>