<svg viewBox="0 0 1024 1024" version="1.1" xmlns="http://www.w3.org/2000/svg">
  <g class="fore">
    <path d="m476.25941,890.68514l0.00223,0.87624c0,44.66755 71.4678,44.66755 71.4678,0c0,-2.03096 0.03573,-4.15091 0.10832,-6.3567l0.07147,-1.91057l0.08822,-1.95349l0.10609,-1.99327c0.05583,-1.00815 0.1206,-2.03096 0.18984,-3.06738l0.14964,-2.09587l0.16639,-2.13565c0.02903,-0.35908 0.05807,-0.72026 0.08933,-1.08248l0.19095,-2.19428l0.2077,-2.23406l0.22557,-2.27175l0.2412,-2.31153l0.25907,-2.34817c0.08933,-0.78935 0.17979,-1.58499 0.2747,-2.3869l0.29034,-2.42354l0.3082,-2.46019l0.32384,-2.49787l0.33947,-2.53347c0.11614,-0.85007 0.2345,-1.70643 0.35622,-2.56801l0.37186,-2.60466l0.38749,-2.64025l0.19989,-1.33269l0.41094,-2.6905l0.42769,-2.72609l0.44221,-2.7596l0.45784,-2.79414l0.47347,-2.8266l0.48799,-2.858l0.50474,-2.8915l0.51814,-2.92396l0.53378,-2.95432l0.54941,-2.98677l0.56393,-3.01713l0.57733,-3.04854l0.59296,-3.07785l0.60859,-3.10926l0.62199,-3.13647l0.63651,-3.16788l0.64991,-3.1951l0.66554,-3.22441l0.67894,-3.25163l0.69234,-3.2799l0.70686,-3.30816l0.72026,-3.33434l0.73478,-3.36051l1.12785,-5.09101l0.76828,-3.42542l0.38861,-1.72318a2159.5828,2024.60081 0 0 1 11.06411,-46.05572l0.97822,-3.85464l0.94248,-3.68504l0.94695,-3.67458l1.42824,-5.49302l0.95588,-3.64631l0.95923,-3.63061l0.96035,-3.61386l1.44611,-5.38519l1.44722,-5.33703l0.96482,-3.52801l1.44499,-5.24072l1.44387,-5.17686l0.95923,-3.41285l1.43382,-5.05333l0.95142,-3.32387l0.94695,-3.28618l1.41149,-4.85232l1.40032,-4.75706l0.92461,-3.11344l0.91903,-3.06738l0.57733,-1.9158l0.51032,-1.28977l0.61641,-1.5295l0.61753,-1.50333l0.31044,-0.7412l0.62088,-1.46355l0.62199,-1.43633l0.62423,-1.41016l0.62534,-1.38399l0.62534,-1.35781l0.31491,-0.67001l0.62869,-1.31803l0.62869,-1.29291l0.31602,-0.63651l0.63093,-1.25417l0.63204,-1.228l0.31602,-0.6051l0.63316,-1.19031l0.63316,-1.16414l0.63428,-1.13901l0.63539,-1.11389l0.63539,-1.08876l0.63539,-1.06364l0.63539,-1.03956l0.63651,-1.01339c0.21217,-0.335 0.42322,-0.66373 0.63539,-0.98931l0.63539,-0.96418l0.31826,-0.47319l0.63539,-0.92754c0.10497,-0.15285 0.21217,-0.3036 0.31714,-0.45435l0.63539,-0.8909a86.16337,80.77784 0 0 1 1.26744,-1.70957l0.63428,-0.81867l0.31602,-0.39991l0.63204,-0.78202c0.42099,-0.51297 0.84198,-1.01129 1.26185,-1.49286l0.62981,-0.71188l0.62869,-0.68676c0.10385,-0.11306 0.20882,-0.22508 0.31267,-0.335l0.62646,-0.65221c0.41764,-0.42713 0.83416,-0.83856 1.24957,-1.23533l0.62199,-0.58207c2.17418,-1.99956 4.31934,-3.57407 6.41759,-4.74449c5.80229,-3.23698 11.95634,-3.26629 21.36664,0.59463c23.53077,9.65544 53.12403,39.97645 75.12048,74.89538c17.70503,28.10579 63.46118,18.2975 66.37796,-14.22929c0.11614,-1.29814 0.23785,-2.58686 0.36516,-3.86511l0.2613,-2.54184c0.134,-1.26464 0.27359,-2.51881 0.41876,-3.76356l0.29704,-2.4738l0.31044,-2.44762c0.15857,-1.21753 0.32384,-2.42459 0.49134,-3.62118l0.34617,-2.37958l0.17867,-1.17984l0.36627,-2.33979c0.31044,-1.93884 0.63651,-3.84941 0.97487,-5.73171l0.41317,-2.24557c5.11776,-27.16254 13.21819,-48.39656 23.73178,-64.05172c11.28745,-16.80987 24.88866,-26.57733 41.06272,-31.06534c29.06618,-8.06313 69.09708,1.19659 102.86897,21.21622c24.26555,14.38423 55.80072,-2.57325 54.81022,-29.47093c-4.44775,-120.79511 -53.30158,-219.50613 -134.63306,-293.96077c-33.16553,-30.35974 -70.77323,-55.65568 -110.44344,-75.40102c-34.30901,-17.07473 -69.21657,-29.46151 -100.13868,-36.12809c-40.9343,-8.82317 -61.73255,44.30951 -24.42747,62.40392c10.82849,5.25119 18.05455,11.46865 22.43307,18.01589c1.53544,2.29478 2.60187,4.47754 3.2261,6.37031l0.08487,0.26486c0.1072,0.34338 0.18984,0.64907 0.25014,0.90765l0.0603,0.29313l-0.0067,-0.60719a35.7339,33.5004 0 0 0 0.20435,3.57826c2.72694,23.80203 -5.58901,40.22351 -23.66589,52.98298l-0.71914,0.50251c-6.75371,4.65656 -14.7112,8.62426 -23.09973,11.76702l-0.30485,0.11202l-0.30374,-1.47088l-0.53824,-2.54812c-0.18314,-0.85635 -0.36851,-1.71899 -0.55834,-2.58895l-0.57733,-2.62769l-0.59743,-2.66328l-0.30485,-1.3463l-0.62534,-2.71877l-0.64209,-2.75331l-0.65996,-2.78681l-0.67783,-2.81822l-0.69458,-2.84963l-1.07202,-4.32888l-0.73478,-2.92082l-0.7493,-2.94804l-0.76493,-2.97316l-0.78056,-2.99619l-0.79285,-3.02027l-0.80736,-3.04121l-0.82076,-3.0611l-0.83416,-3.08099l-0.84533,-3.09879l-0.85873,-3.11658l-1.30875,-4.70157l-0.88665,-3.15113l-1.34895,-4.75287l-1.37241,-4.77381l-0.92685,-3.19405l-0.93466,-3.20243l-1.41819,-4.81359l-0.957,-3.21499l-0.96258,-3.21918l-0.97152,-3.22023l-0.97598,-3.22127l-1.47737,-4.83034l-0.99273,-3.21813l-0.32496,-1.00292c-11.15568,-32.73617 -62.02959,-30.21945 -69.07921,3.97503l-5.74534,27.85663l-31.75069,0l-5.74422,-27.85768c-7.1211,-34.53786 -58.95535,-36.75727 -69.40417,-2.97107l-1.56112,5.07217l-1.46956,4.82196l-0.97152,3.21394l-1.44276,4.81778l-0.95365,3.20766l-1.41484,4.80312l-1.39586,4.78951l-0.92015,3.18254l-0.90898,3.17416l-1.3456,4.73926l-1.32215,4.71099l-1.29647,4.68063l-0.8498,3.09983l-0.83751,3.08308l-0.82523,3.06424l-0.81183,3.04435l-0.79843,3.02341l-0.78503,3.00143l-0.77051,2.97735l-1.12673,4.42101l-0.73254,2.91349l-0.71691,2.88732l-0.70128,2.858l-0.68341,2.8266c-0.11279,0.46901 -0.22557,0.93592 -0.33612,1.40283l-0.65884,2.77949l-0.64098,2.74599l-0.62311,2.71249l-0.60413,2.67689l-0.58626,2.64025l-0.56616,2.60256l-0.54718,2.56278c-0.08933,0.42399 -0.17867,0.84589 -0.26577,1.26673l-0.30485,1.46774l-0.30374,-0.11202c-8.6878,-3.25582 -16.9133,-7.39521 -23.81888,-12.26952c-18.07689,-12.75946 -26.39284,-29.18094 -23.66589,-52.98298l0.07258,-0.71398a35.7339,33.5004 0 0 0 0.12284,-2.14612l0.00112,-0.11097l0.06142,-0.29313c0.07482,-0.32349 0.18537,-0.71921 0.33501,-1.17251c0.62534,-1.89277 1.69066,-4.07553 3.2261,-6.37031c4.3774,-6.54723 11.60458,-12.7647 22.43307,-18.01693c37.30508,-18.09336 16.50683,-71.22604 -24.42747,-62.40182c-30.92211,6.66553 -65.82966,19.05126 -100.13868,36.12809c-39.67021,19.7443 -77.27903,45.04024 -110.44344,75.39998c-81.33148,74.45464 -130.1853,173.16566 -134.63306,293.96077c-0.9905,26.89768 30.54579,43.85412 54.81022,29.46988c33.77189,-20.01858 73.80391,-29.2783 102.86897,-21.21517c16.17406,4.48801 29.77527,14.25547 41.06384,31.06534c10.51247,15.65516 18.6129,36.88917 23.72954,64.05172l0.41317,2.24557c0.34059,1.8823 0.66554,3.79287 0.97598,5.73171l0.36627,2.33979l0.17867,1.17984l0.34617,2.37958c0.1675,1.19659 0.33277,2.40365 0.49134,3.62118l0.31044,2.44762l0.29704,2.4738c0.14517,1.24475 0.28475,2.49892 0.41876,3.76356l0.2613,2.54184c0.1273,1.27825 0.24902,2.56697 0.36516,3.86511c2.91678,32.52679 48.67292,42.33613 66.37796,14.22929c21.99645,-34.91893 51.5897,-65.23993 75.12048,-74.89538c9.4103,-3.86092 15.56435,-3.83161 21.36664,-0.59463l0.30597,0.17378a30.83166,28.90456 0 0 1 3.33889,2.2372l0.61418,0.47947c0.92238,0.73596 1.85146,1.54939 2.78613,2.44134l0.62311,0.6051l0.31267,0.31197l0.62534,0.6407l0.62758,0.66373a67.04797,62.85722 0 0 1 3.15128,3.67458l0.63204,0.8061c0.42211,0.54543 0.84533,1.10761 1.26744,1.68549l0.63539,0.87834c0.21217,0.29627 0.42322,0.59777 0.63428,0.90242l0.63651,0.92754l0.63428,0.95267l0.63651,0.97675l0.31714,0.49727l0.63651,1.01339l0.63539,1.03956c0.21217,0.34966 0.42322,0.70456 0.63428,1.06364l0.63651,1.08876l0.63316,1.11284l0.63428,1.13901c0.10609,0.19263 0.21217,0.38525 0.31714,0.57998l0.63316,1.1767l0.63316,1.20287l0.63204,1.228l0.31491,0.62394l0.63093,1.26673c0.20994,0.42608 0.41987,0.8574 0.62869,1.29186l0.62869,1.31908l0.31379,0.66896l0.62646,1.35781l0.62534,1.38399l0.62423,1.40911l0.31044,0.71502l0.62199,1.44994l0.31044,0.73492l0.61864,1.48972l0.3082,0.75376l0.61641,1.5295l0.51032,1.29186l0.59743,1.98071l0.96035,3.20348l1.45169,4.90362l1.46732,5.01145l0.98603,3.39924l0.98938,3.44217l0.99497,3.48299l0.99832,3.52278l1.00167,3.55942l1.00502,3.59501l1.50752,5.45219l1.00837,3.67248l1.00725,3.6997l1.51087,5.59666l1.50752,5.64691l1.50194,5.68879l0.9972,3.81381l0.99385,3.82637l1.48184,5.76102l0.98268,3.85255l0.97375,3.85778l1.45169,5.79348l0.95588,3.86511l0.94918,3.86301l0.94025,3.85987l1.39251,5.77882l0.91568,3.84208l0.90451,3.83161l0.89111,3.82009l0.87995,3.80439l0.86766,3.78659l0.81295,3.59082l0.76046,3.39192l0.74818,3.36784l0.73366,3.34062l0.72026,3.31549l0.70798,3.28932l0.69234,3.2621l0.68118,3.23488l0.66554,3.20871l0.65214,3.18044l0.63874,3.15113l0.62534,3.12496l0.90898,4.63143l0.58961,3.05168l0.57398,3.02236l0.56058,2.992l0.54494,2.96164l0.53154,2.93128l0.51591,2.89988l0.50251,2.86847l0.48576,2.83707l0.23785,1.40702l0.46454,2.78891l0.44891,2.75541l0.43439,2.724l0.41876,2.6905l0.20324,1.33164l0.39531,2.64025l0.37967,2.6057l0.36516,2.57011l0.34952,2.53661l0.16862,1.25522l0.32496,2.48322l0.31044,2.44762l0.29257,2.41098l0.1407,1.1924l0.27024,2.35654l0.25349,2.3199l0.1206,1.14634l0.2278,2.26337c0.03685,0.37479 0.0737,0.74748 0.10832,1.11808l0.20435,2.20684c0.06588,0.72968 0.12842,1.45203 0.1876,2.16915l0.17197,2.12937l0.07817,1.05108l0.14629,2.07074l0.12954,2.03201c0.0402,0.67001 0.07817,1.33478 0.11167,1.99223l0.09603,1.9514c0.02903,0.64384 0.05472,1.28139 0.07817,1.91162l0.0603,1.86974l0.04467,1.82891c0.01675,0.90451 0.02792,1.79332 0.03238,2.66538z"></path>
  </g>
</svg>