<svg viewBox="0 0 1024 1024" version="1.1" xmlns="http://www.w3.org/2000/svg">
  <g class="fore">
    <path d="M976 512H160V224c0-35.29 28.71-64 64-64 22.702 0 42.664 11.89 54.03 29.76-32.984 50.414-29.374 119.152 13.676 166.07-8.352 9.426-8.042 23.832 0.982 32.856l22.628 22.628c9.372 9.372 24.568 9.372 33.942 0l190.06-190.058c9.372-9.372 9.372-24.568 0-33.942l-22.628-22.628c-9.024-9.024-23.43-9.332-32.856-0.982-35.898-32.938-84.588-42.858-128.356-30.73C326.562 91.334 278.424 64 224 64c-88.224 0-160 71.776-160 160v288h-16c-26.51 0-48 21.49-48 48v32c0 26.51 21.49 48 48 48h16v64c0 56.86 24.724 107.938 64 143.094V912c0 26.51 21.49 48 48 48h32c26.51 0 48-21.49 48-48v-16h512v16c0 26.51 21.49 48 48 48h32c26.51 0 48-21.49 48-48v-64.906c39.276-35.156 64-86.234 64-143.094v-64h16c26.51 0 48-21.49 48-48v-32c0-26.51-21.49-48-48-48z"></path>
  </g>
</svg>