<svg viewBox="0 0 1024 1024" version="1.1" xmlns="http://www.w3.org/2000/svg">
  <g class="fore">
    <path d="M177.313348 103.476828h682.222576c38.746005 0 70.357197 31.600181 70.357197 70.357197v770.648029c0 38.746005-31.611191 70.357197-70.357197 70.357197H177.313348c-38.746005 0-70.357197-31.600181-70.357197-70.357197V173.834025c0-38.746005 31.611191-70.357197 70.357197-70.357197zM375.777897 0.022021h280.404809c5.163932 0 9.38096 4.217028 9.380959 9.38096v64.532633c0 5.174942-4.217028 9.369949-9.380959 9.369949H375.777897a9.39197 9.39197 0 0 1-9.380959-9.369949V9.402981c0-5.163932 4.217028-9.38096 9.380959-9.38096zM230.373024 207.217909c-31.104707 0-28.142879-2.961829-28.142878 28.142879v650.996753c0 31.115718-2.961829 28.142879 28.142878 28.142878H801.906884c31.104707 0 28.142879 2.972839 28.142878-28.142878V235.360788c0-31.104707 2.961829-28.142879-28.142878-28.142879H230.373024z m538.700501 56.296768c2.587471 0 4.69048 2.091998 4.69048 4.69048v156.085073a4.69048 4.69048 0 0 1-4.69048 4.67947H263.206383a4.69048 4.69048 0 0 1-4.69048-4.67947V268.205157c0-2.587471 2.114019-4.69048 4.69048-4.69048h505.867142z m-510.557622 221.476527c0-2.587471 2.114019-4.69048 4.69048-4.70149h505.867142c2.587471 0 4.69048 2.114019 4.69048 4.70149v161.138901a4.70149 4.70149 0 0 1-4.69048 4.69048H263.206383a4.70149 4.70149 0 0 1-4.69048-4.69048V484.991204z m0 221.850885c0-2.587471 2.114019-4.70149 4.69048-4.70149h505.867142c2.587471 0 4.69048 2.114019 4.69048 4.70149v146.682093a4.69048 4.69048 0 0 1-4.69048 4.69048H263.206383a4.70149 4.70149 0 0 1-4.69048-4.69048V706.842089z"></path>
  </g>
</svg>