<svg viewBox="0 0 1024 1024" version="1.1" xmlns="http://www.w3.org/2000/svg">
  <g class="fore">
    <path d="M931.91091 416.1c-9.9-0.4-19.6 0.7-28.6 3.1-7 1.9-14.4-1.1-18.1-7.3l-97.8-166.7c-3.6-6.2-2.7-14 2.2-19.1 16.6-17.5 26.7-41.2 26.4-67.3-0.6-50.6-41.1-92.4-91.6-94.7-45.4-2-84.1 27.5-96.4 68.4-2 6.8-8.2 11.5-15.3 11.5H411.31091c-7.1 0-13.3-4.7-15.3-11.5-12.2-40.9-51-70.4-96.4-68.4-50.6 2.2-91 44.1-91.6 94.7-0.3 26.1 9.8 49.8 26.4 67.3 4.9 5.2 5.8 13 2.2 19.1l-97.8 166.7c-3.7 6.2-11.1 9.2-18.1 7.3-9.1-2.4-18.7-3.5-28.6-3.1-50.6 2-91.3 43.8-92.1 94.5-0.8 53.6 42.5 97.4 96 97.4 8.6 0 16.9-1.1 24.8-3.2 7-1.9 14.3 1.1 18 7.3l97.8 166.7c3.6 6.2 2.7 14-2.2 19.1-16.6 17.5-26.7 41.2-26.4 67.3 0.6 50.6 41.1 92.4 91.6 94.7 45.4 2 84.1-27.5 96.4-68.4 2-6.8 8.2-11.5 15.3-11.5h201.3c7.1 0 13.3 4.7 15.3 11.5 12.2 40.9 51 70.4 96.4 68.4 50.6-2.2 91-44.1 91.6-94.7 0.3-26.1-9.8-49.8-26.4-67.3-4.9-5.2-5.8-13-2.2-19.1l97.8-166.7c3.7-6.2 11-9.2 18-7.3 7.9 2.1 16.2 3.2 24.8 3.2 53.5 0 96.8-43.8 96-97.5-0.7-50.6-41.3-92.4-92-94.4z m-90.8 55.1c-0.5 1-0.9 1.9-1.3 2.9-1.5 3.6-5 5.9-8.9 5.9h-137c-5.6 0-10.8-2.9-13.7-7.8l-51.4-85.7c-3-5-3-11.2-0.1-16.2l64.2-111.2c2-3.5 6.1-5.4 10.1-4.7 3.7 0.7 7.6 1.1 11.4 1.4 3.3 0.2 6.2 1.9 7.9 4.8l118.4 201.7c1.5 2.7 1.7 6 0.4 8.9zM631.51091 816h-239c-3.2 0-6.3-1.6-8-4.3-0.7-1.1-1.5-2.2-2.2-3.3-2.2-3.1-2.4-7.1-0.5-10.4L450.01091 680c2.9-5 8.1-8 13.9-8H556.01091c5.7 0 11 3 13.9 8L640.01091 801.4c1.8 3.2 1.7 7.1-0.3 10.1 0 0 0 0.1-0.1 0.1-1.9 2.8-4.9 4.4-8.1 4.4z m-68.8-208H461.31091c-5.6 0-10.8-2.9-13.7-7.8l-48-80c-3-5.1-3-11.4 0-16.5l48-80c2.9-4.8 8.1-7.8 13.7-7.8h101.4c5.6 0 10.8 2.9 13.7 7.8l48 80c3 5.1 3 11.4 0 16.5l-48 80c-2.9 4.9-8.1 7.8-13.7 7.8zM395.81091 208h235.7c3.3 0 6.3 1.7 8.1 4.4l0.1 0.1c2 3.1 2.1 7.1 0.3 10.3l-70 121.3c-2.9 5-8.1 8-13.9 8h-95.3c-5.7 0-11-3-13.9-8l-64.8-112.3c-3.1-5.3-2.7-11.9 0.8-16.9l0.1-0.1c2.9-4.4 7.7-6.8 12.8-6.8zM720.01091 128c17.6 0 32 14.4 32 32 0 6.1-1.7 11.9-4.8 16.8-5.6 9.1-15.7 15.2-27.2 15.2-17.6 0-32-14.4-32-32 0-5.8 1.6-11.3 4.3-16 5.5-9.6 15.9-16 27.7-16z m-448 32c0-17.6 14.4-32 32-32 11.8 0 22.2 6.4 27.7 16 2.7 4.7 4.3 10.2 4.3 16 0 17.6-14.4 32-32 32-11.5 0-21.6-6.1-27.2-15.2-3.1-4.9-4.8-10.7-4.8-16.8z m37.5 95.8c1.9-0.1 3.8-0.3 5.6-0.5 3.8-0.4 7.6 1.4 9.5 4.8l67.2 116.3c2.9 5 2.9 11.2-0.1 16.2L344.01091 472.2c-2.9 4.8-8.1 7.8-13.7 7.8h-137c-3.9 0-7.4-2.3-8.9-5.9-0.4-1-0.9-2-1.3-2.9-1.3-2.8-1.1-6.2 0.5-8.9L302.01091 260.6c1.4-2.8 4.3-4.6 7.5-4.8zM96.01091 544c-17.6 0-32-14.4-32-32s14.4-32 32-32c0.9 0 1.8 0 2.7 0.1 16.4 1.4 29.3 15.2 29.3 31.9s-12.9 30.5-29.3 31.9c-0.9 0.1-1.8 0.1-2.7 0.1z m86.9 8.8c0.5-1 0.9-1.9 1.3-2.9 1.5-3.6 5-5.9 8.9-5.9h137c5.6 0 10.8 2.9 13.7 7.8l49.3 82.2c3 5 3 11.2 0.1 16.2l-65.9 114.1c-2 3.4-5.8 5.3-9.8 4.7-2.7-0.4-5.4-0.7-8.2-0.8-3.2-0.2-6.1-2-7.7-4.8L183.41091 561.7c-1.6-2.7-1.8-6-0.5-8.9zM304.01091 896c-17.6 0-32-14.4-32-32 0-6.1 1.7-11.9 4.8-16.8 5.6-9.1 15.7-15.2 27.2-15.2 17.6 0 32 14.4 32 32 0 5.8-1.6 11.3-4.3 16-5.5 9.6-15.9 16-27.7 16z m448-32c0 17.6-14.4 32-32 32-11.8 0-22.2-6.4-27.7-16-2.7-4.7-4.3-10.2-4.3-16 0-17.6 14.4-32 32-32 11.5 0 21.6 6.1 27.2 15.2 3.1 4.9 4.8 10.7 4.8 16.8z m-37.7-95.8c-3.9 0.2-7.8 0.7-11.5 1.4-4 0.7-8.1-1.1-10.1-4.7l-64.1-111.1c-2.9-5-2.9-11.2 0.1-16.2l51.5-85.8c2.9-4.8 8.1-7.8 13.7-7.8h137c3.9 0 7.4 2.3 8.9 5.9 0.4 1 0.9 2 1.3 2.9 1.3 2.8 1.1 6.2-0.5 8.9L722.21091 763.4c-1.6 2.8-4.6 4.6-7.9 4.8zM928.01091 544c-0.9 0-1.8 0-2.7-0.1-16.4-1.4-29.3-15.2-29.3-31.9s12.9-30.5 29.3-31.9c0.9-0.1 1.8-0.1 2.7-0.1 17.6 0 32 14.4 32 32s-14.4 32-32 32z"></path>
  </g>
</svg>