<svg viewBox="0 0 1024 1024" version="1.1" xmlns="http://www.w3.org/2000/svg">
  <g class="fore">
    <path d="M891.092765 679.677607c-63.688149-66.97533-102.789127-157.565015-102.789127-257.325856 0-17.549937-0.031381-51.692685-0.031382-51.692684-0.486409-123.124146-79.370905-227.694156-189.275719-266.410714 0.243204-2.800772 0.431492-5.617235 0.431492-8.48077 0-52.806718-42.929484-95.767583-95.704821-95.767583S408.018387 42.95302 408.018387 95.767583c0 3.12243 0.172597 6.213478 0.470718 9.257455-108.704483 39.359873-186.482792 143.365021-186.969201 265.634029 0 0-0.031381 34.142748-0.031381 51.692684 0 100.694432-39.822745 192.060801-104.562165 259.224419-40.575894 42.097882-30.439766 110.752107 21.339218 137.889001a779.705188 779.705188 0 0 0 225.348411 77.02516c8.927952 69.485826 68.27765 123.390886 140.109221 123.390886 72.027704 0 131.526463-54.211026 140.19552-123.971438a779.775796 779.775796 0 0 0 225.528853-78.280408c51.559315-27.348717 61.86804-95.649903 21.645184-137.951764zM503.723208 47.071803c25.607061 0 46.601085 19.927063 48.452576 45.102632a284.556894 284.556894 0 0 0-47.275781-4.001103c-16.945849 0-33.522969 1.576905-49.645061 4.42475 1.639668-25.379547 22.71999-45.526279 48.468266-45.526279z m0 925.745457c-43.258987 0-79.723943-29.341424-90.793662-69.164169 29.278661 3.310717 59.028041 5.099445 89.193221 5.099445 31.302749 0 62.15047-1.898563 92.488247-5.460329-10.952039 39.995342-47.495449 69.525053-90.887806 69.525053z"></path>
  </g>
</svg>