<svg viewBox="0 0 1024 1024" version="1.1" xmlns="http://www.w3.org/2000/svg">
  <g class="fore">
    <path d="M888.946045 680.653032c-63.354659-66.575949-102.254294-156.62242-102.254294-255.78144 0-17.445372-0.031504-51.383117-0.031504-51.383118-0.480437-120.550275-76.609991-223.214121-183.369365-263.058877 0.378049-3.355182 0.653709-6.741868 0.653709-10.191563 0-55.273868-44.964166-100.238034-100.230158-100.238034-55.273868 0-100.238034 44.964166-100.238034 100.238034 0 3.725355 0.322917 7.364073 0.756097 10.971288-105.711864 40.372449-180.904173 142.484975-181.384609 262.271276 0 0-0.031504 33.937746-0.031504 51.383118 0 100.08839-39.616352 190.914587-104.018521 257.671684-40.364573 41.845264-30.283275 110.090928 21.225858 137.066277a776.086698 776.086698 0 0 0 219.08709 75.696373c8.513971 72.286059 70.065023 128.568058 144.595747 128.568058 74.767004 0 136.491328-56.636419 144.698135-129.253271a776.212714 776.212714 0 0 0 219.00833-76.846272c51.288605-27.164373 61.551052-95.063493 21.533023-137.113533zM503.714433 56.880575a43.396839 43.396839 0 0 1 43.121178 38.939015 284.009076 284.009076 0 0 0-86.265984 0.338669 43.404715 43.404715 0 0 1 43.144806-39.277684z m0 910.120709c-40.041657 0-73.947898-26.644556-84.99007-63.118378 27.36915 2.898373 55.1321 4.481452 83.273099 4.481452 29.353905 0 58.298258-1.709095 86.80943-4.859501-10.931908 36.662847-44.91691 63.496427-85.092459 63.496427z m352.459516-220.693796a28.88922 28.88922 0 0 1-15.397608 21.225858c-103.601092 54.919448-220.756805 83.94256-338.778879 83.942561-118.447379 0-231.350044-27.676314-335.573342-82.257094a28.227635 28.227635 0 0 1-15.177079-20.871438c-1.543699-9.522101 1.559451-19.115087 8.506095-26.313763 77.358213-80.193578 119.959574-185.732169 119.959574-297.16202l0.031504-51.162589c0.488313-123.590416 101.435188-224.143491 225.025605-224.143491 123.590416 0 224.537292 100.553075 225.025605 223.970218l0.031504 51.335862c0 110.319332 41.884644 215.086075 117.935438 294.996116 9.443341 9.947406 9.325201 20.832058 8.411583 26.43978z"></path>
  </g>
</svg>