<svg viewBox="0 0 1024 1024" version="1.1" xmlns="http://www.w3.org/2000/svg">
  <g class="fore">
    <path d="M961.33916 662c-12.3-40.4-38-84.6-74.8-129.6-9.7-11.8-9.7-28.8 0-40.6 73.7-90 102.9-177 69-235.7-25.4-44-82.2-65.2-157.4-65.2-25.2 0-52.4 2.4-81.3 7.1-15 2.5-29.8-6-35.1-20.3C640.63916 68.8 579.83916 0 512.03916 0S383.43916 68.8 342.43916 177.6c-5.4 14.3-20.1 22.7-35.2 20.3-28.8-4.7-56.1-7.1-81.3-7.1-25.2 0-48.3 2.4-68.9 7.2-17.6-14.5-40.3-22.9-65-21.9-50 2-90.5 42.9-92 93.1-1.2 42.5 25.3 79 62.7 92.9 12.3 40.4 38 84.6 74.8 129.6 9.7 11.8 9.7 28.8 0 40.6-73.7 90-102.9 177-69 235.7 25.4 44 82.2 65.2 157.4 65.2 25.2 0 52.4-2.4 81.3-7.1 15-2.5 29.8 6 35.1 20.3C383.43916 955.1 444.23916 1024 512.03916 1024s128.6-68.9 169.6-177.6c5.4-14.3 20.1-22.7 35.2-20.3 28.8 4.7 56.1 7.1 81.3 7.1 25.2 0 48.3-2.4 68.9-7.2 17.5 14.5 40.3 22.9 65 21.9 50.1-2 90.6-42.9 92.1-93.1 1.1-42.4-25.4-79-62.8-92.8z m-653.7 99.1c-29.3 5.4-56.8 8.1-81.6 8.1-29.4 0-54.8-4-73.4-11.5-13.8-5.6-23.4-12.9-28.5-21.8-6.5-11.3-7.2-27.5-2.1-48.1 6.9-27.5 23.8-60 48.9-94.1 7.2-9.8 15-19.5 23.3-29.3 3-3.5 8.2-3.8 11.5-0.7 23.7 22.2 49.9 44.1 78.2 65.4 7 5.3 11.5 13.1 12.6 21.8 4.3 35.1 10.3 68.8 17.6 100.4 0.9 4.5-2 8.9-6.5 9.8z m6.4-488.5c-7.3 31.6-13.3 65.2-17.6 100.4-1.1 8.7-5.6 16.5-12.6 21.8-28.3 21.3-54.4 43.3-78.2 65.4-3.3 3.1-8.6 2.8-11.5-0.7-8.3-9.8-16.1-19.6-23.3-29.3-17.7-24.1-31.3-47.4-40.3-68.6 35.9-13.9 61.5-48.8 61.5-89.6 0-5.1-0.4-10.2-1.2-15.1 10.8-1.4 22.6-2.1 35.2-2.1 24.8 0 52.3 2.8 81.6 8.2 4.5 0.8 7.4 5.2 6.4 9.6zM544.03916 512c0 17.7-14.3 32-32 32s-32-14.3-32-32 14.3-32 32-32 32 14.3 32 32zM398.53916 210.5c4.3-12.1 8.9-23.8 13.8-34.9 17-38.8 36.7-69.7 57-89.4C484.63916 71.5 498.93916 64 512.03916 64s27.4 7.5 42.7 22.3c20.3 19.7 40.1 50.6 57 89.4 4.9 11.1 9.5 22.7 13.8 34.8 1.5 4.3-0.8 9-5.2 10.3-27.7 8.4-56.1 18.6-85 30.5a64.17 64.17 0 0 1-47.4 0.4c-23.6-9.2-59.6-23-84.3-30.8-4.3-1.5-6.7-6.2-5.1-10.4z m227 603.1c-4.3 12.1-8.9 23.7-13.8 34.8-17 38.8-36.7 69.7-57 89.4-15.3 14.7-29.6 22.2-42.7 22.2s-27.4-7.5-42.7-22.3c-20.3-19.7-40.1-50.6-57-89.4-4.9-11.1-9.5-22.7-13.8-34.8-1.5-4.3 0.8-9 5.2-10.3 27.4-8.3 55.5-18.4 84.2-30.1 15.5-6.3 32.9-6.3 48.4 0 28.6 11.7 56.8 21.8 84.1 30.1 4.3 1.4 6.7 6.1 5.1 10.4z m90.9-550.7c29.3-5.4 56.8-8.1 81.6-8.2 29.4 0 54.8 4 73.4 11.5 13.8 5.6 23.4 12.9 28.5 21.8 6.5 11.3 7.2 27.5 2.1 48.1-6.9 27.5-23.8 60-48.9 94.1-7.2 9.8-15 19.5-23.3 29.3-3 3.5-8.2 3.8-11.5 0.7-23.7-22.2-49.9-44.1-78.2-65.4-7-5.3-11.5-13.1-12.6-21.8-4.3-35.1-10.3-68.8-17.6-100.4-0.9-4.4 2-8.8 6.5-9.7zM832.03916 752c0 5.1 0.4 10.2 1.2 15.1-10.8 1.4-22.6 2.1-35.2 2.1-24.8 0-52.3-2.8-81.6-8.1-4.5-0.8-7.4-5.2-6.3-9.7 7.3-31.6 13.3-65.2 17.6-100.4 1.1-8.7 5.6-16.5 12.6-21.8 28.3-21.3 54.4-43.3 78.2-65.4 3.3-3.1 8.6-2.8 11.5 0.7 8.3 9.8 16.1 19.6 23.3 29.3 17.7 24.1 31.3 47.4 40.3 68.6-36.1 13.9-61.6 48.9-61.6 89.6z"></path>
  </g>
</svg>