<svg viewBox="0 0 1024 1024" version="1.1" xmlns="http://www.w3.org/2000/svg">
  <g class="fore">
    <path d="M64 0l384 0 0 64-384 0zM576 0l384 0 0 64-384 0zM952 320l-56 0 0-256-256 0 0 256-256 0 0-256-256 0 0 256-56 0c-39.616 0-72 32.384-72 72l0 560c0 39.616 32.384 72 72 72l304 0c39.616 0 72-32.384 72-72l0-376 128 0 0 376c0 39.616 32.384 72 72 72l304 0c39.616 0 72-32.384 72-72l0-560c0-39.616-32.384-72-72-72zM348 960l-248 0c-19.808 0-36-14.4-36-32s16.192-32 36-32l248 0c19.808 0 36 14.4 36 32s-16.192 32-36 32zM544 512l-64 0c-17.6 0-32-14.4-32-32s14.4-32 32-32l64 0c17.6 0 32 14.4 32 32s-14.4 32-32 32zM924 960l-248 0c-19.808 0-36-14.4-36-32s16.192-32 36-32l248 0c19.808 0 36 14.4 36 32s-16.192 32-36 32z"></path>
  </g>
</svg>