<svg viewBox="0 0 1024 1024" version="1.1" xmlns="http://www.w3.org/2000/svg">
  <g class="fore">
    <path d="m675.58308,506.089955a373.937764,373.118023 0 0 0 -92.916444,-57.535065a242.867603,242.335192 0 1 0 -254.932638,0c-155.748644,66.212228 -268.172841,250.074283 -268.172841,466.143468a31.337755,31.269057 0 0 0 31.337755,31.269057l391.72194,0a293.634767,292.991065 0 0 1 192.962227,-439.877459z"></path>
    <path d="m896.749287,630.384457a231.194289,230.687468 0 0 0 -323.170601,-3.517769l-1.018477,0.859899l-0.470066,0.547208l-2.193643,2.110662a231.115945,230.609296 0 1 0 326.852787,0zm-163.426393,-7.113711a169.537256,169.165598 0 0 1 120.572014,49.874146a170.86911,170.494533 0 0 1 21.701394,214.271214l-236.286674,-235.925036a169.537256,169.165598 0 0 1 94.013266,-28.220324zm-120.572014,290.645885a170.399044,170.025498 0 0 1 -17.157421,-220.446853l237.931907,237.566661a170.164011,169.79098 0 0 1 -220.774486,-17.119809z"></path>
  </g>
</svg>