<svg viewBox="0 0 1024 1024" version="1.1" xmlns="http://www.w3.org/2000/svg">
  <g class="fore">
    <path d="M256 64H128a64.19 64.19 0 0 0-64 64v768a64.19 64.19 0 0 0 64 64h128a64.19 64.19 0 0 0 64-64V128a64.19 64.19 0 0 0-64-64z m32 448H96v-64h192z m0-128H96v-64h192z m0-128H96v-64h192zM576 64H448a64.19 64.19 0 0 0-64 64v768a64.19 64.19 0 0 0 64 64h128a64.19 64.19 0 0 0 64-64V128a64.19 64.19 0 0 0-64-64z m32 448H416v-64h192z m0-128H416v-64h192z m0-128H416v-64h192zM896 64H768a64.19 64.19 0 0 0-64 64v768a64.19 64.19 0 0 0 64 64h128a64.19 64.19 0 0 0 64-64V128a64.19 64.19 0 0 0-64-64z m32 448H736v-64h192z m0-128H736v-64h192z m0-128H736v-64h192z"></path>
  </g>
</svg>