<svg viewBox="0 0 1024 1024" version="1.1" xmlns="http://www.w3.org/2000/svg">
  <g class="fore">
    <path d="M394.039216 236.92549C176.188235 236.92549 0.501961 413.615686 0.501961 630.462745 0.501961 848.313725 177.192157 1024 394.039216 1024c217.85098 0 393.537255-176.690196 393.537255-393.537255 1.003922-216.847059-175.686275-393.537255-393.537255-393.537255zM311.717647 409.6c-56.219608 0-145.568627 97.380392-145.568627 177.694118 0 16.062745-13.05098 28.109804-28.109804 28.109804s-28.109804-13.05098-28.109804-28.109804c0-107.419608 110.431373-234.917647 202.792157-234.917647 16.062745 0 28.109804 13.05098 28.109804 28.109804s-13.05098 29.113725-29.113726 29.113725z"></path>
    <path d="M689.192157 426.666667l-97.380392-97.380392a33.330196 33.330196 0 0 1 0-47.184314L632.972549 240.941176c13.05098-13.05098 34.133333-13.05098 47.184314 0l97.380392 97.380393c13.05098 13.05098 13.05098 34.133333 0 47.184313l-41.160784 41.160785a33.330196 33.330196 0 0 1-47.184314 0z"></path>
    <path d="M701.239216 317.239216c-9.035294-9.035294-9.035294-25.098039 0-34.133334l131.513725-131.513725c9.035294-9.035294 25.098039-9.035294 34.133334 0 9.035294 9.035294 9.035294 25.098039 0 34.133333L735.372549 317.239216c-9.035294 9.035294-25.098039 9.035294-34.133333 0zM822.713725 117.458824l-46.180392-50.196079c-7.027451-8.031373-7.027451-20.078431 1.003922-27.105882 8.031373-7.027451 20.078431-7.027451 27.105882 1.003921l46.180392 50.196079c7.027451 8.031373 7.027451 20.078431-1.003921 27.105882-7.027451 7.027451-19.07451 6.023529-27.105883-1.003921zM932.141176 161.631373l48.188236 48.188235c7.027451 7.027451 7.027451 20.078431 0 27.105882-7.027451 7.027451-20.078431 7.027451-27.105883 0l-48.188235-48.188235c-7.027451-7.027451-7.027451-20.078431 0-27.105882 8.031373-7.027451 20.078431-7.027451 27.105882 0zM955.231373 40.156863l-50.196079 46.180392c-8.031373 7.027451-8.031373 19.07451-1.003921 27.105882s19.07451 8.031373 27.105882 1.003922l50.196078-46.180392c8.031373-7.027451 8.031373-19.07451 1.003922-27.105883-8.031373-8.031373-20.078431-8.031373-27.105882-1.003921zM858.854902 19.07451l-1.003922 67.262745c0 11.043137 8.031373 19.07451 19.07451 20.078431 11.043137 0 19.07451-8.031373 20.078432-19.07451l1.003921-67.262745c0-11.043137-8.031373-19.07451-19.07451-20.078431-11.043137 0-19.07451 8.031373-20.078431 19.07451zM1003.419608 115.45098l-67.262745 2.007844c-11.043137 0-19.07451 9.035294-19.07451 20.078431s9.035294 19.07451 20.078431 19.07451l67.262745-2.007843c11.043137 0 19.07451-9.035294 19.07451-20.078432-1.003922-11.043137-10.039216-19.07451-20.078431-19.07451z"></path>
  </g>
</svg>