<svg viewBox="0 0 1024 1024" version="1.1" xmlns="http://www.w3.org/2000/svg">
  <g class="fore">
    <path d="M352 112c0-26.6 21.4-48 48-48h32c26.6 0 48 21.4 48 48s-21.4 48-48 48h-32c-26.6 0-48-21.4-48-48z m48 96h32c26.6 0 48 21.4 48 48s-21.4 48-48 48h-32c-26.6 0-48-21.4-48-48s21.4-48 48-48zM112 352h32c26.6 0 48 21.4 48 48s-21.4 48-48 48H112c-26.6 0-48-21.4-48-48s21.4-48 48-48zM0 566.8C0 536.6 24.6 512 54.8 512h914.4c30.2 0 54.8 24.6 54.8 54.8 0 141-88.8 261.4-213.4 308.2l-3.6 29c-4 32-31.2 56-63.6 56H280.4c-32.2 0-59.6-24-63.6-56l-3.6-28.8C88.8 828.2 0 707.8 0 566.8zM448 400c0-26.6 21.4-48 48-48h32c26.6 0 48 21.4 48 48s-21.4 48-48 48h-32c-26.6 0-48-21.4-48-48z m-192 0c0-26.6 21.4-48 48-48h32c26.6 0 48 21.4 48 48s-21.4 48-48 48h-32c-26.6 0-48-21.4-48-48z m-48-192h32c26.6 0 48 21.4 48 48s-21.4 48-48 48h-32c-26.6 0-48-21.4-48-48s21.4-48 48-48z m432 192c0-26.6 21.4-48 48-48h32c26.6 0 48 21.4 48 48s-21.4 48-48 48h-32c-26.6 0-48-21.4-48-48z m-48-192h32c26.6 0 48 21.4 48 48s-21.4 48-48 48h-32c-26.6 0-48-21.4-48-48s21.4-48 48-48z m240 192c0-26.6 21.4-48 48-48h32c26.6 0 48 21.4 48 48s-21.4 48-48 48h-32c-26.6 0-48-21.4-48-48z m-48-192h32c26.6 0 48 21.4 48 48s-21.4 48-48 48h-32c-26.6 0-48-21.4-48-48s21.4-48 48-48z m-192-144h32c26.6 0 48 21.4 48 48s-21.4 48-48 48h-32c-26.6 0-48-21.4-48-48s21.4-48 48-48z"></path>
  </g>
</svg>