<svg viewBox="0 0 1024 1024" version="1.1" xmlns="http://www.w3.org/2000/svg">
  <g class="fore">
    <path d="m369.638879,0c-53.154078,0 -97.410588,41.1 -109.973955,96.44c-1.334635,-0.04 -2.580295,-0.44 -3.91493,-0.44c-62.888019,0 -113.888886,57.3 -113.888886,128c0,9.68 1.138889,19.02 2.953993,28.08c-51.819443,23.92 -88.370657,81.06 -88.370657,147.92c0,25.16 5.623264,48.64 14.841145,69.82c-42.708332,27.62 -71.785588,78.84 -71.785588,138.18c0,66.68 36.337673,123.76 87.943574,147.78c-1.601562,9.14 -2.52691,18.56 -2.52691,28.22c0,79.52 57.353731,144 128.124996,144c7.331597,0 14.414062,-1.1 21.407551,-2.42c17.047743,57.04 64.453991,98.42 120.953556,98.42c70.771265,0 128.124996,-64.48 128.124996,-144l0,-469.1c-19.414496,17.96 -42.672742,30.9 -68.262151,36.78c-8.844184,2.04 -17.154513,-5.64 -17.154513,-15.78l0,-32.36c0,-7.14 4.181858,-13.56 10.32118,-15.32c43.064235,-12.32 75.095484,-55.9 75.095484,-108.08l0,-148.14c0,-70.7 -51.000867,-128 -113.888886,-128zm654.861093,608c0,-59.34 -29.077256,-110.56 -71.785588,-138.18c9.200087,-21.18 14.841145,-44.66 14.841145,-69.82c0,-66.86 -36.551214,-124 -88.370657,-147.92c1.815104,-9.06 2.953993,-18.4 2.953993,-28.08c0,-70.7 -51.000867,-128 -113.888886,-128c-1.334635,0 -2.580295,0.4 -3.91493,0.44c-12.563368,-55.34 -56.819877,-96.44 -109.973955,-96.44c-62.888019,0 -113.888886,57.3 -113.888886,128l0,148.14c0,52.18 32.013454,95.76 75.095484,108.08c6.157118,1.76 10.32118,8.18 10.32118,15.32l0,32.36c0,10.14 -8.328125,17.82 -17.154513,15.78c-25.589409,-5.88 -48.82986,-18.82 -68.262151,-36.78l0,469.1c0,79.52 57.353731,144 128.124996,144c56.499564,0 103.905813,-41.38 120.953556,-98.42c6.993489,1.34 14.075954,2.42 21.407551,2.42c70.771265,0 128.124996,-64.48 128.124996,-144c0,-9.66 -0.925347,-19.08 -2.52691,-28.22c51.605901,-24.02 87.943574,-81.1 87.943574,-147.78z"></path>
  </g>
</svg>