<svg viewBox="0 0 1024 1024" version="1.1" xmlns="http://www.w3.org/2000/svg">
  <g class="fore">
    <path d="M421.546667 473.173333a149.546667 149.546667 0 0 1 0 77.674667l225.984 169.472a149.333333 149.333333 0 1 1-45.098667 72.853333l-225.962667-169.493333a149.333333 149.333333 0 1 1 0-223.36l225.962667-169.472a149.333333 149.333333 0 1 1 45.098667 72.853333l-225.962667 169.450667zM746.666667 256a64 64 0 1 0 0-128 64 64 0 0 0 0 128z m0 640a64 64 0 1 0 0-128 64 64 0 0 0 0 128zM277.333333 576a64 64 0 1 0 0-128 64 64 0 0 0 0 128z"></path>
  </g>
</svg>