<svg viewBox="0 0 1024 1024" version="1.1" xmlns="http://www.w3.org/2000/svg">
  <g class="fore">
    <path d="m761.45563,-0.5c39.53809,0 73.38844,13.85448 97.27413,38.991c21.93909,23.08768 33.70061,54.03214 33.70061,85.99691c0,31.96594 -11.76152,62.91039 -33.70061,85.99808c-15.7647,16.58977 -35.86949,28.26657 -59.08604,34.28771l-0.75454,0.19094l0.00351,112.8601c100.62688,27.44305 174.60726,119.65673 174.60726,229.17827l0,200.00501c0,75.92496 -61.42688,137.48939 -137.21465,137.48939l-62.34637,-0.00117l0,62.51797c0,20.70266 -16.75906,37.48571 -37.43473,37.48571c-20.46744,0 -37.09781,-16.4492 -37.42888,-36.86485l-0.00468,-0.62086l-0.00117,-62.51797l-374.1402,0l0,62.51797c0,20.70266 -16.76023,37.48571 -37.43473,37.48571c-20.46744,0 -37.09898,-16.4492 -37.42888,-36.86485l-0.00585,-0.62086l0,-62.51797l-62.3452,0c-75.03089,0 -135.98515,-60.33794 -137.19593,-135.21447l-0.01872,-2.27257l0,-200.00853c0,-109.52388 73.98623,-201.7399 174.61662,-229.17827l0.00234,-112.85776l-0.75571,-0.19211c-22.8656,-5.92977 -42.71419,-17.34417 -58.3701,-33.53565l-0.71945,-0.74971c-21.94026,-23.08886 -33.70295,-54.03448 -33.70295,-86.00042c0,-31.96594 11.76386,-62.91157 33.70529,-85.99925c23.64822,-24.88231 57.06339,-38.70985 96.09377,-38.98748l500.08582,0zm-249.45565,500.01487c-75.78894,0 -137.21465,61.56325 -137.21465,137.48939c0,75.92496 61.42571,137.48822 137.21465,137.48822s137.21465,-61.56325 137.21465,-137.48822c0,-75.92614 -61.42571,-137.48939 -137.21465,-137.48939zm249.45565,-425.04345l-498.90078,0c-19.4836,0 -33.62106,5.78451 -43.04292,15.70066c-8.37602,8.81383 -13.07057,21.1642 -13.07174,34.317c0,13.15163 4.69455,25.502 13.07057,34.31583c9.42185,9.91497 23.55931,15.70066 43.04409,15.70066c20.46744,0 37.09898,16.4492 37.43005,36.86485l0.00468,0.62086l-0.00117,137.51867l424.03133,0l0,-137.51867c0,-20.70266 16.76023,-37.48571 37.43473,-37.48571c19.48127,0 33.61521,-5.78451 43.0359,-15.69948c8.37602,-8.81383 13.07057,-21.16537 13.07057,-34.31817c0,-13.1528 -4.69455,-25.50317 -13.07057,-34.31817c-9.28849,-9.7744 -23.15689,-15.53431 -42.21584,-15.6948l-0.81888,-0.00351zm-272.88745,86.00042c14.48022,14.48706 14.63464,37.89454 0.45741,52.57137l-0.43284,0.44163l-49.89113,50.00125c-14.61241,14.64637 -38.31444,14.65574 -52.94089,0.02343c-14.47905,-14.48588 -14.63464,-37.89337 -0.45624,-52.5702l0.43284,-0.4428l49.89113,-50.00125c14.61241,-14.6452 38.31444,-14.65574 52.94089,-0.02343l-0.00117,0zm149.67105,0c14.47905,14.48706 14.63464,37.89454 0.45624,52.57137l-0.43284,0.44163l-49.89113,50.00125c-14.61241,14.64637 -38.31444,14.65574 -52.94089,0.02343c-14.47905,-14.48588 -14.63464,-37.89337 -0.45624,-52.5702l0.43284,-0.4428l49.89113,-50.00125c14.61241,-14.6452 38.31444,-14.65574 52.94089,-0.02343z"></path>
  </g>
</svg>