<svg viewBox="0 0 1024 1024" version="1.1" xmlns="http://www.w3.org/2000/svg">
  <g class="fore">
    <path d="m30.0758,558.92006a62.92169,62.97863 0 0 0 -21.59886,36.10575c-25.64865,118.15061 11.62439,232.3979 94.19504,317.89571c79.12083,81.89474 199.3395,133.08833 320.75811,102.23706c129.29319,-32.878 259.48634,-119.87708 366.73069,-223.01491l0.74996,-0.75064l0.74996,-0.75064c103.04457,-107.34141 189.965,-237.65237 222.81327,-367.06257c30.74838,-121.52849 -20.24893,-241.85595 -102.14462,-321.04839c-72.2212,-69.80945 -164.46634,-109.06788 -265.71101,-101.9368c-37.49803,2.62724 -58.42192,29.04974 -68.09641,45.71393l194.98973,195.16619l-70.79627,70.71021l-225.81311,-226.01747a167.0912,167.24242 0 0 0 -106.3444,8.63235a158.16667,158.30981 0 0 0 -62.02173,45.93912a89.99526,90.07671 0 0 0 -17.77406,36.25587a62.24672,62.30305 0 0 0 14.99921,56.29794l237.96247,238.17782l-70.72128,70.78528l-237.88747,-238.10276a62.24672,62.30305 0 0 0 -56.39703,-15.01278a90.22025,90.3019 0 0 0 -36.1481,17.86521a158.46666,158.61007 0 0 0 -45.82259,62.0028a166.94121,167.09229 0 0 0 -8.62455,106.44064l225.81311,226.01747l-70.72128,70.78528l-212.98879,-213.18154l-0.14999,-0.15013z"></path>
  </g>
</svg>