<svg viewBox="0 0 1024 1024" version="1.1" xmlns="http://www.w3.org/2000/svg">
  <g class="fore">
    <path d="M512 128c-74.432 0-148.736 25.152-215.36 85.76-65.792 59.84-122.368 152.448-166.4 284.8-4.672 13.824-8.96 27.648-13.248 41.28-9.856 31.744-19.52 62.656-32.256 91.52-18.24 41.536-37.44 64.96-58.368 73.6l-26.368 10.88V896h384V597.312a128 128 0 1 1 256 0V896h384v-180.16l-26.368-10.88c-20.928-8.64-40.128-32.064-58.368-73.6-12.736-28.864-22.4-59.776-32.256-91.52-4.288-13.632-8.576-27.52-13.184-41.344-44.16-132.288-100.608-224.896-166.4-284.736C660.608 153.152 586.368 128 512 128z"></path>
  </g>
</svg>