<svg viewBox="0 0 1024 1024" version="1.1" xmlns="http://www.w3.org/2000/svg">
  <g class="fore">
    <path d="M229.12 475.52l687.296 183.872-1.408 1.472-1.024 12.864c-2.56 34.048-6.4 62.976-17.92 139.52l-6.528 43.648c-3.84 26.048-6.528 46.976-8.768 66.304-4.224 36.544-23.488 65.28-54.656 81.6-15.424 8.128-32 12.672-45.824 13.44l-4.032 0.192-90.432-24.32a18.88 18.88 0 0 1-12.16-26.688l35.392-71.552-20.352 26.24a515.328 515.328 0 0 1-47.36 50.56 19.008 19.008 0 0 1-18.112 4.672l-75.456-20.16a18.88 18.88 0 0 1-12.16-26.624l35.456-71.552-20.352 26.24a510.336 510.336 0 0 1-47.36 50.56 18.944 18.944 0 0 1-18.112 4.672l-88.448-23.68a18.944 18.944 0 0 1-12.096-26.56l35.392-71.552-20.352 26.24a515.84 515.84 0 0 1-47.36 50.56 18.944 18.944 0 0 1-18.112 4.672l-62.528-16.704a18.944 18.944 0 0 1-12.096-26.688l35.392-71.488-20.352 26.24c-8.32 10.688-20.48 24-36.48 39.936a44.736 44.736 0 0 1-43.136 11.52l-78.08-20.864-23.104-8.704c-29.632-25.536-44.608-61.44-39.36-95.552 5.76-37.12 32.32-67.648 82.112-88.704 34.368-14.656 67.584-74.176 89.664-157.44l3.84-14.464-1.024-1.792z m-42.88-76.16a60.224 60.224 0 0 1 5.056-6.4l123.776-135.424c9.92-10.752 24.832-19.392 41.856-23.936 16.64-4.416 33.984-4.672 48.64-0.768l123.584 33.024 4.096-2.368 55.36-205.824c8.704-32.448 43.968-51.456 78.72-42.24l83.2 22.272c34.752 9.28 55.808 43.392 47.104 75.84l-55.36 205.824 2.368 4.096 118.528 31.68c14.592 3.84 29.568 12.8 41.728 24.96 12.416 12.352 21.12 27.2 24.192 41.472l39.36 179.072a58.688 58.688 0 0 1 1.28 9.856c-0.704 6.592-5.312 10.304-13.696 11.2L194.944 418.048c-10.432-2.944-13.376-9.216-8.768-18.752z"></path>
  </g>
</svg>