<svg viewBox="0 0 1024 1024" version="1.1" xmlns="http://www.w3.org/2000/svg">
  <g class="fore">
    <path d="m-0.166382,530.017559l277.882251,-215.940851l432.368785,432.075025l-216.087637,277.61062s2.838166,-67.920518 -92.691921,-92.601314c-89.660243,-23.134218 -105.270156,-147.440366 -183.384224,-173.216654c-78.114068,-25.776288 -91.982379,-80.035374 -128.104492,-138.225344s-89.982762,-89.701482 -89.982762,-89.701482zm833.711256,-30.673783l-73.921323,-73.849065c118.751445,-103.298474 211.507869,-187.006968 228.149842,-203.761555a131.071665,130.943542 0 0 0 -185.319338,-185.138187c-16.641973,16.754587 -100.561381,109.355901 -203.83192,228.120147l-73.921323,-73.849065a87.402611,87.317175 0 0 0 -123.589228,-0.064441l-61.73011,61.669769l432.433289,432.075025l61.794614,-61.79865a87.402611,87.317175 0 0 0 -0.064504,-123.403978zm17.0935,-325.618956a63.020185,62.958583 0 1 1 89.208717,-89.121515a62.955682,62.894142 0 0 1 0,89.121515a62.955682,62.894142 0 0 1 -89.208717,0z"></path>
  </g>
</svg>