<svg viewBox="0 0 1024 1024" version="1.1" xmlns="http://www.w3.org/2000/svg">
  <g class="fore">
    <path d="M1023.984 576.014l0-63.998-193.27396 0c-5.855817-72.669729-31.775007-139.035655-71.67776-192.249992l161.946939 0 70.045811-280.247242-62.07806-15.519515-57.950189 231.736758-174.682541 0c-0.895972-0.703978-1.791944-1.375957-2.687916-2.047936 6.71979-19.487391 10.367676-40.414737 10.367676-62.206056 0-105.756695-85.949314-191.482016-191.994-191.482016s-191.994 85.725321-191.994 191.482016c0 21.75932 3.647886 42.686666 10.367676 62.206056-0.895972 0.671979-1.791944 1.375957-2.687916 2.047936l-174.682541 0-57.950189-231.736758-62.07806 15.519515 70.045811 280.247242 161.946939 0c-39.870754 53.214337-65.789944 119.548264-71.67776 192.249992l-193.27396 0 0 63.998 193.369957 0c3.807881 45.662573 15.519515 88.797225 33.630949 127.740008l-123.996125 0-70.045811 280.215243 62.07806 15.519515 57.950189-231.768757 112.348489 0c58.686166 78.045561 147.387394 127.740008 246.648292 127.740008s187.962126-49.726446 246.648292-127.740008l112.348489 0 57.950189 231.768757 62.07806-15.519515-70.045811-280.215243-123.996125 0c18.143433-38.942783 29.823068-82.077435 33.630949-127.740008l193.369957 0z"></path>
  </g>
</svg>