<svg viewBox="0 0 1024 1024" version="1.1" xmlns="http://www.w3.org/2000/svg">
  <g class="fore">
    <path d="m351.368072,908.981704c0,12.58441 3.793097,24.940013 10.80458,35.350752l34.367761,51.367275c11.954004,17.846982 32.068914,28.600932 53.563132,28.600932l124.137731,0c21.494218,0 41.609128,-10.753951 53.563132,-28.600932l34.367761,-51.367275c7.011483,-10.525143 10.80458,-22.766342 10.80458,-35.350752l0.114942,-76.764903l-321.838561,0l0.114942,76.764903zm-193.218079,-557.031759c0,88.777294 33.103395,169.775135 87.586066,231.667552c33.218337,37.753231 85.172276,116.5774 104.942359,183.045967c0.114942,0.572019 0.114942,1.029634 0.229885,1.601652l322.183388,0c0.114942,-0.572019 0.114942,-1.029634 0.229885,-1.601652c19.770083,-66.468567 71.724022,-145.292737 104.942359,-183.045967c54.482671,-61.892418 87.586066,-142.890258 87.586066,-231.667552c0,-194.943955 -159.080203,-352.821102 -354.941956,-352.249083c-205.05714,0.572019 -352.758051,165.999812 -352.758051,352.249083zm353.907475,-160.165221c-88.735489,0 -160.804338,71.845542 -160.804338,160.050818c0,17.732578 -14.367793,32.033044 -32.183856,32.033044s-32.183856,-14.300466 -32.183856,-32.033044c0,-123.556028 101.03432,-224.116906 225.17205,-224.116906c17.816063,0 32.183856,14.300466 32.183856,32.033044s-14.367793,32.033044 -32.183856,32.033044z"></path>
  </g>
</svg>