<svg viewBox="0 0 1024 1024" version="1.1" xmlns="http://www.w3.org/2000/svg">
  <g class="fore">
    <path d="M976 256h-16V160c0-89.6-198.4-160-448-160S64 70.4 64 160v96h-16c-26.5 0-48 21.48-48 48v160c0 26.5 21.5 48 48 48h16v320c0 35.34 28.66 64 64 64v64c0 35.34 28.66 64 64 64h64c35.34 0 64-28.66 64-64v-64h384v64c0 35.34 28.66 64 64 64h64c35.34 0 64-28.66 64-64v-64h12.8c32 0 51.2-25.6 51.2-51.2V512h16c26.5 0 48-21.5 48-48v-160c0-26.52-21.5-48-48-48zM320 144c0-8.84 7.16-16 16-16h352c8.84 0 16 7.16 16 16v32c0 8.84-7.16 16-16 16H336c-8.84 0-16-7.16-16-16V144z m-96 656c-35.34 0-64-28.66-64-64s28.66-64 64-64 64 28.66 64 64-28.66 64-64 64z m256-224H256c-35.34 0-64-28.66-64-64v-192c0-35.34 28.66-64 64-64h224v320z m64 0V256h224c35.34 0 64 28.66 64 64v192c0 35.34-28.66 64-64 64H544z m256 224c-35.34 0-64-28.66-64-64s28.66-64 64-64 64 28.66 64 64-28.66 64-64 64z"></path>
  </g>
</svg>