<svg viewBox="0 0 1024 1024" version="1.1" xmlns="http://www.w3.org/2000/svg">
  <g class="fore">
    <path d="M946.688 987.136H77.312c-42.496 0-77.312-35.328-77.312-78.848V634.88c36.864 32.768 84.48 50.688 133.632 50.688h756.736c49.152 0 96.768-17.92 133.632-50.688v273.408c0 43.52-34.816 78.848-77.312 78.848zM946.688 256H737.28c-3.584-121.344-102.912-219.136-225.28-219.136S290.304 134.656 286.72 256H77.312C34.816 256 0 291.328 0 334.848v162.816c0 35.84 13.824 69.632 39.424 94.72 25.088 25.6 58.88 39.936 94.72 39.936H890.88c35.328 0 69.632-14.336 94.72-39.936s38.912-59.392 38.912-94.72V334.848c-0.512-43.52-35.328-78.848-77.824-78.848zM512 105.984c83.968 0 153.088 67.072 156.672 150.016H355.328c3.584-83.456 72.704-150.016 156.672-150.016z m0 416.256c-37.888 0-68.608-31.232-68.608-69.632s30.72-69.632 68.608-69.632 68.608 31.232 68.608 69.632-30.72 69.632-68.608 69.632z"></path>
  </g>
</svg>