<svg viewBox="0 0 1024 1024" version="1.1" xmlns="http://www.w3.org/2000/svg">
  <g class="fore">
    <path d="m729.84719,19.49878c20.06072,0 36.32337,17.95431 36.32337,40.10175c0,21.92563 -15.93915,39.74209 -35.7229,40.09674l-0.60161,0.00501c-3.3497,0 -7.19884,0.90605 -11.46456,2.73444l-0.92171,0.40603c-2.6255,1.19052 -5.40424,2.7194 -8.31805,4.59416l-1.03295,0.67672c-0.86609,0.57396 -1.74352,1.17924 -2.63344,1.8146l-1.0704,0.77572l-1.08176,0.80454a126.51998,139.68068 0 0 0 -7.27376,5.93381l-1.15327,1.02009l-1.16348,1.05142l-1.17143,1.07773l-1.18051,1.10906c-0.98754,0.93613 -1.98416,1.90233 -2.9876,2.8986l-1.20889,1.21057c-0.40523,0.40854 -0.81047,0.82209 -1.21683,1.24065l-1.22591,1.26822a211.72099,233.74436 0 0 0 -3.71634,3.98261l-1.25316,1.38727l-1.25997,1.41609c-7.8799,8.92264 -15.84607,19.23004 -23.76684,30.70291l-1.58347,2.31086l-0.79117,1.16671l-1.5812,2.35598a423.08783,467.09772 0 0 0 -6.30438,9.72217l-1.56985,2.5026a478.22671,527.97218 0 0 0 -8.57345,14.25743l-1.54601,2.67805a529.63109,584.72369 0 0 0 -6.13638,10.96783l-1.52104,2.80336a567.68891,626.7403 0 0 0 -5.2771,9.99411l-1.4938,2.90612c-0.49604,0.97247 -0.99208,1.94869 -1.48699,2.92868l-1.47904,2.94873a608.5754,671.87984 0 0 0 -3.66639,7.46645c-30.22105,62.47477 -51.85161,130.45978 -59.93356,184.88663c57.81546,-72.54157 119.52092,-141.01281 176.10933,-192.57364l2.41096,-2.18931a930.09741,1026.84679 0 0 1 4.5495,-4.09038l3.01938,-2.68556c47.6994,-42.23968 91.03999,-71.68439 129.77206,-86.25637c24.59773,-9.25473 47.68124,-12.65085 69.20056,-9.15197c24.09829,3.91869 45.12838,16.41415 61.52839,36.97632l0.07719,0.09649l0.65609,0.74314c16.32736,18.81274 25.99391,48.81135 25.3435,82.14343l-0.02384,1.05267c-1.03295,39.74836 -16.12644,82.46174 -46.26576,125.84683l-1.12829,1.61284l-0.14302,0.23434c-2.66069,4.39365 -5.34862,9.92518 -7.91168,16.42042l-0.61296,1.5765c-0.40637,1.0652 -0.80933,2.15296 -1.20889,3.26453l-0.5948,1.68427a167.69139,185.13476 0 0 0 -2.86728,8.93893l-0.54712,1.88604c-0.27243,0.95116 -0.54031,1.91361 -0.80365,2.88858l-0.52328,1.96499a197.90676,218.49316 0 0 0 -1.01365,4.0202l-0.48923,2.05396a212.98436,235.13915 0 0 0 -2.46318,11.79743l-0.19637,1.08024c-6.47237,35.89859 -6.58361,77.72848 1.50969,124.8518a36.32337,40.10175 0 0 1 0.63566,7.47021c0,34.57774 -17.72354,66.99499 -51.24206,81.62712c-6.27146,2.73694 -12.95042,4.79592 -20.04596,6.17316l-0.75371,0.14161l0.66971,0.99377c5.8946,8.81236 11.34084,17.80393 16.22406,26.88697l0.7662,1.43489c16.48287,31.07009 26.33785,62.83068 27.96673,94.80055c1.90244,37.32346 -7.5825,73.18821 -28.98151,105.55158c-0.29059,0.44112 -0.59025,0.87472 -0.89787,1.30331c-19.8984,27.65141 -44.60624,53.60477 -71.26532,73.81229c-31.75684,24.07108 -65.32986,39.43506 -99.34215,43.40263c-40.2724,4.69692 -79.19063,-6.88998 -113.93507,-35.76199c-35.4221,-29.43719 -65.63179,-76.04797 -90.5519,-140.38121l-1.03635,-2.69434l-15.39543,-33.99752l-15.39657,33.99752l-1.01932,2.65423c-24.66925,63.69913 -54.52138,110.02543 -89.48376,139.51526l-1.08289,0.90605c-34.74331,28.87326 -73.66153,40.45891 -113.93507,35.76199c-34.01116,-3.96757 -67.58417,-19.3303 -99.34102,-43.40263c-26.65909,-20.20752 -51.36692,-46.16088 -71.26646,-73.81229a36.32337,40.10175 0 0 1 -0.899,-1.30331c-21.39674,-32.36337 -30.88281,-68.22812 -28.98038,-105.55158c1.62888,-31.96862 11.48386,-63.72921 27.96673,-94.79804c5.07619,-9.57053 10.78577,-19.04457 16.99026,-28.32061l0.66631,-0.99127l-0.75144,-0.14036c-6.70166,-1.30205 -13.03214,-3.21065 -18.99712,-5.72453l-1.04997,-0.44989c-33.51739,-14.63087 -51.2432,-47.04813 -51.2432,-81.62462a36.32337,40.10175 0 0 1 0.63566,-7.47146c8.0933,-47.12457 7.9832,-88.95446 1.51083,-124.8518a215.60192,238.02898 0 0 0 -1.95238,-9.76979l-0.4722,-2.09532c-0.63566,-2.77579 -1.30537,-5.4764 -2.00346,-8.09304l-0.52782,-1.94869c-1.86611,-6.76341 -3.91611,-12.95537 -6.06033,-18.47187l-0.61523,-1.55896c-2.46885,-6.15687 -5.04781,-11.42023 -7.60067,-15.63718l-0.13848,-0.22683l-1.11581,-1.5953c-29.84192,-42.95149 -44.93882,-85.24505 -46.24533,-124.6563l-0.03632,-1.21809c-0.88538,-34.09025 9.01614,-64.79316 25.81684,-83.76254l0.16118,-0.18296l0.6629,-0.82334c16.11963,-19.88671 36.63326,-32.08015 60.09248,-36.10411l0.84906,-0.14036c21.51819,-3.50013 44.60283,-0.10276 69.19943,9.15072c35.88068,13.498 75.71153,39.75713 119.30071,77.12695l2.97852,2.56526a888.20067,980.59192 0 0 1 15.06285,13.33759c41.2066,37.29087 85.20896,83.69111 128.50074,134.20554l4.4008,5.15057a2068.42309,2283.58189 0 0 1 45.60286,55.38303c-8.08195,-54.42059 -29.71025,-122.39682 -59.92902,-184.86408l-1.46088,-3.00137a602.36978,665.0287 0 0 0 -3.68455,-7.41381l-1.48699,-2.92868a576.94569,636.95998 0 0 0 -4.49956,-8.65195l-1.51196,-2.83845l-1.51764,-2.81464a542.19444,598.59388 0 0 0 -3.05343,-5.55785l-1.53466,-2.74196c-0.76733,-1.36597 -1.53807,-2.7194 -2.30994,-4.06657l-1.54601,-2.67805a494.51774,545.95782 0 0 0 -3.10451,-5.27965l-1.5585,-2.59909c-13.00036,-21.54968 -26.37531,-40.26968 -39.50734,-55.13991l-0.63112,-0.71306l-1.25656,-1.40106l-1.24975,-1.37098l-1.24294,-1.34216a198.73198,219.40422 0 0 0 -4.89684,-5.07538l-1.20548,-1.19679l-1.19754,-1.16671l-1.18846,-1.13789l-1.18051,-1.10781l-1.17143,-1.07899a152.9214,168.82839 0 0 0 -1.16348,-1.05142l-1.1544,-1.02009c-0.57436,-0.50378 -1.14646,-0.99628 -1.71401,-1.47875l-1.1317,-0.94866a126.56425,139.72955 0 0 0 -1.67882,-1.36847l-1.10673,-0.87723l-1.09651,-0.84715l-0.54485,-0.41355l-1.08176,-0.80454a96.82449,106.89624 0 0 0 -3.70385,-2.59032l-1.03295,-0.67672c-2.91382,-1.8735 -5.69255,-3.40489 -8.31919,-4.59416l-0.91944,-0.40603c-4.11589,-1.76322 -7.84017,-2.66927 -11.10587,-2.73193l-0.36096,-0.00251c-20.06072,0 -36.32337,-17.95431 -36.32337,-40.10175c0,-22.14745 16.26265,-40.10175 36.32337,-40.10175c35.42437,0 69.94746,21.78778 103.35248,59.61752c26.54444,30.06002 52.45322,70.59663 75.52424,117.14725l1.66293,3.37481c0.5528,1.12786 1.10332,2.26074 1.65271,3.39612c13.50094,27.90957 25.50695,56.7891 35.65934,85.55709c10.15125,-28.768 22.15726,-57.64627 35.65934,-85.55709c23.89056,-49.38907 51.01618,-92.40948 78.83874,-123.91818c33.40615,-37.82974 67.92925,-59.61752 103.35362,-59.61752z"></path>
  </g>
</svg>