<svg viewBox="0 0 1024 1024" version="1.1" xmlns="http://www.w3.org/2000/svg">
  <g class="fore">
    <path d="M910.222222 0H113.777778C51.2 0 0 51.2 0 113.777778v796.444444c0 62.577778 51.2 113.777778 113.777778 113.777778h796.444444c62.577778 0 113.777778-51.2 113.777778-113.777778V113.777778c0-62.577778-51.2-113.777778-113.777778-113.777778zM512 853.333333c-187.733333 0-341.333333-153.6-341.333333-341.333333s153.6-341.333333 341.333333-341.333333 341.333333 153.6 341.333333 341.333333-153.6 341.333333-341.333333 341.333333z"></path>
    <path d="M512 512m-227.555556 0a227.555556 227.555556 0 1 0 455.111112 0 227.555556 227.555556 0 1 0-455.111112 0Z"></path>
  </g>
</svg>