<svg viewBox="0 0 1024 1024" version="1.1" xmlns="http://www.w3.org/2000/svg">
  <g class="fore">
    <path d="M597.026133 362.359467c-13.1072 36.386133-62.3616 66.798933-114.4832 98.952533-22.016 13.585067-48.093867 29.7984-67.242666 45.124267 46.4896 3.549867 93.9008 7.748267 131.310933 23.722666l14.301867 6.280534c49.390933 22.016 81.92 43.042133 101.888 85.333333a17.066667 17.066667 0 0 0 20.0704 9.147733c16.622933-4.7104 28.398933-8.738133 35.976533-12.288a17.066667 17.066667 0 0 0 9.3184-11.332266c5.256533-21.1968 8.328533-65.8432 10.376533-95.744 5.870933-85.879467 10.990933-140.0832 40.3456-171.2128l12.868267-13.824c33.041067-35.6352 67.1744-72.4992 100.522667-100.078934a17.066667 17.066667 0 0 0 2.525866-23.8592 494.250667 494.250667 0 0 0-192.989866-145.6128c-32.938667 28.672-67.242667 164.283733-82.909867 226.2016-8.3968 33.245867-15.633067 61.952-21.879467 79.189334z m19.182934-199.338667c15.940267-52.292267 32.699733-94.071467 52.5312-119.296a494.933333 494.933333 0 0 0-159.8464-26.589867c-26.7264 0-53.418667 2.491733-79.9744 6.929067 77.038933 39.048533 156.910933 97.553067 187.2896 138.9568z m381.610666 63.010133c-30.993067-26.624-87.586133 22.9376-180.974933 123.665067l-13.175467 14.1312c-20.855467 22.084267-25.634133 71.406933-31.0272 150.016-2.833067 41.472-6.690133 96.392533-16.554666 117.077333a16.861867 16.861867 0 0 1-3.618134 6.007467 41.1648 41.1648 0 0 1-6.5536 5.461333c-0.4096 0.3072-0.955733 0.546133-1.399466 0.853334a79.496533 79.496533 0 0 1-7.304534 4.266666c-0.7168 0.375467-1.570133 0.7168-2.3552 1.092267a122.197333 122.197333 0 0 1-7.850666 3.515733c-1.809067 0.750933-3.754667 1.4336-5.666134 2.1504-1.8432 0.682667-3.584 1.365333-5.5296 2.048a323.925333 323.925333 0 0 1-11.4688 3.754667l-0.546133 0.170667a1053.354667 1053.354667 0 0 1-47.991467 13.175466c-42.0864 10.786133-85.572267 21.981867-116.736 41.3696-25.9072 16.110933-57.002667 51.268267-85.4016 96.4608a17.066667 17.066667 0 1 1-28.910933-18.158933c31.470933-50.176 65.672533-88.2688 96.256-107.3152 32.290133-20.104533 73.181867-31.6416 113.732267-42.1888-16.657067-41.1648-47.240533-58.948267-101.512534-82.1248-34.2016-14.574933-81.851733-18.193067-127.965866-21.7088-43.690667-3.310933-88.849067-6.7584-105.233067-19.524267-19.456-15.1552-38.4-87.210667-52.189867-139.810133-10.8544-41.301333-20.206933-76.970667-30.958933-98.065067l-3.618133-7.168c-31.778133-63.112533-69.051733-129.877333-113.322667-127.7952-21.504 1.194667-38.6048 18.500267-50.7904 51.438934-9.489067 25.6-30.9248 235.485867-35.191467 279.005866v34.133334c0 272.896 222.037333 494.933333 494.933334 494.933333 268.629333 0 487.150933-222.037333 487.082666-493.2608 26.146133-266.888533 9.147733-281.429333 1.8432-287.607467zM188.381867 166.8096a402.773333 402.773333 0 0 1 18.466133 26.658133l5.393067 8.6016c3.7888 6.3488 7.509333 12.834133 11.127466 19.387734l5.051734 9.045333c5.2224 9.693867 10.308267 19.524267 15.325866 29.457067l3.549867 6.997333c12.3904 24.337067 22.186667 61.6448 33.553067 104.891733 11.8784 45.2608 25.531733 95.266133 37.137066 116.053334a16.930133 16.930133 0 0 0 10.0352 8.021333c9.693867 2.901333 25.531733 4.983467 42.257067 6.656 19.968-24.337067 56.456533-46.933333 94.344533-70.314667 42.769067-26.385067 91.204267-56.32 100.283734-81.476266 5.666133-15.6672 12.731733-43.6224 20.8896-76.014934 6.3488-25.1904 12.5952-49.2544 18.875733-71.9872a16.315733 16.315733 0 0 1-9.454933-9.216c-12.4928-34.645333-129.058133-119.637333-220.603734-157.559466l-1.297066 0.3072C351.8464 27.136 334.0288 21.4016 319.112533 18.773333a115.3024 115.3024 0 0 0-15.598933-1.672533c-9.3184 0-29.149867 1.262933-131.584 106.325333a17.066667 17.066667 0 0 0-0.034133 23.790934c5.7344 5.905067 11.1616 12.6976 16.4864 19.592533z"></path>
  </g>
</svg>