<svg viewBox="0 0 1024 1024" version="1.1" xmlns="http://www.w3.org/2000/svg">
  <g class="fore">
    <path d="m512,-0.16669c105.61958,0 191.16668,91.67784 191.16668,204.86667l0,460.94999l47.79166,0c26.28542,0 47.79167,-23.0475 47.79167,-51.21667l0,-307.3a47.79167,51.21667 0 0 1 95.58333,0l0,307.3a143.375,153.65 0 0 1 -143.375,153.65l-47.79166,0l0,153.65l95.58333,0l0,102.43334l-573.50002,0l0,-102.43334l95.58333,0l0,-307.3l-47.79166,0a143.375,153.65 0 0 1 -143.375,-153.65l0,-102.43333a47.79167,51.21667 0 0 1 95.58333,0l0,102.43333c0,28.16917 21.50625,51.21667 47.79167,51.21667l47.79166,0l0,-307.3c0,-113.18883 85.54709,-204.86667 191.16668,-204.86667z"></path>
  </g>
</svg>