<svg viewBox="0 0 1024 1024" version="1.1" xmlns="http://www.w3.org/2000/svg">
  <g class="fore">
    <path d="M969.173547 471.893333V115.626667A112.64 112.64 0 0 0 860.373547 0H163.200213A112.64 112.64 0 0 0 54.400213 116.48v791.04A112.64 112.64 0 0 0 163.200213 1024H860.800213a112.64 112.64 0 0 0 108.8-116.48V471.466667z m-518.826667 426.666667a32.426667 32.426667 0 0 1-45.653333 0l-59.733334-60.586667-59.306666 61.013334a32.426667 32.426667 0 0 1-45.653334 0 34.133333 34.133333 0 0 1 0-46.933334l59.733334-61.44-60.16-61.013333a34.133333 34.133333 0 0 1 0-46.933333 31.573333 31.573333 0 0 1 42.666666 0l59.306667 61.013333L404.26688 682.666667a31.146667 31.146667 0 0 1 42.666667 0 34.133333 34.133333 0 0 1 0 46.933333l-55.893334 61.44L450.34688 853.333333a33.28 33.28 0 0 1 0 45.653334zM446.933547 512H373.120213v75.946667a27.306667 27.306667 0 0 1-27.306666 27.306666 27.306667 27.306667 0 0 1-26.88-27.306666V512H245.120213a27.733333 27.733333 0 1 1 0-55.466667H318.933547V378.453333a27.306667 27.306667 0 1 1 54.186666 0v76.373334H446.933547a28.16 28.16 0 0 1 27.733333 28.16 27.733333 27.733333 0 0 1-27.733333 29.013333z m318.293333 369.066667h-183.466667a31.573333 31.573333 0 0 1-29.44-29.44 32 32 0 0 1 29.44-34.56h183.466667a32.426667 32.426667 0 0 1 29.866667 29.866666 32 32 0 0 1-29.866667 32.853334z m-144.64-93.013334v-2.986666h11.946667z m145.92-21.333333h-184.32a32.426667 32.426667 0 0 1 0-64.426667h184.32a32.426667 32.426667 0 0 1 0 64.426667z m2.986667-247.893333H579.200213a33.28 33.28 0 1 1 0-66.56h190.293334a33.28 33.28 0 1 1 0 66.56zM865.06688 198.4c0 21.76-22.613333 40.533333-54.186667 42.666667h-597.333333c-31.573333 0-55.893333-20.053333-54.613333-42.666667v-42.666667c0-22.186667 23.04-42.666667 54.613333-42.666666h597.333333c31.573333 0 55.893333 19.626667 54.186667 42.666666z"></path>
  </g>
</svg>