<svg viewBox="0 0 1024 1024" version="1.1" xmlns="http://www.w3.org/2000/svg">
  <g class="fore">
    <path d="M320 384l128 0 0 128-128 0zM512 384l128 0 0 128-128 0zM704 384l128 0 0 128-128 0zM128 768l128 0 0 128-128 0zM320 768l128 0 0 128-128 0zM512 768l128 0 0 128-128 0zM320 576l128 0 0 128-128 0zM512 576l128 0 0 128-128 0zM704 576l128 0 0 128-128 0zM128 576l128 0 0 128-128 0zM832 0l0 64-128 0 0-64-448 0 0 64-128 0 0-64-128 0 0 1024 960 0 0-1024-128 0zM896 960l-832 0 0-704 832 0 0 704z"></path>
  </g>
</svg>