<svg viewBox="0 0 1024 1024" version="1.1" xmlns="http://www.w3.org/2000/svg">
  <g class="fore">
    <path d="M809.669274 830.096535a69.596508 69.596508 0 0 1-14.762896 103.34027L694.940485 1005.142299c-98.278706 71.283696-318.45675-65.800335-492.237123-305.381043S-31.393984 207.945931 66.884722 136.662235l98.700502-71.705494A69.596508 69.596508 0 0 1 268.0819 84.359404l66.222133 126.539106a97.435112 97.435112 0 0 1-5.061565 97.435112l-38.383529 60.316974a97.435112 97.435112 0 0 0 0 102.918472l21.089851 35.43095a1072.208025 1072.208025 0 0 0 109.667226 151.42513l26.995009 31.21298a97.435112 97.435112 0 0 0 98.700503 30.369385l68.331117-18.137272a97.435112 97.435112 0 0 1 94.060735 25.729619z m-87.73378-371.181377a54.833613 54.833613 0 0 0 70.440102-32.478371 166.188026 166.188026 0 0 0-153.112318-223.974217 54.833613 54.833613 0 0 0 0 109.667225 56.520801 56.520801 0 0 1 52.302831 76.34526 54.833613 54.833613 0 0 0 30.369385 70.440103z m207.102337-299.054087A385.100679 385.100679 0 0 0 620.704209 0a54.833613 54.833613 0 0 0 0 109.667225 278.386033 278.386033 0 0 1 256.452588 375.399348 54.833613 54.833613 0 1 0 102.918473 37.961732 388.053258 388.053258 0 0 0-51.037439-363.167234z"></path>
  </g>
</svg>