<svg viewBox="0 0 1024 1024" version="1.1" xmlns="http://www.w3.org/2000/svg">
  <g class="fore">
    <path d="M839.344262 856.131148L956.852459 151.081967h67.147541V83.934426H872.918033L772.196721 772.196721H0v83.934427zM755.409836 856.131148C705.04918 856.131148 671.47541 889.704918 671.47541 940.065574c0 50.360656 33.57377 83.934426 83.934426 83.934426C805.770492 1024 839.344262 990.42623 839.344262 940.065574 839.344262 889.704918 805.770492 856.131148 755.409836 856.131148zM83.934426 856.131148C33.57377 856.131148 0 889.704918 0 940.065574c0 50.360656 33.57377 83.934426 83.934426 83.934426C134.295082 1024 167.868852 990.42623 167.868852 940.065574 167.868852 889.704918 134.295082 856.131148 83.934426 856.131148z"></path>
    <path d="M503.606557 755.409836h235.016394V520.393443H503.606557z"></path>
    <path d="M251.803279 755.409836h235.016393V520.393443H251.803279zM0 755.409836h235.016393V520.393443H0zM0 486.819672h235.016393V251.803279H0z"></path>
    <path d="M0 235.016393h235.016393V0H0zM251.803279 235.016393h235.016393V0H251.803279zM503.606557 235.016393h235.016394V0H503.606557zM503.606557 486.819672h235.016394V251.803279H503.606557zM251.803279 486.819672h235.016393V251.803279H251.803279z"></path>
  </g>
</svg>