<svg viewBox="0 0 1024 1024" version="1.1" xmlns="http://www.w3.org/2000/svg">
  <g class="fore">
    <path d="m937.823827,160l-22.208,0l-53.952,125.056l-694.656,0l-54.656,-125.056l-23.04,0c-47.744,0 -86.4,39.936 -86.4,89.088l-2.88,525.824c0,49.152 38.656,89.088 86.4,89.088l852.48,0c47.744,0 82.24,-39.936 82.24,-89.088l2.816,-525.824c0.128,-49.152 -38.528,-89.088 -86.144,-89.088zm-649.856,576a160,160 0 1 1 0.064,-320.064a160,160 0 0 1 -0.064,320.064zm448,0a160,160 0 1 1 0,-320a160,160 0 0 1 0,320z"></path>
    <path d="m225.823827,218.112l557.248,0l44.224,-58.112l-633.216,0l31.744,58.112z"></path>
    <path d="m191.967827,574.016a94.016,92.992 90 1 0 185.984,0a94.016,92.992 90 1 0 -185.984,0z"></path>
    <path d="m639.967827,574.016a94.016,92.992 90 1 0 185.984,0a94.016,92.992 90 1 0 -185.984,0z"></path>
  </g>
</svg>