<svg viewBox="0 0 1024 1024" version="1.1" xmlns="http://www.w3.org/2000/svg">
  <g class="fore">
    <path d="m819.764899,1.18295l-552.436699,0c-174.686937,0 -209.649823,37.429305 -209.807858,190.369827c5.44357,-0.17914 5.44357,0.746009 5.44357,0.746009l-4.602931,0c-45.773,0 -58.503437,34.552016 -58.503437,77.1494c0,42.605973 12.730437,77.145719 58.503437,77.145719l-0.306774,-1.27975l0,107.540695l0.306774,-6.649054c-45.773,0 -58.503437,34.540973 -58.503437,77.13713c0,42.617016 12.730437,77.1494 58.503437,77.1494l-0.306774,-7.834326l0,118.295255l0.306774,-10.839223c-45.773,0 -58.503437,34.532384 -58.503437,77.126087c0,42.617016 3.001334,86.663474 48.775662,86.663474c0,0 0,0 8.559114,-0.083435c1.239046,134.236299 34.237784,158.999395 210.137208,158.999395l552.436699,0c153.736032,0 204.37624,-33.461222 204.37624,-167.507338l0,-663.939803c0,-162.161346 -45.913771,-190.191914 -204.37624,-190.191914l-0.001328,0.002454zm-86.617704,569.965928c30.055837,0 45.719879,14.912827 47.115632,43.017014c1.398409,28.144678 -14.389139,45.578968 -51.786292,45.451361c-21.378529,-0.041718 -123.362797,-2.435574 -123.362797,-2.435574l0,96.786135c0,28.126273 -28.85796,33.018279 -59.109016,33.018279c-30.244417,0 -57.288296,-4.892006 -57.288296,-33.018279l0,-96.786135l-128.033457,0c-29.994748,0 -46.55919,-14.891968 -46.55919,-43.017014c0,-18.694407 -0.395751,-6.322675 -0.272245,-7.709173c2.309434,-26.170453 18.301498,-35.307841 46.831435,-35.307841l128.034785,0l0,-64.524908l-128.034785,0c-22.041213,0 -43.78362,-4.89446 -43.78362,-51.386307c0,-28.133635 18.516637,-45.3986 48.775662,-45.3986l97.546012,0l-66.563215,-56.91144l-31.100992,-28.942221c-20.166043,-18.768027 -20.618899,-48.225583 -2.706513,-68.232869c1.069059,-1.197541 1.512619,-2.688333 2.706513,-3.822071c21.393137,-19.891949 56.038625,-19.891949 77.430434,0l4.082346,3.822071l99.605777,92.670813l103.677499,-96.492884c21.391809,-19.891949 56.026673,-19.891949 77.40653,0c21.381185,19.889495 21.381185,52.174034 0,72.05494l-93.822233,85.853661l97.551324,0c30.245745,0 48.774334,17.264965 48.774334,45.3986c0,28.134862 -16.86856,51.386307 -47.115632,51.386307l-128.034785,0l0,64.524908l128.034785,0l0,0.001227z"/>
  </g>
</svg>