<svg viewBox="0 0 1024 1024" version="1.1" xmlns="http://www.w3.org/2000/svg">
  <g class="fore">
    <path d="M581.18 384c-40.36 0-213.64 3.96-325.18 171.9V384c0-105.88-86.12-192-192-192-35.34 0-64 28.66-64 64s28.66 64 64 64c35.28 0 64 28.72 64 64v512c0 70.6 57.4 128 128 128h352c17.68 0 32-14.32 32-32v-32c0-35.34-28.66-64-64-64h-64l256-192v288c0 17.68 14.32 32 32 32h64c17.68 0 32-14.32 32-32V579.72c-20.58 5.34-41.78 9.08-64 9.08-123.62 0-227.04-88.1-250.82-204.8zM896 192h-128l-128-128v268.8c0 106.04 85.96 192 192 192s192-85.96 192-192V64l-128 128z m-144 160c-17.68 0-32-14.32-32-32s14.32-32 32-32 32 14.32 32 32-14.32 32-32 32z m160 0c-17.68 0-32-14.32-32-32s14.32-32 32-32 32 14.32 32 32-14.32 32-32 32z"></path>
  </g>
</svg>