<svg viewBox="0 0 1024 1024" version="1.1" xmlns="http://www.w3.org/2000/svg">
  <g class="fore">
    <path d="M864 64v896c0 35.3-28.7 64-64 64H224c-35.3 0-64-28.7-64-64V64c0-35.4 28.7-64 64-64h576c35.3 0 64 28.6 64 64zM144 100v120c0 2.2-1.8 4-4 4H80c-8.8 0-16-7.2-16-16v-16H0v-64h64v-16c0-8.8 7.2-16 16-16h60c2.2 0 4 1.8 4 4zM144 276v120c0 2.2-1.8 4-4 4H80c-8.8 0-16-7.2-16-16v-16H0v-64h64v-16c0-8.8 7.2-16 16-16h60c2.2 0 4 1.8 4 4zM144 452v120c0 2.2-1.8 4-4 4H80c-8.8 0-16-7.2-16-16v-16H0v-64h64v-16c0-8.8 7.2-16 16-16h60c2.2 0 4 1.8 4 4zM144 628v120c0 2.2-1.8 4-4 4H80c-8.8 0-16-7.2-16-16v-16H0v-64h64v-16c0-8.8 7.2-16 16-16h60c2.2 0 4 1.8 4 4zM144 804v120c0 2.2-1.8 4-4 4H80c-8.8 0-16-7.2-16-16v-16H0v-64h64v-16c0-8.8 7.2-16 16-16h60c2.2 0 4 1.8 4 4zM1024 128v64h-64v16c0 8.8-7.2 16-16 16h-60c-2.2 0-4-1.8-4-4V100c0-2.2 1.8-4 4-4h60c8.8 0 16 7.2 16 16v16h64zM1024 304v64h-64v16c0 8.8-7.2 16-16 16h-60c-2.2 0-4-1.8-4-4V276c0-2.2 1.8-4 4-4h60c8.8 0 16 7.2 16 16v16h64zM1024 480v64h-64v16c0 8.8-7.2 16-16 16h-60c-2.2 0-4-1.8-4-4V452c0-2.2 1.8-4 4-4h60c8.8 0 16 7.2 16 16v16h64zM1024 656v64h-64v16c0 8.8-7.2 16-16 16h-60c-2.2 0-4-1.8-4-4V628c0-2.2 1.8-4 4-4h60c8.8 0 16 7.2 16 16v16h64zM1024 832v64h-64v16c0 8.8-7.2 16-16 16h-60c-2.2 0-4-1.8-4-4V804c0-2.2 1.8-4 4-4h60c8.8 0 16 7.2 16 16v16h64z"></path>
  </g>
</svg>