<svg viewBox="0 0 1024 1024" version="1.1" xmlns="http://www.w3.org/2000/svg">
  <g class="fore">
    <path d="M87.788 227.913c17.049 29.189 34.039 58.291 51.043 87.383 51.784 88.596 103.585 177.181 155.325 265.804 2.62 4.485 5.062 9.143 7 13.955C349.786 715.89 484.618 771.244 604.34 719.47c2.398-1.037 4.887-1.861 9.302-3.526-2.588 4.897-4.038 7.89-5.7 10.755-54.798 94.487-109.707 188.908-164.246 283.545-4.133 7.171-8.493 8.259-15.899 6.935-206.01-36.867-364.332-183.492-412.98-387.026-33.681-140.916-9.465-273.513 67.799-396.221a55.282 55.282 0 0 1 2.993-4.263c0.41-0.532 1.065-0.875 2.179-1.756zM637.574 322.251c4.879-0.232 7.832-0.494 10.785-0.495 109.636-0.021 219.273 0.08 328.908-0.221 8.034-0.021 11.143 2.592 13.896 9.949 77.165 206.263 15.492 437.682-155.167 576.728-99.718 81.243-214.648 119.245-343.254 115.541-4.101-0.116-8.19-0.579-13.782-0.991 2.282-4.327 3.863-7.594 5.678-10.723 73.799-127.297 147.568-254.609 221.459-381.853 61.326-105.603 35.165-231.359-63.311-303.663-1.275-0.936-2.452-2.003-5.212-4.272zM970.66 284.978h-15.17c-145.492 0-290.984-0.444-436.474 0.156-97.432 0.401-169.373 44.268-212.233 132.11-11.095 22.739-15.798 48.603-23.28 72.528-0.437-0.663-2.509-3.517-4.279-6.546-54.593-93.406-109.079-186.878-163.896-280.152-3.852-6.555-3.331-10.476 1.434-16.115C205.093 82.393 316.58 20.463 452.687 3.72c207.799-25.561 413.84 82.445 511.367 267.993 1.915 3.643 3.675 7.368 6.606 13.265zM702.425 512.551c-0.178 106.027-85.601 189.996-193.057 189.771-103.007-0.212-187.656-86.695-187.287-191.343 0.373-106.007 85.766-189.459 193.555-189.154 102.551 0.287 186.962 86.481 186.789 190.726z"></path>
  </g>
</svg>