<svg viewBox="0 0 1024 1024" version="1.1" xmlns="http://www.w3.org/2000/svg">
  <g class="fore">
    <path d="m428.120391,623.469955c-24.639416,0 -38.972892,24.790923 -38.972892,57.924281c0,33.403188 14.801353,56.93193 39.204723,56.93193c24.639416,0 38.743169,-24.799843 38.743169,-57.922051c-0.002108,-30.615686 -13.874029,-56.93416 -38.975,-56.93416z"></path>
    <path d="m839.118753,623.960555c-8.101438,0 -13.370324,0.77827 -16.468429,1.558771l0,111.537969c3.104427,0.77604 8.101438,0.77604 12.670616,0.77604c32.974793,0.25199 54.507675,-18.97285 54.507675,-59.721662c0.225508,-35.416879 -19.376853,-54.151119 -50.709862,-54.151119z"></path>
    <path d="m902.988183,357.598063l-269.100952,-284.354141c-32.576465,-34.504808 -75.880382,-53.475428 -121.957839,-53.475428c-46.037414,0.03568 -89.34133,19.04198 -121.884075,53.475428l-269.43816,284.385361c-66.609251,0.42816 -120.484659,57.641071 -120.484659,128.191618l0,390.145397c0,70.842678 54.269521,128.265208 121.218088,128.265208l781.318819,0c66.940137,0 121.218088,-57.422531 121.218088,-128.265208l0,-390.143167c-0.002108,-70.691038 -54.107239,-128.053358 -120.889309,-128.225068zm-440.529411,-207.74245c26.270663,-27.718915 72.744341,-27.796965 99.010789,0l196.301814,207.70454l-491.61231,0l196.299707,-207.70454zm-242.674329,464.304087l-1.102251,4.511292c-1.532192,6.351043 -7.665175,10.226785 -13.699102,8.601115c-5.696719,-1.478491 -12.333407,-2.544431 -19.897419,-2.544431c-28.905106,0 -51.380064,18.48225 -51.380064,56.41234c0,34.181458 19.107086,55.66306 51.643508,55.66306c5.401661,0 11.030939,-0.60433 16.268211,-1.585531c7.937049,-1.480721 15.534782,4.045222 17.066974,12.485777c1.538515,8.400414 -3.597595,16.542149 -11.534644,18.27263c-7.36801,1.585531 -16.662324,2.682691 -27.29915,2.682691c-55.711088,0 -84.418084,-36.656759 -84.418084,-85.230645c0,-58.209721 39.211046,-90.584878 87.981958,-90.584878c9.903397,0 18.540154,1.126151 25.4719,2.671541c3.804135,0.85632 7.138286,3.356152 9.203689,6.846104c2.065403,3.539012 2.666056,7.807234 1.694474,11.798936zm110.623413,151.999111l-70.611496,0c-8.175203,0 -14.76974,-7.020044 -14.76974,-15.627848l0,-135.523862c0,-10.688396 8.200493,-19.36533 18.302001,-19.36533s18.302001,8.676935 18.302001,19.36533l0,118.774323l48.779342,0c8.430217,0 15.296628,7.229664 15.296628,16.187579c-0.004215,8.955685 -6.868519,16.189809 -15.298736,16.189809zm96.041245,2.787501c-47.839373,0 -75.806617,-38.20661 -75.806617,-86.778266c0,-51.116087 30.831411,-89.313777 78.407339,-89.313777c49.510663,0 76.514756,39.225721 76.514756,86.278746c0,55.90836 -32.041147,89.813298 -79.115477,89.813298zm142.424298,-0.27875c-11.500923,0 -22.902792,-1.942331 -32.041147,-4.729833c-7.795843,-2.325891 -12.430355,-10.793206 -10.49562,-19.12003l0.229723,-1.054791c0.963152,-4.163412 3.49854,-7.691274 7.039231,-9.807545c3.49854,-2.082821 7.665175,-2.575651 11.534644,-1.306781c7.795843,2.577881 16.769809,4.410942 25.866013,4.410942c16.736088,0 25.602569,-7.334474 25.602569,-18.48448c0,-10.581356 -7.667282,-16.646959 -27.035705,-23.981433c-26.772261,-9.881135 -44.241778,-25.578114 -44.241778,-50.377957c0,-29.065835 22.966018,-51.356927 60.979973,-51.356927c10.801215,0 19.93114,1.442811 27.571024,3.565772c3.662929,1.019111 6.769464,3.565772 8.66837,7.017814c1.901014,3.449812 2.396289,7.613224 1.399416,11.495656l-0.271874,0.983431c-2.198179,8.398184 -10.40078,13.406767 -18.367335,11.219136c-5.53233,-1.549851 -12.101576,-2.649241 -19.703524,-2.649241c-15.806657,0 -23.43811,7.586464 -23.43811,16.437339c0,10.911396 9.066698,15.696978 29.870366,24.021573c28.477272,11.150006 41.843381,26.809074 41.843381,50.866327c0.004215,28.581925 -20.799452,52.851028 -65.009617,52.851028zm177.430774,-2.508751l-72.282787,0c-8.636757,0 -15.598009,-7.370154 -15.598009,-16.473019l0,-137.571003c0,-9.102865 6.967574,-16.473019 15.598009,-16.473019l68.948636,0c8.232107,0 14.936237,7.091404 14.936237,15.801788c0,8.746065 -6.70413,15.837468 -14.936237,15.837468l-47.946858,0l0,35.419109l44.441996,0c8.211031,0 14.843504,6.988824 14.843504,15.661298s-6.632473,15.696978 -14.843504,15.696978l-44.441996,0l0,40.463372l51.281009,0c8.232107,0 14.934129,7.093634 14.934129,15.841928c0,8.703695 -6.702022,15.795098 -14.934129,15.795098zm155.489027,-20.246181c-17.007962,14.920938 -42.810749,22.012342 -74.381911,22.012342c-11.030939,0 -20.169294,-0.42593 -27.705908,-1.028031c-7.741047,-0.63555 -13.663274,-7.439284 -13.663274,-15.661298l0,-139.513334c0,-8.074834 5.759946,-14.820588 13.370324,-15.627848c10.801215,-1.123921 23.13673,-1.692571 35.902186,-1.692571c30.603795,0 50.442202,5.786853 65.976985,18.19458c16.736088,13.132477 27.267536,34.148008 27.267536,64.277554c-0.002108,32.593697 -11.231156,55.136779 -26.765938,69.038607z"></path>
  </g>
</svg>