<svg viewBox="0 0 1024 1024" version="1.1" xmlns="http://www.w3.org/2000/svg">
  <g class="fore">
    <path d="M329.813333 426.666667l341.333334 341.333333H256a170.666667 170.666667 0 0 1-170.666667-170.666667 170.666667 170.666667 0 0 1 170.666667-170.666666M128 224.853333L245.333333 341.333333C109.226667 347.733333 0 459.52 0 597.333333a256 256 0 0 0 256 256h500.48l85.333333 85.333334L896 884.48 182.186667 170.666667m643.413333 257.28A319.573333 319.573333 0 0 0 512 170.666667c-64 0-121.6 18.346667-170.666667 49.92l61.866667 62.293333C435.626667 265.813333 472.746667 256 512 256a234.666667 234.666667 0 0 1 234.666667 234.666667v21.333333H810.666667a128 128 0 0 1 128 128c0 48.213333-27.306667 90.026667-66.56 111.786667l61.866666 61.866666C988.16 774.826667 1024 711.68 1024 640c0-112.64-87.466667-203.946667-198.4-212.053333z"></path>
  </g>
</svg>