<svg viewBox="0 0 1024 1024" version="1.1" xmlns="http://www.w3.org/2000/svg">
  <g class="fore">
    <path d="M1024 657.536c0-82.08-56.672-150.912-132.992-169.472-3.232-128.704-108.448-232.064-237.856-232.064-75.808 0-143.264 35.488-186.848 90.72-24.448-31.584-62.688-51.968-105.696-51.968-73.824 0-133.632 59.872-133.632 133.728 0 6.432 0.48 12.768 1.376 18.944-11.232-2.016-22.752-3.136-34.56-3.136-107.008 0-193.728 86.784-193.728 193.856s86.72 193.856 193.728 193.856l656.256 0c96.128-0.192 174.016-78.208 174.016-174.432z"></path>
  </g>
</svg>