<svg viewBox="0 0 1024 1024" version="1.1" xmlns="http://www.w3.org/2000/svg">
  <g class="fore">
    <path d="M892.256 514.496c2.432-11.104 3.744-22.656 3.744-34.496 0-88.352-71.648-160-160-160-14.24 0-28 1.856-41.12 5.344-24.8-77.344-97.28-133.344-182.88-133.344-87.36 0-161.056 58.336-184.32 138.176-22.752-6.624-46.784-10.176-71.68-10.176-141.376 0-256 114.624-256 256s114.624 256 256 256l608 0c88.352 0 160-71.648 160-160 0-78.72-56.864-144.16-131.744-157.504zM416 768l-160-160 64-64 96 96 224-224 64 64-288 288z"></path>
  </g>
</svg>