<svg viewBox="0 0 1024 1024" version="1.1" xmlns="http://www.w3.org/2000/svg">
  <g class="fore">
    <path d="M512 170.666667a319.573333 319.573333 0 0 1 313.6 257.706666c110.933333 7.68 198.4 98.986667 198.4 211.626667a213.333333 213.333333 0 0 1-213.333333 213.333333H256a256 256 0 0 1-256-256c0-131.84 99.84-240.64 228.266667-254.293333A319.829333 319.829333 0 0 1 512 170.666667M320 413.44c-61.44 77.226667-55.466667 186.453333 13.653333 255.573333C369.493333 704 418.56 725.333333 469.333333 725.333333v79.36l120.746667-120.32L469.333333 563.626667V640c-28.16 0-55.466667-11.093333-75.52-31.146667-35.84-35.84-41.386667-92.16-13.226666-134.4L320 413.44m71.253333-30.72l61.866667 61.866667L512 503.04V426.666667c28.16 0 55.466667 11.093333 75.52 31.146666 35.84 35.84 41.386667 92.16 13.226667 134.4l60.586666 61.013334c61.44-77.226667 55.466667-186.453333-13.653333-255.573334C611.84 362.666667 562.773333 341.333333 512 341.333333V261.973333L391.253333 382.72z"></path>
  </g>
</svg>