<svg viewBox="0 0 1024 1024" version="1.1" xmlns="http://www.w3.org/2000/svg">
  <g class="fore">
    <path d="M0 786.618182C0 916.945455 107.054545 1024 237.381818 1024s237.381818-107.054545 237.381818-237.381818l0-237.381818L237.381818 549.236364C107.054545 549.236364 0 656.290909 0 786.618182L0 786.618182zM1024 237.381818C1024 107.054545 916.945455 0 786.618182 0c-130.327273 0-237.381818 107.054545-237.381818 237.381818l0 237.381818 237.381818 0C916.945455 474.763636 1024 367.709091 1024 237.381818L1024 237.381818zM237.381818 474.763636l237.381818 0L474.763636 237.381818C474.763636 107.054545 367.709091 0 237.381818 0 107.054545 0 0 107.054545 0 237.381818 0 367.709091 107.054545 474.763636 237.381818 474.763636L237.381818 474.763636zM786.618182 549.236364l-237.381818 0 0 237.381818c0 130.327273 107.054545 237.381818 237.381818 237.381818s237.381818-107.054545 237.381818-237.381818S916.945455 549.236364 786.618182 549.236364L786.618182 549.236364zM786.618182 935.563636"></path>
  </g>
</svg>