<svg viewBox="0 0 1024 1024" version="1.1" xmlns="http://www.w3.org/2000/svg">
  <g class="fore">
    <path d="M786.816 392.768c-59.008 0-112.064 24.576-149.824 64.704-16 16.96-43.776 37.12-73.792 54.784 14.08-53.888 58.688-121.728 89.6-151.488a209.28 209.28 0 0 0 64-151.488C716.8 94.4 625.344 1.152 512-0.064 398.656 1.152 307.2 94.336 307.2 209.28c0 59.648 24.32 113.344 64 151.488 30.976 29.76 75.52 97.6 89.6 151.488-30.016-17.728-57.792-37.824-73.792-54.784a204.608 204.608 0 0 0-149.824-64.704C122.816 392.768 30.08 486.4 30.08 602.112s92.672 209.344 207.104 209.344c59.072 0 112.064-25.344 149.824-65.472 16.832-17.856 46.464-40.128 78.272-58.624-3.008 147.712-73.536 256.192-145.344 298.88V1024h384v-37.76c-71.808-42.752-142.336-151.232-145.344-298.88 31.872 18.496 61.504 40.768 78.272 58.624a205.44 205.44 0 0 0 149.824 65.472c114.368 0 207.104-93.696 207.104-209.344s-92.672-209.344-207.104-209.344z"></path>
  </g>
</svg>