<svg viewBox="0 0 1024 1024" version="1.1" xmlns="http://www.w3.org/2000/svg">
  <g class="fore">
    <path d="M511.5 1C229 1 0 230 0 512.5S229 1024 511.5 1024 1023 795 1023 512.5 794 1 511.5 1z m316.4 827.9c-41.1 41.1-89 73.4-142.3 95.9-55.1 23.4-113.7 35.2-174.1 35.2s-119-11.8-174.2-35.1c-53.3-22.6-101.1-54.9-142.2-96s-73.4-89-95.9-142.3C75.8 631.5 64 572.9 64 512.5s11.8-119 35.1-174.2C121.6 285 153.9 237.2 195 196s89-73.4 142.3-95.9C392.5 76.8 451.1 65 511.5 65s119 11.8 174.2 35.1C739 122.6 786.8 154.9 828 196s73.4 89 95.9 142.3C947.2 393.4 959 452 959 512.5s-11.8 119-35.1 174.2c-22.6 53.3-54.9 101.1-96 142.2z"></path>
    <path d="M512.5 112C291.9 112 113 290.9 113 511.5S291.9 911 512.5 911 912 732.1 912 511.5 733.1 112 512.5 112z m194.3 223.8L601.5 441.2c-2.5 2.5-0.7 6.8 2.8 6.8H682c2.2 0 4 1.8 4 4v56c0 2.2-1.8 4-4 4H550c-4.4 0-8 3.6-8 8v52c0 2.2 1.8 4 4 4h136c2.2 0 4 1.8 4 4v56c0 2.2-1.8 4-4 4H546c-2.2 0-4 1.8-4 4v88c0 2.2-1.8 4-4 4h-56c-2.2 0-4-1.8-4-4v-88c0-2.2-1.8-4-4-4H338c-2.2 0-4-1.8-4-4v-56c0-2.2 1.8-4 4-4h136c2.2 0 4-1.8 4-4v-52c0-4.4-3.6-8-8-8H338c-2.2 0-4-1.8-4-4v-56c0-2.2 1.8-4 4-4h69.7c3.6 0 5.3-4.3 2.8-6.8L305.2 335.8c-1.6-1.6-1.6-4.1 0-5.7l39.6-39.6c1.6-1.6 4.1-1.6 5.7 0l144.3 144.3c6.2 6.2 16.4 6.2 22.6 0l144.3-144.3c1.6-1.6 4.1-1.6 5.7 0l39.6 39.6c1.4 1.6 1.4 4.2-0.2 5.7z"></path>
  </g>
</svg>