<svg viewBox="0 0 1024 1024" version="1.1" xmlns="http://www.w3.org/2000/svg">
  <g class="fore">
    <path d="m51.50001,78.5l920.99997,0a51.16667,48.16667 0 0 1 51.16667,48.16667l0,770.66662a51.16667,48.16667 0 0 1 -51.16667,48.16667l-920.99997,0a51.16667,48.16667 0 0 1 -51.16667,-48.16667l0,-770.66662a51.16667,48.16667 0 0 1 51.16667,-48.16667zm688.90798,603.8173l180.92532,-170.31732l-180.92532,-170.31732l-72.34967,68.204l108.57567,102.11332l-108.57567,102.16149l72.34967,68.15583zm-493.04198,-170.31732l108.57567,-102.16149l-72.34967,-68.15583l-180.92532,170.31732l180.92532,170.31732l72.34967,-68.204l-108.57567,-102.11332zm225.95199,240.83332l186.24666,-481.66663l-108.88267,0l-186.24666,481.66663l108.88267,0z"></path>
  </g>
</svg>