<svg viewBox="0 0 1024 1024" version="1.1" xmlns="http://www.w3.org/2000/svg">
  <g class="fore">
    <path d="M193.536 915.456l473.088 0 0 52.224q0 20.48-15.36 38.4t-45.056 17.92l-351.232 0q-26.624 0-44.032-16.384t-17.408-39.936l0-52.224zM829.44 488.448q34.816 0 67.584 4.608t55.296 19.968 32.256 44.032 0.512 77.824q-10.24 51.2-30.208 77.824t-46.08 38.4-56.32 11.776-61.952-2.048q-11.264 18.432-25.6 33.28t-30.72 28.672-33.28 28.672-34.304 33.28l-473.088 0q-22.528-31.744-50.176-53.248t-51.2-49.664-39.936-72.192-16.384-119.808l0-107.52q0-20.48 7.168-30.72t16.384-15.36q11.264-5.12 24.576-7.168l697.344 0q12.288 2.048 23.552 7.168 9.216 5.12 16.896 15.36t7.68 30.72l0 6.144zM251.904 349.184q-2.048 15.36-13.312 23.04t-24.064 7.68-23.552-7.68-10.752-23.04q0-35.84 3.584-58.88t6.656-43.52q5.12-29.696 17.92-50.176t26.624-37.376 25.088-32.768 14.336-37.376q4.096-30.72 5.632-48.64t5.12-26.624 10.752-10.752 23.552-2.048 23.552 11.776 8.192 29.696-2.048 37.888-6.144 35.328q-2.048 14.336-9.728 29.184t-17.92 30.72-20.48 31.232-18.432 29.696q-9.216 15.36-14.336 38.4t-10.24 74.24zM445.44 349.184q-2.048 15.36-13.312 23.04t-24.064 7.68-23.552-7.68-10.752-23.04q0-35.84 3.584-58.88t7.68-43.52q5.12-29.696 17.92-50.176t26.112-37.376 24.576-32.768 14.336-37.376q4.096-30.72 6.144-48.64t5.632-26.624 10.752-10.752 23.552-2.048 23.04 11.776 7.68 29.696-1.536 37.888-5.632 35.328q-3.072 14.336-10.752 29.184t-17.408 30.72-20.48 31.232-18.944 29.696q-9.216 15.36-14.336 38.4t-10.24 74.24zM640 349.184q-2.048 15.36-13.312 23.04t-24.064 7.68-23.552-7.68-10.752-23.04q0-35.84 3.072-58.88t7.168-43.52q5.12-29.696 17.92-50.176t26.624-37.376 25.088-32.768 14.336-37.376q4.096-30.72 5.632-48.64t5.12-26.624 10.752-10.752 23.552-2.048 23.552 11.776 8.192 29.696-2.048 37.888-6.144 35.328q-3.072 14.336-10.752 29.184t-17.408 30.72-19.968 31.232-18.432 29.696q-5.12 8.192-8.704 16.896t-6.144 21.504-4.608 30.72-5.12 43.52z"></path>
  </g>
</svg>