<svg viewBox="0 0 1024 1024" version="1.1" xmlns="http://www.w3.org/2000/svg">
  <g class="fore">
    <path d="M987.194401 896.29201 36.773608 896.29201c-20.186325 0-36.597711 15.867539-36.597711 35.478025l0 56.656071c0 19.610487 16.411386 35.478025 36.597711 35.478025l950.452783 0c20.250307 0 36.629702-15.867539 36.629702-35.478025l0-56.656071C1023.824102 912.159549 1007.444707 896.29201 987.194401 896.29201zM682.576043 383.508178 340.720155 383.508178 255.65607 575.070321 767.672119 575.070321zM567.760323 34.35834c0 0-6.718111-34.35834-53.073079-34.35834s-53.616926 35.542007-53.616926 35.542007l-92.837899 283.792213 292.845667 0L567.760323 34.35834zM803.182135 639.180296 226.160363 639.180296 137.32134 863.85313 892.053149 863.85313z"></path>
  </g>
</svg>