<svg viewBox="0 0 1024 1024" version="1.1" xmlns="http://www.w3.org/2000/svg">
  <g class="fore">
    <path d="M213.848747 293.546667h214.698666a16.042667 16.042667 0 0 0 15.303111-11.036445L510.012302 77.368889a15.928889 15.928889 0 0 0-15.246222-20.593778H279.953636a16.042667 16.042667 0 0 0-15.303112 11.036445L198.545636 272.896a15.644444 15.644444 0 0 0 2.389333 14.222222 16.156444 16.156444 0 0 0 12.913778 6.428445z m332.288 0h214.755555a16.042667 16.042667 0 0 0 15.018667-11.036445l66.332444-205.141333a15.872 15.872 0 0 0-15.246222-20.593778h-214.812444a16.042667 16.042667 0 0 0-15.189334 11.036445L530.890524 272.896a15.815111 15.815111 0 0 0 15.246223 20.650667z m-528.839111 0h79.075555a15.985778 15.985778 0 0 0 15.530667-11.036445L177.667413 77.368889a15.872 15.872 0 0 0-15.246222-20.593778H17.297636a15.928889 15.928889 0 0 0-15.985778 15.928889V277.617778a15.928889 15.928889 0 0 0 15.985778 15.928889zM1007.903858 56.775111h-64a16.156444 16.156444 0 0 0-15.416889 11.036445l-65.991111 205.141333a15.701333 15.701333 0 0 0 2.332444 14.108444 16.327111 16.327111 0 0 0 12.913778 6.485334h130.161778a15.928889 15.928889 0 0 0 15.985778-15.872V72.647111a15.644444 15.644444 0 0 0-4.664889-11.207111 16.156444 16.156444 0 0 0-11.320889-4.664889z m-16.554667 315.619556H31.974969a31.857778 31.857778 0 0 0-32.028445 31.687111v521.671111a40.903111 40.903111 0 0 0 36.010667 41.187555 40.106667 40.106667 0 0 0 44.032-39.594666v-160.369778h863.345778v158.72a40.846222 40.846222 0 0 0 36.010667 41.073778 40.391111 40.391111 0 0 0 30.833777-10.069334 39.253333 39.253333 0 0 0 13.084445-29.468444V403.968a31.857778 31.857778 0 0 0-31.914667-31.573333zM933.436302 492.088889a39.708444 39.708444 0 0 1-39.992889 39.537778h-160.028444a40.334222 40.334222 0 0 1-28.273778-11.548445 39.424 39.424 0 0 1 28.273778-67.527111h160.028444a39.822222 39.822222 0 0 1 39.992889 39.537778z"></path>
  </g>
</svg>