<svg viewBox="0 0 1024 1024" version="1.1" xmlns="http://www.w3.org/2000/svg">
  <g class="fore">
    <path d="m913.220015,825.173118l-29.468623,-38.537466l88.348146,-44.985369l0,-462.499969l-265.016249,-134.905733l25.774306,-38.563239l290.762364,147.776938l0,513.933241l-110.399945,57.806199l0,-0.024601zm-861.319588,-266.588686l-51.520422,0l0,-301.952576l522.645205,-256.964863l117.818112,57.806199l-25.774306,41.761418l-92.014273,-48.183548l-471.154317,231.274l0,276.260541l0,-0.001171zm460.099556,465.748522l-511.619977,-253.767856l0,-125.257309l51.548612,0l0,99.567617l460.071365,228.075822l298.122808,-147.778109l25.774306,38.562068l-323.868923,160.597768l-0.028191,0zm-33.106559,-725.93968l-114.094262,-57.830801l0,-35.313515l150.923329,-77.099534l147.199479,77.099534l0,35.313515l-110.399945,57.831972l-3.694317,35.338116l-33.105217,-19.268733l-36.829067,19.244132l0,-35.314686zm231.912374,231.276343l0,-115.638172l-114.123795,-57.830801l0,-35.314686l147.229012,-73.876754l150.923329,73.876754l0,150.950515l-150.923329,73.901355l-33.105217,-16.070555l0,0.002343zm-346.006636,289.0802l0,-147.752336l33.13475,-19.268733l114.094262,57.806199l117.788579,-57.806199l33.13475,16.070555l0,150.950515l-150.95152,77.099534l-147.199479,-77.099534l-0.001342,0zm346.006636,-57.806199l0,-115.638172l-36.829067,-19.267562l36.829067,-16.070555l0,-35.338116l33.105217,19.268733l114.122453,-57.806199l36.800877,16.069383l0,150.951686l-150.923329,73.875582l-33.105217,-16.044782zm-346.006636,-173.443199l0,-150.976288l150.923329,-73.875582l147.199479,73.875582l0,150.950515l-150.921987,73.876754l-147.199479,-73.876754l-0.001342,0.025773zm-235.577158,115.612399l3.694317,-150.951686l33.13475,-16.069383l114.094262,57.806199l36.799534,-19.244132l0,35.313515l36.829067,19.268733l-36.829067,16.070555l0,115.637l-36.799534,16.044782l-150.923329,-73.875582zm0,-231.275172l3.694317,-150.950515l150.923329,-73.876754l147.199479,73.876754l0,35.313515l-114.094262,57.830801l0,112.413049l-36.799534,19.294506l-150.923329,-73.901355z"></path>
  </g>
</svg>