<svg viewBox="0 0 1024 1024" version="1.1" xmlns="http://www.w3.org/2000/svg">
  <g class="fore">
    <path d="M1021.014705 511.625461c-139.936023-1.699952-252.932812-115.376721-252.932812-255.712734-140.336012 0-253.992782-112.976789-255.712733-252.892813-54.518451-8.279765-110.256867 0.599983-159.43547 25.639272l-138.256071 70.437998a264.434485 264.434485 0 0 0-115.576715 115.616714l-70.198005 137.756086a265.282461 265.282461 0 0 0-25.639272 161.895399l24.159314 152.535665a265.034468 265.034468 0 0 0 74.317888 145.915853l109.536887 109.516888a264.064496 264.064496 0 0 0 145.415868 74.117894l153.41564 24.299309c55.018436 8.719752 111.396834-0.219994 161.055423-25.519274l138.256071-70.417999a264.538482 264.538482 0 0 0 115.576716-115.616715l70.198005-137.756085c25.119286-49.2786 34.019033-105.157012 25.819266-159.815458zM351.993717 735.979085c-35.338996 0-63.998181-28.659186-63.998181-63.998181s28.659186-63.998181 63.998181-63.998182 63.998181 28.659186 63.998181 63.998182-28.659186 63.998181-63.998181 63.998181z m63.998181-319.990907c-35.338996 0-63.998181-28.659186-63.998181-63.998181s28.659186-63.998181 63.998181-63.998181 63.998181 28.659186 63.998182 63.998181-28.659186 63.998181-63.998182 63.998181z m319.990907 255.992726c-35.338996 0-63.998181-28.659186-63.998181-63.998182s28.659186-63.998181 63.998181-63.998181 63.998181 28.659186 63.998181 63.998181-28.659186 63.998181-63.998181 63.998182z"></path>
  </g>
</svg>