<svg viewBox="0 0 1024 1024" version="1.1" xmlns="http://www.w3.org/2000/svg">
  <g class="fore">
    <path d="M205.144064 204.8m-204.8 0a204.8 204.8 0 1 0 409.6 0 204.8 204.8 0 1 0-409.6 0Z"></path>
    <path d="M819.544064 204.8m-204.8 0a204.8 204.8 0 1 0 409.6 0 204.8 204.8 0 1 0-409.6 0Z"></path>
    <path d="M819.544064 460.8a204.8 204.8 0 0 0-204.8 181.248l-102.4 102.4-102.4-102.4A204.8 204.8 0 0 0 0.344064 665.6v358.4h409.6v-234.496l66.048 66.048a51.2 51.2 0 0 0 72.192 0l66.56-66.048V1024h409.6v-358.4a204.8 204.8 0 0 0-204.8-204.8z"></path>
  </g>
</svg>