<svg viewBox="0 0 1024 1024" version="1.1" xmlns="http://www.w3.org/2000/svg">
  <g class="fore">
    <path d="M512 0C229.257143 0 0 229.257143 0 512s229.257143 512 512 512 512-229.257143 512-512S794.742857 0 512 0z m6.171429 765.714286c-125.714286 0-198.171429-83.657143-198.171429-222.742857v-59.771429C320 343.085714 392.457143 258.285714 518.057143 258.285714c107.771429 0 185.942857 69.371429 185.942857 168.457143 0 2.971429-2.4 5.371429-5.371429 5.371429h-64.8c-4.8 0-8.685714-3.657143-9.142857-8.457143-4.571429-56.571429-45.714286-95.314286-106.285714-95.314286-74.628571 0-116.685714 55.428571-116.685714 154.857143v60.114286c0 97.942857 42.171429 152.685714 116.685714 152.685714 60.342857 0 101.371429-36.228571 106.285714-88.914286 0.457143-4.685714 4.342857-8.342857 9.142857-8.342857h64.914286c2.971429 0 5.371429 2.4 5.371429 5.371429 0 94.4-78.514286 161.6-185.942857 161.6z"></path>
  </g>
</svg>