<svg viewBox="0 0 1024 1024" version="1.1" xmlns="http://www.w3.org/2000/svg">
  <g class="fore">
    <path d="M753.784471 870.520471c0 34.334118-26.985412 62.162824-60.235295 62.223058h-542.117647c-33.310118 0-60.235294-27.888941-60.235294-62.223058v-559.585883c0-34.334118 26.925176-62.162824 60.235294-62.162823h542.117647c33.249882 0 60.235294 27.828706 60.235295 62.162823v559.585883z m-60.235295-683.91153h-542.117647c-66.56 0-120.470588 55.657412-120.470588 124.325647v559.585883c0 68.668235 53.910588 124.385882 120.470588 124.385882h542.117647c66.499765 0 120.470588-55.657412 120.470589-124.385882v-559.585883c0-68.668235-53.970824-124.325647-120.470589-124.325647"></path>
    <path d="M211.365647 808.056471h240.941177v-62.223059h-240.941177v62.223059z m0-124.385883h421.647059v-62.162823h-421.647059v62.162823z m0-124.325647h421.647059V497.121882h-421.647059v62.223059z m0-124.385882h421.647059V372.856471h-421.647059V434.898824z"></path>
    <path d="M875.098353 0.180706h-542.117647c-66.56 0-120.470588 55.657412-120.470588 124.325647h60.235294c0-34.334118 26.985412-62.162824 60.235294-62.162824h542.117647c33.249882 0 60.235294 27.828706 60.235294 62.162824v559.585882c0 34.334118-26.985412 62.162824-60.235294 62.223059v62.162824c66.56 0 120.470588-55.657412 120.470588-124.385883v-559.585882c0-68.668235-53.910588-124.325647-120.470588-124.325647"></path>
  </g>
</svg>