<svg viewBox="0 0 1024 1024" version="1.1" xmlns="http://www.w3.org/2000/svg">
  <g class="fore">
    <path d="M705.024 175.36l41.792 41.792 89.024-88.96c-15.744-2.624-33.472-0.256-53.632 6.528-26.048 8.704-52.608 23.808-77.184 40.64z m190.848 13.44l-88.704 88.704 41.472 41.472c16.832-24.512 31.872-50.944 40.576-76.928 6.72-19.968 9.152-37.568 6.656-53.184z m-99.648 198.4l-49.408-49.408-67.2 67.136 57.088 57.088 59.52-74.752z m-113.024 141.952l-63.936-63.936-87.872 87.808a429.12 429.12 0 0 1 123.84 11.2l27.968-35.072z m55.872 66.816c16.896 8.832 31.36 17.984 43.072 26.24 35.84 25.088 65.152 58.112 96 88.96l-81.28 13.44a83.712 83.712 0 0 0-6.784 1.92c-6.208 1.92-16.512 5.632-30.976 12.224-28.864 13.248-74.24 38.272-136.192 84.736-6.4 4.8-13.888 10.624-22.272 17.28-42.88 33.472-109.952 86.016-181.632 114.56-43.904 17.536-93.696 28.032-144.32 18.048-50.048-9.792-95.808-38.592-134.528-89.6-50.944-38.656-79.744-84.48-89.6-134.464-9.92-50.56 0.576-100.416 18.048-144.32 28.608-71.68 81.152-138.816 114.688-181.632 6.592-8.384 12.416-15.872 17.28-22.272C246.912 339.2 272 293.76 285.12 264.896c6.656-14.464 10.304-24.768 12.288-30.976 1.216-3.904 1.728-6.208 1.92-6.848l13.44-81.216c30.72 30.72 63.68 59.904 88.768 95.616 8.128 11.648 17.216 25.92 25.984 42.688l185.856-146.88c35.2-28.16 86.464-65.024 141.632-83.456 56.704-19.008 125.184-20.48 180.48 35.2 55.168 55.424 53.568 123.712 34.56 180.224-18.56 55.104-55.296 106.24-83.456 141.376l-0.128 0.192-147.456 185.152z m-102.4-368.32l-74.944 59.2 57.6 57.664 67.136-67.072-49.792-49.792zM558.976 404.864l-64.64-64.704-34.816 27.52c9.664 39.168 13.76 82.176 11.456 125.12l88-87.936z"></path>
  </g>
</svg>