<svg viewBox="0 0 1024 1024" version="1.1" xmlns="http://www.w3.org/2000/svg">
  <g class="fore">
    <path d="M923.648 234.2912L169.3696 92.5696c-49.152-9.216-96.8704 23.3472-106.0864 72.4992L48.128 245.76h905.6256c-9.0112-5.5296-19.2512-9.4208-30.1056-11.4688zM169.3696 57.7536l593.1008 111.4112L206.2336 3.4816c-41.5744-12.4928-85.8112 11.4688-98.304 53.0432l-4.096 13.7216c18.8416-11.8784 41.984-16.9984 65.536-12.4928zM1024 534.528v-162.2016c0-53.8624-44.032-97.8944-97.8944-97.8944H97.8944C44.032 274.432 0 318.464 0 372.3264V534.528h2.048c63.2832 0 114.688 51.4048 114.688 114.688s-51.4048 114.688-114.688 114.688H0v162.2016C0 979.968 44.032 1024 97.8944 1024h828.0064c53.8624 0 97.8944-44.032 97.8944-97.8944V763.904c-63.2832 0-114.688-51.4048-114.688-114.688 0.2048-63.2832 51.6096-114.688 114.8928-114.688z m-323.584 67.584c0 11.264-9.0112 20.2752-20.2752 20.2752h-83.5584c-11.264 0-20.2752 9.0112-20.2752 20.2752v25.8048c0 11.264 9.0112 20.2752 20.2752 20.2752h83.5584c11.264 0 20.2752 9.0112 20.2752 20.2752v4.3008c0 11.264-9.0112 20.2752-20.2752 20.2752h-83.5584c-11.264 0-20.2752 9.0112-20.2752 20.2752v63.6928c0 11.264-9.0112 20.2752-20.2752 20.2752h-45.2608c-11.264 0-20.2752-9.0112-20.2752-20.2752v-63.6928c0-11.264-9.0112-20.2752-20.2752-20.2752h-84.1728c-11.264 0-20.2752-9.0112-20.2752-20.2752v-4.3008c0-11.264 9.0112-20.2752 20.2752-20.2752h84.1728c11.264 0 20.2752-9.0112 20.2752-20.2752v-25.8048c0-11.264-9.0112-20.2752-20.2752-20.2752h-84.1728c-11.264 0-20.2752-9.0112-20.2752-20.2752v-4.3008c0-11.264 9.0112-20.2752 20.2752-20.2752h37.6832c16.384 0 26.0096-18.6368 16.5888-31.9488l-32.768-46.08c-9.6256-13.312 0-31.9488 16.5888-31.9488h36.0448c6.5536 0 12.6976 3.072 16.5888 8.3968l40.3456 56.5248c8.192 11.264 24.9856 11.264 32.9728 0l39.7312-56.32c3.8912-5.3248 10.0352-8.6016 16.5888-8.6016h35.84c16.5888 0 26.0096 18.6368 16.384 32.1536l-32.9728 45.8752c-9.6256 13.312 0 32.1536 16.384 32.1536h38.0928c11.264 0 20.2752 9.0112 20.2752 20.2752v4.096z"></path>
  </g>
</svg>