<svg viewBox="0 0 1024 1024" version="1.1" xmlns="http://www.w3.org/2000/svg">
  <g class="fore">
    <path d="M639.36064 614.4a30.08 30.08 0 0 1 29.888 30.272 30.08 30.08 0 0 1-29.888 30.208H541.31264v25.92a30.08 30.08 0 0 1-29.824 30.272 30.08 30.08 0 0 1-29.824-30.272v-25.92H383.61664a29.76 29.76 0 0 1-25.856-15.104 30.592 30.592 0 0 1 0-30.272 29.76 29.76 0 0 1 25.856-15.104h98.048V545.28H383.61664a30.08 30.08 0 0 1-29.824-30.208 30.08 30.08 0 0 1 29.824-30.272h85.76l-0.32-0.192-85.248-86.4a30.528 30.528 0 0 1 0-42.816 29.568 29.568 0 0 1 42.24 0l85.248 86.4 0.192 0.32 0.256-0.32 85.248-86.4a29.568 29.568 0 0 1 49.92 13.568 30.528 30.528 0 0 1-7.744 29.248l-85.248 86.4-0.32 0.192h85.76a30.08 30.08 0 0 1 29.888 30.272 30.08 30.08 0 0 1-29.888 30.208H541.31264V614.4H639.36064z m340.992-216h42.624v-216.32A85.824 85.824 0 0 0 937.66464 96H85.31264C38.40064 96 0.19264 134.464 0.00064 182.08v216.32h42.624c70.528 0 127.872 58.176 127.872 129.6 0 71.424-57.344 129.6-127.872 129.6H0.00064v216.32A85.824 85.824 0 0 0 85.31264 960h852.352c46.976 0 85.12-38.464 85.312-86.08v-216.32h-42.624c-70.464 0-127.872-58.176-127.872-129.6 0-71.424 57.408-129.6 127.872-129.6z"></path>
  </g>
</svg>