<svg viewBox="0 0 1024 1024" version="1.1" xmlns="http://www.w3.org/2000/svg">
  <g class="fore">
    <path d="M994.094545 390.353455c-13.498182-63.069091-40.541091-121.646545-78.848-175.709091l-20.270545-27.042909C816.128 92.974545 705.745455 34.397091 584.098909 14.126545c-29.300364-4.491636-60.834909-9.006545-92.392727-6.74909 542.952727 265.821091 299.636364 644.305455 299.636363 644.305454L475.950545 329.518545l119.389091-130.65309L512 122.274909 446.673455 180.829091l-121.646546-2.234182L77.218909 430.894545l150.923636 137.425455 92.369455-90.112 322.141091 313.134545c-270.336 173.474909-520.378182-121.646545-520.378182-121.646545L25.367273 755.293091l74.356363 87.877818-13.521454 18.013091c-33.792-4.514909-49.570909 11.264-49.570909 11.264-85.597091 83.362909 18.036364 128.418909 18.036363 128.418909 99.118545 22.528 94.603636-81.105455 94.603637-81.105454l18.036363-24.785455c376.203636 202.752 596.992 20.270545 596.992 20.270545l108.125091 101.376 146.432-146.432c-13.498182-15.755636-29.277091-31.534545-42.821818-47.313454-11.240727-11.264-20.247273-22.528-31.511273-33.792-11.264-11.264-24.785455-18.013091-13.521454-33.792 67.584-108.125091 90.112-241.035636 63.069091-364.939636z"></path>
  </g>
</svg>