<svg viewBox="0 0 1024 1024" version="1.1" xmlns="http://www.w3.org/2000/svg">
  <g class="fore">
    <path d="m763.075047,671.601526c3.978159,-7.351388 7.419936,-14.903269 10.191238,-22.655641l122.729646,-25.295458l128.004058,75.184651l-128.004058,-150.374075l-115.695741,27.185815c-1.113397,-7.131801 -2.755048,-14.144262 -4.868063,-21.027834l96.568885,-43.745533l75.219298,-119.121129l-0.085333,0c31.845586,-50.638652 1.202794,-147.614918 -70.47314,-220.01177c-46.161268,-46.66222 -98.48279,-71.991093 -139.881645,-72.129528l95.203552,223.911824l-161.804184,-96.284089c11.958857,41.072301 38.200887,85.572067 75.641902,123.350564c30.073904,30.38892 62.715934,51.722266 93.273393,62.964162l-23.092824,59.732415l-63.459553,34.947735c-30.724062,-44.065366 -83.183743,-78.597795 -147.057772,-95.897425c4.047238,-5.847695 6.477206,-13.299329 6.477206,-21.419272c0,-18.774681 -12.958476,-33.997783 -28.940189,-33.997783c-15.981714,0 -28.940189,15.223102 -28.940189,33.997783c0,4.181699 0.67454,8.162905 1.848889,11.862467c-14.295364,-1.718506 -28.95238,-2.649364 -43.910093,-2.649364c-14.957714,0 -29.614729,0.930858 -43.910093,2.649364c1.174349,-3.699562 1.848889,-7.685542 1.848889,-11.862467c0,-18.774681 -12.958476,-33.997783 -28.940189,-33.997783s-28.940189,15.223102 -28.940189,33.997783c0,8.124716 2.429968,15.571577 6.477206,21.419272c-63.878093,17.29963 -116.337773,51.836833 -147.065899,95.906973l-63.475807,-34.952509l-23.084697,-59.703773c30.549332,-11.237122 63.179172,-32.551374 93.236822,-62.911652c37.441014,-37.783271 63.683045,-82.330773 75.682537,-123.446036l-161.844819,96.284089l95.162917,-223.868862c-41.443554,0.190945 -93.683806,25.472082 -139.885709,72.182038c-71.675934,72.387304 -102.306535,169.425627 -70.420315,220.040411l75.142092,119.001788l96.585139,43.75508c-2.117079,6.883572 -3.754667,13.891259 -4.868063,21.027834l-115.716059,-27.185815l-128.004058,150.369302l128.004058,-75.184651l122.754027,25.300232c2.771301,7.752373 6.213079,15.29948 10.187174,22.650868l-132.941201,27.238325l-63.999997,122.176251l108.1539,-80.736381l127.869963,-13.008138l17.269841,22.95638l-53.288633,14.397264l-72.005076,84.579152l79.851679,75.041442c0.008127,0.014321 0.020317,0.033415 0.032508,0.047736c0,-0.004774 0.004063,-0.009547 0.004063,-0.014321l0.113778,0.109793l-0.052825,-0.253002c3.84,-8.105621 6.054603,-17.418971 6.054603,-27.352892c0,-19.848748 -8.748698,-37.267719 -21.942856,-47.316207l-0.056889,-0.26255l36.002538,-37.592325l71.468695,0l9.163174,12.1823c6.590984,8.764382 16.067047,13.781466 26.026666,13.781466l225.300308,0c9.955555,0 19.431618,-5.017084 26.022602,-13.781466l9.163174,-12.1823l72.846219,0l36.002538,37.592325l-0.056889,0.26255c-13.194158,10.048488 -21.942856,27.467459 -21.942856,47.316207c0,9.933921 2.214603,19.247271 6.054603,27.352892l-0.052825,0.253002l0.113778,-0.109793c0.004063,0.004774 0.004063,0.009547 0.004063,0.014321c0.01219,-0.014321 0.020317,-0.033415 0.032508,-0.047736l79.847616,-75.041442l-72.001013,-84.583926l-54.430474,-14.70755l17.135745,-22.774982l129.145899,13.137026l108.1539,80.736381l-63.999997,-122.176251l-132.933074,-27.233551z"></path>
  </g>
</svg>