<svg viewBox="0 0 1024 1024" version="1.1" xmlns="http://www.w3.org/2000/svg">
  <g class="fore">
    <path d="M512.48 166.398l-0.48-0.02-0.48 0.02c-7.14 0.12-163.6 3.38-248.59 63.248l170.88 468.596h156.378l170.88-468.596C676.08 169.778 519.622 166.518 512.48 166.398zM371.924 698.242l-146.158-395.328c-59.508 25.624-104.492 61.628-134.136 90.51-19.922 19.422-31.024 46.546-30.444 74.37 0.1 5.34 0.64 10.642 1.58 15.842l257.612 242.17 51.856-27.564h-0.31zM932.372 393.426c-29.644-28.884-74.63-64.888-134.136-90.51l-146.158 395.328 51.546 27.564 257.53-242.114 0.082-0.056v-0.02c0.94-5.2 1.48-10.482 1.58-15.822 0.578-27.824-10.522-54.948-30.444-74.37zM1000.16 587.25a352.326 352.326 0 0 0-19.722-39.304l-192.864 181.302c41.666 31.484 74.43 73.488 93.252 100.732 12.102 17.522 32.064 27.644 54.106 27.644 1.6 0 3.2-0.06 4.8-0.16 23.582-1.56 43.766-14.382 53.966-34.324 38.086-74.472 40.306-156.042 6.462-235.89zM43.564 547.944a352.674 352.674 0 0 0-19.722 39.304c-33.844 79.85-31.624 161.42 6.46 235.888 10.202 19.942 30.384 32.764 53.966 34.324 1.6 0.1 3.2 0.16 4.8 0.16 22.042 0 42.006-10.122 54.106-27.644 18.822-27.244 51.586-69.248 93.252-100.732l-192.862-181.3z"></path>
  </g>
</svg>