<svg viewBox="0 0 1024 1024" version="1.1" xmlns="http://www.w3.org/2000/svg">
  <g class="fore">
    <path d="M249.123446 310.8864a31.507692 31.507692 0 0 0 31.507692-31.507692v-94.523077a31.507692 31.507692 0 0 0-63.015384 0v94.523077a31.507692 31.507692 0 0 0 31.507692 31.507692zM610.445785 310.8864a31.507692 31.507692 0 0 0 31.507692-31.507692v-94.523077a31.507692 31.507692 0 0 0-63.015385 0v94.523077a31.507692 31.507692 0 0 0 31.507693 31.507692zM429.780677 310.8864a31.507692 31.507692 0 0 0 31.507692-31.507692v-189.046154a31.507692 31.507692 0 0 0-63.015384 0v189.046154a31.507692 31.507692 0 0 0 31.507692 31.507692zM873.684677 487.518523c-8.152615 0-16.187077 0.842831-24.119139 2.181908v-36.643446c0-56.398769-45.883077-102.281846-102.281846-102.281847H102.281846C45.883077 350.775138 0 396.658215 0 453.056985v195.584c0 174.536862 141.997292 316.534154 316.534154 316.534153h234.094277c119.642585 0 223.042954-70.679631 270.777107-172.457353a143.856246 143.856246 0 0 0 52.279139 9.877661c82.880985 0 150.315323-70.671754 150.315323-157.538461s-67.426462-157.538462-150.315323-157.538462z m0 252.061539c-10.972554 0-21.700923-2.221292-31.751877-6.474831 4.938831-21.511877 7.632738-43.874462 7.632738-66.8672V554.196677a80.832985 80.832985 0 0 1 24.119139-3.662769c48.135877 0 87.299938 42.401477 87.299938 94.523077s-39.156185 94.523077-87.299938 94.523077z"></path>
    </g>
  </svg>