<svg viewBox="0 0 1024 1024" version="1.1" xmlns="http://www.w3.org/2000/svg">
  <g class="fore">
    <path d="m703.966683,37.705162c-59.337678,-23.99298 -124.028697,-37.501759 -191.966681,-37.501759c-282.948157,0 -512.29056,229.145733 -512.29056,511.789356c0,282.684586 229.342403,511.803823 512.29056,511.803823c282.946944,0 512.29056,-229.120449 512.29056,-511.803823c0,-68.087125 -13.602789,-132.903965 -37.72658,-192.318507l-130.169366,118.503843l-16.011786,20.048161c3.70634,19.777147 4.598568,32.961907 4.598568,53.767705c0,183.701319 -149.098973,332.668875 -332.981396,332.668875c-183.907743,0 -333.007919,-148.967556 -333.007919,-332.668875c0,-183.727804 149.101389,-334.464815 333.007919,-332.680905c18.120576,0.1879 35.510487,0.566123 45.868726,2.430735l146.097955,-144.038627zm-55.280467,293.61327l-72.101296,71.735646c0.294196,0.134907 0.513633,0.29631 0.70293,0.431217l-37.755518,37.015137c-8.572582,-3.29438 -17.79624,-5.295099 -27.53233,-5.295099c-42.461389,0 -76.86384,34.367581 -76.86384,76.787428c0,42.446355 34.402451,76.787439 76.86384,76.787439c42.433665,0 76.805965,-34.341085 76.805965,-76.787439c0,-9.754261 -1.999061,-18.994191 -5.299083,-27.558386l84.30064,-84.218164l-0.05546,-0.026496l24.827923,-24.803644l150.589232,22.883616l181.121343,-180.917645l-189.423847,-27.099461l-88.465153,88.000379l-0.244757,-0.216809l89.521357,-89.378368l-28.722371,-188.454378l-181.123758,180.97185l22.854183,150.143179l0,0zm-136.686214,53.524387c7.978169,0 15.767028,0.973257 23.366603,2.350033l66.153541,-66.329723l-12.224665,-80.164934c-24.61089,-6.998307 -50.46608,-10.996131 -77.295479,-10.996131c-156.051078,0 -282.568361,126.393504 -282.568361,282.291908c0,155.899604 126.517283,282.250945 282.568361,282.250945c156.051078,0 282.543041,-126.351341 282.543041,-282.250945c0,-24.912043 -3.543577,-48.931531 -9.603466,-71.951254l-82.56804,-16.832081l-65.449409,65.439581c1.405849,7.565643 2.327014,15.320386 2.327014,23.343754c0,70.22155 -56.958821,127.123444 -127.247938,127.123444c-70.290319,0 -127.275674,-56.901894 -127.275674,-127.123444c-0.001202,-70.222762 56.984141,-127.151153 127.274472,-127.151153l0,0z"></path>
  </g>
</svg>