<svg viewBox="0 0 1024 1024" version="1.1" xmlns="http://www.w3.org/2000/svg">
  <g class="fore">
    <path d="M512 1024C231.113387 1024 3.413333 796.29312 3.413333 515.413333 3.413333 234.530133 231.113387 6.826667 512 6.826667s508.586667 227.703467 508.586667 508.586666c0 280.879787-227.703467 508.586667-508.586667 508.586667zM78.206293 523.547307h105.46176c-0.22528-5.000533-0.754347-9.905493-0.754346-14.96064 0-15.264427 1.40288-30.163627 3.413333-44.87168H78.206293v59.83232z m73.076054-272.725334l-29.917867 51.817814 97.733973 56.425813a328.82688 328.82688 0 0 1 32.064854-50.578773L151.282347 250.821973z m169.728-147.828053l-51.817814 29.914453 59.20768 102.5536c16.49664-11.1104 34.106027-20.65408 52.538027-28.672L321.010347 102.99392z m220.90752-43.1616h-59.835734V181.009067c9.867947-0.89088 19.817813-1.508693 29.917867-1.508694 10.100053 0 20.04992 0.617813 29.917867 1.508694V59.83232zM512 418.83648c-10.615467 0-20.650667 2.17088-30.1056 5.553493l-126.737067-102.56384-64.14336-20.476586 21.83168 62.784853L426.666667 482.146987c-2.607787 8.40704-4.416853 17.17248-4.416854 26.43968 0 49.565013 40.18176 89.7536 89.750187 89.7536s89.750187-40.185173 89.750187-89.7536-40.185173-89.750187-89.750187-89.750187z m190.98624-315.84256l-59.927893 103.799467c18.428587 8.01792 36.041387 17.5616 52.534613 28.672l59.214507-102.5536-51.821227-29.917867z m169.734827 147.828053l-99.88096 57.664854a328.772267 328.772267 0 0 1 32.06144 50.57536l97.733973-56.425814-29.914453-51.8144z m-35.048107 212.893014c2.010453 14.708053 3.413333 29.607253 3.413333 44.87168 0 5.051733-0.53248 9.960107-0.75776 14.96064h105.46176v-59.83232h-108.117333zM512 538.50112a29.917867 29.917867 0 1 1 0-59.825493 29.917867 29.917867 0 0 1 0 59.825493z"></path>
  </g>
</svg>