<svg viewBox="0 0 1024 1024" version="1.1" xmlns="http://www.w3.org/2000/svg">
  <g class="fore">
    <path d="M512 0c-282.784 0-512 71.648-512 160l0 128c0 88.352 229.216 160 512 160s512-71.648 512-160l0-128c0-88.352-229.216-160-512-160z" p-id="9296"></path><path d="M512 544c-282.784 0-512-71.648-512-160l0 192c0 88.352 229.216 160 512 160s512-71.648 512-160l0-192c0 88.352-229.216 160-512 160z" p-id="9297"></path><path d="M512 832c-282.784 0-512-71.648-512-160l0 192c0 88.352 229.216 160 512 160s512-71.648 512-160l0-192c0 88.352-229.216 160-512 160z"></path>
  </g>
</svg>