<svg viewBox="0 0 1024 1024" version="1.1" xmlns="http://www.w3.org/2000/svg">
  <g class="fore">
    <path d="M935.473 375.359a558.602 558.602 0 0 0-22.351-114.655l13.308 4.436c-35.66-81.385-90.086-163.623-153.556-199.282-8.701-5.118-35.147 4.948-26.616-12.113s-37.536-8.19-56.816-4.778c-26.275 4.266-30.028-29.175-75.071-35.83-25.593-3.582-32.247 18.427-44.702 13.309-23.545-9.384-20.816-27.64-57.669-9.384-18.427 9.042 11.602-26.105-49.138-4.607L457.744 0C349.23 41.63 318.69 76.266 288.15 79.337c-6.996 0-34.124 32.759-53.574 53.062-17.062 17.062-26.275 36.512-49.138 39.583l-17.062 70.636A136.494 136.494 0 0 0 119.41 339.7a66.711 66.711 0 0 1 4.436-52.892c-17.062 6.825-45.896 17.062-29.687 96.91 12.796 63.13-5.29 135.13 10.066 204.742 4.777 20.986 0 40.095 6.142 51.185 107.66 235.794 208.836 392.08 472.44 384.06l4.436-8.872c-28.152-6.825-55.11-17.062-111.584-30.711-18.597-4.436-23.033-34.124-40.265-44.19-9.384-5.46-28.323-4.095-37.195-9.896s4.266-21.668-19.962-14.332c-8.531 2.56-13.82-10.92-20.133-17.061s0-23.716-23.375-24.74-18.426-29.687-19.791-44.702c-12.114 1.536-1.195-1.535-13.308 4.436a63.64 63.64 0 0 1-23.887-31.735c-10.237-48.967-10.578-21.497-15.014-32.417a322.297 322.297 0 0 0-19.28-42.142l26.787 8.872h4.436l4.436-13.309-26.616-8.701h31.223c-7.678 13.99 2.047 5.29-13.479 8.872v13.308l22.35-8.872v-13.308c-20.644-10.237-28.663-13.308-49.137-22.01l9.043 8.872v4.436h-49.138c-22.01-14.843-13.99-31.734-17.915-53.062 17.062 0 9.213 6.655 17.062-13.137l-17.062 8.872 13.308-33.953-13.308 13.138c-29.176-38.73-16.209-97.764-11.943-152.02A180.684 180.684 0 0 1 211.2 372.97c8.872-10.067 5.119-25.251 5.46-37.195l31.223-26.445H265.8c7.678 17.061 4.777 5.46 0 22.01l8.872 4.435c7.166-8.701 6.142-5.971 8.872-22.01-10.066-10.578-6.995-9.895-26.616-13.308A119.432 119.432 0 0 1 368.51 243.13l4.436-13.308-17.915 9.043-4.436-13.138a109.536 109.536 0 0 1 76.095-27.128c6.313 0 6.996-17.062 12.797-19.45 161.574-60.57 309.33 9.383 371.093 147.413a324.173 324.173 0 0 1 8.19 34.123c17.061 56.987-7.167 121.48 9.725 155.604-7.849 36-36.683 13.82-40.266 30.881-8.531 41.29-14.844 59.717-40.778 78.826a196.38 196.38 0 0 1-30.711 22.35 84.285 84.285 0 0 0 22.35-39.753c-106.294 111.584-262.58 63.981-290.049-105.954a101.176 101.176 0 0 1 35.147-93.157c92.987-87.527 150.144-52.38 205.765-20.474l-8.872-30.711c-32.93-24.398-17.062-19.792-9.043-57.328v-4.436l-17.915-13.137c2.56 10.066 1.024 5.289 9.043 17.061-4.436 16.039 0 9.043-8.872 17.062-15.014 9.725-23.716 7.337-44.702 4.436l4.436-13.308-13.308-13.308c0 11.773-4.095 2.73 0 17.062-126.086 9.896-218.05 80.02-178.636 260.191a220.608 220.608 0 0 0 8.872 44.19l-8.872 8.702-4.436-26.446h-13.48l-4.435 13.308c-12.626-25.763-0.853 10.75 40.265 52.892a149.29 149.29 0 0 0 12.797 12.625c47.773 34.124 113.29 81.385 201.328 49.138h9.043v-4.436l-102.37-13.308-4.436-8.701c106.806 24.74 176.93-8.531 236.646-48.456 13.138-17.062 11.431-24.057 22.18-9.043 19.28-17.061 3.925-26.786 13.48-44.019 6.483-11.772 32.587-17.062 44.7-35.318l40.096-136.494h-17.062c3.071-14.332 22.522-34.123-4.436-48.455-2.559-1.536 9.043-1.365 8.872-4.266a145.537 145.537 0 0 0-22.18-66.37c33.1 21.669 36.342 68.247 53.574 105.783v8.872h4.436V375.36zM453.308 595.455l-9.555-26.446 62.446 57.328zM146.196 211.736l-23.204-4.436v39.754c16.72-10.578 18.939-10.407 22.35-35.318z m574.981 176.419a57.498 57.498 0 0 0-17.062 44.19l13.48 8.701a37.877 37.877 0 0 0 4.435-52.891zM868.42 555.872c26.275-11.602 54.598-58.01 35.83-97.081l-35.83 96.91z m-174.03-79.508c-15.697 11.773-19.791 13.308-22.35 39.754l13.307 8.872 17.915-8.872a60.228 60.228 0 0 0 4.436-48.455c-8.36 13.478-2.559 20.644-13.308 8.701z m-67.053 79.508c15.868-10.92 11.944-14.844 17.915-22.18v-4.778a292.097 292.097 0 0 1-62.446 0c-13.137-13.99-13.308-29.346-31.223-39.583 17.062 35.147 3.242 38.218 31.223 61.764a158.162 158.162 0 0 0 40.095 4.436c1.536 0-6.824-1.024 4.436 0zM207.79 520.554H194.31l-8.872 8.702c9.555 10.237 5.46 7.166 13.308-4.436L212.225 547l4.436-17.062-8.872-8.701z m17.062 57.328l4.436-8.873c-10.067-8.701 0-3.583-13.308 0l-13.309-17.061 4.436 17.061v8.873h17.062z"></path>
  </g>
</svg>