<svg viewBox="0 0 1024 1024" version="1.1" xmlns="http://www.w3.org/2000/svg">
  <g class="fore">
    <path d="M709.469091 209.454545H930.909091a34.909091 34.909091 0 0 1 0 69.818182h-81.454546v607.185455c0 56.366545-44.311273 102.632727-99.746909 102.632727H274.292364c-55.435636 0-99.746909-46.266182-99.746909-102.632727V279.272727H93.090909a34.909091 34.909091 0 0 1 0-69.818182h244.712727a186.181818 186.181818 0 0 1 371.665455 0z m-70.050909 0a116.363636 116.363636 0 0 0-231.563637 0h231.563637z m140.218182 69.818182h-535.272728v607.185455c0 18.455273 13.730909 32.814545 29.928728 32.814545h475.415272c16.174545 0 29.928727-14.359273 29.928728-32.814545V279.272727z m-418.909091 147.2a34.909091 34.909091 0 0 1 69.818182 0v338.897455a34.909091 34.909091 0 0 1-69.818182 0V426.472727z m232.727272 0a34.909091 34.909091 0 0 1 69.818182 0v338.897455a34.909091 34.909091 0 0 1-69.818182 0V426.472727z" />
  </g>
</svg>