<svg viewBox="0 0 1024 1024" version="1.1" xmlns="http://www.w3.org/2000/svg">
  <g class="fore">
    <path d="M883.232888 550.301058L767.763382 41.101683C762.798286 19.206497 738.750821 0 716.299279 0H307.705154c-22.451542 0-46.501224 19.206497-51.46632 41.101683L140.767112 550.301058c-1.999338 8.819694-0.600688 16.805962 3.934395 22.487007 4.537299 5.683261 12.015975 8.810828 21.059542 8.810828h114.866601v86.685251c-14.520688 7.879873-24.382166 23.25837-24.382166 40.939874 0 25.707669 20.840102 46.547772 46.547772 46.547772s46.547772-20.840102 46.547772-46.547772c0-17.68372-9.861478-33.062217-24.382166-40.939874v-86.685251h533.275656c9.041351 0 16.522242-3.129784 21.059542-8.810828 4.541733-5.683261 5.938166-13.667312 3.938828-22.487007z"></path>
    <path d="M706.495432 979.668789h-172.330935V625.930105h-44.331211v353.736467h-172.330934c-12.242064 0-22.165606 9.923542-22.165606 22.165606s9.923542 22.165606 22.165606 22.165605h388.99308c12.239847 0 22.165606-9.923542 22.165605-22.165605 0-12.239847-9.925758-22.163389-22.165605-22.163389z"></path>
  </g>
</svg>