<svg viewBox="0 0 1024 1024" version="1.1" xmlns="http://www.w3.org/2000/svg">
  <g class="fore">
    <path d="M966.144 71.68H75.776C37.888 71.68 0 100.352 0 137.728v550.4h1024V137.728c0-37.376-22.016-66.048-57.856-66.048zM0 754.176c0 37.376 37.888 66.048 75.776 66.048h414.208v88.064H275.968c-13.312 0-22.016 8.704-22.016 22.016s8.704 22.016 22.016 22.016h489.984c13.312 0 22.016-8.704 22.016-22.016s-8.704-22.016-22.016-22.016h-231.424v-88.064h431.616c37.888 0 57.856-28.672 57.856-66.048V732.16H0v22.016z"></path>
  </g>
</svg>