<svg viewBox="0 0 1024 1024" version="1.1" xmlns="http://www.w3.org/2000/svg">
  <g class="fore">
    <path d="M46.112 826.832h928.596a44.522 44.522 0 0 0 0-89.043H46.112a44.522 44.522 0 0 0 0 89.043z m931.776 108.125H49.292a44.522 44.522 0 0 0 0 89.043h928.596a44.522 44.522 0 0 0 0-89.043zM52.472 655.106h915.876a50.882 50.882 0 0 0 50.882-50.882V50.882A50.882 50.882 0 0 0 968.348 0H52.472A50.882 50.882 0 0 0 1.59 50.882v553.342a50.882 50.882 0 0 0 50.882 50.882zM246.46 289.39h286.21a44.522 44.522 0 0 1 0 89.044H246.46a44.522 44.522 0 0 1 0-89.044z"></path>
  </g>
</svg>