<svg viewBox="0 0 1024 1024" version="1.1" xmlns="http://www.w3.org/2000/svg">
  <g class="fore">
    <path d="m113.388887,0l797.222216,0c62.638888,0 113.888887,51.199997 113.888887,113.777772l0,796.444405c0,62.577774 -51.25,113.777772 -113.888887,113.777772l-797.222216,0c-62.638888,0 -113.888887,-51.199997 -113.888887,-113.777772l0,-796.444405c0,-62.577774 51.25,-113.777772 113.888887,-113.777772m398.611108,398.222203c-62.638888,0 -113.888887,51.199997 -113.888887,113.777772c0,62.577774 51.25,113.777772 113.888887,113.777772c62.638888,0 113.888887,-51.199997 113.888887,-113.777772c0,-62.577774 -51.25,-113.777772 -113.888887,-113.777772z"></path>
  </g>
</svg>