<svg viewBox="0 0 1024 1024" version="1.1" xmlns="http://www.w3.org/2000/svg">
  <g class="fore">
    <path d="m113.38888,0l797.222161,0c62.638884,0 113.88888,51.200002 113.88888,113.777781l0,796.444472c0,62.577779 -51.249996,113.777781 -113.88888,113.777781l-797.222161,0c-62.638884,0 -113.88888,-51.200002 -113.88888,-113.777781l0,-796.444472c0,-62.577779 51.249996,-113.777781 113.88888,-113.777781m398.61108,398.222236c-62.638884,0 -113.88888,51.200002 -113.88888,113.777781c0,62.577779 51.249996,113.777781 113.88888,113.777781c62.638884,0 113.88888,-51.200002 113.88888,-113.777781c0,-62.577779 -51.249996,-113.777781 -113.88888,-113.777781m-284.722199,-284.444455c-62.638885,0 -113.888881,51.200002 -113.888881,113.777783c0,62.577779 51.249996,113.777781 113.888881,113.777781c62.638884,0 113.88888,-51.200002 113.88888,-113.777781c0,-62.577781 -51.249996,-113.777783 -113.88888,-113.777783m569.444399,568.888909c-62.638884,0 -113.88888,51.200002 -113.88888,113.777781c0,62.577781 51.249996,113.777783 113.88888,113.777783c62.638885,0 113.888881,-51.200002 113.888881,-113.777783c0,-62.577779 -51.249996,-113.777781 -113.888881,-113.777781z"></path>
  </g>
</svg>