<svg viewBox="0 0 1024 1024" version="1.1" xmlns="http://www.w3.org/2000/svg">
  <g class="fore">
    <path d="m113.777785,-0.5l796.444497,0c62.577781,0 113.777785,51.250002 113.777785,113.888892l0,797.22225c0,62.638891 -51.200003,113.888892 -113.777785,113.888892l-796.444497,0c-62.577781,0 -113.777785,-51.250002 -113.777785,-113.888892l0,-797.22225c0,-62.638891 51.200003,-113.888892 113.777785,-113.888892m113.777786,113.888892c-62.577783,0 -113.777786,51.250002 -113.777786,113.888894c0,62.638891 51.200003,113.888892 113.777786,113.888892c62.577781,0 113.777785,-51.250002 113.777785,-113.888892c0,-62.638892 -51.200003,-113.888894 -113.777785,-113.888894m568.888925,569.444464c-62.577781,0 -113.777785,51.250002 -113.777785,113.888892c0,62.638892 51.200003,113.888894 113.777785,113.888894c62.577783,0 113.777786,-51.250002 113.777786,-113.888894c0,-62.638891 -51.200003,-113.888892 -113.777786,-113.888892m0,-284.722231c-62.577781,0 -113.777785,51.250002 -113.777785,113.888892c0,62.638891 51.200003,113.888892 113.777785,113.888892c62.577783,0 113.777786,-51.250002 113.777786,-113.888892c0,-62.638891 -51.200003,-113.888892 -113.777786,-113.888892m0,-284.722233c-62.577781,0 -113.777785,51.250002 -113.777785,113.888894c0,62.638891 51.200003,113.888892 113.777785,113.888892c62.577783,0 113.777786,-51.250002 113.777786,-113.888892c0,-62.638892 -51.200003,-113.888894 -113.777786,-113.888894m-568.888925,284.722233c-62.577783,0 -113.777786,51.250002 -113.777786,113.888892c0,62.638891 51.200003,113.888892 113.777786,113.888892c62.577781,0 113.777785,-51.250002 113.777785,-113.888892c0,-62.638891 -51.200003,-113.888892 -113.777785,-113.888892m0,284.722231c-62.577783,0 -113.777786,51.250002 -113.777786,113.888892c0,62.638892 51.200003,113.888894 113.777786,113.888894c62.577781,0 113.777785,-51.250002 113.777785,-113.888894c0,-62.638891 -51.200003,-113.888892 -113.777785,-113.888892z"></path>
  </g>
</svg>