<svg viewBox="0 0 1024 1024" version="1.1" xmlns="http://www.w3.org/2000/svg">
  <g class="fore">
    <path d="m113.388887,0.499969l797.222216,0c62.638888,0 113.888887,51.150004 113.888887,113.666675l0,795.666728c0,62.516671 -51.25,113.666675 -113.888887,113.666675l-797.222216,0c-62.638888,0 -113.888887,-51.150004 -113.888887,-113.666675l0,-795.666728c0,-62.516671 51.25,-113.666675 113.888887,-113.666675m113.888889,113.666675c-62.638889,0 -113.888889,51.150004 -113.888889,113.666676c0,62.516671 51.25,113.666675 113.888889,113.666675c62.638888,0 113.888887,-51.150004 113.888887,-113.666675c0,-62.516672 -51.25,-113.666676 -113.888887,-113.666676m569.444439,568.333377c-62.638888,0 -113.888887,51.150004 -113.888887,113.666675c0,62.516672 51.25,113.666676 113.888887,113.666676c62.638889,0 113.888889,-51.150004 113.888889,-113.666676c0,-62.516671 -51.25,-113.666675 -113.888889,-113.666675m0,-568.333377c-62.638888,0 -113.888887,51.150004 -113.888887,113.666676c0,62.516671 51.25,113.666675 113.888887,113.666675c62.638889,0 113.888889,-51.150004 113.888889,-113.666675c0,-62.516672 -51.25,-113.666676 -113.888889,-113.666676m-569.444439,568.333377c-62.638889,0 -113.888889,51.150004 -113.888889,113.666675c0,62.516672 51.25,113.666676 113.888889,113.666676c62.638888,0 113.888887,-51.150004 113.888887,-113.666676c0,-62.516671 -51.25,-113.666675 -113.888887,-113.666675z"></path>
  </g>
</svg>