<svg viewBox="0 0 1024 1024" version="1.1" xmlns="http://www.w3.org/2000/svg">
  <g class="fore">
    <path d="m113.388885,0l797.222199,0c62.638887,0 113.888885,51.2 113.888885,113.777777l0,796.444446c0,62.577777 -51.249998,113.777777 -113.888885,113.777777l-797.222199,0c-62.638887,0 -113.888885,-51.2 -113.888885,-113.777777l0,-796.444446c0,-62.577777 51.249998,-113.777777 113.888885,-113.777777m113.888886,113.777777c-62.638888,0 -113.888886,51.2 -113.888886,113.777779c0,62.577777 51.249998,113.777777 113.888886,113.777777c62.638887,0 113.888885,-51.2 113.888885,-113.777777c0,-62.577779 -51.249998,-113.777779 -113.888885,-113.777779m569.444427,568.888889c-62.638887,0 -113.888885,51.2 -113.888885,113.777777c0,62.577779 51.249998,113.777779 113.888885,113.777779c62.638888,0 113.888886,-51.2 113.888886,-113.777779c0,-62.577777 -51.249998,-113.777777 -113.888886,-113.777777m0,-568.888889c-62.638887,0 -113.888885,51.2 -113.888885,113.777779c0,62.577777 51.249998,113.777777 113.888885,113.777777c62.638888,0 113.888886,-51.2 113.888886,-113.777777c0,-62.577779 -51.249998,-113.777779 -113.888886,-113.777779m-284.722213,284.444445c-62.638887,0 -113.888885,51.2 -113.888885,113.777777c0,62.577777 51.249998,113.777777 113.888885,113.777777c62.638887,0 113.888885,-51.2 113.888885,-113.777777c0,-62.577777 -51.249998,-113.777777 -113.888885,-113.777777m-284.722213,284.444444c-62.638888,0 -113.888886,51.2 -113.888886,113.777777c0,62.577779 51.249998,113.777779 113.888886,113.777779c62.638887,0 113.888885,-51.2 113.888885,-113.777779c0,-62.577777 -51.249998,-113.777777 -113.888885,-113.777777z"></path>
  </g>
</svg>