<svg viewBox="0 0 1024 1024" version="1.1" xmlns="http://www.w3.org/2000/svg">
  <g class="fore">
    <path d="m113.777773,-0.5l796.444413,0c62.577775,0 113.777773,51.250001 113.777773,113.88889l0,797.222234c0,62.638889 -51.199998,113.88889 -113.777773,113.88889l-796.444413,0c-62.577775,0 -113.777773,-51.250001 -113.777773,-113.88889l0,-797.222234c0,-62.638889 51.199998,-113.88889 113.777773,-113.88889m113.777774,113.88889c-62.577776,0 -113.777774,51.250001 -113.777774,113.888891c0,62.638889 51.199998,113.88889 113.777774,113.88889c62.577775,0 113.777773,-51.250001 113.777773,-113.88889c0,-62.638891 -51.199998,-113.888891 -113.777773,-113.888891m568.888865,569.444453c-62.577775,0 -113.777773,51.250001 -113.777773,113.88889c0,62.638891 51.199998,113.888891 113.777773,113.888891c62.577776,0 113.777774,-51.250001 113.777774,-113.888891c0,-62.638889 -51.199998,-113.88889 -113.777774,-113.88889z"></path>
  </g>
</svg>