<svg viewBox="0 0 1024 1024" version="1.1" xmlns="http://www.w3.org/2000/svg">
  <g class="fore">
    <path d="M511.232 385.408a126.528 126.528 0 1 0 0 252.992 126.592 126.592 0 0 0 126.656-126.464 126.72 126.72 0 0 0-126.656-126.528z"></path>
    <path d="M1021.312 509.312C1021.312 225.024 792.64 0 510.656 0 228.672 0 0 225.024 0 509.312 0 793.6 228.608 1024 510.656 1024c292.096 0 510.656-236.16 510.656-514.688z m-236.608-324.288l55.616 55.616-97.152 97.152-55.616-55.616 97.152-97.152zM232.512 844.352l-55.552-55.616 97.152-97.152 55.552 55.616-97.152 97.152z m80.128-333.312C312.64 400 401.92 309.952 512 309.952c110.016 0 199.36 89.984 199.36 201.088 0 110.912-89.344 200.96-199.36 200.96-110.144 0-199.36-89.984-199.36-200.96z"></path>
  </g>
</svg>