<svg viewBox="0 0 1024 1024" version="1.1" xmlns="http://www.w3.org/2000/svg">
  <g class="fore">
    <path d="m510.167053,256.391295a252.946554,253.194557 0 0 0 -252.496356,252.937049a252.946554,253.194557 0 0 0 252.496356,253.065803a252.946554,253.194557 0 0 0 252.496356,-253.065803a252.946554,253.194557 0 0 0 -252.496356,-252.937049z"></path>
    <path d="m511.967842,-0.343994c-282.916829,0 -512.195869,229.310707 -512.195869,512.247416a511.938614,512.440547 0 0 0 512.195869,512.440547c282.788201,0 512.260183,-229.310707 512.260183,-512.440547c0,-282.872332 -229.471982,-512.247416 -512.260183,-512.247416zm-1.800789,841.020516a331.216565,331.541309 0 0 1 -330.766368,-331.348178a331.216565,331.541309 0 0 1 330.766368,-331.283801a331.216565,331.541309 0 0 1 330.766368,331.283801a331.345193,331.670063 0 0 1 -330.766368,331.348178z"></path>
  </g>
</svg>