<svg viewBox="0 0 1024 1024" version="1.1" xmlns="http://www.w3.org/2000/svg">
  <g class="fore">
    <path d="M992 96H576V75.9c0-40.3-36.9-70.6-76.4-62.8l-448 88.7C21.6 107.7 0 134 0 164.6v694.7c0 30.6 21.7 57 51.8 62.8l448 87.1c39.5 7.7 76.2-22.6 76.2-62.8V928h416c17.7 0 32-14.3 32-32V128c0-17.7-14.3-32-32-32zM107.4 385.4l31.7-4.4c4.4-0.6 8.4 2.4 9 6.8l31.4 218.1c1.5 10.2 2.5 23 3.1 38.5l1 0.1c0.5-12 2-25.1 4.5-39.2L231 373.6c0.6-3.4 3.3-6 6.8-6.5l44.7-6.3c4.3-0.6 8.2 2.3 9 6.5L337 615.6c2 10.5 3.5 24.2 4.6 41.1l0.9 0.1c0.5-14.4 1.9-28.4 4.3-42.1l42.7-263.1c0.6-3.5 3.3-6.2 6.8-6.6l53.1-7.4c5.5-0.8 10.1 4.2 8.9 9.6l-81.8 388.4c-0.9 4.1-4.8 6.9-8.9 6.3l-55.2-7.7c-3.4-0.5-6.1-3.1-6.8-6.5l-44.1-237.4c-2.3-12.7-3.7-25.9-4.1-39.8h-0.7c-1.1 16.3-2.6 29.6-4.6 40.1L211 712.1c-0.8 4.2-4.7 7.1-9 6.5l-42.1-5.9c-3.5-0.5-6.2-3.1-6.8-6.6l-52.5-311.4c-0.7-4.5 2.3-8.7 6.8-9.3zM960 856c0 4.4-3.6 8-8 8H576v-88c0-4.4 3.6-8 8-8h304c4.4 0 8-3.6 8-8v-48c0-4.4-3.6-8-8-8H584c-4.4 0-8-3.6-8-8v-32c0-4.4 3.6-8 8-8h304c4.4 0 8-3.6 8-8v-48c0-4.4-3.6-8-8-8H584c-4.4 0-8-3.6-8-8v-32c0-4.4 3.6-8 8-8h304c4.4 0 8-3.6 8-8v-48c0-4.4-3.6-8-8-8H584c-4.4 0-8-3.6-8-8v-32c0-4.4 3.6-8 8-8h304c4.4 0 8-3.6 8-8v-48c0-4.4-3.6-8-8-8H584c-4.4 0-8-3.6-8-8v-32c0-4.4 3.6-8 8-8h304c4.4 0 8-3.6 8-8v-48c0-4.4-3.6-8-8-8H584c-4.4 0-8-3.6-8-8v-88h376c4.4 0 8 3.6 8 8v688z"></path>
  </g>
</svg>