<svg viewBox="0 0 1024 1024" version="1.1" xmlns="http://www.w3.org/2000/svg">
  <g class="fore">
    <path d="M992 192h-128l-14.32-28.62A64 64 0 0 0 792.44 128H685.2l-54.56-54.56C610.46 53.28 576 67.56 576 96.06v299.68l256 91.42V416h64c70.7 0 128-57.3 128-128v-64c0-17.68-14.32-32-32-32z m-224 96c-17.68 0-32-14.32-32-32s14.32-32 32-32 32 14.32 32 32-14.32 32-32 32zM192 448c-35.28 0-64-28.72-64-64 0-35.34-28.66-64-64-64S0 348.66 0 384c0 83.32 53.66 153.7 128 180.2V992c0 17.68 14.32 32 32 32h128c17.68 0 32-14.32 32-32V768h320v224c0 17.68 14.32 32 32 32h128c17.68 0 32-14.32 32-32V555.1L532.1 448H192z"></path>
  </g>
</svg>