<svg viewBox="0 0 1024 1024" version="1.1" xmlns="http://www.w3.org/2000/svg">
  <g class="fore">
    <path d="m1000.970895,358.56619q23.367785,75.841795 23.367785,154.017183q0,106.178513 -40.309429,198.938862t-109.828588,162.184761t-162.990299,109.678903t-199.79456,40.254491t-199.210365,-40.254491t-162.406104,-109.678903t-109.828588,-162.184761t-40.309429,-198.938862t40.309429,-199.52226t109.828588,-162.76816t162.406104,-109.678903t199.210365,-40.254491q72.440133,0 138.454125,19.252148t123.265065,53.089256q-19.862617,24.502734 -31.546509,54.839452t-11.683892,65.340623q0,38.504296 14.604865,72.341404t39.725234,59.506639t59.587851,40.254491t73.024327,14.584961q23.367785,0 43.814596,-5.833984t40.309429,-15.168359zm-675.32898,-205.356244q-15.18906,2.333594 -23.951979,15.168359t-6.426141,28.003124t15.18906,23.335937t28.041342,5.833984l71.271744,-12.834765q15.18906,-2.333594 23.951979,-14.584961t6.426141,-27.419726t-14.604865,-23.335937t-27.457147,-5.833984l-72.440133,11.667968zm-126.186038,331.370304q12.852282,-9.334375 15.18906,-23.919335t-7.010335,-27.419726t-23.367785,-15.168359t-26.872953,7.000781l-59.587851,42.004686q-12.852282,9.334375 -15.773255,23.335937t6.426141,26.836327t23.951979,15.751757t27.457147,-6.417383l59.587851,-42.004686zm93.471139,26.836327q0,45.505077 16.941644,85.759568t46.73557,70.007811t70.103354,46.671874t85.876609,16.918554t85.292414,-16.918554t69.51916,-46.671874t46.73557,-70.007811t16.941644,-85.759568t-16.941644,-85.17617t-46.73557,-69.424412t-69.51916,-46.671874t-85.292414,-16.918554t-85.876609,16.918554t-70.103354,46.671874t-46.73557,69.424412t-16.941644,85.17617zm488.386702,348.872256q14.020671,-5.833984 19.862617,-19.835546t0,-28.003124t-19.862617,-19.835546t-28.041342,0l-67.766576,28.003124q-14.020671,5.833984 -19.862617,19.835546t0,28.003124t19.862617,19.835546t28.041342,0l67.766576,-28.003124zm165.911272,-259.028899q5.841946,-14.001562 0,-28.003124t-19.862617,-19.835546l-67.766576,-28.003124q-14.020671,-5.833984 -28.041342,0.583398t-19.862617,20.418945t0.584195,27.419726t20.446812,19.252148l66.598187,28.003124q14.020671,5.833984 28.041342,0t19.862617,-19.835546z"></path>
  </g>
</svg>