<svg viewBox="0 0 1024 1024" version="1.1" xmlns="http://www.w3.org/2000/svg">
  <g class="fore">
    <path d="m924.58612,300.5203l42.52232,0l0,-56.86378l-42.4654,0l-0.05692,56.86378zm0,454.91021l42.52232,0l0,-56.86378l-42.4654,0l-0.05692,56.86378zm-883.17787,0l56.92413,0l0,-56.86378l-56.92413,0l0,56.86378zm0,-454.91021l56.92413,0l0,-56.86378l-56.92413,0l0,56.86378z"></path>
    <path d="m938.76023,-0.03497a85.38619,85.29567 0 0 1 85.38619,85.29567l0,906.4086c0,15.75127 -21.85887,32.35549 -37.56993,32.35549s-40.70075,-16.60422 -40.70075,-32.29863l0,-889.06515a28.46206,28.43189 0 0 0 -28.46206,-28.43189l-819.13822,0a28.46206,28.43189 0 0 0 -28.46206,28.43189l0,889.06515c0,15.6944 -20.43576,28.43189 -36.14682,28.43189s-33.81293,-12.73749 -33.81293,-28.43189l0,-906.46547a85.38619,85.29567 0 0 1 85.38619,-85.29567l853.57732,0l-0.05692,0z"></path>
    <path d="m155.25651,101.12569a56.92413,56.86378 0 0 1 8.70939,0.68237l243.17988,37.64382a56.92413,56.86378 0 0 1 48.21474,56.23828l0,660.47277a56.92413,56.86378 0 0 1 -33.30062,51.74604l-243.17988,110.94123a56.92413,56.86378 0 0 1 -80.54764,-51.74604l0,-809.17154a56.92413,56.86378 0 0 1 56.92413,-56.86378l0,0.05686zm234.41357,352.21423a28.46206,28.43189 0 0 0 -28.46206,28.43189l0,113.72755a28.46206,28.43189 0 0 0 56.92413,0l0,-113.72755a28.46206,28.43189 0 0 0 -28.46206,-28.43189zm477.99192,-352.21423a56.92413,56.86378 0 0 0 -8.65247,0.68237l-243.23681,37.64382a56.92413,56.86378 0 0 0 -48.10089,56.29514l0,660.47277a56.92413,56.86378 0 0 0 33.24369,51.74604l243.23681,110.94123a56.92413,56.86378 0 0 0 80.54764,-51.74604l0,-809.22841a56.92413,56.86378 0 0 0 -56.92413,-56.86378l-0.11385,0.05686zm-234.29972,352.21423a28.46206,28.43189 0 0 1 28.46206,28.43189l0,113.72755a28.46206,28.43189 0 0 1 -56.92413,0l0,-113.72755a28.46206,28.43189 0 0 1 28.46206,-28.43189z"></path>
  </g>
</svg>