<svg viewBox="0 0 1024 1024" version="1.1" xmlns="http://www.w3.org/2000/svg">
  <g class="fore">
    <path d="m1023.98215,144.60392c0,-79.85272 -64.73347,-144.58619 -144.58617,-144.58619l-734.792,0c-79.8527,0 -144.58617,64.73348 -144.58617,144.58619l0,734.79213c0,79.85422 64.73347,144.58619 144.58617,144.58619l734.792,0c79.8527,0 144.58617,-64.73197 144.58617,-144.58619l0,-734.79213zm-175.66544,302.01098c-66.06221,0.73869 -127.62019,-19.23463 -181.67109,-56.22497l0,259.6696c0,115.4092 -78.9984,214.54609 -190.7081,240.43798c-152.40254,34.76975 -281.41603,-75.45957 -297.68836,-207.14262c-17.01553,-131.68604 66.96907,-247.09676 195.6943,-272.99014c25.15319,-5.17688 62.98581,-5.17688 82.50419,-0.7387l0,139.08201c-6.00565,-1.4759 -11.62996,-2.95778 -17.54703,-3.69648c-50.30788,-8.87937 -99.03176,16.27382 -119.00658,62.14203c-19.97331,45.87121 -6.60471,99.13389 34.08361,130.20865c34.02954,26.6321 71.78711,30.32857 110.25633,12.57285c38.47073,-17.01252 59.1452,-48.0843 63.58188,-90.25302c0.74019,-5.91558 0.69965,-12.57585 0.69967,-19.23462l0,-499.37038c0,-14.05625 0.10959,-13.43916 14.16584,-13.43916l110.23081,0c8.13916,0 11.09995,1.1681 11.84014,10.79067c5.91407,85.81633 71.06943,158.90218 154.66666,170.00063c8.87786,1.47889 18.39082,2.06445 28.90073,2.80314l-0.00301,135.38253z"></path>
  </g>
</svg>