<svg viewBox="0 0 1024 1024" version="1.1" xmlns="http://www.w3.org/2000/svg">
  <g class="fore">
    <path d="M576.009025 334.386174v-56.197676c-56.397668-72.596998-94.196105-158.593443-108.195527-250.389647-4.199826-26.998884-37.998429-37.598445-55.597701-16.599314-42.198255 49.797941-75.396883 108.195526-97.795956 172.992847 68.397172 76.596833 159.993385 129.194658 261.589184 150.19379zM799.999763 127.994708c-88.396345 0-159.993385 71.797031-159.993384 160.193376v118.795088C431.215012 394.583685 254.022338 265.989002 174.025646 83.596543c-10.999545-24.998966-46.398082-26.398908-57.997602-1.799925C82.829417 151.993715 64.030194 230.390474 64.030194 313.18705c0 141.594145 68.19718 273.788679 170.192963 371.784628 26.398908 25.39895 52.197842 46.398082 77.796783 65.597288l-287.788101 71.997023C2.832724 827.965766-6.766879 852.76474 5.232625 871.363971 40.031186 925.161747 126.02763 1016.357976 311.619957 1023.957662c15.999338 0.599975 31.998677-5.199785 44.198172-15.799347l130.394609-112.195361H640.006379c176.79269 0 319.986769-142.994088 319.986769-319.786778V255.989415l63.997354-127.994707H799.999763z m0 192.192053c-17.599272 0-31.998677-14.399405-31.998677-31.998677s14.399405-31.998677 31.998677-31.998677 31.998677 14.399405 31.998677 31.998677-14.399405 31.998677-31.998677 31.998677z"></path>
  </g>
</svg>