<svg viewBox="0 0 1024 1024" version="1.1" xmlns="http://www.w3.org/2000/svg">
  <g class="fore">
    <path d="M288 192a96 96 0 1 1 0-192 96 96 0 0 1 0 192z m0 277.312a96 96 0 1 1 0-192 96 96 0 0 1 0 192z m0 277.376a96 96 0 1 1 0-192 96 96 0 0 1 0 192zM288 1024a96 96 0 1 1 0-192 96 96 0 0 1 0 192z m448-832a96 96 0 1 1 0-192 96 96 0 0 1 0 192z m0 277.312a96 96 0 1 1 0-192 96 96 0 0 1 0 192z m0 277.376a96 96 0 1 1 0-192 96 96 0 0 1 0 192zM736 1024a96 96 0 1 1 0-192 96 96 0 0 1 0 192z"></path>
  </g>
</svg>