<svg viewBox="0 0 1024 1024" version="1.1" xmlns="http://www.w3.org/2000/svg">
  <g class="fore">
    <path d="M356.789693 723.074605L222.201814 857.662484a39.521566 39.521566 0 0 1-55.92136-55.864298l134.644941-134.587879a191.125515 191.125515 0 0 0-106.022335-31.738225 194.263959 194.263959 0 1 0 194.26396 194.263959 201.202773 201.202773 0 0 0-32.377327-106.661436z m-190.452177-502.150993a39.542108 39.542108 0 1 1 55.921361-55.921361l133.252614 133.366739a192.517843 192.517843 0 1 0-56.491987 56.503399z m664.037626 415.81526a189.88155 189.88155 0 0 0-104.744132 31.110536L858.940686 801.159084a39.521566 39.521566 0 1 1-55.864298 55.921361L669.766712 723.668056a191.467891 191.467891 0 0 0-31.110537 104.744132c0 106.022335 86.335733 192.358068 192.358068 192.358068s192.346655-86.335733 192.346656-192.358068-86.963422-191.673317-192.985757-191.673316z m0-636.738872a193.236832 193.236832 0 0 0-161.886633 298.36899l133.321089-133.309676a39.521566 39.521566 0 0 1 55.864298 55.92136L724.352807 354.233288a193.236832 193.236832 0 0 0 298.380403-161.87522C1023.360899 86.335733 937.025166 0 830.375142 0z"></path>
    <path d="M299.647193 665.943517c75.550899-89.508415 74.911798-222.190402-0.627689-311.710229 23.486971-21.58108 34.237568-32.377327 57.131088-57.131088 89.508415 76.201413 222.863741 76.201413 312.337917 0 19.0475 20.31429 35.550008 37.455899 57.142501 57.131088a242.082429 242.082429 0 0 0 0.604864 312.977019c-15.212893 15.874819-35.527183 33.632704-57.062613 57.1425-89.508415-76.190001-222.190402-76.817689-311.710229-1.278202-24.753761-24.753761-39.943829-41.89537-57.770189-57.131088z"></path>
  </g>
</svg>