<svg viewBox="0 0 1024 1024" version="1.1" xmlns="http://www.w3.org/2000/svg">
  <g class="fore">
    <path d="M864.62464 473.16992c-65.76128-183.43936-205.1072-348.16-352.62464-473.16992-147.51744 125.00992-286.86336 289.73056-352.62464 473.16992-40.67328 113.43872-44.68736 236.56448 12.57472 345.3952 65.8432 125.1328 198.63552 205.43488 340.04992 205.43488s274.18624-80.30208 340.04992-205.43488c57.26208-108.83072 53.248-231.95648 12.5952-345.3952zM738.75456 758.94784c-43.80672 83.2512-132.8128 137.05216-226.75456 137.05216-55.11168 0-108.52352-18.5344-152.10496-50.64704 13.25056 1.72032 26.624 2.64192 40.12032 2.64192 117.43232 0 228.6592-67.21536 283.40224-171.23328 44.87168-85.2992 40.98048-173.85472 23.87968-244.34688 14.56128 28.16 26.91072 56.19712 36.84352 83.92704 22.60992 63.05792 40.01792 156.34432-5.36576 242.60608z"></path>
  </g>
</svg>