<svg viewBox="0 0 1024 1024" version="1.1" xmlns="http://www.w3.org/2000/svg">
  <g class="fore">
    <path d="M512 0c-282.784 0-512 229.216-512 512s229.216 512 512 512 512-229.216 512-512-229.216-512-512-512zM512 960c-62.944 0-122.88-13.024-177.216-36.448l233.152-262.304c5.216-5.856 8.096-13.408 8.096-21.248l0-96c0-17.664-14.336-32-32-32-112.992 0-232.192-117.472-233.376-118.624-6.016-6.016-14.144-9.376-22.624-9.376l-128 0c-17.664 0-32 14.336-32 32l0 192c0 12.128 6.848 23.2 17.696 28.608l110.304 55.168 0 187.872c-116.064-80.96-192-215.424-192-367.648 0-68.704 15.488-133.792 43.136-192l116.864 0c8.48 0 16.64-3.36 22.624-9.376l128-128c6.016-6.016 9.376-14.144 9.376-22.624l0-77.408c40.576-12.064 83.52-18.592 128-18.592 70.4 0 136.992 16.256 196.288 45.184-4.16 3.488-8.192 7.168-12.032 11.04-36.256 36.256-56.224 84.48-56.224 135.776s19.968 99.488 56.224 135.776c36.448 36.448 85.216 56.256 135.648 56.256 3.168 0 6.336-0.064 9.504-0.224 13.824 51.808 38.752 186.656-8.416 372.32-0.448 1.76-0.704 3.488-0.832 5.216-81.312 83.072-194.688 134.656-320.128 134.656z"></path>
  </g>
</svg>