<svg viewBox="0 0 1024 1024" version="1.1" xmlns="http://www.w3.org/2000/svg">
  <g class="fore">
    <path d="M36.93762 454.268404z m950.12476 31.990733c0-91.173588-15.995366-174.349493-59.182855-252.726788C843.104083 81.576368 692.74764 0 518.398147 0 228.882016 0 67.328816 217.536982 36.93762 452.668867c87.974515-126.363394 241.530032-251.127252 454.268404-257.525398 0 0 227.134202 0 204.740689 215.937446H334.451434c12.796293-76.777758 38.388879-121.564784 70.379612-163.152737C249.675992 321.506863 153.703794 447.870258 156.902867 638.215117c1.599537 147.15737 103.969881 299.113351 249.527715 355.097133 172.749956 65.581002 398.284622 14.39583 495.856357-44.787026V732.587778c-166.35181 116.766174-559.837822 126.363394-561.437359-139.159687h647.812337l-1.599537-107.168954z"></path>
  </g>
</svg>