<svg viewBox="0 0 1024 1024" version="1.1" xmlns="http://www.w3.org/2000/svg">
  <g class="fore">
    <path d="M907.636364 589.614545a34.909091 34.909091 0 0 1 69.818181 0v256.954182A130.909091 130.909091 0 0 1 846.568727 977.454545H177.431273A130.909091 130.909091 0 0 1 46.545455 846.568727V177.431273A130.839273 130.839273 0 0 1 177.245091 46.545455h289.442909a34.909091 34.909091 0 0 1 0 69.818181H177.245091A61.021091 61.021091 0 0 0 116.363636 177.431273v669.137454A61.090909 61.090909 0 0 0 177.431273 907.636364h669.137454A61.090909 61.090909 0 0 0 907.636364 846.568727v-256.930909z" />
    <path d="M410.228364 561.384727l-18.292364 102.167273 100.352-19.665455 395.869091-395.86909-82.292364-82.292364-395.636363 395.636364z m-57.111273-41.634909L764.741818 108.125091a58.181818 58.181818 0 0 1 82.269091 0l98.746182 98.746182a58.181818 58.181818 0 0 1 0 82.292363L534.109091 700.741818a34.909091 34.909091 0 0 1-17.966546 9.588364l-160.86109 31.534545a34.909091 34.909091 0 0 1-41.076364-40.401454l29.207273-163.188364a34.909091 34.909091 0 0 1 9.681454-18.548364z" />
  </g>
</svg>