<svg viewBox="0 0 1024 1024" version="1.1" xmlns="http://www.w3.org/2000/svg">
  <g class="fore">
    <path d="M685.292308 307.2H338.707692c-17.723077 0-31.507692 13.784615-31.507692 31.507692v346.584616c0 17.723077 13.784615 31.507692 31.507692 31.507692h346.584616c17.723077 0 31.507692-13.784615 31.507692-31.507692V338.707692c0-17.723077-13.784615-31.507692-31.507692-31.507692z"></path>
    <path d="M960.984615 153.6c13.784615-5.907692 23.630769-15.753846 23.63077-31.507692V70.892308c0-17.723077-13.784615-31.507692-31.507693-31.507693h-51.2c-13.784615 0-25.6 9.846154-29.538461 23.63077-9.846154 31.507692-39.384615 55.138462-74.830769 55.138461s-64.984615-23.630769-74.83077-55.138461C714.830769 49.230769 704.984615 39.384615 689.230769 39.384615h-72.861538c-13.784615 0-25.6 9.846154-29.538462 23.63077-7.876923 31.507692-39.384615 55.138462-74.830769 55.138461-35.446154 0-64.984615-23.630769-74.830769-55.138461-5.907692-13.784615-15.753846-23.630769-31.507693-23.63077H334.769231c-13.784615 0-25.6 9.846154-29.538462 23.63077C295.384615 94.523077 263.876923 118.153846 228.430769 118.153846 192.984615 118.153846 163.446154 94.523077 153.6 63.015385 147.692308 49.230769 137.846154 39.384615 122.092308 39.384615H70.892308C53.169231 39.384615 39.384615 53.169231 39.384615 70.892308v51.2c0 15.753846 9.846154 25.6 23.63077 31.507692 31.507692 7.876923 55.138462 39.384615 55.138461 74.830769s-23.630769 64.984615-55.138461 74.830769c-13.784615 5.907692-23.630769 15.753846-23.63077 31.507693v72.861538c0 13.784615 9.846154 25.6 23.63077 29.538462 31.507692 7.876923 55.138462 39.384615 55.138461 74.830769s-23.630769 64.984615-55.138461 74.830769c-13.784615 5.907692-23.630769 15.753846-23.63077 31.507693V689.230769c0 13.784615 9.846154 25.6 23.63077 29.538462C94.523077 728.615385 118.153846 760.123077 118.153846 795.569231c0 35.446154-23.630769 64.984615-55.138461 74.830769-13.784615 5.907692-23.630769 15.753846-23.63077 31.507692v51.2c0 17.723077 13.784615 31.507692 31.507693 31.507693h51.2c13.784615 0 25.6-9.846154 29.538461-23.63077 9.846154-31.507692 39.384615-55.138462 74.830769-55.138461 35.446154 0 64.984615 23.630769 74.83077 55.138461 3.938462 13.784615 15.753846 23.630769 29.538461 23.63077h72.861539c13.784615 0 25.6-9.846154 29.538461-23.63077 9.846154-31.507692 39.384615-55.138462 74.830769-55.138461s64.984615 23.630769 74.83077 55.138461c3.938462 13.784615 15.753846 23.630769 29.538461 23.63077H689.230769c13.784615 0 25.6-9.846154 29.538462-23.63077 9.846154-31.507692 39.384615-55.138462 74.830769-55.138461 35.446154 0 64.984615 23.630769 74.830769 55.138461 3.938462 13.784615 15.753846 23.630769 29.538462 23.63077h51.2c17.723077 0 31.507692-13.784615 31.507692-31.507693v-51.2c0-13.784615-9.846154-25.6-23.630769-29.538461-31.507692-9.846154-55.138462-39.384615-55.138462-74.830769s23.630769-64.984615 55.138462-74.83077c13.784615-3.938462 23.630769-15.753846 23.630769-29.538461v-72.861539c0-13.784615-9.846154-25.6-23.630769-29.538461-31.507692-9.846154-55.138462-39.384615-55.138462-74.830769 0-35.446154 23.630769-64.984615 55.138462-74.83077 13.784615-3.938462 23.630769-15.753846 23.630769-29.538461V334.769231c0-13.784615-9.846154-25.6-23.630769-29.538462-31.507692-9.846154-55.138462-39.384615-55.138462-74.830769s27.569231-66.953846 59.076923-76.8z m-149.661538 563.2c0 51.2-43.323077 94.523077-94.523077 94.523077H307.2c-51.2 0-94.523077-43.323077-94.523077-94.523077V307.2c0-51.2 43.323077-94.523077 94.523077-94.523077h409.6c51.2 0 94.523077 43.323077 94.523077 94.523077v409.6z"></path>
  </g>
</svg>