<svg viewBox="0 0 1024 1024" version="1.1" xmlns="http://www.w3.org/2000/svg">
  <g class="fore">
    <path d="M518.827 150.187c20.48 0 37.546-17.067 37.546-37.547V37.547C556.373 17.067 539.307 0 518.827 0S481.28 17.067 481.28 37.547v75.093c0 20.48 17.067 37.547 37.547 37.547z m283.306 75.093l51.2-51.2c13.654-13.653 13.654-37.547 0-51.2-13.653-13.653-37.546-13.653-51.2 0l-51.2 51.2c-13.653 13.653-13.653 37.547 0 51.2 13.654 17.067 37.547 17.067 51.2 0z m-563.2 0c13.654 13.653 37.547 13.653 51.2 0 17.067-13.653 17.067-37.547 3.414-51.2l-54.614-51.2c-13.653-13.653-37.546-13.653-51.2 0-13.653 13.653-13.653 37.547 0 51.2l51.2 51.2zM47.787 467.627h75.093c20.48 0 37.547-17.067 37.547-37.547 0-20.48-17.067-37.547-37.547-37.547H47.787c-20.48 0-37.547 17.067-37.547 37.547 0 20.48 17.067 37.547 37.547 37.547z m863.573 0h75.093c20.48 0 37.547-17.067 37.547-37.547 0-20.48-17.067-37.547-37.547-37.547H911.36c-20.48 0-37.547 17.067-37.547 37.547 0 20.48 17.067 37.547 37.547 37.547zM986.453 901.12H819.2V525.653c0-163.84-136.533-300.373-300.373-300.373S218.453 361.813 218.453 525.653V901.12H47.787c-20.48 0-37.547 17.067-37.547 37.547s17.067 37.546 37.547 37.546h938.666c20.48 0 37.547-17.066 37.547-37.546s-17.067-37.547-37.547-37.547zM518.827 447.147L634.88 645.12l-119.467 13.653 20.48 150.187-133.12-194.56 122.88-17.067-6.826-150.186z"></path>
  </g>
</svg>