<svg viewBox="0 0 1024 1024" version="1.1" xmlns="http://www.w3.org/2000/svg">
  <g class="fore">
    <path d="M918.388405 686.763791H682.664391v-91.989027l-120.592665 214.595551L682.664391 1023.965867v-91.306363h120.592665a84.718651 84.718651 0 0 0 72.908557-42.256925l149.196302-265.010317a123.767054 123.767054 0 0 1-106.97351 61.371529z m-168.959436-369.253169l120.592664-214.595552-77.653074 46.318779s-29.968967-54.613151-42.256926-75.639214a93.490888 93.490888 0 0 0-164.86345 0.682664s-27.920974 49.049437-55.193417 98.781537l56.558745 100.146867-77.653074 44.95345zM284.773451 562.109273L166.228779 771.960307a126.600111 126.600111 0 0 0-0.682664 125.371315L16.349812 632.321306a87.176243 87.176243 0 0 1 0.682665-86.527712l60.620597-106.97351L0 393.183969h241.185329l120.592665 214.595552z m525.276116 98.781537l-120.592665-214.595551 207.120376-122.640658a43970.0721 43970.0721 0 0 0 106.97351 190.770564 100.556465 100.556465 0 0 1 0.682665 98.098873 95.061016 95.061016 0 0 1-83.11439 48.366772h-111.069496zM186.674578 788.310119s27.920974-49.049437 55.87608-99.464202h241.18533v245.281316H269.106303a93.695688 93.695688 0 0 1-83.11439-48.366772 99.293536 99.293536 0 0 1 0.682665-97.484475zM564.802384 62.057606c-27.920974 49.732101-184.626585 327.678908-183.94392 327.678908L173.055423 266.413192s99.464202-179.165269 125.371316-222.787524A83.216789 83.216789 0 0 1 370.652631 0.037547h297.744074a116.052946 116.052946 0 0 0-103.594321 61.951793z"></path>
  </g>
</svg>