<svg viewBox="0 0 1024 1024" version="1.1" xmlns="http://www.w3.org/2000/svg">
  <g class="fore">
    <path d="m983.49993,-0.5l-942.99988,0c-22.67812,0 -40.99999,18.32187 -40.99999,41l0,943c0,22.67812 18.32187,41 40.99999,41l942.99988,0c22.67812,0 40.99999,-18.32187 40.99999,-41l0,-943c0,-22.67812 -18.32187,-41 -40.99999,-41zm-118.38748,299.17187l-81.87186,0c-64.19062,0 -76.61874,30.49375 -76.61874,75.3375l0,98.78437l153.23748,0l-19.9875,154.64687l-133.24998,0l0,397.05937l-159.77185,0l0,-396.93125l-133.63436,0l0,-154.775l133.63436,0l0,-114.03125c0,-132.35312 80.84686,-204.4875 198.9781,-204.4875c56.63124,0 105.19061,4.22812 119.41248,6.15l0,138.24687l-0.12812,0z"></path>
  </g>
</svg>