<svg viewBox="0 0 1024 1024" version="1.1" xmlns="http://www.w3.org/2000/svg">
  <g class="fore">
    <path d="M485.496471 0c268.227765 0 455.378824 237.447529 455.378823 530.311529s-187.151059 437.368471-455.378823 437.368471C217.268706 967.68 30.117647 823.175529 30.117647 530.311529S217.268706 0 485.496471 0z m-3.553883 726.317176c-101.376 0-183.536941 27.407059-183.536941 61.199059 0 33.731765 82.160941 61.199059 183.536941 61.199059s183.597176-27.407059 183.597177-61.199059c0-33.792-82.221176-61.199059-183.597177-61.199059z m-180.103529-423.634823c-66.258824 0-119.868235 40.779294-119.868235 91.075765s53.609412 91.075765 119.868235 91.075764c66.198588 0 119.868235-40.779294 119.868235-91.075764s-53.669647-91.075765-119.868235-91.075765z m365.206588 0c-66.258824 0-119.868235 40.779294-119.868235 91.075765s53.609412 91.075765 119.868235 91.075764c66.198588 0 119.868235-40.779294 119.868235-91.075764s-53.669647-91.075765-119.868235-91.075765z"></path>
  </g>
</svg>