<svg viewBox="0 0 1024 1024" version="1.1" xmlns="http://www.w3.org/2000/svg">
  <g class="fore">
    <path d="M-0.056819 1024l34.129541-102.388623h34.243306v-204.83413h409.554494L512.000063 511.943117H989.927405v409.66826h34.129541v102.388623H-0.056819z m204.834129-273.093212h-102.388623v68.259082h102.388623v-68.259082z m102.388624 0h-68.259083v68.259082h68.259083v-68.259082z m102.445506 0H341.238592v68.259082h68.372848v-68.259082z m102.388623 0H443.627216v68.259082h68.372847v-68.259082z m1.023886-34.470836h442.318854v-33.333186H518.541559l-5.51761 33.333186z m442.660149-170.192646H853.238592v102.274859h102.445506V546.243306z m-34.072658-68.486612h-307.222753V341.295412h-34.186424v-34.186424h375.481835V341.295412h-34.072658v136.461282zM682.647769 341.295412h-34.129541v102.388623h34.129541V341.295412z m68.372847 0h-34.186423v102.388623h34.186423V341.295412z m68.2022 0h-34.072658v102.388623h34.072658V341.295412z m68.2022 0h-34.186424v102.388623h34.186424V341.295412zM375.425016 204.720364L409.61144 682.590823H273.036392l34.015777-477.870459H375.425016z m-170.647706 0L238.906851 682.590823h-136.518164l33.958893-477.870459H204.77731z m289.987335-68.259082a50.227308 50.227308 0 0 1-34.072659-13.139873 52.331963 52.331963 0 0 1-19.226308 10.978335 51.194312 51.194312 0 0 1-98.065548-0.398178 10.580158 10.580158 0 0 0-2.161538-0.68259 46.359293 46.359293 0 0 1-34.072658 0 12.798578 12.798578 0 0 0-2.104655 0.68259 51.194312 51.194312 0 0 1-98.122431 0c-0.739473-0.341295-1.422064-0.511943-2.047773-0.68259a46.643706 46.643706 0 0 1-34.186423 0c-33.44695 12.855461-68.259082-13.936229-68.259083-48.008888 0-5.745139 1.137651-11.433396 3.299189-17.007888a47.895123 47.895123 0 0 1-3.299189-17.121653c0-28.270637 22.980558-51.251194 51.137429-51.251195a50.625486 50.625486 0 0 1 34.129542 13.139874 51.194312 51.194312 0 0 1 34.129541-13.139874 51.194312 51.194312 0 0 1 49.317187 37.770026 49.089657 49.089657 0 0 1 35.892901-0.284413 17.292301 17.292301 0 0 1 2.21842-0.796356 51.194312 51.194312 0 0 1 98.349961 1.080769 53.58338 53.58338 0 0 1 3.924897-1.365182 51.194312 51.194312 0 0 1 98.008666 0c21.04655 6.313965 36.461726 25.938451 36.461726 48.975892a51.308077 51.308077 0 0 1-51.251194 51.251194z m0.398178-68.259082a17.121653 17.121653 0 0 1-17.121653-17.121653 17.064771 17.064771 0 0 0-34.129541 0 17.064771 17.064771 0 0 1-17.064771 17.121653 17.064771 17.064771 0 0 0-17.121653 17.007888 17.064771 17.064771 0 0 1-34.186424 0 16.780358 16.780358 0 0 0-2.901011-8.247973 17.007888 17.007888 0 0 1 0-17.519831A16.780358 16.780358 0 0 0 375.538781 51.194312a17.178536 17.178536 0 0 0-34.300189 0 17.064771 17.064771 0 0 1-17.007888 17.121653 16.38218 16.38218 0 0 0-8.41862 2.844128 17.406066 17.406066 0 0 1-17.462948 0 16.040884 16.040884 0 0 0-8.304855-2.844128 17.064771 17.064771 0 0 0-17.121654 17.007888 17.064771 17.064771 0 0 1-34.186423 0 16.951005 16.951005 0 0 0-2.901011-8.247973 17.519831 17.519831 0 0 1 0-17.519831 16.780358 16.780358 0 0 0 2.901011-8.247972 17.064771 17.064771 0 1 0-34.186424 0 17.178536 17.178536 0 0 1-34.300189 0 17.064771 17.064771 0 0 0-34.129541 0c0 2.389068 0.853239 5.119431 2.787246 8.247972a17.235418 17.235418 0 0 1 0 17.519831 16.268415 16.268415 0 0 0-2.787246 8.247973c0 9.442506 7.565382 17.064771 17.007888 17.06477a16.439062 16.439062 0 0 0 8.361737-2.844128 17.235418 17.235418 0 0 1 17.519832 0c6.484613 3.924897 10.18198 3.924897 16.666592 0a17.235418 17.235418 0 0 1 17.519831 0c3.242306 1.934007 5.858905 2.844128 8.304855 2.844128a17.064771 17.064771 0 0 1 17.121653 17.007888 17.064771 17.064771 0 0 0 34.129542 0 17.064771 17.064771 0 0 1 17.235418-17.007888 16.439062 16.439062 0 0 0 8.19109-2.844128 17.235418 17.235418 0 0 1 17.519831 0c6.42773 3.924897 10.18198 3.924897 16.723475 0a17.747361 17.747361 0 0 1 8.816798-2.502833 16.495945 16.495945 0 0 1 8.759916 2.389068 15.927119 15.927119 0 0 0 8.361737 2.844128 17.064771 17.064771 0 0 1 17.178536 17.007888 17.064771 17.064771 0 1 0 34.186424 0c0-9.385624 7.565382-17.007888 17.121653-17.007888a17.064771 17.064771 0 0 0 17.064771-17.06477 17.064771 17.064771 0 1 1 34.129541 0 17.121653 17.121653 0 0 0 34.243306 0 17.178536 17.178536 0 0 0-17.121653-17.007888z"></path>
  </g>
</svg>