<svg viewBox="0 0 1024 1024" version="1.1" xmlns="http://www.w3.org/2000/svg">
  <g class="fore">
    <path d="m206.021747,532.395112c-54.155448,-30.679592 -104.700514,-28.874919 -149.830049,7.21873c-43.324363,32.484278 -61.376175,77.601318 -54.155448,131.741785c7.220727,46.921725 23.467354,92.038777 50.545078,133.546471c27.077724,43.312367 57.765805,73.991959 93.869429,92.038777c97.479799,50.531096 182.323316,36.093637 256.33576,-43.312367c23.467354,-25.265548 41.519166,-54.140455 57.765805,-90.234104c18.051812,-39.703008 28.882896,-75.796645 30.688081,-111.890281c0,-18.046818 9.0259,-27.070234 23.467354,-27.070234s23.467354,7.21873 30.688081,19.851504c21.662182,63.16387 18.051812,122.718382 -12.63627,176.858837c-30.688081,54.140455 -27.077724,104.671551 5.415542,147.98393c32.493266,43.312367 77.622802,61.359185 131.778238,52.33577c46.934721,-7.21873 92.064256,-23.460863 133.583422,-50.531096c43.324351,-27.070221 74.012445,-57.749826 92.064256,-93.843463c50.545078,-97.452822 36.103624,-182.272882 -45.129536,-254.460167c-25.272539,-23.460863 -54.155436,-43.312367 -90.259072,-59.554499c-39.713993,-18.046818 -75.817617,-28.874907 -111.921241,-30.679592c-18.051812,0 -27.077724,-9.023415 -27.077724,-23.460875s7.220727,-25.265548 21.662182,-28.874907c25.272539,-9.023415 50.545078,-14.43746 77.62279,-14.43746c34.298451,0 66.791717,9.023415 97.479799,25.265548c54.155436,30.679592 104.700514,28.874919 149.830049,-5.414044c43.324351,-32.484278 61.376175,-77.60133 54.155448,-131.741785c-7.220727,-46.921738 -23.467367,-92.038777 -50.545078,-133.546471c-27.077724,-43.312367 -57.765805,-73.991959 -93.869429,-92.038777c-97.479799,-50.531096 -182.323316,-36.093649 -256.33576,43.312367c-23.467354,25.265548 -41.519166,55.945141 -57.765805,90.234104c-18.051812,39.702995 -28.882896,77.601318 -30.688081,111.890281c0,16.242133 -9.0259,25.265548 -23.467354,27.070234s-25.272539,-7.21873 -30.688081,-19.851504c-9.025912,-25.265548 -12.63627,-50.531096 -12.63627,-79.406016c0,-34.288951 9.0259,-66.773229 25.272539,-97.452822c30.688081,-54.140467 27.077712,-104.671564 -5.415542,-147.98393c-32.493266,-43.312367 -75.817617,-61.359185 -129.973065,-54.140455c-46.934708,7.21873 -92.064244,23.460863 -133.583422,50.531096c-43.324351,27.070221 -74.012432,57.749826 -93.869429,93.843463c-50.545078,97.452834 -36.103624,182.272882 45.129536,256.264841c25.272539,23.460875 55.96062,43.312367 90.259072,59.554512c39.713981,18.046818 75.817617,27.070234 111.921241,28.874907c18.051812,0 27.077724,9.023415 27.077724,23.460875s-7.220727,25.265548 -21.662182,30.679592c-61.376163,21.656177 -120.947153,18.046818 -175.102588,-12.632774m344.789635,-57.749826c10.831097,10.828089 14.441454,21.656189 14.441454,36.093637s-5.415542,27.070234 -14.441454,37.898322c-10.831085,9.023415 -21.662169,14.43746 -36.103624,14.43746s-27.077724,-5.414044 -37.908809,-14.43746c-10.831085,-10.828089 -14.441454,-23.460863 -14.441454,-37.898322s5.415542,-27.070234 14.441454,-36.093637c10.831085,-10.828089 23.467354,-16.242133 37.908809,-16.242145c14.441454,1.804686 25.272539,5.414057 36.103624,16.242145z"></path>
  </g>
</svg>