<svg viewBox="0 0 1024 1024" version="1.1" xmlns="http://www.w3.org/2000/svg">
  <g class="fore">
    <path d="M76.48 1023.296c-9.664-1.28-19.776-3.456-25.92-5.504-13.952-4.608-25.536-12.864-32.384-23.168-1.28-1.984-2.88-4.288-3.456-5.184-1.216-1.856-7.04-13.76-7.04-14.464 0-0.256-0.832-2.688-1.856-5.312-2.56-6.72-5.824-17.92-5.824-20.032v-1.792h1024v1.792c0 2.112-3.264 13.312-5.824 20.032-1.024 2.624-1.856 5.056-1.856 5.376s-1.344 3.328-3.008 6.72c-12.928 26.368-29.376 36.736-66.304 41.6-6.144 0.768-864.64 0.768-870.528-0.064zM57.856 909.76c-1.152-0.512-2.688-1.92-3.456-3.2-1.28-2.112-1.472-3.712-2.304-20.032-0.512-9.728-1.728-34.432-2.816-54.848-1.024-20.416-2.752-54.272-3.84-75.2s-2.688-51.456-3.584-67.84c-0.96-16.384-1.92-36.096-2.176-43.84s-1.216-27.904-2.176-44.8c-3.712-67.52-5.568-102.144-5.888-110.08-0.128-4.544-1.152-24.448-2.176-44.16s-2.752-52.992-3.84-73.92-2.816-54.208-3.904-73.92c-1.728-32.448-3.776-94.4-3.776-113.92 0-7.168 0.128-7.872 1.6-10.048 0.896-1.344 2.176-2.688 2.88-3.072 0.896-0.448 50.688-0.64 161.728-0.64 92.928 0 161.344-0.192 162.432-0.512s3.136-1.216 4.608-1.984c1.472-0.704 3.136-1.344 3.648-1.344s1.472-0.64 2.112-1.408c0.64-0.832 2.24-2.048 3.584-2.688 1.792-0.96 2.944-2.304 4.8-5.76 3.584-6.912 8.192-17.216 11.008-25.024 0.768-2.112 2.304-6.144 3.328-8.96 5.12-13.76 6.976-19.584 7.616-23.68 0.384-2.432 1.536-8.064 2.56-12.416s1.856-8.448 1.856-9.216c0-3.2 6.976-26.944 9.984-34.048 4.992-11.712 9.472-18.56 16.96-25.92 6.592-6.528 7.808-7.424 14.016-10.56 4.864-2.432 7.296-3.264 16.064-5.504 4.736-1.152 8.384-1.216 117.696-1.088l112.832 0.192 1.984 2.432 1.984 2.496 0.192 21.824c0.128 14.208-0.064 22.72-0.448 24.192-0.448 1.472-1.6 3.072-3.136 4.16l-2.368 1.856-111.68 0.32c-94.144 0.256-111.936 0.448-113.408 1.216-2.56 1.28-4.224 5.312-5.312 12.608-0.512 3.456-1.664 10.112-2.496 14.656-0.896 4.608-2.496 13.056-3.52 18.88-3.392 19.008-5.952 32.768-8.128 44.032-1.216 6.08-2.176 11.776-2.176 12.608 0 2.24 1.152 4.288 3.392 6.08 1.792 1.472 2.752 1.664 10.048 2.048 4.416 0.192 18.176 0.384 30.592 0.448 25.536 0.064 25.536 0.064 27.712 4.736 1.152 2.624 1.216 6.912 1.216 161.984v159.296l1.344 2.176c2.432 3.904 6.848 5.12 10.496 2.88 1.088-0.704 6.016-5.184 11.008-10.112 17.216-16.896 21.44-20.736 28.032-25.28 7.04-4.928 18.88-9.536 27.648-10.816 5.824-0.832 320.64-0.832 327.232 0 13.888 1.792 27.84 8.192 38.208 17.536 3.904 3.584 10.816 11.904 13.376 16.192 10.88 18.24 17.792 36.928 24.64 66.176l1.472 6.208-1.6 3.072c-1.024 2.112-2.304 3.52-3.776 4.224-2.112 1.088-15.232 1.152-246.592 1.152H490.88l-2.432 2.176-2.368 2.176-0.32 48.896c-0.32 43.84-0.512 50.304-1.728 63.232-0.832 7.936-1.856 19.584-2.368 25.92s-1.536 18.176-2.24 26.24c-0.704 8.128-2.176 25.216-3.264 38.08s-2.816 32.896-3.84 44.48c-1.088 11.648-1.92 22.272-1.92 23.68s-0.832 12.096-1.856 23.68c-1.088 11.648-2.176 24.448-2.496 28.608-0.448 6.592-0.704 7.744-2.304 9.984-1.024 1.472-2.496 2.752-3.456 3.008-0.96 0.192-91.456 0.512-201.088 0.64-172.992 0.256-199.616 0.192-201.344-0.64z m390.784-600.576c0-39.744-0.192-73.088-0.384-74.176s-1.216-2.88-2.176-4.096l-1.792-2.112-12.992-0.192c-9.664-0.128-13.44 0.064-14.656 0.64-2.56 1.344-4.288 4.672-5.12 9.664-0.384 2.496-1.536 8.768-2.624 13.888-1.024 5.12-1.856 9.856-1.856 10.56s-0.832 5.312-1.856 10.24c-3.648 17.472-6.528 34.56-8.448 49.6-0.384 3.008-0.832 15.808-1.024 28.48l-0.32 23.04 1.536 2.24c3.008 4.416 3.264 4.48 28.864 4.48h22.848V309.184zM267.264 378.24h51.264l0.768-5.568c0.384-3.136 1.728-12.416 3.008-20.672 2.944-19.776 5.568-36.992 7.936-53.12 2.304-15.872 5.376-36.352 6.72-45.248 1.28-8.64 1.216-11.648-0.32-15.808-1.088-2.752-2.048-4.032-4.928-6.272l-3.584-2.752-124.224-0.192c-83.712-0.128-124.928 0-126.464 0.448-1.6 0.512-2.624 1.408-3.648 3.2l-1.472 2.56v68.672c0 67.392 0 68.736 1.28 70.784 0.704 1.152 2.176 2.688 3.328 3.392l2.112 1.344 68.48-0.384c37.696-0.192 91.52-0.384 119.744-0.384z"></path>
    <path d="M568.96 909.76c-6.72-0.896-16.576-4.032-21.312-6.848-1.664-0.96-3.264-1.792-3.584-1.792-1.152 0-10.944-7.872-14.848-11.904-4.288-4.416-11.456-13.504-11.456-14.4 0-0.32-0.64-1.472-1.472-2.624-3.968-5.952-12.16-25.344-13.888-33.152-0.256-1.216-1.408-5.696-2.432-9.92-2.176-8.64-5.056-24.256-5.568-30.08-0.96-10.88-2.24-28.288-2.56-34.368l-0.384-6.912h486.464v30.272c0 34.752-0.512 41.152-4.032 51.008-4.224 11.712-8.576 19.84-17.024 31.36-2.88 3.968-14.848 16.256-20.032 20.544-7.04 5.888-18.496 12.416-27.392 15.68-11.712 4.352-1.728 4.096-176.256 4.032-121.344-0.064-159.552-0.256-164.224-0.896zM911.36 739.456c-3.328-0.128-19.904-1.088-36.8-2.176-53.44-3.328-58.048-3.456-85.44-2.56-34.88 1.152-248 1.856-252.672 0.832-5.12-1.088-11.904-5.504-18.048-11.648-3.008-3.008-6.144-6.336-6.912-7.424-0.768-1.024-2.24-3.008-3.328-4.416-1.024-1.344-1.92-2.752-1.92-3.136s-0.448-1.152-0.896-1.664c-3.584-3.968-10.112-19.968-12.096-29.504-2.304-11.264-1.536-32.128 1.536-43.776 1.408-5.312 5.12-11.776 8.896-15.744 5.184-5.248 11.776-8.448 21.76-10.368l7.36-1.472h201.92c155.264 0 202.816 0.192 205.76 0.768 2.112 0.448 5.504 1.088 7.552 1.408 4.288 0.768 11.008 3.84 15.36 7.04 4.224 3.136 8.384 9.472 10.688 16.384 2.048 6.016 3.84 20.032 3.84 30.08 0 15.552-4.608 31.296-13.44 45.696-1.6 2.56-3.264 5.312-3.712 6.08-2.048 3.456-10.624 12.672-15.488 16.576-3.008 2.432-7.488 5.376-10.048 6.656-4.288 2.048-5.12 2.24-11.2 2.432-3.648 0.064-9.344 0.064-12.672-0.064z"></path>
  </g>
</svg>