<svg viewBox="0 0 1024 1024" version="1.1" xmlns="http://www.w3.org/2000/svg">
  <g class="fore">
    <path d="M384 192v24L192 192c-35.4 0-64 28.6-64 64s28.6 64 64 64l192-24 62-7.8 2-0.2 2 0.2 62 7.8 192 24c35.4 0 64-28.6 64-64s-28.6-64-64-64l-192 24V192c0-35.4-28.6-64-64-64s-64 28.6-64 64zM64 512c-35.4 0-64 28.6-64 64v128c0 35.4 28.6 64 64 64h200.2c40.4 58 107.8 96 183.8 96s143.4-38 183.8-96H704c35.4 0 64 28.6 64 64s28.6 64 64 64h128c35.4 0 64-28.6 64-64 0-176.8-143.2-320-320-320h-64l-45.2-45.2c-12-12-28.2-18.8-45.2-18.8H512v-87.6l-64-8-64 8V448h-37.4c-17 0-33.2 6.8-45.2 18.8L256 512H64z"></path>
  </g>
</svg>