<svg viewBox="0 0 1024 1024" version="1.1" xmlns="http://www.w3.org/2000/svg">
  <g class="fore">
    <path d="M737.701647 363.700706c85.232941-156.852706 117.157647-279.311059 97.882353-297.502118-16.504471-15.661176-152.997647 34.394353-219.136 84.751059-12.649412 9.758118-63.969882 156.912941-80.112941 163.297882-13.793882 5.662118-11.685647-89.027765-3.915294-130.529882-64.150588 29.816471-171.911529 106.736941-231.424 160.045177-4.638118 4.216471-16.624941 197.150118-22.166589 202.932705-11.324235 11.324235-45.417412-130.650353-54.934588-118.482823-136.372706 173.477647-197.632 366.953412-140.769882 450.078118C28.792471 965.752471 1.566118 1022.373647 1.566118 1022.373647l41.863529-1.626353c25.298824-43.309176 50.416941-83.968 75.414588-123.361882l1.686589 0.903529c60.114824 5.903059 206.486588-11.023059 352.617411-147.757176 0 0-81.317647-46.441412-68.065882-60.355765 13.131294-13.974588 139.324235-55.536941 152.515765-71.198118 47.284706-56.500706 74.029176-82.763294 109.869176-137.697882 9.456941-14.336-98.243765 11.745882-89.509647-2.409412 8.493176-13.733647 28.250353-83.546353 159.744-115.169882z"></path>
  </g>
</svg>