<svg viewBox="0 0 1024 1024" version="1.1" xmlns="http://www.w3.org/2000/svg">
  <g class="fore">
    <path d="m990.879993,386.624l-62.208,0l-0.96,-194.624l-94.08,-192l-101.056,192l0.96,194.624l-129.344,0l-1.28,-194.624l-90.688,-192l-97.152,192l1.472,194.624l-131.84,0l-1.856,-194.624l-90.688,-192l-97.152,192l1.472,194.624l-61.888,0l0.192,62.656l61.888,0l0.768,321.984l-64.32,-3.264l0,64.64l63.552,0l0,191.36l187.84,0l0,-191.36l132.032,0l0,191.36l188.032,0l0,-191.36l128.96,0l0,191.36l195.328,0l-1.28,-191.36l62.272,0l0,-64.64l-62.208,0l0,-318.72l62.272,0l0.96,-62.656zm-705.28,59.584l131.712,0l0,325.056l-133.248,0l1.536,-325.056zm453.376,321.792l-134.912,0l-0.704,-324.608l135.616,0l0,324.608z"></path>
  </g>
</svg>