<svg viewBox="0 0 1024 1024" version="1.1" xmlns="http://www.w3.org/2000/svg">
  <g class="fore">
    <path d="m542.71999,129.70667c0,17.06666 -13.65333,30.72 -30.72,30.72s-30.72,-13.65334 -30.72,-30.72c0,-13.65334 13.65334,-27.30667 30.72,-27.30667s30.72,13.65333 30.72,27.30667z"></path>
    <path d="m34.13333,0l0,92.16l139.94666,170.66667l675.84,0l139.94667,-170.66667l0,-92.16l-955.73333,0zm477.86666,211.62667c-44.37333,0 -81.92,-37.54667 -81.92,-81.92c0,-44.37334 37.54667,-81.92 81.92,-81.92c44.37334,0 81.92,37.54666 81.92,81.92c0,44.37333 -37.54666,81.92 -81.92,81.92z"></path>
    <path d="m884.05333,327.68l-744.10667,0l-105.81333,-129.70667l0,826.02667l955.73333,0l0,-826.02667l-105.81333,129.70667zm-37.54667,556.37333l-669.01333,0l0,-68.26666l669.01333,0l0,68.26666zm0,-170.66666l-669.01333,0l0,-68.26667l669.01333,0l0,68.26667zm0,-170.66667l-669.01333,0l0,-68.26667l669.01333,0l0,68.26667z"></path>
  </g>
</svg>