<svg viewBox="0 0 1024 1024" version="1.1" xmlns="http://www.w3.org/2000/svg">
  <g class="fore">
    <path d="M569.216 778.24v-0.128 0.128zM570.592 814.528l-0.032-0.704 0.032 0.704zM569.824 796.32l-0.032-0.544 0.032 0.544zM960 0H64C28.8 0 0 28.8 0 64v896c0 35.2 28.8 64 64 64h896c35.2 0 64-28.8 64-64V64c0-35.2-28.8-64-64-64zM192 224a32 32 0 0 1 64 0v64a32 32 0 0 1-64 0V224z m768 736H584.928a1305.12 1305.12 0 0 1-13.344-127.264 547.392 547.392 0 0 1-422.08-133.728 36 36 0 0 1 47.648-53.984 475.424 475.424 0 0 0 371.68 115.552 2037.184 2037.184 0 0 1 7.04-213.408 31.936 31.936 0 0 0-31.84-35.168h-95.168c1.376-34.624 5.088-93.824 14.944-160.192 18.848-126.752 52-225.76 96.16-287.808h400.064v896z"></path>
    <path d="M800 320a32 32 0 0 1-32-32V224a32 32 0 0 1 64 0v64a32 32 0 0 1-32 32zM540.48 835.232zM512 836zM539.072 763.2l2.336-0.128-2.336 0.128zM525.088 763.808l3.232-0.096c-1.088 0.032-2.144 0.096-3.232 0.096zM877.664 648.192a36 36 0 0 0-50.816-3.168 475.264 475.264 0 0 1-258.016 115.584c0.416 23.264 1.28 47.488 2.752 72.16a547.2 547.2 0 0 0 302.912-133.76c14.912-13.152 16.32-35.904 3.168-50.816zM571.488 832.736zM555.488 834.24z"></path>
  </g>
</svg>