<svg viewBox="0 0 1024 1024" version="1.1" xmlns="http://www.w3.org/2000/svg">
  <g class="fore">
    <path d="m512.000206,0.151825a405.500028,418.771672 0 0 1 405.500028,418.771672l0,186.120736a405.049469,418.306367 0 0 1 -171.661679,342.18299c21.356335,-70.818946 33.791669,-145.686008 36.134562,-223.205301l0.360441,-25.91731l0,-93.106902l-90.111114,0l0,93.106902l-0.135167,14.657009a717.825157,741.318917 0 0 1 -64.474504,293.838123a407.527528,420.865531 0 0 1 -161.02857,14.610475a582.793648,601.86795 0 0 0 90.156173,-303.376815l0.315392,-19.728792l0,-325.711304l-90.111124,0l0,325.711304l-0.180215,13.400694a493.358367,509.505535 0 0 1 -94.030958,286.951652a404.59892,417.841072 0 0 1 -118.31589,-69.981403a358.597191,370.333749 0 0 0 77.045005,-215.109049l0.315382,-15.261894l0,-279.181115l0.225285,-9.306044a179.231012,185.097079 0 0 1 19.599168,-75.611548l5.136334,-9.631748l-65.105289,-67.236115a268.936626,277.738675 0 0 0 -49.651219,147.965991l-0.315392,13.819465l0,279.181115l-0.180226,10.469292a268.891578,277.692152 0 0 1 -50.507278,152.293298a403.607695,416.817404 0 0 1 -84.479173,-255.822969l0,-186.120736a405.500028,418.771672 0 0 1 405.500028,-418.771672zm0,139.590557c-53.886445,0 -104.078341,16.285561 -146.250343,44.343263l-10.362775,7.258709l65.06022,67.236115a179.185953,185.050545 0 0 1 80.51429,-25.452004l11.038608,-0.325715l9.011108,0.232647a180.222238,186.120747 0 0 1 170.985845,176.302874l0.225285,9.585226l0,93.060368l90.111114,0l0,-93.060368a270.333352,279.181115 0 0 0 -270.333352,-279.181115z"></path>
  </g>
</svg>