<svg viewBox="0 0 1024 1024" version="1.1" xmlns="http://www.w3.org/2000/svg">
  <g class="fore">
    <path d="M321.01116 1024c-68.236631-142.00264-31.906564-223.366425 20.540618-300.040478 57.444102-83.944162 72.25055-167.069157 72.25055-167.069157s45.156594 58.693332 27.093956 150.5015c79.766409-88.797728 94.818607-230.267909 82.776849-284.455822 180.298708 126.0084 257.361866 398.832047 153.51194 601.043478 552.343986-312.5123 137.394824-780.133915 65.144274-832.826847 24.083517 52.672453 28.650374 141.838806-20.00816 185.111316-82.346786-312.266549-285.950802-376.263989-285.950802-376.263989 24.083517 161.027799-87.302748 337.128275-194.695572 468.707012-3.768169-64.222711-7.782089-108.519179-41.552258-169.977201-7.577297 116.649414-96.723171 211.734251-120.868125 328.608936-32.705252 158.283589 24.4931 274.175273 241.736251 396.599816z"></path>
  </g>
</svg>