<svg viewBox="0 0 1024 1024" version="1.1" xmlns="http://www.w3.org/2000/svg">
  <g class="fore">
    <path d="M1004.8 467.2c-1.6-9.6-3.2-14.4-3.2-14.4s-3.2 4.8-9.6 12.8c-1.6-22.4-6.4-43.2-11.2-65.6-8-27.2-17.6-52.8-30.4-76.8-8-16-17.6-32-27.2-46.4-3.2-4.8-8-11.2-11.2-16-17.6-30.4-40-48-64-83.2-16-27.2-27.2-56-32-86.4-6.4 19.2-11.2 36.8-16 56-25.6-25.6-46.4-43.2-59.2-56C676.8 32 683.2 0 683.2 0s-120 134.4-68.8 275.2c17.6 48 49.6 89.6 89.6 120 51.2 41.6 105.6 75.2 134.4 158.4-22.4-44.8-57.6-81.6-100.8-107.2 12.8 30.4 19.2 64 19.2 96 0 126.4-102.4 228.8-228.8 228.8-17.6 0-33.6-1.6-51.2-6.4-19.2-3.2-38.4-9.6-56-19.2-27.2-16-49.6-36.8-67.2-62.4l4.8 1.6c9.6 3.2 19.2 6.4 28.8 8 38.4 8 80 3.2 115.2-14.4 36.8-20.8 57.6-35.2 75.2-28.8 17.6 4.8 30.4-11.2 19.2-28.8-20.8-27.2-56-41.6-91.2-35.2-36.8 4.8-68.8 30.4-116.8 6.4l-9.6-4.8c-3.2-1.6 9.6 3.2 6.4 0-9.6-4.8-20.8-11.2-30.4-17.6 0 0 8 1.6 6.4 1.6-12.8-8-22.4-19.2-30.4-32-8-16-9.6-33.6-1.6-49.6 4.8-8 11.2-14.4 19.2-17.6l9.6 4.8s-3.2-4.8-4.8-8h1.6c4.8 1.6 17.6 8 24 11.2 4.8 1.6 8 4.8 11.2 9.6 0 0 1.6-1.6 0-4.8-1.6-4.8-6.4-9.6-11.2-14.4 4.8 3.2 9.6 4.8 14.4 8 3.2-9.6 6.4-19.2 4.8-28.8 0-4.8 0-11.2-1.6-16-1.6-3.2 1.6-4.8 3.2-1.6 0-3.2-1.6-4.8-3.2-8l3.2-3.2c1.6-1.6 4.8-3.2 6.4-4.8 14.4-9.6 30.4-17.6 46.4-24 12.8-6.4 24-9.6 27.2-11.2 3.2-1.6 6.4-4.8 9.6-8 11.2-9.6 19.2-22.4 20.8-36.8V326.4c-1.6-8-14.4-12.8-80-19.2-22.4-3.2-41.6-20.8-46.4-43.2 12.8-32 35.2-60.8 64-80 1.6-1.6-6.4 0-4.8-1.6 4.8-3.2 11.2-4.8 17.6-8 3.2-1.6-12.8-6.4-25.6-4.8-8 0-16 3.2-24 6.4 3.2-3.2 12.8-6.4 11.2-6.4-17.6 3.2-33.6 9.6-49.6 19.2 0-1.6 0-3.2 1.6-4.8-12.8 4.8-22.4 12.8-30.4 24v-4.8c-4.8 4.8-11.2 9.6-14.4 14.4-35.2-14.4-75.2-17.6-113.6-9.6-8-6.4-14.4-14.4-20.8-22.4h-1.6c-3.2-3.2-4.8-8-8-12.8-1.6-3.2-3.2-6.4-4.8-11.2-1.6 0-1.6 3.2-1.6 3.2-6.4-17.6-9.6-35.2-9.6-54.4-11.2 8-19.2 17.6-24 30.4-1.6 4.8-3.2 6.4-4.8 9.6v-1.6c0-1.6 1.6-6.4 1.6-6.4V144c-4.8 3.2-6.4 8-9.6 11.2-1.6 4.8-3.2 8-4.8 12.8v-1.6-3.2 1.6c-14.4 30.4-22.4 64-25.6 97.6-1.6 6.4-1.6 11.2-1.6 17.6-9.6 11.2-19.2 22.4-25.6 35.2-25.6 41.6-43.2 88-56 136C27.2 433.6 36.8 416 48 400c-20.8 54.4-32 113.6-32 174.4 3.2-17.6 8-35.2 14.4-52.8-3.2 72 9.6 142.4 40 208 40 89.6 107.2 164.8 190.4 216 33.6 22.4 72 41.6 112 52.8 4.8 1.6 11.2 3.2 16 4.8-1.6 0-3.2-1.6-4.8-1.6 46.4 14.4 96 20.8 144 20.8 172.8 0 230.4-65.6 235.2-72 8-8 16-17.6 20.8-27.2l9.6-4.8 1.6-1.6 3.2-1.6c25.6-12.8 51.2-27.2 73.6-46.4 33.6-24 57.6-59.2 68.8-99.2 6.4-14.4 6.4-30.4 1.6-46.4l4.8-9.6c36.8-59.2 57.6-128 60.8-198.4V512c0-14.4 0-28.8-3.2-44.8zM385.6 265.6c-1.6 1.6-1.6 4.8-3.2 8 1.6-3.2 3.2-4.8 3.2-8z"></path>
  </g>
</svg>