<svg viewBox="0 0 1024 1024" version="1.1" xmlns="http://www.w3.org/2000/svg">
  <g class="fore">
    <path d="M448 714.666667a53.333333 53.333333 0 1 0 53.333333-53.333334 53.333333 53.333333 0 0 0-53.333333 53.333334zM85.333333 0a85.333333 85.333333 0 0 0-85.333333 85.333333v853.333334a85.333333 85.333333 0 0 0 85.333333 85.333333h853.333334a85.333333 85.333333 0 0 0 85.333333-85.333333V211.626667a102.186667 102.186667 0 0 0-29.44-72.32l-108.373333-107.946667A106.666667 106.666667 0 0 0 810.666667 0z m68.266667 106.666667H213.333333v166.4a46.72 46.72 0 0 0 46.933334 46.933333h55.466666a46.72 46.72 0 0 0 46.933334-46.933333V106.666667h401.066666A46.72 46.72 0 0 1 810.666667 153.6v204.8a46.72 46.72 0 0 1-46.933334 46.933333H153.6A46.72 46.72 0 0 1 106.666667 358.4V153.6A46.72 46.72 0 0 1 153.6 106.666667zM362.666667 714.666667a138.666667 138.666667 0 1 1 138.666666 138.666666 138.666667 138.666667 0 0 1-138.666666-138.666666z"></path>
  </g>
</svg>