<svg viewBox="0 0 1024 1024" version="1.1" xmlns="http://www.w3.org/2000/svg">
  <g class="fore">
    <path d="M614.4 972.8v51.2h102.4v-51.2a153.6 153.6 0 0 1 153.6-153.6v-102.4a256 256 0 0 0-256 256zM153.6 716.8v102.4a153.6 153.6 0 0 1 153.6 153.6v51.2h102.4v-51.2a256 256 0 0 0-256-256z"></path>
    <path d="M870.4 256a384 384 0 0 0-62.464-204.8 385.024 385.024 0 0 0-171.52 108.032A385.024 385.024 0 0 0 512 0a385.024 385.024 0 0 0-123.904 159.232A385.024 385.024 0 0 0 216.064 51.2 384 384 0 0 0 153.6 256v51.2a358.4 358.4 0 0 0 307.2 354.304V1024h102.4v-362.496A358.4 358.4 0 0 0 870.4 307.2V256z"></path>
  </g>
</svg>