<svg viewBox="0 0 1024 1024" version="1.1" xmlns="http://www.w3.org/2000/svg">
  <g class="fore">
    <path d="M62.439586 831.972499c0 23.561625 19.072381 42.634006 42.634006 42.634006l812.335253 0c23.561625 0 42.632983-19.072381 42.632983-42.634006L960.041828 447.115224 62.439586 447.115224 62.439586 831.972499 62.439586 831.972499zM917.408845 276.007171 425.972183 276.007171l0-85.273129c0-23.561625-19.076474-42.634006-42.639123-42.634006l-277.694603 0c-23.561625 0-43.198871 19.072381-43.198871 42.634006l0 192.425567 898.164037 0 0-64.514339C960.603623 295.084669 941.530219 276.007171 917.408845 276.007171L917.408845 276.007171zM917.408845 276.007171"></path>
  </g>
</svg>