<svg viewBox="0 0 1024 1024" version="1.1" xmlns="http://www.w3.org/2000/svg">
  <g class="fore">
    <path d="M982.646154 277.661538c3.938462-51.2 0-100.430769-7.876923-149.661538-5.907692-41.353846-37.415385-72.861538-78.769231-78.769231-51.2-7.876923-98.461538-11.815385-149.661538-7.876923-13.784615 0-19.692308 17.723077-11.815385 27.569231l220.553846 220.553846c11.815385 7.876923 27.569231 0 27.569231-11.815385zM610.461538 74.830769c-7.876923-7.876923-19.692308-11.815385-29.538461-7.876923-118.153846 33.476923-232.369231 96.492308-324.923077 191.015385-90.584615 90.584615-153.6 200.861538-187.076923 315.076923-3.938462 11.815385 0 23.630769 7.876923 31.507692l342.646154 342.646154c7.876923 7.876923 19.692308 11.815385 31.507692 7.876923 114.215385-35.446154 224.492308-96.492308 315.076923-187.076923 92.553846-92.553846 157.538462-204.8 191.015385-324.923077 3.938462-11.815385 0-21.661538-7.876923-29.538461L610.461538 74.830769z m-131.938461 618.338462c-19.692308 19.692308-49.230769 19.692308-66.953846 0l-88.615385-88.615385c-19.692308-19.692308-19.692308-49.230769 0-66.953846 19.692308-19.692308 49.230769-19.692308 66.953846 0l88.615385 88.615385c19.692308 19.692308 19.692308 49.230769 0 66.953846z m110.276923-110.276923c-19.692308 19.692308-49.230769 19.692308-66.953846 0L433.230769 494.276923c-19.692308-19.692308-19.692308-49.230769 0-66.953846 19.692308-19.692308 49.230769-19.692308 66.953846 0l88.615385 88.615385c19.692308 19.692308 19.692308 49.230769 0 66.953846z m110.276923-110.276923c-19.692308 19.692308-49.230769 19.692308-66.953846 0l-88.615385-88.615385c-19.692308-19.692308-19.692308-49.230769 0-66.953846 19.692308-19.692308 49.230769-19.692308 66.953846 0l88.615385 88.615384c19.692308 19.692308 19.692308 49.230769 0 66.953847zM41.353846 736.492308c-3.938462 53.169231-1.969231 106.338462 7.876923 161.476923 5.907692 41.353846 37.415385 72.861538 78.769231 78.769231 53.169231 7.876923 106.338462 11.815385 161.476923 7.876923 13.784615-1.969231 19.692308-17.723077 11.815385-27.569231L66.953846 724.676923c-7.876923-7.876923-25.6-1.969231-25.6 11.815385z"></path>
  </g>
</svg>