<svg viewBox="0 0 1024 1024" version="1.1" xmlns="http://www.w3.org/2000/svg">
  <g class="fore">
    <path d="M293.937776 90.445667m-90.445667 0a2.123 2.123 0 1 0 180.891334 0 2.123 2.123 0 1 0-180.891334 0Z" />
    <path d="M503.543373 307.804966C495.321039 208.668336 380.208372 210.031624 380.208372 210.031624L198.933614 210.031624c-129.853223 2.513563-125.209522 97.773342-125.209522 97.773342L73.638886 530.191392l0.170411 0c0 0.511233-0.085206 0.979864-0.085206 1.661508 0 21.130971 17.083708 38.172076 38.214679 38.172076s38.086871-17.041105 38.086871-38.172076c0-0.681644-0.085206-1.150275-0.085206-1.661508l0.085206 0 0-205.771348 23.90015 0L173.584969 972.280269c0 28.458646 23.005492 51.677152 51.677152 51.677152 28.373441 0 51.506741-23.218506 51.506741-51.677152l-0.042603-417.890507 23.005492 0 0 418.359138 0.340822 0.426028c0.298219 28.032618 23.218506 50.654686 51.251125 50.654686 28.373441 0 51.293727-22.96289 51.293727-51.251125L402.404412 323.440181l24.880014 0 0 206.793814 0.042603 0c0 0.255617 0 0.255617 0 0.340822 0 21.045765 16.998503 38.172076 38.129473 38.172076 21.045765 0 38.086871-17.126311 38.086871-38.172076 0-0.085206 0-0.085206 0-0.340822l0 0L503.543373 307.804966z" />
    <path d="M740.712957 90.445667m-90.360461 0a2.121 2.121 0 1 0 180.720923 0 2.121 2.121 0 1 0-180.720923 0Z" />
    <path d="M950.318554 307.804966c-8.307539-99.094028-123.335-97.773342-123.335-97.773342l-181.232156 0c-129.895826 2.513563-125.209522 97.773342-125.209522 97.773342l0 222.429028 0.085206 0c0 0.511233-0.085206 0.979864-0.085206 1.661508 0 21.130971 17.126311 38.172076 38.172076 38.172076 21.045765 0 38.086871-17.041105 38.086871-38.172076 0-0.681644-0.042603-1.150275-0.085206-1.661508l0.085206 0 0-205.771348 23.942753 0-0.340822 647.860225c0 28.458646 23.090698 51.677152 51.634549 51.677152 28.373441 0 51.549344-23.218506 51.549344-51.677152l-0.085206-417.890507 22.96289 0 0 418.359138 0.383425 0.426028c0.340822 28.032618 23.175903 50.654686 51.208522 50.654686 28.416043 0 51.421536-22.96289 51.421536-51.251125L849.264799 323.440181l24.794808 0 0 206.793814 0.042603 0c0 0.255617 0 0.255617 0 0.340822 0 21.045765 17.041105 38.172076 38.214679 38.172076 20.96056 0 38.044268-17.126311 38.044268-38.172076 0-0.085206 0-0.085206 0-0.340822l0 0L950.361156 307.804966z" />
  </g>
</svg>