<svg viewBox="0 0 1024 1024" version="1.1" xmlns="http://www.w3.org/2000/svg">
  <g class="fore">
    <path d="M896 193.28L745.152 42.432 654.72 132.928 564.16 42.432 397.44 209.152 332.8 144.512l-128 213.44 461.248 461.248 213.44-128.064-59.648-59.648 136.512-136.512-90.496-90.496 90.496-90.56-90.496-90.496L896 193.28zM578.56 390.144l-30.208-30.144 196.864-196.928 30.208 30.208-196.864 196.864z m60.288 60.352l166.72-166.72 30.144 30.144-166.656 166.72-30.208-30.144z m120.704 120.64l-30.144-30.144 76.16-76.16 30.144 30.08-76.16 76.224zM487.936 299.648l-30.144-30.208 106.368-106.368 30.144 30.208-106.368 106.368zM590.592 864.448L159.552 433.408 31.616 646.656l345.792 345.728 213.184-127.936z"></path>
  </g>
</svg>