<svg viewBox="0 0 1024 1024" version="1.1" xmlns="http://www.w3.org/2000/svg">
  <g class="fore">
    <path d="m793.83251,204.06275c-12.19556,-72.24107 -69.9378,-127.06272 -139.60894,-127.06272c-69.74225,0 -127.50226,54.93817 -139.62671,127.27633c-289.26232,29.94509 -515.48462,296.3049 -514.59573,620.34104c0.19556,67.81339 51.6978,122.38258 113.77782,122.38258l540.44462,0c15.71556,0 28.44445,-13.90446 28.44445,-31.07143c0,-34.31451 -25.47556,-62.14285 -56.88891,-62.14285l-141.3156,0l63.64447,-93.85513c42.91557,-70.35736 18.40001,-171.4366 -59.92891,-207.01338c-42.47113,-19.2837 -91.64447,-9.03013 -128.42671,21.12857l-58.24002,47.7529c-12.55112,10.31183 -30.38223,7.59308 -39.84001,-6.19487c-9.42223,-13.74911 -6.89778,-33.22701 5.67111,-43.51942l61.83113,-50.66585c65.49336,-53.71473 156.94227,-53.63705 222.45341,0c19.32445,15.82701 81.54669,75.85312 72.53336,181.01048l210.72007,244.57097l160.67561,0c15.71556,0 28.44445,-13.90446 28.44445,-31.07143c0,-34.31451 -25.47556,-62.14285 -56.88891,-62.14285l-95.34225,0l-175.14673,-203.28481l274.56009,-168.2712a103.39559,112.94464 0 0 0 52.8178,-98.51584c0,-41.55803 -20.83556,-79.52343 -54.18668,-99.48683c-72.10669,-43.15044 -175.98228,-80.16428 -175.98228,-80.16428zm-139.60894,74.90156c-23.57334,0 -42.66668,-20.87612 -42.66668,-46.60714c0,-25.75045 19.09334,-46.60714 42.66668,-46.60714c23.55556,0 42.66668,20.8567 42.66668,46.60714c0,25.73103 -19.11112,46.60714 -42.66668,46.60714z"></path>
  </g>
</svg>