<svg viewBox="0 0 1024 1024" version="1.1" xmlns="http://www.w3.org/2000/svg">
  <g class="fore">
    <path d="m970.389338,160.499481l-916.778729,0c-29.482669,0 -53.61067,25.989597 -53.61067,51.689732s24.128002,51.669056 53.61067,51.669056l12.949334,0l0,103.379464l892.181394,0l0,-103.379464l11.648001,0c29.504002,0 53.61067,-25.968921 53.61067,-51.669056s-24.106668,-51.689732 -53.61067,-51.689732zm-458.389364,155.482713c-14.805334,0 -26.794668,-11.971342 -26.794668,-26.713253s11.989334,-26.713253 26.794668,-26.713253c14.826668,0 26.794668,11.971342 26.794668,26.713253s-11.968001,26.713253 -26.794668,26.713253zm-445.44003,257.993789l892.181394,0l0,-165.36579l-892.181394,0l0,165.36579zm445.44003,-111.112247c14.826668,0 26.794668,11.950666 26.794668,26.692577c0,14.762587 -11.968001,26.713253 -26.794668,26.713253c-14.805334,0 -26.794668,-11.950666 -26.794668,-26.713253c-0.021333,-14.741912 11.989334,-26.692577 26.794668,-26.692577zm-445.44003,253.713879l0,120.20964c0,14.679884 1.898667,26.713253 16.640001,26.713253l107.178674,0c14.741334,0 21.418668,-12.03337 21.418668,-26.713253l0,-76.707562l601.706707,0l0,76.707562c0,14.679884 5.376,26.713253 20.096001,26.713253l107.200007,0c14.698668,0 17.920001,-12.03337 17.920001,-26.713253l0,-221.418135l-892.160061,0l0,101.208495zm445.44003,-53.405831c14.826668,0 26.794668,11.971342 26.794668,26.692577c0,14.783263 -11.968001,26.692577 -26.794668,26.692577c-14.805334,0 -26.794668,-11.909314 -26.794668,-26.692577c-0.021333,-14.70056 11.989334,-26.692577 26.794668,-26.692577z"></path>
  </g>
</svg>