<svg viewBox="0 0 1024 1024" version="1.1" xmlns="http://www.w3.org/2000/svg">
  <g class="fore">
    <path d="M625.024 85.312V8.384l-262.4 168.96c18.752 26.304 29.568 56.192 34.56 87.488 11.904 74.88-9.28 158.272-34.56 222.4-97.728 215.36-87.04 389.696 19.008 461.888 9.024 6.144 19.2 11.776 30.72 16.512 22.784 9.6 50.752 15.744 84.672 15.744 131.264 0 201.088-107.008 181.12-231.552-7.936-49.92-26.816-95.04-43.968-136.128-25.664-61.44-47.616-113.92-23.808-160 3.2-6.272 6.208-12.352 8.96-18.304-13.504 69.44 16.64 111.872 52.928 162.688 25.344 35.584 53.632 75.264 72 131.264 31.424 96 12.032 189.056-49.088 247.232 90.24 4.16 159.936-18.816 209.024-63.872 65.984-60.544 83.584-150.72 75.008-232.448-12.992-122.56-107.904-233.92-188.16-305.344C700.48 294.4 624.96 226.24 624.96 85.312z"></path>
    <path d="M310.4 361.792c-16.384 11.968-33.024 22.912-50.752 34.56-15.616 10.24-32 21.056-49.792 33.536-40.96 28.864-83.328 63.488-115.072 111.104-32.32 48.512-52.096 108.096-52.096 184.448 0 132.224 73.856 255.872 240.96 255.872h5.312c-50.56-54.464-74.816-127.552-78.464-205.44-4.48-96.64 21.696-206.976 73.536-321.792 11.264-28.992 20.928-60.8 26.368-92.288z"></path>
  </g>
</svg>