<svg viewBox="0 0 1024 1024" version="1.1" xmlns="http://www.w3.org/2000/svg">
  <g class="fore">
    <path d="M991.752994 127.787521L878.664038 15.398496C868.365044 5.099502 854.966352 0 841.667651 0c-13.398692 0-26.797383 5.099502-36.996387 15.398496-20.497998 20.497998-20.497998 53.594766 0 74.092765L877.964106 162.984084l-54.194707 56.494483c-17.698272 18.198223-17.698272 47.395372 0 65.493604 8.59916 9.199102 20.198028 13.698662 31.696904 13.698662h0.499951l61.294015-0.09999v479.453178c0 17.798262-14.398594 32.696807-32.096866 32.696807h-0.599941c-17.398301-0.299971-31.396934-14.498584-31.396934-31.996875V479.95313c0-76.59252-62.093936-138.586466-138.586466-138.586467-17.698272 0-31.996875-14.398594-31.996876-31.996875v-223.978127c0-47.095401-38.19627-85.291671-85.29167-85.291671h-447.956255C102.239861 0.09999 64.043591 38.29626 64.043591 85.391661v822.219705c0 5.399473-4.39957 9.899033-9.799043 9.899033-14.298604 0-27.497315 5.599453-37.296358 14.798555C7.049156 941.308075 0.749772 954.106826 0.04984 968.405429c-1.299873 30.497022 22.997754 55.594571 53.294795 55.594571h639.237575c29.297139 0 53.794747-23.397715 54.094717-52.694854 0.299971-29.79709-23.597696-53.894737-53.294795-53.894737-5.999414 0-10.798945-4.799531-10.798946-10.798945V480.15311c0-17.698272 14.298604-31.996875 31.996876-31.996875 8.799141 0 16.89835 3.599648 22.697783 9.399082 5.799434 5.799434 9.399082 13.798652 9.399082 22.697783v298.570843c0 76.59252 62.093936 138.686456 138.586466 138.686456 76.59252 0 138.686456-62.193926 138.686457-138.686456V204.380041c0-30.097061-12.398789-57.194415-32.196856-76.59252zM176.032654 175.982814c0-35.396543 28.697198-63.993751 63.993751-63.99375h271.97344c35.296553 0 63.993751 28.597207 63.99375 63.99375v175.982814c0 35.296553-28.697198 63.993751-63.99375 63.993751H240.026405c-35.296553 0-63.993751-28.697198-63.993751-63.993751V175.982814z m783.923445 58.494288l-42.895811 0.09999H897.962153l26.197442-27.297334 27.397324-28.497217c5.499463 7.499268 8.39918 16.298408 8.39918 25.5975v30.097061z"></path>
  </g>
</svg>