<svg viewBox="0 0 1024 1024" version="1.1" xmlns="http://www.w3.org/2000/svg">
  <g class="fore">
    <path d="m511.99998,-0.5c11.56227,0 22.28062,3.62495 31.61069,10.03315c6.99616,4.80308 12.88348,10.88601 18.25327,18.19403a132.50779,132.5078 0 0 1 3.31309,4.71142l0.52312,0.78691l0.74891,1.14907l0.73773,1.16472l0.48959,0.78691l0.73214,1.20161l0.73103,1.23067l0.48847,0.83945l0.49182,0.85622l0.74109,1.31897l0.75226,1.36369l0.50859,0.9367l0.51418,0.96129l0.78803,1.49111l0.80815,1.55371l0.83051,1.62189l1.14907,2.27691l1.51459,3.04706l1.28209,2.61224l1.35251,2.78214l2.65248,5.48828l1.81638,3.7289l1.17366,2.38086l1.28879,2.57312l0.98588,1.92928l0.55777,1.07306l0.87969,1.65766l0.66508,1.22173l0.47953,0.85957l0.46499,0.81598l0.60248,1.02947l0.49517,0.81933l0.28503,-0.15984l1.16025,-0.66508l0.8931,-0.52871l0.91658,-0.55665l0.94564,-0.58795l0.97805,-0.62148l1.01382,-0.65725l1.05518,-0.69637l1.09766,-0.73773l1.54029,-1.05071l2.06006,-1.43522l1.76832,-1.24967l1.40057,-1.00153l2.49264,-1.79738l3.26949,-2.38533l7.02075,-5.16077l3.93569,-2.87045l3.03252,-2.18749l1.72137,-1.22955l2.19531,-1.55035l2.08912,-1.45534l1.50564,-1.03282l0.97805,-0.66284l1.43299,-0.95905l1.85215,-1.21614l1.35474,-0.86963l0.88863,-0.56112l0.87969,-0.54771l0.87186,-0.53653l1.29662,-0.78021l1.28879,-0.75897l0.85733,-0.49406l1.28656,-0.72767l1.29438,-0.71426l0.86851,-0.46947l1.75826,-0.92887l0.89422,-0.46164c7.89149,-4.03964 15.54602,-6.89109 23.47328,-8.34866c10.86366,-1.99635 21.75526,-1.23402 32.10251,3.05712c10.93072,4.53146 19.49624,12.28323 25.58252,22.12189c4.45769,7.20742 7.40973,15.16039 9.44073,24.08806l0.20455,0.91434l0.29397,1.35698l0.18667,0.89757l0.26603,1.34021l0.2515,1.33686l0.15984,0.89198l0.22803,1.34468l0.21573,1.35586l0.13637,0.91434l0.19561,1.38939l0.18555,1.41622l0.17437,1.44975l0.16543,1.48888l0.10619,1.01718l0.15202,1.56489l0.14531,1.61966l0.13972,1.6789l0.13413,1.74485l0.08495,1.20273l0.12743,1.86668l0.1632,2.61336l0.19896,3.49081l0.15761,2.98558l0.55665,11.3566l0.21797,3.9994l0.18667,3.05712l0.15872,2.31044l0.12966,1.7102l0.13413,1.59507l0.1386,1.49223l0.10842,1.05853l0.14978,1.33798l0.15761,1.26309l0.1632,1.17143l0.52535,-0.08942l1.54588,-0.28727l1.28991,-0.25932l1.34804,-0.28727l1.41734,-0.31968l1.49782,-0.35433l1.58612,-0.3901l1.68784,-0.42923l2.26685,-0.59466l2.46134,-0.66396l3.2382,-0.89422l2.9621,-0.83498l12.61968,-3.60706l3.48746,-0.97917l3.87421,-1.06636l2.41439,-0.64831l2.84697,-0.74556l1.6286,-0.41358l1.57383,-0.39122l2.02317,-0.48511l1.46764,-0.3398l0.95793,-0.21573l1.4084,-0.30627l1.38269,-0.28839l0.90763,-0.1822l1.3458,-0.26044l1.33239,-0.24591l1.32345,-0.22914c2.34733,-0.39681 4.67677,-0.73103 7.12135,-1.02724c9.08304,-1.09989 17.48089,-1.10995 25.63394,0.37669c11.30518,2.06118 21.57306,6.95815 29.83901,15.2241c8.77789,8.77789 13.62792,19.82039 15.10673,31.83424c1.04288,8.48392 0.40687,17.07961 -1.46652,26.3169l-0.18108,0.87745l-0.27609,1.29885l-0.28391,1.28321l-0.19449,0.84951l-0.30068,1.26756l-0.20679,0.8428l-0.3208,1.26532l-0.33533,1.26979l-0.23138,0.85174l-0.36104,1.28879l-0.25038,0.86851l-0.39122,1.32121l-0.41134,1.34692l-0.58124,1.84321l-0.6226,1.90804l-0.66731,1.98405l-0.53094,1.54588l-0.55889,1.59954l-0.59019,1.65878l-1.05071,2.90733l-1.38492,3.75349l-1.79626,4.7919l-3.97146,10.45679l-1.50453,4.02399l-1.31897,3.597l-0.83833,2.33615l-0.61142,1.74261l-0.42587,1.2385l-0.40016,1.18484l-0.37445,1.13566l-0.35098,1.08871l-0.43258,1.38604l-0.29956,0.99594l-0.3018,1.03841l0.92664,0.11737l1.12672,0.1319l1.58053,0.16767l1.6789,0.15761l1.7862,0.15202l0.9367,0.07377l1.96728,0.14196l2.09918,0.13749l2.82685,0.16767l3.06941,0.1632l4.03182,0.19449l10.49926,0.46164l4.35932,0.20902l2.47028,0.12854l3.13983,0.17773l2.24449,0.1386l2.85927,0.19449l1.37598,0.1006l2.00305,0.15984l1.29662,0.11066l1.26867,0.11513l1.24185,0.11848l1.21726,0.12407l1.19378,0.12966l1.17255,0.13413l1.15354,0.13972l1.69678,0.2202l1.66325,0.23473l1.09318,0.16431l1.08312,0.17102l1.07418,0.17884l1.59954,0.28168l1.06189,0.19785l1.05742,0.20567l1.05853,0.2135l1.05965,0.22356l1.063,0.23138c9.00144,1.99858 16.98236,4.86232 24.20095,9.16576c10.09575,6.01587 18.08225,14.56685 22.6886,25.6753c4.67789,11.28282 5.11941,23.2542 1.84545,34.67451c-2.42334,8.45709 -6.62505,16.00543 -12.27988,23.30562l-1.04065,1.32792l-0.77462,0.96576l-0.77126,0.94452l-0.7735,0.92664l-0.51865,0.60919l-0.7858,0.9054l-0.79697,0.89981l-0.81486,0.89757l-0.5533,0.59801l-0.84951,0.90204l-0.58124,0.60583l-0.59466,0.61142l-0.91881,0.92775l-0.95458,0.94676l-0.99482,0.96799l-1.0373,0.99482l-1.08424,1.02612l-1.1379,1.06077l-1.60401,1.47546l-1.7102,1.55371l-2.30597,2.06788l-3.03364,2.69049l-5.63918,4.9551l-3.01352,2.66031l-1.36927,1.22285l-1.69343,1.52465l-1.17366,1.07083l-1.44864,1.33798l-1.00264,0.94117l-0.63043,0.60136l-0.60248,0.58013l-0.85174,0.83386l-0.62819,0.62595l0.32415,0.2705l1.09877,0.90316l0.91434,0.73438l0.93893,0.7422l0.97582,0.75338l1.54588,1.16808l1.38269,1.02053l1.17814,0.8551l1.90804,1.36145l1.025,0.72208l2.20761,1.53806l3.7602,2.57983l4.38056,2.96993l10.10245,6.79607l4.03405,2.7352l3.70431,2.54182l2.8615,1.98852l2.67595,1.88792l1.52465,1.08983l1.94828,1.41287l1.40169,1.03171l1.35586,1.01159l1.31339,0.99482l1.27762,0.98364l1.24297,0.97246l1.2139,0.96576l0.79586,0.6416l1.17478,0.96352l0.7735,0.64272l1.528,1.29327l1.13342,0.98029l0.75226,0.65949l0.75226,0.66731l1.12672,1.01382c6.89667,6.25284 12.53361,12.5638 16.94771,19.46941c6.14888,9.61846 9.74253,20.14231 9.74253,31.57715c0,13.39318 -5.16971,25.31314 -13.83247,34.96737c-5.96445,6.64629 -13.23781,11.93113 -21.94416,16.64479a154.26417,154.26418 0 0 1 -4.71701,2.45463l-0.78803,0.38899l-1.19937,0.58124l-1.23738,0.58571l-0.83386,0.38563l-1.26756,0.57565l-1.29215,0.57118l-0.87634,0.38004l-1.34357,0.57118l-0.91434,0.38228l-1.40616,0.57454l-1.94269,0.77574l-1.00376,0.39346l-1.55035,0.59689l-2.15619,0.81262l-2.26797,0.83833l-2.3898,0.86739l-3.17672,1.13231l-2.7039,0.95011l-5.11606,1.76944l-7.2063,2.46246l-4.48228,1.54029l-3.99828,1.39387l-2.08353,0.73773l-2.41775,0.86851l-3.06494,1.12895l-1.98293,0.75226l-1.4777,0.57677l-1.33909,0.53541l1.03059,1.24408l1.04624,1.23738l0.82827,0.96352l1.16808,1.33798l1.24632,1.40504l1.67555,1.85998l1.81862,1.98964l2.38645,2.57871l2.17407,2.32385l2.84809,3.01799l7.47345,7.8602l4.1123,4.35038l2.1696,2.31715l2.05,2.20649l1.9371,2.10477l1.38269,1.51794l1.3268,1.47099l1.27426,1.4274l1.62189,1.84209l1.1636,1.34133l0.75226,0.87745l1.09542,1.29327l0.70867,0.84951l0.69414,0.84057l1.01382,1.24632l0.65949,0.82268l0.64831,0.81709l0.63713,0.81374l0.93558,1.21726l0.91658,1.21502l0.59242,0.79809l0.58683,0.80033c0.77685,1.06859 1.54141,2.14613 2.3015,3.24602c5.45139,7.88479 9.50109,15.53149 11.99932,23.62754c3.67748,11.91772 3.75237,24.27249 -1.16249,36.12315c-4.60635,11.11069 -12.59286,19.66167 -22.6886,25.67865c-7.21859,4.30232 -15.19951,7.16718 -24.19984,9.16464l-1.59395,0.34427l-1.58724,0.32415l-1.05965,0.20679l-1.59283,0.29286l-1.06748,0.18667l-1.07418,0.17884l-1.08424,0.17102l-1.64313,0.24368l-1.1133,0.15425l-1.12784,0.14866l-1.14348,0.14308l-1.16249,0.13637l-1.18484,0.1319l-1.20384,0.12631l-1.22955,0.12184l-1.25526,0.11625l-1.28321,0.1129l-1.9807,0.16208l-2.7542,0.20344l-1.43075,0.09725l-1.46652,0.09389l-2.27579,0.13749l-3.18454,0.17549l-2.50717,0.12743l-3.51429,0.16767l-8.31178,0.36216l-4.23637,0.19449l-3.83956,0.19561l-2.92298,0.16543l-1.64089,0.1006l-2.56194,0.17549l-1.43969,0.10842l-1.37263,0.11178l-0.87857,0.07601l-1.6789,0.15872l-1.19378,0.12519l-1.1446,0.12966l-1.2955,0.15984l0.40687,1.39275l0.42252,1.38045l0.34316,1.08312l0.36775,1.12895l0.66955,1.99299l0.74556,2.1506l0.65613,1.84656l0.89869,2.47923l0.99147,2.68937l1.09095,2.91739l4.26767,11.24706l1.82197,4.85673l0.94787,2.56865l1.3078,3.59924l0.79921,2.25008l0.74556,2.14278l0.35433,1.03506l0.50747,1.51123l0.63713,1.94493l0.3018,0.94787l0.4337,1.39051l0.27721,0.91099l0.39905,1.34357l0.25485,0.88304l0.36887,1.31003l0.34986,1.29662l0.33533,1.28879l0.21238,0.84392l0.20679,0.8428l0.2012,0.84392l0.29397,1.27203c0.25709,1.13566 0.503,2.28362 0.74109,3.45951c1.87339,9.2373 2.50941,17.83299 1.46652,26.3169c-1.47882,12.01497 -6.32773,23.05635 -15.10673,31.83424c-13.75981,13.75981 -31.19487,18.24433 -51.18628,17.2361l-0.48735,-0.02571l-1.44193,-0.08495l-1.41957,-0.09613l-0.93893,-0.07266l-0.93111,-0.07824l-1.39387,-0.1319l-0.92775,-0.09613l-1.39834,-0.15872l-0.93893,-0.11513l-0.94564,-0.12296l-0.9557,-0.1319l-0.96688,-0.13972l-1.4777,-0.22803l-1.51459,-0.24815l-1.03506,-0.17773l-1.05742,-0.18779l-2.18749,-0.40687l-1.71579,-0.3331l-1.18149,-0.23585l-1.83762,-0.37669l-3.24826,-0.68743l-2.7855,-0.60583l-3.74455,-0.83274l-7.40973,-1.67778l-3.53664,-0.78691l-3.16442,-0.68408l-2.38086,-0.49629l-1.3268,-0.26827l-1.66213,-0.32192l-1.54924,-0.28615l-1.44975,-0.2515l-1.36257,-0.21908l-0.97023,-0.14531l-0.62595,-0.08607l-0.91099,-0.11737l-0.88192,-0.10284l-0.57454,-0.06036l-0.84392,-0.08048l-0.98364,-0.07824l-0.17326,0.51418l-0.1699,0.51753l-0.33198,1.05071l-0.24368,0.81039l-0.24032,0.83274l-0.23809,0.86292l-0.31633,1.20496l-0.23809,0.95011l-0.3208,1.34133l-0.41022,1.80968l-0.33869,1.57047l-0.3521,1.69343l-0.46276,2.30597l-0.49294,2.54182l-0.63937,3.39133l-1.3648,7.44662l-0.48847,2.64242l-0.63043,3.33991l-0.30851,1.59618l-0.45493,2.30932l-0.44823,2.21208l-0.44487,2.12154l-0.29621,1.36816l-0.29509,1.33239l-0.29509,1.30109l-0.29733,1.26979l-0.29956,1.24185l-0.4527,1.81415c-0.0503,0.19896 -0.1006,0.39569 -0.15314,0.59242l-0.30851,1.16919l-0.31298,1.15019l-0.15761,0.56783l-0.3208,1.12225l-0.1632,0.55665l-0.33086,1.10213l-0.33757,1.08983l-0.17214,0.54212l-0.34986,1.07642l-0.35769,1.07083l-0.36887,1.06636l-0.18779,0.53206l-0.3834,1.06412l-0.39569,1.06524l-0.40687,1.06859c-6.95033,18.0163 -17.76369,31.7873 -35.10932,38.9813c-11.23364,4.65777 -23.11112,5.08364 -34.52808,1.97064c-8.31737,-2.26685 -15.90371,-6.21036 -23.40398,-11.5578a131.76,131.76001 0 0 1 -5.3139,-3.97928l-0.63713,-0.50859l-0.44935,-0.36216l-0.89646,-0.73438c-0.14978,-0.12296 -0.29956,-0.24815 -0.44823,-0.37334l-0.89981,-0.75897l-0.4527,-0.38675l-0.90987,-0.79138c-0.15314,-0.13413 -0.30627,-0.26827 -0.45941,-0.40463l-0.92887,-0.82939l-0.94564,-0.85845l-0.96576,-0.88975l-0.49182,-0.45829l-1.00153,-0.94452l-1.03059,-0.98364l-1.06189,-1.02724l-1.09877,-1.07195l-1.13678,-1.12001l-1.17925,-1.17143l-1.85998,-1.86445l-1.55818,-1.57383l-2.7732,-2.82462l-7.43991,-7.6277l-2.85592,-2.8861l-1.5593,-1.54924l-1.07083,-1.05071l-1.03394,-0.99929l-0.99706,-0.95123l-0.96129,-0.90316l-0.9244,-0.85622l-0.89087,-0.80815c-0.14531,-0.13078 -0.2895,-0.26044 -0.43258,-0.38675l-0.98364,-0.86628l-0.85622,1.16584l-0.81262,1.13342l-0.83833,1.20049l-1.16472,1.7102l-0.6036,0.9054l-0.93558,1.42181l-0.64384,0.9937l-0.99929,1.5593l-1.39722,2.21543l-1.09877,1.76944l-0.76009,1.23291l-0.78244,1.27538l-1.60065,2.63683l-5.0367,8.38667l-2.28473,3.78926l-2.13383,3.51317l-1.61071,2.62565l-1.53471,2.47475l-1.46652,2.33615l-1.06077,1.66772l-1.36816,2.12042l-1.32456,2.01535l-0.97023,1.44864l-0.95346,1.40169l-0.62819,0.90987l-0.62372,0.89198l-0.62037,0.87522l-0.61813,0.8618l-0.9244,1.26756l-0.61589,0.83162l-0.92775,1.22955l-0.93446,1.21502l-0.94452,1.20273l-0.63713,0.79809l-0.96911,1.1949l-0.99035,1.19826c-5.95439,7.14258 -12.09545,13.01091 -18.991,17.63626c-9.58157,6.42721 -20.28203,10.17399 -31.93596,10.17399c-11.91996,0 -22.8518,-3.95245 -32.30371,-10.79436c-6.87432,-4.97522 -12.69122,-11.2247 -18.06772,-18.74509l-0.30515,-0.42811l-0.60136,-0.8551l-0.59242,-0.85398l-0.87186,-1.28209l-0.5723,-0.85845l-0.56559,-0.86292l-0.55889,-0.86963l-0.83274,-1.31897l-0.82604,-1.34133l-0.54771,-0.91099l-0.54771,-0.9244l-0.54771,-0.94117l-0.54883,-0.95793l-0.55218,-0.97694l-0.83386,-1.50564l-0.56224,-1.03171l-0.85398,-1.59507l-0.87186,-1.65431l-0.88863,-1.72361l-0.91322,-1.79403l-1.25973,-2.51388l-1.31339,-2.66366l-1.37486,-2.82685l-2.19755,-4.57394l-3.39021,-7.12917l-1.96728,-4.09776l-1.53023,-3.1376l-0.94787,-1.91587l-0.89422,-1.78509l-1.05518,-2.06118l-0.60136,-1.15243l-0.76903,-1.4464l-0.55553,-1.02276l-0.53989,-0.97246l-0.52535,-0.92664l-0.5723,-0.98588l-0.89534,0.64719c-0.12296,0.08942 -0.24591,0.17884 -0.36887,0.27162l-0.7545,0.56112l-1.17366,0.8931l-1.22732,0.95682l-1.28879,1.025l-1.35586,1.09766l-0.94452,0.77574l-1.47993,1.22955l-1.03282,0.86739l-1.62301,1.37486l-1.50788,1.29103l-1.85551,1.60065l-2.64913,2.30262l-4.57394,4.00387l-5.16412,4.49346l-3.094,2.66478l-1.92704,1.64201l-2.27467,1.91587l-1.29997,1.08201l-1.66549,1.37039l-1.60065,1.29438l-0.77685,0.62148l-1.14348,0.90204l-1.48441,1.15131l-0.72879,0.55442l-0.72097,0.54324l-0.71538,0.53206l-1.06189,0.78021l-1.05742,0.76009l-1.04177,0.73326c-0.68967,0.48288 -1.38157,0.9557 -2.07906,1.42516l-0.69861,0.46723l-0.70532,0.46388c-0.9434,0.61925 -1.90469,1.23291 -2.89504,1.85327c-7.85237,4.91486 -15.54267,8.49733 -23.69237,10.54398c-11.46055,2.87827 -23.19719,2.47699 -34.36265,-2.15395c-11.18558,-4.63877 -19.82263,-12.66887 -25.88321,-22.83615c-4.35932,-7.31025 -7.23201,-15.37835 -9.21047,-24.47593l-0.19338,-0.90093l-0.27721,-1.33798l-0.34651,-1.7672l-0.24368,-1.32009l-0.23026,-1.32121l-0.21797,-1.3268l-0.1386,-0.89087l-0.19896,-1.34915l-0.12631,-0.91099l-0.1822,-1.38492l-0.17102,-1.41399l-0.1632,-1.44864l-0.10395,-0.987l-0.1509,-1.51682l-0.1889,-2.09695l-0.09054,-1.08424l-0.21685,-2.82909l-0.12296,-1.78509l-0.15984,-2.49264l-0.11625,-1.96281l-0.19002,-3.46063l-0.18779,-3.71884l-0.55777,-11.91549l-0.21126,-4.03517l-0.21014,-3.58247l-0.15425,-2.31156l-0.12631,-1.71579l-0.1632,-1.99411l-0.10172,-1.12225l-0.14084,-1.42069l-0.10954,-1.0127l-0.15425,-1.28879l-0.16655,-1.2575l-0.41022,0.09613l-0.74667,0.17884l-1.15802,0.28839l-1.2072,0.31409l-0.83498,0.22356l-0.85957,0.23809l-1.33909,0.37781l-1.40169,0.40799l-1.97511,0.59242l-1.56489,0.48064l-2.20649,0.6919l-1.15802,0.36887l-1.80632,0.58124l-2.54853,0.83386l-2.01982,0.66843l-6.53899,2.18637l-5.26472,1.75155l-3.44945,1.13231l-3.83285,1.23514l-2.38757,0.7545l-2.26908,0.70308l-2.16066,0.65278l-2.56865,0.75226l-1.96281,0.5533l-0.9557,0.26268l-1.40393,0.37445l-1.37486,0.35545l-1.34804,0.33533l-1.33015,0.31857l-1.75044,0.39905l-1.30333,0.2828l-1.29997,0.26827l-1.30333,0.25709l-1.30891,0.24479l-1.32233,0.23473l-1.34021,0.22691l-1.43075,0.22914c-8.79577,1.35698 -16.99018,1.61407 -25.01916,0.39122c-11.66399,-1.77503 -22.31862,-6.653 -30.84166,-15.17604c-8.67841,-8.67841 -13.54073,-19.56778 -15.13803,-31.44414c-1.13342,-8.42356 -0.61925,-16.98571 1.10324,-26.1973l0.25485,-1.33015l0.26156,-1.30891l0.2705,-1.29662l0.28056,-1.28544l0.29286,-1.28321l0.30515,-1.28321l0.31857,-1.28768l0.33533,-1.29885l0.3521,-1.3145l0.36887,-1.33462l0.39122,-1.36033l0.41022,-1.38939l0.43258,-1.42516l0.61366,-1.96281l0.65949,-2.04553l0.52535,-1.59618l0.55442,-1.65319l0.7858,-2.30262l0.84168,-2.42781l1.37486,-3.8988l1.78732,-4.98528l3.03923,-8.39449l0.85957,-2.39763l1.35921,-3.84403l1.02612,-2.96769l0.76568,-2.26685l0.55889,-1.69119l0.63154,-1.97734l0.45829,-1.48217l0.41917,-1.40393l0.29062,-1.00823l0.26938,-0.97246l0.23585,-0.88416l-0.37334,-0.04918l-1.0943,-0.13525l-1.53359,-0.17214l-1.6286,-0.1632l-1.28991,-0.11737l-1.82086,-0.1509l-0.9557,-0.07266l-2.00976,-0.14196l-2.14836,-0.13749l-2.29703,-0.13413l-3.09847,-0.16543l-4.07541,-0.19673l-6.92909,-0.30627l-3.67077,-0.16767l-2.61559,-0.12854l-3.31756,-0.17437l-2.36857,-0.13413l-1.52465,-0.09389l-1.48441,-0.09501l-2.8548,-0.19896l-2.71396,-0.21238l-1.31003,-0.11178l-1.27985,-0.11625l-1.25191,-0.12072l-1.83092,-0.19002l-1.19155,-0.13302l-1.17143,-0.1386l-1.15131,-0.14419l-1.13454,-0.1509l-1.12001,-0.15649l-1.65431,-0.24815l-1.08871,-0.17437l-1.08089,-0.18108l-1.07306,-0.19002l-0.53653,-0.09725l-1.06636,-0.2012l-1.06412,-0.21014l-1.06524,-0.21908l-1.06636,-0.22803l-1.06971,-0.23697c-8.93885,-2.01535 -16.87841,-4.90703 -24.06011,-9.244c-9.97838,-6.02593 -17.8654,-14.55344 -22.43375,-25.57135c-4.90144,-11.82271 -4.93833,-24.22331 -1.27426,-36.10414c2.53847,-8.22794 6.69212,-15.86123 12.27764,-23.61636c0.99706,-1.38381 1.97846,-2.70725 2.97664,-4.00611l0.50076,-0.64831l0.7925,-1.00935l0.80368,-1.006l0.81933,-1.006l0.83833,-1.00935l0.85957,-1.01941l1.18708,-1.3771l0.9244,-1.05294l1.28544,-1.43746l1.35139,-1.48441l1.79515,-1.93599l1.14013,-1.21055l2.01535,-2.11371l2.62565,-2.71619l3.38462,-3.45504l2.65136,-2.68266l8.10499,-8.15305l2.08353,-2.11483l1.94046,-1.9874l1.36704,-1.41287l1.70796,-1.78509l1.58501,-1.68113l1.11219,-1.19602l0.70755,-0.77127l1.00935,-1.11442l0.95346,-1.06971l0.89869,-1.02835l0.70196,-0.82045l-0.25821,-0.13972l-1.31115,-0.69637l-0.6852,-0.35769l-0.70643,-0.36216l-1.48217,-0.74891l-1.99411,-0.98141l-2.16737,-1.04177l-2.35851,-1.11219l-3.10965,-1.43969l-2.8425,-1.29885l-2.45352,-1.10995l-7.14035,-3.20019l-5.27255,-2.37415l-3.45504,-1.57383l-3.22031,-1.48441l-1.82756,-0.85286l-2.32385,-1.09766l-2.20425,-1.05853l-1.06189,-0.51641l-1.54253,-0.76009l-1.97511,-0.99035l-1.89016,-0.97135l-0.91658,-0.47953l-1.34245,-0.71426l-1.3078,-0.70979l-0.8551,-0.47282l-1.26085,-0.70867l-1.2385,-0.71091l-1.21838,-0.71538l-1.2072,-0.72432l-0.7858,-0.48064c-0.39346,-0.24144 -0.78468,-0.484 -1.1759,-0.72991l-0.78244,-0.49406c-0.78132,-0.49741 -1.56377,-1.00488 -2.3518,-1.52465c-8.05357,-5.31502 -14.73116,-11.0235 -20.10878,-17.81287c-7.66123,-9.67658 -12.19158,-21.07007 -12.19158,-33.70875c0,-11.84842 3.88203,-22.70425 10.54509,-32.297c4.79526,-6.90226 10.85136,-12.94496 18.19962,-18.72609l0.37445,-0.29286l1.11666,-0.86628l0.74109,-0.56783l1.1133,-0.83833l1.11554,-0.8238l1.12336,-0.81486l1.13566,-0.80703l1.15131,-0.80256l1.17255,-0.80144l1.19714,-0.80256l1.2262,-0.80703l1.26085,-0.81374l1.74038,-1.10213l1.35474,-0.84168l1.40393,-0.86069l1.45646,-0.87857l1.51235,-0.90093l2.1126,-1.24297l2.2322,-1.29662l2.35962,-1.35363l3.14766,-1.78844l4.8109,-2.70166l7.659,-4.27102l2.99787,-1.68672l3.27732,-1.86557l2.48593,-1.43634l2.28026,-1.34021l1.68672,-1.01047l1.19155,-0.72544l1.4967,-0.92775l1.05965,-0.67067l1.00823,-0.65166l0.64607,-0.42475l0.93222,-0.6226l0.59801,-0.40799l0.46052,-0.31857l-0.37222,-0.45829l-0.91322,-1.09989l-0.64831,-0.76344l-0.67961,-0.78915l-0.71426,-0.81598l-0.74667,-0.8428l-0.78244,-0.87186l-1.24185,-1.36145l-1.32456,-1.43299l-1.41175,-1.50676l-1.50005,-1.58277l-1.54029,-1.6096l-6.33779,-6.54681l-3.11077,-3.2259l-2.37304,-2.48034l-2.1886,-2.31044l-1.23179,-1.31339l-1.92928,-2.07906l-1.08871,-1.19043l-1.03953,-1.15131l-0.99706,-1.11666l-0.9557,-1.08648l-0.91769,-1.06077l-0.59242,-0.69414l-0.86404,-1.02724l-0.83498,-1.01159l-0.81039,-1.00153l-0.78915,-0.99482l-1.025,-1.32345l-0.75338,-0.99594l-0.73438,-0.9937a143.91469,143.9147 0 0 1 -2.89504,-4.10782c-5.18648,-7.61987 -8.99474,-15.2364 -11.17887,-23.48446c-3.02582,-11.42702 -2.60889,-23.25308 2.03882,-34.46101c4.8355,-11.66287 13.37977,-20.40275 24.15065,-26.40409c7.49692,-4.17713 15.78634,-6.91344 25.21701,-8.80807a160.85904,160.85905 0 0 1 6.91344,-1.23738l1.31227,-0.19896l0.89981,-0.12966l0.90763,-0.12519l0.91434,-0.12072l1.39163,-0.17437l1.41957,-0.16431l1.94046,-0.20791l0.99482,-0.09836l1.52912,-0.14308l1.57383,-0.13637l1.07754,-0.0883l2.22996,-0.16767l2.93975,-0.20008l2.48929,-0.15202l2.6223,-0.14755l2.76873,-0.14531l5.22895,-0.24703l13.57426,-0.58571l4.78855,-0.23138l3.20578,-0.17326l2.91292,-0.17773l1.79403,-0.12184l2.09359,-0.15649l1.94493,-0.16543l1.46429,-0.13749l1.72585,-0.18332l1.44081,-0.17102l-0.42699,-1.23738l-0.39122,-1.09542l-0.41693,-1.14013l-0.60136,-1.59954l-0.65613,-1.69902l-0.52983,-1.34692l-0.95905,-2.39204l-1.06077,-2.59212l-1.16919,-2.81232l-1.55594,-3.69537l-4.2632,-10.02197l-1.94046,-4.62312l-1.01718,-2.45128l-0.95123,-2.32497l-0.89198,-2.20984l-0.63154,-1.58724l-0.79586,-2.03435l-0.74444,-1.94828l-0.52871,-1.41175l-0.503,-1.37263l-0.47841,-1.33909l-0.30739,-0.87634l-0.44376,-1.29327l-0.42475,-1.27203l-0.27274,-0.83833l-0.52312,-1.65766l-0.37445,-1.23402l-0.36104,-1.22955l-0.34875,-1.22955l-0.33869,-1.23626l-0.32863,-1.2452l-0.21573,-0.83833l-0.4214,-1.69902c-2.25567,-9.29207 -3.2069,-17.96377 -2.39539,-26.59411c1.16249,-12.3626 5.97451,-23.79744 15.01172,-32.83353c7.80654,-7.80543 17.39705,-12.71469 28.05616,-15.24534c7.81996,-1.85551 15.98978,-2.39986 24.88503,-1.99746c1.26756,0.05701 2.50493,0.12631 3.73337,0.20902l0.91769,0.06483l1.37486,0.10731l0.91546,0.07824l1.3771,0.12966l0.9244,0.09389l1.39722,0.15314l1.41734,0.16767l1.44193,0.18443l1.47435,0.20008l1.00153,0.14308l1.02053,0.1509l2.10254,0.32639l2.19531,0.35992l2.3015,0.39569l1.80409,0.3208l2.52058,0.46164l3.35556,0.63266l3.60706,0.69861l3.08506,0.60807l8.96232,1.78844l3.11077,0.60919l3.38462,0.64831l3.52099,0.65055l2.26908,0.39905l1.68337,0.28391l1.58165,0.25262l1.49111,0.22467l1.75603,0.24368l1.006,0.12743l1.29327,0.1509l1.25414,0.12966l0.61478,0.05812l1.2139,0.1006l1.0127,0.07154l0.09613,-0.60919l0.12854,-0.8864l0.16208,-1.24967l0.11625,-0.99482l0.14978,-1.41287l0.10842,-1.12895l0.13972,-1.6096l0.13637,-1.73814l0.16767,-2.36745l0.16543,-2.60889l0.16767,-2.86933l0.46276,-8.70412l0.21573,-3.77585l0.17437,-2.81232l0.17884,-2.64354l0.18555,-2.49152l0.19449,-2.35292l0.1006,-1.12895l0.10619,-1.10213l0.10842,-1.0753l0.1699,-1.566l0.11848,-1.01718l0.18667,-1.48999l0.13078,-0.97246l0.13637,-0.95682l0.14196,-0.94452l0.14755,-0.93334l0.15425,-0.9244l0.16096,-0.91769l0.16767,-0.91322l0.26491,-1.36369l0.18667,-0.90987l0.19449,-0.91099l0.30739,-1.37486l0.21573,-0.9244l0.34092,-1.40281c2.13719,-8.61469 5.25354,-16.35194 9.90461,-23.35368c6.11647,-9.206 14.51543,-16.42347 24.95433,-20.7515c10.16952,-4.21737 20.89122,-5.04005 31.54921,-3.12977c7.88479,1.41175 15.44207,4.23637 23.14577,8.24583l0.95793,0.503l0.94787,0.50635l0.93893,0.51194l0.93446,0.51865l0.92775,0.52535l0.92775,0.5343l0.9244,0.54324l0.92552,0.55442l0.92775,0.56559l0.93222,0.57789l0.93781,0.59242l0.94564,0.60583l0.95458,0.62148l0.96576,0.63937l0.97805,0.65613l0.9937,0.67625l1.00935,0.69526l1.547,1.08312l1.05742,0.75003l1.6286,1.16919l1.68449,1.22732l2.34286,1.7292l1.83762,1.37263l2.56865,1.9371l3.42039,2.60665l4.93498,3.78814l4.26655,3.2572l2.39986,1.80856l2.21431,1.64984l1.24744,0.91769l1.57606,1.1446l1.12001,0.80256l1.07306,0.75673l1.36033,0.94452l0.9747,0.66061l0.93781,0.62484l0.9054,0.58907l0.87745,0.55889l1.13119,0.69749l1.04065,0.61925l0.52424,-0.79138l0.69526,-1.0876l0.53765,-0.86404l0.7422,-1.22508l0.77685,-1.31897l0.60919,-1.05406l0.63266,-1.11666l0.66172,-1.18149l0.92775,-1.68449l0.73438,-1.35027l0.77126,-1.42852l1.94828,-3.6663l3.59365,-6.86314l1.99299,-3.78926l1.50117,-2.82462l1.43075,-2.65695l1.03059,-1.88904l0.99817,-1.80856l0.97135,-1.73255l0.94676,-1.6599l0.61925,-1.07083l0.61142,-1.044l0.6036,-1.01718l0.60025,-0.99482l0.59354,-0.97246l0.5913,-0.95011l0.88192,-1.39163l0.58683,-0.90652l0.58683,-0.89198l0.58907,-0.87969l0.59242,-0.86628l0.59466,-0.85733l0.60025,-0.84951l0.60583,-0.8428l0.61254,-0.83833l0.62148,-0.83386l0.63154,-0.83274l0.64049,-0.83274l0.6539,-0.83498c5.51063,-6.99168 11.46837,-12.79517 18.41199,-17.35123c9.23394,-6.05834 19.70079,-9.48656 30.95232,-9.48656zm119.18279,405.22152c-72.41172,0 -131.11504,58.70221 -131.11504,131.11505c0,72.41284 58.70221,131.11505 131.11504,131.11505c72.41284,0 131.11504,-58.70221 131.11504,-131.11505c0,-72.41284 -58.70332,-131.11505 -131.11504,-131.11505zm-297.95754,35.76881c-32.91066,0 -59.59084,26.68018 -59.59084,59.59084c0,32.91401 26.6813,59.59196 59.59195,59.59196s59.59084,-26.67794 59.59084,-59.59196c0,-32.91066 -26.6813,-59.59084 -59.59195,-59.59084z"></path>
  </g>
</svg>