<svg viewBox="0 0 1024 1024" version="1.1" xmlns="http://www.w3.org/2000/svg">
  <g class="fore">
    <path d="M30.448941 476.461176l0.963765 487.604706L151.702588 783.058824l119.145412 181.007058L395.113412 783.058824l118.000941 181.007058L637.138824 783.058824l116.254117 181.007058L876.212706 783.058824l117.820235 181.007058-1.024-487.604706C993.069176 214.437647 774.656 1.867294 511.006118 1.867294 247.356235 1.867294 30.448941 214.377412 30.448941 476.461176z m271.540706 11.083295a94.147765 94.147765 0 1 1 0-188.235295 94.147765 94.147765 0 0 1 0 188.235295z m421.285647-1.686589a95.412706 95.412706 0 0 1-95.653647-95.111529c0-52.585412 42.827294-95.232 95.653647-95.232 52.886588 0 95.653647 42.646588 95.653647 95.232 0 52.525176-42.767059 95.111529-95.653647 95.111529z"></path>
  </g>
</svg>