<svg viewBox="0 0 1024 1024" version="1.1" xmlns="http://www.w3.org/2000/svg">
  <g class="fore">
    <path d="M283.78894 2.506991c19.843898-3.829086 40.860219-1.658855 59.294714 6.722729 40.860219 15.615688 77.69179 41.58363 106.017052 74.922874 28.674495 33.601169 48.780317 74.074738 60.130378 116.656176-13.769744 0.024945-27.551961 0-41.321705 0.012472-0.012473 113.862314 0 227.712156 0 341.561998-134.267479-0.024945-268.54743 0.099781-402.814909-0.062363-1.209842-2.232594-3.866504-2.319903-6.01179-3.005895-23.12419-6.573057-42.294568-25.219586-49.753179-48.044434-2.719026-7.969988-3.891449-16.413934-3.866505-24.820463 0.012473-63.610231-0.012473-127.220463 0.024946-190.830694-0.062363-18.185043 6.772619-36.270305 18.920925-49.790597 13.682436-15.52838 34.03771-24.932716 54.742217-25.082387 38.053886-0.037418 76.107771-0.024945 114.161657-0.012473-11.474787-17.711084-17.311961-38.764823-17.673667-59.80609-0.785773-37.056078 14.480682-73.762923 39.999611-100.441803 18.17257-19.13296 42.095006-33.139683 68.150255-37.97905zM701.570962 2.531937c29.510158-5.862119 60.579391 2.731498 85.038149 19.644336 37.542509 25.855688 61.502363 70.619829 61.48989 116.281997 0.024945 21.864458-5.787284 43.878587-17.736029 62.288137 38.153666-0.04989 76.307333-0.012473 114.460999-0.024945 19.033179-0.04989 37.904214 7.608283 51.58665 20.829232 13.956833 13.146114 21.914348 31.792643 23.223971 50.800877v197.341389c-0.947917 23.648039-13.208477 46.610085-32.97754 59.793617-10.165164 6.97218-22.151328 11.100609-34.249744 12.921608-133.032692-0.037418-266.065384 0-399.098075-0.024945-0.012473-113.849842 0.012473-227.699683-0.012473-341.561998-12.946553-0.024945-25.893106 0.012473-38.839659-0.012472 13.545238-50.875713 39.750158-98.870256 77.866407-135.489793 23.011937-22.213691 50.152302-40.111864 79.61257-52.571986 9.691206-3.891449 19.270158-8.394056 29.634884-10.215054zM64.608039 627.795566c134.429622-0.012473 268.859245-0.012473 403.288867 0-0.012473 132.072302 0.062363 264.132132-0.037418 396.204434H138.682777c-11.512205-0.760828-23.086772-3.130621-33.36419-8.543727-20.617199-10.427089-35.796346-30.894616-39.61296-53.694519-1.546602-8.256857-1.022753-16.688331-1.097588-25.020024 0-102.986212-0.012473-205.972424 0-308.946164zM553.321705 627.783094c134.429622 0.012473 268.859245-0.024945 403.288867 0.024945-0.012473 107.089695 0.024945 214.179391-0.012472 321.269086 0.062363 21.527698-9.815932 42.756054-26.229866 56.650524-13.121169 11.487259-30.320877 17.361851-47.59542 18.272351H553.471376c-0.38665-59.843508-0.062363-119.699488-0.162143-179.542996 0-72.228794-0.012473-144.445116 0.012472-216.67391z"></path>
  </g>
</svg>