<svg viewBox="0 0 1024 1024" version="1.1" xmlns="http://www.w3.org/2000/svg">
  <g class="fore">
    <path d="M781.888 219.776c19.712 0 38.848 2.56 57.088 7.424 26.24-12.672 54.656-23.36 84.352-34.56l49.024-18.496-30.08-79.808-40 15.04-10.56 3.968c-41.728 15.68-90.24 33.92-132.864 60.544a338.752 338.752 0 0 0-26.688 18.368 156.864 156.864 0 1 0-166.976 205.632 220.864 220.864 0 0 1 216.704-178.112zM781.888 661.376a220.48 220.48 0 0 1-176.832-88.64 156.8 156.8 0 1 0 289.28 57.856 219.84 219.84 0 0 1-112.448 30.72zM572.16 509.568a219.648 219.648 0 0 1-10.048-47.68A220.352 220.352 0 0 1 417.024 387.2a156.8 156.8 0 0 0 101.888 281.408 219.968 219.968 0 0 1 53.184-159.104zM388.096 139.2a156.8 156.8 0 0 0-83.904 298.048 221.44 221.44 0 0 1 78.08-103.936 220.032 220.032 0 0 1-19.584-91.2c0-37.12 9.152-72.192 25.408-102.912zM291.456 501.376a221.44 221.44 0 0 1-97.152-72.832 156.8 156.8 0 0 0 77.184 262.848 219.52 219.52 0 0 1 35.84-96.512 220.16 220.16 0 0 1-15.872-93.504zM345.92 657.536A156.8 156.8 0 0 0 602.88 827.52a221.376 221.376 0 0 1-70.208-95.68 220.288 220.288 0 0 1-186.624-74.368zM273.28 756.8A220.672 220.672 0 0 1 130.304 672a156.8 156.8 0 0 0 224 219.52 220.672 220.672 0 0 1-81.024-134.72z"></path>
    <path d="M781.888 597.376a156.8 156.8 0 1 0 0-313.6 156.8 156.8 0 0 0 0 313.6z"></path>
  </g>
</svg>