<svg viewBox="0 0 1024 1024" version="1.1" xmlns="http://www.w3.org/2000/svg">
  <g class="fore">
    <path d="M512 16C238 16 16 238 16 512c0 212.6 134 393.4 322 464-11.2-24.4-18-51.4-18-80v-91c-49.4-32.4-87-76.2-95.6-127.6-4-23.6 18.6-43 41.4-35.8C326.2 661 416 672 512 672s185.8-11 246.2-30.4c22.8-7.2 45.2 12.2 41.4 35.8-8.6 51.4-46.2 95.2-95.6 127.6V896c0 28.6-6.8 55.6-18 80 188-70.6 322-251.4 322-464C1008 238 786 16 512 16z m-160 464c-35.4 0-64-28.6-64-64s28.6-64 64-64 64 28.6 64 64-28.6 64-64 64z m320 0c-35.4 0-64-28.6-64-64s28.6-64 64-64 64 28.6 64 64-28.6 64-64 64z m-69.8 269.2c-28.8-13-62.2 4.4-69.2 35.2l-3.6 15.6c-4.2 18.4-30.4 18.4-34.6 0l-3.6-15.6c-7-30.8-40.4-48.2-69.2-35.2-1.8 0.8 0.6-0.4-37.8 18.8v126c0 70.4 56 129 126.2 129.8 71.4 1 129.8-56.8 129.8-128v-128c-39-19.2-36.4-17.8-38-18.6z"></path>
  </g>
</svg>