<svg viewBox="0 0 1024 1024" version="1.1" xmlns="http://www.w3.org/2000/svg">
  <g class="fore">
    <path d="M512 16C238 16 16 238 16 512s222 496 496 496 496-222 496-496S786 16 512 16zM205.2 337.8l69.8-10 31-63.2c5.8-11.6 22-11.6 27.8 0l31 63.2 69.8 10c12.4 2 17.8 17.2 8.6 26.4l-50.8 49.2 12 69.8c2 12.4-10.6 22-22 15.8L320 466.6l-62.6 32.6c-11.4 6.2-24-3.4-22-15.8l12-69.8-50.8-49.2c-9.2-9.4-3.8-24.6 8.6-26.6zM512 864c-121.2 0-269-76.6-287.6-186.6-4-23.6 18.6-43 41.4-35.8C326.2 661 416 672 512 672s185.8-11 246.2-30.4c23-7.4 45.2 12.2 41.4 35.8-18.6 110-166.4 186.6-287.6 186.6z m315.4-499.8l-50.8 49.2 12 69.8c2 12.4-10.6 22-22 15.8L704 466.6l-62.6 32.6c-11.4 6.2-24-3.4-22-15.8l12-69.8-50.8-49.2c-9-9.2-3.8-24.4 8.6-26.4l69.8-10 31-63.2c5.8-11.6 22-11.6 27.8 0l31 63.2 69.8 10c12.6 1.8 18 17 8.8 26.2z"></path>
  </g>
</svg>