<svg viewBox="0 0 1024 1024" version="1.1" xmlns="http://www.w3.org/2000/svg">
  <g class="fore">
    <path d="M16 512c0 274 222 496 496 496s496-222 496-496S786 16 512 16 16 238 16 512z m400-96c0 35.4-28.6 64-64 64s-64-28.6-64-64 28.6-64 64-64 64 28.6 64 64z m336 50l-19-17c-29.6-26.4-92.4-26.4-122 0L592 466c-16.6 14.8-43.2 0.8-39.6-21.6 8-50.4 68.4-84.2 119.8-84.2S784 394 792 444.4c3.2 22-23 36.4-40 21.6z m-486.2 175.6C326.2 661 416 672 512 672s185.8-11 246.2-30.4c22.6-7.4 45.2 12 41.4 35.8-18.4 110-166.4 186.6-287.6 186.6s-269-76.6-287.6-186.6c-4-23.8 18.6-43.2 41.4-35.8z"></path>
  </g>
</svg>