<svg viewBox="0 0 1024 1024" version="1.1" xmlns="http://www.w3.org/2000/svg">
  <g class="fore">
    <path d="M512 16C238 16 16 238 16 512s222 496 496 496 496-222 496-496S786 16 512 16z m67.6 379.4l160-96c23.2-13.8 48 15.4 30.8 36L703.2 416l67.2 80.6c17.4 20.8-7.8 49.6-30.8 36l-160-96c-15.4-9.4-15.4-31.8 0-41.2z m-326-60c-17.2-20.6 7.6-49.8 30.8-36l160 96c15.6 9.4 15.6 31.8 0 41.2l-160 96c-23 13.6-48-15.2-30.8-36l67.2-80.6-67.2-80.6zM512 864c-121.2 0-269-76.6-287.6-186.6-4-23.8 18.8-43.2 41.4-35.8C326.2 661 416 672 512 672s185.8-11 246.2-30.4c23-7.4 45.2 12.4 41.4 35.8-18.6 110-166.4 186.6-287.6 186.6z"></path>
  </g>
</svg>