<svg viewBox="0 0 1024 1024" version="1.1" xmlns="http://www.w3.org/2000/svg">
  <g class="fore">
    <path d="M512 16C238 16 16 238 16 512s222 496 496 496 496-222 496-496S786 16 512 16z m160 288c47.6 0 105.4 58.6 112 142.8 1.4 17.2-21.6 23.8-29.8 9l-19-34c-15.4-27.4-38.4-43.2-63-43.2s-47.6 15.8-63 43.2l-19 34c-8.2 14.6-31.2 8-29.8-9 6.2-84.2 64-142.8 111.6-142.8z m-320 0c47.6 0 105.4 58.6 112 142.8 1.4 17.2-21.6 23.8-29.8 9l-19-34c-15.4-27.4-38.4-43.2-63-43.2s-47.6 15.8-63 43.2l-19 34c-8.4 14.8-31.2 8-29.8-9 6.2-84.2 64-142.8 111.6-142.8z m160 560c-121.2 0-269-76.6-287.6-186.6-4-23.8 18.8-43.2 41.4-35.8C326.2 661 416 672 512 672s185.8-11 246.2-30.4c22.8-7.4 45.2 12.2 41.4 35.8-18.6 110-166.4 186.6-287.6 186.6z"></path>
  </g>
</svg>