<svg viewBox="0 0 1024 1024" version="1.1" xmlns="http://www.w3.org/2000/svg">
  <g class="fore">
    <path d="M512 16C238 16 16 238 16 512s222 496 496 496 496-222 496-496S786 16 512 16z m160 336c35.4 0 64 28.6 64 64s-28.6 64-64 64-64-28.6-64-64 28.6-64 64-64z m-320 0c35.4 0 64 28.6 64 64s-28.6 64-64 64-64-28.6-64-64 28.6-64 64-64z m160 512c-121.2 0-269-76.6-287.6-186.6-4-23.6 18.6-43.2 41.4-35.8C326.2 661 416 672 512 672s185.8-11 246.2-30.4c22.6-7.4 45.2 12.2 41.4 35.8-18.6 110-166.4 186.6-287.6 186.6z"></path>
  </g>
</svg>