<svg viewBox="0 0 1024 1024" version="1.1" xmlns="http://www.w3.org/2000/svg">
  <g class="fore">
    <path d="M512 16C238 16 16 238 16 512s222 496 496 496 496-222 496-496S786 16 512 16zM196.8 367.2c13.4-35.2 53.4-53.4 89.8-43.8l14.2 3.8 4-14.2c10-36.2 45.6-61.8 83-55.8 42.8 6.8 68.8 48.4 57.6 89L406.6 486c-2.4 9-11.8 14.4-21 12l-140.4-36.4c-40.8-10.8-63.8-54-48.4-94.4zM512 864c-121.2 0-269-76.6-287.6-186.6-4-23.6 18.4-43 41.4-35.8C326.2 661 416 672 512 672s185.8-11 246.2-30.4c22.8-7.2 45.2 12.2 41.4 35.8-18.6 110-166.4 186.6-287.6 186.6z m266.8-402.6l-140.4 36.4c-9 2.4-18.4-3-21-12L578.6 346c-11.2-40.6 14.8-82.2 57.6-89 37.2-6 72.8 19.6 83 55.8l4 14.2 14.2-3.8c36.4-9.4 76.4 8.6 89.8 43.8 15.4 40.6-7.6 83.8-48.4 94.4z"></path>
  </g>
</svg>