<svg viewBox="0 0 1024 1024" version="1.1" xmlns="http://www.w3.org/2000/svg">
  <g class="fore">
    <path d="m409.56672,908.82667l0,-171.47338c0,-65.71097 50.96058,-117.38859 126.35151,-146.88938a434.41977,434.41972 0 0 0 -151.95985,-27.24726c-96.7995,0 -186.2238,31.60068 -258.49051,85.01965a410.60402,410.60397 0 0 0 284.09885,260.59037zm454.804,-187.55541c-20.23059,-27.29848 -87.5805,-55.62129 -173.11234,-55.62129c-102.74063,0 -179.25833,40.81967 -179.25833,71.70332l0,184.37998a409.52847,409.52842 0 0 0 352.37067,-200.46201zm-477.8515,-234.8796a115.2375,115.23749 0 1 0 0,-230.47497a115.2375,115.23749 0 0 0 0,230.47497zm304.73916,51.21665a102.43333,102.43332 0 1 0 0,-204.86663a102.43333,102.43332 0 0 0 0,204.86663zm-179.25833,486.55828c-282.86965,0 -512.16667,-229.29699 -512.16667,-512.16661s229.29702,-512.16661 512.16667,-512.16661s512.16667,229.29699 512.16667,512.16661s-229.29702,512.16661 -512.16667,512.16661z"></path>
  </g>
</svg>