<svg viewBox="0 0 1024 1024" version="1.1" xmlns="http://www.w3.org/2000/svg">
  <g class="fore">
    <path d="m836.33278,751.18955a185.91955,180.76298 0 0 0 -236.35023,-164.67507a185.96603,180.80816 0 0 0 -367.6559,38.41214c0,48.806 19.89339,93.04774 52.15043,125.53988a371.83909,361.52594 0 1 1 433.88974,-482.63714a255.63938,248.54909 0 0 1 117.91948,483.36019l0.04647,0zm-418.08658,-35.88146a92.95977,90.38148 0 1 1 0,-180.76297a92.95977,90.38148 0 0 1 0,180.76297zm232.39943,135.57223a92.95977,90.38148 0 1 1 0,-180.76297a92.95977,90.38148 0 0 1 0,180.76297zm-232.39943,135.57223a92.95977,90.38148 0 1 1 0,-180.76297a92.95977,90.38148 0 0 1 0,180.76297z"></path>
  </g>
</svg>