<svg viewBox="0 0 1024 1024" version="1.1" xmlns="http://www.w3.org/2000/svg">
  <g class="fore">
    <path d="M512 64C229.04 64 0 292.992 0 576v96a64 64 0 0 0 35.378 57.244l28.766 14.382C68.166 863.806 166.842 960 288 960h48c26.51 0 48-21.49 48-48V560c0-26.51-21.49-48-48-48h-48c-62.684 0-119.342 25.758-160 67.254V576c0-211.738 172.262-384 384-384s384 172.262 384 384v3.254C855.342 537.758 798.684 512 736 512h-48c-26.51 0-48 21.49-48 48v352c0 26.51 21.49 48 48 48h48c121.158 0 219.834-96.196 223.856-216.374l28.764-14.382A64 64 0 0 0 1024 672v-96c0-282.958-228.992-512-512-512z"></path>
  </g>
</svg>