<svg viewBox="0 0 1024 1024" version="1.1" xmlns="http://www.w3.org/2000/svg">
  <g class="fore">
    <path d="M512.085333 935.253333a126.317227 126.317227 0 0 1-88.756906-42.5984L81.32608 546.914987c-40.062293-49.896107-77.909333-97.24928-77.909333-188.900694C3.365547 209.7152 123.528533 89.453227 271.8208 89.3952a268.520107 268.520107 0 0 1 154.729813 48.991573 28.521813 28.521813 0 0 1 6.785707 39.717547 28.525227 28.525227 0 0 1-39.724373 6.959787C297.919147 117.947733 165.92896 141.11744 98.812587 236.82048a211.63008 211.63008 0 0 0-38.36928 121.36448c0 67.887787 23.422293 100.645547 64.662186 152.746667l338.609494 342.1696a71.625387 71.625387 0 0 0 48.18944 25.801386 68.922027 68.922027 0 0 0 48.55808-25.965226l339.442346-342.8352a224.733867 224.733867 0 0 0 63.143254-152.081067c0.054613-116.79744-94.573227-211.52768-211.377494-211.585707a211.462827 211.462827 0 0 0-142.848 55.435947l-143.9232 143.926613a28.5696 28.5696 0 0 1-39.72096-41.076053l144.769707-144.77312c108.97408-100.57728 278.842027-93.781333 379.429547 15.189333a268.561067 268.561067 0 0 1 71.19872 182.203734 282.740053 282.740053 0 0 1-79.598934 190.78144l-339.456 343.68512A126.272853 126.272853 0 0 1 512.085333 935.253333z"></path>
  </g>
</svg>