<svg viewBox="0 0 1024 1024" version="1.1" xmlns="http://www.w3.org/2000/svg">
  <g class="fore">
    <path d="M636.992 518.848l-83.456 152.64a21.12 21.12 0 0 1-21.184 10.88 21.056 21.056 0 0 1-18.368-14.72l-62.4-212.224-77.632 252.544a21.248 21.248 0 0 1-20.288 15.488h-0.576a21.312 21.312 0 0 1-20.416-14.656L220.16 348.608 147.392 507.712c-3.712 6.784-8.064 14.016-16.064 14.016H31.488c107.904 293.696 483.52 441.408 483.52 441.408s374.08-146.88 480.704-444.288H636.992z"></path>
    <path d="M115.264 444.48l91.2-198.912a20.992 20.992 0 0 1 20.992-11.584 21.504 21.504 0 0 1 18.56 15.232l105.408 352.704 78.144-266.24a21.312 21.312 0 0 1 20.416-16.192h0.256c9.6 0 18.112 6.4 20.672 15.616l69.696 247.552 64.448-123.392c3.712-7.04 11.072-14.784 18.944-14.784h384.384A485.376 485.376 0 0 0 1024 322.816a257.92 257.92 0 0 0-509.632-56.448A260.608 260.608 0 0 0 0 325.504c0 43.008 5.76 80.384 15.616 118.976h99.648z"></path>
  </g>
</svg>