<svg viewBox="0 0 1024 1024" version="1.1" xmlns="http://www.w3.org/2000/svg">
  <g class="fore">
    <path d="m1006.499969,518.478908c0,0 -467.027768,-103.66244 -467.027768,-518.312223c0,0 467.027768,0 467.027768,518.312223m-988.999969,0c0,-518.312223 467.027768,-518.312223 467.027768,-518.312223c0,414.649783 -467.027768,518.312223 -467.027768,518.312223m494.499985,-285.071724c0,0 54.944447,111.955439 164.833328,207.324892c-13.186666,189.702272 -164.833328,285.071724 -164.833328,285.071724c0,0 -151.646662,-95.369452 -164.833328,-285.071724c109.888881,-95.369452 164.833328,-207.324892 164.833328,-207.324892m480.76387,349.860748c0,0 -41.208332,194.367082 -151.097213,298.029534c0,0 -135.712778,-85.003212 -201.646109,-217.172828c39.559999,-63.752403 64.284998,-139.425983 78.021113,-190.738892c75.823331,54.422783 164.833328,96.924389 274.722209,109.882186m-288.458324,259.156117c-54.944434,103.66244 -192.305545,181.409272 -192.305545,181.409272c0,0 -137.361111,-77.746833 -192.305545,-181.409272c0,0 59.889434,-47.166416 101.647215,-126.986502c25.823884,28.507176 55.493883,51.31291 90.658331,62.197466c35.164448,-10.884557 64.834447,-33.69029 90.658331,-62.197466c41.757781,79.820086 101.647215,126.986502 101.647215,126.986502m-673.069415,-259.156117c109.888881,-12.957797 198.898878,-55.459403 274.722209,-109.882186c13.736115,51.31291 38.461114,126.98649 78.021113,190.738892c-65.933331,132.169616 -201.646109,217.172828 -201.646109,217.172828c-109.888881,-103.662452 -151.097213,-298.029534 -151.097213,-298.029534z"></path>
  </g>
</svg>