<svg viewBox="0 0 1024 1024" version="1.1" xmlns="http://www.w3.org/2000/svg">
  <g class="fore">
    <path d="M866.498198 286.06981c-14.978797-7.489399-32.45406-2.496466-39.943459 12.482331-7.489399 14.978797-2.496466 32.45406 12.482331 39.943459 68.65282 36.19876 112.340978 106.099813 112.340978 183.490265 0 76.142219-41.191692 144.795039-107.348046 182.242031-13.730564 7.489399-19.971729 26.212895-11.234097 39.943459 4.992932 9.985865 14.978797 14.978797 26.212895 14.978797 4.992932 0 9.985865-1.248233 13.730564-3.744699C957.619214 707.972595 1011.293237 619.348046 1011.293237 521.985865c-1.248233-99.858647-56.170489-189.73143-144.795039-235.916055zM169.984133 284.821577c-86.128083 0-156.029136 69.901053-156.029137 156.029137v142.298572c0 86.128083 69.901053 156.029136 156.029137 156.029137h43.688158c18.723496 0 36.19876 1.248233 53.674023 4.992932V279.828645c-17.475263 3.744699-36.19876 4.992932-53.674023 4.992932h-43.688158zM670.525603 6.465598L388.424924 229.899321c-16.22703 11.234098-34.950527 21.219963-53.674023 29.957594v504.28617c18.723496 7.489399 36.19876 17.475263 53.674023 29.957594l282.100679 223.433723c22.468196 16.22703 53.674023 0 53.674023-27.461128V33.926726C724.199626 6.465598 692.993798-9.761432 670.525603 6.465598z"></path>
  </g>
</svg>