<svg viewBox="0 0 1024 1024" version="1.1" xmlns="http://www.w3.org/2000/svg">
  <g class="fore">
    <path d="M986.101068 1020.355872H37.170107a37.170107 37.170107 0 0 1-37.170107-34.254804v-50.288968a37.170107 37.170107 0 0 1 37.170107-37.170107h62.679003v-801.708185A99.84911 99.84911 0 0 1 199.698221 0h424.176512a99.84911 99.84911 0 0 1 99.84911 99.84911v801.708185h50.288968V499.245552a24.780071 24.780071 0 0 1 27.695374-24.780072h72.882562c36.441281 0 50.288968 37.898932 50.288968 72.882563v349.836299h62.679004a37.170107 37.170107 0 0 1 37.170107 37.170106v50.288968a37.170107 37.170107 0 0 1-38.627758 35.712456z m-510.177936-174.91815a24.780071 24.780071 0 0 0 24.780071 24.780072h24.780071a24.780071 24.780071 0 0 0 24.780071-24.780072v-72.882562a24.780071 24.780071 0 0 0-24.780071-24.780071h-26.237722a24.780071 24.780071 0 0 0-24.780072 24.780071z m0-174.918149a24.780071 24.780071 0 0 0 24.780071 24.780071h24.780071a24.780071 24.780071 0 0 0 24.780071-24.780071v-72.882562a24.780071 24.780071 0 0 0-24.780071-24.780071h-26.237722a24.780071 24.780071 0 0 0-24.780072 24.780071z m-199.698221 174.918149a24.780071 24.780071 0 0 0 24.780071 24.780072h24.780071a24.780071 24.780071 0 0 0 24.780072-24.780072v-72.882562a24.780071 24.780071 0 0 0-24.780072-24.780071h-26.237722a24.780071 24.780071 0 0 0-24.780071 24.780071z m0-174.918149a24.780071 24.780071 0 0 0 24.780071 24.780071h24.780071a24.780071 24.780071 0 0 0 24.780072-24.780071v-72.882562a24.780071 24.780071 0 0 0-24.780072-24.780071h-26.237722a24.780071 24.780071 0 0 0-24.780071 24.780071z m299.547331-437.295374a37.170107 37.170107 0 0 0-37.170107-37.170106h-64.136655v-59.034876A37.170107 37.170107 0 0 0 437.295374 99.84911h-50.288968a37.170107 37.170107 0 0 0-37.170107 37.170107v62.679004h-62.679004a37.170107 37.170107 0 0 0-37.170106 37.170106v50.288968a37.170107 37.170107 0 0 0 37.170106 37.170107h62.679004v62.679004a37.170107 37.170107 0 0 0 37.170107 37.170106H437.295374a37.170107 37.170107 0 0 0 37.170106-37.170106v-62.679004h62.679004a37.170107 37.170107 0 0 0 37.170107-37.170107z"></path>
  </g>
</svg>