<svg viewBox="0 0 1024 1024" version="1.1" xmlns="http://www.w3.org/2000/svg">
  <g class="fore">
    <path d="M897.491113 349.015116a54.21285 54.21285 0 0 1 53.747504 61.891065 444.173093 444.173093 0 0 1-880.202626 0.232673 54.21285 54.21285 0 0 1 54.21285-62.123738z m-158.21776 433.935473a526.539398 526.539398 0 0 1-455.806752 0l-80.737592 186.138541a38.85642 38.85642 0 0 0 35.598996 53.980177h546.316618a38.623747 38.623747 0 0 0 32.341571-17.450488 37.925728 37.925728 0 0 0 3.024751-36.529689z m-40.019786-475.118625L644.808044 31.648903a38.623747 38.623747 0 0 0-38.623748-31.643552h-190.326658a38.85642 38.85642 0 0 0-37.925727 31.410879l-53.514831 276.18306z"></path>
  </g>
</svg>