<svg viewBox="0 0 1024 1024" version="1.1" xmlns="http://www.w3.org/2000/svg">
  <g class="fore">
    <path d="M867.24087 262.28352c-25.82912 31.08352-49.9392 63.42528-73.1392 96.44544a2257.74464 2257.74464 0 0 0-37.82016 55.65312 2888.096 2888.096 0 0 0-37.71392 59.07712c-12.57088 20.22784-24.79616 40.8-36.91008 61.36448a3038.83776 3038.83776 0 0 0-35.30752 62.50624c-5.71392 10.39872-11.31648 20.91264-16.80128 31.31264a2024.22144 2024.22144 0 0 0-16.1088 31.19616c-2.62784 5.1456-5.2608 10.28352-7.77216 15.54048-2.51648 5.14432-5.1456 10.28864-7.54432 15.42784a981.81632 981.81632 0 0 0-7.31008 15.31136c-1.25952 2.51648-2.40384 5.1456-3.65952 7.6608-1.14432 2.5088-2.28096 5.02784-3.54304 7.53792-0.5696 1.2608-1.14432 2.4-1.25568 3.77216 0 1.02528 0.22912 2.1696 1.02784 2.97344 0.68608 0.68096 1.8304 1.02528 2.85568 1.02528 1.48992 0 2.7456-0.91392 4.11776-1.48224 32.224-16.57088 64.44672-33.2544 96.32896-50.39616 29.94176-16.11392 59.53664-32.67968 88.45056-50.39616 26.05312-15.87968 51.53536-32.79104 75.76192-51.53408 20.91264-16.11648 40.79232-33.59616 58.05184-53.71136 14.74176-17.024 27.65312-35.87712 35.53792-57.02016 7.3152-19.42784 10.4-40.79872 8.2304-61.48224-2.51648-23.7632-11.8848-46.38976-24.11648-67.07456-16.56576-27.7696-38.27584-51.65056-61.36064-73.70752M586.88759 126.26688c-21.48224 35.88352-33.2544 77.13408-41.47968 118.5024-4.80384 24.22784-8.34176 48.44928-10.9696 72.7936-2.85568 25.82272-4.68608 51.87456-5.8304 77.81376-1.14432 26.62784-1.60128 53.25312-1.60128 79.87968 0.11648 26.28096 0.68608 52.56704 1.8304 78.84928 0.56832 12.68096 1.14432 25.37088 1.8304 38.05312 0.68608 12.22528 1.48352 24.4544 2.28096 36.68096 0.45824 5.94304 0.80384 11.76704 1.2608 17.71008 0.45312 5.71392 0.91008 11.54432 1.36704 17.25696 0.45696 5.59616 0.9152 11.08096 1.48992 16.68352 0.22912 2.7456 0.45184 5.4848 0.67968 8.11264 0.22912 2.62912 0.57472 5.25568 0.80384 8.00128 0.11136 1.36704 0.22912 2.74048 0.9152 3.88352 0.56832 0.9152 1.36704 1.71264 2.4 2.05696 1.02656 0.2304 2.1696 0 3.0848-0.45568 1.1392-0.68608 1.94176-1.94176 2.62912-3.0848 39.3088-59.0784 78.16064-118.5024 112.78208-180.43776 16.57216-29.48352 32.11136-59.53664 45.82656-90.50496 12.22528-27.7696 22.96576-56.22016 30.62784-85.5936 6.51136-25.024 10.74176-50.73536 9.47968-76.7872-1.1392-22.39744-6.39488-45.14048-17.82144-64.22272-11.8848-20.1152-30.51648-36.11392-51.19488-47.76832-27.7696-15.65696-59.19488-22.96576-90.39104-27.42272m428.10496 397.01376c-30.85056 16.57216-61.58848 33.1456-92.33408 50.05568-16.33792 9.02912-32.56192 18.05568-48.90624 27.07712-16.8 9.48608-33.59488 18.97216-50.39616 28.6848-17.3696 9.9456-34.51008 19.99872-51.76192 30.17088-17.71648 10.51264-35.3088 21.02528-52.90752 31.76448l-26.74432 16.4544c-9.02784 5.60256-18.05568 11.19872-26.96576 16.91264-4.5696 2.85568-9.02912 5.71392-13.59872 8.5696-4.56832 2.85696-9.02784 5.83168-13.59744 8.68736-4.5696 2.96832-9.1456 5.82656-13.59744 8.8l-6.85696 4.45312c-1.14432 0.80384-2.28736 1.48992-3.43168 2.28736-1.1392 0.68608-2.28224 1.48352-3.42656 2.28736-1.02656 0.68096-2.17088 1.36704-2.85696 2.4-0.45696 0.79744-0.68608 1.94176-0.34048 2.85568a3.98976 3.98976 0 0 0 1.94176 2.17088c1.1456 0.56832 2.4 0.45696 3.6544 0.45696h213.92256c36.45184 0 74.38848-7.5456 106.3872-25.82912 26.28096-15.08224 48.45056-37.36704 63.87712-63.42016 14.39488-24.22656 22.96576-51.54048 25.82272-79.76192 2.51776-25.36704 0.45824-51.30752-7.88352-75.07712M931.20119 801.7152a9399.26656 9399.26656 0 0 0-81.24672-2.7456 11130.2656 11130.2656 0 0 0-87.4176-2.39872l-42.28352-1.02784c-13.14048-0.34688-26.16832-0.57472-39.3088-0.9152l-18.05568-0.34688c-5.59616-0.11136-11.19872-0.22912-16.68352-0.34048-5.02656-0.11776-10.17088-0.22912-15.19872-0.22912-2.28224 0-4.68096-0.11264-6.96832-0.11264-2.17088 0-4.2304 0-6.51136-0.11776-1.1456 0-2.4-0.11008-3.43296 0.45824-0.79744 0.45696-1.36576 1.2544-1.71264 2.1696-0.22912 0.91648-0.11136 1.94304 0.34688 2.85696 0.56832 0.9152 1.48352 1.6 2.28096 2.28736 38.85312 27.9936 78.61888 55.53536 121.92896 75.98976 14.40128 6.74176 29.2544 12.8 44.68224 16.56576 11.99616 2.97472 24.45568 4.576 36.79872 3.54432 10.74176-0.91136 21.36448-3.76704 31.0784-8.45312 10.17216-4.9152 19.31136-11.77216 27.65312-19.42912 9.71392-8.91136 18.2848-18.96448 26.39744-29.36448 9.82528-12.34176 18.8544-25.25184 27.65312-38.39104M156.68983 262.28352c25.82272 31.08352 49.9392 63.42528 73.13408 96.44544a2283.25376 2283.25376 0 0 1 37.82528 55.65312c12.8 19.54048 25.37088 39.19872 37.70624 59.07712 12.57216 20.22784 24.80256 40.8 36.91648 61.36448a3063.03744 3063.03744 0 0 1 35.3088 62.50624c5.71264 10.39872 11.31008 20.91264 16.79488 31.31264a2024.62976 2024.62976 0 0 1 16.11392 31.19616c2.62784 5.1456 5.25696 10.28352 7.77216 15.54048 2.51136 5.14432 5.14048 10.28864 7.5392 15.42784 2.5152 5.1456 4.9152 10.17216 7.3152 15.31136 1.2544 2.51648 2.4 5.1456 3.65312 7.6608 1.14432 2.5088 2.28864 5.02784 3.54432 7.53792 0.57472 1.2608 1.1456 2.4 1.2608 3.77216 0 1.02528-0.22784 2.1696-1.03296 2.97344-0.68608 0.68096-1.824 1.02528-2.85696 1.02528-1.48352 0-2.7392-0.91392-4.11136-1.48224-32.22272-16.57088-64.45184-33.2544-96.33408-50.39616-29.93536-16.11392-59.53536-32.67968-88.44416-50.39616-26.05696-15.87968-51.54048-32.79104-75.76192-51.53408-20.91264-16.11648-40.68096-33.59616-58.05184-53.71136-14.74176-17.024-27.65312-35.87712-35.53792-57.02016-7.3152-19.42784-10.4-40.79872-8.2304-61.48224 2.51648-23.7632 11.88608-46.38976 24.11008-67.07456 16.57344-27.7696 38.28352-51.65056 61.36704-73.70752M437.03799 126.26688c21.48736 35.88352 33.25568 77.13408 41.48608 118.5024 4.79744 24.22784 8.34176 48.44928 10.9696 72.7936 2.85696 25.82272 4.68096 51.87456 5.82528 77.81376 1.14304 26.62784 1.60128 53.25312 1.48352 79.87968-0.11136 26.28096-0.68096 52.56704-1.82528 78.84928-0.57344 12.68096-1.14304 25.37088-1.8304 38.05312-0.68608 12.22528-1.48352 24.4544-2.28608 36.68096-0.45312 5.94304-0.79872 11.76704-1.25568 17.71008-0.45824 5.71392-0.9152 11.54432-1.37216 17.25696-0.45312 5.59616-0.91008 11.08096-1.4848 16.68352-0.22784 2.7456-0.45696 5.4848-0.68608 8.11264-0.22912 2.62912-0.56832 5.25568-0.79744 8.00128-0.11648 1.36704-0.2304 2.74048-0.9152 3.88352-0.56832 0.9152-1.37216 1.71264-2.4 2.05696-1.02528 0.2304-2.1696 0-3.0848-0.45568-1.1456-0.68608-1.94176-1.94176-2.74048-3.0848-39.31392-59.0784-78.048-118.5024-112.78848-180.43776-16.57088-29.48352-32.11136-59.53664-45.82656-90.50496-12.224-27.7696-22.96576-56.22016-30.62144-85.5936-6.51776-25.024-10.74176-50.73536-9.48608-76.7872 1.14432-22.39744 6.4-45.14048 17.82784-64.22272 11.88352-20.1152 30.5088-36.11392 51.07456-47.76832 28.11264-15.65696 59.53792-22.96576 90.73408-27.42272M8.93303 523.3088c30.85568 16.56576 61.59488 33.13792 92.22144 50.05056 16.3392 9.02912 32.68096 18.05568 48.90752 27.08352 16.8 9.47968 33.59488 18.96576 50.39616 28.67968a6078.61376 6078.61376 0 0 1 51.7632 30.1696c17.71648 10.51264 35.31392 21.02528 52.91264 31.7632 8.91008 5.48608 17.9392 10.97088 26.73792 16.45568 9.02784 5.60256 18.05696 11.19872 26.96704 16.91264 4.5696 2.85568 9.02784 5.71392 13.59744 8.5696 4.57088 2.85696 9.02912 5.83168 13.59872 8.68736 4.57472 2.96832 9.1456 5.82528 13.59744 8.8l6.85824 4.45696c1.14432 0.79872 2.28864 1.4848 3.43296 2.28224 1.13664 0.68608 2.28096 1.48352 3.42528 2.28736 1.02656 0.68608 2.17088 1.36704 2.85696 2.4 0.45696 0.79744 0.68608 1.94176 0.34688 2.85568a4.02176 4.02176 0 0 1-1.94688 2.1696c-1.13792 0.5696-2.4 0.45696-3.65568 0.45696H197.02647c-36.45312 0-74.38976-7.54432-106.38336-25.82912-26.28608-15.08096-48.4544-37.36704-63.88352-63.41888C12.36471 653.91744 3.79383 626.60608 0.93687 598.38336c-2.39744-25.37088-0.3456-51.31136 7.99616-75.07456"></path>
    <path d="M92.70647 801.7152a9411.1616 9411.1616 0 0 1 81.25312-2.7456 11125.14816 11125.14816 0 0 1 87.4176-2.39872l42.2784-1.02784c13.1456-0.34688 26.16832-0.57472 39.31008-0.9152l18.05568-0.34688c5.60128-0.11136 11.19872-0.22912 16.68352-0.34048 5.02656-0.11776 10.17216-0.22912 15.19872-0.22912 2.28864 0 4.68736-0.11264 6.96832-0.11264 2.17728 0 4.34688 0 6.51776-0.11776 1.14432 0 2.4-0.11008 3.42528 0.45824 0.80384 0.45696 1.37344 1.2544 1.71392 2.1696a4.17536 4.17536 0 0 1-0.34176 2.85696c-0.56832 0.9152-1.48352 1.6-2.28736 2.28736-38.85312 27.9936-78.6176 55.53536-121.92896 75.98976-14.39488 6.74176-29.25312 12.8-44.67584 16.56576-12.00128 2.97472-24.45568 4.576-36.79872 3.54432a90.42688 90.42688 0 0 1-31.19744-8.45312c-10.17216-4.9152-19.31008-11.77216-27.65312-19.42912-9.71392-8.91136-18.2848-18.96448-26.39744-29.36448-9.71392-12.34176-18.74304-25.25184-27.54176-38.39104"></path>
  </g>
</svg>