<svg viewBox="0 0 1024 1024" version="1.1" xmlns="http://www.w3.org/2000/svg">
  <g class="fore">
    <path d="M213.333333 554.666667h597.333334v85.333333a85.333333 85.333333 0 0 1-85.333334 85.333333l-67.648 236.778667A85.333333 85.333333 0 0 1 575.637333 1024h-127.274666a85.333333 85.333333 0 0 1-82.048-61.888L298.666667 725.333333a85.333333 85.333333 0 0 1-85.333334-85.333333v-85.333333z m-42.666666-128h682.666666a21.333333 21.333333 0 0 1 21.333334 21.333333v42.666667a21.333333 21.333333 0 0 1-21.333334 21.333333H170.666667a21.333333 21.333333 0 0 1-21.333334-21.333333v-42.666667a21.333333 21.333333 0 0 1 21.333334-21.333333z m619.989333-42.666667H233.514667A262.058667 262.058667 0 0 1 213.333333 282.944C213.333333 126.677333 347.050667 0 512 0s298.666667 126.677333 298.666667 282.944c0 35.968-7.082667 69.397333-20.010667 101.056z"></path>
  </g>
</svg>