<svg viewBox="0 0 1024 1024" version="1.1" xmlns="http://www.w3.org/2000/svg">
  <g class="fore">
    <path d="m511.86228,341.14928c-94.07666,0 -170.8504,76.7739 -170.8504,170.85074s76.77374,170.85074 170.8504,170.85074s170.8504,-76.7739 170.8504,-170.85074s-76.77374,-170.85074 -170.8504,-170.85074zm512.42303,170.85074c0,-70.74989 0.64084,-140.85894 -3.33242,-211.48066c-3.97327,-82.02887 -22.68606,-154.82947 -82.66955,-214.81309c-60.11166,-60.11178 -132.78396,-78.69643 -214.81266,-82.66971c-70.74975,-3.97328 -140.85866,-3.33242 -211.48023,-3.33242c-70.74976,0 -140.85866,-0.64085 -211.48024,3.33242c-82.0287,3.97328 -154.82918,22.68611 -214.81266,82.66971c-60.11166,60.11178 -78.69628,132.78422 -82.66955,214.81309c-3.97326,70.74989 -3.33242,140.85894 -3.33241,211.48066s-0.64085,140.85894 3.33241,211.48066c3.97327,82.02887 22.68607,154.82947 82.66955,214.81309c60.11166,60.11178 132.78396,78.69643 214.81266,82.66971c70.74975,3.97328 140.85866,3.33242 211.48024,3.33242c70.74975,0 140.85866,0.64085 211.48023,-3.33242c82.0287,-3.97328 154.82918,-22.68611 214.81266,-82.66971c60.11166,-60.11178 78.69628,-132.78422 82.66955,-214.81309c4.10143,-70.62173 3.33242,-140.73077 3.33242,-211.48066zm-512.42303,262.87687c-145.47278,0 -262.87635,-117.4038 -262.87635,-262.87687s117.40357,-262.87687 262.87635,-262.87687s262.87635,117.4038 262.87635,262.87687s-117.40357,262.87687 -262.87635,262.87687zm273.64261,-475.12655c-33.965,0 -61.39336,-27.42841 -61.39336,-61.39348s27.42835,-61.39348 61.39336,-61.39348s61.39336,27.42841 61.39336,61.39348a61.31646,61.31658 0 0 1 -61.39336,61.39348z"></path>
  </g>
</svg>