<svg viewBox="0 0 1024 1024" version="1.1" xmlns="http://www.w3.org/2000/svg">
  <g class="fore">
    <path d="M960 160h32c17.7 0 32-14.3 32-32V68c0-2.2-1.8-4-4-4H4c-2.2 0-4 1.8-4 4v60c0 17.7 14.3 32 32 32h32c8.8 0 16 7.2 16 16v672c0 8.8-7.2 16-16 16H32c-17.7 0-32 14.3-32 32v60c0 2.2 1.8 4 4 4h1016c2.2 0 4-1.8 4-4v-60c0-17.7-14.3-32-32-32h-32c-8.8 0-16-7.2-17-16V176c1-8.8 8.2-16 17-16zM272 848c0 8.8-7.2 16-16 16h-64c-8.8 0-16-7.2-16-16V176c0-8.8 7.2-16 16-16h64c8.8 0 16 7.2 16 16v672z m576 0c0 8.8-7.2 16-16 16H672c-8.8 0-16-7.2-16-16V704c0-8.8 7.2-16 16-16h160c8.8 0 16 7.2 16 16v144z m-17-281.5c-0.5 0.7-1 1.4-1.4 2-0.1 0.1-0.1 0.2-0.2 0.3-0.5 0.7-1 1.3-1.5 2-0.5 0.6-0.9 1.2-1.4 1.7-0.3 0.4-0.6 0.8-0.9 1.1-0.2 0.2-0.4 0.5-0.6 0.7-0.3 0.4-0.6 0.7-0.9 1.1-0.7 0.9-1.5 1.7-2.3 2.5-1.4 1.5-2.8 2.9-4.2 4.2-0.4 0.4-0.8 0.8-1.2 1.1l-0.4 0.4c-0.3 0.3-0.7 0.6-1.1 1-0.5 0.4-1 0.8-1.5 1.3l-1.5 1.2c-0.4 0.3-0.8 0.7-1.2 1-0.6 0.5-1.2 0.9-1.7 1.3-0.6 0.5-1.3 0.9-1.9 1.4-0.2 0.1-0.4 0.3-0.5 0.4-0.4 0.3-0.9 0.6-1.3 0.9l-0.9 0.6c-0.6 0.4-1.3 0.8-1.9 1.2-0.7 0.4-1.3 0.8-2 1.2-0.1 0.1-0.2 0.1-0.3 0.2-10 5.8-16 16.7-16 28.2v0.6c0 0.9 0 1.8-0.1 2.6-0.1 0.7-0.1 1.5-0.3 2.2-0.1 0.8-0.3 1.6-0.5 2.4-0.1 0.5-0.2 0.9-0.4 1.4-0.5 1.8-1.2 3.6-2 5.2-0.2 0.4-0.4 0.9-0.7 1.3-0.2 0.5-0.5 0.9-0.8 1.3-0.1 0.2-0.3 0.4-0.4 0.6-0.1 0.2-0.3 0.4-0.4 0.7-0.1 0.2-0.3 0.4-0.4 0.6l-0.9 1.2c-0.2 0.2-0.3 0.4-0.5 0.6-0.5 0.6-1 1.2-1.5 1.7-0.2 0.2-0.3 0.4-0.5 0.6-0.2 0.2-0.3 0.4-0.5 0.5-0.4 0.3-0.7 0.7-1.1 1-0.4 0.3-0.8 0.7-1.2 1-0.2 0.1-0.4 0.3-0.5 0.4-0.4 0.3-0.9 0.7-1.3 1-0.2 0.1-0.4 0.3-0.6 0.4-0.9 0.6-1.7 1.1-2.7 1.6l-0.6 0.3c-0.5 0.2-1 0.5-1.4 0.7-0.2 0.1-0.4 0.2-0.7 0.3-0.1 0-0.2 0.1-0.3 0.1-0.2 0.1-0.5 0.2-0.7 0.3-0.4 0.1-0.8 0.3-1.2 0.4-0.3 0.1-0.5 0.2-0.7 0.2-0.1 0-0.2 0.1-0.4 0.1-0.2 0.1-0.4 0.1-0.6 0.2-1.9 0.5-3.8 0.8-5.8 1h-4.2c-0.5 0-1.1-0.1-1.6-0.1-16.1-1.6-28.7-15.3-28.7-31.8v-0.7c0-11.7-6.3-22.4-16.3-28.3-0.1 0-0.1-0.1-0.2-0.1-0.7-0.4-1.4-0.8-2.1-1.3-0.2-0.1-0.5-0.3-0.7-0.4-0.6-0.4-1.2-0.8-1.8-1.1l-2.1-1.5c-0.3-0.2-0.6-0.4-0.9-0.7-0.4-0.3-0.9-0.6-1.3-1l-2.4-1.8c-0.3-0.3-0.7-0.5-1-0.8-0.3-0.3-0.7-0.6-1-0.8-0.3-0.3-0.7-0.6-1-0.9-1.4-1.2-2.7-2.4-4-3.7l-1.2-1.2c-0.7-0.7-1.4-1.4-2-2.1-0.4-0.4-0.7-0.8-1.1-1.2l-0.6-0.6c-0.3-0.3-0.6-0.7-0.9-1-0.4-0.5-0.9-1-1.3-1.5-0.3-0.4-0.6-0.7-0.9-1.1l-1.2-1.5c-0.5-0.6-1-1.2-1.4-1.9l-0.2-0.2c-0.2-0.3-0.4-0.6-0.6-0.8-0.4-0.5-0.7-1-1-1.4-0.1-0.2-0.2-0.3-0.3-0.5-0.5-0.7-1-1.4-1.4-2.2-9.5-14.9-15-32.6-15-51.5 0-19 5.5-36.7 15-51.5 17-26.7 47-44.5 81-44.5 32.8 0 61.7 16.4 79 41.5 10.7 15.5 17 34.3 17 54.5s-6.4 38.8-17.1 54.2zM848 352c0 8.8-7.2 16-16 16H672c-8.8 0-16-7.2-16-16V176c0-8.8 7.2-16 16-16h160c8.8 0 16 7.2 16 16v176z"></path>
    <path d="M784 512c0 8.3-3 14.4-5.6 18.1-3.8 5.5-9.4 9.8-15.6 12-3.3 1.2-6.9 1.8-10.6 1.8s-7.3-0.6-10.6-1.8c-6.7-2.4-12.5-7-16.4-13-3.3-5.2-5-10.9-5-17.1 0-6.2 1.7-12 5-17.1 5.9-9.3 16-14.9 27-14.9 10.5 0 20.4 5.2 26.4 13.9 2.4 3.7 5.4 9.8 5.4 18.1z"></path>
  </g>
</svg>