<svg viewBox="0 0 1024 1024" version="1.1" xmlns="http://www.w3.org/2000/svg">
  <g class="fore">
    <path d="M173.478957 1024c-3.272348 0-6.544696-0.155826-9.794783-0.489739-54.02713-5.36487-93.45113-53.248-88.064-106.963478l78.135652-554.963479c0-37.531826-42.117565-69.810087-81.808696-96.790261C38.333217 247.808 22.26087 207.137391 22.26087 144.428522 22.26087 138.418087 27.158261 133.565217 33.168696 133.565217h718.358261a10.907826 10.907826 0 0 1 10.907826 10.017392l60.928 775.078956c0.200348 2.537739 0.289391 5.075478 0.289391 7.613218 0 53.960348-44.032 97.725217-98.326261 97.725217H173.478957zM222.608696 0h489.73913a44.521739 44.521739 0 0 1 44.521739 44.521739v44.521739H178.086957V44.521739a44.521739 44.521739 0 0 1 44.521739-44.521739z m690.086956 578.782609V280.486957c0-26.935652-34.660174-57.878261-62.419478-57.878261H786.69913L779.130435 133.565217h96.389565C946.198261 133.565217 1001.73913 187.436522 1001.73913 256V578.782609a44.521739 44.521739 0 0 1-89.043478 0z m-467.478261-178.086957a44.521739 44.521739 0 0 0-44.521739 44.521739v267.130435a44.521739 44.521739 0 0 0 44.521739 44.521739h44.521739a44.521739 44.521739 0 0 0 44.52174-44.521739V445.217391a44.521739 44.521739 0 0 0-44.52174-44.521739h-44.521739z m-22.260869 155.826087h89.043478v155.826087a22.26087 22.26087 0 0 1-22.26087 22.26087h-44.521739a22.26087 22.26087 0 0 1-22.260869-22.26087v-155.826087z"></path>
  </g>
</svg>