<svg viewBox="0 0 1024 1024" version="1.1" xmlns="http://www.w3.org/2000/svg">
  <g class="fore">
    <path d="M781.837546 525.090797c99.376392 0 179.891819 79.968832 179.891819 178.556468v141.823943c0 98.594555-80.515427 178.528792-179.891819 178.528792H517.28587c-77.581806 0.12454-146.508049-49.428737-170.987174-122.928383l-157.612909 78.398239c-43.049496 21.476316-95.391096 4.220539-117.171845-38.614471A86.133587 86.133587 0 0 1 62.27027 902.033347V647.707828c0-47.844305 39.091876-86.631749 87.295965-86.631748 13.692535 0 27.212097 3.182701 39.437822 9.326698l156.921017 78.84105c24.091666-74.10851 93.315422-124.249896 171.360796-124.125355H781.837546z m-1.127783 91.924719H519.956571c-48.965169-0.159135-89.004937 38.918903-89.959747 87.801046v137.990863c0.138378 48.868305 39.507011 88.589802 88.458342 89.260937h260.746273c48.937494 0.138378 88.956504-38.911984 89.932072-87.759532v-138.032377c-0.145297-48.847548-39.493173-88.569045-88.423748-89.254018zM178.660277 672.380683a23.731882 23.731882 0 0 0-23.794152 23.206045v159.868475a23.80799 23.80799 0 0 0 11.257076 20.030263 23.897936 23.897936 0 0 0 22.977721 1.224648l0.38054-0.207568 147.912589-74.87651v-52.971222L189.343084 674.906087a23.960207 23.960207 0 0 0-10.682807-2.525404zM398.266675 0.000415a243.601199 243.601199 0 0 1 212.410724 123.537247A209.020456 209.020456 0 0 1 752.736585 68.220928C868.171781 68.214009 961.729365 161.100458 961.729365 275.650033c0 114.556494-93.557584 207.436024-208.99278 207.436024a209.207267 209.207267 0 0 1-168.897661-85.261803A243.635793 243.635793 0 0 1 398.252837 483.086057c-134.43454 0-243.393631-108.156497-243.393631-241.573956S263.832135 0.000415 398.259756 0.000415z m0 97.120826c-80.383967 0-145.490968 64.66419-145.490968 144.425455 0 79.761265 65.107001 144.418536 145.484049 144.418536 80.349373 0 145.490968-64.657271 145.490968-144.418536s-65.141595-144.425455-145.490968-144.425455z m354.46991 68.282783a110.875631 110.875631 0 0 0-78.418995 32.17296 110.49509 110.49509 0 0 0-32.657284 78.114563 110.49509 110.49509 0 0 0 32.657284 78.100725 110.875631 110.875631 0 0 0 78.418995 32.17296 110.875631 110.875631 0 0 0 78.446671-32.159122 110.49509 110.49509 0 0 0 32.678041-78.114563 110.49509 110.49509 0 0 0-32.678041-78.128401 110.875631 110.875631 0 0 0-78.446671-32.159122z"></path>
  </g>
</svg>