<svg viewBox="0 0 1024 1024" version="1.1" xmlns="http://www.w3.org/2000/svg">
  <g class="fore">
    <path d="M956.274116 804.48686l-316.278116-527.023531 0-213.465329 31.999 0c17.59945 0 31.999-14.39955 31.999-31.999s-14.39955-31.999-31.999-31.999l-319.99 0c-17.59945 0-31.999 14.39955-31.999 31.999s14.39955 31.999 31.999 31.999l31.999 0 0 213.465329-316.278116 527.023531c-72.445736 120.732227-16.511484 219.51314 124.284116 219.51314l639.980001 0c140.7956 0 196.729852-98.780913 124.284116-219.51314zM241.032468 640.012l206.969532-344.917221 0-231.064779 127.996 0 0 231.064779 206.969532 344.917221-541.903066 0z"></path>
  </g>
</svg>