<svg viewBox="0 0 1024 1024" version="1.1" xmlns="http://www.w3.org/2000/svg">
  <g class="fore">
    <path d="M157.093 53.961h375.156c73.953 0 133.688 11.375 179.219 34.109 45.531 22.75 83.156 55.375 112.891 97.906 29.719 42.531 51.281 92.016 64.656 148.438 13.375 56.438 20.078 116.234 20.078 179.391 0 98.969-9.953 175.703-29.828 230.234s-47.469 100.234-82.781 137.078-73.219 61.375-113.719 73.578c-55.375 16.844-105.547 25.266-150.516 25.266H157.093v-926z m252 210v506h61.922c52.797 0 90.359-6.625 112.672-19.891s39.781-36.422 52.438-69.484c12.641-33.063 18.969-86.656 18.969-160.781 0-98.125-14.141-165.297-42.406-201.516s-75.125-54.328-140.563-54.328h-63.032z"></path>
  </g>
</svg>