<svg viewBox="0 0 1024 1024" version="1.1" xmlns="http://www.w3.org/2000/svg">
  <g class="fore">
    <path d="M796.414 764.669c29 22.281 47.953 36.25 56.828 41.906 13.313 8.313 31.234 17.953 53.766 28.891l-64.703 143.563c-32.297-17.328-64.25-37.953-95.859-61.859-31.625-23.922-53.719-41.891-66.297-53.953-51.031 24.531-115 36.813-191.875 36.813-113.625 0-203.266-32.828-268.922-98.484-77.563-77.719-116.344-186.938-116.344-327.688 0-136.578 33.922-242.688 101.781-318.344S367.46 42.028 489.226 42.028c124.157 0 219.985 36.984 287.5 110.922s101.281 179.766 101.281 317.453c0.001 122.625-27.202 220.703-81.593 294.266zM619.508 633.325c18.328-36.594 27.5-91.297 27.5-164.125 0-83.75-14.047-143.563-42.125-179.406-28.094-35.844-66.813-53.766-116.157-53.766-45.969 0-83.234 18.313-111.828 54.906s-42.891 93.75-42.891 171.469c0 90.563 13.969 154.141 41.938 190.734 27.953 36.594 66.313 54.891 115.063 54.891 15.688 0 30.516-1.688 44.5-5.094-19.406-20.75-50.032-40.359-91.875-58.859l36.375-92.25c20.359 4.156 36.219 9.25 47.594 15.281 11.375 6.047 33.516 21.891 66.453 47.547 7.797 6.032 16.281 12.266 25.453 18.672z"></path>
  </g>
</svg>