<svg viewBox="0 0 1024 1024" version="1.1" xmlns="http://www.w3.org/2000/svg">
  <g class="fore">
    <path d="M512 0c-282.784 0-512 229.216-512 512s229.216 512 512 512 512-229.216 512-512-229.216-512-512-512zM320 512c0-106.048 85.952-192 192-192s192 85.952 192 192-85.952 192-192 192-192-85.952-192-192zM925.984 683.488l0 0-177.408-73.504c12.512-30.176 19.456-63.264 19.456-97.984s-6.912-67.808-19.456-97.984l177.408-73.504c21.92 52.832 34.016 110.72 34.016 171.488s-12.128 118.656-34.016 171.488l0 0zM683.488 98.016l0 0 0 0-73.504 177.408c-30.176-12.512-63.264-19.424-97.984-19.424s-67.808 6.912-97.984 19.424l-73.504-177.408c52.832-21.888 110.72-34.016 171.488-34.016s118.656 12.128 171.488 34.016zM98.016 340.512l177.408 73.504c-12.512 30.176-19.456 63.264-19.456 97.984s6.912 67.808 19.424 97.984l-177.408 73.504c-21.92-52.832-34.016-110.72-34.016-171.488s12.128-118.656 34.016-171.488zM340.512 925.984l73.504-177.408c30.176 12.512 63.264 19.456 97.984 19.456s67.808-6.912 97.984-19.456l73.504 177.408c-52.832 21.888-110.72 34.016-171.488 34.016s-118.656-12.128-171.488-34.016z"></path>
  </g>
</svg>