<svg viewBox="0 0 1024 1024" version="1.1" xmlns="http://www.w3.org/2000/svg">
  <g class="fore">
    <path d="M742.556672 104.392862c5.907692 0 11.909908 0.252062 17.856985 0.756184 104.463754 8.861538 190.306462 100.233846 199.672123 212.535139 5.710769 68.529231-16.360369 135.9872-60.565662 185.178584l-386.859323 410.994216-376.509046-398.816493a50.365046 50.365046 0 0 0-1.701415-1.732923c-49.317415-48.372185-75.185231-117.295262-70.978954-189.109169C70.466087 204.910277 162.996303 108.417969 274.123934 104.526769c2.441846-0.086646 4.883692-0.126031 7.309784-0.126031h0.023631c70.427569 0 136.971815 37.005785 178.002708 98.981416a63.023262 63.023262 0 0 0 105.093907 0c41.030892-61.983508 107.567262-98.989292 178.002708-98.989292m0-63.015385c-95.397415 0-179.641108 50.317785-230.549662 127.220185-50.900677-76.894523-135.152246-127.212308-230.541784-127.212308-3.166523 0-6.3488 0.055138-9.546831 0.165415C128.400857 46.576246 9.467195 168.700062 0.566272 320.512c-5.513846 94.034708 30.192246 179.365415 89.757538 237.788554l391.616985 414.830277c8.483446 8.987569 19.605662 13.485292 30.727877 13.485292 11.145846 0 22.283815-4.513477 30.775138-13.532554l402.416247-427.52c53.775754-59.525908 84.558769-142.5408 77.012677-233.109661-11.941415-143.226092-121.832369-258.607262-257.134277-270.083939a274.101169 274.101169 0 0 0-23.181785-0.992492z"></path>
  </g>
</svg>