<svg viewBox="0 0 1024 1024" version="1.1" xmlns="http://www.w3.org/2000/svg">
  <g class="fore">
    <path d="M240.967111 990.577778H35.029333V306.147556h205.937778V990.577778z m751.032889 0H786.062222V627.157333c0-93.866667-33.294222-142.321778-99.925333-142.321777-54.513778 0-87.822222 27.249778-102.968889 78.734222V990.577778h-205.937778s3.043556-614.769778 0-684.430222h172.899556l-0.270222 136.277333h3.029333c42.396444-69.646222 109.027556-115.072 202.908444-115.072 69.646222 0 127.189333 18.176 169.585778 69.660444 42.382222 48.440889 66.616889 115.072 66.616889 205.923556V990.577778zM243.982222 136.561778c0 57.543111-48.455111 102.968889-105.984 102.968889-57.543111 0-105.998222-45.425778-105.998222-102.968889 0-57.528889 48.455111-102.968889 105.998222-102.968889 57.528889 0 105.984 45.44 105.984 102.968889z"></path>
  </g>
</svg>