<svg viewBox="0 0 1024 1024" version="1.1" xmlns="http://www.w3.org/2000/svg">
  <g class="fore">
    <path d="M440.224 635.776c-13.312 0-26.624-5.088-36.768-15.232-95.136-95.136-95.136-249.92 0-345.056l192-192c46.08-46.08 107.36-71.456 172.544-71.456s126.432 25.376 172.544 71.456c95.136 95.136 95.136 249.92 0 345.056l-87.776 87.776c-20.32 20.32-53.216 20.32-73.536 0s-20.32-53.216 0-73.536l87.776-87.776c54.592-54.592 54.592-143.392 0-197.984-26.432-26.432-61.6-40.992-99.008-40.992s-72.544 14.56-99.008 40.992l-192 192c-54.592 54.592-54.592 143.392 0 197.984 20.32 20.32 20.32 53.216 0 73.536-10.144 10.144-23.456 15.232-36.768 15.232z"></path>
    <path d="M256 1012c-65.184 0-126.464-25.376-172.544-71.456-95.136-95.136-95.136-249.92 0-345.056l87.776-87.776c20.32-20.32 53.248-20.32 73.536 0s20.32 53.216 0 73.536l-87.776 87.776c-54.592 54.592-54.592 143.392 0 197.984 26.432 26.432 61.6 40.992 99.008 40.992s72.544-14.56 99.008-40.992l192-192c54.592-54.592 54.592-143.392 0-197.984-20.32-20.32-20.32-53.216 0-73.536s53.216-20.32 73.536 0c95.136 95.136 95.136 249.92 0 345.056l-192 192c-46.08 46.08-107.36 71.456-172.544 71.456z"></path>
  </g>
</svg>