<svg viewBox="0 0 1024 1024" version="1.1" xmlns="http://www.w3.org/2000/svg">
  <g class="fore">
    <path d="M567.612524 736.945941c-81.946878 38.109618-158.134117 37.725642-209.330917 34.013874-61.052184-4.415724-110.137116-21.11868-131.735766-35.741766a29.086182 29.086182 0 1 0-32.605962 48.15699c34.685832 23.486532 96.057996 40.95744 160.14999 45.565152 10.87932 0.767952 22.782576 1.27992 35.645773 1.27992 55.772514 0 126.616086-5.311668 202.419348-40.573464a29.11818 29.11818 0 0 0-24.542466-52.732704z m323.275795-43.101306c2.783826-252.656209 28.766202-730.162365-454.947565-691.572777C-41.629398 40.701456 84.986688 545.213924 77.883132 714.163365 71.579526 803.533779 41.91738 912.80695 0 1024h129.079933c13.27917-47.133054 23.03856-93.722142 27.230298-138.135367 7.775514 5.43966 16.094994 10.687332 24.990438 15.711019 14.463096 8.511468 26.87832 19.83876 40.029498 31.83801 30.750078 28.030248 65.5959 59.772264 133.719642 63.740016 4.575714 0.255984 9.183426 0.383976 13.663146 0.383976 68.891694 0 115.99275-30.142116 153.878383-54.364602 18.142866-11.615274 33.821886-21.630648 48.572964-26.462346 41.91738-13.11918 78.523092-34.301856 105.881383-61.244173a180.468721 180.468721 0 0 0 11.967252-12.95919c15.231048 55.868508 36.125742 118.744578 59.292294 181.492657H1023.936004c-66.171864-102.23361-134.423599-202.355353-133.047685-330.155365zM124.088244 556.381226v-0.031998c-4.735704-82.458846 34.71783-151.830511 88.122493-154.934316s100.537716 61.212174 105.305418 143.67102v0.031998c0.255984 4.447722 0.351978 8.831448 0.383976 13.215174a206.707081 206.707081 0 0 0-45.885132 17.630898l-0.15999-1.823886v-0.031998c-4.575714-46.813074-29.566152-82.138866-55.83651-78.939066s-43.869258 43.741266-39.293544 90.55434v0.031998c1.983876 20.414724 7.871508 38.621586 16.030998 52.444722-2.047872 1.5999-7.775514 5.823636-14.3991 10.655335l-18.302856 13.43916c-19.870758-26.07837-33.501906-63.580026-35.933755-105.881383z m541.118181 203.827261c-1.887882 43.581276-58.908318 84.570714-111.577027 101.049684l-0.287982 0.095994c-21.886632 7.103556-41.43741 19.614774-62.108118 32.829948-34.71783 22.23861-70.651584 45.213174-122.520343 45.213175-3.391788 0-6.87957-0.095994-10.335354-0.287982-47.51703-2.783826-69.723642-23.03856-97.881882-48.668959-14.847072-13.535154-30.174114-27.51828-49.980876-39.133554l-0.415974-0.255984c-42.71733-24.094494-69.211674-54.07662-70.907568-80.186988-0.831948-12.991188 4.927692-24.222486 17.182926-33.405912 26.622336-19.966752 44.47722-33.021936 56.284482-41.661396 13.11918-9.5994 17.054934-12.47922 19.99875-15.263046 2.111868-1.983876 4.351728-4.191738 6.815574-6.55959 24.446472-23.774514 65.371914-63.548028 128.15199-63.548029 38.3976 0 80.890944 14.783076 126.168115 43.901257 21.310668 13.887132 39.869508 20.286732 63.388038 28.382226 16.15899 5.567652 34.461846 11.903256 58.972314 22.3986l0.383976 0.15999c22.87857 9.407412 49.884882 26.55834 48.668959 54.940566z m-12.607212-102.3936a188.020249 188.020249 0 0 0-13.759141-6.271608 806.765577 806.765577 0 0 0-54.524592-20.990689 133.367665 133.367665 0 0 0 13.631148-57.244422v-0.031998c1.11993-52.380726-25.27842-94.906068-59.004312-94.970064s-61.948128 42.301356-63.068058 94.682082v0.031998l-0.031998 5.11968a293.805637 293.805637 0 0 0-61.148178-20.766702 350.890069 350.890069 0 0 1-0.255984-5.91963v-0.063996c-1.951878-95.418036 56.604462-174.389101 130.743828-176.404975s135.831511 73.691394 137.751391 169.109431v0.063996c0.863946 43.133304-10.655334 82.87482-30.366102 113.656897z"></path>
  </g>
</svg>