<svg viewBox="0 0 1024 1024" version="1.1" xmlns="http://www.w3.org/2000/svg">
  <g class="fore">
    <path d="M467.2 713.92v115.968a44.8 44.8 0 0 0 89.6 0v-115.968c26.752-14.72 44.8-42.304 44.8-73.92 0-47.104-40.128-85.312-89.6-85.312-49.472 0-89.6 38.208-89.6 85.312 0 31.616 18.048 59.136 44.8 73.92zM64 384h896v640H64V384z m268.8 0h358.4V256c0-94.272-80.256-170.688-179.2-170.688-98.944 0-179.2 76.416-179.2 170.688v128zM512 0c148.48 0 268.8 114.56 268.8 256v128H243.2V256c0-141.44 120.32-256 268.8-256z"></path>
  </g>
</svg>