<svg viewBox="0 0 1024 1024" version="1.1" xmlns="http://www.w3.org/2000/svg">
  <g class="fore">
    <path d="M588.481328 560.863071c-48.863071-40.365145-123.219917-33.991701-163.585062 14.871369-40.365145 48.863071-33.991701 123.219917 14.871369 163.585062 12.746888 10.622407 29.742739 19.120332 44.614108 23.369295l0 0 0 57.360996c0 16.995851 12.746888 29.742739 29.742739 29.742739s29.742739-12.746888 29.742739-29.742739l0-57.360996c23.369295-6.373444 44.614108-19.120332 59.485477-38.240664C643.717842 673.460581 637.344398 601.228216 588.481328 560.863071zM558.738589 686.207469c-21.244813 25.493776-57.360996 27.618257-80.73029 8.497925-25.493776-21.244813-27.618257-57.360996-8.497925-80.73029 21.244813-25.493776 57.360996-27.618257 80.73029-8.497925C575.73444 624.59751 579.983402 662.838174 558.738589 686.207469z"></path>
    <path d="M76.481328 424.896266l0 507.751037c0 33.991701 27.618257 59.485477 59.485477 59.485477L892.282158 992.13278c33.991701 0 59.485477-27.618257 59.485477-59.485477L951.767635 424.896266c0-33.991701-27.618257-59.485477-59.485477-59.485477l-82.854772 0L809.427386 169.958506c0-80.73029-63.73444-144.46473-144.46473-144.46473L365.410788 25.493776c-80.73029 0-144.46473 63.73444-144.46473 144.46473l0 195.452282-84.979253 0C104.099585 365.410788 76.481328 390.904564 76.481328 424.896266zM278.307054 180.580913c0-53.112033 42.489627-95.60166 95.60166-95.60166l278.307054 0c53.112033 0 95.60166 42.489627 95.60166 95.60166l0 184.829876L278.307054 365.410788 278.307054 180.580913zM868.912863 934.771784l-711.701245 0c-12.746888 0-23.369295-10.622407-23.369295-23.369295l0-465.261411c0-12.746888 10.622407-23.369295 23.369295-23.369295l709.576763 0c12.746888 0 23.369295 10.622407 23.369295 23.369295l0 465.261411C892.282158 924.149378 881.659751 934.771784 868.912863 934.771784z"></path>
  </g>
</svg>