<svg viewBox="0 0 1024 1024" version="1.1" xmlns="http://www.w3.org/2000/svg">
  <g class="fore">
    <path d="M324.403085 651.776279a46.591965 46.591965 0 0 0-2.303999 93.18393h377.599717a46.591965 46.591965 0 0 0 2.303999-93.18393H324.403085z m0-232.703825A46.591965 46.591965 0 0 0 322.355086 512.000384h377.343717a46.591965 46.591965 0 0 0 2.303999-92.92793H324.403085zM813.618718 1024H210.48317A127.999904 127.999904 0 0 1 89.651261 891.1361v-691.199482c0-73.727945 39.167971-121.087909 105.727921-121.087909h35.327973V166.400643a36.095973 36.095973 0 0 0 35.071974 33.279975h486.399635a41.215969 41.215969 0 0 0 40.19197-33.279975V78.848709h35.071973c66.55995 0 105.727921 47.359964 105.727921 120.831909v691.199482a127.999904 127.999904 0 0 1-119.55191 133.1199zM324.659085 0.000768h375.039718a46.591965 46.591965 0 0 1 46.847965 46.335965v46.847965a46.591965 46.591965 0 0 1-46.847965 46.335965H324.403085a46.591965 46.591965 0 0 1-47.103965-46.335965V46.336733A46.591965 46.591965 0 0 1 324.147085 0.000768z"></path>
  </g>
</svg>