<svg viewBox="0 0 1024 1024" version="1.1" xmlns="http://www.w3.org/2000/svg">
  <g class="fore">
    <path d="M511.991851 1023.982934c-282.320581 0-511.991381-229.679334-511.991382-511.991382 0-282.277915 229.670801-511.991381 511.991382-511.991381a510.813801 510.813801 0 0 1 344.271538 133.032427 42.640349 42.640349 0 0 1 2.901284 60.244319c-15.829067 17.493039-42.793946 18.730351-60.286985 2.901285A425.840298 425.840298 0 0 0 511.991851 85.332068c-235.26004 0-426.659485 191.399445-426.659485 426.659484 0 235.302706 191.399445 426.659485 426.659485 426.659485 105.982216 0 207.569839-39.082009 286.032518-110.078147a42.606216 42.606216 0 0 1 60.244319 2.986616 42.640349 42.640349 0 0 1-2.986616 60.244319c-94.163748 85.246565-216.103029 132.179108-343.290221 132.179109" />
    <path d="M885.975955 552.447404H341.328057c-23.466272 0-42.665948-19.199677-42.665948-42.665948s19.199677-42.665948 42.665948-42.665948h544.647898L792.989787 371.449918a42.77688 42.77688 0 0 1 0-60.329651 42.77688 42.77688 0 0 1 60.329651 0l158.205337 162.770593a42.58915 42.58915 0 0 1 12.356059 32.946646 42.77688 42.77688 0 0 1 0 5.879367 42.58915 42.58915 0 0 1-12.356059 32.955179L853.319438 708.442645a42.77688 42.77688 0 0 1-60.329651 0 42.77688 42.77688 0 0 1 0-60.329651l92.986168-95.674123z" />
  </g>
</svg>