<svg viewBox="0 0 1024 1024" version="1.1" xmlns="http://www.w3.org/2000/svg">
  <g class="fore">
    <path d="M889.696 166.304c-93.6-102.208-228.16-166.304-377.696-166.304-282.784 0-512 229.216-512 512l96 0c0-229.76 186.24-416 416-416 123.008 0 233.536 53.408 309.696 138.304l-149.696 149.696 352 0 0-352-134.336 134.304z"></path>
    <path d="M928.032 512c0 229.76-186.24 416-416 416-123.008 0-233.536-53.408-309.696-138.304l149.696-149.696-352 0 0 352 134.304-134.304c93.6 102.208 228.16 166.304 377.696 166.304 282.784 0 512-229.216 512-512l-96 0z"></path>
  </g>
</svg>