<svg viewBox="0 0 1024 1024" version="1.1" xmlns="http://www.w3.org/2000/svg">
  <g class="fore">
    <path d="m1023.586497,365.580306c-0.958001,-17.651081 -14.542011,-31.722108 -31.518024,-32.681496c-3.006002,-0.197277 -65.760051,-3.465842 -145.360112,12.528114c-15.844012,-80.511772 -42.390033,-138.423931 -44.558034,-143.048514c-7.390006,-15.821598 -25.064019,-23.382491 -40.952031,-17.592936c-2.894002,1.038299 -63.258049,23.068925 -131.696101,70.058179c-44.932035,-68.943046 -91.63007,-112.613897 -95.374073,-116.054819c-12.65201,-11.601952 -31.606024,-11.601952 -44.258034,0c-3.728003,3.428463 -50.018038,46.679841 -94.758073,115.074665c-67.868052,-46.328896 -127.434098,-68.060492 -130.2881,-69.090484c-16.000012,-5.754252 -33.562026,1.827406 -40.952031,17.603319c-2.170002,4.634966 -28.796022,62.736095 -44.630034,143.451374c-80.496062,-16.430042 -144.268111,-13.107485 -147.310113,-12.928898c-16.976013,0.959388 -30.562023,15.032491 -31.518024,32.681496c-0.544,10.123414 -11.718009,249.575903 129.358099,394.283618c178.986138,183.589932 595.030458,173.80708 764.478588,-0.002077c141.054108,-144.703562 129.8821,-384.158128 129.336099,-394.281542zm-765.670589,225.15719c-49.584038,-122.733158 -8.262006,-266.830354 14.042011,-328.098294c22.036017,10.24801 54.388042,27.12452 88.792068,50.847573c-28.812022,57.058677 -51.120039,124.610402 -51.120039,197.937146c0,87.869158 31.900025,167.595976 68.842053,230.649791c-47.492037,-37.204326 -94.668073,-87.212953 -120.556093,-151.336216zm510.190392,0c-26.42802,65.454362 -75.296058,116.337237 -123.976095,153.840592c37.548029,-63.427602 70.240054,-144.151187 70.240054,-233.150014c0.002,-72.878199 -22.044017,-140.033294 -50.596039,-196.867698c34.882027,-24.192364 67.934052,-41.463428 90.356069,-51.908714c22.368017,61.141268 63.734049,204.899978 13.976011,328.085835z"></path>
  </g>
</svg>