<svg viewBox="0 0 1024 1024" version="1.1" xmlns="http://www.w3.org/2000/svg">
  <g class="fore">
    <path d="M512.433231 933.714708a148.243692 148.243692 0 0 1-68.017231-16.478523C310.799754 848.250092 0 657.486769 0 376.808369 0 206.170585 129.386338 67.339815 288.421415 67.339815c87.370831 0 169.314462 42.677169 223.578585 114.04997 54.264123-71.3728 136.207754-114.049969 223.578585-114.04997 159.035077 0 288.421415 138.830769 288.421415 309.476431 0 284.081231-310.768246 472.859569-444.384492 540.837416a148.212185 148.212185 0 0 1-67.182277 16.061046zM288.421415 130.3552C164.131446 130.3552 63.015385 240.915692 63.015385 376.808369c0 105.259323 52.8384 209.014154 157.042215 308.381539 90.112 85.937231 197.364185 147.196062 253.274585 176.057107a85.354338 85.354338 0 0 0 77.713723 0.244185c55.878892-28.427815 163.060185-88.914708 253.077661-174.607754C908.209231 587.783877 960.984615 483.461908 960.984615 376.808369c0-135.892677-101.116062-246.461046-225.40603-246.461046-80.541538 0-155.521969 47.592369-195.670647 124.219077a31.507692 31.507692 0 0 1-55.815876 0c-40.156554-76.618831-115.136985-124.2112-195.670647-124.2112z"></path>
  </g>
</svg>