<svg viewBox="0 0 1024 1024" version="1.1" xmlns="http://www.w3.org/2000/svg">
  <g class="fore">
    <path d="M854.56 0l-689.376 0c-109.024 0-133.184 30.56-133.184 146.144l0 57.216c72.224 37.6 163.328 85.44 264.96 117.792 28.32-89.216 112.928-153.952 212.896-153.952 99.84 0 184.352 64.576 212.736 153.568 102.528-33.664 192.32-84.224 265.12-124.096l0-50.56c0.032-115.552-24.16-146.112-133.152-146.112z"></path>
    <path d="M509.856 606.048c-118.496 0-215.136-91.008-222.304-205.824-92.032-29.152-179.008-69.792-255.552-105.44l0 604.448c0 115.552 24.16 124.768 133.184 124.768l689.344 0c109.024 0 133.184-9.216 133.184-124.8l0-610.144c-77.728 37.92-163.616 80.416-255.552 110.56-6.816 115.104-103.584 206.432-222.304 206.432z"></path>
    <path d="M566.048 238.944l-45.216 100.64c-3.744 8.48-6.496 14.976-8.256 19.456l-0.8 0-54.656-120.128-66.72 0 74.752 134.016-56.672 0 0 38.176 69.12 0 0 32.96-69.12 0 0 38.176 69.12 0 0 55.36 63.328 0 0-55.328 66.912 0 0-38.176-66.912 0 0-32.96 66.912 0 0-38.176-55.488 0 76.96-134.016-63.264 0z"></path>
  </g>
</svg>