<svg viewBox="0 0 1024 1024" version="1.1" xmlns="http://www.w3.org/2000/svg">
  <g class="fore">
    <path d="M667.600314 426.09985H520.739947V259.199771a10.019856 10.019856 0 0 0-9.946718-9.946718H435.900293a10.019856 10.019856 0 0 0-9.946718 9.946718v166.900079h-147.006643a10.019856 10.019856 0 0 0-9.946718 9.946718v74.746661c0 5.485322 4.534533 9.946718 10.019856 9.946718h146.933505v166.900079c0 5.485322 4.461396 9.946718 9.946718 9.946718h74.746661a10.019856 10.019856 0 0 0 9.946718-9.946718V520.739947h147.006642a10.019856 10.019856 0 0 0 9.946718-9.946718V435.97343a10.019856 10.019856 0 0 0-10.019855-9.946718z m353.693594 528.05371l-181.820156-181.820155a472.981073 472.981073 0 0 0-32.399972-633.957003c-184.306835-184.379973-483.659167-184.379973-668.770516 0-184.379973 185.038212-184.379973 484.463681 0 668.770516a472.981073 472.981073 0 0 0 633.957003 32.399972l181.820156 181.820155c3.949432 3.510606 10.312406 3.510606 13.676737 0l53.536748-53.536747c3.510606-3.364331 3.510606-9.727305 0-13.676738z m-280.190273-212.976787a378.779801 378.779801 0 0 1-535.513749 0 378.779801 378.779801 0 0 1 0-535.513749 378.779801 378.779801 0 0 1 535.513749 0 378.779801 378.779801 0 0 1 0 535.513749z"></path>
  </g>
</svg>