<svg viewBox="0 0 1024 1024" version="1.1" xmlns="http://www.w3.org/2000/svg">
  <g class="fore">
    <path d="M512 0c-282.76736 0-512 229.23264-512 512s229.23264 512 512 512 512-229.23264 512-512-229.23264-512-512-512zM256 256l512 0c9.13408 0 18.00192 1.96608 26.15296 5.65248l-282.15296 329.17504-282.15296-329.17504c8.13056-3.6864 16.9984-5.65248 26.15296-5.65248zM192 704l0-384c0-1.3312 0.06144-2.6624 0.14336-3.9936l187.65824 218.95168-185.58976 185.58976c-1.45408-5.34528-2.21184-10.89536-2.21184-16.54784zM768 768l-512 0c-5.65248 0-11.20256-0.75776-16.54784-2.21184l182.10816-182.10816 90.4192 105.49248 90.4192-105.49248 182.10816 182.12864c-5.34528 1.4336-10.89536 2.21184-16.54784 2.21184zM832 704c0 5.65248-0.75776 11.20256-2.21184 16.54784l-185.61024-185.58976 187.65824-218.95168c0.08192 1.3312 0.14336 2.6624 0.14336 3.9936l0 384z"></path>
  </g>
</svg>