<svg viewBox="0 0 1024 1024" version="1.1" xmlns="http://www.w3.org/2000/svg">
  <g class="fore">
    <path d="M927.573333 415.1808h-51.780266a376.029867 376.029867 0 0 0-35.157334-86.545067l46.506667-46.557866a79.445333 79.445333 0 0 0-0.034133-112.315734L859.016533 141.653333a79.36 79.36 0 0 0-112.264533 0.034134l-45.636267 45.704533a373.504 373.504 0 0 0-89.975466-37.632V96.426667A79.36 79.36 0 0 0 531.780267 17.066667h-39.697067a79.36 79.36 0 0 0-79.36 79.36v53.316266a373.845333 373.845333 0 0 0-89.9072 37.5808l-45.7728-45.755733a79.3088 79.3088 0 0 0-112.2304 0.068267L136.8064 169.710933a79.496533 79.496533 0 0 0 0.034133 112.315734l46.5408 46.592a373.879467 373.879467 0 0 0-35.157333 86.545066H96.426667A79.36 79.36 0 0 0 17.066667 494.523733v39.68a79.36 79.36 0 0 0 79.36 79.36h52.394666a374.784 374.784 0 0 0 36.4032 87.176534L136.789333 749.226667a79.4624 79.4624 0 0 0-0.034133 112.264533l28.0576 28.125867a79.394133 79.394133 0 0 0 112.349867 0.0512l48.7424-48.7424a372.0192 372.0192 0 0 0 86.869333 35.771733v50.8416a79.36 79.36 0 0 0 79.36 79.36h39.68a79.36 79.36 0 0 0 79.36-79.36v-50.8416l5.563733-1.553067c23.5008-6.792533 31.2832-36.3008 14.626134-54.186666l-43.861334-47.086934a32.392533 32.392533 0 0 0-29.508266-10.001066 255.1296 255.1296 0 0 1-88.439467 0.699733c-109.226667-18.107733-195.345067-108.3904-208.264533-218.350933-19.268267-163.925333 118.6304-301.294933 282.709333-281.122134 109.6704 13.482667 199.441067 99.6864 217.1392 208.776534 4.949333 30.498133 4.334933 60.16-0.904533 88.183466a32.426667 32.426667 0 0 0 10.2912 29.866667l48.554666 44.117333c17.92 16.2816 46.933333 8.430933 53.8624-14.779733 0.750933-2.525867 1.4848-5.085867 2.184534-7.6288h52.394666a79.36 79.36 0 0 0 79.36-79.36v-39.7312a79.291733 79.291733 0 0 0-79.3088-79.36z"></path>
    <path d="M982.084267 867.5328L709.802667 620.817067l0.187733-0.2048c-2.286933-2.167467-3.9424-3.754667-4.829867-4.676267-14.5408-14.8992-9.642667-28.2112-5.085866-37.154133 32.238933-62.378667 4.1984-151.2448-41.8816-197.341867-46.097067-46.097067-90.606933-54.493867-113.390934-55.9104a94.344533 94.344533 0 0 0-38.5024 6.075733c-22.033067 8.226133-27.306667 37.2736-10.632533 53.879467l58.606933 58.385067c7.68 7.662933 11.1104 18.602667 9.181867 29.269333l-10.3424 56.9856a33.006933 33.006933 0 0 1-26.624 26.589867l-57.088 10.257066a32.989867 32.989867 0 0 1-29.1328-9.096533l-58.197333-57.992533c-16.9472-16.878933-46.2336-10.871467-54.2208 11.6736-4.573867 12.9024-6.536533 25.821867-5.956267 36.898133 1.2288 23.671467 14.5408 74.1376 56.081067 113.220267 39.953067 37.853867 114.432 77.636267 197.154133 42.410666 9.984-4.1984 23.125333-8.942933 37.154133 5.085867 2.389333 2.4064 255.3856 273.152 255.3856 273.152 29.269333 33.9968 83.421867 31.5392 114.961067 0.170667 31.3344-31.8976 33.262933-85.691733-0.546133-114.961067z m-60.2112 85.6576a31.112533 31.112533 0 1 1 0-62.225067 31.112533 31.112533 0 0 1 0 62.225067z"></path>
  </g>
</svg>