<svg viewBox="0 0 1024 1024" version="1.1" xmlns="http://www.w3.org/2000/svg">
  <g class="fore">
    <path d="M981.333333 0h-384a42.666667 42.666667 0 0 0-42.666666 42.666667v426.666666h153.002666l-55.168-55.168a42.666667 42.666667 0 0 1 60.330667-60.330666l128 128a42.666667 42.666667 0 0 1 0 60.330666l-128 128a42.666667 42.666667 0 0 1-60.330667-60.330666L707.669333 554.666667H554.666667v426.666666a42.666667 42.666667 0 0 0 42.666666 42.666667h384a42.666667 42.666667 0 0 0 42.666667-42.666667V42.666667a42.666667 42.666667 0 0 0-42.666667-42.666667zM469.333333 469.333333V42.666667a42.666667 42.666667 0 0 0-42.666666-42.666667H42.666667a42.666667 42.666667 0 0 0-42.666667 42.666667v938.666666a42.666667 42.666667 0 0 0 42.666667 42.666667h384a42.666667 42.666667 0 0 0 42.666666-42.666667V554.666667H376.746667a128.042667 128.042667 0 1 1 0-85.333334H469.333333z"></path>
  </g>
</svg>