<svg viewBox="0 0 1024 1024" version="1.1" xmlns="http://www.w3.org/2000/svg">
  <g class="fore">
    <path d="M362.835991 618.528271a31.992842 31.992842 0 0 1-31.992841-31.992842v-42.657122a31.992842 31.992842 0 0 1 63.985683 0v42.657122a31.992842 31.992842 0 0 1-31.992842 31.992842zM661.435846 618.528271a31.992842 31.992842 0 0 1-31.992841-31.992842v-42.657122a31.992842 31.992842 0 0 1 63.985683 0v42.657122a31.992842 31.992842 0 0 1-31.992842 31.992842z"></path>
    <path d="M942.972853 443.207499a21.328561 21.328561 0 0 1-7.72094-31.139699A252.359535 252.359535 0 0 0 981.364262 266.607013 266.905613 266.905613 0 0 0 714.757249 0h-405.24266A266.905613 266.905613 0 0 0 42.907575 266.607013a249.501507 249.501507 0 0 0 45.600464 145.546101 21.328561 21.328561 0 0 1-7.635625 31.182356 149.299927 149.299927 0 0 0 56.819287 281.537006 383.914099 383.914099 0 0 0 748.888436 0 149.299927 149.299927 0 0 0 56.563344-281.537006zM374.609357 232.396001a21.328561 21.328561 0 0 1-9.512538-28.622929l63.985683-127.971366A21.328561 21.328561 0 0 1 465.213085 72.517108l38.39141 51.188546a10.664281 10.664281 0 0 0 17.062848 0l38.39141-51.188546a21.328561 21.328561 0 0 1 36.130583 3.284598l63.985683 127.971366a21.328561 21.328561 0 1 1-38.135467 19.067734L580.387314 141.152417a10.664281 10.664281 0 0 0-18.043962-1.62097L529.198768 183.425625a22.096389 22.096389 0 0 1-34.125698 0l-32.931298-43.894178a10.664281 10.664281 0 0 0-18.08662 1.62097l-40.822866 81.688389a21.328561 21.328561 0 0 1-28.622929 9.555195zM128.22182 618.528271a10.664281 10.664281 0 0 1-17.062849 8.531424 63.985683 63.985683 0 0 1 0-102.377093 10.664281 10.664281 0 0 1 17.062849 8.531425z m682.513954 21.328561a298.599855 298.599855 0 0 1-597.19971 0v-149.299927a21.328561 21.328561 0 0 1 21.328561-21.328562h554.542588a21.328561 21.328561 0 0 1 21.328561 21.328562z m67.824824-213.285611h-22.565618a21.328561 21.328561 0 0 1-19.878218-13.564964A96.106496 96.106496 0 0 0 746.750091 351.921258h-469.228344a96.063839 96.063839 0 0 0-89.366671 61.084999 21.328561 21.328561 0 0 1-19.878219 13.564964H145.71124a21.328561 21.328561 0 0 1-20.30479-27.897758A160.177494 160.177494 0 0 1 277.521747 287.935574h469.228344a160.134836 160.134836 0 0 1 152.07264 110.908518 21.328561 21.328561 0 0 1-20.262133 27.727129z m34.552269 200.488474a10.664281 10.664281 0 0 1-17.062849-8.531424v-85.314244a10.664281 10.664281 0 0 1 17.062849-8.531425 63.985683 63.985683 0 0 1 0 102.377093z"></path>
    <path d="M743.380178 677.224471a21.328561 21.328561 0 0 0-20.646047-16.039078h-84.418445a21.328561 21.328561 0 0 0-21.029961 17.78802 106.642805 106.642805 0 0 1-210.299612 0 21.328561 21.328561 0 0 0-21.029961-17.78802H301.537707a21.328561 21.328561 0 0 0-20.688704 16.039078 107.837205 107.837205 0 0 0-3.327256 26.618044A106.642805 106.642805 0 0 0 384.164553 810.485321a104.381978 104.381978 0 0 0 28.921528-4.265713 106.088263 106.088263 0 0 0 198.099676 0A103.955407 103.955407 0 0 0 640.107285 810.485321a106.642805 106.642805 0 0 0 106.642806-106.642806 107.879862 107.879862 0 0 0-3.369913-26.618044z"></path>
  </g>
</svg>