<svg viewBox="0 0 1024 1024" version="1.1" xmlns="http://www.w3.org/2000/svg">
  <g class="fore">
    <path d="M875.52 190.72C875.093333 128 823.04 128 823.04 128l-624.213333 2.133333s-52.053333 0-51.626667 64.426667v63.573333L875.52 256V190.72zM718.506667 0L302.506667 2.133333s-52.053333 0-51.626667 64l519.68-2.56C770.56 0 718.506667 0 718.506667 0zM981.333333 256l-31.146666-37.546667v99.413334l-874.24 4.266666V221.013333L42.666667 258.986667C12.8 298.666667-8.96 306.773333 3.84 386.56S78.08 901.546667 85.333333 960.426667A66.56 66.56 0 0 0 151.04 1024l727.893333-3.84a66.56 66.56 0 0 0 63.573334-64c8.533333-58.88 66.133333-495.36 78.08-574.72S1010.773333 291.413333 981.333333 256z m-260.266666 343.893333s0 63.573333-51.626667 64H357.546667c-52.053333 0-52.48-63.573333-52.48-63.573333V512a36.693333 36.693333 0 0 1 36.266666-37.973333 36.693333 36.693333 0 0 1 36.693334 36.266666v58.88a32.426667 32.426667 0 0 0 32.426666 32.426667h205.653334a31.573333 31.573333 0 0 0 32-32.426667v-60.16a36.693333 36.693333 0 0 1 36.266666-36.693333 36.693333 36.693333 0 0 1 36.693334 36.266667z"></path>
  </g>
</svg>