<svg viewBox="0 0 1024 1024" version="1.1" xmlns="http://www.w3.org/2000/svg">
  <g class="fore">
    <path d="m244.9,318l256.1,0l0,64l-256.1,0l0,-64z"/>
    <path d="m245.3,448l256.1,0l0,64l-256.1,0l0,-64z"/>
    <path d="m950.857172,658.285748l0,-585.142887l-292.571438,0l0,-73.142861l-365.714297,0l-219.428578,219.428583l0,438.857165l-73.142859,0l0,219.428583c0,80.800004 65.485716,146.285722 146.285719,146.285722l731.428594,0c80.800002,0 146.285719,-65.485718 146.285719,-146.285722l0,-219.428583l-73.142859,0zm-73.142859,-512.000026l0,512.000026l-73.142859,0l0,-512.000026l73.142859,0zm-146.285719,0l0,512.000026l-73.142859,0l0,-512.000026l73.142859,0zm-585.142875,103.428577l30.285715,-30.285716l116.000004,0l0,-116.000006l30.285715,-30.285716l262.285722,0l-0.457143,0l0,585.142887l-438.400013,0l0,-408.571449zm512.000016,628.000032l-292.571438,0l0,-73.142861l292.571438,0l0,73.142861z"/>
  </g>
</svg>