<svg viewBox="0 0 1024 1024" version="1.1" xmlns="http://www.w3.org/2000/svg">
  <g class="fore">
    <path d="M95.378286 30.602971C96.735817 14.628571 110.802651 0.854309 126.987703 0.748983c65.138103-0.117029 130.264503 0 195.402606-0.058514C334.257006 0.643657 345.53856 8.718629 349.447314 19.894857c2.246949 5.605669 1.685211 11.71456 1.603292 17.601097-0.023406 49.819063 0.035109 99.638126-0.023406 149.445486-58.057874 20.538514-111.188846 54.289554-155.378834 97.086903-2.469303 2.270354-4.622629 5.383314-8.156892 6.015268-7.407909 1.849051-15.681829 2.106514-22.621623-1.509668-4.084297-1.895863-6.506789-5.886537-9.8304-8.742034-15.166903-12.94336-30.263589-25.980343-45.453897-38.912C101.569097 234.607177 95.694263 225.244891 95.378286 214.864457V30.602971zM416.820663 29.280549C416.72704 14.17216 430.126811 0.690469 445.223497 0.690469c43.277166 0.035109 86.566034-0.023406 129.8432 0.023405 15.248823 0.362789 28.379429 14.394514 27.747474 29.631635-1.111771 44.880457-2.305463 89.772617-3.44064 134.653074-21.228983-2.586331-42.457966-5.266286-63.827382-6.448274-39.778011-2.469303-79.989029 0.631954-118.737189 10.111268-0.011703-46.460343-0.035109-92.920686 0.011703-139.381028zM672.387657 29.233737c-0.093623-14.979657 13.118903-28.367726 28.086857-28.519863C765.21472 0.678766 829.943223 0.713874 894.683429 0.702171c8.777143-0.16384 17.577691 3.265097 23.7568 9.537829 6.354651 5.98016 9.0112 14.616869 10.181485 23.01952v181.69856c-0.784091 4.926903-1.041554 10.052754-3.042743 14.698789-2.29376 5.523749-6.249326 10.181486-10.743222 14.055131-16.313783 14.09024-32.580754 28.238994-48.894538 42.340937-7.138743 6.658926-15.014766 13.902994-25.383497 14.242377-47.712549-47.689143-105.981074-84.026514-168.158354-109.725988-0.011703-53.774629 0.011703-107.56096-0.011703-161.335589zM482.298149 224.554423c67.303131-5.125851 135.858469 7.571749 196.783542 36.641646 69.889463 33.048869 129.620846 86.893714 170.276572 152.605257 22.762057 36.665051 39.637577 77.0048 49.608411 119.006354 12.77952 53.634194 14.277486 109.924937 4.306652 164.155977-13.5168 74.418469-49.198811 144.50688-100.902035 199.650743-49.842469 53.482057-114.570971 92.9792-185.080685 112.370834-89.819429 24.973897-188.345783 16.934034-272.945737-22.20032-67.759543-31.059383-126.344046-81.732754-166.847635-144.307931-24.224914-37.250194-42.036663-78.654903-52.522423-121.838446-13.294446-54.933211-14.862629-112.663406-4.798171-168.275383 13.481691-75.378103 49.23392-146.55488 101.569097-202.436023 55.693897-59.96544 130.2528-102.189349 210.510994-118.45632 16.512731-3.35872 33.236114-5.664183 50.041418-6.916388m18.045805 154.735177c-7.056823 2.832091-12.94336 8.35584-16.278674 15.178606-18.069211 36.548023-36.068206 73.131154-54.14912 109.667474-40.328046 5.81632-80.656091 11.691154-120.984137 17.542583-10.661303 1.427749-20.257646 8.777143-24.423863 18.67776-4.435383 10.029349-3.007634 22.352457 3.592777 31.094491 2.668251 3.52256 6.050377 6.413166 9.163337 9.514423 27.244251 26.577189 54.593829 53.049051 81.779566 79.684754-6.951497 40.012069-13.715749 80.059246-20.608731 120.09472-1.55648 8.554789 0.444709 17.753234 5.769508 24.669623 6.670629 9.104823 18.560731 13.996617 29.713554 12.182675 5.921646-0.702171 11.106011-3.85024 16.30208-6.5536 33.985097-17.870263 67.981897-35.728823 101.978698-53.599086 36.232046 19.017143 72.428983 38.127909 108.684434 57.121646 12.217783 6.588709 28.543269 3.6864 37.706606-6.752549 6.284434-6.974903 9.25696-16.852114 7.665371-26.120777-6.846171-40.374857-13.879589-80.726309-20.690651-121.101166 28.554971-27.724069 56.992914-55.565166 85.536182-83.31264 11.574126-9.572937 15.003063-27.513417 6.986606-40.374857-4.727954-8.098377-13.27104-13.797669-22.563108-15.07328-40.409966-5.921646-80.831634-11.679451-121.229898-17.659611-18.139429-36.887406-36.337371-73.739703-54.582125-110.580298-6.951497-13.914697-25.090926-20.456594-39.368412-14.300891z"></path>
  </g>
</svg>