<svg viewBox="0 0 1024 1024" version="1.1" xmlns="http://www.w3.org/2000/svg">
  <g class="fore">
    <path d="M505.111103 654.555352c112.801763 0 204.252663-91.443036 204.252663-204.252663V204.252663c0-112.801763-91.443036-204.252663-204.252663-204.252663S300.85844 91.443036 300.85844 204.252663v246.05789c0 112.801763 91.4509 204.244799 204.252663 204.244799z"></path>
    <path d="M882.584934 443.295831a31.456153 31.456153 0 0 0-62.912305 0c0 174.298542-141.112301 316.102878-314.561526 316.102877s-314.561526-141.804336-314.561527-316.102877a31.456153 31.456153 0 0 0-62.912305 0c0 198.34677 152.546612 361.486242 346.017679 377.599656v169.97332a31.456153 31.456153 0 0 0 62.912305 0v-169.97332c193.471067-16.113414 346.017679-179.252886 346.017679-377.599656z"></path>
  </g>
</svg>