<svg viewBox="0 0 1024 1024" version="1.1" xmlns="http://www.w3.org/2000/svg">
  <g class="fore">
    <path d="M969.4 532.9c-16.2 10.3-26.8 27.3-29 46.4-22.6 197-205.2 350.6-427.6 350.6-221.6 0-403.7-152.7-427.3-349-2.3-18.7-12.7-35.6-28.5-45.8-2.2-1.4-4.4-2.8-6.5-4.3C20.1 510 1.9 475.5 1.4 438.6c-0.6-44.5 0.1-104.1 0.7-150 0.6-47.1 27.1-90.1 69-111.8 206.5-106.9 673-108.3 882.4-0.4 42.5 21.9 69.4 65.7 69.4 113.6v146.2c0 38.4-19.1 74.4-51.3 95.3-0.8 0.5-1.5 0.9-2.2 1.4z m-617 251.4c22 37.2 91.1 65.7 160.4 65.7s136.9-26.9 158.8-64l-0.7-210c-14.8-73-81.1-126.1-158.1-126.1s-145.7 53.7-160.4 126.8v207.6z m574.8-533.8C767 157.4 298 150.8 100 248.5c-10.8 5.3-17.6 16.3-17.8 28.3-0.3 32.8-0.9 92.2 1.5 115.6 151.5-95.3 703.3-93.9 859.4 0V278.1c0.1-11.4-6-21.9-15.9-27.6zM512.8 609.9c43.9 0 79.7 39.4 79.7 88.1 0 48.7-35.7 88.1-79.7 88.1s-79.7-39.4-79.7-88.1c-0.1-48.7 35.7-88.1 79.7-88.1z"></path>
  </g>
</svg>