<svg viewBox="0 0 1024 1024" version="1.1" xmlns="http://www.w3.org/2000/svg">
  <g class="fore">
    <path d="M917.333333 320c0-234.666667-192-298.666667-405.333333-298.666667S106.666667 85.333333 106.666667 320a123.989333 123.989333 0 0 0-85.333334 128 169.472 169.472 0 0 0 85.333334 149.333333c0 234.666667 85.333333 405.333333 405.333333 405.333334s405.333333-170.666667 405.333333-405.333334a169.472 169.472 0 0 0 85.333334-149.333333 123.989333 123.989333 0 0 0-85.333334-128zM512.213333 896h-0.512c-75.989333 0-163.669333-20.522667-198.912-93.866667a10.666667 10.666667 0 0 1 12.416-14.890666A714.453333 714.453333 0 0 0 512 810.666667a714.965333 714.965333 0 0 0 186.794667-23.466667 10.666667 10.666667 0 0 1 12.416 14.890667C675.925333 875.52 588.202667 896 512.213333 896z m202.368-377.301333a42.666667 42.666667 0 0 0-25.856 55.466666 481.834667 481.834667 0 0 1 35.072 105.984 10.709333 10.709333 0 0 1-6.656 11.562667A575.36 575.36 0 0 1 512 725.333333a576 576 0 0 1-205.141333-33.749333 10.624 10.624 0 0 1-6.656-11.562667 477.397333 477.397333 0 0 1 35.072-105.984 42.666667 42.666667 0 0 0-25.856-55.466666 148.650667 148.650667 0 0 1-90.752-148.906667A156.458667 156.458667 0 0 1 375.125333 213.333333h273.749334a156.458667 156.458667 0 0 1 156.458666 156.458667 148.650667 148.650667 0 0 1-90.752 148.906667z"></path>
    <path d="M384 384m-53.333333 0a53.333333 53.333333 0 1 0 106.666666 0 53.333333 53.333333 0 1 0-106.666666 0Z"></path>
    <path d="M640 384m-53.333333 0a53.333333 53.333333 0 1 0 106.666666 0 53.333333 53.333333 0 1 0-106.666666 0Z"></path>
    <path d="M472.448 551.68a42.666667 42.666667 0 1 0-81.066667 27.008l10.666667 32a42.666667 42.666667 0 1 0 81.066667-27.008zM605.482667 524.8a42.666667 42.666667 0 0 0-53.930667 26.965333l-10.666667 32a42.666667 42.666667 0 1 0 81.066667 27.008l10.666667-32a42.666667 42.666667 0 0 0-27.136-53.973333z"></path>
  </g>
</svg>