<svg viewBox="0 0 1024 1024" version="1.1" xmlns="http://www.w3.org/2000/svg">
  <g class="fore">
    <path d="M960 320l-192 0 0-96c0-88.352-171.936-160-384-160s-384 71.648-384 160l0 640c0 88.352 171.936 160 384 160s384-71.648 384-160l0-96 192 0c35.36 0 64-28.64 64-64l0-320c0-35.36-28.64-64-64-64zM176.064 258.4c-36.992-12.192-59.424-25.248-71.424-34.4 12-9.152 34.4-22.208 71.424-34.4 57.952-19.104 131.776-29.6 207.936-29.6s150.016 10.528 207.936 29.6c36.992 12.192 59.424 25.248 71.424 34.4-12 9.152-34.432 22.208-71.424 34.4-57.952 19.104-131.776 29.6-207.936 29.6s-150.016-10.528-207.936-29.6zM896 640l-128 0 0-192 128 0 0 192z"></path>
  </g>
</svg>