<svg viewBox="0 0 1024 1024" version="1.1" xmlns="http://www.w3.org/2000/svg">
  <g class="fore">
    <path d="M346.3552 74.368c99.008-99.072 316.16-91.136 505.28 98.048 189.12 189.184 197.12 406.272 98.048 505.344-41.536 41.536-94.656 44.032-144.512 27.968-37.056-11.968-75.84-34.88-114.816-63.68-6.4 9.344-12.992 19.84-19.904 31.68-13.184 22.336-26.368 47.04-40.512 73.472l-8.96 16.64c-33.92 63.232-73.984 135.68-123.904 185.472-40.896 40.768-93.248 76.928-161.6 74.56-66.88-2.368-137.088-41.344-215.488-119.872C41.7152 825.6 2.6752 755.328 0.2432 688.448-2.2528 620.16 33.9072 567.808 74.7392 526.912c49.856-49.856 122.24-89.856 185.6-123.84l16.32-8.768a2078.08 2078.08 0 0 0 73.664-40.64c11.776-6.976 22.4-13.568 31.68-19.968C353.2032 294.72 330.3552 256 318.3232 218.88c-16-49.92-13.568-103.04 27.968-144.512z m89.6 325.76a621.056 621.056 0 0 1-42.24 27.008c-24.064 14.208-50.752 28.48-77.248 42.688l-15.808 8.448c-65.28 35.008-126.08 69.568-165.568 108.992-34.112 34.112-50.752 64.64-49.6 98.112 1.28 35.008 22.4 85.76 94.912 158.336 72.448 72.576 123.136 93.632 158.08 94.848 33.6 1.216 64.192-15.552 98.368-49.664 39.488-39.36 73.984-100.224 108.992-165.44l8.576-16c14.08-26.432 28.352-53.12 42.496-77.056 8.64-14.656 17.6-28.992 27.008-42.368-31.552-27.712-64-58.624-96.64-91.328-32.64-32.64-63.552-65.024-91.264-96.64z"></path>
  </g>
</svg>