<svg viewBox="0 0 1024 1024" version="1.1" xmlns="http://www.w3.org/2000/svg">
  <g class="fore">
    <path d="M517.5808 208.53248c-14.19776-1.70496-27.07968 2.56-35.2512 18.76992-13.75744 27.26912 10.4192 57.9328 18.65216 73.31328 5.75488 10.76736 13.32736 23.02976 17.00352 34.84672 2.4576 7.80288 2.23232 15.26272 4.15232 23.45984 4.75136 20.1216 8.33024 41.97376 15.20128 60.84096 3.4304 9.50784 7.22944 19.46624 11.93984 28.18048 2.89792 5.32992 8.54016 8.17664 8.68864 15.94368-6.5792 7.99744-8.2688 21.30432-12.59008 31.84128-19.50208 47.45728-20.34176 108.83584-3.04128 147.20512 5.28896 11.78112 18.10944 37.07392 39.94112 30.08512 19.08224-6.09792 17.53088-31.26272 25.05216-52.57216 1.66912-4.81792 1.30048-8.6016 3.94752-11.67872l-0.1024 0.98816c4.32128 12.4928 8.65792 25.1392 12.99968 37.61664 10.13248 22.5792 29.57824 46.9504 46.57152 63.88224 8.81152 8.77568 15.86176 19.83488 26.99776 28.93824 19.712 15.49312 7.40864 19.8144 150.87104 88.86784 1.65888 1.60256 56.7296 26.3424 85.98016 39.16288 39.98208 17.56672 75.84768 24.192 79.06816 25.75872l0.07168-0.96768c-2.54976-4.3776-2.93888-10.11712-5.248-14.62272l-10.42944-14.1568c-10.01984-17.94048-23.5008-34.05312-38.10816-47.91808-11.63776-11.06432-38.64064-27.27424-42.30144-43.60704-0.27136-0.40448-0.61952-0.73728-0.8704-1.10592 9.0624-0.13312 20.02944-2.4576 28.54912-4.02944 14.30016-2.5344 26.5984-0.34816 41.33888-2.8672 6.66112-1.31584 13.35808-2.55488 20.0192-3.8912l0.4096-3.93728c-6.43072-8.7552-10.56256-19.9168-17.75104-27.98592-18.75968-21.05856-39.36768-42.22976-60.98944-60.38016-12.01152-10.09152-27.24864-17.31584-40.17152-26.1632-4.32128-2.944-12.2624-5.1968-14.85824-9.6512-6.15936-10.5728-8.85248-23.45472-13.2096-35.42528-9.1392-25.2416-17.92-52.49536-25.63072-78.81728-5.23776-17.93536-8.13056-35.38944-15.29856-51.73248-34.33984-78.42816-74.96192-127.80032-140.45184-179.01568-13.91104-10.86976-31.29856-16.34816-49.7408-23.14752-10.09152-1.68448-20.32128-3.38944-30.40768-5.0944-5.91872-3.40992-11.49952-12.28288-16.93184-16.81408-13.46048-11.35104-40.47872-31.2832-64.09216-34.12992h0.02048z m95.91808 79.26272c6.70208 0.52736 10.30144 6.6048 15.31904 11.27424 15.88224 17.97632 4.00896 45.53728-16.31232 54.4256-5.19168-16.34816-8.92928-33.39264-19.58912-46.60736-12.41088-10.09152 3.7888-23.02976 17.41824-19.0208 1.11104-0.17408 2.23232-0.17408 3.2-0.0768h-0.03584v0.00512zM688.96256 781.04576c-2.4576-2.4064-4.80256-4.72576-8.192-7.37792-9.1392-7.4752-15.79008-15.38048-21.6576-22.3744-3.16928-3.77344-6.24128-7.4752-9.6-10.8032a328.41728 328.41728 0 0 1-12.672-13.50144c-65.12128 28.47744-162.5344 46.60224-271.52896 46.60224-196.096 0-355.0464-58.55232-355.0464-130.78016v156.94848c0 72.22784 158.94528 130.80576 355.0464 130.80576 191.29856 0 346.81856-55.78752 354.30912-125.57312-17.46944-11.12064-24.30976-17.75104-30.65856-23.94624z"></path>
    <path d="M504.99072 659.82976c-15.94368-35.328-19.2768-84.57216-10.40384-130.7648-40.09472 5.79072-83.59936 9.08288-129.27488 9.08288-196.096 0-355.0464-58.55744-355.0464-130.78528v156.94848c0 72.21248 158.94528 130.80576 355.0464 130.80576 54.72256 0 106.3424-4.7104 152.63744-12.84096-4.66944-6.27712-9.00608-13.6704-12.95872-22.44608z"></path>
    <path d="M498.944 414.35648c-5.84704-16.0768-9.56928-33.4336-13.16864-50.20672a876.97408 876.97408 0 0 0-4.10624-18.53952c-1.08544-4.66944-1.66912-9.10336-2.2272-13.50144-0.44544-3.60448-0.7936-7.14752-1.92-10.77248-2.57536-8.25344-7.76704-17.60768-12.76416-26.65472l-4.41856-8.0384c-1.28-2.40128-2.96448-5.1712-4.81792-8.24832-11.68384-19.33312-33.41312-55.3216-15.79008-90.22464 11.66336-23.14752 33.2032-34.38592 58.65472-31.2832 31.3088 3.77856 63.85664 27.8528 80.47616 41.856 3.11808 2.61632 6.42048 6.23616 9.67168 10.01472 1.25952 1.45408 2.93888 3.40992 4.32128 4.80256l31.86176 5.69344 7.168 2.6112c18.048 6.528 36.73088 13.2864 52.58752 25.68704a693.46816 693.46816 0 0 1 35.87072 30.21824V224.24576c0-72.22784-158.9504-130.80576-355.02592-130.80576-196.096 0-355.0464 58.5728-355.0464 130.80576v104.63744c0 72.20736 158.94528 130.80064 355.0464 130.80064 52.82304 0 102.77376-4.3776 147.80928-11.99104-5.69856-10.55744-10.19392-22.25664-14.1824-33.33632z"></path>
  </g>
</svg>