<svg viewBox="0 0 1024 1024" version="1.1" xmlns="http://www.w3.org/2000/svg">
  <g class="fore">
    <path d="M754.112 646.016c-108.736 63.872-241.024 107.776-363.392 124.8a106.368 106.368 0 0 1-43.776 59.776c32.768 69.952 79.936 133.568 136.896 191.168a510.912 510.912 0 0 0 428.928-196.736c1.856-2.432 3.52-5.12 5.312-7.616-15.616-58.496-41.472-114.176-73.28-169.216-5.76 1.664-11.264 2.944-16.704 3.968-9.152 2.56-18.624 4.352-28.544 4.352a106.24 106.24 0 0 1-45.44-10.496zM579.264 351.488a1129.408 1129.408 0 0 0-128.256-80.384 106.944 106.944 0 0 1-122.048 63.04c-26.048 98.24-39.936 202.368-32.704 300.416a106.816 106.816 0 0 1 97.28 86.656c108.48-17.856 222.08-56.256 317.888-111.232a107.008 107.008 0 0 1-19.008-60.736c0-26.432 9.984-50.304 25.792-68.992-41.856-47.104-88.896-92.352-138.944-128.768zM256 639.296c-8.768-104.576 6.656-217.088 34.624-322.048a107.072 107.072 0 0 1-45.632-87.616c0-12.608 2.496-24.704 6.656-35.968a1158.528 1158.528 0 0 0-126.336-15.808c-5.696 6.656-11.84 13.056-17.216 20.096a510.912 510.912 0 0 0-78.72 483.008 607.168 607.168 0 0 0 153.408 42.624A106.944 106.944 0 0 1 256 639.296zM891.392 620.096c-1.856 2.368-4.096 4.288-6.144 6.4 27.712 47.104 51.136 94.848 67.392 145.152a510.72 510.72 0 0 0 53.248-391.808c-5.76 8.512-11.264 17.088-17.344 25.344-27.904 38.464-56 77.888-86.656 113.408 2.88 9.728 4.864 19.904 4.864 30.656v0.256c5.376 23.936 0.832 49.856-15.36 70.592zM458.496 220.608c51.136 26.496 101.376 57.472 149.12 92.16 53.76 39.104 104.128 87.872 148.736 138.496 13.248-5.888 27.776-9.28 43.264-9.28 32 0 60.48 14.4 80.128 36.608 25.856-31.488 50.112-65.408 74.304-98.56 12.416-17.152 23.808-34.752 34.816-52.48A509.44 509.44 0 0 0 492.864 0.768c-7.36 9.344-14.656 18.56-21.696 28.096-25.664 35.328-47.296 69.12-66.56 104.768 2.496 1.856 4.096 4.224 6.4 6.4 26.688 17.664 44.608 46.976 47.488 80.576zM184.256 765.76a649.024 649.024 0 0 1-132.48-31.168 509.056 509.056 0 0 0 371.584 281.408 702.016 702.016 0 0 1-112.192-170.24 107.2 107.2 0 0 1-126.912-80zM288.896 143.488a84.48 84.48 0 0 1 76.736-26.624C385.6 79.36 408.128 43.712 434.816 6.656a510.336 510.336 0 0 0-271.808 131.968c37.76 4.224 75.264 8.96 112.704 16.128 4.032-4.096 8.512-7.744 13.184-11.264z"></path>
  </g>
</svg>