<svg viewBox="0 0 1024 1024" version="1.1" xmlns="http://www.w3.org/2000/svg">
  <g class="fore">
    <path d="M914.688 0H130.944A120.128 120.128 0 0 0 10.816 120.128v783.744A120.128 120.128 0 0 0 130.944 1024h783.744a120.128 120.128 0 0 0 120.128-120.128V120.128A120.128 120.128 0 0 0 914.688 0zM208.928 822.944a61.76 61.76 0 1 1 0-123.456 61.76 61.76 0 0 1 0 123.456z m0-250.24a61.76 61.76 0 1 1 61.76-61.76 61.76 61.76 0 0 1-61.76 62.592v-0.832z m0-250.272a61.76 61.76 0 1 1 61.76-60.064 61.76 61.76 0 0 1-61.76 61.728v-1.664z m654.016 467.584h-486.72a35.456 35.456 0 1 1 0-70.496h486.72a35.456 35.456 0 1 1 0 70.496z m0-250.272h-486.72a35.456 35.456 0 0 1 0-70.496h486.72a35.456 35.456 0 1 1 0 70.496z m0-250.272h-486.72a35.456 35.456 0 1 1 0-70.496h486.72a35.456 35.456 0 1 1 0 70.496z"></path>
  </g>
</svg>