<svg viewBox="0 0 1024 1024" version="1.1" xmlns="http://www.w3.org/2000/svg">
  <g class="fore">
    <path d="m981.20237,-0.35718l-938.40466,0c-23.46012,0 -42.65476,19.21339 -42.65476,42.69643l0,939.32144c0,23.48304 19.19464,42.69643 42.65476,42.69643l938.40466,0c23.46011,0 42.65475,-19.21339 42.65475,-42.69643l0,-939.32144c0,-23.48304 -19.19464,-42.69643 -42.65475,-42.69643zm-191.94641,747.18752c0,23.48303 -19.19465,42.69643 -42.65476,42.69643l-469.20234,0c-23.46011,0 -42.65475,-19.2134 -42.65475,-42.69643l0,-469.66073c0,-23.48303 19.19464,-42.69643 42.65475,-42.69643l127.96427,0l0,85.39286l-85.30952,0l0,384.26787l383.89282,0l0,-384.26787l-149.29165,0l0,115.28036c31.99107,17.07857 49.05297,55.50536 40.52202,96.06696c-6.39822,29.8875 -31.99107,55.50536 -61.8494,61.90982c-55.45119,12.80893 -106.63691,-29.8875 -106.63691,-83.25803c0,-32.02232 17.0619,-59.775 42.65476,-72.58393l0,-160.11161c0,-23.48303 19.19465,-42.69643 42.65476,-42.69643l234.60117,0c23.46011,0 42.65476,19.2134 42.65476,42.69643l0,469.66073l0.00001,0z"></path>
  </g>
</svg>