<svg viewBox="0 0 1024 1024" version="1.1" xmlns="http://www.w3.org/2000/svg">
  <g class="fore">
    <path d="M220.03712 0c22.719147 0 41.915733 7.509333 57.767253 22.528 15.7696 15.018667 23.67488 33.355093 23.67488 54.96832v131.781973c0 21.599573-7.90528 39.936-23.67488 54.96832-15.837867 15.03232-35.048107 22.555307-57.780906 22.555307H81.455787c-22.678187 0-41.915733-7.522987-57.726294-22.555307S0 230.877867 0 209.291947V77.482667C0 55.883093 7.90528 37.546667 23.71584 22.514347 39.512747 7.522987 58.763947 0 81.442133 0h138.581334z m384.16384 0c22.69184 0 41.956693 7.509333 57.739947 22.528 15.837867 15.018667 23.71584 33.355093 23.71584 54.96832v131.781973c0 21.599573-7.891627 39.936-23.71584 54.96832-15.783253 15.03232-35.048107 22.555307-57.739947 22.555307h-141.038933c-22.664533 0-41.915733-7.522987-57.726294-22.555307s-23.71584-33.368747-23.71584-54.954666V77.482667c0-21.613227 7.90528-39.936 23.71584-54.981974C421.23264 7.522987 440.497493 0 463.17568 0h141.038933z m379.275947 0c22.719147 0 41.984 7.509333 57.767253 22.528C1057.05472 37.546667 1064.96 55.86944 1064.96 77.482667v131.781973c0 21.599573-7.90528 39.936-23.71584 54.96832-15.783253 15.03232-35.048107 22.555307-57.767253 22.555307H842.478933c-22.69184 0-41.94304-7.522987-57.7536-22.555307-15.796907-15.03232-23.702187-33.368747-23.702186-54.954667V77.482667c0-21.613227 7.918933-39.936 23.71584-54.981974C800.535893 7.522987 819.787093 0 842.478933 0h140.997974zM220.03712 363.124053c22.719147 0 41.915733 7.509333 57.767253 22.528 15.7696 15.018667 23.67488 33.34144 23.67488 54.913707v131.863893c0 21.558613-7.90528 39.881387-23.67488 54.913707-15.837867 15.045973-35.048107 22.555307-57.780906 22.555307H81.455787c-22.678187 0-41.915733-7.509333-57.726294-22.555307C7.90528 612.324693 0 593.988267 0 572.429653v-131.863893c0-21.572267 7.90528-39.881387 23.71584-54.92736 15.796907-14.99136 35.048107-22.514347 57.726293-22.514347h138.581334z m384.16384 0c22.69184 0 41.956693 7.509333 57.739947 22.528 15.837867 15.018667 23.71584 33.34144 23.71584 54.913707v131.863893c0 21.558613-7.891627 39.881387-23.71584 54.913707-15.783253 15.045973-35.048107 22.555307-57.739947 22.555307h-141.038933c-22.664533 0-41.915733-7.509333-57.726294-22.555307-15.81056-15.018667-23.71584-33.355093-23.71584-54.913707v-131.863893c0-21.572267 7.90528-39.881387 23.71584-54.92736 15.796907-14.99136 35.06176-22.514347 57.739947-22.514347h141.038933z m379.275947 0c22.719147 0 41.984 7.509333 57.767253 22.528 15.81056 15.018667 23.71584 33.34144 23.71584 54.913707v131.863893c0 21.558613-7.90528 39.881387-23.71584 54.913707-15.783253 15.045973-35.048107 22.555307-57.767253 22.555307H842.478933c-22.69184 0-41.94304-7.509333-57.7536-22.555307-15.796907-15.018667-23.702187-33.355093-23.702186-54.913707v-131.863893c0-21.572267 7.918933-39.881387 23.71584-54.92736 15.796907-14.99136 35.048107-22.514347 57.739946-22.514347h140.997974zM220.03712 726.234453c22.719147 0 41.915733 7.509333 57.767253 22.528 15.7696 15.059627 23.67488 33.327787 23.67488 54.941014v131.836586c0 21.558613-7.90528 39.881387-23.67488 54.913707-15.837867 15.03232-35.048107 22.555307-57.780906 22.555307H81.455787c-22.678187 0-41.915733-7.509333-57.726294-22.555307C7.90528 975.42144 0 957.098667 0 935.540053v-131.836586c0-21.613227 7.90528-39.881387 23.71584-54.92736 15.796907-15.018667 35.048107-22.541653 57.726293-22.541654h138.581334z m384.16384 0c22.69184 0 41.956693 7.509333 57.739947 22.528 15.837867 15.059627 23.71584 33.327787 23.71584 54.941014v131.836586c0 21.558613-7.891627 39.881387-23.71584 54.913707-15.783253 15.03232-35.048107 22.555307-57.739947 22.555307h-141.038933c-22.664533 0-41.915733-7.509333-57.726294-22.555307-15.81056-15.03232-23.71584-33.355093-23.71584-54.913707v-131.836586c0-21.613227 7.90528-39.881387 23.71584-54.92736 15.796907-15.018667 35.06176-22.541653 57.739947-22.541654h141.038933z m379.275947 0c22.719147 0 41.984 7.509333 57.767253 22.528C1057.05472 763.835733 1064.96 782.103893 1064.96 803.71712v131.836587c0 21.558613-7.90528 39.881387-23.71584 54.913706-15.783253 15.03232-35.048107 22.555307-57.767253 22.555307H842.478933c-22.69184 0-41.94304-7.509333-57.7536-22.555307-15.796907-15.03232-23.702187-33.355093-23.702186-54.913706v-131.836587c0-21.613227 7.918933-39.881387 23.71584-54.92736 15.796907-15.018667 35.048107-22.541653 57.739946-22.541653h140.997974z"></path>
  </g>
</svg>