<svg viewBox="0 0 1024 1024" version="1.1" xmlns="http://www.w3.org/2000/svg">
  <g class="fore">
    <path d="M920.177778 7.111111H197.688889c-38.4 0-68.266667 31.288889-68.266667 68.266667v4.266666c0 4.266667-2.844444 5.688889-5.688889 5.688889H91.022222C65.422222 85.333333 41.244444 102.4 36.977778 128c-7.111111 34.133333 19.911111 65.422222 52.622222 65.422222h35.555556c2.844444 0 4.266667 2.844444 4.266666 4.266667v49.777778c0 2.844444-2.844444 4.266667-4.266666 4.266666H91.022222c-25.6 0-48.355556 17.066667-54.044444 42.666667-7.111111 34.133333 19.911111 65.422222 52.622222 65.422222h34.133333c2.844444 0 4.266667 2.844444 4.266667 4.266667v49.777778c0 2.844444-2.844444 5.688889-5.688889 5.688889H91.022222c-25.6 0-48.355556 17.066667-54.044444 42.666666-7.111111 34.133333 19.911111 65.422222 52.622222 65.422222h34.133333c2.844444 0 5.688889 2.844444 5.688889 5.688889v48.355556c0 4.266667-2.844444 7.111111-7.111111 7.111111H91.022222c-25.6 0-48.355556 17.066667-54.044444 42.666667C29.866667 665.6 56.888889 696.888889 89.6 696.888889h32.711111c4.266667 0 7.111111 2.844444 7.111111 7.111111v48.355556c0 2.844444-2.844444 5.688889-5.688889 5.688888H91.022222c-25.6 0-48.355556 17.066667-54.044444 42.666667-7.111111 34.133333 19.911111 65.422222 52.622222 65.422222h34.133333c2.844444 0 5.688889 2.844444 5.688889 5.688889v79.644445c0 38.4 31.288889 68.266667 68.266667 68.266666h722.488889c38.4 0 68.266667-31.288889 68.266666-68.266666V75.377778c0-36.977778-31.288889-68.266667-68.266666-68.266667zM89.6 164.977778c-15.644444 0-27.022222-14.222222-24.177778-29.866667 1.422222-12.8 12.8-21.333333 25.6-21.333333h32.711111c2.844444 0 4.266667 2.844444 4.266667 4.266666v41.244445c0 2.844444-2.844444 4.266667-4.266667 4.266667H89.6z m0 166.4c-15.644444 0-27.022222-14.222222-24.177778-29.866667 1.422222-12.8 14.222222-21.333333 25.6-21.333333h32.711111c2.844444 0 4.266667 2.844444 4.266667 4.266666v42.666667c0 2.844444-2.844444 4.266667-4.266667 4.266667H89.6z m0 167.822222c-15.644444 0-27.022222-14.222222-24.177778-29.866667 1.422222-12.8 14.222222-21.333333 25.6-21.333333h32.711111c2.844444 0 5.688889 2.844444 5.688889 5.688889v39.822222c0 2.844444-2.844444 5.688889-5.688889 5.688889H89.6z m0 167.822222c-15.644444 0-27.022222-14.222222-24.177778-29.866666 1.422222-12.8 14.222222-21.333333 27.022222-21.333334h31.288889c4.266667 0 7.111111 2.844444 7.111111 7.111111v36.977778c0 4.266667-2.844444 7.111111-7.111111 7.111111H89.6z m0 167.822222c-15.644444 0-27.022222-14.222222-24.177778-29.866666 1.422222-12.8 14.222222-21.333333 25.6-21.333334h32.711111c2.844444 0 5.688889 2.844444 5.688889 5.688889v38.4c0 2.844444-2.844444 5.688889-5.688889 5.688889H89.6z m156.444444 58.311112c-19.911111 2.844444-36.977778-5.688889-45.511111-21.333334-1.422222-4.266667 1.422222-8.533333 5.688889-8.533333h24.177778c7.111111 0 14.222222-5.688889 15.644444-12.8 0-8.533333-5.688889-15.644444-14.222222-15.644445h-21.333333c-5.688889 0-7.111111-5.688889-4.266667-9.955555 8.533333-9.955556 19.911111-17.066667 34.133334-17.066667 27.022222 0 48.355556 24.177778 42.666666 51.2-5.688889 17.066667-18.488889 31.288889-36.977778 34.133334z m1.422223-169.244445c-19.911111 4.266667-36.977778-5.688889-45.511111-19.911111-2.844444-4.266667 0-8.533333 4.266666-8.533333h22.755556c7.111111 0 14.222222-5.688889 15.644444-12.8 0-8.533333-5.688889-15.644444-14.222222-15.644445h-24.177778c-4.266667 0-7.111111-4.266667-4.266666-8.533333 7.111111-12.8 21.333333-19.911111 36.977777-19.911111 27.022222 0 48.355556 24.177778 42.666667 51.2-4.266667 17.066667-17.066667 31.288889-34.133333 34.133333z m0-169.244444c-18.488889 4.266667-36.977778-4.266667-45.511111-18.488889-1.422222-2.844444 0-7.111111 4.266666-7.111111h22.755556c7.111111 0 14.222222-5.688889 15.644444-12.8 0-8.533333-5.688889-15.644444-14.222222-15.644445h-25.6c-2.844444 0-5.688889-4.266667-4.266667-7.111111 7.111111-14.222222 21.333333-24.177778 38.4-24.177778 27.022222 0 48.355556 24.177778 42.666667 51.2-4.266667 17.066667-17.066667 29.866667-34.133333 34.133334z m-2.844445-169.244445c-17.066667 2.844444-32.711111-5.688889-41.244444-17.066666-2.844444-2.844444 0-7.111111 4.266666-7.111112h22.755556c7.111111 0 14.222222-5.688889 15.644444-12.8 0-8.533333-5.688889-15.644444-14.222222-15.644444h-27.022222c-4.266667 0-5.688889-4.266667-4.266667-7.111111 7.111111-15.644444 21.333333-25.6 39.822223-25.6 27.022222 0 48.355556 24.177778 42.666666 51.2-5.688889 17.066667-19.911111 31.288889-38.4 34.133333z m1.422222-169.244444c-17.066667 2.844444-32.711111-4.266667-42.666666-17.066667-1.422222-2.844444 0-5.688889 2.844444-5.688889h22.755556c7.111111 0 14.222222-5.688889 15.644444-12.8 0-8.533333-5.688889-15.644444-14.222222-15.644444h-27.022222c-2.844444 0-5.688889-4.266667-4.266667-7.111111 5.688889-15.644444 21.333333-27.022222 39.822222-27.022223 27.022222 0 48.355556 24.177778 42.666667 51.2-4.266667 17.066667-18.488889 31.288889-35.555556 34.133334z"></path>
  </g>
</svg>