<svg viewBox="0 0 1024 1024" version="1.1" xmlns="http://www.w3.org/2000/svg">
  <g class="fore">
    <path d="M885.952 101.056l-13.44 40.448c-15.36 46.016-41.408 90.496-64.896 123.968a462.08 462.08 0 0 1 99.968 195.84c19.968 88.192 10.368 187.776-63.744 261.888l-90.496 90.496-30.976-30.976c-80.96 72.704-174.72 126.464-267.264 148.8-105.28 25.472-213.248 10.688-293.248-69.312-80.064-80.064-94.848-188.032-69.376-293.312 22.4-92.544 76.16-186.24 148.8-267.264l-30.976-30.976L300.8 180.16c73.664-73.664 173.184-83.2 260.736-64a455.04 455.04 0 0 1 184 88.832c17.664-26.56 35.456-58.88 46.016-90.496l13.44-40.448 80.96 27.008z m-224 621.248l-41.792-41.792V584.832H524.48l-222.72-222.72C238.08 433.728 193.472 513.92 175.36 588.864c-20.672 85.312-6.528 159.68 46.72 212.928 53.248 53.248 127.616 67.392 212.928 46.72 74.944-18.112 155.136-62.72 226.88-126.272z"></path>
  </g>
</svg>