<svg viewBox="0 0 1024 1024" version="1.1" xmlns="http://www.w3.org/2000/svg">
  <g class="fore">
    <path d="M460.754286 4.068571c68.937143-10.297143 140.994286 0.925714 203.302857 32.262858 56.08 27.92 104.217143 71.577143 137.44 124.685714 38.434286 5.417143 74.297143 26.742857 97.04 58.228571 25.885714 34.891429 34.331429 81.748571 22.754286 123.577143-8.902857 32.891429-29.908571 62.32-58.102858 81.451429-23.725714 16.308571-52.422857 25.245714-81.222857 25.177143 0.057143-73.257143-0.022857-146.502857 0.045715-219.748572 0.217143-3.268571-1.794286-6.022857-3.028572-8.88-17.988571-37.44-43.965714-70.994286-75.634286-97.862857-35.257143-30.022857-77.622857-51.702857-122.697142-62.411429-39.508571-9.531429-80.971429-10.742857-120.994286-3.748571-43.554286 7.542857-85.291429 25.108571-121.211429 50.845714-43.474286 31.097143-78.594286 74.045714-99.702857 123.188572-0.354286 67.771429-0.057143 135.577143-0.148571 203.36-0.137143 5.131429 0.274286 10.285714-0.24 15.405714-28.685714-0.32-57.257143-8.994286-80.925715-25.28-30.091429-20.4-51.977143-52.525714-59.794285-88.045714-6.674286-30.034286-3.645714-62.182857 8.914285-90.297143 14.217143-32.297143 40.708571-58.971429 72.902858-73.405714 12.674286-5.771429 26.205714-9.565714 39.988571-11.485715 1.611429 0.045714 2.171429-1.691429 2.994286-2.731428 26.834286-42.125714 63.165714-78.091429 105.302857-104.857143 40.24-25.531429 85.851429-42.571429 133.017143-49.428572z"></path>
    <path d="M492.742857 100.788571c58.651429-4.982857 118.868571 12.88 165.165714 49.257143 35.337143 27.44 62.731429 65.028571 77.817143 107.165715 15.405714 42.594286 18.114286 89.622857 8 133.76-9.154286 40.228571-29.142857 77.908571-57.2 108.137142-28.068571 30.422857-64.217143 53.337143-103.76 65.6-48.422857 15.142857-101.691429 14.182857-149.542857-2.651428-37.462857-13.108571-71.417143-35.897143-97.942857-65.394286-22.445714-24.88-39.542857-54.571429-49.725714-86.491428-14.262857-44.502857-14.971429-93.211429-2.057143-138.114286 11.554286-40.502857 34.24-77.702857 64.8-106.674286 38.902857-37.188571 90.754286-60.468571 144.445714-64.594286z"></path>
    <path d="M132.354286 702.605714c47.462857-56.605714 108.994286-100.948571 176.834285-129.897143 45.131429 37.702857 100.96 62.48 159.245715 70.377143 47.668571 6.56 96.834286 2.262857 142.548571-12.788571 37.817143-12.434286 73.245714-32.068571 103.805714-57.588572 58.937143 25.142857 113.028571 61.874286 157.405715 108.171429 46.045714 47.965714 81.382857 106.457143 100.64 170.205714 16.8 55.76 21.634286 115.291429 12.971428 172.914286H38.331429c-1.611429-6.811429-1.954286-13.817143-2.72-20.742857-2.902857-31.851429-1.874286-64.045714 2.834285-95.668572 11.188571-75.394286 44.754286-146.914286 93.908572-204.982857m312.674285 23.668572c-6.754286 1.714286-12.971429 5.931429-16.491428 12.022857-4.011429 6.754286-4.342857 15.211429-1.908572 22.582857 7.508571 23.28 14.937143 46.594286 22.525715 69.851429 4.377143 10.594286 16.845714 15.017143 27.52 15.394285 23.942857 0.068571 47.874286 0.102857 71.817143-0.022857 10.582857-0.468571 22.902857-4.937143 27.188571-15.462857 7.554286-23.337143 15.005714-46.697143 22.491429-70.057143 2.731429-8.217143 1.817143-17.874286-3.634286-24.788571-5.371429-7.085714-14.411429-10.571429-23.12-10.594286-36.948571-0.045714-73.897143 0-110.845714-0.022857-5.2 0-10.48-0.262857-15.542858 1.097143m21.382858 137.897143c-8.514286 3.131429-17.725714 8.64-19.977143 18.102857-11.92 46.64-23.908571 93.257143-35.817143 139.897143h200.617143c-11.931429-46.868571-23.954286-93.725714-35.92-140.594286-1.977143-7.405714-8.64-12.331429-15.234286-15.485714-15.28-7.485714-32.697143-5.714286-49.165714-5.897143-14.868571 0.251429-30.274286-1.394286-44.502857 3.977143z"></path>
  </g>
</svg>