<svg viewBox="0 0 1024 1024" version="1.1" xmlns="http://www.w3.org/2000/svg">
  <g class="fore">
    <path d="m511.893034,1023.893077c-282.26,0 -511.893034,-229.63306 -511.893034,-511.893071s229.633033,-511.893071 511.893034,-511.893071s511.893034,229.63305 511.893034,511.893071s-229.633043,511.893071 -511.893034,511.893071zm0,-1001.998017c-270.246855,0 -490.11035,219.863522 -490.11035,490.110386s219.863495,490.110386 490.11035,490.110386s490.11035,-219.863522 490.11035,-490.110386s-219.863505,-490.110386 -490.11035,-490.110386z"></path>
    <path d="m511.893034,83.83412c-57.141419,0 -103.810822,48.330332 -103.467745,103.467753s71.245713,242.217999 74.877972,250.332044s12.367115,28.589775 28.589773,28.589775s24.957504,-20.481171 28.589763,-28.589775s74.540347,-195.194622 74.877972,-250.332044s-46.320876,-103.467753 -103.467735,-103.467753zm-302.109467,125.136076c-40.406881,40.406874 -39.230611,107.579226 0,146.325175s221.655125,120.899349 229.959777,124.063277c8.299201,3.169379 28.960075,11.474032 40.428655,0c11.474031,-11.474021 3.169379,-32.129457 0,-40.434099c-3.163938,-8.299211 -85.317321,-190.72918 -124.063267,-229.959794s-105.918294,-40.395992 -146.325165,0.005441zm-125.136067,302.109489c0,57.141423 48.330328,103.81082 103.467745,103.467743s242.217981,-71.245708 250.332025,-74.877968c8.108603,-3.63227 28.589773,-12.367126 28.589773,-28.589775c0,-16.2281 -20.475718,-24.957506 -28.589773,-28.589775c-8.108603,-3.63226 -195.189167,-74.540342 -250.326584,-74.877978s-103.473186,46.331771 -103.473186,103.467753zm125.136067,302.109489c40.406871,40.406874 107.579218,39.230614 146.325165,0s120.893888,-221.655142 124.063267,-229.959794c3.169379,-8.299201 11.46858,-28.960078 0,-40.428658c-11.474031,-11.474032 -32.129454,-3.169389 -40.434106,0c-8.299201,3.163928 -190.723715,85.317327 -229.954326,124.063266s-40.406881,105.923753 0,146.325186zm302.109467,125.141517c57.141419,0 103.810812,-48.330332 103.467735,-103.467753s-71.245703,-242.217999 -74.877972,-250.332044c-3.632259,-8.108604 -12.367115,-28.589775 -28.589763,-28.589775c-16.228099,0 -24.957514,20.47573 -28.595214,28.589775c-3.632269,8.108604 -74.540347,195.189181 -74.877972,250.326603s46.331758,103.473194 103.473186,103.473194zm302.109467,-125.136076c40.40143,-40.406874 39.230611,-107.579226 0,-146.325175s-221.655135,-120.893897 -229.959777,-124.063277c-8.304652,-3.169379 -28.960075,-11.46858 -40.428665,0c-11.479472,11.474032 -3.17482,32.129457 -0.005441,40.434109c3.163938,8.299201 85.317321,190.723729 124.063267,229.959794c38.751387,39.225163 105.923735,40.395981 146.330616,-0.005451zm125.136057,-302.109489c0,-57.141423 -48.330328,-103.81082 -103.467735,-103.467743s-242.217981,71.245708 -250.332035,74.877978c-8.114044,3.63226 -28.589763,12.367116 -28.589763,28.589765c0,16.2281 20.475718,24.957516 28.589763,28.595226c8.108603,3.63226 195.189177,74.540342 250.332035,74.877968c55.137407,0.337636 103.467735,-46.331761 103.467735,-103.473194zm-125.136057,-302.109489c-40.40143,-40.401433 -107.573777,-39.230614 -146.325175,0s-120.899329,221.655152 -124.063267,229.959794c-3.169379,8.304652 -11.474021,28.960078 0,40.428668c11.474031,11.479473 32.124013,3.17482 40.434106,0.005441c8.299201,-3.163938 190.723725,-85.317327 229.959777,-124.063277c39.230611,-38.75139 40.395989,-105.929194 -0.005441,-146.330627z"></path>
  </g>
</svg>