<svg viewBox="0 0 1024 1024" version="1.1" xmlns="http://www.w3.org/2000/svg">
  <g class="fore">
    <path d="M433.6 754.8c0 3.6-1.5 7.1-4.5 10.7L286.8 908c-3 2.7-6.4 4-10.2 4-3.6 0-7-1.3-10.2-4l-143-142.9c-4.5-4.8-5.5-10-3.1-15.6 2.3-5.9 6.9-8.9 13.4-8.9h85.7V126.3c0-4.1 1.3-7.6 4-10.2 2.7-2.7 6.1-4 10.2-4h85.7c4.1 0 7.6 1.3 10.2 4 2.7 2.7 4 6.1 4 10.2v614.2h85.7c4.1 0 7.6 1.3 10.2 4 2.9 2.7 4.2 6.2 4.2 10.3zM905 126.3V212c0 4.1-1.3 7.6-4 10.2-2.7 2.7-6.1 4-10.2 4H519.3c-4.1 0-7.6-1.3-10.2-4-2.7-2.7-4-6.1-4-10.2v-85.7c0-4.1 1.3-7.6 4-10.2 2.7-2.7 6.1-4 10.2-4h371.4c4.1 0 7.6 1.3 10.2 4 2.8 2.7 4.1 6 4.1 10.2z m-85.7 228.6v85.7c0 4.1-1.3 7.6-4 10.2-2.7 2.7-6.1 4-10.2 4H519.3c-4.1 0-7.6-1.3-10.2-4-2.7-2.7-4-6.1-4-10.2v-85.7c0-4.1 1.3-7.6 4-10.2 2.7-2.7 6.1-4 10.2-4H805c4.1 0 7.6 1.3 10.2 4 2.8 2.6 4.1 6 4.1 10.2z m-85.7 228.5v85.7c0 4.1-1.3 7.6-4 10.2-2.7 2.7-6.1 4-10.2 4h-200c-4.1 0-7.6-1.3-10.2-4-2.7-2.7-4-6.1-4-10.2v-85.7c0-4.1 1.3-7.6 4-10.2 2.7-2.7 6.1-4 10.2-4h200c4.1 0 7.6 1.3 10.2 4 2.6 2.6 4 6.1 4 10.2zM647.8 812v85.7c0 4.1-1.3 7.6-4 10.2-2.7 2.7-6.1 4-10.2 4H519.3c-4.1 0-7.6-1.3-10.2-4-2.7-2.7-4-6.1-4-10.2V812c0-4.1 1.3-7.6 4-10.2 2.7-2.7 6.1-4 10.2-4h114.3c4.1 0 7.6 1.3 10.2 4 2.7 2.6 4 6 4 10.2z"></path>
  </g>
</svg>