<svg viewBox="0 0 1024 1024" version="1.1" xmlns="http://www.w3.org/2000/svg">
  <g class="fore">
    <path d="M1001.957949 193.276524c-21.436704-123.565002-49.080454-148.905106-171.685603-170.4058C658.842703-7.140662 363.272147-7.588593 192.994327 22.038852 69.557306 43.475556 44.281192 71.247286 22.844488 193.916425-7.166898 365.474048-7.678819 660.212732 21.820645 830.746513c21.372714 123.628992 49.080454 148.905106 171.685603 170.4058 171.493633 30.011386 467.000199 30.523307 637.342009 0.959852 123.565002-21.500694 148.777126-49.144444 170.21383-171.941564 30.011386-171.621613 30.459317-466.488277 0.895862-636.958067z m-409.792994 578.087119a257.49641 257.49641 0 0 1-103.088151-21.372714 208.351966 208.351966 0 0 0 53.687746-116.782045l43.193359 4.03138c13.245963 1.599754 19.77296-7.102908 14.589757-19.325028l-55.863411-136.491015c-5.183203-12.222121-15.99754-13.565914-23.996311-2.943547L422.207086 600.317941c-7.99877 10.622367-3.77542 20.668822 9.406553 22.268576l58.039077 4.607292c-4.03138 37.434244-18.237196 71.093069-43.38533 96.305193a160.167374 160.167374 0 0 1-227.037093 0.319951 160.615305 160.615305 0 0 1 121.005396-273.813901 259.352125 259.352125 0 1 1 251.865275 321.358591z" />
  </g>
</svg>