<svg viewBox="0 0 1024 1024" version="1.1" xmlns="http://www.w3.org/2000/svg">
  <g class="fore">
    <path d="M512 1024C229.2224 1024 0 794.7776 0 512S229.2224 0 512 0s512 229.2224 512 512-229.2224 512-512 512zM256 204.8a51.2 51.2 0 0 0-51.2 51.2v153.6a51.2 51.2 0 0 0 51.2 51.2h204.8V256a51.2 51.2 0 0 0-51.2-51.2H256z m512 0h-153.6a51.2 51.2 0 0 0-51.2 51.2v204.8h204.8a51.2 51.2 0 0 0 51.2-51.2V256a51.2 51.2 0 0 0-51.2-51.2zM256 819.2h153.6a51.2 51.2 0 0 0 51.2-51.2v-204.8H256a51.2 51.2 0 0 0-51.2 51.2v153.6a51.2 51.2 0 0 0 51.2 51.2z m512 0a51.2 51.2 0 0 0 51.2-51.2v-153.6a51.2 51.2 0 0 0-51.2-51.2h-204.8v204.8a51.2 51.2 0 0 0 51.2 51.2h153.6z"></path>
  </g>
</svg>