<svg viewBox="0 0 1024 1024" version="1.1" xmlns="http://www.w3.org/2000/svg">
  <g class="fore">
    <path d="M512 682.666667c23.893333 35.84 55.893333 65.28 93.866667 85.333333L512 861.866667 418.133333 768c37.973333-20.053333 70.4-49.493333 93.866667-85.333333m213.333333-204.8a85.333333 85.333333 0 0 0-85.333333 85.333333 85.333333 85.333333 0 0 0 85.333333 85.333333 85.333333 85.333333 0 0 0 85.333334-85.333333 85.333333 85.333333 0 0 0-85.333334-85.333333m-426.666666 0a85.333333 85.333333 0 0 0-85.333334 85.333333 85.333333 85.333333 0 0 0 85.333334 85.333333 85.333333 85.333333 0 0 0 85.333333-85.333333 85.333333 85.333333 0 0 0-85.333333-85.333333m426.666666-106.666667a170.666667 170.666667 0 0 1 170.666667 170.666667 170.666667 170.666667 0 0 1-170.666667 170.666666 170.666667 170.666667 0 0 1-170.666666-170.666666 170.666667 170.666667 0 0 1 170.666666-170.666667m-426.666666 0a170.666667 170.666667 0 0 1 170.666666 170.666667 170.666667 170.666667 0 0 1-170.666666 170.666666 170.666667 170.666667 0 0 1-170.666667-170.666666 170.666667 170.666667 0 0 1 170.666667-170.666667M95.573333 42.666667c75.093333 157.866667 20.906667 275.626667-29.44 392.533333-15.36 34.133333-23.466667 69.546667-23.466666 106.666667a256 256 0 0 0 256 256c8.96-0.426667 17.92-0.853333 26.88-2.133334l126.293333 126.293334L512 981.333333l60.16-59.306666 126.293333-126.293334c8.96 1.28 17.92 1.706667 26.88 2.133334a256 256 0 0 0 256-256c0-37.12-8.106667-72.533333-23.466666-106.666667C907.52 318.293333 853.333333 200.533333 928.426667 42.666667c-112.64 87.893333-273.066667 157.44-416.426667 157.866666C368.64 200.106667 208.213333 130.56 95.573333 42.666667z"></path>
  </g>
</svg>