<svg viewBox="0 0 1024 1024" version="1.1" xmlns="http://www.w3.org/2000/svg">
  <g class="fore">
    <path d="M921.6 342.749867c0-188.2112-183.739733-341.333333-409.6-341.333334s-409.6 153.122133-409.6 341.333334v545.416533h0.0512c0 0.256-0.0512 0.477867-0.0512 0.7168 0 105.540267 257.467733 133.6832 409.6 133.6832s409.6-28.142933 409.6-133.6832c0-1.3312-0.221867-2.6112-0.3072-3.908267H921.6V342.749867z m-409.6-273.066667c149.930667 0 277.2992 77.841067 323.037867 185.582933C746.325333 220.347733 608.1536 209.066667 512 209.066667s-234.325333 11.281067-323.037867 46.216533C234.7008 147.541333 362.069333 69.6832 512 69.6832z m273.066667 330.103467v271.803733c0 16.9984-11.6224 32.768-28.398934 35.498667A34.1504 34.1504 0 0 1 716.8 673.416533V431.189333a33.655467 33.655467 0 0 0-38.144-33.467733l-0.699733 0.1024A33.877333 33.877333 0 0 0 648.533333 431.291733v103.7824c0 16.9984-11.6224 32.768-28.398933 35.498667A34.184533 34.184533 0 0 1 580.266667 536.8832v-95.402667a33.655467 33.655467 0 0 0-34.525867-33.723733 1350.826667 1350.826667 0 0 1-33.7408 0.4096c-214.289067 0-325.1712-44.4928-340.4288-65.416533 15.2576-20.906667 126.139733-65.416533 340.4288-65.416534s325.1712 44.509867 340.4288 65.4336c-4.898133 6.724267-19.882667 15.889067-44.885333 25.224534A34.082133 34.082133 0 0 0 785.066667 399.786667z"></path>
  </g>
</svg>