<svg viewBox="0 0 1024 1024" version="1.1" xmlns="http://www.w3.org/2000/svg">
  <g class="fore">
    <path d="M938.666667 227.555556v220.558222c0 27.136-15.189333 51.541333-38.286223 61.610666l-243.712 106.097778a33.735111 33.735111 0 0 0-18.773333 36.295111l26.510222 239.160889C664.405333 964.608 579.356444 1024 512 1024c-67.356444 0-152.405333-59.392-152.405333-132.721778l26.453333-239.160889a33.735111 33.735111 0 0 0-18.716444-36.238222L123.619556 509.724444c-23.096889-10.069333-38.286222-34.474667-38.286223-61.610666V227.555556h853.333334z m-60.928-227.555556C911.36 0 938.666667 25.486222 938.666667 56.888889v113.777778h-853.333334V56.888889c0-31.402667 27.306667-56.888889 60.928-56.888889H877.795556z"></path>
  </g>
</svg>