<svg viewBox="0 0 1024 1024" version="1.1" xmlns="http://www.w3.org/2000/svg">
  <g class="fore">
    <path d="M1009.158986 66.316476L889.662378 943.696842c-0.019961 0-0.039922 0.009981-0.059883 0.009981a28.937481 28.937481 0 0 1-40.640624 25.41037l-0.029941 0.029942-325.594074-137.960546-64.474074 132.750721a28.904546 28.904546 0 0 1-54.475603-0.179649L324.865497 787.461988l39.810246-45.70074L796.913528 242.219914 225.66924 705.052943 21.37625 618.482027c0.03094-0.089825 0.058885-0.179649 0.088826-0.269473a29.867665 29.867665 0 0 1 0.424172-54.952671L966.681949 33.494581c0.059883 0.077848 0.109786 0.152702 0.169669 0.23055a28.904546 28.904546 0 0 1 42.307368 32.591345z"></path>
  </g>
</svg>