<svg viewBox="0 0 1024 1024" version="1.1" xmlns="http://www.w3.org/2000/svg">
  <g class="fore">
    <path d="M979.63 799.77H548.16c-25.84 0-44.47 18.79-44.47 45.2s18.63 45.2 44.47 45.2h431.47c25.84 0 44.47-18.79 44.47-45.2s-18.63-45.2-44.47-45.2zM307.78 910.72c-37.26 0-67.31-29.35-67.31-65.75s30.05-65.75 67.31-65.75c37.26 0 67.31 29.35 67.31 65.75s-30.05 65.75-67.31 65.75z m0-221.9c-69.71 0-131.61 45.2-152.64 110.95H46.37C19.33 799.77 0.1 818.56 0.1 844.97s19.23 45.2 46.27 45.2h108.77c20.43 65.75 82.93 110.95 152.64 110.95 88.34 0 159.85-69.86 159.85-156.15s-71.51-156.15-159.85-156.15z m210.93-176.69c0-26.42-18.63-45.2-44.47-45.2H44.57C18.73 466.93 0.1 485.72 0.1 512.13c0 26.42 18.63 45.2 44.47 45.2h430.27c25.24 0 43.87-18.79 43.87-45.2z m-210.93-398.6c37.26 0 67.31 29.35 67.31 65.75s-30.05 65.75-67.31 65.75c-37.26 0-67.31-29.35-67.31-65.75 0.01-36.4 30.05-65.75 67.31-65.75zM46.37 224.48h108.77c20.43 65.75 82.93 110.95 152.64 110.95 88.34 0 159.85-69.86 159.85-156.15S396.12 23.13 307.78 23.13c-69.71 0-131.61 45.2-152.64 110.95H46.37C19.33 134.08 0.1 152.86 0.1 179.28s19.83 45.2 46.27 45.2z m501.79 0h431.47c25.84 0 44.47-18.79 44.47-45.2s-18.63-45.2-44.47-45.2H548.16c-25.84 0-44.47 18.78-44.47 45.2s19.23 45.2 44.47 45.2z m168.26 353.4c-37.26 0-67.31-29.35-67.31-65.75s30.05-65.75 67.31-65.75c37.26 0 67.31 29.35 67.31 65.75-0.01 36.39-30.05 65.75-67.31 65.75z m261.41-110.95H869.06c-20.43-65.75-82.93-110.95-152.64-110.95-88.34 0-159.85 69.86-159.85 156.15s71.51 156.15 159.85 156.15c69.71 0 131.61-45.2 152.64-110.95h108.77c27.04 0 46.27-18.79 46.27-45.2 0-26.42-19.83-45.2-46.27-45.2z"></path>
  </g>
</svg>