<svg viewBox="0 0 1024 1024" version="1.1" xmlns="http://www.w3.org/2000/svg">
  <g class="fore">
    <path d="m665.71059,278.56199c0,-155.62536 -123.62814,-278.86198 -275.74647,-278.86198l-389.76414,0l0,1021.35549l139.43707,0l0,-463.68845l250.32707,0c152.11834,0 275.74647,-126.42426 275.74647,-278.80506zm-297.92447,132.9134l-228.14907,0l0,-269.12828l228.14907,0c66.534,3.24457 126.81267,64.89134 126.81267,132.97032c3.12767,68.07898 -60.27867,132.9134 -126.81267,136.15796zm640.14808,359.91923c-3.12767,-9.67678 -15.80893,-19.4674 -15.80893,-19.4674l-50.72507,-136.15796c-9.49673,-25.95653 -41.17147,-38.9348 -53.85273,-38.9348l-263.0652,0c-12.68127,0 -44.356,12.97827 -53.85273,38.9348l-50.72507,139.45945s-12.68127,9.67678 -15.80893,19.35356c-3.18453,9.79062 -9.5536,16.27976 -9.5536,77.8696c0,58.34528 12.68127,81.05725 25.36253,87.54638l9.5536,6.48913l0,55.10071c0,19.4674 3.12767,22.71197 22.178,22.71197l37.98693,0c15.8658,0 28.54707,0 28.54707,-19.4674l0,-55.10071l282.05867,0l0,55.10071c0,19.4674 12.68127,19.4674 28.4902,19.4674l38.0438,0c15.8658,0 22.178,-6.48913 22.178,-22.71197l0,-55.10071l9.49673,-6.48913c12.68127,-6.48913 25.36253,-29.2011 25.36253,-87.54638c-6.3122,-64.89134 -9.49673,-71.32355 -15.8658,-81.05725zm-424.62341,-35.69024c3.18453,-6.48913 15.8658,-68.07898 22.178,-90.79095c3.18453,-6.43221 18.99347,-29.14418 38.0438,-29.14418l218.65234,0c18.99347,0 34.85927,19.4674 38.0438,29.14418c6.3122,22.76889 18.99347,81.05725 22.178,90.79095c6.3122,9.7337 -3.18453,9.7337 -3.18453,9.7337l-329.59921,0s-6.3122,0 -6.3122,-9.67678l0,-0.05692zm6.3122,149.13623a42.42253,42.46398 0 0 1 -41.17147,-42.12245c0,-22.71197 18.99347,-42.12245 41.17147,-42.12245c22.178,0 41.22833,19.41048 41.22833,42.12245a40.37533,40.41478 0 0 1 -41.22833,42.12245zm332.78374,0a42.42253,42.46398 0 0 1 -41.22833,-42.12245c0,-22.71197 19.05033,-42.12245 41.22833,-42.12245c22.178,0 41.17147,19.41048 41.17147,42.12245c-3.18453,25.95653 -18.99347,42.12245 -41.17147,42.12245z"></path>
  </g>
</svg>