<svg viewBox="0 0 1024 1024" version="1.1" xmlns="http://www.w3.org/2000/svg">
  <g class="fore">
    <path d="m669.4423,236.25387c65.14659,0 118.03229,-52.88596 118.03229,-118.20557c0,-65.26231 -52.8857,-118.14827 -118.08879,-118.14827s-118.03229,52.88596 -118.03229,118.20557c0,65.26231 52.8292,118.14827 118.08879,118.14827z"></path>
    <path d="m551.35351,472.60771c86.95629,0 157.41406,-70.53372 157.41406,-157.56923s-70.45776,-157.56923 -157.41406,-157.56923s-157.41406,70.53372 -157.41406,157.56923s70.45776,157.56923 157.41406,157.56923z"></path>
    <path d="m787.47459,472.60771c86.89979,0 157.35755,-70.53372 157.35755,-157.56923s-70.45776,-157.56923 -157.35755,-157.56923c-86.95629,0 -157.41406,70.53372 -157.41406,157.56923s70.45776,157.56923 157.41406,157.56923zm-314.82811,236.35384c86.95629,0 157.41406,-70.53372 157.41406,-157.56923s-70.45776,-157.56923 -157.41406,-157.56923c-86.89979,0 -157.41406,70.53372 -157.41406,157.56923s70.51426,157.56923 157.41406,157.56923z"></path>
    <path d="m671.81538,708.96155c43.28039,0 133.9093,0.1146 194.36624,-1.31785c28.64642,-28.53435 -36.95219,-112.53308 -36.95219,-156.25138c0,-87.03551 -70.51426,-157.56923 -157.41406,-157.56923c-86.95629,0 -157.41406,70.53372 -157.41406,157.56923c0,49.90647 -88.14283,128.69109 -51.98167,157.56923c115.54621,1.48975 172.33053,0 209.39573,0z"></path>
    <path d="m866.12512,708.96155c86.95629,0 157.41406,-70.53372 157.41406,-157.56923s-70.45776,-157.56923 -157.41406,-157.56923c-86.89979,0 -157.35755,70.53372 -157.35755,157.56923s70.45776,157.56923 157.35755,157.56923zm-865.6643,236.35384l1023.07836,0l0,78.78461l-1023.07836,0l0,-78.78461zm0,-236.35384l314.77161,0l0,78.78461l-314.77161,0l0,-78.78461z"></path>
    <path d="m191.09794,707.6437l0,315.13845l-78.70703,0l0,-315.13845l78.70703,0zm517.66963,-137.22847l0,452.36693l-78.70703,0l0,-452.36693l78.70703,0z"></path>
  </g>
</svg>