<svg viewBox="0 0 1024 1024" version="1.1" xmlns="http://www.w3.org/2000/svg">
  <g class="fore">
    <path d="m255.099029,583.370328c20.425905,-13.405102 47.706141,-10.827198 64.979055,6.058075l265.673857,260.239438c12.474882,12.11615 16.99874,29.645899 11.926535,46.015592l-28.514016,90.613336l275.407006,-258.950486l-316.94425,-403.957602c-6.717244,-8.635979 -19.192126,-11.342779 -29.336535,-6.18697l-215.500156,108.01419c-22.208031,11.084988 -49.762441,5.155809 -64.567795,-14.049578l-86.775826,-112.396627l-109.395117,0c-12.474882,0 -22.619291,9.538246 -22.619291,21.26771l0,354.075154c0,11.729465 10.144409,21.26771 22.619291,21.26771l62.648582,0l170.39866,-112.009941z"/>
    <path d="m267.299738,636.432187l-105.830865,69.474521l337.781415,317.597809c0.41126,-0.128895 0.274173,-0.128895 0.685433,-0.128895l40.714724,-129.668586c2.330472,-7.347027 0.274173,-15.338531 -5.346378,-20.881025l-238.530707,-233.687024c-7.813937,-7.475922 -20.288819,-8.635979 -29.473622,-2.7068zm734.510074,-339.3811l-163.54433,0l-308.719053,-290.272023c-8.91063,-8.378189 -23.304724,-8.378189 -32.215354,0l-302.687242,284.600634l53.875039,69.861206c6.717244,8.635979 19.192126,11.342779 29.336535,6.315866l215.500156,-108.01419c21.933858,-10.956093 49.488267,-5.155809 64.156535,13.791788l329.693305,420.327295l114.467322,0c12.611968,0 22.893464,-9.667141 22.893464,-21.525501l0,-353.559574c0.137087,-11.85836 -10.007323,-21.525501 -22.756378,-21.525501z"/>
  </g>
</svg>