<svg viewBox="0 0 1024 1024" version="1.1" xmlns="http://www.w3.org/2000/svg">
  <g class="fore">
    <path d="M323.24 352h78.18c2.98-54.06 13.08-102.7 28.42-140.82-55.42 26.48-96.04 78.38-106.6 140.82z m0 64c10.58 62.44 51.18 114.34 106.6 140.82-15.36-38.12-25.44-86.76-28.42-140.82h-78.18zM512 573.38c15.38-14.9 41.54-68.84 46.86-157.38h-93.74c5.34 88.52 31.5 142.48 46.88 157.38zM465.14 352h93.74c-5.32-88.52-31.48-142.48-46.86-157.38-15.4 14.9-41.56 68.86-46.88 157.38z m129.02 204.82c55.42-26.48 96.04-78.38 106.6-140.82h-78.18c-2.98 54.06-13.06 102.7-28.42 140.82zM896 0H192C121.3 0 64 57.3 64 128v768c0 70.7 57.3 128 128 128h704c35.34 0 64-28.66 64-64V64c0-35.34-28.66-64-64-64z m-160 832H288c-17.6 0-32-14.4-32-32s14.4-32 32-32h448c17.6 0 32 14.4 32 32s-14.4 32-32 32z m-224-192c-141.38 0-256-114.62-256-256S370.62 128 512 128s256 114.62 256 256-114.62 256-256 256z m82.16-428.82c15.36 38.12 25.44 86.76 28.42 140.82h78.18c-10.56-62.44-51.18-114.34-106.6-140.82z"></path>
  </g>
</svg>