<svg viewBox="0 0 1024 1024" version="1.1" xmlns="http://www.w3.org/2000/svg">
  <g class="fore">
    <path d="M581.247993 241.997612C562.368167 253.467367 540.20582 260.072186 516.500837 260.072186 447.531313 260.072186 391.620465 204.161339 391.620465 135.191814 391.620465 66.222289 447.531313 10.311442 516.500837 10.311442 585.470362 10.311442 641.381209 66.222289 641.381209 135.191814 641.381209 159.603447 634.37674 182.379098 622.267966 201.618602L831.148723 410.499358C850.397463 398.373626 873.189171 391.358512 897.619349 391.358512 966.588873 391.358512 1022.499721 447.269359 1022.499721 516.238884 1022.499721 585.208408 966.588873 641.119256 897.619349 641.119256 828.649824 641.119256 772.738977 585.208408 772.738977 516.238884 772.738977 492.552502 779.333434 470.406335 790.78656 451.536179L581.247993 241.997612ZM203.172617 621.166321C183.659273 633.790381 160.400488 641.119256 135.429953 641.119256 66.460428 641.119256 10.549581 585.208408 10.549581 516.238884 10.549581 447.269359 66.460428 391.358512 135.429953 391.358512 204.399479 391.358512 260.310326 447.269359 260.310326 516.238884 260.310326 539.381948 254.014926 561.054644 243.043187 579.637908L453.101813 789.696533C471.685077 778.724795 493.357773 772.429395 516.500837 772.429395 585.470362 772.429395 641.381209 828.340243 641.381209 897.309767 641.381209 966.279292 585.470362 1022.19014 516.500837 1022.19014 447.531313 1022.19014 391.620465 966.279292 391.620465 897.309767 391.620465 872.339232 398.94934 849.080449 411.5734 829.567105L203.172617 621.166321 203.172617 621.166321ZM202.756183 240.387494C183.328726 252.847071 160.223098 260.072186 135.429953 260.072186 66.460428 260.072186 10.549581 204.161339 10.549581 135.191814 10.549581 66.222289 66.460428 10.311442 135.429953 10.311442 204.399479 10.311442 260.310326 66.222289 260.310326 135.191814 260.310326 158.513517 253.917363 180.342064 242.788285 199.02061L452.648641 408.880966C471.338489 397.736879 493.183914 391.334698 516.524651 391.334698 585.507328 391.334698 641.428837 447.256207 641.428837 516.238884 641.428837 539.579621 635.026656 561.425046 623.882569 580.114894L833.745794 789.978119C852.434222 778.832577 874.279014 772.429395 897.619349 772.429395 966.588873 772.429395 1022.499721 828.340243 1022.499721 897.309767 1022.499721 966.279292 966.588873 1022.19014 897.619349 1022.19014 828.649824 1022.19014 772.738977 966.279292 772.738977 897.309767 772.738977 872.53514 779.953304 849.445509 792.395762 830.027071L583.839099 621.470408C564.413038 633.922679 541.31205 641.14307 516.524651 641.14307 447.541974 641.14307 391.620465 585.221561 391.620465 516.238884 391.620465 491.451485 398.840856 468.350497 411.293127 448.924436L202.756183 240.387494 202.756183 240.387494ZM897.619349 260.072186C966.588873 260.072186 1022.499721 204.161339 1022.499721 135.191814 1022.499721 66.222289 966.588873 10.311442 897.619349 10.311442 828.649824 10.311442 772.738977 66.222289 772.738977 135.191814 772.738977 204.161339 828.649824 260.072186 897.619349 260.072186ZM135.429953 1022.19014C204.399479 1022.19014 260.310326 966.279292 260.310326 897.309767 260.310326 828.340243 204.399479 772.429395 135.429953 772.429395 66.460428 772.429395 10.549581 828.340243 10.549581 897.309767 10.549581 966.279292 66.460428 1022.19014 135.429953 1022.19014Z"></path>
  </g>
</svg>