<svg viewBox="0 0 1024 1024" version="1.1" xmlns="http://www.w3.org/2000/svg">
  <g class="fore">
    <path d="M23.04 432.64c-37.44 35.52-27.84 112.32 21.44 171.52s119.68 78.08 157.12 42.56 27.84-112.32-21.44-171.2-119.68-78.4-157.12-42.88zM842.88 462.08c-44.16 64-46.72 141.12-6.4 172.8s108.8 5.12 152.64-58.88 46.72-141.12 6.4-172.8-108.8-4.8-152.64 58.88zM392.64 448c65.92-16.32 100.48-117.44 76.8-224s-96-182.72-161.92-166.4-100.16 114.88-76.8 223.04 96.32 182.72 161.92 167.36zM723.84 55.04c-65.92-16.32-138.24 58.24-161.92 166.4s10.88 209.28 76.8 224 138.24-58.24 161.92-166.4-10.88-207.68-76.8-224zM512 538.56c-157.12 0-275.2 256-275.2 341.44 0 208.64 118.08-6.72 275.2-6.72s275.2 215.36 275.2 6.72c0-84.48-117.76-341.44-275.2-341.44z"></path>
  </g>
</svg>