<svg viewBox="0 0 1024 1024" version="1.1" xmlns="http://www.w3.org/2000/svg">
  <g class="fore">
    <path d="M426.688 42.624H384V128h42.688c19.712 0 36.16 14.4 49.344 48.832l0.832 2.048C387.584 164.672 278.592 181.76 189.76 262.4 114.88 330.24 62.656 459.776 95.232 598.208c47.68 202.56 241.28 317.44 421.248 388.48 159.744-108.736 263.296-274.816 246.72-472.96-9.728-116.48-66.24-225.792-164.096-288.96 123.328 67.584 199.936 196.16 211.584 334.976a495.616 495.616 0 0 1-61.312 284.288c64.128-46.528 131.584-110.336 161.984-189.184 69.76-180.736-1.152-355.584-127.552-427.776-73.536-41.984-142.08-53.76-194.816-46.4l1.408-3.84C603.648 142.464 620.16 128 640 128h42.688V42.624H640c-51.84 0-85.44 28.544-106.752 59.968C512 71.168 478.464 42.624 426.688 42.624z"></path>
  </g>
</svg>