<svg viewBox="0 0 1024 1024" version="1.1" xmlns="http://www.w3.org/2000/svg">
  <g class="fore">
    <path d="M754.0736 595.57888c-6.26688-4.4544-12.91264-7.666347-18.97472-11.308373-43.793067-26.852693-59.132587-31.901013-60.532053-34.51904 137.526613-89.664853 176.346453-273.810773 86.6816-411.357867-89.66144-137.547093-273.82784-176.36352-411.374934-86.70208-137.530027 89.664853-176.349867 273.851733-86.685013 411.392a297.598293 297.598293 0 0 0 93.713067 91.122347c-181.510827 65.6384-302.51008 237.868373-302.71488 430.865066-0.126293 19.500373 15.60576 35.386027 35.109546 35.51232H934.2976c19.5584-0.09216 35.406507-15.95392 35.51232-35.51232 0.109227-158.35136-81.435307-305.59232-215.73632-389.492053z"></path>
  </g>
</svg>