<svg viewBox="0 0 1024 1024" version="1.1" xmlns="http://www.w3.org/2000/svg">
  <g class="fore">
    <path d="M798.293333 294.48192C798.293333 133.730987 667.989333 3.413333 507.231573 3.413333A288.93184 288.93184 0 0 0 301.056 88.814933a291.181227 291.181227 0 0 0-40.7552 51.9168c-84.40832 137.014613-41.762133 316.501333 95.25248 400.909654l15.049387 9.352533-16.687787 6.106453c-179.41504 65.41312-298.83392 236.014933-298.89536 426.980694v0.4096c0.12288 14.94016 12.315307 26.958507 27.2384 26.835626l0.013653-0.006826c14.926507-0.09216 26.948267-12.305067 26.835627-27.245227 0.546133-219.706027 178.40128-397.738667 398.124373-398.513493 160.750933 0 291.06176-130.327893 291.06176-291.078827z m-292.898133 225.181013c-123.51488-0.781653-223.013547-101.556907-222.22848-225.078613 0.781653-123.531947 101.56032-223.023787 225.08544-222.23872 122.965333 0.785067 222.231893 100.693333 222.22848 223.665493v1.41312c-0.781653 123.52512-101.56032 223.023787-225.08544 222.23872zM731.091627 580.672853c-17.28512-9.60512-39.092907-3.35872-48.70144 13.929814-9.591467 17.29536-3.355307 39.09632 13.93664 48.6912 123.96544 68.901547 200.874667 199.574187 200.88832 341.405013 0 19.8144 16.069973 35.887787 35.90144 35.887787 19.82464 0 35.877547-16.073387 35.877546-35.887787-0.116053-167.857493-91.15648-322.47808-237.902506-404.026027z"></path>
  </g>
</svg>