<svg viewBox="0 0 1024 1024" version="1.1" xmlns="http://www.w3.org/2000/svg">
  <g class="fore">
    <path d="M1024 212.992q0 70.656-46.08 121.856 46.08 89.088 46.08 193.536 0 96.256-39.936 181.248t-109.568 147.968-162.816 99.328-199.68 36.352-199.68-36.352-162.304-99.328-109.568-147.968-40.448-181.248q0-104.448 46.08-193.536-46.08-51.2-46.08-121.856 0-37.888 13.824-71.168t37.376-58.368 55.808-39.424 68.096-14.336q43.008 0 78.848 18.432t59.392 50.176q46.08-17.408 96.256-26.624t102.4-9.216 102.4 9.216 96.256 26.624q24.576-31.744 59.904-50.176t78.336-18.432q36.864 0 68.608 14.336t55.296 39.424 37.376 58.368 13.824 71.168zM205.824 627.712q10.24 0 18.944-10.24t15.36-28.672 10.24-42.496 3.584-51.712-3.584-51.712-10.24-41.984-15.36-28.16-18.944-10.24q-9.216 0-17.92 10.24t-15.36 28.16-10.752 41.984-4.096 51.712 4.096 51.712 10.752 42.496 15.36 28.672 17.92 10.24zM512 927.744q53.248 0 99.84-13.312t81.408-35.84 54.784-52.736 19.968-65.024q0-33.792-19.968-64t-54.784-52.736-81.408-35.84-99.84-13.312-99.84 13.312-81.408 35.84-54.784 52.736-19.968 64q0 34.816 19.968 65.024t54.784 52.736 81.408 35.84 99.84 13.312zM818.176 627.712q10.24 0 18.944-10.24t15.36-28.672 10.24-42.496 3.584-51.712-3.584-51.712-10.24-41.984-15.36-28.16-18.944-10.24q-9.216 0-17.92 10.24t-15.36 28.16-10.752 41.984-4.096 51.712 4.096 51.712 10.752 42.496 15.36 28.672 17.92 10.24zM512 660.48q39.936 0 68.096 9.728t28.16 24.064-28.16 24.064-68.096 9.728-68.096-9.728-28.16-24.064 28.16-24.064 68.096-9.728z"></path>
  </g>
</svg>