<svg viewBox="0 0 1024 1024" version="1.1" xmlns="http://www.w3.org/2000/svg">
  <g class="fore">
    <path d="M589.568 434.432l26.331429 26.660571 25.490285 26.587429 25.197715 26.989714c189.696 206.482286 300.178286 395.995429 252.708571 443.428572-21.942857 21.942857-74.386286 10.093714-144.822857-27.794286a494.043429 494.043429 0 0 1-570.660572-32.512l163.474286-163.474286a109.714286 109.714286 0 1 0-79.542857-86.052571l1.901714 8.521143-163.401143 163.474285A494.08 494.08 0 0 1 93.769143 249.417143c-37.961143-70.4-49.810286-122.770286-27.867429-144.749714 53.613714-53.540571 288 94.061714 523.666286 329.654857v0.073143z m349.110857-349.110857a109.714286 109.714286 0 0 1-8.996571 163.254857 494.555429 494.555429 0 0 1 33.28 464.64c-65.206857-107.190857-168.374857-228.973714-295.826286-356.352l-29.476571-29.184C520.96 213.613714 409.709714 121.197714 310.857143 61.074286a494.518857 494.518857 0 0 1 464.713143 33.28 109.714286 109.714286 0 0 1 163.145143-9.033143z"></path>
  </g>
</svg>