<svg viewBox="0 0 1024 1024" version="1.1" xmlns="http://www.w3.org/2000/svg">
  <g class="fore">
    <path d="M512 128C318.293333 128 142.506667 203.946667 12.373333 327.253333c-7.68 7.68-12.373333 18.346667-12.373333 30.293334 0 11.946667 4.693333 22.613333 12.373333 30.293333l105.813334 105.813333a43.093333 43.093333 0 0 0 60.16 0.426667c33.706667-31.573333 72.106667-58.026667 113.493333-78.933333 14.08-6.826667 23.893333-21.333333 23.893333-38.4v-132.266667C377.6 224 443.306667 213.333333 512 213.333333c67.84 0 133.973333 10.666667 195.84 30.72v132.266667c0 16.64 9.813333 31.573333 23.893333 38.4 41.813333 20.906667 78.933333 47.786667 113.92 78.933333 7.68 7.68 18.346667 11.946667 29.013334 11.946667 12.8 0 23.466667-4.693333 31.146666-12.373333l105.813334-105.813334c7.68-7.68 12.373333-18.346667 12.373333-30.293333 0-11.946667-5.12-22.186667-12.8-29.866667A723.84 723.84 0 0 0 512 128M384 298.666667v128s-256 213.333333-256 341.333333v170.666667h768v-170.666667c0-128-256-341.333333-256-341.333333V298.666667h-85.333333v85.333333h-85.333334V298.666667H384m128 213.333333c94.293333 0 170.666667 76.373333 170.666667 170.666667s-76.373333 170.666667-170.666667 170.666666-170.666667-76.373333-170.666667-170.666666 76.373333-170.666667 170.666667-170.666667m0 64a106.666667 106.666667 0 0 0 0 213.333333 106.666667 106.666667 0 0 0 0-213.333333z"></path>
  </g>
</svg>