<svg viewBox="0 0 1024 1024" version="1.1" xmlns="http://www.w3.org/2000/svg">
  <g class="fore">
    <path d="m916.972521,-0.303162l-800.179512,0c-64.656747,0 -117.091702,47.897066 -117.091702,106.889562l0,138.124124l23.420522,0c25.775713,0 46.83559,21.013277 46.83559,44.549084c0,23.492095 -21.059877,44.549072 -46.83559,44.549072l-23.420535,0l0,133.643495l23.420535,0c25.775713,0 46.83559,21.013265 46.83559,44.547828c0,23.493352 -21.059877,44.547828 -46.83559,44.547828l-23.420535,0l0,133.64474l23.420535,0c25.775713,0 46.83559,21.01202 46.83559,44.549084c0,23.753089 -21.059877,44.545326 -46.83559,44.545326l-23.420535,0l0,138.082913c0,59.034963 52.434968,106.933274 117.091715,106.933274l800.179512,0c64.634855,0 107.326305,-47.897066 107.326305,-106.933274l0,-810.783494c-0.001363,-58.99125 -42.692814,-106.889562 -107.326305,-106.889562zm-156.923292,848.241981c-56.201612,29.712297 -210.288286,-49.420577 -329.97862,-239.271785c-119.68623,-189.896165 -117.592281,-351.774624 -61.130803,-381.488165c48.695656,-25.667488 113.58765,-75.697467 160.425967,21.578966c46.83559,97.491225 5.860607,111.412659 -44.502278,137.90683c-35.115753,18.619358 4.001891,97.142818 48.266195,167.446791c44.262941,70.345184 99.032572,140.691625 134.172931,122.118482c50.362898,-26.715212 84.048032,-52.378953 152.708034,33.53731c68.614879,86.009912 -11.265757,112.285557 -59.961427,138.171571z"/>
   </g>
</svg>