<svg viewBox="0 0 1024 1024" version="1.1" xmlns="http://www.w3.org/2000/svg">
  <g class="fore">
    <path d="M340.672 724.672a76.8 76.8 0 0 0-50.048-66.496c-12.544-4.608-23.36-13.056-35.776-18.176a288 288 0 0 0-43.136-15.616 26.048 26.048 0 0 0-28.288 11.456 20.032 20.032 0 0 0 3.52 24.704c5.952 8.384 12.8 16.384 19.2 24.192 11.008 12.8 22.72 25.6 33.472 38.848a61.184 61.184 0 0 1 17.536 43.456 137.088 137.088 0 0 1-48.448 91.968 19.2 19.2 0 0 1-12.416 4.224 80.128 80.128 0 0 1-46.912-20.288 22.464 22.464 0 0 1 5.248-39.808 114.624 114.624 0 0 0 12.8-7.488 25.6 25.6 0 0 0 8.64-33.152 51.2 51.2 0 0 0-10.688-15.872c-22.848-20.032-45.312-40.768-69.76-59.008A226.688 226.688 0 0 1 0.896 513.28 354.688 354.688 0 0 1 57.6 293.248 151.424 151.424 0 0 1 122.624 230.4a413.632 413.632 0 0 1 62.976-18.624 436.032 436.032 0 0 1 179.2-16.064 126.848 126.848 0 0 1 108.8 84.288 225.92 225.92 0 0 1 10.752 100.608A173.632 173.632 0 0 1 357.248 526.72a49.984 49.984 0 0 1-62.848-20.096c-12.8-16.96-23.296-35.392-34.688-53.248-1.664-2.624-2.88-5.696-4.288-8.576s-2.88-5.504-4.352-8.32a197.632 197.632 0 0 0 27.968 82.752 50.432 50.432 0 0 0 38.4 25.6 170.048 170.048 0 0 0 158.208-65.216 227.264 227.264 0 0 0 40.384-188.416c-2.432-13.44-6.592-26.56-9.536-39.872a14.08 14.08 0 0 1 10.368-17.984A108.16 108.16 0 0 1 529.28 230.4a531.84 531.84 0 0 1 160.384-9.344 382.464 382.464 0 0 1 170.88 54.848 372.224 372.224 0 0 1 158.592 212.864 151.424 151.424 0 0 1 4.864 40.064c0 9.024-5.76 11.392-12.8 5.696a194.496 194.496 0 0 1-21.824-20.544c-6.4-6.848-11.328-14.72-17.472-21.952-4.736-5.632-8.896-4.8-11.136 2.24a489.6 489.6 0 0 0-3.968 12.8 305.152 305.152 0 0 1-72.64 130.432 36.416 36.416 0 0 0-10.112 19.968 321.792 321.792 0 0 0-0.768 57.6c3.968 41.088 10.112 81.984 14.912 123.008a36.864 36.864 0 0 1-27.648 44.8 191.04 191.04 0 0 1-49.728 10.88c-26.752 1.792-53.76 0.512-80.64 0.512a71.296 71.296 0 0 0-26.176-72.32c5.44-21.44 11.776-41.792 15.552-62.592a54.912 54.912 0 0 0-12.096-48.448 31.104 31.104 0 0 0-40.192-9.344 148.16 148.16 0 0 1-126.592 8 33.216 33.216 0 0 0-44.8 14.464 101.888 101.888 0 0 0-15.488 61.184c1.664 26.88 6.4 53.44 10.24 80.192 2.048 14.976 0 18.816-15.104 22.656a328.448 328.448 0 0 1-104.128 6.4 31.488 31.488 0 0 1-4.928-1.216 65.984 65.984 0 0 0-33.664-71.872 154.88 154.88 0 0 0 8-96.448zM133.568 614.4a37.056 37.056 0 0 0 10.624-18.496 44.8 44.8 0 0 0-24.384-45.12 16.832 16.832 0 0 0-20.608 3.968q-20.544 22.784-40.768 45.632a46.272 46.272 0 0 0-5.952 8.704 12.224 12.224 0 0 0 9.28 19.968c6.976 1.728 14.208 2.048 21.44 3.072a82.496 82.496 0 0 0 50.432-17.344zM135.104 448a22.656 22.656 0 0 0-22.528-21.888 22.976 22.976 0 0 0-22.912 22.656 22.72 22.72 0 0 0 23.232 21.312 22.208 22.208 0 0 0 22.336-22.016z"></path>
  </g>
</svg>