<svg viewBox="0 0 1024 1024" version="1.1" xmlns="http://www.w3.org/2000/svg">
  <g class="fore">
    <path d="m953.824023,110.784l-41.984,-42.048c-86.656,-86.72 -223.744,-90.56 -305.984,-8.32l-544.192,544.128c-82.176,82.24 -78.336,219.2 8.512,306.048l41.856,41.856c86.848,86.848 223.872,90.752 306.112,8.576l544.192,-544.32c82.176,-82.048 78.336,-219.072 -8.512,-305.92zm-307.904,539.712l-271.68,-271.808l269.312,-269.312c60.48,-60.416 162.048,-57.472 226.24,6.848l38.656,38.464c31.36,31.552 49.344,72.64 50.368,115.776a149.184,149.184 0 0 1 -43.52,110.656l-269.376,269.376z"></path>
  </g>
</svg>