<svg viewBox="0 0 1024 1024" version="1.1" xmlns="http://www.w3.org/2000/svg">
  <g class="fore">
    <path d="M198.320078 569.543885l751.970242 454.456115L932.650784 145.560181c-94.63679 19.271987-263.686122 62.395891-406.072093 144.607918C384.19272 372.380126 262.348419 497.262599 198.320078 569.543885zM870.526968 688.213976c17.140732 29.656186 8.026216 66.975821-20.360287 83.345674-28.341157 16.369852-65.252679 5.622885-82.348065-24.033301-17.095386-29.656186-7.98087-66.975821 20.360287-83.345674C816.52006 647.765477 853.386237 658.557789 870.526968 688.213976zM752.990523 326.490125c28.341157-16.369852 65.252679-5.622885 82.348065 24.033301 17.140732 29.656186 8.026216 66.975821-20.360287 83.345674s-65.252679 5.622885-82.348065-24.033301C715.534851 380.179612 724.649367 342.859977 752.990523 326.490125zM657.673545 596.297936c17.140732 29.656186 8.026216 66.975821-20.360287 83.345674-28.341157 16.369852-65.252679 5.622885-82.348065-24.033301-17.095386-29.656186-7.98087-66.975821 20.360287-83.345674C603.666637 555.894783 640.532814 566.64175 657.673545 596.297936zM543.991498 399.406253c28.386503-16.369852 65.252679-5.622885 82.348065 24.033301s8.026216 66.975821-20.360287 83.345674c-28.386503 16.369852-65.252679 5.622885-82.348065-24.033301C506.535825 453.09574 515.650341 415.776105 543.991498 399.406253z"></path>
    <path d="M454.252059 164.877513C251.147994 282.141883 73.70968 494.224427 73.70968 494.224427l90.782393 54.868479c8.071561-9.250554 134.631831-172.813037 342.542556-292.798158 207.86538-120.030467 414.823842-148.280932 424.845275-150.230803L929.748649 0C929.748649 0 657.356124 47.613143 454.252059 164.877513z"></path>
  </g>
</svg>