<svg viewBox="0 0 1024 1024" version="1.1" xmlns="http://www.w3.org/2000/svg">
  <g class="fore">
    <path d="M1002.200852 21.497669c-40.947941-40.436092-132.057109-21.497669-248.246891 40.436092A506.730768 506.730768 0 0 0 511.84926 0a511.84926 511.84926 0 0 0-450.427349 754.46581C0 870.143743-18.938423 961.252911 21.497669 1002.200852c81.384032 81.384032 366.48407-72.170746 637.252329-342.939005S1083.073035 102.369852 1002.200852 21.497669zM307.109556 460.664334a51.184926 51.184926 0 1 1 51.184926-51.184926 51.184926 51.184926 0 0 1-51.184926 51.184926z m204.739704-153.554778a102.369852 102.369852 0 1 1 102.369852-102.369852 102.369852 102.369852 0 0 1-102.369852 102.369852z"></path>
    <path d="M988.892771 327.583527a1945.027189 1945.027189 0 0 1-293.801475 367.507769 1948.098285 1948.098285 0 0 1-367.507769 293.801475A511.84926 511.84926 0 0 0 988.892771 327.583527z"></path>
  </g>
</svg>