<svg viewBox="0 0 1024 1024" version="1.1" xmlns="http://www.w3.org/2000/svg">
  <g class="fore">
    <path d="M598.858 977.126C588.572 1015.146 549.716 1024 512 1024c-37.714 0-76.572-8.854-86.856-46.874C409.854 920.268 384 777.796 384 711.5c0-70.312 62.284-87.5 128-87.5s128 17.188 128 87.5c0 65.898-25.742 208.358-41.142 265.626zM377.734 577.108c-37.386-36.616-59.916-88.346-57.568-145.198 4.108-99.448 84.79-179.912 184.248-183.762C613.724 243.916 704 331.614 704 440c0 53.654-22.128 102.232-57.732 137.104-5.35 5.24-4.802 13.972 1.256 18.374 18.624 13.53 32.92 30.686 42.468 50.726 3.482 7.308 12.994 9.32 18.898 3.782 57.652-54.086 93.106-131.566 91.022-217.13-3.71-152.412-127.19-276.416-279.586-280.738C357.738 147.506 224 278.43 224 440c0 82.722 35.064 157.4 91.1 209.978 5.906 5.542 15.422 3.54 18.906-3.774 9.548-20.042 23.846-37.196 42.47-50.726 6.058-4.4 6.608-13.132 1.258-18.37zM512 0C264.408 0 64 200.37 64 448c0 179.984 105.204 331.294 251.478 402.816 8.666 4.236 18.534-3.088 17.07-12.62-4.764-31.024-8.684-61.892-10.812-88.678-0.292-3.672-2.298-6.972-5.356-9.024-94.8-63.612-157.128-172.032-156.374-294.694 1.184-192.474 158.58-349.296 351.058-349.798C705.586 95.494 864 253.594 864 448c0 123.864-64.316 232.98-161.3 295.734-1.998 28.074-6.138 61.176-11.248 94.46-1.464 9.534 8.406 16.858 17.07 12.62C854.454 779.454 960 628.374 960 448 960 200.41 759.63 0 512 0z m0 320c-70.692 0-128 57.308-128 128s57.308 128 128 128 128-57.308 128-128-57.308-128-128-128z"></path>
  </g>
</svg>