<svg viewBox="0 0 1024 1024" version="1.1" xmlns="http://www.w3.org/2000/svg">
  <g class="fore">
    <path d="M959.986 607.981001l0-159.995c0-52.926346-43.070654-95.997-95.997-95.997-17.119465 0-33.182963 4.47986-47.102528 12.351614-17.087466-26.655167-46.942533-44.350614-80.893472-44.350614-24.575232 0-47.006531 9.27971-63.998 24.511234-16.991469-15.231524-39.422768-24.511234-63.998-24.511234-11.19965 0-21.983313 1.91994-31.999 5.471829l0-229.464829c0-52.926346-43.070654-95.997-95.997-95.997s-95.997 43.070654-95.997 95.997l0 394.675666-176.026499-93.821068c-14.527546-8.383738-31.135027-12.831599-47.966501-12.831599-52.926346 0-95.997 43.070654-95.997 95.997 0 26.367176 10.463673 50.942408 29.503078 69.213837 0.255992 0.223993 0.479985 0.479985 0.735977 0.703978l239.160526 218.073185-45.406581 0c-17.663448 0-31.999 14.335552-31.999 31.999l0 191.994c0 17.663448 14.335552 31.999 31.999 31.999l639.980001 0c17.663448 0 31.999-14.335552 31.999-31.999l0-191.994c0-17.663448-14.335552-31.999-31.999-31.999l-44.222618 0 72.829724-145.691447c2.207931-4.447861 3.391894-9.343708 3.391894-14.303553zM895.988 863.973001c0 17.663448-14.335552 31.999-31.999 31.999s-31.999-14.335552-31.999-31.999 14.335552-31.999 31.999-31.999 31.999 14.335552 31.999 31.999zM895.988 600.429237l-83.773382 167.546764-383.828005 0-290.806912-265.143714c-6.175807-6.07981-9.567701-14.175557-9.567701-22.847286 0-17.631449 14.367551-31.999 31.999-31.999 5.471829 0 10.623668 1.311959 15.327521 3.903878 0.543983 0.31999 1.055967 0.63998 1.631949 0.927971l223.993 119.420268c9.91969 5.279835 21.887316 4.991844 31.519015-0.799975s15.519515-16.191494 15.519515-27.423143l0-447.986c0-17.631449 14.367551-31.999 31.999-31.999s31.999 14.367551 31.999 31.999l0 319.99c0 17.663448 14.335552 31.999 31.999 31.999s31.999-14.335552 31.999-31.999c0-17.631449 14.367551-31.999 31.999-31.999s31.999 14.367551 31.999 31.999c0 17.663448 14.335552 31.999 31.999 31.999s31.999-14.335552 31.999-31.999c0-17.631449 14.367551-31.999 31.999-31.999s31.999 14.367551 31.999 31.999l0 31.999c0 17.663448 14.335552 31.999 31.999 31.999s31.999-14.335552 31.999-31.999c0-17.631449 14.367551-31.999 31.999-31.999s31.999 14.367551 31.999 31.999l0 152.443236z"></path>
  </g>
</svg>