<svg viewBox="0 0 1024 1024" version="1.1" xmlns="http://www.w3.org/2000/svg">
  <g class="fore">
    <path d="M416.032 960l160 0c52.928 0 96-43.072 96-96 0-17.12-4.48-33.184-12.384-47.104 26.656-17.088 44.384-46.944 44.384-80.896 0-24.576-9.28-47.008-24.512-64 15.232-16.992 24.512-39.424 24.512-64 0-11.2-1.92-21.984-5.472-32l229.472 0c52.928 0 96-43.072 96-96s-43.072-96-96-96l-394.688 0 93.824-176.032c8.384-14.528 12.832-31.136 12.832-47.968 0-52.928-43.072-96-96-96-26.368 0-50.944 10.464-69.216 29.504-0.224 0.256-0.48 0.48-0.704 0.736l-218.08 239.168 0-45.408c0-17.664-14.336-32-32-32l-192 0c-17.664 0-32 14.336-32 32l0 640c0 17.664 14.336 32 32 32l192 0c17.664 0 32-14.336 32-32l0-44.224 145.696 72.832c4.448 2.208 9.344 3.392 14.304 3.392zM160.032 896c-17.664 0-32-14.336-32-32s14.336-32 32-32 32 14.336 32 32-14.336 32-32 32zM423.584 896l-167.552-83.776 0-383.84 265.184-290.816c6.08-6.176 14.176-9.568 22.816-9.568 17.632 0 32 14.368 32 32 0 5.472-1.312 10.624-3.904 15.328-0.32 0.544-0.64 1.056-0.928 1.632l-119.424 224c-5.28 9.92-4.992 21.888 0.8 31.52s16.192 15.52 27.424 15.52l448 0c17.632 0 32 14.368 32 32s-14.368 32-32 32l-320 0c-17.664 0-32 14.336-32 32s14.336 32 32 32c17.632 0 32 14.368 32 32s-14.368 32-32 32c-17.664 0-32 14.336-32 32s14.336 32 32 32c17.632 0 32 14.368 32 32s-14.368 32-32 32l-32 0c-17.664 0-32 14.336-32 32s14.336 32 32 32c17.632 0 32 14.368 32 32s-14.368 32-32 32l-152.448 0z"></path>
  </g>
</svg>