<svg viewBox="0 0 1024 1024" version="1.1" xmlns="http://www.w3.org/2000/svg">
  <g class="fore">
    <path d="M563.3 690.9l-14.6 22c-3 4.5-8 7.1-13.3 7.1h-46.7c-5.4 0-10.4-2.7-13.3-7.1L460.8 691c-1.8-2.7-1.8-6.3 0.1-9l44.8-64.4c3.2-4.6 10-4.6 13.2 0l44.4 64.4c1.7 2.6 1.8 6.2 0 8.9z"></path>
    <path d="M956.2 977.3c-28.3 7.6-221.1 43.2-414.6 46.7h-59.3c-193.5-3.5-386.3-39.1-414.6-46.7 0.9-10.9 1.9-22.1 3-33.6 7.3-75.1 19.1-160.7 38.6-241 5.5-28.6 4.6-36.4 26.2-53.5C152.3 635.9 260 633 313 632.4c7.4-0.1 14.8-0.3 22.2-0.6 13.7-0.6 27.4-1.5 41.1-2.8-1.5 9.7-2.9 20.9-3.8 33.1-0.4 6.6-0.7 13.5-0.7 20.5 0 9.5 0.5 19.3 1.6 29.1 1.4 11.5 3.7 23.1 7.3 34.1 16.7 52.3 43.4 104.1 79.6 135l19-125.3c1.2-7.8 7.9-13.6 15.8-13.6h33.4c7.9 0 14.6 5.8 15.8 13.6l19 125.3c36.2-30.9 62.9-82.8 79.6-135 3.6-11 5.9-22.5 7.3-34.1 1.2-9.8 1.6-19.6 1.6-29.1 0-7-0.3-13.9-0.7-20.5-0.8-12.2-2.2-23.4-3.8-33.1 13.7 1.3 27.4 2.3 41.1 2.8 7.4 0.3 14.8 0.5 22.2 0.6 53 0.6 160.8 3.6 177.5 16.8 21.6 17.1 20.6 24.9 26.2 53.5 19.5 80.3 31.3 165.9 38.6 241 1.4 11.5 2.4 22.7 3.3 33.6zM726 217.1c9.9-3.8 71-29.4 72-83.1C799.2 75.5 653.2-4.4 515.5 0.2c-1.2 0-2.4 0.1-3.5 0.1-1.2-0.1-2.4-0.1-3.5-0.1C370.8-4.4 224.8 75.5 226 134.1c1.1 53.6 62.1 79.3 72 83.1 0.8 0.3 1.2 1.1 1 1.8-3.2 13-1.4 52.8-1.4 52.8s3.2 6.8 9.3 15c0.2 0.3 0.3 0.7 0.3 1.1 0 86.1 22.6 146.9 52.7 189.6 18.1 25.7 39 44.8 59.3 59.1 44.8 31.3 87.2 38.8 92.6 39.4h0.4c5.4-0.6 47.8-8.1 92.6-39.4 20.4-14.2 41.2-33.4 59.3-59.1 30.2-42.7 52.7-103.5 52.7-189.6 0-0.4 0.1-0.8 0.3-1.1 6.1-8.2 9.3-15 9.3-15s1.8-39.8-1.4-52.8c-0.2-0.8 0.2-1.6 1-1.9z m-287.8-77.8c6.5-0.5 17.3-1 29.7-0.3 3 0.2 5.3-2.2 5.3-5.2v-0.1c0-21.2 16.7-38.9 38.8-42.3 22.1 3.4 38.8 21.1 38.8 42.3v0.1c0 3 2.3 5.3 5.3 5.2 12.4-0.7 23.2-0.2 29.7 0.3 1.7 0.1 2.1 2.4 0.5 3.1-30.6 13.1-44.8 22.6-45.7 23.2 0 0-0.1 0-0.1 0.1-8.8 7.3-19.3 10-28.5 10.7-9.2-0.7-19.7-3.3-28.5-10.7 0 0-0.1 0-0.1-0.1-0.9-0.6-15.1-10.1-45.7-23.2-1.6-0.7-1.2-3 0.5-3.1zM688 224H336v-32h352v32z"></path>
  </g>
</svg>