<svg viewBox="0 0 1024 1024" version="1.1" xmlns="http://www.w3.org/2000/svg">
  <g class="fore">
    <path d="M902.8 738.2C937.4 712 960 670.8 960 624c0-79.6-64.4-144-144-144h-28.2c26.8-23.4 44.2-57.6 44.2-96 0-70.6-57.4-128-128-128h-11.8c7.2-20.2 11.8-41.4 11.8-64 0-106-86-192-192-192-10.4 0-20.4 1.4-30.2 3C500.6 29.2 512 61.2 512 96c0 88.4-71.6 160-160 160h-32c-70.6 0-128 57.4-128 128 0 38.4 17.4 72.6 44.2 96H208c-79.6 0-144 64.4-144 144 0 46.8 22.6 88 57.2 114.2C52.6 749.2 0 808.2 0 880c0 79.6 64.4 144 144 144h736c79.6 0 144-64.4 144-144 0-71.8-52.6-130.8-121.2-141.8zM384 512c35.4 0 64 28.6 64 64s-28.6 64-64 64-64-28.6-64-64 28.6-64 64-64z m319 278C682 845.8 586 896 512 896s-170-50.2-191-106c-4-10.6 4-22 15.6-22h350.8c11.6 0 19.6 11.4 15.6 22zM640 640c-35.4 0-64-28.6-64-64s28.6-64 64-64 64 28.6 64 64-28.6 64-64 64z"></path>
  </g>
</svg>