<svg viewBox="0 0 1024 1024" version="1.1" xmlns="http://www.w3.org/2000/svg">
  <g class="fore">
    <path d="M981.666952 574.833415l17.866849-15.670924c29.046106-25.452773 29.046106-70.668876 0-96.121649L981.666952 447.469734c-29.046106-25.452773-29.046106-70.668876 0-96.121649l17.866849-15.670923c29.046106-25.452773 29.046106-70.668876 0-96.12165L981.666952 223.884589c-29.046106-25.452773-29.046106-70.668876 0-96.121649l7.985184-6.687592c12.975924-10.879813 19.5637-26.450921 19.5637-41.922214 0-15.171849-6.188517-30.243883-18.665367-41.123696-1.796666-1.597037-3.493518-3.293888-5.190369-5.19037l-0.598889-0.698703c-22.05907-25.352958-61.485915-24.953699-83.045911 0.798518l-6.687591 7.985184c-25.452773 29.046106-70.668876 29.046106-96.12165 0l-15.670923-17.966664c-25.452773-29.046106-70.668876-29.046106-96.121649 0l-15.670923 17.966664c-25.452773 29.046106-70.668876 29.046106-96.121649 0l-15.670924-17.966664c-25.452773-29.046106-70.668876-29.046106-96.121649 0l-15.670923 17.966664c-25.452773 29.046106-70.668876 29.046106-96.121649 0l-15.670923-17.966664c-25.452773-29.046106-70.668876-29.046106-96.12165 0l-15.670923 17.966664c-25.452773 29.046106-70.668876 29.046106-96.121649 0l-6.687591-7.985184C99.803223 7.186665 60.376378 6.787406 38.317308 32.04055l-0.698704 0.798518c-1.597037 1.796666-3.293888 3.493518-5.190369 5.19037-25.153329 21.959255-24.75407 61.3861 0.898333 82.946096l7.985184 6.687591c29.046106 25.452773 29.046106 70.668876 0 96.121649L23.444903 239.455697c-29.046106 25.452773-29.046106 70.668876 0 96.12165l17.966664 15.670923c29.046106 25.452773 29.046106 70.668876 0 96.121649l-17.966664 15.670923c-29.046106 25.452773-29.046106 70.668876 0 96.121649l17.966664 15.670924c29.046106 25.452773 29.046106 70.668876 0 96.121649l-17.866849 15.670923c-29.046106 25.452773-29.046106 70.768691 0 96.121649l17.767034 15.571109c29.145921 25.452773 29.145921 70.668876 0 96.121649l-8.584073 7.186665c-25.352958 21.360367-25.752218 60.288137-0.798518 82.147578l1.297592 1.197777c1.796666 1.597037 3.493518 3.293888 5.090555 5.090555l0.299444 0.399259c21.85944 24.953699 60.887026 24.55444 82.247393-0.798518l7.186665-8.484258c25.452773-29.145921 70.668876-29.145921 96.12165 0l20.262403 23.057218c23.057218 26.351106 63.981285 26.351106 87.038503 0l20.262404-23.057218c25.452773-29.145921 70.668876-29.145921 96.121649 0l20.262404 23.057218c23.057218 26.351106 63.981285 26.351106 87.038503 0L575.420729 981.179452c25.452773-29.145921 70.668876-29.145921 96.12165 0l20.262403 23.057218c23.057218 26.351106 63.981285 26.351106 87.038503 0l20.262404-23.057218c25.452773-29.145921 70.668876-29.145921 96.121649 0l6.787406 7.985184c10.879813 12.975924 26.351106 19.463885 41.8224 19.463885 15.072034 0 30.243883-6.188517 41.123696-18.665367 1.597037-1.796666 3.293888-3.593333 5.19037-5.190369l1.197777-1.097963c25.053514-21.85944 24.853884-60.887026-0.399259-82.646652l-7.885369-6.787406c-29.54518-25.352958-29.744809-70.96832-0.499074-96.620723l17.26796-15.171849c29.046106-25.452773 29.046106-70.668876 0-96.121649L981.666952 671.054879c-29.046106-25.452773-29.046106-70.768691 0-96.221464zM926.768814 862.399844c0 35.234623-28.646847 63.88147-63.88147 63.88147H160.191175c-35.234623 0-63.88147-28.646847-63.88147-63.88147V159.703675c0-35.334438 28.646847-63.88147 63.88147-63.88147h702.696169c35.234623 0 63.88147 28.547032 63.88147 63.88147v702.696169z"></path>
    <path d="M862.887344 223.585145v574.933229c0 35.234623-28.646847 63.88147-63.88147 63.88147H224.072645c-35.234623 0-63.88147-28.646847-63.88147-63.88147V223.585145c0-35.334438 28.646847-63.88147 63.88147-63.88147h574.933229c35.234623 0 63.88147 28.547032 63.88147 63.88147z"></path>
  </g>
</svg>