<svg viewBox="0 0 1024 1024" version="1.1" xmlns="http://www.w3.org/2000/svg">
  <g class="fore">
    <path d="M1023.488256 511.744128c0 282.482759-229.261369 511.744128-512.255872 511.744128S0 794.738631 0 511.744128C0 229.261369 229.261369 0 512.255872 0S1023.488256 229.773113 1023.488256 511.744128z m-251.266367 26.09895c0-45.033483-11.770115-90.066967-34.286857-129.471264-21.493253-37.869065-52.709645-70.108946-90.066966-93.137431-16.375812-9.723138-37.357321-5.117441-47.592204 11.258371-9.723138 16.375812-5.117441 37.357321 11.258371 47.592204 56.803598 34.798601 91.602199 96.207896 91.602199 163.246376 0 105.931034-85.973013 191.392304-191.392304 191.392304S319.84008 643.262369 319.84008 537.843078c0-63.456272 31.216392-123.330335 84.437781-158.640679 15.864068-10.746627 19.958021-32.23988 9.211394-48.103948-10.746627-15.864068-32.23988-19.958021-48.103948-9.211395C293.229385 370.502749 250.242879 450.846577 250.242879 537.843078c0 143.8001 117.189405 260.477761 260.477761 260.477762 144.311844 0 261.501249-117.189405 261.501249-260.477762z m-225.67916-9.211394V260.477761a34.286857 34.286857 0 0 0-68.573714 0v268.153923c0 18.934533 15.352324 34.286857 34.286857 34.286857 18.934533 0.511744 34.286857-15.352324 34.286857-34.286857z"></path>
  </g>
</svg>