<svg viewBox="0 0 1024 1024" version="1.1" xmlns="http://www.w3.org/2000/svg">
  <g class="fore">
    <path d="M312.32 170.642286c-21.430857 0-38.838857-15.067429-39.204571-33.865143 0-5.851429 0.219429-58.368 44.032-97.645714C346.185143 13.019429 386.267429 0 435.931429 0c46.299429 0 92.525714 19.456 141.458285 40.082286 57.782857 24.356571 117.613714 49.444571 186.221715 49.444571h1.462857c24.210286 0 84.114286-6.656 115.565714-68.315428a38.912 38.912 0 0 1 31.890286-20.699429 41.252571 41.252571 0 0 1 36.059428 14.336c8.192 10.166857 9.508571 23.405714 3.364572 34.669714-34.962286 68.169143-104.740571 108.909714-186.806857 108.909715h-1.462858c-86.454857 0-160.475429-31.158857-219.940571-56.246858C501.174857 84.333714 464.457143 68.900571 435.858286 68.900571h-0.292572c-27.940571 0-48.932571 6.217143-62.683428 18.578286-21.138286 18.870857-21.577143 47.835429-21.577143 48.128 0.073143 9.508571-4.022857 18.578286-11.190857 24.722286-7.314286 6.582857-17.408 10.313143-27.794286 10.313143z m696.832 76.214857c17.773714 11.922286 19.968 32.914286 4.754286 46.811428-62.902857 57.636571-136.265143 42.057143-184.832 31.744-47.762286-10.093714-57.709714-9.654857-70.656 3.218286a48.713143 48.713143 0 0 1-39.277715 12.361143c-15.067429-1.682286-27.794286-9.508571-33.353142-20.48a27.501714 27.501714 0 0 1 5.997714-32.914286c22.308571-22.162286 50.834286-34.084571 84.845714-35.474285 26.112-1.024 50.761143 4.169143 74.605714 9.216 47.396571 10.093714 71.314286 13.824 98.157715-10.752 15.213714-13.897143 41.984-15.652571 59.757714-3.657143z m13.312 724.699428a41.984 41.984 0 0 1-6.509714 36.059429 39.716571 39.716571 0 0 1-31.890286 16.384H40.082286a39.643429 39.643429 0 0 1-31.817143-16.237714 41.984 41.984 0 0 1-6.729143-35.84l130.56-485.741715V279.990857c0-22.674286 17.92-41.033143 39.936-41.033143h396.068571c22.089143 0 40.009143 18.285714 40.009143 41.033143v123.245714h267.995429c22.016 0 40.009143 18.432 40.009143 41.179429v144.822857l106.422857 382.317714z m-373.906286-15.872L525.165714 518.948571c-1.462857-41.106286-1.462857-7.168-1.462857-10.752V341.357714H227.328v177.590857l-124.854857 436.662858 546.084571 0.073142zM358.473143 921.6v-163.84H204.8L358.473143 512v163.84H512L358.4 921.6z"></path>
  </g>
</svg>