<svg viewBox="0 0 1024 1024" version="1.1" xmlns="http://www.w3.org/2000/svg">
  <g class="fore">
    <path d="M1024 282.496l-90.496-90.496-178.752 178.752-101.504-101.504 178.752-178.752-90.496-90.496-178.752 178.752-114.752-114.752-86.624 86.624 512 512 86.624-86.624-114.752-114.752 178.752-178.752z"></path>
    <path d="M794.048 673.792l-443.84-443.84c-95.808 114.912-204.512 292.448-129.408 445.216l-132.256 132.256c-31.104 31.104-31.104 82.016 0 113.12l14.848 14.848c31.104 31.104 82.016 31.104 113.152 0l132.256-132.256c152.768 75.136 330.304-33.568 445.216-129.376z"></path>
  </g>
</svg>