<svg viewBox="0 0 1024 1024" version="1.1" xmlns="http://www.w3.org/2000/svg">
  <g class="fore">
    <path d="M992 96H576V75.9c0-40.3-36.9-70.6-76.4-62.8l-448 88.7C21.6 107.7 0 134 0 164.6v694.7c0 30.6 21.7 57 51.8 62.8l448 87.1c39.5 7.7 76.2-22.6 76.2-62.8V928h416c17.7 0 32-14.3 32-32V128c0-17.7-14.3-32-32-32zM355.1 538.6c-28.3 23.5-62 33.5-100.2 30.7l-18.3-0.8c-9.1-0.4-16.7 6.9-16.7 16v89.2c0 9.8-8.7 17.3-18.4 15.8l-30.5-4.6c-7.8-1.2-13.6-7.9-13.6-15.8v-297c0-15.8 11.6-29.3 27.2-31.6l77.4-11.7c88.7-13.5 138 22.5 138 109.3 0 42.1-15.3 75.9-44.9 100.5zM960 856c0 4.4-3.6 8-8 8H576v-88c0-4.4 3.6-8 8-8h304c4.4 0 8-3.6 8-8v-48c0-4.4-3.6-8-8-8H584c-4.4 0-8-3.6-8-8v-32c0-4.4 3.6-8 8-8h304c4.4 0 8-3.6 8-8v-48c0-4.4-3.6-8-8-8H584c-4.4 0-8-3.6-8-8V160h376c4.4 0 8 3.6 8 8v688z"></path>
    <path d="M313.6 446.1c0 42-22.2 63.1-64.4 63.2l-29.3 0.1V408.6c0-8.2 6.2-15.1 14.4-15.9l15.6-1.6c41.7-4.3 63.7 14 63.7 55zM688 338.9c34.8 6.4 66.9 23.1 92.5 48.7 17.5 17.5 30.9 38.1 39.6 60.5H688V338.9zM656 272h-16c-8.8 0-16 7.2-16 16v192c0 17.7 14.3 32 32 32h223.4c9.3 0 16.6-7.9 16-17.2C886.6 370.3 782.8 272 656 272z"></path>
  </g>
</svg>