<svg viewBox="0 0 1024 1024" version="1.1" xmlns="http://www.w3.org/2000/svg">
  <g class="fore">
    <path d="M315.070692 669.537346h393.845616v78.768923H315.070692zM315.070692 787.691231h275.691731v78.768923H315.070692z"></path>
    <path d="M865.692155 787.696231h40.15296c65.231936 0 118.153885-52.920948 118.153885-118.153885V433.235577c0-65.228936-52.921948-118.153885-118.153885-118.153885h-40.15996V118.153885C865.685155 52.999948 812.685206 0 747.53127 0H274.916732c-65.153936 0-118.153885 52.999948-118.153885 118.153885v196.927807h-38.608962C52.923948 315.081692 0 368.006641 0 433.235577v236.307769c0 65.232936 52.923948 118.153885 118.153885 118.153885h38.608962v118.148884c0 65.153936 52.999948 118.153885 118.153885 118.153885h472.614538c65.153936 0 118.153885-52.999948 118.153885-118.153885M235.53177 118.153885c0-21.720979 17.672983-39.384962 39.384962-39.384962h472.614538c21.711979 0 39.384962 17.662983 39.384962 39.384962v196.922807H235.53177V118.153885z m551.384462 787.69123c0 21.720979-17.672983 39.384962-39.384962 39.384962H274.916732c-21.711979 0-39.384962-17.662983-39.384962-39.384962V590.773423h551.384462v315.071692zM846.959173 511.9995h-0.381c-32.526968-0.103-58.885942-26.521974-58.885942-59.071942 0-32.613968 26.461974-59.076942 59.076942-59.076943 32.613968 0 59.076942 26.462974 59.076942 59.076943-0.001 32.549968-26.361974 58.968942-58.886942 59.071942z"></path>
  </g>
</svg>