<svg viewBox="0 0 1024 1024" version="1.1" xmlns="http://www.w3.org/2000/svg">
  <g class="fore">
    <path d="M535.07644 390.860715l-23.911453-116.403452-22.107375 116.131254c-24.092577 4.331629-47.192552 15.790543-65.871872 34.379812-48.546378 48.637452-48.546378 127.322064 0 175.867419 48.547402 48.546378 127.322064 48.546378 175.867419 0 48.637452-48.637452 48.637452-127.322064 0-175.867419-18.135947-18.13697-40.514496-29.596908-63.975697-34.109661L535.07644 390.860715zM836.273557 837.960979 836.273557 837.960979 631.513261 633.200683c-21.93853 21.93853-48.369347 36.564558-76.26246 44.085813l75.007895 279.87359c-38.33896 10.238117-78.352039 15.462064-119.094731 15.462064s-80.650371-5.3273-118.990355-15.462064l75.007895-279.87359c-27.99749-7.416879-54.322907-22.14626-76.26246-44.085813L186.160794 837.960979c-59.130371-59.130371-98.829297-130.585368-118.884955-206.117192l279.663814-74.905565c-7.728985-28.833526-7.728985-59.234747 0-88.068273L67.274816 393.966431c20.056681-75.531824 59.652254-146.988868 118.782625-206.117192l204.760296 204.760296c21.937507-21.93853 48.263947-36.564558 76.26246-44.085813L392.176679 68.649108c38.33896-10.132717 78.245616-15.460017 118.990355-15.460017 40.742692 0 80.650371 5.3273 119.094731 15.460017l-75.009941 279.874614c27.893113 7.416879 54.324954 22.14626 76.263484 44.085813l204.760296-204.762343c57.982228 57.982228 98.618497 128.811989 119.199108 206.014862l-279.977967 75.007895c7.731032 28.833526 7.731032 59.234747 0 88.068273l279.874614 75.009941c-20.580611 77.202873-61.115573 148.033657-119.094731 206.012815L836.273557 837.960979zM872.643688 151.477062C776.036999 54.973726 647.740753 1.814311 511.164987 1.814311c-136.476506 0-264.872012 53.159415-361.376371 149.661727C53.182951 247.981421 0.024559 376.379996 0.024559 512.853432c0 136.576789 53.159415 264.872012 149.764057 361.478701 96.504359 96.605666 224.902934 149.661727 361.376371 149.661727 136.576789 0 264.872012-53.159415 361.478701-149.661727 96.604642-96.504359 149.661727-224.902934 149.661727-361.478701C1022.305415 376.376926 969.146 247.981421 872.643688 151.477062"></path>
  </g>
</svg>