<svg viewBox="0 0 1024 1024" version="1.1" xmlns="http://www.w3.org/2000/svg">
  <g class="fore">
    <path d="M512 0c-242.005333 132.494222-443.733333 123.505778-443.733333 123.505778l0 273.976889C113.152 909.482667 512 1024 512 1024s398.904889-114.517333 443.733333-626.517333L955.733333 123.505778C955.733333 123.505778 754.062222 132.494222 512 0zM707.982222 444.586667l0 79.701333L561.379556 524.288l0 57.912889 146.659556 0 0 79.644444L561.379556 661.845333l0 75.946667L463.018667 737.792l0-75.946667L316.074667 661.845333l0-79.644444 146.944 0L463.018667 524.288 316.074667 524.288 316.074667 444.586667l104.448 0L316.074667 225.848889l109.909333 0L512 406.243556l86.072889-180.394667 109.909333 0-104.448 218.794667L707.982222 444.643556z"></path>
  </g>
</svg>