<svg viewBox="0 0 1024 1024" version="1.1" xmlns="http://www.w3.org/2000/svg">
  <g class="fore">
    <path d="m906.265065,68.756255c-173.45677,-134.930187 -337.739321,31.395831 -337.739321,31.395831l-5.547206,6.710563l197.139062,239.662855a109.877293,123.426372 0 0 1 12.58788,148.11164l116.917975,139.963102c18.988501,-23.966281 34.563342,-45.535935 46.084453,-62.791663c8.534159,-12.702128 16.854963,-25.404266 25.175768,-38.346057c67.2065,-104.013681 118.838159,-329.29676 -54.618611,-464.226947l0,-0.479325zm-239.169794,493.226152l-3.627022,0a121.398404,136.368162 0 0 1 -87.475123,-45.535945l-133.77293,-167.763994a38.403709,43.139309 0 0 1 -8.747512,-42.180659a37.336941,41.940996 0 0 1 27.949367,-27.56123a36.910233,41.461671 0 0 1 36.056818,13.660779l116.917975,146.194339l23.042222,31.875166a42.670793,47.932571 0 0 0 56.752158,7.429541a44.80433,50.329197 0 0 0 15.148133,-62.552a45.231038,50.808522 0 0 1 -2.346891,-5.032925l-1.066777,-3.115614l-1.70683,-2.396626l-2.133537,-2.875951l-1.493476,-1.677648l-42.670793,-52.725823l-204.606452,-249.728695c-19.628562,-18.693703 -173.45677,-154.58254 -335.605775,-29.238868c-173.45677,135.169849 -121.611758,359.494278 -55.045328,464.226947l24.962415,38.585719c57.178865,86.278628 227.435321,277.529587 334.325661,395.204046a128.012379,143.797713 0 0 0 177.723845,1.917301l-203.753029,-243.73712a38.403709,43.139309 0 0 1 1.280122,-60.395037a37.123587,41.701333 0 0 1 52.911781,1.437976l203.539675,243.257794c21.335401,-23.96629 44.590977,-49.849872 67.633207,-75.973126l-197.779124,-236.307569a38.403709,43.139309 0 0 1 2.986961,-58.238073a36.910233,41.461671 0 0 1 51.204951,0l196.498993,234.629931c21.335401,-26.123254 44.164269,-51.52752 64.006194,-75.973126l-122.465173,-146.434002a120.118281,134.930187 0 0 1 -48.85806,11.503815l0.213354,-0.479325z"/>
  </g>
</svg>