<svg viewBox="0 0 1024 1024" version="1.1" xmlns="http://www.w3.org/2000/svg">
  <g class="fore">
    <path d="M504.896 83.008l-23.68-35.52-71.04 47.36 23.68 35.456c9.984 14.976 17.152 29.888 22.336 45.12-115.328 19.584-132.224 128.768-139.008 235.328-4.992 77.952 1.728 161.664 14.464 239.36 12.736 77.76 31.36 148.864 49.984 201.472 25.728 72.768 51.712 87.04 130.56 87.04 83.968 0 103.232-18.56 130.048-95.872 18.624-53.76 37.248-124.288 49.92-200.64 12.8-76.416 19.392-158.08 14.464-234.368-7.872-121.216-32.384-223.168-162.688-235.52a278.208 278.208 0 0 0-39.04-89.216zM268.224 225.28l4.8-10.112a214.4 214.4 0 0 0-48.64 4.288c-50.368 10.432-103.68 40.832-134.592 102.848-19.84 39.68-25.6 95.552-24.256 151.232 1.344 57.344 10.432 121.024 25.344 180.608 14.848 59.136 36.032 116.672 62.912 160.576 25.024 40.768 63.872 83.84 118.016 83.84h36.288a456 456 0 0 1-6.912-18.56c-20.48-57.792-40.32-133.824-53.76-216.064-13.44-82.176-20.864-172.544-15.36-258.624 3.328-52.992 9.6-121.28 36.16-180.032zM722.88 870.656a609.92 609.92 0 0 1-10.24 27.84h19.904c56.448 0 99.136-39.296 128.384-81.984 30.272-44.16 53.504-102.144 69.696-161.536 16.192-59.84 25.92-123.712 27.584-181.184 1.6-55.936-4.16-111.808-24-151.488-30.912-61.952-84.032-92.416-134.336-102.848a213.568 213.568 0 0 0-50.048-4.224c30.08 58.752 38.144 128.128 41.984 187.008 5.44 84.48-1.92 172.992-15.424 253.824-13.44 81.024-33.28 156.16-53.504 214.592z"></path>
  </g>
</svg>