<svg viewBox="0 0 1024 1024" version="1.1" xmlns="http://www.w3.org/2000/svg">
  <g class="fore">
    <path d="m901.950489,487.628075l-73.115245,0l0,-194.974325c0,-53.861951 -43.625801,-97.487756 -97.487762,-97.487756l-194.975535,0.000012l0,-73.115232c0,-67.266658 -54.592444,-121.859093 -121.859114,-121.859093s-121.859125,54.592434 -121.859125,121.859093l0,73.115232l-194.974358,0c-53.86196,0 -97.000388,43.625794 -97.000388,97.487745l-0.244275,185.225541l72.872134,0c72.627859,0 131.607899,58.980029 131.607899,131.607876s-58.98004,131.607876 -131.607899,131.607876l-72.870958,0l-0.244275,185.225541c0,53.861951 43.625801,97.487756 97.487762,97.487756l185.225584,0l0,-73.11522c0,-72.627847 58.98004,-131.607876 131.607888,-131.607876s131.607899,58.980029 131.607899,131.607876l0,73.11522l185.225584,0c53.86196,0 97.487762,-43.625805 97.487762,-97.487756l0,-194.973137l73.115233,0c67.266681,0 121.859125,-54.592434 121.859125,-121.859093s-54.592444,-121.860281 -121.857937,-121.860281z"></path>
  </g>
</svg>