<svg viewBox="0 0 1024 1024" version="1.1" xmlns="http://www.w3.org/2000/svg">
  <g class="fore">
    <path d="m316.290859,371.525195l-76.262081,155.309804c-4.399739,8.791118 1.466576,20.512615 13.199207,20.512615l519.168825,0c10.266044,0 17.598936,-11.721497 13.199207,-20.512615l-77.728668,-155.309804c-2.933163,-4.395564 -7.332892,-7.325933 -13.199207,-7.325933l-365.178076,0c-5.866305,0 -10.266044,2.930369 -13.199207,7.325933zm-120.259442,241.75583l-77.728668,155.309815c-4.399729,8.791118 1.466587,20.512615 13.199207,20.512615l761.154296,0c10.266044,0 17.598947,-11.721497 13.199207,-20.512615l-77.728668,-155.309815c-2.933153,-4.395554 -7.332892,-7.325933 -13.199207,-7.325933l-605.696961,0c-5.866316,0 -11.732631,2.930379 -13.199207,7.325933zm-121.726019,241.75584l-73.328928,147.983871c-4.399739,8.791128 1.466576,20.512615 13.199207,20.512626l995.806865,0c10.266044,0 17.598936,-11.721497 13.199207,-20.512626l-73.328939,-147.983871c-2.933153,-4.395564 -7.332892,-7.325933 -13.199207,-7.325933l-849.148998,0c-5.866316,0 -10.266055,2.930369 -13.199207,7.325933zm588.098014,-569.957695l-137.858389,-276.920322c-5.866316,-10.256313 -20.532099,-10.256313 -24.931838,0l-137.858389,276.920322c-4.399729,8.791118 1.466576,20.512615 13.199207,20.512615l277.183354,0c7.332892,0 14.665784,-11.721497 10.266055,-20.512615z"></path>
  </g>
</svg>