<svg viewBox="0 0 1024 1024" version="1.1" xmlns="http://www.w3.org/2000/svg">
  <g class="fore">
    <path d="m1005.24053,385.25276c-17.59993,-70.5593 -50.97122,-123.76421 -122.05665,-123.76421l-91.65677,0l0,108.2366c0,84.03179 -71.314,154.81944 -152.6851,154.81944l-244.1133,0c-66.74259,0 -122.05665,57.08681 -122.05665,123.99256l0,232.45751c0,66.2207 57.59977,105.03974 122.05665,123.99256c77.25683,22.60638 151.54225,26.71663 244.1133,0c61.48547,-17.81109 122.05665,-53.66161 122.05665,-123.99256l0,-92.93733l-243.88473,0l0,-31.05523l366.16996,0c71.08543,0 97.37104,-49.55135 122.05665,-123.76421c25.5999,-76.49633 24.45704,-150.02415 0,-247.98512zm-351.0843,464.68667c25.37133,0 45.94267,20.7796 45.94267,46.35449c0,25.80324 -20.57135,46.58284 -45.94267,46.58284c-25.14276,0 -45.94267,-21.00795 -45.94267,-46.58284c0.22857,-25.80324 20.79992,-46.35449 45.94267,-46.35449zm-270.62748,-355.99337l244.1133,0c67.88544,0 122.05665,-55.94508 122.05665,-123.99256l0,-232.68585c0,-66.2207 -55.7712,-115.77206 -122.05665,-126.96107c-81.82824,-13.47249 -170.74217,-12.78745 -244.1133,0.22835c-103.31387,18.26778 -122.05665,56.40177 -122.05665,126.96107l0,92.93733l244.34187,0l0,31.05523l-335.99865,0c-71.08543,0 -133.25661,42.70094 -152.6851,123.76421c-22.39991,92.93733 -23.31419,150.93754 0,247.98512c17.37136,72.15773 58.74262,123.76421 129.82805,123.76421l83.88538,0l0,-111.43346c0,-80.60658 69.71401,-151.62258 152.6851,-151.62258zm-15.31422,-325.62319c-25.37133,0 -45.94267,-20.7796 -45.94267,-46.35449c0.22857,-25.80324 20.57135,-46.58284 45.94267,-46.58284c25.14276,0 45.94267,21.00795 45.94267,46.58284s-20.57135,46.35449 -45.94267,46.35449z"></path>
  </g>
</svg>