<svg viewBox="0 0 1024 1024" version="1.1" xmlns="http://www.w3.org/2000/svg">
  <g class="fore">
    <path d="M912.896 641.536q-15.872-51.2-34.304-96.768l-46.08-115.2v-35.84C833.024 197.632 740.352 0 512 0S190.976 197.632 190.976 394.24v35.84l-46.08 115.2c-12.8 32.768-25.088 67.072-34.304 96.768-43.52 140.288-29.184 198.144-18.432 199.168 23.04 2.56 89.6-105.472 89.6-105.472a279.552 279.552 0 0 0 102.4 204.8A285.184 285.184 0 0 0 204.8 972.8c-18.432 13.824-16.384 27.648-12.8 33.28 14.336 24.576 250.88 15.872 318.976 8.192 68.096 7.68 304.64 16.384 319.488-8.192 3.584-5.632 5.632-19.456-12.8-33.28a287.744 287.744 0 0 0-78.848-35.84 279.552 279.552 0 0 0 102.4-204.8s66.56 108.032 89.6 105.472c10.752 0 25.088-59.392-18.944-199.168"></path>
  </g>
</svg>