<svg viewBox="0 0 1024 1024" version="1.1" xmlns="http://www.w3.org/2000/svg">
  <g class="fore">
    <path d="M85.312 85.312V384H384V85.312H85.312zM0 0h469.248v469.248H0V0z m170.624 170.624h128v128h-128v-128zM0 554.624h469.248v469.248H0V554.624z m85.312 85.312v298.624H384V639.936H85.312z m85.312 85.312h128v128h-128v-128zM554.624 0h469.248v469.248H554.624V0z m85.312 85.312V384h298.624V85.312H639.936z m383.936 682.56H1024v85.376h-298.752V639.936H639.936V1023.872H554.624V554.624h255.936v213.248h128V554.624h85.312v213.248z m-298.624-597.248h128v128h-128v-128z m298.624 853.248h-85.312v-85.312h85.312v85.312z m-213.312 0h-85.312v-85.312h85.312v85.312z"></path>
  </g>
</svg>