<svg viewBox="0 0 1024 1024" version="1.1" xmlns="http://www.w3.org/2000/svg">
  <g class="fore">
    <path d="M1024.00128 266.666667a218.069333 218.069333 0 0 0-27.264-104.789334c-0.512-1.024-1.024-2.090667-1.664-3.114666a214.869333 214.869333 0 0 0-183.893333-105.429334 210.773333 210.773333 0 0 0-199.722667 141.866667 368.938667 368.938667 0 0 0-198.954667 0A210.688 210.688 0 0 0 212.86528 53.333333 214.954667 214.954667 0 0 0 28.92928 158.72a25.6 25.6 0 0 0-1.706667 3.2A217.6 217.6 0 0 0 0.00128 266.666667a212.48 212.48 0 0 0 170.666667 209.066666 597.333333 597.333333 0 0 1 1.621333 61.866667 692.48 692.48 0 0 0 11.178667 95.744 193.024 193.024 0 0 0-83.072 44.544 42.666667 42.666667 0 0 0 0 60.330667 43.178667 43.178667 0 0 0 60.288 0 111.317333 111.317333 0 0 1 46.549333-22.912 477.866667 477.866667 0 0 0 31.530667 66.389333 211.114667 211.114667 0 0 0-52.949334 81.066667 42.666667 42.666667 0 0 0 27.008 53.973333 43.349333 43.349333 0 0 0 53.888-27.050667 111.957333 111.957333 0 0 1 22.613334-37.12A322.56 322.56 0 0 0 512.00128 970.666667a323.541333 323.541333 0 0 0 224.170667-119.850667 114.133333 114.133333 0 0 1 23.978666 38.656 43.434667 43.434667 0 0 0 53.888 27.050667 42.666667 42.666667 0 0 0 27.008-53.973334 212.949333 212.949333 0 0 0-54.656-82.645333 473.130667 473.130667 0 0 0 30.805334-65.450667 113.237333 113.237333 0 0 1 48.938666 23.68 42.666667 42.666667 0 0 0 60.288-60.330666 195.456 195.456 0 0 0-85.589333-45.226667c5.973333 1.621333 11.221333-156.757333 12.245333-156.928A212.821333 212.821333 0 0 0 1024.00128 266.666667zM375.04128 597.333333a42.666667 42.666667 0 1 1 42.666667-42.666666 42.666667 42.666667 0 0 1-42.666667 42.666666z m138.325333 181.333334c35.242667 0 64 13.226667 64 42.666666a68.010667 68.010667 0 0 1-64 64 68.010667 68.010667 0 0 1-64-64c0.170667-29.44 28.757333-42.666667 64-42.666666zM694.230613 554.666667a42.666667 42.666667 0 1 1-42.666666-42.666667 42.666667 42.666667 0 0 1 42.666666 42.666667zM86.443947 278.101333a113.237333 113.237333 0 0 1 14.464-55.253333c0.298667-0.554667 0.554667-0.810667 0.554666-1.109333 87.936-36.821333 141.354667 16.768 150.528 68.608 4.608 26.197333-50.133333 102.4-74.581333 97.365333a111.402667 111.402667 0 0 1-90.965333-109.610667z m760.149333 109.610667c-23.68 4.736-79.274667-70.912-74.581333-97.365333 9.173333-51.84 62.592-105.429333 150.528-68.608 0 0.298667 0.256 0.554667 0.554666 1.408a111.530667 111.530667 0 0 1-76.501333 164.565333z"></path>
  </g>
</svg>