<svg viewBox="0 0 1024 1024" version="1.1" xmlns="http://www.w3.org/2000/svg">
  <g class="fore">
    <path d="M844.72459 6.453181L767.93267 96.043755 659.144116 6.453181a31.796655 31.796655 0 0 0-38.39596 0L511.959602 96.043755 403.171048 6.453181a31.796655 31.796655 0 0 0-38.39596 0L255.986534 96.043755 179.194614 6.453181C157.996844-9.345157 128 5.653265 128 32.050488v959.899004c0 26.397223 29.996844 41.395645 51.194614 25.597307L255.986534 927.956225l108.788554 89.590574a31.796655 31.796655 0 0 0 38.39596 0L511.959602 927.956225l108.788554 89.590574a31.796655 31.796655 0 0 0 38.39596 0L767.93267 927.956225l76.79192 89.590574c20.997791 15.798338 51.194614 0.799916 51.194614-25.597307V32.050488c0-26.397223-29.996844-41.395645-51.194614-25.597307zM767.93267 719.978108c0 8.799074-7.199243 15.998317-15.998317 15.998316H271.984851c-8.799074 0-15.998317-7.199243-15.998317-15.998316v-31.996634c0-8.799074 7.199243-15.998317 15.998317-15.998317h479.949502c8.799074 0 15.998317 7.199243 15.998317 15.998317v31.996634z m0-191.979801c0 8.799074-7.199243 15.998317-15.998317 15.998316H271.984851c-8.799074 0-15.998317-7.199243-15.998317-15.998316v-31.996634c0-8.799074 7.199243-15.998317 15.998317-15.998316h479.949502c8.799074 0 15.998317 7.199243 15.998317 15.998316v31.996634z m0-191.979801c0 8.799074-7.199243 15.998317-15.998317 15.998317H271.984851c-8.799074 0-15.998317-7.199243-15.998317-15.998317v-31.996634c0-8.799074 7.199243-15.998317 15.998317-15.998316h479.949502c8.799074 0 15.998317 7.199243 15.998317 15.998316v31.996634z"></path>
  </g>
</svg>