<svg viewBox="0 0 1024 1024" version="1.1" xmlns="http://www.w3.org/2000/svg">
  <g class="fore">
    <path d="M102.4 0v165.888a497.152 497.152 0 0 0 270.336 128.512 153.6 153.6 0 0 1 278.528 0A497.152 497.152 0 0 0 921.6 165.888V0zM512 512a153.6 153.6 0 0 1-147.968-115.2A672.768 672.768 0 0 1 102.4 299.008V1024h819.2V299.008a672.768 672.768 0 0 1-261.632 97.792A153.6 153.6 0 0 1 512 512z"></path>
    <path d="M512 358.4m-102.4 0a102.4 102.4 0 1 0 204.8 0 102.4 102.4 0 1 0-204.8 0Z"></path>
  </g>
</svg>