<svg viewBox="0 0 1024 1024" version="1.1" xmlns="http://www.w3.org/2000/svg">
  <g class="fore">
    <path d="M806.851765 485.496471v425.261176a56.922353 56.922353 0 0 1-56.922353 56.922353H237.628235A56.922353 56.922353 0 0 1 180.705882 910.757647V485.496471h626.145883z m-113.844706 167.454117a30.117647 30.117647 0 0 0-30.117647 30.117647v113.423059l0.481882 5.421177a30.117647 30.117647 0 0 0 59.753412-5.421177V683.068235l-0.481882-5.421176a30.117647 30.117647 0 0 0-29.635765-24.696471zM749.929412 0c31.442824 0 56.922353 25.479529 56.922353 56.922353V425.261176H180.705882V56.922353C180.705882 25.479529 206.185412 0 237.628235 0H749.929412z m-56.922353 197.571765a30.117647 30.117647 0 0 0-30.117647 30.117647v113.423059l0.481882 5.421176a30.117647 30.117647 0 0 0 59.753412-5.421176V227.689412l-0.481882-5.421177a30.117647 30.117647 0 0 0-29.635765-24.69647z"></path>
  </g>
</svg>