<svg viewBox="0 0 1024 1024" version="1.1" xmlns="http://www.w3.org/2000/svg">
  <g class="fore">
    <path d="M76.17303 888.6c-19.2 21.6-15 55.2 9 71.4l137.6 55.8c19.8 13.4 46.6 10 62.6-7.6l183.6-203.8-158.4-175.8-234.4 260z m871.6 0s-584-649.2-590.8-660.2c30.8-16.8 80.4-35.8 155-35.8s124.2 19 155 35.8c-6.6 11.2-112 129.2-112 129.2l158.2 175.4 68.4-76c57.4-63.8 66.6-157.2 22.8-231l-87.4-147c-8.6-14.4-19.8-26.6-33.6-36-81.4-55.2-254.8-59.4-342.8 0-13.8 9.4-25 21.6-33.6 36l-87.2 146.4c-3 5-74.2 124.4 23 232L738.97303 1008c16 17.8 42.8 21 62.6 7.6l137.6-55.8c23.8-16 28-49.6 8.6-71.2z"></path>
  </g>
</svg>