<svg viewBox="0 0 1024 1024" version="1.1" xmlns="http://www.w3.org/2000/svg">
  <g class="fore">
    <path d="M682.666667 682.666667v-85.333334a42.666667 42.666667 0 1 0-85.333334 0v85.333334h-42.666666v-85.333334a42.666667 42.666667 0 1 0-85.333334 0v85.333334h-42.666666v-85.333334a42.666667 42.666667 0 1 0-85.333334 0v85.333334H256v-224.981334h85.333333V341.333333h341.333334v116.352h85.333333V682.666667h-85.333333z"></path>
    <path d="M42.666667 1024a42.666667 42.666667 0 0 1-42.666667-42.666667V42.666667a42.666667 42.666667 0 0 1 42.666667-42.666667h938.666666a42.666667 42.666667 0 0 1 42.666667 42.666667v938.666666a42.666667 42.666667 0 0 1-42.666667 42.666667H42.666667zM725.333333 256H298.666667a42.666667 42.666667 0 0 0-42.666667 42.666667v73.685333H213.333333a42.666667 42.666667 0 0 0-42.666666 42.666667V725.333333a42.666667 42.666667 0 0 0 42.666666 42.666667h597.333334a42.666667 42.666667 0 0 0 42.666666-42.666667V415.018667a42.666667 42.666667 0 0 0-42.666666-42.666667h-42.666667V298.666667a42.666667 42.666667 0 0 0-42.666667-42.666667z"></path>
  </g>
</svg>