<svg viewBox="0 0 1024 1024" version="1.1" xmlns="http://www.w3.org/2000/svg">
  <g class="fore">
    <path d="m512.000055,51.833252a93.151507,92.033341 0 0 1 93.151507,92.033352c0,34.052334 -18.630295,63.963167 -46.575748,79.608839l0,58.441177l46.575748,0a326.030292,322.11671 0 0 1 326.030292,322.116699l46.575759,0a46.575759,46.016676 0 0 1 46.575748,46.016676l0,138.050017a46.575759,46.016676 0 0 1 -46.575748,46.016676l-46.575759,0l0,46.016665a93.151507,92.033341 0 0 1 -93.151507,92.033352l-652.060585,0a93.151507,92.033341 0 0 1 -93.151507,-92.033352l0,-46.016665l-46.575759,0a46.575759,46.016676 0 0 1 -46.575748,-46.016676l0,-138.050017a46.575759,46.016676 0 0 1 46.575748,-46.016676l46.575759,0a326.030292,322.11671 0 0 1 326.030292,-322.116699l46.575748,0l0,-58.441177c-27.945453,-15.645672 -46.575748,-45.556506 -46.575748,-79.608839a93.151507,92.033341 0 0 1 93.151507,-92.033352m-209.5909,506.183402a116.439393,115.041684 0 0 0 -116.439393,115.041674a116.439393,115.041684 0 0 0 116.439393,115.041684a116.439393,115.041684 0 0 0 116.439393,-115.041684a116.439393,115.041684 0 0 0 -116.439393,-115.041674m419.1818,0a116.439393,115.041684 0 0 0 -116.439393,115.041674a116.439393,115.041684 0 0 0 116.439393,115.041684a116.439393,115.041684 0 0 0 116.439393,-115.041684a116.439393,115.041684 0 0 0 -116.439393,-115.041674z"/>
  </g>
</svg>