<svg viewBox="0 0 1024 1024" version="1.1" xmlns="http://www.w3.org/2000/svg">
  <g class="fore">
    <path d="M1010.092957 38.19946a31.779551 31.779551 0 0 0-24.399655-24.399655C921.294212 0 870.914925 0 820.715635 0c-206.397081 0-330.195331 110.398439-422.574025 255.99638H189.744557A95.998643 95.998643 0 0 0 104.005769 308.975631l-98.838602 197.597206A47.999321 47.999321 0 0 0 48.146559 575.991855h207.537065l-44.939364 44.939365a63.999095 63.999095 0 0 0 0 90.49872l101.79856 101.81856a63.999095 63.999095 0 0 0 90.51872 0L448.000905 768.309136V975.986199a47.999321 47.999321 0 0 0 69.399019 42.979392l197.397208-98.778603a95.818645 95.818645 0 0 0 52.999251-85.798787V625.571154c145.177947-92.598691 255.99638-216.796934 255.99638-422.17403 0.199997-50.399287 0.199997-100.798575-13.699806-165.197664zM767.99638 335.995249a79.998869 79.998869 0 1 1 79.998869-79.998869 79.998869 79.998869 0 0 1-79.998869 79.998869z"></path>
  </g>
</svg>