<svg viewBox="0 0 1024 1024" version="1.1" xmlns="http://www.w3.org/2000/svg">
  <g class="fore">
    <path d="M34.133333 632.0128h264.669867v352.802133H34.133333V632.0128z m353.962667-221.3888h262.144v574.190933h-262.144V410.624z m337.1008 144.759467h262.144v429.397333h-262.144v-429.397333zM125.952 386.423467l-90.555733 13.312 65.536 64.512-15.4624 91.136 80.9984-43.008 80.9984 43.008-15.4624-91.136 65.536-64.512-90.555734-13.312-40.516266-82.875734L125.952 386.389333zM519.168 68.266667l-40.482133 82.909866-90.555734 13.312 65.536 64.512-15.496533 91.136 81.032533-43.008 80.9984 43.008-15.4624-91.136 65.536-64.512-90.589866-13.312L519.202133 68.266667z m296.618667 228.386133l-90.589867 13.312 65.536 64.512-15.4624 91.136 80.9984-43.008 80.9984 43.008-15.4624-91.136 65.536-64.512-90.555733-13.312-40.516267-82.875733L815.786667 296.618667z"></path>
  </g>
</svg>