<svg viewBox="0 0 1024 1024" version="1.1" xmlns="http://www.w3.org/2000/svg">
  <g class="fore">
    <path d="M320.16155 831.918c0 70.738-57.344 128.082-128.082 128.082S63.99955 902.656 63.99955 831.918s57.344-128.082 128.082-128.082 128.08 57.346 128.08 128.082z m351.32 94.5c-16.708-309.2-264.37-557.174-573.9-573.9C79.31155 351.53 63.99955 366.21 63.99955 384.506v96.138c0 16.83 12.98 30.944 29.774 32.036 223.664 14.568 402.946 193.404 417.544 417.544 1.094 16.794 15.208 29.774 32.036 29.774h96.138c18.298 0.002 32.978-15.31 31.99-33.58z m288.498 0.576C943.19155 459.354 566.92955 80.89 97.00555 64.02 78.94555 63.372 63.99955 77.962 63.99955 96.032v96.136c0 17.25 13.67 31.29 30.906 31.998 382.358 15.678 689.254 322.632 704.93 704.93 0.706 17.236 14.746 30.906 31.998 30.906h96.136c18.068-0.002 32.658-14.948 32.01-33.008z"></path>
  </g>
</svg>