<svg viewBox="0 0 1024 1024" version="1.1" xmlns="http://www.w3.org/2000/svg">
  <g class="fore">
    <path d="M990 450.12l-34.44 2.16c-10.54-78.98-41.58-151.28-87.72-211.68l25.9-22.86c13.84-12.22 14.5-33.58 1.46-46.62L852.88 128.8c-13.06-13.06-34.42-12.38-46.62 1.46L783.4 156.14c-60.4-46.12-132.7-77.16-211.66-87.72L573.88 34c1.16-18.42-13.48-34-31.94-34h-59.88c-18.46 0-33.08 15.58-31.94 34l2.16 34.44c-78.98 10.54-151.28 41.58-211.66 87.72l-22.86-25.9c-12.22-13.84-33.58-14.5-46.62-1.46L128.8 171.12c-13.06 13.06-12.38 34.42 1.46 46.62l25.9 22.86c-46.12 60.4-77.16 132.7-87.72 211.68L34 450.12c-18.42-1.16-34 13.48-34 31.94v59.88c0 18.46 15.58 33.08 34 31.94l34.44-2.16c10.54 78.98 41.58 151.28 87.72 211.66l-25.9 22.86c-13.84 12.22-14.5 33.58-1.46 46.62l42.34 42.34c13.06 13.06 34.42 12.38 46.62-1.46l22.86-25.9c60.4 46.12 132.7 77.16 211.68 87.72L450.12 990c-1.16 18.42 13.48 34 31.94 34h59.88c18.46 0 33.08-15.58 31.94-34l-2.16-34.44c78.98-10.54 151.28-41.58 211.68-87.72l22.86 25.9c12.22 13.84 33.58 14.5 46.62 1.46l42.34-42.34c13.06-13.06 12.38-34.42-1.46-46.62l-25.9-22.86c46.12-60.4 77.16-132.7 87.72-211.66l34.44 2.16c18.42 1.16 34-13.48 34-31.94v-59.88c-0.02-18.46-15.6-33.08-34.02-31.94zM563.68 197.22c49.62 8.14 95.26 27.32 134.46 55.56l-85.24 96.58c-17.46-10.88-36.64-19.08-57.24-23.9l8.02-128.24z m-103.36 0l8.02 128.24c-20.58 4.82-39.78 13.04-57.24 23.9l-85.24-96.58c39.2-28.24 84.84-47.42 134.46-55.56z m-207.54 128.66l96.6 85.22c-10.88 17.46-19.08 36.66-23.92 57.24l-128.24-8.02c8.14-49.62 27.32-95.24 55.56-134.44z m-55.56 237.8l128.24-8.02c4.82 20.58 13.04 39.78 23.9 57.24l-96.58 85.24c-28.24-39.2-47.42-84.84-55.56-134.46z m263.1 263.1c-49.62-8.14-95.26-27.32-134.46-55.56l85.22-96.6c17.46 10.88 36.66 19.08 57.24 23.92l-8 128.24zM512 576c-35.34 0-64-28.66-64-64s28.66-64 64-64 64 28.66 64 64-28.66 64-64 64z m51.68 250.78l-8.02-128.24c20.58-4.82 39.78-13.04 57.24-23.92l85.22 96.6c-39.2 28.24-84.82 47.42-134.44 55.56z m207.54-128.66l-96.58-85.24c10.88-17.46 19.08-36.64 23.9-57.24l128.24 8.02c-8.14 49.64-27.32 95.28-55.56 134.46z m-72.68-229.78c-4.82-20.58-13.04-39.78-23.92-57.24l96.6-85.22c28.24 39.2 47.42 84.84 55.56 134.46l-128.24 8z"></path>
  </g>
</svg>