<svg viewBox="0 0 1024 1024" version="1.1" xmlns="http://www.w3.org/2000/svg">
  <g class="fore">
    <path d="M291.179333 85.132421A1590.273621 1590.273621 0 0 0 442.289379 3.830959a24.688402 24.688402 0 0 1 22.985754 0 17.877808 17.877808 0 0 1 11.492877 17.026484v383.095894a20.006119 20.006119 0 0 1-21.283105 18.729132H26.843166a20.431781 20.431781 0 0 1-21.708767-17.026484A1887.38577 1887.38577 0 0 1 5.134399 127.698631a20.431781 20.431781 0 0 1 10.641552-13.195525 28.093699 28.093699 0 0 1 18.729133 0 343.93498 343.93498 0 0 0 255.397262-26.816713z m438.857629 0A2991.127606 2991.127606 0 0 1 578.926915 3.405297a24.688402 24.688402 0 0 0-22.560092 0 18.30347 18.30347 0 0 0-11.492876 16.17516v383.095893a19.580457 19.580457 0 0 0 21.283105 18.303471h428.641739a20.431781 20.431781 0 0 0 21.283105-17.026484 1771.180015 1771.180015 0 0 0 0-277.10603 17.877808 17.877808 0 0 0-10.215891-13.195525 23.837078 23.837078 0 0 0-18.729132 0A347.340277 347.340277 0 0 1 730.036962 85.132421zM73.240335 708.301741A796.413797 796.413797 0 0 0 444.843352 1021.58905a24.688402 24.688402 0 0 0 21.283105 0 19.580457 19.580457 0 0 0 10.641553-17.452146V501.429959a19.580457 19.580457 0 0 0-6.384932-14.472512 26.39105 26.39105 0 0 0-16.17516-6.384931H23.012207a25.539726 25.539726 0 0 0-17.877808 7.661917 19.580457 19.580457 0 0 0-4.682284 17.026485 634.662197 634.662197 0 0 0 72.78822 201.763837z m875.161286 0A796.413797 796.413797 0 0 1 576.798604 1021.58905a24.688402 24.688402 0 0 1-21.283105 0 19.580457 19.580457 0 0 1-10.641552-17.452146V501.429959a19.580457 19.580457 0 0 1 6.384931-14.472512 24.688402 24.688402 0 0 1 16.17516-6.384931h431.195712a25.539726 25.539726 0 0 1 17.877808 7.661917 19.580457 19.580457 0 0 1 4.682283 17.026485 634.662197 634.662197 0 0 1-72.78822 201.763837z"></path>
  </g>
</svg>