<svg viewBox="0 0 1024 1024" version="1.1" xmlns="http://www.w3.org/2000/svg">
  <g class="fore">
    <path d="M104 424h816v480H992a24 24 0 1 1 0 48H32a24 24 0 1 1 0-48h72v-480z m-73.152-48a88.128 88.128 0 0 1-22.848-60.032c0-8.96 1.28-17.92 3.904-26.56L62.72 121.408C73.088 87.168 102.208 64 135.04 64h753.92c32.768 0 61.952 23.168 72.32 57.408l50.816 168a90.112 90.112 0 0 1-18.944 86.592H30.848zM511.744 928a14.464 14.464 0 0 0 10.944-5.12c6.4-7.488 157.824-185.088 157.312-302.208C679.552 525.44 604.224 448 512 448 419.392 448 344 525.44 344 620.8c0 116.992 150.4 294.592 156.8 302.08 2.752 3.2 6.528 4.992 10.944 5.12zM512 664a48 48 0 1 1 0-96 48 48 0 0 1 0 96z"></path>
  </g>
</svg>