<svg viewBox="0 0 1024 1024" version="1.1" xmlns="http://www.w3.org/2000/svg">
  <g class="fore">
    <path d="m273.041655,-0.166687l573.5,0a47.79167,51.216669 0 0 1 47.791659,51.216669l0,921.899977a47.79167,51.216669 0 0 1 -47.791659,51.216669l-669.083341,0a47.79167,51.216669 0 0 1 -47.791659,-51.216669l0,-439.438989a47.79167,51.216669 0 0 1 13.955159,-36.15897l74.650591,-80.307727a23.89583,25.608329 0 0 0 6.97758,-18.079479l0,-347.914812a47.79167,51.216669 0 0 1 47.79167,-51.216669zm382.33333,102.433339l0,204.866653l95.58333,0l0,-204.866653l-95.58333,0zm-143.375,0l0,204.866653l95.58333,0l0,-204.866653l-95.58333,0zm-143.375,0l0,204.866653l95.58333,0l0,-204.866653l-95.58333,0z"></path>
  </g>
</svg>