<svg viewBox="0 0 1024 1024" version="1.1" xmlns="http://www.w3.org/2000/svg">
  <g class="fore">
    <path d="M1014.82496 940.30848l-254.921387-253.067947c59.501227-67.71712 93.300053-160.382293 93.300054-261.710506C853.25824 189.272747 666.559147 3.413333 428.57472 3.413333 190.593707 3.413333 3.372373 189.272747 3.372373 425.53344c0 236.25728 187.21792 422.096213 425.209174 422.096213 102.065493 0 195.416747-33.614507 263.632213-92.665173l254.94528 253.064533c16.92672 16.745813 42.574507 16.745813 59.501227 0 16.92672-17.302187 16.92672-50.920107 8.198826-67.713706l-0.034133-0.006827zM88.517973 425.53344c0-185.849173 152.896853-337.585493 340.063574-337.585493 187.163307 0 340.046507 151.73632 340.046506 337.585493s-152.814933 337.585493-340.046506 337.585493c-187.241813 0-340.063573-152.24832-340.063574-337.585493z" p-id="1958"></path>
  </g>
</svg>