<svg viewBox="0 0 1024 1024" version="1.1" xmlns="http://www.w3.org/2000/svg">
  <g class="fore">
    <path d="M926.11584 373.95456C831.665493 315.835733 802.64192 192.31744 860.7232 105.130667L686.349653 3.416747c-14.53056 29.057707-43.598507 58.125653-72.656213 72.659626-87.186773 58.112-203.431253 29.057707-254.293333-58.07104l-7.266987-7.263573L177.78688 112.401067c14.53056 29.057707 29.057707 65.39264 21.794133 101.71392 0 108.98432-87.186773 196.171093-196.16768 203.444906v203.431254c36.338347 0 65.39264 7.263573 94.450347 21.794133 94.45376 58.129067 123.47392 181.63712 65.39264 268.823893l174.373547 108.980907c14.53056-29.06112 43.598507-58.125653 72.656213-72.6528 87.186773-58.129067 203.444907-29.057707 254.293333 58.108587l7.263574 7.2704 174.373546-108.98432c-14.53056-29.057707-21.794133-65.385813-21.794133-101.717334 0-108.977493 87.186773-196.16768 196.164267-203.441493v-203.40736c-36.338347 7.26016-65.389227 0-94.450347-21.794133l-0.02048-0.017067z m-414.139733 334.22336c-108.3392-0.006827-196.160853-87.835307-196.154027-196.174507 0.006827-108.3392 87.835307-196.160853 196.181333-196.154026 108.32896 0.006827 196.143787 87.821653 196.150614 196.154026 0.433493 107.90912-86.698667 195.744427-194.614614 196.174507h-1.563306z"></path>
  </g>
</svg>