<svg viewBox="0 0 1024 1024" version="1.1" xmlns="http://www.w3.org/2000/svg">
  <g class="fore">
    <path d="M706.673778 0c29.696 0 53.76 13.767111 53.76 30.72v184.263111l80.668444 0.056889c29.696 0 53.76 24.064 53.76 53.76v645.12a53.76 53.76 0 0 1-53.76 53.76H357.262222a53.76 53.76 0 0 1-53.76-53.76V268.8c0-29.696 24.064-53.76 53.76-53.76l80.611556-0.056889 0.113778-84.423111a28.273778 28.273778 0 0 1-11.605334 4.949333l-5.12 0.455111H249.742222a79.075556 79.075556 0 0 0-78.734222 71.452445L170.666667 215.04v44.487111a28.444444 28.444444 0 0 1-56.433778 5.12L113.777778 259.527111V215.04c0-71.964444 55.921778-130.844444 126.634666-135.623111l9.329778-0.341333h171.52c6.257778 0 12.003556 1.991111 16.725334 5.404444L437.873778 30.72c0-16.952889 24.120889-30.72 53.816889-30.72h215.04zM437.873778 724.195556a28.444444 28.444444 0 0 0-27.932445 23.324444l-0.512 5.12v33.450667l0.512 5.12a28.444444 28.444444 0 0 0 55.921778 0l0.455111-5.12v-33.450667l-0.455111-5.12a28.444444 28.444444 0 0 0-27.989333-23.324444z m0-375.921778a28.444444 28.444444 0 0 0-27.932445 23.324444l-0.512 5.12v287.857778l0.512 5.12a28.444444 28.444444 0 0 0 55.921778 0l0.455111-5.12v-287.857778l-0.455111-5.12a28.444444 28.444444 0 0 0-27.989333-23.324444z"></path>
  </g>
</svg>