<svg viewBox="0 0 1024 1024" version="1.1" xmlns="http://www.w3.org/2000/svg">
  <g class="fore">
    <path d="M957.217 86.372v521.84c0 31.298-7.435 62.419-22.26 93.362-14.87 31.031-34.282 60.994-58.324 90.112-24.042 29.072-51.512 56.631-82.365 82.587-30.898 26.001-62.197 49.152-93.941 69.454-31.789 20.347-62.642 37.265-92.605 50.71-29.963 13.446-56.231 22.662-78.804 27.693l-10.685 1.87-9.795-1.87c-23.151-5.03-49.998-14.247-80.584-27.692-30.587-13.446-62.33-30.364-95.277-50.71-32.946-20.303-65.268-43.454-97.057-69.455-31.744-25.956-60.104-53.515-85.037-82.587-24.932-29.118-45.1-59.08-60.505-90.112-15.493-30.943-23.195-62.064-23.195-93.363V86.372l36.507-5.654L512.89 0l417.614 80.718 26.713 5.654zM513.024 75.553l-4.942-1.024-351.544 62.999v329.238h356.486V75.553z m354.438 391.213H513.024v468.636c22.795-5.521 47.594-13.936 74.396-25.289 26.757-11.353 53.203-24.754 79.293-40.247 26.134-15.494 51.245-32.68 75.42-51.601 24.175-18.922 45.501-39.268 64.156-60.95 18.61-21.638 33.436-44.166 44.521-67.584 11.13-23.374 16.652-47.149 16.652-71.235v-151.73z"></path>
  </g>
</svg>