<svg viewBox="0 0 1024 1024" version="1.1" xmlns="http://www.w3.org/2000/svg">
  <g class="fore">
    <path d="m794.585612,745.278l112.019202,-140.024c27.0384,-33.8 15.9072,-91.542 -20.5376,-106.184l-66.867201,-26.866l0,-280.204c0,-35.346 -22.9232,-64 -51.200001,-64l-102.400002,0l0,-80c0,-26.51 -17.192,-48 -38.400001,-48l-230.400003,0c-21.208,0 -38.400001,21.49 -38.400001,48l0,80l-102.400002,0c-28.2768,0 -51.200001,28.654 -51.200001,64l0,280.204l-66.867201,26.866c-36.404801,14.626 -47.606401,72.346 -20.5376,106.184l112.019202,140.024c-28.0896,87.296 -92.475201,150.722 -191.014403,150.722c-21.208,0 -38.400001,21.49 -38.400001,48l0,32c0,26.51 17.192,48 38.400001,48c97.636801,0 171.998403,-41.22 229.212803,-118.792c23.0704,69.656 78.020801,118.792 141.987202,118.792l204.800003,0c63.966401,0 118.916802,-49.136 141.987202,-118.792c57.204801,77.56 131.561602,118.792 229.212803,118.792c21.208,0 38.400001,-21.49 38.400001,-48l0,-32c0,-26.51 -17.192,-48 -38.400001,-48c-97.307201,0 -162.467202,-62.002 -191.014403,-150.722zm-487.385607,-489.278l409.600006,0l0,175.062l-189.132803,-75.99a51.192001,63.99 0 0 0 -31.3344,0l-189.132803,75.99l0,-175.062z"></path>
  </g>
</svg>