<svg viewBox="0 0 1024 1024" version="1.1" xmlns="http://www.w3.org/2000/svg">
  <g class="fore">
    <path d="M155.487573 968.178347c-48.073387-0.310613-86.97856-39.205547-87.27552-87.272107v-198.847147a29.259093 29.259093 0 0 1 8.762027-20.995413c11.543893-11.700907 30.38208-11.810133 42.082987-0.26624a29.771093 29.771093 0 0 1 8.86784 21.097813v199.0144a28.286293 28.286293 0 0 0 28.299946 28.112214h700.402347a28.47744 28.47744 0 0 0 28.299947-28.296534v-202.861226a29.764267 29.764267 0 0 1 29.81888-29.709654c16.39424 0.03072 29.661867 13.318827 29.692586 29.709654v202.318506c-0.197973 48.387413-39.43424 87.538347-87.81824 87.637334l-701.1328 0.3584zM200.768853 602.999467a198.823253 198.823253 0 0 1-87.647573-18.254507l-7.30112-3.833173C22.442667 535.606613-16.482987 437.06368 13.42464 347.016533l1.099093-4.754773 93.846187-220.928c14.923093-41.18528 55.046827-67.744427 98.781867-65.368747h612.406613c45.083307-2.082133 86.381227 25.11872 102.2464 67.372374l87.463253 216.917333c0.62464 1.532587 1.112747 3.126613 1.450667 4.747947v1.46432a192.965973 192.965973 0 0 1 9.87136 61.17376c-1.256107 108.997973-90.641067 196.34176-199.632213 195.09248a197.43744 197.43744 0 0 1-148.38784-69.833387l-5.65248-6.761813-5.66272 6.761813c-69.0176 82.530987-191.8976 93.494613-274.42176 24.466773a195.570347 195.570347 0 0 1-24.46336-24.466773l-5.666134-6.761813-5.649066 6.761813a197.266773 197.266773 0 0 1-150.644054 69.925547l0.3584 0.17408zM206.984533 115.309227a40.89856 40.89856 0 0 0-43.281066 27.20768l-92.57984 218.190506a16.315733 16.315733 0 0 1 0 3.109547 138.87488 138.87488 0 0 0-7.478614 44.72832 136.942933 136.942933 0 0 0 73.04192 121.05728l2.187947 1.09568a139.752107 139.752107 0 0 0 62.631253 13.154987 137.673387 137.673387 0 0 0 116.845227-65.18784v-0.914774a53.582507 53.582507 0 0 1 9.13408-14.42816 38.710613 38.710613 0 0 1 29.395627-11.322026 41.09312 41.09312 0 0 1 31.412906 12.782933 53.039787 53.039787 0 0 1 7.666347 12.417707c38.191787 64.33792 121.330347 85.517653 185.668267 47.315626a135.468373 135.468373 0 0 0 46.759253-46.40768 59.398827 59.398827 0 0 1 8.94976-14.247253 39.43424 39.43424 0 0 1 30.313813-12.772693 38.83008 38.83008 0 0 1 30.11584 12.414293 52.094293 52.094293 0 0 1 8.76544 13.878613c39.154347 64.699733 123.347627 85.415253 188.061014 46.277974 54.59968-33.04448 79.148373-99.416747 59.16672-160.03072 0-1.46432 0-2.56-0.918187-3.47136l-86.729387-215.64416a46.547627 46.547627 0 0 0-45.820586-28.84608l-613.307734-0.3584z m0 258.546346c-16.390827 0-29.67552-13.288107-29.67552-29.672106s13.29152-29.66528 29.67552-29.66528h595.595947a29.661867 29.661867 0 0 1 29.66528 29.66528 29.66528 29.66528 0 0 1-29.66528 29.672106H206.984533z"></path>
  </g>
</svg>