<svg viewBox="0 0 1024 1024" version="1.1" xmlns="http://www.w3.org/2000/svg">
  <g class="fore">
    <path d="M785.066667 409.6c-10.24 0-17.066667-6.826667-17.066667-17.066667v-238.933333c0-61.44-78.506667-119.466667-136.533333-119.466667H375.466667C314.026667 34.133333 256 92.16 256 153.6v238.933333c0 10.24-6.826667 17.066667-17.066667 17.066667s-17.066667-6.826667-17.066666-17.066667v-238.933333C221.866667 71.68 293.546667 0 375.466667 0h256c78.506667 0 170.666667 71.68 170.666666 153.6v238.933333c0 10.24-6.826667 17.066667-17.066666 17.066667z"></path>
    <path d="M989.866667 238.933333h-153.6v153.6c0 27.306667-23.893333 51.2-51.2 51.2s-51.2-23.893333-51.2-51.2V238.933333h-443.733334v153.6c0 27.306667-23.893333 51.2-51.2 51.2s-51.2-23.893333-51.2-51.2V238.933333H34.133333c-10.24 0-17.066667 6.826667-17.066666 17.066667v750.933333c0 10.24 6.826667 17.066667 17.066666 17.066667h955.733334c10.24 0 17.066667-6.826667 17.066666-17.066667v-750.933333c0-10.24-6.826667-17.066667-17.066666-17.066667z m-102.4 614.4H136.533333c-10.24 0-17.066667-6.826667-17.066666-17.066666s6.826667-17.066667 17.066666-17.066667h750.933334c10.24 0 17.066667 6.826667 17.066666 17.066667s-6.826667 17.066667-17.066666 17.066666z"></path>
  </g>
</svg>