<svg viewBox="0 0 1024 1024" version="1.1" xmlns="http://www.w3.org/2000/svg">
  <g class="fore">
    <path d="M895.976 279.392A8 8 0 0 0 888 272h-144v-40C744 104.072 639.92 0 512 0S280 104.072 280 232v40H136a8 8 0 0 0-7.976 7.392l-56 736a7.976 7.976 0 0 0 2.112 6.04A7.976 7.976 0 0 0 80 1024h864a8 8 0 0 0 7.976-8.6l-56-736.008zM344 232c0-92.632 75.36-168 168-168s168 75.368 168 168v40H344v-40z m-32 264c-44.12 0-80-35.888-80-80 0-31.928 16-60.696 48-73.32V416c0 17.648 14.36 32 32 32s32-14.352 32-32v-73.272c32 12.624 48 41.608 48 73.272 0 44.112-35.88 80-80 80z m400 0c-44.12 0-80-35.888-80-80 0-31.928 16-60.696 48-73.32V416c0 17.648 14.36 32 32 32s32-14.352 32-32v-73.272c32 12.624 48 41.608 48 73.272 0 44.112-35.88 80-80 80z"></path>
  </g>
</svg>