<svg viewBox="0 0 1024 1024" version="1.1" xmlns="http://www.w3.org/2000/svg">
  <g class="fore">
    <path d="M877.851307 613.061973a226.450773 226.450773 0 0 1-176.039254-83.193173l-8.56064-10.431147-8.748373 10.431147c-77.492907 95.9488-218.084693 110.885547-314.03008 33.409707a223.78496 223.78496 0 0 1-33.396053-33.409707l-8.748374-10.431147-8.564053 10.431147A227.048107 227.048107 0 0 1 144.657067 613.239467a240.264533 240.264533 0 0 1-79.455574-12.639574v280.97536c-1.36192 49.035947 37.143893 89.94816 86.14912 91.552427H855.893333c49.33632-0.802133 88.664747-41.424213 87.8592-90.7776-0.013653-0.259413-0.013653-0.518827-0.013653-0.781653V604.501333a252.07808 252.07808 0 0 1-65.887573 8.56064z"></path>
    <path d="M1020.583253 397.755733a214.439253 214.439253 0 0 0-9.478826-64.034133v-1.839787a29.184 29.184 0 0 0-1.307307-4.85376l-80.766293-214.565546a93.0304 93.0304 0 0 0-85.415254-61.5936H184.855893A93.078187 93.078187 0 0 0 100.17792 110.7968L13.28128 327.40352V332.602027A222.856533 222.856533 0 0 0 3.413333 397.755733a214.818133 214.818133 0 0 0 64.38912 154.262187l2.054827 1.293653 2.413227 1.32096c76.8512 35.5328 168.127147 8.133973 212.708693-63.829333a61.996373 61.996373 0 0 1 10.41408-16.745813 42.205867 42.205867 0 0 1 32.375467-12.66688 45.073067 45.073067 0 0 1 34.99008 14.332586 59.654827 59.654827 0 0 1 8.56064 14.134614c43.83744 76.530347 141.39392 103.0144 217.910613 59.180373a159.62112 159.62112 0 0 0 59.17696-59.180373 63.744 63.744 0 0 1 9.683627-15.80032 43.17184 43.17184 0 0 1 33.49504-14.332587 42.827093 42.827093 0 0 1 33.49504 14.134613 60.791467 60.791467 0 0 1 9.854293 16.001707c45.359787 73.741653 139.4176 100.77184 216.989013 62.34112a214.55872 214.55872 0 0 0 68.6592-154.446507zM847.701333 321.082027H175.377067c-18.295467-0.03072-33.109333-14.885547-33.088854-33.18784 0.027307-18.24768 14.824107-33.068373 33.088854-33.068374h672.324266c18.29888 0 33.109333 14.854827 33.09568 33.153707a33.143467 33.143467 0 0 1-33.09568 33.102507z"></path>
  </g>
</svg>