<svg viewBox="0 0 1024 1024" version="1.1" xmlns="http://www.w3.org/2000/svg">
  <g class="fore">
    <path d="M640 694.857143a54.857143 54.857143 0 1 0 54.857143-54.857143h-54.857143v54.857143z m109.714286-365.714286a54.857143 54.857143 0 0 0-109.714286 0v54.857143h54.857143a54.857143 54.857143 0 0 0 54.857143-54.857143zM987.428571 0H36.571429a36.571429 36.571429 0 0 0-36.571429 36.571429v950.857142a36.571429 36.571429 0 0 0 36.571429 36.571429h950.857142a36.571429 36.571429 0 0 0 36.571429-36.571429V36.571429a36.571429 36.571429 0 0 0-36.571429-36.571429z m-292.571428 566.857143a128 128 0 1 1 0 256A128 128 0 0 1 566.857143 694.857143v-54.857143h-109.714286v54.857143a128 128 0 1 1-256 0c0-70.729143 57.270857-128 128-128h54.857143v-109.714286H329.142857a128 128 0 1 1 0-256c70.729143 0 128 57.270857 128 128v54.857143h109.714286V329.142857a128 128 0 1 1 256 0A128 128 0 0 1 694.857143 457.142857h-54.857143v109.714286h54.857143z m-237.714286-109.714286h109.714286v109.714286h-109.714286v-109.714286zM329.142857 274.285714a54.857143 54.857143 0 0 0 0 109.714286h54.857143V329.142857a54.857143 54.857143 0 0 0-54.857143-54.857143zM274.285714 694.857143a54.857143 54.857143 0 0 0 109.714286 0v-54.857143H329.142857a54.857143 54.857143 0 0 0-54.857143 54.857143z"></path>
  </g>
</svg>