<svg viewBox="0 0 1024 1024" version="1.1" xmlns="http://www.w3.org/2000/svg">
  <g class="fore">
    <path d="M128 64C57.4 64 0 121.4 0 192s57.4 128 128 128h2c7.4 177.8 154 320 334 320h112V256H128c-35.4 0-64-28.6-64-64s28.6-64 64-64h800c17.6 0 32-14.4 32-32s-14.4-32-32-32H128z m320 848c0 26.6 21.4 48 48 48h144v-144.4l-128.2-44.8c-25-8.8-52.4 4.4-61.2 29.4s4.4 52.4 29.4 61.2l9 3.2C466 867.8 448 887.8 448 912z m256 46.6c72.8-6.6 139-35.2 192.2-79.2l-173-69.2c-6 3.6-12.4 6.4-19.2 8.6v139.8zM945.2 830c49.2-60.6 78.8-137.8 78.8-222 0-24.6-2.6-48.6-7.4-71.8l-251 174c1.6 6.8 2.4 14 2.4 21.2 0 9.2-1.4 18-3.8 26.2l181 72.4zM672 256h-32v384h36.6c19.8 0 38.2 6.4 53.2 17l267-184.8C943.6 345.2 818.2 256 672 256z m-336 128a48 48 0 1 1 96 0 48 48 0 1 1-96 0z"></path>
  </g>
</svg>