<svg viewBox="0 0 1024 1024" version="1.1" xmlns="http://www.w3.org/2000/svg">
  <g class="fore">
    <path d="m183.583316,-0.166626l469.166695,0l220.836761,241.076848a46.916673,51.21667 0 0 1 13.74658,36.210191l0,695.829625a46.916673,51.21667 0 0 1 -46.916662,51.21667l-656.833375,0a46.916673,51.21667 0 0 1 -46.916662,-51.21667l0,-921.899994a46.916673,51.21667 0 0 1 46.916662,-51.21667zm375.33336,819.466665l0,-409.733327l-234.583353,0l0,102.433329l140.750007,0l0,307.299998l93.833346,0zm-234.583353,-256.083328l0,102.433329l93.833346,0l0,-102.433329l-93.833346,0zm281.500015,0l0,102.433329l93.833346,0l0,-102.433329l-93.833346,0zm0,-153.649999l0,102.433329l93.833346,0l0,-102.433329l-93.833346,0zm-281.500015,307.299998l0,102.433329l93.833346,0l0,-102.433329l-93.833346,0zm281.500015,0l0,102.433329l93.833346,0l0,-102.433329l-93.833346,0z"></path>
  </g>
</svg>