<svg viewBox="0 0 1024 1024" version="1.1" xmlns="http://www.w3.org/2000/svg">
  <g class="fore">
    <path d="M169.324922 535.928831h139.138616c-27.505145-53.894171-74.367117-123.181761-153.882578-196.763938-15.507397-14.350417-36.337329-22.580455-57.154359-22.580456-21.885838 0-43.332969 8.4838-63.747852 25.219143-63.65753 52.178056-20.247142 116.644181-5.425761 135.162306 19.584782 24.468612 40.083534 58.94144 58.147899 99.96045 19.124571-24.903017 49.17378-40.997505 82.924035-40.997505zM990.322326 341.80358c-20.414882-16.733193-41.862014-25.219143-63.747852-25.219143-20.814879 0-41.646962 8.230038-57.154358 22.580456-79.517612 73.582178-126.377433 142.869768-153.880428 196.763938h139.138616c33.739502 0 63.78226 16.085886 82.90468 40.976 18.068665-41.014709 38.57602-75.470334 58.162952-99.941096 14.823531-18.515973 58.233919-82.984249-5.42361-135.160155zM916.196067 778.80206v-138.342924c0-33.920145-27.595467-61.517763-61.515612-61.517763H169.324922c-33.920145 0-61.515612 27.597618-61.515613 61.517763v138.342924c0 33.920145 27.595467 61.515612 61.515613 61.515612h685.353382c33.922296 0 61.517763-27.595467 61.517763-61.515612zM777.420889 883.328063l10.148301 80.343412h51.756555l10.148302-80.343412zM174.529179 883.328063l10.148302 80.343412h51.758705l10.148302-80.343412zM667.518586 535.928831c29.477172-63.941398 81.347704-143.805244 172.688872-228.333566a127.970968 127.970968 0 0 1 43.926513-26.651389C826.246285 151.994422 681.286212 60.328525 512.001613 60.328525S197.731135 151.983669 139.841298 280.935274a127.998925 127.998925 0 0 1 43.952319 26.659991c91.341168 84.526172 143.2117 164.387866 172.688872 228.333566h311.036097z"></path>
  </g>
</svg>