<svg viewBox="0 0 1024 1024" version="1.1" xmlns="http://www.w3.org/2000/svg">
  <g class="fore">
    <path d="M1021.600469 304.74048l-11.797696-28.994337c-6.598711-15.996876-25.195079-23.795352-41.591877-17.396602L911.82191 281.34505v-57.988674c0-17.196641-14.397188-31.193907-31.993751-31.193908h-31.993752c-17.596563 0-31.993751 13.997266-31.993751 31.193908v93.781683c0 0.999805 0.599883 1.999609 0.599883 2.999414l-112.777973 45.991018c-11.797696-19.996095-26.594806-37.792619-43.991408-53.189612 27.194689-33.193517 43.991408-74.785393 43.991408-120.976372 0-105.979301-85.983206-191.962507-191.962507-191.962507s-191.962507 85.983206-191.962508 191.962507c0 46.190978 16.99668 87.782855 43.991408 120.976372-17.396602 15.396993-31.993751 33.193517-43.991408 53.189612l-112.777973-45.991018c0.199961-0.999805 0.599883-1.999609 0.599883-2.999414v-93.781683C207.959383 206.159734 193.562195 192.162468 175.965632 192.162468H143.97188c-17.596563 0-31.993751 13.997266-31.993751 31.193908v57.988674l-56.189025-22.995509c-16.396798-6.39875-34.993165 1.399727-41.591877 17.396602l-11.797696 28.994337c-6.598711 15.996876 1.399727 34.193322 17.796524 40.592072l270.347198 110.378442c-0.799844 7.998438-2.399531 15.996876-2.399531 24.395235 0 20.196055 3.399336 39.192345 8.39836 57.788713C241.752783 592.884202 207.959383 668.46944 207.959383 752.053115c0 107.97891 56.788908 201.760594 141.572349 255.550087 18.596368 11.797696 40.592072 16.396798 62.587776 16.396798h198.361257c26.594806 0 52.589729-8.198399 74.385472-23.395431 92.981839-64.587385 148.770943-178.765085 125.775435-305.140402-10.997852-60.388205-40.991994-115.177504-83.183754-157.969146 4.999024-18.396407 8.39836-37.392697 8.39836-57.388792 0-8.39836-1.599688-16.196837-2.399531-24.395235L1003.803945 345.332552c16.196837-6.198789 24.195274-24.395235 17.796524-40.592072zM447.912517 192.162468c-17.596563 0-31.993751-14.397188-31.993751-31.993751s14.397188-31.993751 31.993751-31.993751 31.993751 14.397188 31.993751 31.993751-14.397188 31.993751-31.993751 31.993751z m63.987503 543.893771c-17.596563 0-31.993751-14.397188-31.993752-31.993751s14.397188-31.993751 31.993752-31.993751 31.993751 14.397188 31.993751 31.993751-14.397188 31.993751-31.993751 31.993751z m0-127.975005c-17.596563 0-31.993751-14.397188-31.993752-31.993751s14.397188-31.993751 31.993752-31.993751 31.993751 14.397188 31.993751 31.993751-14.397188 31.993751-31.993751 31.993751z m0-127.975005c-17.596563 0-31.993751-14.397188-31.993752-31.993751s14.397188-31.993751 31.993752-31.993751 31.993751 14.397188 31.993751 31.993751-14.397188 31.993751-31.993751 31.993751z m0-175.965631s-31.993751-46.390939-31.993752-63.987503 14.397188-31.993751 31.993752-31.993751 31.993751 14.397188 31.993751 31.993751-31.993751 63.987502-31.993751 63.987503z m63.987502-111.97813c-17.596563 0-31.993751-14.397188-31.993751-31.993751s14.397188-31.993751 31.993751-31.993751 31.993751 14.397188 31.993751 31.993751-14.397188 31.993751-31.993751 31.993751z"></path>
  </g>
</svg>