<svg viewBox="0 0 1024 1024" version="1.1" xmlns="http://www.w3.org/2000/svg">
  <g class="fore">
    <path d="M688.832 114.304L576 179.456v147.84l64 36.928 128-73.92V160h128v130.304l112.832 65.152-64 110.848L832 401.152l-128 73.92v73.856l128 73.92 112.832-65.152 64 110.848L896 733.696V864h-128v-130.304l-128-73.92-64 36.992v147.84l112.832 65.088-64 110.848L512 955.392l-112.832 65.152-64-110.848L448 844.544v-147.84l-64-36.928-128 73.92V864H128v-130.304L15.168 668.544l64-110.848L192 622.848l128-73.92V475.072L192 401.152 79.168 466.304l-64-110.848L128 290.304V160h128v130.304L384 364.16l64-36.992v-147.84L335.168 114.368l64-110.848L512 68.608 624.832 3.456l64 110.848zM576 512a64 64 0 1 1-128 0 64 64 0 0 1 128 0z"></path>
  </g>
</svg>