<svg viewBox="0 0 1024 1024" version="1.1" xmlns="http://www.w3.org/2000/svg">
  <g class="fore">
    <path d="M512 0C229.696 0 0 229.696 0 512s229.696 512 512 512 512-229.696 512-512S794.304 0 512 0z m32.512 166.336l131.648-70.784a450.114 450.114 0 0 1 184.896 136.32l-31.36 144.768-100.416 49.216-184.768-134.592V166.336z m-195.584-71.168l131.648 71.04v125.056l-184.64 134.592-100.928-49.28-31.36-145.664c48.512-60.032 112.256-107.072 185.28-135.744zM142.72 765.056c-41.792-60.8-68.992-132.288-76.48-209.536l108.352-117.696 98.816 48.32 74.432 211.392-62.912 75.392-142.208-7.872z m483.392 179.648C589.568 954.368 551.488 960 512 960c-47.744 0-93.696-7.68-136.896-21.568l-40.256-125.312L399.04 736h226.176l63.04 74.624-62.144 134.08z m112.064-173.952l-61.888-73.28 75.456-211.328 98.368-48.192 107.712 117.632c-6.464 66.624-27.904 128.768-60.48 183.744l-159.168 31.424z"></path>
  </g>
</svg>