<svg viewBox="0 0 1024 1024" version="1.1" xmlns="http://www.w3.org/2000/svg">
  <g class="fore">
    <path d="M93.537319 362.704991c30.972806 6.009106 54.43316 33.324196 54.43316 66.02735v88.237057H490.258216V183.215618H113.046568a30.645154 30.645154 0 0 0-21.967714 9.32632c-5.18462 5.385923-7.891502 12.281618-7.617388 19.417164 1.085751 28.52719 4.471494 79.178426 10.080136 150.730898l-0.004283 0.014991zM943.296812 404.927203c-13.125377 0-23.802997 10.67762-23.802997 23.802997v97.207884c19.211578 11.317934 32.139935 32.208464 32.139935 56.071423v78.878613c0 5.330244-0.33836 10.596242-1.884538 15.463917-4.032483 12.690649-12.362996 31.45679-32.75241 42.00806l27.904008 106.208694c2.5634 9.758907 11.367189 16.215591 21.006172 16.215591 1.826717 0 3.685556-0.231284 5.537971-0.719551 11.609181-3.049525 18.547706-14.934962 15.498182-26.542001l-33.31563-126.801552h23.543873c12.88981 0 23.132701-10.690469 23.828695-24.867332 2.777552-56.632501 20.93336-216.098661 23.002069-234.168808-0.548229-12.641394-11.005272-22.757935-23.779441-22.757935H943.296812zM23.77944 404.927203c-12.774168 0-23.231211 10.116541-23.77944 22.757935 2.066567 18.070147 20.220234 177.536307 22.997785 234.168808 0.695994 14.176864 10.941027 24.867332 23.830837 24.867332h23.53959l-33.309205 126.801552c-3.049525 11.609181 3.891142 23.492476 15.498181 26.542001 1.850273 0.486125 3.709113 0.719551 5.537972 0.719551 9.636841 0 18.44063-6.458825 21.006171-16.217732l27.899725-106.206553c-18.873217-14.260383-30.373181-30.831466-32.75241-41.990927-1.066477-5.00045-1.888821-10.144381-1.88882-15.483191v-78.878613c0-23.869384 12.93264-44.762055 32.148501-56.077848v-97.20146c0-13.125377-10.67762-23.802997-23.802997-23.802997H23.77944zM876.029521 428.7302c0-32.69673 23.453929-60.007537 54.420311-66.023068l-0.004283-0.012849c5.6065-71.552472 8.994385-122.207991 10.080136-150.733039 0.271973-7.137687-2.434908-14.033382-7.621671-19.419306a30.632305 30.632305 0 0 0-21.965572-9.324178H533.726793v333.753779h342.302728v-88.241339zM886.59364 560.435833H137.395652c-11.894003 0-21.571533 9.67753-21.571533 21.573674v78.878613c0 7.174093 3.533508 13.5237 8.938706 17.449107l0.017132-0.002142c0.087802 0.064246 0.162756 0.139199 0.250558 0.203445a21.436617 21.436617 0 0 0 12.365137 3.923265h749.197988c4.597844 0 8.855186-1.456234 12.358713-3.916841 0.089944-0.066387 0.167039-0.145623 0.259124-0.209869l0.019274 0.002142c5.403055-3.923265 8.936564-10.272872 8.936564-17.446965v-78.878613c0-11.898286-9.67753-21.575816-21.573675-21.575816z"></path>
  </g>
</svg>