<svg viewBox="0 0 1024 1024" version="1.1" xmlns="http://www.w3.org/2000/svg">
  <g class="fore">
    <path d="M941.98866 202.785519c33.767058 83.243913 17.682731 182.610014-48.573275 250.288416-72.960709 74.535577-183.230138 86.150102-268.901333 36.776601l-61.929468 69.124334 44.180222 45.316092 26.403347-26.985608c13.512758-13.796214 35.396161-13.796214 48.907896 0L896.310318 798.3661c13.499455 13.796214 13.499455 36.145222 0 49.941436l-97.80249 99.908454c-13.499455 13.796214-35.382858 13.796214-48.895617 0L535.378965 727.155245c-13.499455-13.782911-13.499455-36.144198 0-49.942459l24.118304-24.633027-42.125423-43.147706-296.296263 330.671165c-27.005051 27.594475-70.790276 27.594475-97.795327 0l-24.447808-24.982998c-27.01119-27.592428-27.01119-72.313979 0-99.909477l337.51606-288.774963L212.168726 296.829406l-70.770833-0.026606L59.50372 162.223708l65.966411-67.483974 134.729517 84.212984 0.916882 70.830185 226.750327 232.56373 65.983807-56.45171c-64.48671-89.820702-57.768705-216.301348 21.727861-297.504788 65.933665-67.354014 162.638147-84.070744 243.892753-50.210565L674.171008 224.552266 796.401864 349.431437 941.98866 202.785519zM180.004165 850.425779c-13.513782-13.795191-35.403325-13.795191-48.90892 0-13.491269 13.797237-13.491269 36.171828 0 49.968042 13.505595 13.795191 35.395138 13.795191 48.90892 0C193.503621 886.597607 193.503621 864.223017 180.004165 850.425779z"></path>
  </g>
</svg>