<svg viewBox="0 0 1024 1024" version="1.1" xmlns="http://www.w3.org/2000/svg">
  <g class="fore">
    <path d="M1024 853.36064v56.90368A113.73568 113.73568 0 0 1 910.19264 1024h-56.90368a113.408 113.408 0 0 1-98.00704-56.90368H268.65664A113.22368 113.22368 0 0 1 170.63936 1024h-56.832A113.74592 113.74592 0 0 1 0 910.19264v-56.90368a113.408 113.408 0 0 1 56.90368-98.00704V268.65664A113.22368 113.22368 0 0 1 0 170.63936v-56.832A113.74592 113.74592 0 0 1 113.80736 0h56.90368a113.408 113.408 0 0 1 98.00704 56.90368h486.69696A113.01888 113.01888 0 0 1 853.36064 0h56.90368A113.73568 113.73568 0 0 1 1024 113.80736v56.90368a113.408 113.408 0 0 1-56.90368 98.00704v486.69696A113.01888 113.01888 0 0 1 1024 853.36064zM853.36064 967.09632h56.90368a56.87296 56.87296 0 0 0 56.90368-56.90368v-56.90368a56.87296 56.87296 0 0 0-56.90368-56.90368h-56.90368a56.87296 56.87296 0 0 0-56.90368 56.90368v56.90368a56.87296 56.87296 0 0 0 56.90368 56.90368zM56.90368 910.19264a56.87296 56.87296 0 0 0 56.90368 56.90368h56.90368a56.87296 56.87296 0 0 0 56.90368-56.90368v-56.90368a56.87296 56.87296 0 0 0-56.90368-56.90368h-56.90368a56.87296 56.87296 0 0 0-56.90368 56.90368z m170.63936-796.38528a56.87296 56.87296 0 0 0-56.90368-56.90368h-56.832a56.87296 56.87296 0 0 0-56.90368 56.90368v56.90368a56.87296 56.87296 0 0 0 56.90368 56.90368h56.90368a56.87296 56.87296 0 0 0 56.90368-56.90368v-56.90368z m527.80032 113.73568H268.65664a113.02912 113.02912 0 0 1-41.10336 41.10336v486.69696a114.15552 114.15552 0 0 1 41.10336 41.10336h486.69696a114.15552 114.15552 0 0 1 41.10336-41.10336V268.65664a113.02912 113.02912 0 0 1-41.1136-41.1136z m211.75296-113.73568a56.87296 56.87296 0 0 0-56.90368-56.90368h-56.90368a56.87296 56.87296 0 0 0-56.90368 56.90368v56.90368a56.87296 56.87296 0 0 0 56.90368 56.90368h56.90368a56.87296 56.87296 0 0 0 56.90368-56.90368z"></path>
  </g>
</svg>