<svg viewBox="0 0 1024 1024" version="1.1" xmlns="http://www.w3.org/2000/svg">
  <g class="fore">
    <path d="M982.784 316.0064l-459.264 263.3728a25.6 25.6 0 0 1-25.4976 0L38.7584 316.0064a25.6 25.6 0 0 1 0-44.3904L497.9712 8.192a25.6 25.6 0 0 1 25.4464 0l459.3152 263.3728a25.6 25.6 0 0 1 0 44.3904z"></path>
    <path d="M498.3296 699.6992L85.504 468.7872a25.6 25.6 0 0 0-27.5456 1.6384l-25.9072 18.7904a25.6 25.6 0 0 0 2.304 42.9056l463.7184 265.9328a25.6 25.6 0 0 0 25.4464 0l463.4624-265.728a25.6 25.6 0 0 0 2.2016-43.0592l-23.7568-16.9984a25.6 25.6 0 0 0-27.2896-1.5872l-414.8736 229.0688a25.6 25.6 0 0 1-24.8832-0.0512z"></path>
    <path d="M498.3296 913.8176l-412.8768-230.912a25.6 25.6 0 0 0-27.5456 1.6384l-25.9072 18.7904a25.6 25.6 0 0 0 2.304 42.9568l463.7184 265.8816a25.6 25.6 0 0 0 25.4464 0l463.4624-265.728a25.6 25.6 0 0 0 2.2016-43.008l-23.7568-17.0496a25.6 25.6 0 0 0-27.2896-1.5872L523.264 913.92a25.6 25.6 0 0 1-24.8832-0.1024z"></path>
  </g>
</svg>