<svg viewBox="0 0 1024 1024" version="1.1" xmlns="http://www.w3.org/2000/svg">
  <g class="fore">
    <path d="M879.535868 675.418179H601.335226v-143.323237a275.641298 275.641298 0 0 0 163.030183-349.606326A266.427661 266.427661 0 0 0 427.555801 13.571943L422.181179 15.363483a275.641298 275.641298 0 0 0-163.030183 349.606326A271.03448 271.03448 0 0 0 422.181179 532.094942v143.323237H143.980538A106.980559 106.980559 0 0 0 38.27965 783.67841v56.305558h946.957105v-55.537754a107.236494 107.236494 0 0 0-105.189019-108.7721zM140.653391 951.315412A78.059978 78.059978 0 0 0 223.576121 1023.744833h576.364163A76.780306 76.780306 0 0 0 882.863014 951.315412V913.693062H140.653391v37.62235z"></path>
  </g>
</svg>