<svg viewBox="0 0 1024 1024" version="1.1" xmlns="http://www.w3.org/2000/svg">
  <g class="fore">
    <path d="m869.17224,512.000021c98.528932,-32.638945 158.480738,-65.019875 154.115938,-88.886298c-4.3648,-23.866422 -71.76244,-34.187038 -175.618995,-31.606884c81.19811,-63.858806 126.258247,-114.558828 113.869919,-135.522577c-12.131575,-20.963749 -79.208275,-7.804965 -176.004124,29.542761c54.303242,-87.338205 78.951522,-150.100446 60.208559,-165.710377c-18.742963,-15.60993 -77.21844,19.28665 -155.078762,87.209198c20.540233,-100.432486 21.952374,-167.839003 -1.155388,-176.095496c-22.915198,-8.256492 -65.728747,44.249637 -115.346248,134.167997c-15.469363,-101.271036 -37.614302,-165.194346 -62.070018,-165.194346c-24.584092,0 -46.664843,63.858806 -62.070018,165.194346c-49.553313,-89.982863 -92.366862,-142.488993 -115.538812,-134.297004c-23.107762,8.320996 -21.631433,75.727513 -1.027012,176.095496c-77.796134,-67.793541 -136.335799,-102.69012 -155.14295,-87.209198c-18.807151,15.480923 5.905317,78.436675 60.144371,165.77488c-96.731661,-37.41223 -163.872549,-50.50651 -176.068313,-29.542761c-12.259952,20.963749 32.735997,71.663771 114.062483,135.587081c-103.920743,-2.580154 -171.510948,7.675957 -175.747371,31.606884c-4.300611,23.737415 55.651195,56.247352 154.05175,88.886298c-98.400555,32.638945 -158.352361,65.148883 -154.05175,88.950802c4.300611,23.801919 71.826628,34.187038 175.747371,31.54238c-81.390675,63.794302 -126.515,114.42982 -114.062483,135.522577c12.195764,21.028253 79.336651,7.933973 175.939936,-29.542761c-54.239054,87.402709 -78.887334,150.229454 -60.144371,165.839384c18.935528,15.60993 77.346816,-19.415657 155.14295,-87.144694c-20.604422,100.367982 -22.016563,167.7745 1.0912,176.030992c23.043574,8.320996 65.9855,-44.249637 115.603001,-134.297004c15.405175,101.271036 37.485926,165.194346 62.070018,165.194346c24.455715,0 46.600654,-63.858806 62.070018,-165.194346c49.553313,89.982863 92.43105,142.488993 115.474624,134.2325c23.107762,-8.256492 21.695621,-75.66301 1.027012,-176.030992c77.860322,67.793541 136.335799,102.754624 155.078762,87.144694c18.935528,-15.60993 -5.776941,-78.436675 -60.080182,-165.710377c96.667473,37.476734 163.744173,50.442006 176.004124,29.542761c12.259952,-21.028253 -32.864373,-71.663771 -113.934107,-135.522577c103.792367,2.580154 171.254195,-7.740461 175.554807,-31.671388c4.3648,-23.737415 -55.587006,-56.247352 -154.115938,-88.886298z"></path>
  </g>
</svg>