<svg viewBox="0 0 1024 1024" version="1.1" xmlns="http://www.w3.org/2000/svg">
  <g class="fore">
    <path d="M289.591669 34.028481c-22.59935-35.598976-74.39786-45.598688-107.996893-18.799459C70.597969 103.826473 0 236.02267 0 384.018412h511.98527L289.591669 34.028481zM991.971461 192.023936h-95.997238c-70.597969 0-127.996318 57.398349-127.996317 127.996317v127.996318H0c0 101.197089 45.998677 192.794453 120.59653 261.39248C51.398521 727.208539 0 789.406749 0 864.004603c0 88.397457 71.59794 159.995397 159.995397 159.995397s159.995397-71.59794 159.995397-159.995397c0-17.799488-3.599896-34.39901-8.799747-50.39855 43.198757 11.799661 89.197434 18.399471 136.796065 18.399471s93.797301-6.59981 136.796064-18.399471c-5.399845 15.99954-8.799747 32.599062-8.799747 50.39855 0 88.397457 71.59794 159.995397 159.995397 159.995397s159.995397-71.59794 159.995397-159.995397c0-74.597854-51.398521-136.796064-120.59653-154.595552C849.975547 640.811024 895.974223 549.213659 895.974223 448.016571v-127.996318h95.997238c17.599494 0 31.999079-14.399586 31.99908-31.999079v-63.998159c0-17.599494-14.399586-31.999079-31.99908-31.999079zM159.995397 928.002762c-35.198987 0-63.998159-28.799171-63.998159-63.998159s28.799171-63.998159 63.998159-63.998159 63.998159 28.799171 63.998159 63.998159-28.799171 63.998159-63.998159 63.998159z m639.981588-63.998159c0 35.198987-28.799171 63.998159-63.998159 63.998159s-63.998159-28.799171-63.998159-63.998159 28.799171-63.998159 63.998159-63.998159 63.998159 28.799171 63.998159 63.998159z"></path>
  </g>
</svg>