<svg viewBox="0 0 1024 1024" version="1.1" xmlns="http://www.w3.org/2000/svg">
  <g class="fore">
    <path d="M376.24 421.48L285.72 512l90.5 90.5L466.74 512l-90.5-90.52z m226.26-45.24L512 285.72l-90.5 90.5L512 466.74l90.5-90.5z m-181 271.52L512 738.28l90.52-90.52L512 557.26l-90.5 90.5zM512 0C229.24 0 0 229.24 0 512s229.24 512 512 512 512-229.24 512-512S794.76 0 512 0z m373.36 591.2l-22.62 22.62c-6.24 6.24-16.38 6.24-22.62 0l-56.58-56.58-90.5 90.5 67.88 67.88 33.94-33.94c6.24-6.24 16.38-6.24 22.62 0l22.62 22.62c6.24 6.24 6.24 16.38 0 22.62l-33.94 33.94 33.94 33.94c6.24 6.24 6.24 16.38 0 22.62l-22.62 22.62c-6.24 6.24-16.38 6.24-22.62 0l-33.94-33.94-33.94 33.94c-6.24 6.24-16.38 6.24-22.62 0l-22.62-22.62c-6.24-6.24-6.24-16.38 0-22.62l33.94-33.94-67.88-67.88-90.52 90.52 56.58 56.58c6.24 6.24 6.24 16.38 0 22.62l-22.62 22.62c-6.24 6.24-16.38 6.24-22.62 0L512 828.78l-56.58 56.58c-6.24 6.24-16.38 6.24-22.62 0l-22.62-22.62c-6.24-6.24-6.24-16.38 0-22.62l56.58-56.58-90.5-90.52-67.88 67.88 33.94 33.94c6.24 6.24 6.24 16.38 0 22.62l-22.62 22.62c-6.24 6.24-16.38 6.24-22.62 0l-33.94-33.94-33.94 33.94c-6.24 6.24-16.38 6.24-22.62 0l-22.62-22.62c-6.24-6.24-6.24-16.38 0-22.62l33.94-33.94-33.94-33.94c-6.24-6.24-6.24-16.38 0-22.62l22.62-22.62c6.24-6.24 16.38-6.24 22.62 0l33.94 33.94 67.88-67.88-90.5-90.5-56.58 56.58c-6.24 6.24-16.38 6.24-22.62 0L138.64 591.2c-6.24-6.24-6.24-16.38 0-22.62L195.22 512l-56.58-56.58c-6.24-6.24-6.24-16.38 0-22.62l22.62-22.62c6.24-6.24 16.38-6.24 22.62 0l56.58 56.58 90.5-90.52-67.88-67.88-33.94 33.94c-6.24 6.24-16.38 6.24-22.62 0l-22.62-22.62c-6.24-6.24-6.24-16.38 0-22.62l33.94-33.94-33.94-33.94c-6.24-6.24-6.24-16.38 0-22.62l22.62-22.62c6.24-6.24 16.38-6.24 22.62 0l33.94 33.94 33.94-33.94c6.24-6.24 16.38-6.24 22.62 0l22.62 22.62c6.24 6.24 6.24 16.38 0 22.62l-33.94 33.94 67.88 67.88 90.52-90.5-56.58-56.58c-6.24-6.24-6.24-16.38 0-22.62l22.62-22.62c6.24-6.24 16.38-6.24 22.62 0L512 195.22l56.58-56.58c6.24-6.24 16.38-6.24 22.62 0l22.62 22.62c6.24 6.24 6.24 16.38 0 22.62l-56.58 56.58 90.52 90.5 67.88-67.88-33.94-33.94c-6.24-6.24-6.24-16.38 0-22.62l22.62-22.62c6.24-6.24 16.38-6.24 22.62 0l33.94 33.94 33.94-33.94c6.24-6.24 16.38-6.24 22.62 0l22.62 22.62c6.24 6.24 6.24 16.38 0 22.62l-33.94 33.94 33.94 33.94c6.24 6.24 6.24 16.38 0 22.62l-22.62 22.62c-6.24 6.24-16.38 6.24-22.62 0l-33.94-33.94-67.88 67.88 90.5 90.52 56.58-56.58c6.24-6.24 16.38-6.24 22.62 0l22.62 22.62c6.24 6.24 6.24 16.38 0 22.62L828.78 512l56.58 56.56a16.03 16.03 0 0 1 0 22.64zM557.26 512l90.52 90.5L738.28 512l-90.5-90.52L557.26 512z"></path>
  </g>
</svg>