<svg viewBox="0 0 1024 1024" version="1.1" xmlns="http://www.w3.org/2000/svg">
  <g class="fore">
    <path d="M773.322727 241.070474c0 0-30.850635-34.042327-81.528851-34.042327-18.59859 0-6.4192 0-41.910529 0-89.342818 0-83.142605 92.295056-83.142605 92.295056l42.845831 0c0 0-0.641613-49.559742 32.887015-49.559742 24.540929 0 26.723641 0 48.641837 0 21.918195 0 34.060747 13.371542 34.060747 13.371542l173.163875 175.511339L514.851954 438.646342l-9.207709 0L122.156154 438.646342l173.163875-175.511339c0 0 12.142551-13.371542 34.060747-13.371542 21.918195 0 24.100908 0 48.641837 0 33.528628 0 32.887015 49.559742 32.887015 49.559742l42.845831 0c0 0 6.199189-92.295056-83.142605-92.295056-35.509748 0-23.311939 0-41.910529 0-50.696636 0-81.528851 34.042327-81.528851 34.042327L15.371082 473.019197l0 217.166041c0 0 1.833765 114.01166 112.196315 114.01166 92.313475 0 88.700181-3.613294 157.444868-3.613294 90.49813 0 188.222849-70.560032 188.222849-182.77579l32.42755 0 9.207709 0 32.42755 0c0 112.213711 97.724719 182.77579 188.222849 182.77579 68.744687 0 65.131393 3.613294 157.444868 3.613294 110.379946 0 112.196315-114.01166 112.196315-114.01166l0-217.166041L773.322727 241.070474zM212.800617 702.253088l-98.586342 0 176.99718-178.684612 98.623181 0L212.800617 702.253088zM765.80245 702.253088 661.45694 702.253088l176.99718-178.684612 104.34551 0L765.80245 702.253088z"></path>
  </g>
</svg>