<svg viewBox="0 0 1024 1024" version="1.1" xmlns="http://www.w3.org/2000/svg">
  <g class="fore">
    <path d="M949.209745 732.250442a97.249853 97.249853 0 0 0-111.939699 51.184133l-98.734192-52.668472v-70.787656h94.076436a206.783897 206.783897 0 0 0 23.391149-408.858854 166.962642 166.962642 0 0 0-166.860273-161.127651h-6.398017a206.272056 206.272056 0 0 0-340.528036 0h-6.346833a166.962642 166.962642 0 0 0-167.013826 160.820546 206.783897 206.783897 0 0 0 23.391149 408.756486h94.332357v70.736471L187.7434 783.434575a97.249853 97.249853 0 0 0-111.939699-51.184133 98.068799 98.068799 0 0 0 24.261279 193.527207 97.915246 97.915246 0 0 0 96.174986-79.744879l133.641771-71.145945a29.430876 29.430876 0 0 0 15.764713-26.001539v-88.906839H483.178215v121.920604a123.200208 123.200208 0 0 0-87.013026 156.879368 119.25903 119.25903 0 0 0 77.441593 78.004618 123.149024 123.149024 0 1 0 68.535554-236.112405v-120.692185h137.480581v88.650918a29.430876 29.430876 0 0 0 15.764713 26.001539l133.641771 71.197129a98.324719 98.324719 0 1 0 120.180344-113.577591zM475.961252 324.108166a24.670752 24.670752 0 0 1-34.498106 0l-33.218502-31.119952v233.143725a24.670752 24.670752 0 0 1-48.932031 0V293.448871l-31.785346 31.119953a24.414831 24.414831 0 0 1-34.498106-34.54929l74.370545-75.854885a24.261279 24.261279 0 0 1 34.498106 0l74.472913 74.984755a23.90299 23.90299 0 0 1-0.409473 34.958762z m255.357639 143.315573l-74.524097 74.93357a24.670752 24.670752 0 0 1-34.498106 0l-74.67765-75.035939a24.721936 24.721936 0 0 1 0-34.549289 23.800622 23.800622 0 0 1 34.498106 0l33.218502 33.269686V232.488569a24.670752 24.670752 0 1 1 48.932031 0v231.454649l33.218502-33.269687a23.800622 23.800622 0 0 1 34.498106 0 24.721936 24.721936 0 0 1 0 34.54929z"></path>
  </g>
</svg>