<svg viewBox="0 0 1024 1024" version="1.1" xmlns="http://www.w3.org/2000/svg">
  <g class="fore">
    <path d="M69.8368 263.0656v615.424h884.3264V263.0656H69.8368zM46.5408 76.8h930.9184c25.7024 0 46.5408 20.48 46.5408 45.824v778.752a46.1824 46.1824 0 0 1-46.592 45.824H46.592c-25.7536 0-46.592-20.48-46.592-45.824V122.624C0 97.28 20.8384 76.8 46.592 76.8z m267.6224 90.0608c0-18.944 15.6672-34.3552 34.9184-34.3552 19.3024 0 34.9184 15.36 34.9184 34.3552v711.6288c0 18.944-15.616 34.304-34.9184 34.304a34.6112 34.6112 0 0 1-34.9184-34.304V166.8608z m356.352-32.768c19.3024 0 34.9184 15.36 34.9184 34.304v255.744h251.392c19.3024 0 34.9696 15.4112 34.9696 34.4064 0 18.944-15.6672 34.3552-34.9184 34.3552l-251.4432-0.0512v156.7744h256.1024c19.3024 0 34.9184 15.36 34.9184 34.3552 0 18.944-15.616 34.3552-34.9184 34.3552h-256.1024v161.6896c0 18.9952-15.616 34.3552-34.9184 34.3552a34.6112 34.6112 0 0 1-34.8672-34.304l-0.0512-161.7408H51.2512a34.6112 34.6112 0 0 1-34.9184-34.304c0-18.9952 15.616-34.4064 34.9184-34.4064h584.3456V492.8512L46.5408 492.9024a34.6112 34.6112 0 0 1-34.9184-34.3552c0-18.944 15.6672-34.3552 34.9184-34.3552l589.056-0.0512V168.3968c0-18.944 15.6672-34.304 34.9184-34.304z"></path>
  </g>
</svg>