<svg viewBox="0 0 1024 1024" version="1.1" xmlns="http://www.w3.org/2000/svg">
  <g class="fore">
    <path d="M902.8096 1024H122.0096C83.2512 1024 51.2 993.024 51.2 955.5456V204.4416c0-37.4272 32.0512-68.4032 70.8096-68.4032h35.4304v102.656c0 37.4784 32.0512 68.4032 70.8096 68.4032h567.4496c38.8096 0 70.8608-30.9248 70.8608-68.4032V136.0384h35.3792c38.8096 0 70.8608 30.976 70.8608 68.4544v751.104c0.8192 37.4272-31.232 68.4032-69.9904 68.4032z m-158.5152-464.384a56.4224 56.4224 0 0 0-75.8784 0l-189.7472 174.3872-88.5248-81.4592a56.4224 56.4224 0 0 0-75.8784 0c-21.0944 19.5072-21.0944 50.4832 0 69.2224l126.464 115.712c21.0944 19.5072 54.784 19.5072 75.8784 0l227.6864-208.5888c21.0944-18.7392 21.0944-49.664 0-69.2224z m-54.784-320.9216H335.36c-38.8096 0-70.8608-30.976-70.8608-68.4544v-34.2016C406.1696 35.84 407.8592 34.2016 444.9792 0h140.8c34.56 31.744 33.7408 35.84 174.5408 136.0384v34.2016c0 38.2976-31.232 68.4544-70.8608 68.4544z m-177.1008-170.24c-38.7584 0-70.8096 30.9248-70.8096 68.4032 0 37.4784 32.0512 68.4544 70.8096 68.4544 38.8096 0 70.8096-30.976 70.8096-68.4544 0-38.2976-32-68.4032-70.8096-68.4032z"></path>
  </g>
</svg>