<svg viewBox="0 0 1024 1024" version="1.1" xmlns="http://www.w3.org/2000/svg">
  <g class="fore">
    <path d="M990.277 492.242c0-27.913-34.886-50.553-77.921-50.553-13.985 0-27.076 2.414-38.416 6.595l-58.991-168.39c-13.564-22.359-15.271-46.331-36.789-46.331h-92.801l-13.252-68.048c-5.471-19.263-31.521-27.186-53.036-27.186h-212.116c-21.515 0-47.738 7.923-53.027 27.186l-13.261 68.048h-92.803c-21.515 0-27.467 26.743-36.8 46.331l-58.967 168.39c-11.35-4.182-24.462-6.595-38.437-6.595-43.034 0-77.913 22.641-77.913 50.553 0 27.91 34.879 50.551 77.913 50.551 0.352 0 0.692-0.038 1.044-0.038 0.201 1.246 0.282 2.414 0.583 3.699-3.619 63.221 31.31 268.976 37.341 299.701 7.842 34.546 20.692 40.458 42.208 40.458h79.54c21.515 0 34.105-18.138 34.105-40.458v-43.877c10.124 1.044 20.681 2.012 32.182 2.694 125.52 7.562 237.061 8.485 344.694 0 11.323-0.885 21.929-1.97 32.194-3.137v44.32c0 22.32 12.578 40.458 34.094 40.458h79.55c21.516 0 36.787-16.972 42.198-40.458 12.619-36.679 63.648-252.924 50.363-303.965 37.613-3.578 66.518-24.532 66.518-49.95zM247.863 709.737c-43.938 0-79.539-36.557-79.539-81.641s35.601-81.642 79.539-81.642c43.927 0 79.551 36.558 79.551 81.642s-35.623 81.641-79.551 81.641zM645.583 478.447c-55.236 7.522-196.782 4.745-238.628 0-41.857-4.705-137.453-16.53-137.453-16.53-21.517 0-38.961-18.137-38.961-40.458l19.497-80.879c8.101-28.433 16.085-39.010 37.604-39.010h450.745c21.527 0 29.491 10.577 37.615 39.010l19.476 80.879c0 22.321-17.444 40.458-38.961 40.458-0.002 0.001-55.684 8.971-110.934 16.53zM791.423 709.737c-43.936 0-79.55-36.557-79.55-81.641s35.613-81.642 79.55-81.642c43.918 0 79.539 36.558 79.539 81.642s-35.622 81.641-79.539 81.641z"></path>
  </g>
</svg>