<svg viewBox="0 0 1024 1024" version="1.1" xmlns="http://www.w3.org/2000/svg">
  <g class="fore">
    <path d="m136.246342,713.880275c12.468658,-1.885698 25.360175,-2.354265 37.337401,-5.919949c34.708811,-10.285626 43.806017,-36.948253 17.737265,-61.428041c-35.508817,-33.371141 -74.994804,-62.456604 -112.78935,-93.382051c-20.457284,-16.76557 -40.845996,-33.702566 -61.417567,-50.228138c-17.86298,-14.285591 -22.000152,-34.445417 -11.097219,-51.428128c33.714519,-52.628117 67.223321,-105.987657 106.960739,-153.907243c26.411611,-31.839725 53.828943,-22.011239 69.006191,17.782704c4.1486,10.868478 6.285758,22.502663 9.645781,33.702566c9.954354,33.268284 30.925928,45.176753 62.857577,31.542585c54.857522,-23.451226 100.869268,-59.428059 132.572344,-110.776187c22.857301,-37.016823 13.005804,-61.988036 -27.86305,-76.707909c-18.914416,-6.868512 -39.223128,-10.148484 -57.280396,-18.571268c-27.760192,-12.971317 -35.428816,-37.473962 -12.262942,-55.770947c52.126074,-41.256787 107.612172,-78.685035 164.298277,-113.450449c21.828722,-13.382742 45.223169,0 60.937564,20.925534c29.485918,39.131091 58.651834,78.525037 88.560611,117.324702c11.028648,14.297019 21.965866,29.828314 36.297393,40.056797c13.005804,9.291348 32.400224,19.53126 45.714601,16.194146c23.600163,-5.897092 32.114507,-28.319756 30.274495,-53.50811c-0.834291,-11.428473 -1.474296,-23.679796 1.622868,-34.445417c9.234349,-32.159722 41.337428,-48.102442 70.3662,-32.319721c55.566098,30.194025 99.863547,72.982227 122.652275,133.484562c19.748708,52.422405 1.702869,75.553634 -53.874658,79.370744c-16.00011,1.142847 -42.023147,9.245634 -44.571736,19.039836c-3.714311,14.537017 4.434316,39.428231 16.285827,49.393859c47.93176,40.26251 98.937826,76.833623 149.178173,114.136158c55.166095,41.016789 60.057558,61.416613 21.417291,119.35897c-26.525897,39.782514 -53.783229,79.713598 -85.714878,115.061864c-35.188814,39.005378 -69.543337,30.182597 -78.674829,-21.291245c-15.702966,-88.52495 -70.126198,-89.404943 -124.572289,-34.708272c-30.091636,30.239739 -55.337525,67.279419 -75.269091,105.233378c-18.937274,36.06826 -2.70859,60.788047 36.343108,71.793666c24.903029,7.017082 61.714712,8.171358 61.588997,39.153948c-0.114287,21.085532 -22.983016,46.239601 -41.897432,62.090893c-33.257372,27.874045 -70.411915,51.428128 -107.486456,74.285073c-48.000331,29.554031 -70.857632,23.416941 -104.937867,-22.685519c-35.931677,-48.822436 -72.137641,-97.484873 -108.960752,-145.598743a90.286338,90.284935 0 0 0 -26.183038,-22.925516c-25.611605,-14.651302 -46.457464,-2.662834 -48.823194,26.811197c-4.685747,58.365211 -43.943161,82.890713 -97.612103,58.102356c-55.486097,-25.622636 -92.834927,-70.936531 -116.732235,-126.056055c-16.822973,-38.788237 8.091484,-64.490872 56.366103,-59.736627z"/>
  </g>
</svg>