<svg viewBox="0 0 1024 1024" version="1.1" xmlns="http://www.w3.org/2000/svg">
  <g class="fore">
    <path d="m816.406123,517.392969c-16.163157,-21.571933 -35.020182,-29.661406 -64.652629,-37.750879c-8.081579,-2.696487 -35.020182,-2.696487 -40.407893,-2.696487c0,0 -8.081579,2.696487 -13.469302,5.392974c-8.081579,2.696499 -13.469302,5.392986 -21.55088,8.089473c-10.775434,5.392986 -32.326314,21.571933 -35.02017,24.268419c-2.693855,2.696499 -5.387723,8.089473 -10.775434,10.785973c-10.775447,8.089473 -75.428075,72.805258 -94.285088,88.984205l-48.489471,48.536839c-21.55088,21.57192 -37.714038,37.750866 -37.714038,40.447366c0,2.696487 245.141225,2.696487 274.773672,0c10.775447,0 21.55088,-2.696499 32.326314,-2.696499c21.55088,-5.392974 43.101761,-18.875433 59.264918,-40.447366c8.081579,-10.78596 13.469289,-21.57192 18.857012,-37.750866c2.693855,-10.785973 5.387723,-16.178946 2.693855,-35.054392c2.693868,-29.661393 -5.387711,-48.536839 -21.550868,-70.108759zm99.672798,-517.726282l-808.157857,0c-59.264905,0 -107.754377,48.536839 -107.754377,107.859638l0,808.947316c0,59.322799 48.489471,107.859638 107.754377,107.859638l808.157857,0c59.264905,0 107.754377,-48.536839 107.754377,-107.859638l0,-808.947316c0,-59.322799 -48.489471,-107.859638 -107.754377,-107.859638zm-67.346484,733.445558c-13.469302,10.785973 -29.632459,21.571933 -37.714038,24.268419c-2.693855,0 -5.387723,2.696499 -8.081579,2.696499c-2.693855,2.696487 -29.632459,8.089473 -45.795616,13.482447c-13.469289,2.696499 -35.02017,2.696499 -245.141213,2.696499c-250.528936,0 -239.753502,0 -272.079816,-8.089473c-26.938591,-8.089473 -53.877182,-24.268419 -75.428062,-45.840352c-37.714038,-35.054379 -53.877195,-80.894732 -53.877195,-132.128057c0,-18.875446 2.693868,-37.750879 8.081579,-56.626312c8.081579,-21.571933 10.775447,-29.661406 35.020182,-62.019298c5.387711,-5.392986 29.632446,-26.964906 37.714025,-35.054379c13.469302,-8.089473 56.57105,-26.964919 64.652629,-26.964919c5.387723,0 8.081579,-5.392974 10.775447,-13.482447c8.081579,-26.964919 10.775434,-32.357893 16.163157,-51.233338c13.469289,-32.357893 37.714025,-64.715785 67.346484,-88.984205c5.387723,-5.392974 10.775434,-8.089473 16.163157,-13.482447c2.693855,-2.696499 5.387723,-2.696499 8.081579,-5.392986c21.55088,-16.178946 67.346484,-35.054379 99.672798,-37.750879c35.020182,-5.392974 75.428075,-2.696487 102.366666,8.089473c21.55088,5.392986 26.938591,8.089473 29.632459,10.785973c5.387711,2.696487 13.469289,5.392974 18.857012,8.089473c24.244736,10.78596 53.877195,35.054379 70.040352,53.929813c13.469289,16.178946 29.632446,35.054392 32.326314,43.143865c0,2.696487 2.693855,5.392974 5.387711,8.089473c2.693868,2.696487 5.387723,8.089473 5.387723,13.482447c0,2.696499 2.693855,8.089473 5.387723,13.482459c5.387711,10.78596 5.387711,10.78596 -24.244736,13.482459c-13.469302,0 -29.632459,2.696487 -35.020182,2.696487c-2.693855,0 -8.081579,2.696487 -10.775434,2.696487c0,0 -5.387723,-5.392974 -8.081579,-13.482447c-8.081579,-16.178946 -24.244736,-32.357893 -37.714038,-45.840352c-21.550868,-18.875433 -43.101748,-29.661406 -75.428062,-37.750879c-16.163157,-10.78596 -21.55088,-10.78596 -40.407893,-10.78596c-16.163157,0 -26.938591,0 -35.02017,2.696487c-5.387723,2.696499 -13.469302,2.696499 -16.163157,5.392986c-21.55088,5.392986 -48.489471,21.571933 -67.346497,37.750879c-18.857012,18.875433 -32.326314,35.054379 -40.407893,53.929813c-5.387711,8.089473 -16.163157,37.750879 -13.469289,40.447366c0,0 8.081579,5.392986 16.163157,8.089473c18.857012,5.392986 35.02017,16.178946 51.183327,26.964919c16.163157,10.78596 43.101748,35.054379 45.795616,37.750866c5.387711,5.392986 13.469289,10.785973 18.857012,16.178946c8.081579,8.089473 16.163157,13.482459 16.163157,16.178946c0,0 -8.081579,10.785973 -18.857012,21.571933c-24.244736,21.571933 -29.632459,26.964906 -32.326314,26.964906c0,0 -5.387723,-5.392974 -13.469302,-8.089473c-5.387723,-5.392974 -13.469302,-13.482447 -18.857012,-16.178946c-5.387723,-2.696487 -13.469302,-10.78596 -18.857025,-16.178946c-29.632446,-26.964906 -61.958761,-43.143853 -91.59122,-43.143853c-24.244736,0 -56.57105,10.78596 -72.734207,26.964906c-16.163157,13.482459 -32.326314,37.750879 -37.714038,59.322812c-2.693855,13.482447 -2.693855,43.143853 0,56.626312c10.775447,43.143853 45.795616,72.805258 88.897364,80.894732c13.469302,2.696487 26.938604,2.696487 40.407893,2.696487l26.938604,0l13.469289,-13.482459l29.632459,-29.661393c51.183327,-48.536839 102.366666,-97.073678 150.856138,-145.610517c24.244736,-24.268419 64.652629,-62.019298 86.203496,-78.198245c10.775447,-8.089473 29.632459,-18.875433 40.407893,-21.571933c5.387723,-2.696487 10.775447,-5.392974 16.163157,-5.392974c13.469302,-5.392986 32.326314,-8.089473 61.958773,-5.392986c10.775434,0 18.857012,0 29.632459,2.696487c8.081579,2.696499 37.714025,13.482459 40.407893,13.482459c2.693855,2.696487 5.387711,2.696487 8.081579,2.696487c8.081579,2.696499 18.857012,10.785973 35.02017,24.268419c16.163157,13.482459 24.244736,21.571933 29.632459,32.357893c2.693855,2.696499 5.387711,8.089473 8.081579,10.785973c2.693855,2.696487 16.163157,29.661393 16.163157,32.357893c0,2.696487 0,5.392974 2.693855,8.089473c5.387723,8.089473 10.775434,45.840339 10.775434,59.322799c-2.693855,51.233326 -29.632446,105.163151 -70.040339,140.217531z"></path>
  </g>
</svg>