<svg viewBox="0 0 1024 1024" version="1.1" xmlns="http://www.w3.org/2000/svg">
  <g class="fore">
    <path d="m816.659655,291.360591q47.404344,83.028061 81.512348,169.900015t57.232074,160.674675q26.592681,84.565618 46.248141,167.59368l-978.148173,0q19.65546,-69.190051 47.404344,-144.530329q23.12407,-64.577381 57.810176,-147.605443t80.934246,-170.668793q83.246653,-158.36834 163.024695,-227.558391t139.900625,-69.190051q34.686105,0 70.528414,13.069232t73.418923,43.820366t77.465635,80.721726t82.668551,123.773314zm-304.081524,0q-35.842309,0 -62.43499,38.438917t-49.716751,92.253402q-9.249628,19.988237 -19.65546,52.276928t-16.764951,63.039824t-6.359119,53.045706t12.718239,22.294572l71.684618,0l68.216007,0l71.684618,0l79.778042,0q11.562035,0 10.405832,-20.757015t-9.249628,-50.739371t-19.077358,-60.733489t-19.077358,-50.739371q-25.436477,-63.039824 -49.716751,-100.709963t-62.43499,-37.670139zm511.041953,654.999152q0,19.988237 -9.82773,33.826247t-23.702172,13.83801l-955.024102,0q-13.874442,0 -24.280274,-13.83801t-10.405832,-33.826247t9.249628,-33.826247t23.12407,-13.83801l959.648916,0q13.874442,0 22.545969,13.83801t8.671526,33.826247z"></path>
  </g>
</svg>