<svg viewBox="0 0 1024 1024" version="1.1" xmlns="http://www.w3.org/2000/svg">
  <g class="fore">
    <path d="M766.988377 166.917713l-19.280334 8.09298a168.226871 168.226871 0 0 0-62.125523 44.808926c13.805672 6.426778 27.075779 14.638773 39.691306 24.457461 28.146908 22.910274 47.129707 47.665272 62.006509 80.51325l22.374709 49.093445-53.556485-6.6053c-38.382148-4.641562-64.089261 3.927476-89.02278 12.198977a292.239888 292.239888 0 0 1-31.479312 9.283124 196.79033 196.79033 0 0 1-9.045096 95.509066 210.655509 210.655509 0 0 1-55.936773 84.797769l-17.67364 16.60251-20.053929-13.567643a211.250581 211.250581 0 0 1-68.492794-74.3245 200.777313 200.777313 0 0 1-22.493724-67.243143c-12.258484 2.142259-24.397954 2.55881-36.299395 3.034868-26.183171 1.011623-53.318457 2.023245-87.5351 19.994421l-47.784287 25.171548 3.510926-53.854022c2.320781-35.942352 11.306369-65.755463 29.277545-96.699209a201.134356 201.134356 0 0 1 38.441655-46.65365c-3.391911-2.97536-6.724314-6.069735-9.997211-9.104602-19.280335-17.792655-39.215249-36.239888-76.169223-47.724779l-51.592748-16.066946 31.598327-27.789865C56.948396 234.577406 0 391.497908 0 567.639238c0 246.716876 229.221757 446.720595 512 446.720595 282.718735 0 512-200.003719 512-446.720595 0-181.854021-65.636448-354.60344-257.011623-400.721525z"></path>
    <path d="M376.859135 291.168759a166.798698 166.798698 0 0 0-47.724779 51.414226c-12.675035 21.779637-22.910274 47.010693-25.231055 83.429102 75.752673-39.810321 122.941887-9.16411 167.155741-39.512784a165.311018 165.311018 0 0 0 19.637378 95.62808c12.377499 21.958159 28.860995 43.559275 59.150163 64.08926 26.540214-25.052534 39.39377-49.033938 48.14133-72.717805a163.823338 163.823338 0 0 0-0.892608-113.420735c47.903301 6.902836 81.941423-33.502557 162.633193-23.564853a181.080428 181.080428 0 0 0-53.139935-69.147374 165.90609 165.90609 0 0 0-76.645281-33.8596c27.968387-23.445839 45.939563-61.947001 106.101348-87.059042a181.020921 181.020921 0 0 0-80.513249-33.621572 165.48954 165.48954 0 0 0-70.039982 4.165505c-22.017666 6.069735-42.845188 16.721525-62.244537 32.490934a204.823803 204.823803 0 0 0-21.601116 21.541609A1416.450023 1416.450023 0 0 0 440.531846 9.640167l-20.649001 9.580661c0.654579 1.48768 33.621571 73.253371 60.875872 162.097629a43.142724 43.142724 0 0 0-4.522548-3.62994 168.04835 168.04835 0 0 0-135.140864-23.86239c-24.338447 6.486285-49.390981 17.078568-76.883311 41.178987 72.896327 22.672245 90.153417 68.849837 130.320781 85.511855a183.16318 183.16318 0 0 0-17.67364 10.65179z m151.505347-43.975825c0.297536 0 0.595072 0.178522 0.833101 0.238028l-3.272897 1.606695 2.439796-1.844723z"></path>
  </g>
</svg>