<svg viewBox="0 0 1024 1024" version="1.1" xmlns="http://www.w3.org/2000/svg">
  <g class="fore">
    <path d="M527.568069 159.808706c-4.505617-4.50664-10.635221-7.068999-17.022699-7.068999-6.391571 0-12.472056 2.562359-17.027815 7.068999L318.282508 334.980307c-9.366322 9.435906-9.366322 24.641213 0 34.051537 9.454326 9.385764 24.683169 9.385764 34.050514 0l158.212348-158.211325 158.212348 158.211325c4.682649 4.65809 10.851139 6.999414 17.066701 6.999414 6.083555 0 12.301164-2.341325 16.983813-6.999414 9.366322-9.410324 9.366322-24.615631 0-34.051537L527.568069 159.808706 527.568069 159.808706 527.568069 159.808706zM527.568069 159.808706"></path>
    <path d="M62.385351 605.716428 165.277766 605.716428 165.277766 868.309078l48.055482 0L213.333248 605.716428l102.891392 0 0-48.100508L62.385351 557.61592 62.385351 605.716428 62.385351 605.716428zM62.385351 605.716428"></path>
    <path d="M581.488119 557.61592 454.043518 557.61592c-15.362896 0-30.768771 5.888104-42.455951 17.59575-11.816117 11.771091-17.679661 27.133987-17.679661 42.515303l0 190.489472c0 15.362896 5.863545 30.749328 17.679661 42.500976 11.68718 11.727089 27.094078 17.590634 42.455951 17.590634l127.444601 0c15.273868 0 30.723745-5.863545 42.494837-17.590634 11.733229-11.751648 17.59575-27.139104 17.59575-42.500976L641.578706 617.726973c0-15.381315-5.862521-30.744211-17.59575-42.515303C612.212888 563.504024 596.761987 557.61592 581.488119 557.61592L581.488119 557.61592 581.488119 557.61592zM593.480244 808.217469c0 2.27788-0.61296 5.560646-3.546779 8.494465-2.841721 2.8847-6.211469 3.497661-8.445346 3.497661L454.043518 820.209594c-2.27788 0-5.603625-0.61296-8.493441-3.497661-2.885723-2.933819-3.497661-6.216585-3.497661-8.494465L442.052416 617.726973c0-2.272763 0.611937-5.555529 3.497661-8.489348 2.889817-2.928702 6.216585-3.521197 8.493441-3.521197l127.444601 0c2.233877 0 5.603625 0.587378 8.445346 3.521197 2.933819 2.928702 3.546779 6.216585 3.546779 8.489348L593.480244 808.217469 593.480244 808.217469 593.480244 808.217469zM593.480244 808.217469"></path>
    <path d="M941.153642 575.212694c-11.816117-11.707646-27.177989-17.59575-42.539862-17.59575l-164.864862 0L733.748918 868.309078l48.056506 0L781.805424 732.042555l116.808356 0c15.362896 0 30.723745-5.863545 42.544979-17.6111 11.683087-11.732206 17.546631-27.114544 17.546631-42.47744L958.70539 617.73209C958.70539 602.345658 952.841845 586.982762 941.153642 575.212694L941.153642 575.212694 941.153642 575.212694zM910.604882 671.955038c0 2.230808-0.61296 5.556553-3.502777 8.490372-2.928702 2.89084-6.255471 3.502777-8.489348 3.502777L781.804401 683.948187l0-78.230736 116.808356 0c2.233877 0 5.560646 0.592494 8.494465 3.521197 2.8847 2.933819 3.497661 6.216585 3.497661 8.494465L910.604882 671.955038 910.604882 671.955038 910.604882 671.955038zM910.604882 671.955038"></path>
  </g>
</svg>