<svg viewBox="0 0 1024 1024" version="1.1" xmlns="http://www.w3.org/2000/svg">
  <g class="fore">
    <path d="m511.999436,0.499512c-283.051419,0 -512.455979,228.954205 -512.455979,511.449952c0,94.797994 26.322313,183.203374 71.263402,259.322526l-50.444266,219.564202l201.679119,-57.338009c82.473619,56.63896 182.362195,90.002397 289.958862,90.002397c283.051419,0 512.455979,-228.954205 512.455979,-511.449952c0,-282.595774 -229.404559,-511.549979 -512.455979,-511.549979l-0.001139,-0.001137zm53.649138,552.407459l-114.103217,0l42.238474,-115.876339l114.102078,0l-42.238474,115.876339l0.001139,0zm-25.322356,69.524212l-114.103217,0l-29.9258,82.111658c-6.505411,17.879765 -26.322313,27.169741 -44.540196,20.578212c-18.116521,-6.592666 -27.42477,-26.571855 -20.91936,-44.35273l21.319114,-58.337139l-45.541291,0c-19.417147,0 -35.131723,-15.383646 -35.131723,-34.762674c0,-19.178975 15.913884,-34.762674 35.131723,-34.762674l70.862509,0l42.238474,-115.876339l-66.058618,0c-19.417147,0 -35.131723,-15.383646 -35.131723,-34.762674c0,-19.178975 15.913884,-34.762674 35.131723,-34.762674l91.481198,0l23.020635,-63.131599c6.505411,-17.879765 26.322313,-27.169741 44.540196,-20.578212c18.116521,6.592666 27.42477,26.571855 20.918221,44.35273l-14.312587,39.358217l114.102078,0l23.020635,-63.131599c6.505411,-17.879765 26.322313,-27.169741 44.540196,-20.578212c18.116521,6.592666 27.42477,26.571855 20.91936,44.35273l-14.312587,39.358217l23.120858,0c19.417147,0 35.131723,15.383646 35.131723,34.762674c0,19.178975 -15.912745,34.762674 -35.131723,34.762674l-48.442076,0l-42.238474,115.876339l43.639324,0c19.417147,0 35.131723,15.383646 35.131723,34.762674c0,19.178975 -15.912745,34.762674 -35.131723,34.762674l-68.960542,0l-29.9258,82.111658c-6.505411,17.879765 -26.322313,27.169741 -44.540196,20.578212c-18.116521,-6.592666 -27.42477,-26.571855 -20.918221,-44.35273l21.019583,-58.336003l-0.003417,-0.00341z"></path>
  </g>
</svg>