<svg viewBox="0 0 1024 1024" version="1.1" xmlns="http://www.w3.org/2000/svg">
  <g class="fore">
    <path d="M939.300571 722.066286V633.197714c0-80.676571-60.416-146.285714-134.656-146.285714H537.746286v-185.051429h59.318857a23.771429 23.771429 0 0 0 24.210286-24.137142V103.643429c0-16.310857-12.434286-30.500571-28.013715-30.500572H426.934857c-13.385143 0-24.210286 12.434286-24.210286 26.477714v174.08c0 16.310857 12.434286 28.233143 28.013715 28.233143h55.515428v184.978286h-278.674285c-66.56 0-122.88 59.684571-122.88 130.413714v104.740572H23.698286c-13.385143 0-23.698286 12.434286-23.698286 26.550857v174.08c0 16.310857 11.995429 28.16 27.501714 28.16h166.4a24.137143 24.137143 0 0 0 24.649143-24.137143V752.64c0-16.310857-12.946286-30.573714-28.525714-30.573714H133.851429V617.325714c0-42.861714 33.792-78.994286 73.728-78.994285h278.674285v183.734857h-59.318857c-13.385143 0-24.210286 12.434286-24.210286 26.550857v174.08c0 16.310857 12.434286 28.16 28.013715 28.16h166.326857a23.698286 23.698286 0 0 0 24.210286-24.137143V752.64c0-16.310857-12.434286-30.573714-28.013715-30.573714h-55.515428V538.331429h266.898285c47.177143 0 85.577143 42.642286 85.577143 94.939428v88.868572h-60.123428c-13.385143 0-24.649143 12.434286-24.649143 26.550857v174.08c0 16.310857 12.946286 28.16 28.525714 28.16h166.253714a23.332571 23.332571 0 0 0 23.771429-24.137143V752.64c0-16.310857-11.995429-30.573714-27.501714-30.573714h-57.197715z"></path>
  </g>
</svg>