<svg viewBox="0 0 1024 1024" version="1.1" xmlns="http://www.w3.org/2000/svg">
  <g class="fore">
    <path d="m610.60144,70.62691l0,-52.71569a17.92753,17.34443 0 0 0 -17.51608,-17.68563l-175.45471,0a17.92753,17.34443 0 0 0 -17.57486,17.68563l0,55.61591c-228.82586,51.46462 -399.93094,257.60741 -399.93094,504.29637c0,176.40137 22.80617,268.69648 156.3516,361.90145l48.61007,-157.0666c-59.83682,-78.07836 -51.37267,-99.85842 -51.37267,-206.37027c0,-203.75439 163.64017,-369.06669 365.60412,-369.06669s365.60412,165.19857 365.60412,369.06669c0,112.48288 0,167.24579 -45.14212,206.42713l45.14212,156.95286c133.83932,-93.26185 138.95308,-185.32948 138.95308,-361.84459c0,-251.35205 -177.74709,-460.79313 -413.27373,-507.19659z"></path>
    <path d="m575.27539,808.30536l0,-100.54082c0,-37.41847 85.69949,-67.72857 127.66755,-67.72857l1.41069,-160.53548c0,-8.92812 -8.17025,-16.20709 -18.22143,-16.20709l-328.27959,0c-10.05117,0 -18.22143,7.27897 -18.22143,16.20709l0.70535,156.61166c39.73447,2.27468 122.67135,31.61804 122.67135,67.5011l0,100.65455c0,149.73076 -132.13474,120.38739 -298.18484,127.66637l0.94046,75.63308c0,8.92812 8.22903,16.20709 18.22143,16.20709l671.37143,0c10.05117,0 18.22143,-7.27897 18.22143,-16.20709l-0.94046,-73.529l-1.64581,-0.22747c-164.87453,-8.41631 -295.65735,23.54293 -295.65735,-125.50542l-0.05878,0z"></path>
  </g>
</svg>