<svg viewBox="0 0 1024 1024" version="1.1" xmlns="http://www.w3.org/2000/svg">
  <g class="fore">
    <path d="M960 192v512c0 103.63-123.248 192-260.044 192l125.96 99.442C837.81 1004.834 831.124 1024 816 1024H208c-15.156 0-21.784-19.188-9.914-28.558L324.044 896C187.64 896 64 807.908 64 704V192C64 85.962 192 0 320 0h384c130 0 256 85.962 256 192z m-96 272V240c0-26.51-21.49-48-48-48H208c-26.51 0-48 21.49-48 48v224c0 26.51 21.49 48 48 48h608c26.51 0 48-21.49 48-48z m-352 128c-61.856 0-112 50.144-112 112s50.144 112 112 112 112-50.144 112-112-50.144-112-112-112z"></path>
  </g>
</svg>