<svg viewBox="0 0 1024 1024" version="1.1" xmlns="http://www.w3.org/2000/svg">
  <g class="fore">
    <path d="M658.274208 402.274307h292.588196A73.019049 73.019049 0 0 1 1023.999606 475.411509v475.450895A73.019049 73.019049 0 0 1 950.862404 1023.999606H475.450894a73.019049 73.019049 0 0 1-73.176587-73.137202v-292.588196h146.274405a109.489189 109.489189 0 0 0 109.725496-109.725496zM0 73.137203A73.019049 73.019049 0 0 1 73.137203 0h475.450894a73.019049 73.019049 0 0 1 73.137202 73.137203v475.450894a73.019049 73.019049 0 0 1-73.137202 73.137202H73.137203A73.019049 73.019049 0 0 1 0 548.588097z m146.274405 315.706955H199.679923v-28.317527h77.036278v135.167948h56.556286V360.566015h78.769201v23.63076h58.13167v-179.199931H333.272487v-39.3846a84.046737 84.046737 0 0 1 4.765537-29.853527 12.051688 12.051688 0 0 0 1.535999-4.765537c0-1.024-3.662768-2.047999-10.988303-3.111383H275.101433v77.115047H146.274405v183.886699z m53.405518-139.815331h77.036278v69.119974H199.719308V249.068212z m212.204226 69.119974h-78.7692V249.068212h78.7692v69.119973z m232.959911 557.882862l22.015991-61.282438h114.648571l22.015992 61.282438h63.01536l-102.124268-290.697734H690.412042l-105.275036 290.697734h59.707054z m37.730447-110.001188l42.417214-124.14026h1.575384l39.3846 124.14026h-83.377198z m268.287897-473.44228h-73.137203a146.274405 146.274405 0 0 0-146.274405-146.274405V73.137203a219.411608 219.411608 0 0 1 219.411608 219.450992zM73.137203 731.450796h73.137202a146.274405 146.274405 0 0 0 146.274406 146.274405v73.137203a219.411608 219.411608 0 0 1-219.411608-219.411608z"></path>
  </g>
</svg>