<svg viewBox="0 0 1024 1024" version="1.1" xmlns="http://www.w3.org/2000/svg">
  <g class="fore">
    <path d="M959.34602 218.201181c-3.071904-50.23843-44.382613-90.109184-95.35702-90.109184l-95.997 0 0-32.062998c0-53.022343-43.006656-95.997-95.997-95.997l-319.99 0c-53.022343 0-95.997 42.974657-95.997 95.997l0 32.030999-95.997 0c-51.038405 0-92.317115 39.870754-95.389019 90.109184l-0.607981 0 0 69.853817c0 35.326896 28.671104 63.998 63.998 63.998l0 0 0 543.983001c0 70.685791 57.310209 127.996 127.996 127.996l511.984 0c70.685791 0 127.996-57.310209 127.996-127.996l0-543.983001c35.326896 0 63.998-28.671104 63.998-63.998l0-69.821818-0.63998 0zM320.006 96.060998c0-17.695447 14.303553-31.999 31.999-31.999l319.99 0c17.695447 0 31.999 14.303553 31.999 31.999l0 31.999-383.988 0 0-31.999zM831.99 896.035999c0 35.262898-28.735102 63.998-63.998 63.998l-511.984 0c-35.294897 0-63.998-28.735102-63.998-63.998l0-543.983001 639.980001 0 0 543.983001zM895.988 256.023999l0 31.999-767.976001 0 0-63.966001c0-17.695447 14.303553-31.999 31.999-31.999l703.978001 0c17.695447 0 31.999 14.303553 31.999 31.999l0 31.967001zM288.007 896.163995l63.998 0c17.695447 0 31.999-14.303553 31.999-31.999l0-415.987c0-17.695447-14.303553-31.999-31.999-31.999l-63.998 0c-17.695447 0-31.999 14.303553-31.999 31.999l0 415.987c0 17.695447 14.303553 31.999 31.999 31.999zM288.007 448.145995l63.998 0 0 415.987-63.998 0 0-415.987zM480.001 896.163995l63.998 0c17.695447 0 31.999-14.303553 31.999-31.999l0-415.987c0-17.695447-14.303553-31.999-31.999-31.999l-63.998 0c-17.695447 0-31.999 14.303553-31.999 31.999l0 415.987c0 17.695447 14.303553 31.999 31.999 31.999zM480.001 448.145995l63.998 0 0 415.987-63.998 0 0-415.987zM671.995 896.163995l63.998 0c17.695447 0 31.999-14.303553 31.999-31.999l0-415.987c0-17.695447-14.303553-31.999-31.999-31.999l-63.998 0c-17.695447 0-31.999 14.303553-31.999 31.999l0 415.987c0 17.695447 14.303553 31.999 31.999 31.999zM671.995 448.145995l63.998 0 0 415.987-63.998 0 0-415.987z"></path>
  </g>
</svg>