<svg viewBox="0 0 1024 1024" version="1.1" xmlns="http://www.w3.org/2000/svg">
  <g class="second">
    <path d="M192.00384 736h128v192H192.00384zM704.00384 736h128v192h-128z"></path>
  </g>
  <g class="fore">
    <path d="M379.84384 608H448.00384a32 32 0 0 0 22.624-54.624L365.25184 448h51.072c17.568 1.344 32.32-14.208 32.32-32a32 32 0 0 0-13.984-26.464L360.89984 318.72a31.936 31.936 0 0 0 18.56-47.2l-96-160c-11.584-19.264-43.328-19.264-54.88 0l-96 160a32 32 0 0 0 18.56 47.2L73.82784 392.96A32 32 0 0 0 96.00384 448h50.752l-105.376 105.376A32 32 0 0 0 64.00384 608h68.16L11.20384 711.68A32 32 0 0 0 32.00384 768h128v160a32 32 0 0 0 32 32h128a32 32 0 0 0 32-32v-160h128a32 32 0 0 0 20.8-56.32L379.84384 608zM256.00384 190.208L295.49184 256h-12.8A32 32 0 0 0 256.00384 270.304 32 32 0 0 0 229.34784 256h-12.8L256.00384 190.208zM251.49184 311.04A31.424 31.424 0 0 0 256.00384 305.696c1.28 1.92 2.784 3.744 4.512 5.376L336.48384 384H288.00384a32 32 0 0 0-32 31.744A32.032 32.032 0 0 0 224.00384 384H175.52384L251.52384 311.072zM288.00384 896H224.00384v-128h64v128z m32-192H118.49984l120.992-103.68a32 32 0 0 0-20.8-56.32h-77.44l105.376-105.376a32 32 0 0 0 9.376-22.4 32 32 0 0 0 9.376 22.4L370.75584 544h-77.44a32 32 0 0 0-20.8 56.32l120.96 103.68H320.00384z"></path>
    <path d="M891.84384 608H960.00384a32 32 0 0 0 22.624-54.624L877.25184 448h51.072c18.688 1.344 32.32-14.208 32.32-32a32 32 0 0 0-13.984-26.464L872.89984 318.72a31.936 31.936 0 0 0 18.56-47.2l-96-160c-11.584-19.264-43.328-19.264-54.88 0l-96 160a32 32 0 0 0 18.56 47.2l-77.28 74.208A32 32 0 0 0 608.00384 448h50.752l-105.376 105.376A32 32 0 0 0 576.00384 608h68.16l-120.96 103.68A32 32 0 0 0 544.00384 768h128v160a32 32 0 0 0 32 32h128a32 32 0 0 0 32-32v-160h128a32 32 0 0 0 20.8-56.32L891.84384 608zM768.00384 190.208L807.49184 256h-12.8a32 32 0 0 0-26.688 14.304A32 32 0 0 0 741.31584 256h-12.8L768.00384 190.208z m-4.512 120.864A31.424 31.424 0 0 0 768.00384 305.696c1.28 1.92 2.784 3.744 4.512 5.376L848.48384 384H800.00384a32 32 0 0 0-32 31.744A32.032 32.032 0 0 0 736.00384 384h-48.48l75.968-72.928zM800.00384 896h-64v-128h64v128z m32-192H630.49984l120.992-103.68a32 32 0 0 0-20.8-56.32h-77.44l105.376-105.376a32 32 0 0 0 9.376-22.4 32 32 0 0 0 9.376 22.4L882.75584 544h-77.44a32 32 0 0 0-20.8 56.32l120.96 103.68H832.00384z"></path>
  </g>
</svg>