<svg viewBox="0 0 1024 1024" version="1.1" xmlns="http://www.w3.org/2000/svg">
  <g class="fore">
    <path d="M537.6 14.7968l392.192 226.4064a51.2 51.2 0 0 1 25.6 44.3392v452.9152a51.2 51.2 0 0 1-25.6 44.3392L537.6 1009.152a51.2 51.2 0 0 1-51.2 0L94.208 782.848a51.2 51.2 0 0 1-25.6-44.3392V285.5424a51.2 51.2 0 0 1 25.6-44.3392L486.4 14.848a51.2 51.2 0 0 1 51.2 0zM633.0368 440.32h38.2976a25.6 25.6 0 0 0 21.9136-38.912l-159.3344-262.8608a25.6 25.6 0 0 0-43.8272 0L330.752 401.408a25.6 25.6 0 0 0 21.9136 38.8608h38.2976L243.712 602.3168a25.6 25.6 0 0 0 18.944 42.8032h498.688a25.6 25.6 0 0 0 18.944-42.8032L633.0368 440.32zM512 665.6a51.2 51.2 0 0 0-51.2 51.2v153.6a51.2 51.2 0 0 0 102.4 0v-153.6a51.2 51.2 0 0 0-51.2-51.2z"></path>
  </g>
</svg>