<svg viewBox="0 0 1024 1024" version="1.1" xmlns="http://www.w3.org/2000/svg">
  <g class="fore">
    <path d="M1024 576l-128-256-192 0 0-128c0-35.20512-28.79488-64-64-64l-576 0c-35.20512 0-64 28.79488-64 64l0 512 64 64 81.16224 0c-10.89536 18.8416-17.16224 40.67328-17.16224 64 0 70.69696 57.30304 128 128 128s128-57.30304 128-128c0-23.32672-6.26688-45.1584-17.16224-64l354.32448 0c-10.89536 18.8416-17.16224 40.67328-17.16224 64 0 70.69696 57.30304 128 128 128s128-57.30304 128-128c0-23.32672-6.26688-45.1584-17.16224-64l81.16224 0 0-192zM704 576l0-192 132.66944 0 96.01024 192-228.6592 0z"></path>
  </g>
</svg>