<svg viewBox="0 0 1024 1024" version="1.1" xmlns="http://www.w3.org/2000/svg">
  <g class="fore">
    <path d="M850.089173 938.965483v42.773386a42.261131 42.261131 0 1 1-84.522262 0v-42.773386H258.433345v42.773386a42.261131 42.261131 0 1 1-84.522261 0v-42.773386A85.034517 85.034517 0 0 1 89.388822 853.674837v-640.32016A85.034517 85.034517 0 0 1 173.911084 128.064032h169.044522V42.773387A42.517259 42.517259 0 0 1 385.216736 0h253.566784a42.517259 42.517259 0 0 1 42.26113 42.773387V128.064032h169.044523A85.034517 85.034517 0 0 1 934.611434 213.354677v640.32016a85.034517 85.034517 0 0 1-84.522261 85.290646zM385.216736 341.418709a42.261131 42.261131 0 1 0-84.522261 0v384.192096a42.261131 42.261131 0 1 0 84.522261 0z m232.308154-256.128064A42.517259 42.517259 0 0 0 576.032144 42.773387h-128.064032a42.517259 42.517259 0 0 0-42.261131 42.773386V128.064032h211.305653V85.290645z m105.780891 256.128064a42.261131 42.261131 0 1 0-84.522261 0v384.192096a42.261131 42.261131 0 1 0 84.522261 0z"></path>
  </g>
</svg>