<svg viewBox="0 0 1024 1024" version="1.1" xmlns="http://www.w3.org/2000/svg">
  <g class="fore">
    <path d="M576.032 448 576.032 682.176C576.032 741.6 575.264 775.84 581.568 792.672 587.808 809.44 603.488 826.816 620.544 836.896 643.232 850.464 669.088 857.248 698.272 857.248 750.112 857.248 780.736 850.4 832 816.736L832 970.656 832 970.656C788.288 991.232 750.144 1003.264 714.688 1011.584 679.168 1019.84 640.832 1024 599.616 1024 552.768 1024 525.152 1018.112 489.216 1006.336 453.248 994.464 422.528 977.536 397.184 955.808 371.744 933.888 354.176 910.592 344.32 885.952 334.496 861.344 329.632 825.568 329.632 778.72L329.632 419.616 192.192 419.616 192.192 274.624C232.416 261.568 277.344 242.816 305.984 218.464 334.72 194.016 357.728 164.768 375.072 130.528 392.48 96.384 404.416 52.8 410.944 0L576.032 0 576.032 256 832 256 832 448 576.032 448Z"></path>
  </g>
</svg>