<svg viewBox="0 0 1024 1024" version="1.1" xmlns="http://www.w3.org/2000/svg">
  <g class="fore">
    <path d="m1013.670168,486.498449l-476.174912,-476.175554c-14.093004,-14.090521 -36.920018,-14.090521 -51.013022,0l-476.159901,476.175554c-6.767544,6.767553 -10.567877,15.946907 -10.567877,25.501542s3.800333,18.731487 10.567877,25.509047l476.159901,476.158041c7.045251,7.060272 16.257117,10.577898 25.501507,10.577898c9.21687,0 18.463762,-3.515125 25.509013,-10.577898l476.174912,-476.158041c6.760039,-6.777561 10.577884,-15.954413 10.577884,-25.509047s-3.815344,-18.733988 -10.575382,-25.501542zm-333.936396,-12.799557l-93.204469,93.182078c-7.032742,7.060272 -16.254615,10.577898 -25.509013,10.577898c-9.209364,0 -18.448751,-3.515125 -25.494002,-10.577898c-14.090502,-14.093023 -14.090502,-36.912562 0,-51.005585l31.896274,-31.871298l-161.642979,0l0,192.393658c0,19.922376 -16.142031,36.086946 -36.07689,36.086946c-19.919847,0 -36.069384,-16.16457 -36.069384,-36.086946l0,-228.473098c0,-19.907365 16.149537,-36.069433 36.069384,-36.069433l197.194477,0l-38.803922,-38.781458c-14.085498,-14.093023 -14.085498,-36.927573 0,-51.020596c14.090502,-14.093023 36.927524,-14.093023 51.018026,0l100.612491,100.625135c14.10051,14.093023 14.10051,36.927573 0.010007,51.020596z"></path>
  </g>
</svg>