<svg viewBox="0 0 1024 1024" version="1.1" xmlns="http://www.w3.org/2000/svg">
  <g class="fore">
    <path d="M567.66464 736.91136c-81.94048 38.11328-158.16704 37.72416-209.34656 34.01728-61.05088-4.4032-110.16192-21.11488-131.74784-35.7376-13.29152-9.0112-31.37536-5.5296-40.38656 7.7824s-5.5296 31.39584 7.7824 40.38656c34.69312 23.49056 96.07168 40.96 160.1536 45.58848 10.87488 0.77824 22.79424 1.26976 35.65568 1.26976 55.78752 0 126.62784-5.3248 202.42432-40.57088 14.56128-6.77888 20.86912-24.064 14.11072-38.64576s-24.08448-20.86912-38.64576-14.11072zM890.94144 693.82144c2.78528-252.68224 28.75392-730.2144-454.9632-691.6096-477.5936 38.44096-350.96576 542.96576-358.07232 711.94624-6.30784 89.3952-35.98336 198.656-77.90592 309.84192l129.10592 0c13.27104-47.12448 23.01952-93.71648 27.2384-138.15808 7.7824 5.4272 16.11776 10.67008 24.9856 15.70816 14.45888 8.51968 26.89024 19.84512 40.0384 31.82592 30.74048 28.01664 65.59744 59.78112 133.71392 63.75424 4.56704 0.26624 9.17504 0.38912 13.68064 0.38912 68.89472 0 116.0192-30.14656 153.88672-54.3744 18.14528-11.61216 33.81248-21.64736 48.55808-26.46016 41.90208-13.12768 78.5408-34.304 105.90208-61.25568 4.28032-4.1984 8.23296-8.54016 11.96032-12.94336 15.23712 55.86944 36.12672 118.76352 59.2896 181.49376l275.64032 0c-66.17088-102.21568-134.43072-202.38336-133.05856-330.17856zM124.1088 556.35968c0-0.02048 0-0.02048 0-0.04096-4.75136-82.45248 34.7136-151.83872 88.12544-154.9312s100.5568 61.2352 105.30816 143.68768c0 0.02048 0 0.02048 0 0.04096 0.24576 4.44416 0.36864 8.84736 0.36864 13.2096-16.91648 4.25984-32.19456 10.4448-45.8752 17.63328-0.06144-0.6144-0.08192-1.20832-0.14336-1.82272 0 0 0-0.02048 0-0.02048-4.56704-46.81728-29.57312-82.16576-55.84896-78.9504s-43.88864 43.74528-39.3216 90.56256c0 0 0 0.02048 0 0.02048 1.98656 20.39808 7.86432 38.64576 16.03584 52.44928-2.02752 1.59744-7.7824 5.81632-14.39744 10.6496-4.97664 3.62496-11.01824 8.04864-18.30912 13.43488-19.88608-26.09152-33.50528-63.56992-35.9424-105.8816zM665.25184 760.17664c-1.90464 43.58144-58.90048 84.5824-111.57504 101.04832l-0.28672 0.1024c-21.89312 7.10656-41.43104 19.59936-62.09536 32.82944-34.73408 22.2208-70.656 45.19936-122.53184 45.19936-3.39968 0-6.90176-0.1024-10.32192-0.28672-47.5136-2.78528-69.7344-23.04-97.87392-48.68096-14.848-13.5168-30.18752-27.50464-49.9712-39.1168l-0.43008-0.24576c-42.7008-24.10496-69.20192-54.08768-70.90176-80.19968-0.83968-12.98432 4.93568-24.22784 17.18272-33.40288 26.64448-19.968 44.48256-33.01376 56.27904-41.65632 13.1072-9.58464 17.05984-12.47232 20.00896-15.2576 2.08896-1.98656 4.36224-4.17792 6.79936-6.5536 24.45312-23.77728 65.35168-63.56992 128.14336-63.56992 38.4 0 80.896 14.80704 126.17728 43.90912 21.31968 13.88544 39.87456 20.29568 63.3856 28.40576 16.15872 5.57056 34.46784 11.89888 58.9824 22.40512l0.38912 0.16384c22.87616 9.40032 49.88928 26.56256 48.66048 54.92736zM652.63616 657.79712c-4.4032-2.21184-8.97024-4.32128-13.74208-6.28736-22.09792-9.46176-39.8336-15.872-54.53824-20.992 8.11008-15.89248 13.16864-35.71712 13.6192-57.2416 0 0 0-0.02048 0-0.02048 1.1264-52.36736-25.2928-94.90432-59.00288-94.98624s-61.952 42.31168-63.0784 94.67904c0 0 0 0.02048 0 0.02048-0.04096 1.72032-0.04096 3.42016-0.02048 5.12-20.76672-9.54368-41.18528-16.4864-61.17376-20.76672-0.08192-1.96608-0.2048-3.93216-0.24576-5.91872 0-0.02048 0-0.04096 0-0.04096-1.9456-95.41632 56.60672-174.3872 130.74432-176.39424s135.82336 73.70752 137.76896 169.10336c0 0.02048 0 0.04096 0 0.06144 0.88064 43.15136-10.67008 82.86208-30.37184 113.68448z"></path>
  </g>
</svg>