<svg viewBox="0 0 1024 1024" version="1.1" xmlns="http://www.w3.org/2000/svg">
  <g class="fore">
    <path d="m616.693155,0.145289c58.139615,0 113.999245,9.701532 166.089921,27.545837a508.78561,508.783727 0 0 0 -214.411641,79.659586l-0.72122,0.465301c256.498301,27.731959 456.183101,244.981144 456.183101,508.853522c0,58.1394 -9.701568,113.998823 -27.569205,166.089306a508.808875,508.806991 0 0 0 -80.171713,-215.20186c-27.662267,256.567147 -244.912256,456.297738 -508.78561,456.297738c-58.139615,0 -113.999245,-9.701532 -166.089921,-27.569103a508.78561,508.783727 0 0 0 214.411641,-79.659585l0.791016,-0.511832c-256.544832,-27.708693 -456.252897,-244.981144 -456.252897,-508.830256c0,-58.1394 9.701568,-113.998823 27.545939,-166.089306a508.808875,508.806991 0 0 0 80.14845,215.132065c27.708796,-256.520617 244.982051,-456.181412 508.83214,-456.181412zm-104.693184,337.343455a174.48864,174.487994 0 1 0 0,348.975989a174.48864,174.487994 0 0 0 0,-348.975989z"></path>
  </g>
</svg>