<svg viewBox="0 0 1024 1024" version="1.1" xmlns="http://www.w3.org/2000/svg">
  <g class="fore">
    <path d="M512 16C238 16 16 238 16 512s222 496 496 496 496-222 496-496S786 16 512 16z m105.4 186c17.6-30.4 56.6-41 87-23.4 30.6 17.6 41 56.6 23.4 87.2-17.6 30.4-56.6 41-87 23.4-30.6-17.8-41-56.8-23.4-87.2zM190.8 575.8c-35.2 0-63.8-28.6-63.8-63.8 0-35.2 28.6-63.8 63.8-63.8 35.2 0 63.8 28.6 63.8 63.8 0 35.2-28.6 63.8-63.8 63.8z m56.2 6.2c44.6-35.8 44.8-103.8 0-139.8 17.2-65.6 58.2-121.4 113-158.2l47.4 79.2c-103 72.6-103 225 0 297.6L360 740c-54.8-36.6-95.6-92.6-113-158z m457.4 263.4c-30.6 17.6-69.4 7.2-87-23.4-17.6-30.6-7.2-69.6 23.4-87.2 30.4-17.6 69.4-7.2 87 23.4 17.6 30.6 7.2 69.6-23.4 87.2z m0.6-139c-53.4-20.6-112.2 13.2-121 70-10.4 2.8-97.8 28.6-193.4-18.8l45-80.6c114 53 246.8-23.4 257.8-148.8l92.2 1.4c-4.6 69-34.6 131-80.6 176.8z m-11.8-210.6c-10.8-124-142.6-202.4-257.8-148.8l-45-80.6c95.8-47.4 183-21.6 193.4-18.8 8.8 56.6 67.6 90.6 121 70 46.2 45.8 76 107.8 80.4 177l-92 1.2z"></path>
  </g>
</svg>