<svg viewBox="0 0 1024 1024" version="1.1" xmlns="http://www.w3.org/2000/svg">
  <g class="fore">
    <path d="m511.999992,19.618357c215.838427,0 392.140642,181.835249 397.639917,409.730846l0,5.224756l18.450232,0a95.99327,101.40151 0 0 1 96.02581,101.435883l0,33.445311a95.99327,101.40151 0 0 1 -95.99327,101.435883l-27.008276,0a160.03217,169.048347 0 0 1 -66.869888,88.614607l37.616346,172.62318c0.325401,1.546803 0.553182,3.127979 0.683342,4.674781l10.152509,0a32.01945,33.823419 0 0 1 3.742111,67.37185l-3.742111,0.240614l-95.99327,0a32.01945,33.823419 0 0 1 -3.742111,-67.37185l3.70957,-0.240614l20.500258,0l-33.516294,-153.649067a160.682972,169.735815 0 0 1 -23.949507,1.890537l-205.685918,-0.034373l-0.03254,151.792904l14.968442,0c16.432746,0 29.936884,13.061889 31.791669,29.870479l0.227781,3.95294c0,17.32419 -12.365235,31.623522 -28.30988,33.582805l-3.70957,0.20624l-95.99327,0a32.01945,33.823419 0 0 1 -3.742111,-67.37185l3.70957,-0.240614l17.051008,0l0,-151.792904l-192.01908,0c-8.460424,0 -16.758147,-0.687468 -24.89317,-2.02803l-33.516294,153.786561l20.500258,0.034373l3.742111,0.240614a32.01945,33.823419 0 0 1 0,67.16561l-3.742111,0.20624l-95.99327,0l-3.742111,-0.20624a32.01945,33.823419 0 0 1 0,-67.16561l3.70957,-0.240614l10.152509,0l0.260321,-2.337391l0.455561,-2.337391l37.746506,-173.138781a160.09725,169.117094 0 0 1 -66.088926,-88.099006l-40.675114,0a95.99327,101.40151 0 0 1 -95.99327,-101.40151l0,-33.479685a95.99327,101.40151 0 0 1 95.99327,-101.40151l18.417692,-0.034373l0.09762,-5.156009c5.173875,-227.311249 181.215769,-409.833966 397.607377,-409.833966l0,0.034373zm416.090149,482.568066l-832.180299,0a32.01945,33.823419 0 0 0 -32.01945,33.789045l0,33.445311c0,18.699126 14.31764,33.823419 32.01945,33.823419l832.180299,0c17.66927,0 32.01945,-15.124293 32.01945,-33.823419l0,-33.445311a32.01945,33.823419 0 0 0 -32.01945,-33.789045zm-398.193099,-345.074493a32.01945,33.823419 0 1 0 0,67.646838c44.905326,0 86.816964,18.905366 117.762591,51.97257a32.01945,33.823419 0 0 0 45.523588,-47.538403a228.887003,241.782447 0 0 0 -163.286179,-72.046632l0,-0.034373z"></path>
  </g>
</svg>