<svg viewBox="0 0 1024 1024" version="1.1" xmlns="http://www.w3.org/2000/svg">
  <g class="fore">
    <path d="M774.118 704.188l-20.65-20.65 258.419-258.419c18.7-18.697 15.38-52.355-7.43-75.165L674.043 19.545c-22.815-22.81-56.465-26.135-75.165-7.435L340.459 270.524l-20.65-20.65c-22.815-22.812-56.937-25.665-76.222-6.382L51.54 435.536c-12.97 12.97-15.91 32.655-9.512 51.095l-0.138-0.143 44.502 265.259-69.285 69.285c-22.81 22.815-22.81 59.795 0 82.605l103.255 103.25c22.81 22.815 59.792 22.815 82.602 0l69.285-69.28 265.259 44.5-0.15-0.15c18.44 6.41 38.13 3.465 51.1-9.51l192.045-192.039C799.788 761.118 796.928 726.998 774.118 704.188zM674.093 294.462c-7.995 7.997-20.965 7.997-28.965 0l-57.925-57.927c-7.995-8-7.995-20.965 0-28.962l43.445-43.442c8-8 20.96-8 28.965 0l57.925 57.925c8 7.997 8 20.962 0 28.962L674.093 294.462zM816.423 436.789c-7.995 7.997-20.965 7.997-28.965 0l-57.93-57.925c-7.99-8-7.99-20.965 0-28.965l43.45-43.442c8-7.997 20.965-7.997 28.965 0l57.925 57.925c7.995 7.997 8 20.965 0 28.962L816.423 436.789z"></path>
  </g>
</svg>