<svg viewBox="0 0 1024 1024" version="1.1" xmlns="http://www.w3.org/2000/svg">
  <g class="fore">
    <path d="M486.53656 668.935262c-19.246343-3.114944-19.679202-57.05853-19.679202-57.05853s56.541761-57.06774 68.867484-133.801379c33.146934 0 53.617152-81.572854 20.470217-110.273523 1.379417-30.213116 42.612517-237.19112-166.106132-237.19112-208.711486 0-167.483502 206.976982-166.103062 237.19112-33.152051 28.700669-12.678764 110.273523 20.469194 110.273523 12.326746 76.734662 68.867484 133.801379 68.867484 133.801379s-0.437975 53.943586-19.685341 57.05853C231.660662 678.989245 0.20722 783.069719 0.20722 897.195989L390.084834 897.195989l389.881708 0C779.966543 783.069719 548.517193 678.989245 486.53656 668.935262L486.53656 668.935262zM745.624387 655.610792c-18.149359-2.933819-18.559705-53.80237-18.559705-53.80237s53.315276-53.81158 64.933895-126.169561c31.260981 0 50.566676-76.928067 19.310811-103.991446 1.300622-28.487821 40.175001-223.665059-156.635433-223.665059-19.738553 0-37.099966 1.968841-52.373835 5.53097 85.383646 57.287751 60.474326 186.428993 59.407018 209.804377 33.146934 28.701692 12.676717 110.276592-20.475334 110.276592-9.552563 59.489906-45.677319 107.155509-61.434188 125.573997-0.989537 2.743484-2.320858 8.893554-2.320858 8.893554s-2.661619 18.633383-1.150196 33.044604c2.797719 11.595083 7.573489 22.024619 15.728216 23.345708 57.993832 9.41544 264.37525 101.146655 290.659893 206.411093l139.606595 0C1022.322289 763.238045 804.06745 665.094794 745.624387 655.610792L745.624387 655.610792zM745.624387 655.610792"></path>
  </g>
</svg>