<svg viewBox="0 0 1024 1024" version="1.1" xmlns="http://www.w3.org/2000/svg">
  <g class="fore">
    <path d="M163.84 922.624c0-198.144 160.256-358.4 358.4-358.4s358.4 160.256 358.4 358.4"></path>
    <path d="M515.072 101.376c-138.752 0-250.88 112.128-250.88 250.88s112.128 250.88 250.88 250.88 250.88-112.128 250.88-250.88-112.128-250.88-250.88-250.88z m0 455.168c-70.144 0-132.096-35.328-168.96-89.6h337.92c-36.864 54.272-98.816 89.6-168.96 89.6z"></path>
    <path d="M877.568 550.912c56.32-20.992 98.816-73.216 103.936-137.216 7.68-88.576-57.856-166.912-146.432-174.592-22.528-2.048-44.544 1.024-64.512 7.68 10.24 28.672 15.872 59.392 15.872 91.648 0 47.104-12.288 91.136-33.28 129.536l169.472 14.848c-26.624 32.768-68.096 51.712-113.152 48.128-29.184-2.56-55.296-14.336-75.776-32.768-6.144 8.192-12.288 15.872-18.944 23.04 8.704 7.168 17.92 13.824 27.648 19.456-22.016 5.12-42.496 13.312-61.952 24.064 89.088 41.472 159.744 116.224 195.072 207.872l147.456 12.8c9.216-104.448-52.736-198.144-145.408-234.496zM353.28 569.856c-23.552-14.848-49.664-25.6-77.312-30.72 11.776-7.168 23.04-15.872 32.256-25.6-6.656-7.68-12.8-15.872-18.432-24.064-21.504 23.04-51.2 38.4-84.48 41.472-45.056 4.096-86.528-15.36-113.152-48.128l184.32-15.872c-20.48-38.4-32.256-81.92-32.256-128.512 0-30.208 5.12-59.392 14.336-86.528-23.552-10.24-50.688-14.848-78.336-12.8C91.136 247.296 25.6 325.632 33.28 414.208c5.632 65.536 49.664 118.272 108.032 138.24C51.2 590.336-8.192 683.008 1.024 784.896l168.96-14.848c34.304-87.04 99.84-158.208 183.296-200.192z"></path>
  </g>
</svg>