<svg viewBox="0 0 1024 1024" version="1.1" xmlns="http://www.w3.org/2000/svg">
  <g class="fore">
    <path d="M940.8 979.2H723.2C902.4 896 1024 716.8 1024 512 1024 230.4 793.6 0 512 0S0 230.4 0 512c0 268.8 204.8 492.8 473.6 512H947.2c6.4 0 12.8-6.4 12.8-6.4V992c-6.4-6.4-6.4-12.8-19.2-12.8zM748.8 416c51.2 0 96 38.4 96 96s-38.4 96-96 96c-51.2 0-96-38.4-96-96s44.8-96 96-96zM512 185.6c51.2 0 96 38.4 96 96s-44.8 89.6-96 89.6-96-38.4-96-96 44.8-89.6 96-89.6z m-236.8 416c-51.2 0-96-38.4-96-96s38.4-96 96-96 96 38.4 96 96-44.8 96-96 96z m140.8 140.8c0-51.2 38.4-96 96-96 51.2 0 96 38.4 96 96 0 51.2-38.4 96-96 96-51.2 0-96-44.8-96-96z"></path>
  </g>
</svg>