<svg viewBox="0 0 1024 1024" version="1.1" xmlns="http://www.w3.org/2000/svg">
  <g class="fore">
    <path d="M512 0A54.468085 54.468085 0 0 0 457.531915 54.468085v79.959149a389.337872 389.337872 0 0 0-87.148936 23.31234l-39.870639-69.283404a54.468085 54.468085 0 0 0-94.556595 54.468085l40.08851 69.501277a399.36 399.36 0 0 0-63.618723 63.618723l-69.501277-40.08851a54.468085 54.468085 0 0 0-54.468085 94.556595L157.739574 370.382979a384.544681 384.544681 0 0 0-23.31234 87.148936H54.468085a54.468085 54.468085 0 0 0 0 108.93617h79.959149a384.544681 384.544681 0 0 0 23.31234 87.148936l-69.283404 39.870639a54.468085 54.468085 0 0 0 54.468085 94.556595l69.501277-40.08851a399.36 399.36 0 0 0 63.618723 63.618723l-40.08851 69.501277a54.468085 54.468085 0 0 0 94.556595 54.468085L370.382979 866.260426a389.337872 389.337872 0 0 0 87.148936 23.31234v79.959149a54.468085 54.468085 0 0 0 108.93617 0v-79.959149a389.337872 389.337872 0 0 0 87.148936-23.31234l39.870639 69.283404a54.468085 54.468085 0 0 0 94.556595-54.468085l-40.08851-69.501277a399.36 399.36 0 0 0 63.618723-63.618723l69.501277 40.08851a54.468085 54.468085 0 0 0 54.468085-94.556595L866.260426 653.617021a384.544681 384.544681 0 0 0 23.31234-87.148936h79.959149a54.468085 54.468085 0 0 0 0-108.93617h-79.959149a384.544681 384.544681 0 0 0-23.31234-87.148936l69.283404-40.088511a54.468085 54.468085 0 0 0-54.468085-94.556596l-69.501277 40.088511a399.36 399.36 0 0 0-63.618723-63.618723l40.08851-69.501277a54.468085 54.468085 0 0 0-94.556595-54.468085L653.617021 157.739574a389.337872 389.337872 0 0 0-87.148936-23.31234V54.468085A54.468085 54.468085 0 0 0 512 0zM370.382979 631.829787a108.93617 108.93617 0 1 1 108.93617 108.93617 108.93617 108.93617 0 0 1-108.93617-108.93617z m217.87234-206.978723a76.255319 76.255319 0 1 1 76.255319 76.255319 76.255319 76.255319 0 0 1-76.255319-76.255319z m-174.297872-108.93617a54.468085 54.468085 0 1 1 54.468085 54.468085 54.468085 54.468085 0 0 1-54.468085-54.468085z"></path>
  </g>
</svg>