<svg viewBox="0 0 1024 1024" version="1.1" xmlns="http://www.w3.org/2000/svg">
  <g class="fore">
    <path d="M462.7883 486.8c-1.8-74-17.2-145.6-45.4-211.4-181.6 84.8-315 244.8-360.6 433.6 26.8 61.6 65.8 116.6 113.8 162.2 45.4-158.4 148.4-295.6 292.2-384.4zM388.9883 218c-30-52.8-69-100.2-114.8-141.4C92.1883 176.2-15.4117 382.4 24.1883 601c66.8-166.2 196.8-304 364.8-383zM764.1883 548.2c17.2-199.6-54.6-395-195-528.8-29.4-3.4-103.2-11-197.8 17 114.6 118.6 182 276.4 187 445.4 65 35.4 134.6 58 205.8 66.4z m-249.4 19c-63.2 38.6-117.4 87.8-160.4 145.2 164 114.6 369 150.2 555 95.6 39.4-52.8 68.4-113.6 84.4-179.8-53.2 13.2-107.4 20.8-161.8 20.8-109.2-0.2-217.8-28.2-317.2-81.8zM318.1883 766.6c-30.4 52-51.4 108.8-64.2 168.4 75.2 46 163.4 73 258.2 73 122 0 233.4-44.2 319.8-117.2C606.1883 923 425.3883 841.2 318.1883 766.6zM678.7883 45.4c110.6 140.8 165 322.4 149.2 507.2 60.6 0.4 121-9.6 179.4-28.4 0-4 0.6-8 0.6-12 0-215.6-137.4-398.2-329.2-466.8z"></path>
  </g>
</svg>