<svg viewBox="0 0 1024 1024" version="1.1" xmlns="http://www.w3.org/2000/svg">
  <g class="fore">
    <path d="M402.285714 731.428571v292.571429H73.142857a73.142857 73.142857 0 0 1-73.142857-73.142857v-219.428572h402.285714z m621.714286 0v219.428572a73.142857 73.142857 0 0 1-73.142857 73.142857H475.428571v-292.571429h548.571429zM658.285714 365.714286v292.571428H0v-292.571428h658.285714z m365.714286 0v292.571428h-292.571429v-292.571428h292.571429zM950.857143 0a73.142857 73.142857 0 0 1 73.142857 73.142857v219.428572H475.428571V0h475.428572zM402.285714 0v292.571429H0V73.142857a73.142857 73.142857 0 0 1 73.142857-73.142857h329.142857z"></path>
  </g>
</svg>