<svg viewBox="0 0 1024 1024" version="1.1" xmlns="http://www.w3.org/2000/svg">
  <g class="fore">
    <path d="M377.263158 512c0-118.568421 97.010526-215.578947 215.578947-215.578947h404.210527V26.947368c0-16.168421-10.778947-26.947368-26.947369-26.947368H26.947368C10.778947 0 0 10.778947 0 26.947368v970.105264c0 16.168421 10.778947 26.947368 26.947368 26.947368h943.157895c16.168421 0 26.947368-10.778947 26.947369-26.947368V727.578947H592.842105c-118.568421 0-215.578947-97.010526-215.578947-215.578947z"></path>
    <path d="M592.842105 350.315789c-88.926316 0-161.684211 72.757895-161.68421 161.684211s72.757895 161.684211 161.68421 161.684211h431.157895V350.315789H592.842105z m0 215.578948c-29.642105 0-53.894737-24.252632-53.894737-53.894737s24.252632-53.894737 53.894737-53.894737 53.894737 24.252632 53.894737 53.894737-24.252632 53.894737-53.894737 53.894737z"></path>
  </g>
</svg>