<svg viewBox="0 0 1024 1024" version="1.1" xmlns="http://www.w3.org/2000/svg">
  <g class="fore">
    <path d="M1003.008 812.032L614.7584 98.5088C589.568 51.7632 551.8848 25.6 511.4368 25.6c-40.448 0-77.568 26.6752-103.2192 73.4208L20.9408 812.0832c-25.088 46.1312-27.8528 93.44-7.0656 129.536 20.736 36.1984 62.2592 56.7808 113.6128 56.7808h769.024c51.3536 0 92.8768-20.5824 113.664-56.7296 20.736-36.1472 17.9712-82.8928-7.168-129.5872zM512 248.6784c20.224 0 36.608 16.6912 36.608 37.2736v337.0496c0 20.5824-16.384 37.2736-36.608 37.2736a36.9152 36.9152 0 0 1-36.608-37.2736V285.9008c0-20.0192 16.384-37.2736 36.608-37.2736z m0 595.1488c-31.6928 0-56.832-26.112-56.832-58.368 0-32.256 25.7024-58.4192 56.832-58.4192 31.6928 0 56.832 26.112 56.832 58.368 0 32.256-25.7024 58.4192-56.832 58.4192z"></path>
  </g>
</svg>