<svg viewBox="0 0 1024 1024" version="1.1" xmlns="http://www.w3.org/2000/svg">
  <g class="fore">
    <path d="M359.013018 1023.946H153.887042V641.699045H78.406051c-0.544-9.624999-1.305-16.911998-1.305-24.199997V365.987077a102.997988 102.997988 0 0 1 110.229987-109.740987H326.820022a102.562988 102.562988 0 0 1 108.326987 107.021987c0.327 91.359989 0 182.720979 0 276.419968h-76.133991zM947.092949 717.996036h-151.669982v305.785964H641.197985V718.650036H489.257003a97.885989 97.885989 0 0 1 2.011999-14.356999c42.416995-127.033985 83.52999-254.50397 128.067985-380.668955a105.281988 105.281988 0 0 1 180.599979-28.603997 98.809988 98.809988 0 0 1 16.639998 29.691997q63.843993 189.246978 126.763985 378.873956c1.142 3.318 1.849 6.851999 3.752 14.410998zM154.160042 103.488108a101.964988 101.964988 0 1 1 101.799988 101.855988A102.290988 102.290988 0 0 1 154.160042 103.488108zM819.513964 103.650108A102.290988 102.290988 0 1 1 717.385976 0.00012a103.323988 103.323988 0 0 1 102.127988 103.649988z"></path>
  </g>
</svg>