<svg viewBox="0 0 1024 1024" version="1.1" xmlns="http://www.w3.org/2000/svg">
  <g class="fore">
    <path d="M372.448 631.744a34.048 34.048 0 0 1-45.12-13.76l-2.24-4.928-93.216-204.544a17.088 17.088 0 0 1 25.664-20.864l109.984 78.304c13.472 8.832 30.368 10.784 45.472 5.216l517.28-230.24C837.504 131.712 684.832 60.288 512 60.288c-282.784 0-512 191.04-512 426.656 0 128.576 68.96 244.288 176.896 322.496 8.704 6.176 14.336 16.32 14.336 27.808 0 3.776-0.8 7.264-1.792 10.88l-23.04 86.08c-1.12 4.032-2.816 8.224-2.816 12.48 0 9.408 7.68 17.056 17.088 17.056a19.456 19.456 0 0 0 9.856-3.2l112.096-64.64c8.416-4.896 17.344-7.904 27.2-7.904 5.248 0 10.304 0.8 15.04 2.24 52.288 15.04 108.704 23.424 167.136 23.424 282.784 0 512-191.04 512-426.688 0-71.36-21.12-138.592-58.304-197.696L376.16 629.6l-3.712 2.144z"></path>
  </g>
</svg>