<svg viewBox="0 0 1024 1024" version="1.1" xmlns="http://www.w3.org/2000/svg">
  <g class="fore">
    <path d="M451.584 616.576c-14.656 28.224-40.128 74.624-70.784 119.872-49.088 72.128-82.944 99.776-102.464 110.272a19.2 19.2 0 0 1-25.28-6.656c-22.144-33.664-64.512-122.56-103.68-279.936-41.728-167.872-55.68-322.304-33.92-375.552a14.656 14.656 0 0 1 21.056-7.232c29.44 17.6 102.784 81.536 241.28 314.24 31.232 52.416 58.112 98.176 73.792 124.992z m423.04-56.448c-38.4 154.368-79.872 242.688-102.144 277.824a22.656 22.656 0 0 1-31.296 6.912c-41.472-26.112-109.632-111.168-168.896-228.032 15.68-26.752 42.624-72.64 73.92-125.248 138.944-233.472 212.352-297.024 241.536-314.304a14.08 14.08 0 0 1 20.736 7.04l0.064 0.32c21.76 53.184 7.808 207.616-33.92 375.552v-0.064z m131.456-416.32c-26.56-64.896-70.912-77.696-95.04-79.488C821.12 57.536 715.136 168.96 555.84 436.48c-16 26.88-30.976 52.096-43.776 73.984-12.8-21.76-27.712-46.912-43.84-73.984C308.864 168.96 202.496 57.6 113.024 64.32c-24.192 1.792-68.48 14.592-95.04 79.488-36.608 89.6-9.152 264.704 10.56 361.152 29.632 145.728 77.44 290.752 121.792 369.6 29.44 52.48 58.88 79.232 92.672 84.224 5.44 0.832 10.88 1.152 16.384 1.152C359.168 960 454.08 828.224 512 727.744 569.92 828.224 664.896 960 764.608 960c5.504 0 11.008-0.384 16.448-1.152 33.728-5.056 63.168-31.808 92.672-84.224 44.288-78.848 92.096-223.936 121.728-369.6 19.712-96.448 47.168-271.616 10.624-361.152z"></path>
  </g>
</svg>