<svg viewBox="0 0 1024 1024" version="1.1" xmlns="http://www.w3.org/2000/svg">
  <g class="fore">
    <path d="M916.8 833.6c64-46.4 107.2-116.8 107.2-195.2 0-142.4-137.6-257.6-308.8-257.6S408 497.6 408 640s137.6 256 307.2 256c35.2 0 68.8-4.8 100.8-14.4 3.2-1.6 4.8-1.6 9.6-1.6s11.2 1.6 16 4.8l67.2 38.4c1.6 1.6 3.2 1.6 4.8 1.6 4.8 0 9.6-4.8 9.6-9.6 0-1.6-1.6-4.8-1.6-8 0-1.6-9.6-32-12.8-52.8-1.6-1.6-1.6-4.8-1.6-6.4 1.6-4.8 4.8-11.2 9.6-14.4z m-304-235.2c-22.4 0-41.6-19.2-41.6-41.6s19.2-41.6 41.6-41.6 41.6 19.2 41.6 41.6-19.2 41.6-41.6 41.6z m204.8 0c-22.4 0-41.6-19.2-41.6-41.6s19.2-41.6 41.6-41.6 41.6 19.2 41.6 41.6-17.6 41.6-41.6 41.6z"></path>
    <path d="M715.2 358.4H736C707.2 211.2 553.6 97.6 369.6 97.6 166.4 99.2 0 236.8 0 406.4 0 500.8 49.6 584 128 640c6.4 4.8 9.6 12.8 9.6 20.8 0 1.6-1.6 4.8-1.6 8-6.4 24-16 60.8-16 62.4-1.6 3.2-1.6 4.8-1.6 9.6 0 6.4 4.8 12.8 12.8 12.8 1.6 0 4.8-1.6 6.4-1.6l81.6-46.4c4.8-3.2 12.8-4.8 20.8-4.8 3.2 0 8 1.6 11.2 1.6 38.4 11.2 78.4 16 121.6 16h20.8c-8-24-12.8-49.6-12.8-75.2-1.6-160 147.2-284.8 334.4-284.8z m-222.4-99.2c27.2 0 49.6 22.4 49.6 49.6 0 27.2-22.4 49.6-49.6 49.6-27.2 0-49.6-22.4-49.6-49.6 1.6-27.2 22.4-49.6 49.6-49.6z m-246.4 99.2c-27.2 0-49.6-22.4-49.6-49.6s22.4-49.6 49.6-49.6c27.2 0 49.6 22.4 49.6 49.6s-22.4 49.6-49.6 49.6z"></path>
  </g>
</svg>