<svg viewBox="0 0 1024 1024" version="1.1" xmlns="http://www.w3.org/2000/svg">
  <g class="fore">
    <path d="m797.17861,496.30212c-11.82111,-3.59373 -17.53206,-5.87563 -20.33975,-11.71049c-0.79061,-1.64176 -3.23703,-6.73002 1.521,-18.84404c21.94844,-55.80523 12.42585,-87.92002 0.56939,-105.03555c-11.25826,-16.27296 -35.74083,-35.68221 -88.3959,-35.68221c-40.98318,0 -92.97461,12.4571 -146.41504,35.06968l-2.88231,1.22507l-2.92812,0.88857c-5.87064,1.8179 -9.79094,2.18726 -12.07636,2.18726c-2.61397,0 -7.37854,-0.53104 -9.96633,-4.10505c-1.3744,-1.8915 -3.21609,-6.32648 -0.42148,-15.14911c17.02288,-55.31362 12.98739,-99.07975 -11.25303,-123.56281c-14.52279,-14.6036 -35.20417,-21.97376 -61.52842,-21.97376c-76.87716,0 -188.59591,62.72978 -284.61382,159.81157c-100.45264,101.64293 -158.05552,211.24095 -158.05552,300.71598c0,177.80646 225.93759,284.06051 444.37097,284.06051c297.30538,0 479.86311,-176.46046 479.86311,-302.96502c0,-65.67811 -47.64965,-119.84815 -127.44838,-144.9306zm-351.17515,347.31608c-12.53188,1.24479 -25.13181,1.87047 -37.43593,1.87047c-129.55317,0 -230.08695,-66.49176 -239.04671,-158.10802c-9.97942,-102.03333 95.79539,-193.33939 240.80855,-207.84967a380.39481,381.99537 0 0 1 37.4765,-1.8915c129.52699,0 230.04769,66.47992 238.98781,158.09488c9.94538,102.06751 -95.82942,193.37357 -240.79023,207.88385zm536.63482,-399.13719a34.33372,34.47818 0 0 1 -33.3075,-42.53317a205.99707,206.86383 0 0 0 5.69654,-48.3562c0,-112.98276 -91.53476,-204.90792 -204.05197,-204.90792c-8.59062,0 -17.23623,0.53893 -25.6868,1.60101a34.20544,34.34937 0 0 1 -37.56421,-30.60711l-0.00655,-0.04732a34.19235,34.33622 0 0 1 29.19349,-37.71568a277.02585,278.19147 0 0 1 34.06538,-2.11233c150.33534,0 272.6304,122.82276 272.6304,273.78935c0,21.82654 -2.56686,43.54398 -7.62725,64.54109a34.21329,34.35725 0 0 1 -33.28787,26.35484l-0.05366,-0.00657z"></path>
    <path d="m862.75563,399.99587a30.52729,30.65574 0 0 1 -30.0299,-35.91094c0.90318,-5.19605 1.28015,-10.57349 1.13225,-15.97722a78.63901,78.96989 0 0 0 -24.66976,-55.21372a77.97536,78.30346 0 0 0 -53.86323,-21.53604c-0.81024,0 -3.41635,0.05389 -3.41635,0.05389a30.22493,30.3521 0 0 1 -30.34012,-29.55159a30.40687,30.53481 0 0 1 8.29742,-22.08812a30.24587,30.37313 0 0 1 21.28481,-9.59026a139.1098,139.69512 0 0 1 99.91073,38.21386a138.70142,139.28502 0 0 1 43.73589,97.96114a140.85856,141.45124 0 0 1 -2.01709,28.30682a30.46708,30.59527 0 0 1 -30.01026,25.34534l-0.04057,0l0,-0.01315l0.02618,0zm-345.91319,228.03971c-13.30416,-27.66011 -40.06429,-48.52972 -73.45818,-57.23931a141.78399,142.38056 0 0 0 -36.06285,-4.6098c-56.89213,0 -110.63363,31.84007 -133.73526,79.23936c-13.54499,27.80862 -14.82383,57.7309 -3.63233,84.26714c11.702,27.72056 35.69371,48.69796 67.56792,59.12291a142.68847,143.28885 0 0 0 44.01732,6.87723c58.13825,0 113.74369,-34.33622 135.24971,-83.53236c12.4913,-28.3331 12.52533,-58.20806 0.05236,-84.12518l0.00131,0zm-169.4761,109.3693l0,-0.06047c-19.82402,2.26087 -35.7081,-9.05923 -35.7081,-25.45969s14.19555,-33.36089 33.91223,-35.34572c22.64481,-2.15439 37.51053,10.74042 37.51053,27.26182c-0.00785,16.29399 -15.99797,31.3432 -35.71467,33.60406zm62.54811,-52.66893c-6.75549,4.98047 -14.9783,4.24569 -18.46927,-1.70222c-3.72004,-5.7547 -2.2527,-15.15043 4.38891,-19.90743c7.88772,-5.7547 15.99665,-4.06562 19.48893,1.70878c3.49097,5.76126 1.01836,14.70482 -5.40857,19.90087z"></path>
  </g>
</svg>