<svg viewBox="0 0 1024 1024" version="1.1" xmlns="http://www.w3.org/2000/svg">
  <g class="fore">
    <path d="m671.415704,998.161399q-100.62411,32.787629 -201.813524,23.742765t-188.811533,-53.13857t-154.893293,-119.844436t-100.058806,-176.374829t-23.742767,-201.813507t53.138575,-189.376819t120.40975,-155.458584t176.940149,-100.058797t201.813524,-23.742765t188.811533,53.703874t154.893293,120.40974t100.058806,176.374829t23.742767,201.813507t-53.138575,188.811516t-120.40975,154.89328t-176.940149,100.058797l0,-0.000001zm234.035852,-617.311902q-27.134591,-81.403767 -81.403774,-143.021897t-124.932181,-97.232278t-152.632078,-42.963099t-163.372854,19.785638t-143.021909,81.403767t-97.232286,124.93217t-43.528407,152.632064t19.220336,163.372839t81.403774,143.021897t125.497486,97.232278t153.197381,42.963099t163.372854,-19.785638t143.021909,-81.403767t97.232286,-124.93217t42.963103,-152.632064t-19.78564,-163.372839l0.000001,0zm-276.998955,486.161388q-73.489519,23.742765 -146.979037,17.524422t-137.934174,-38.440668t-113.626101,-87.622111t-72.924215,-128.889298t-17.524424,-147.544328t38.440671,-138.499466t88.187423,-113.626091t129.454614,-72.924209t146.979037,-16.959118t137.934174,39.005972t113.626101,87.622111t72.924215,128.889298t17.524424,147.544328t-38.440671,137.934162t-88.187423,113.060788t-129.454614,72.924209l0,-0.000001zm-116.452621,-423.977956q-29.395808,0 -49.181447,19.785638t-19.78564,49.181442t19.78564,49.746747t49.181447,20.350941t49.746751,-20.350941t20.350943,-49.746747t-20.350943,-49.181442t-49.746751,-19.785638zm-262.301052,-113.060787l160.546333,92.709846q5.653039,-3.391824 11.30608,-7.914255q5.653039,-3.391824 10.740776,-7.914255t10.740776,-7.914255q13.567295,-7.914255 26.003984,-11.306079q6.783648,-2.261215 13.567295,-3.391824l0,-185.419693q-19.220336,1.130608 -39.571279,5.653039q-18.089728,4.522432 -40.701888,11.871383t-48.616144,22.046854q-29.395808,16.959118 -49.181447,33.352933t-32.222327,28.830501q-13.567295,14.697903 -22.61216,29.395805l0.000001,0.000001zm-28.265199,315.439598l161.676941,-92.709846q-2.261216,-6.783647 -3.391824,-13.567294q-1.130608,-5.653039 -1.695913,-12.436687t-0.565304,-13.567294q0,-15.828511 3.391824,-28.265197q1.130608,-6.783647 3.391824,-13.567294l-159.415725,-92.709846q-7.914256,15.828511 -14.697904,36.179452q-5.653039,16.959118 -10.740776,41.267188t-5.087736,53.703874q-1.130608,33.918237 3.391824,59.356914t10.175472,42.397795q5.653039,20.350941 13.567295,33.918237l0.000002,-0.000002zm260.039836,182.027869l1.130608,-186.5503q-6.783648,-1.130608 -13.567295,-4.522432q-12.436688,-3.391824 -23.742767,-11.306079q-6.783648,-3.391824 -12.436688,-7.914255t-10.175472,-9.044862t-10.175472,-9.044862l-159.415725,91.579239q10.175472,15.828511 23.742767,31.65702q12.436688,13.567294 30.526416,29.395805t44.093712,31.65702q28.265199,16.959118 52.573271,26.003982t41.267192,13.567294q20.350943,4.522432 36.179455,4.522432l-0.000001,-0.000001zm291.696859,-131.150515l-160.546333,-92.709846q-5.653039,4.522432 -10.175472,9.044862q-4.522432,3.391824 -10.175472,7.348951t-11.30608,7.348951q-6.783648,4.522432 -14.1326,6.783647t-13.001991,4.522432q-6.783648,2.261215 -12.436688,3.391824l0,185.419693q18.089728,-1.130608 38.440671,-5.653039q18.089728,-3.391824 41.267192,-11.306079t49.181447,-22.612158q29.395808,-15.828511 48.616144,-32.222325t31.657023,-29.961109q13.567295,-14.697903 22.61216,-29.395805l-0.000001,0zm28.265199,-317.700815l-160.546333,92.709846l2.261216,13.567294q1.130608,5.653039 1.695913,13.00199t0.565304,13.00199q0,7.914255 -1.130608,15.828511t-2.261216,13.567294q-2.261216,6.783647 -3.391824,13.567294l159.415725,91.579239q7.914256,-15.828511 14.697904,-36.179452q5.653039,-16.959118 10.740776,-41.267188t5.087736,-53.703874q0,-32.787629 -3.957128,-58.79161t-9.610167,-42.963099q-5.653039,-20.350941 -13.567295,-33.918237l-0.000002,0.000002zm-258.909227,-182.027868l0,186.5503l13.567295,4.522432q5.653039,2.261215 11.871384,5.087736t11.871384,6.218343q5.653039,4.522432 11.871384,8.47956t10.740776,8.47956l10.175472,10.175471l159.415725,-92.709846q-10.175472,-14.697903 -23.742767,-30.526413q-12.436688,-13.567294 -30.526416,-29.961109t-44.093712,-32.222325q-29.395808,-16.959118 -53.703879,-25.438677t-41.267192,-13.00199q-20.350943,-4.522432 -36.179455,-5.653039l0,-0.000001z"></path>
  </g>
</svg>