<svg viewBox="0 0 1024 1024" version="1.1" xmlns="http://www.w3.org/2000/svg">
  <g class="fore">
    <path d="m675.369239,506.048135a370.705646,370.302116 0 0 0 -92.813361,-57.5348a242.598163,242.334084 0 1 0 -254.649818,0c-155.575854,66.211928 -267.875329,250.073143 -267.875329,466.141335a31.302993,31.268919 0 0 0 31.302993,31.268919l391.287357,0a293.309001,292.989721 0 0 1 192.748158,-439.875453z"></path>
    <path d="m896.368342,630.342066a230.859542,230.608241 0 1 0 0,326.291123a231.094317,230.842761 0 0 0 0,-326.291123zm-42.806839,283.530882a170.601288,170.415581 0 1 1 49.850005,-120.38532a169.427432,169.243003 0 0 1 -49.850005,120.38532z"></path>
    <path d="m860.761186,725.165053a31.302993,31.268919 0 0 0 -44.21547,0l-112.847273,113.975196l-53.684628,-54.017056a31.302993,31.268919 0 0 0 -44.371987,44.089177l57.049699,57.456627a57.754015,57.691147 0 0 0 81.935573,0l116.681896,-117.258431a31.302993,31.268919 0 0 0 -0.547809,-44.245513z"></path>
  </g>
</svg>