<svg viewBox="0 0 1024 1024" version="1.1" xmlns="http://www.w3.org/2000/svg">
  <g class="fore">
    <path d="m294.956893,671.200697l68.907672,74.973368a202.902808,220.870097 0 0 1 296.226584,0l68.907672,-74.973368a299.93606,326.49576 0 0 0 -434.041927,0zm217.032037,120.656498a96.95574,105.541288 0 0 0 -72.838609,36.281325l72.849682,79.312663l72.849682,-79.312663a97.000033,105.589503 0 0 0 -72.882901,-36.281325l0.022146,0zm507.555993,-446.344667a717.534488,781.073033 0 0 0 -1015.100912,0c-1.439498,1.566968 -2.757193,3.133935 -4.185618,4.700903l70.723654,77.02248a617.323267,671.987988 0 0 1 882.035913,0l70.723654,-77.02248c-1.461644,-1.566968 -2.768266,-3.133935 -4.218837,-4.700903l0.022146,0zm-507.54492,-4.580367a508.253596,553.260065 0 0 0 -361.801263,163.205692c-1.439498,1.566968 -2.768266,3.254471 -4.196691,4.821438l73.7466,80.276951a407.112237,443.162518 0 0 1 584.502708,0l73.735527,-80.276951c-1.428425,-1.566968 -2.757193,-3.254471 -4.196691,-4.821438a508.253596,553.260065 0 0 0 -361.812336,-163.205692l0.022146,0z"/>
  </g>
</svg>