<svg viewBox="0 0 1024 1024" version="1.1" xmlns="http://www.w3.org/2000/svg">
  <g class="fore">
    <path d="m504.420795,499.900422l57.795525,-401.061681a524.610495,523.06521 0 0 1 -54.054297,-28.233816c-134.684214,-82.514775 -275.431798,-79.49202 -379.992675,-57.496655l-63.471871,422.285279c98.303995,-22.188307 271.432554,-37.687964 439.723318,64.506874zm470.362687,-8.875323l49.216502,-394.951857c-66.632564,30.356176 -219.571391,83.157914 -384.572455,26.111456l-57.214989,397.653043c159.582733,85.794786 318.520426,15.242402 392.570943,-28.812642zm-483.973017,97.178352c-165.452591,-102.001896 -342.967417,-79.942218 -432.305366,-58.71862l-58.505068,368.840401c74.76006,-31.127943 261.305437,-48.428391 447.334783,31.320885l46.313825,-339.834818l-2.838173,-1.607848zm423.403823,420.484489l51.796659,-413.924467c-55.08636,27.783619 -136.038797,58.011167 -227.505375,58.011167c-52.377194,0 -108.431113,-10.290229 -164.678544,-36.723255l-45.217258,335.011273c4.25726,2.508243 8.708031,4.24472 13.158803,6.881591c136.74834,80.842613 274.593247,73.961022 372.445715,50.743692z"></path>
  </g>
</svg>