<svg viewBox="0 0 1024 1024" version="1.1" xmlns="http://www.w3.org/2000/svg">
  <g class="fore">
    <path d="M162.461538 1024C138.082462 1024 118.153846 1004.406154 118.153846 980.48V523.382154c0-52.243692 33.240615-100.115692 81.979077-119.709539 17.723077-6.537846 36.174769-21.76 36.174769-41.353846V196.923077h118.153846v165.415385c0 17.408 18.471385 34.816 36.17477 41.353846 50.963692 19.593846 81.979077 67.465846 81.979077 119.709538v457.058462C472.615385 1004.406154 452.686769 1024 428.307692 1024H162.461538zM236.307692 0h118.153846a19.692308 19.692308 0 0 1 19.692308 19.692308v118.153846a19.692308 19.692308 0 0 1-19.692308 19.692308H236.307692a19.692308 19.692308 0 0 1-19.692307-19.692308V19.692308a19.692308 19.692308 0 0 1 19.692307-19.692308z m669.538462 552.900923c0 95.744-38.931692 164.115692-116.795077 205.095385A39.384615 39.384615 0 0 0 768 792.851692V905.846154c0 23.000615 20.164923 35.938462 60.455385 38.793846a19.692308 19.692308 0 0 1 18.313846 19.633231V1004.307692a19.692308 19.692308 0 0 1-19.692308 19.692308H630.153846a19.692308 19.692308 0 0 1-19.692308-19.692308v-40.034461a19.692308 19.692308 0 0 1 18.313847-19.652923C669.046154 941.784615 689.230769 928.886154 689.230769 905.846154v-112.994462a39.384615 39.384615 0 0 0-21.051077-34.855384C590.316308 717.016615 551.384615 648.644923 551.384615 552.900923c0-47.714462 6.754462-95.428923 22.508308-140.878769 4.332308-12.110769 11.835077-18.176 22.508308-18.176h264.428307c8.999385 0 18.018462 6.813538 20.263385 13.627077l2.244923 4.548923c15.753846 45.449846 22.508308 93.144615 22.508308 140.878769z"></path>
  </g>
</svg>