<svg viewBox="0 0 1024 1024" version="1.1" xmlns="http://www.w3.org/2000/svg">
  <g class="fore">
    <path d="M597.306106 373.540938m-42.653053 0a42.653053 42.653053 0 1 0 85.306107 0 42.653053 42.653053 0 1 0-85.306107 0Z"></path>
    <path d="M426.693894 373.540938m-42.653054 0a42.653053 42.653053 0 1 0 85.306107 0 42.653053 42.653053 0 1 0-85.306107 0Z"></path>
    <path d="M442.902054 485.036019a27.169995 27.169995 0 0 0 13.478365 30.667546 124.674875 124.674875 0 0 0 111.324469 0 27.297954 27.297954 0 0 0-13.051835-51.183664h-85.306106a27.297954 27.297954 0 0 0-26.444893 20.516118z"></path>
    <path d="M961.26461 820.033099a517.125617 517.125617 0 0 0-114.438142-64.363457 629.985596 629.985596 0 0 0 86.372433-53.7855 21.326527 21.326527 0 0 0 1.364897-32.373667c-136.148546-126.594262-103.348348-332.992387-102.665899-338.62259a317.722594 317.722594 0 0 0-49.051011-169.417927 136.48977 136.48977 0 0 0 17.061221-65.173866C799.908109 0.326722 706.284657 0.326722 661.285686 0.326722a212.369552 212.369552 0 0 0-93.196921 15.909589 302.836678 302.836678 0 0 0-112.220183 0A212.284246 212.284246 0 0 0 362.714314 0.326722C317.715343 0.326722 224.091891 0.326722 224.091891 96.296092a136.958954 136.958954 0 0 0 17.359792 65.771008 323.608715 323.608715 0 0 0-49.051011 172.403641c0.341224 2.047347 33.567953 208.061594-102.921817 335.039734a21.326527 21.326527 0 0 0 1.364897 32.373667 630.198862 630.198862 0 0 0 86.32978 53.742847 516.656434 516.656434 0 0 0-114.438142 64.40611A105.097123 105.097123 0 0 0 21.489888 904.571451v98.102022a21.326527 21.326527 0 0 0 21.326526 21.326527h938.367172a21.326527 21.326527 0 0 0 21.326526-21.326527v-98.102022a105.225082 105.225082 0 0 0-41.245502-84.538352zM288.071471 96.296092c0-16.336119 0.469184-27.895097 46.278562-31.051423C448.02042 57.439161 437.357157 85.632829 437.357157 96.296092A74.728149 74.728149 0 0 1 362.714314 170.938935a75.794476 75.794476 0 0 1-74.642843-74.642843z m447.857058 0A76.306312 76.306312 0 0 1 661.285686 170.938935a74.728149 74.728149 0 0 1-74.642843-74.642843c0-19.705711 2.729795-29.857137 60.012846-31.648565 88.931616-2.559183 89.27284 12.454692 89.27284 31.648565zM503.469389 242.596065a10.663263 10.663263 0 0 1 16.719997 0 232.501793 232.501793 0 0 0 173.512621 88.078555 10.705916 10.705916 0 0 1 10.236733 10.876528v74.642843a191.93874 191.93874 0 0 1-383.87748 0V341.551148a10.663263 10.663263 0 0 1 10.19408-10.663263A232.587099 232.587099 0 0 0 503.469389 242.596065z m174.19507 485.477052a10.62061 10.62061 0 0 1 8.53061 13.904895c-50.501215 152.399359-127.95916 165.920377-169.247315 187.673434a10.748569 10.748569 0 0 1-9.810202 0c-145.020381-72.51019-159.181195-142.973034-170.612213-188.611801a10.833876 10.833876 0 0 1 1.450204-8.530611 10.663263 10.663263 0 0 1 7.208366-4.649183 1074.13184 1074.13184 0 0 1 332.651162 0.213266z"></path>
  </g>
</svg>