<svg viewBox="0 0 1024 1024" version="1.1" xmlns="http://www.w3.org/2000/svg">
  <g class="fore">
    <path d="m839.08809,694.68341l0,-71.19687l96.36434,0c11.56372,0 18.17156,-7.17488 18.17156,-18.21315l0,-186.54683c0,-4.41531 0,-9.38253 -2.20261,-11.59019c-2.20261,-4.41531 -7.15849,-4.41531 -13.76633,-4.41531l-98.56695,0l0,-71.19687c0,-23.18038 -18.17156,-41.39353 -41.299,-41.39353l-254.40185,0l0,-68.98921l2.20261,0c45.70423,-13.79784 77.64212,-57.39902 77.64212,-108.17509c0,-29.80334 -11.56372,-59.60668 -34.14051,-78.37175c-20.92483,-20.97272 -50.66011,-34.21865 -78.19278,-34.21865c-62.22383,0 -112.33328,50.77606 -112.33328,112.59039c0,50.77606 34.14051,94.37724 82.598,108.17509l2.20261,0l0,66.78156l-241.18617,0c-23.12744,0 -41.299,16.0055 -41.299,41.39353l0,73.40452l-112.33328,0c-9.36111,0 -18.17156,6.62296 -18.17156,18.21315l0,186.54683c0,9.38253 6.60784,18.21315 18.17156,18.21315l112.33328,0l0,68.98921c0,11.59019 4.40523,20.97272 13.76633,29.80334c9.36111,9.38253 18.17156,13.79784 29.73528,13.79784l241.18617,0l0,64.5739l-2.20261,0c-48.4575,13.79784 -82.598,59.60668 -82.598,108.17509c0,29.80334 11.56372,59.60668 34.14051,78.37175c20.92483,20.97272 50.66011,34.21865 78.19278,34.21865c61.67318,0 112.33328,-50.77606 112.33328,-112.59039c0,-50.77606 -31.93789,-92.16959 -78.19278,-105.96743l-2.20261,0l0,-68.98921l252.19924,0c23.12744,0 41.84965,-18.21315 41.84965,-41.39353zm57.26795,-238.97863l0,110.38274l-202.08978,0l0,-110.38274l202.08978,0zm-422.35112,-305.76019c-11.56372,-11.59019 -15.96895,-25.38803 -13.76633,-39.18587c0,-27.59569 25.33005,-52.98372 52.86272,-52.98372c29.73528,0 52.86272,25.38803 52.86272,52.98372c0,16.0055 -6.60784,29.80334 -15.96895,39.18587c-9.36111,9.38253 -23.12744,13.79784 -39.09639,13.79784c-13.76633,0 -27.53267,-4.96722 -36.89377,-13.79784zm-344.15835,413.93528l0,-110.38274l204.29239,0l0,110.38274l-204.29239,0zm436.11746,347.15372c0,16.0055 -6.60784,29.80334 -15.96895,39.18587c-9.36111,9.38253 -23.12744,13.79784 -39.09639,13.79784s-29.73528,-6.62296 -39.09639,-16.0055c-6.60784,-7.17488 -11.56372,-20.97272 -11.56372,-36.97822c0,-29.80334 25.33005,-52.98372 52.86272,-52.98372c29.73528,0 52.86272,23.18038 52.86272,52.98372zm213.10285,-234.56332l-518.16481,0l0,-52.98372l110.13067,0c11.56372,0 18.17156,-7.17488 18.17156,-18.21315l0,-186.54683c0,-9.38253 -6.60784,-18.21315 -18.17156,-18.21315l-112.33328,0l0,-57.39902l523.12069,0l0,57.39902l-123.897,0c-9.36111,0 -18.17156,6.62296 -18.17156,18.21315l0,186.54683c0,9.38253 6.60784,18.21315 18.17156,18.21315l123.897,0l0,52.98372l-2.75327,0z"></path>
  </g>
</svg>