<svg viewBox="0 0 1024 1024" version="1.1" xmlns="http://www.w3.org/2000/svg">
  <g class="fore">
    <path d="M13.95 391.93h63.58s4.56 144.8-11.26 177.65-32.85 58.41-32.85 58.41L10 561.07l3.95-169.14zM309.03 391.93h-63.58s-4.56 144.8 11.26 177.65 32.85 58.41 32.85 58.41l23.42-66.92-3.95-169.14zM128.33 306.75h64.49v305.42s0 35.29-32.25 40.15-60.23 0-60.23 0L78.14 600h48.97l1.22-293.25zM470.25 306.75h-68.14l-52.32 110.73s-15.82 35.29 15.82 35.29h36.5l-35.29 80.31s-10.95 30.42 24.34 30.42h79.09l15.82-53.54h-47.46l53.54-110.73-64.49-2.43 42.59-90.05zM351.01 587.84h109.51l-26.77 66.65H327.89zM516.49 326.22h152.1v65.71h-152.1zM559.08 391.93H626v205.64h-66.92zM497.02 597.57h194.69v56.92H465.39zM1009.3 494.75c-6.08-40.76-77.86-41.98-77.86-41.98s-1.23 24.34-0.02-46.24c1.22-70.57-62.06-80.31-62.06-80.31H711.18v65.71h47.45v59.62h-71.79v66.92h68.14V654.6l69.36-0.12V522.13l116.81 1.22 2.43 80.31H879.1L901 654.5s25.55 0.27 63.27 0 45.02-42.32 45.02-42.32 6.09-76.67 0.01-117.43z m-138.72-43.2h-46.24v-59.62h46.24v59.62z"></path>
    <path d="M757.11 302.8h65.25v25.55h-65.25zM948.3 388.13s-8.86-76.68 42.44-59.78c41.52 13.69 19.16 81.22-42.44 59.78z"></path>
  </g>
</svg>