<svg viewBox="0 0 1024 1024" version="1.1" xmlns="http://www.w3.org/2000/svg">
  <g class="fore">
    <path d="m511.999948,-0.05127c-282.911246,0 -512.208078,229.273812 -512.208078,512.051287s229.361344,512.051297 512.208078,512.051297s512.208078,-229.273812 512.208078,-512.051287s-229.296821,-512.051297 -512.208078,-512.051297zm-31.871866,128.25427c54.066043,0 98.002778,42.107573 98.002778,94.001621c0,51.894038 -43.936735,94.001621 -98.002778,94.001621c-54.195089,0 -98.002789,-42.107583 -98.002789,-94.001621c0,-51.894048 43.8077,-94.001621 98.002789,-94.001621zm35.162282,828.180029c-196.844291,0 -367.300742,-256.894846 4.258186,-445.799468c339.106398,-172.293384 180.84384,-466.145021 -4.258186,-449.147465c282.26607,0 447.690123,200.300713 447.690123,447.473461c0.064512,247.17276 -200.457301,447.473472 -447.690123,447.473472z"></path>
    <path d="m448.514276,734.487792a96.325309,93.03585 0 1 0 192.650628,0a96.325309,93.03585 0 1 0 -192.650628,0z"></path>
  </g>
</svg>