<svg viewBox="0 0 1024 1024" version="1.1" xmlns="http://www.w3.org/2000/svg">
  <g class="fore">
    <path d="M544 532v88c0 2.2-1.8 4-4 4h-56c-2.2 0-4-1.8-4-4v-88c0-2.2 1.8-4 4-4h56c2.2 0 4 1.8 4 4z"></path>
    <path d="M1024 64v896c0 35.3-28.7 64-64 64H64c-35.3 0-64-28.7-64-64V64C0 28.7 28.7 0 64 0h432c8.8 0 16 7.2 16 16v140c0 2.2-1.8 4-4 4h-56c-2.2 0-4 1.8-4 4v120c0 2.2 1.8 4 4 4h56c2.2 0 4 1.8 4 4v72c0 2.2-1.8 4-4 4h-56c-2.2 0-4 1.8-4 4v88c0 2.2-1.8 4-4.1 4-7.7 0-14.7 3.2-19.7 8.2-5.1 5.1-8.2 12.1-8.2 19.8v168c0 15.5 12.5 28 28 28h136c15.5 0 28-12.5 28-28V492c0-15.5-12.5-28-28-28h-64c-2.2 0-4-1.8-4-4v-56c0-2.2 1.8-4 4-4h56c2.2 0 4-1.8 4-4V260c0-2.2-1.8-4-4-4h-56c-2.2 0-4-1.8-4-4v-56c0-2.2 1.8-4 4-4h56c2.2 0 4-1.8 4-4V16c0-8.8 7.2-16 16-16h368c35.3 0 64 28.7 64 64z"></path>
  </g>
</svg>