<?xml version="1.0" encoding="utf-8"?>
<!DOCTYPE svg PUBLIC "-//W3C//DTD SVG 1.1//EN" "http://www.w3.org/Graphics/SVG/1.1/DTD/svg11.dtd">
<svg xmlns="http://www.w3.org/2000/svg" xmlns:xlink="http://www.w3.org/1999/xlink" viewBox="0 0 126 126">
<g>
	<path d="M99.98,36.507c-0.006-0.468-0.154-0.93-0.475-1.295L79.838,12.747c-0.004-0.006-0.01-0.008-0.016-0.014
		c-0.117-0.131-0.252-0.239-0.396-0.334c-0.043-0.028-0.086-0.053-0.131-0.078c-0.127-0.068-0.258-0.124-0.395-0.165
		c-0.037-0.011-0.07-0.026-0.107-0.036c-0.15-0.035-0.303-0.057-0.459-0.057H30c-2.205,0-4,1.795-4,4v94c0,2.206,1.795,4,4,4h66
		c2.207,0,4-1.794,4-4V36.73C100,36.655,99.988,36.581,99.98,36.507z M62.689,88.787l-9.281,19.188h-5.576l9.283-18.114v-0.068
		H46.793v-4.33h15.896V88.787z M82.814,107.975h-17.75v-2.777l10.873-15.65v-0.136H66.08v-4.268h16.564v2.98l-10.637,15.447v0.135
		h10.807V107.975z M30,79.98V16.063h46.334v20.466c0,1.104,0.895,2,2,2H96l0.002,41.451H30z"/>
	<g>
		<rect x="41.174" y="39.626" width="29.102" height="3.854"/>
		<polygon points="84.826,48.415 84.826,43.479 70.275,43.479 70.275,48.415 75.199,48.415 75.199,49.685 75.199,51.13 
			75.199,52.774 75.199,54.224 75.199,55.905 75.199,57.353 75.199,59.308 70.275,59.308 70.275,64.022 41.174,64.022 
			41.174,67.874 70.275,67.874 70.275,64.241 84.826,64.241 84.826,59.308 76.695,59.308 76.695,57.353 79.906,57.353 
			79.906,55.905 76.695,55.905 76.695,54.224 79.906,54.224 79.906,52.774 76.695,52.774 76.695,51.13 79.906,51.13 79.906,49.685 
			76.695,49.685 76.695,48.415 		"/>
		<rect x="44.918" y="45.462" width="21.615" height="16.801"/>
	</g>
</g>
</svg>