<?xml version="1.0" encoding="utf-8"?>
<!DOCTYPE svg PUBLIC "-//W3C//DTD SVG 1.1//EN" "http://www.w3.org/Graphics/SVG/1.1/DTD/svg11.dtd">
<svg xmlns="http://www.w3.org/2000/svg" xmlns:xlink="http://www.w3.org/1999/xlink" viewBox="0 0 126 126">
<g>
	<path d="M64.232,88.097h-0.066c-0.328,1.314-0.656,2.992-1.02,4.275l-1.314,4.703h4.9l-1.381-4.703
		C64.957,91.056,64.563,89.412,64.232,88.097z"/>
	<path d="M99.979,36.443c-0.004-0.469-0.154-0.93-0.475-1.295L79.838,12.683c-0.006-0.006-0.012-0.008-0.016-0.014
		c-0.117-0.131-0.254-0.24-0.398-0.334c-0.043-0.029-0.086-0.053-0.131-0.078c-0.125-0.068-0.258-0.125-0.395-0.166
		c-0.037-0.01-0.07-0.025-0.107-0.035C78.643,12.021,78.488,12,78.332,12H30c-2.207,0-4,1.795-4,4v94c0,2.205,1.793,4,4,4h66
		c2.205,0,4-1.795,4-4V36.666C100,36.591,99.988,36.517,99.979,36.443z M47.584,106.517l-1.709-5.691h-6.35l-1.578,5.691H32.75
		l6.775-22.17h6.578l6.877,22.17H47.584z M69.168,106.517l-1.711-5.691h-6.35l-1.578,5.691H54.33l6.777-22.17h6.58l6.873,22.17
		H69.168z M88.053,102.701c1.512,0,3.189-0.328,4.176-0.723l0.756,3.914c-0.92,0.461-2.992,0.955-5.689,0.955
		c-7.664,0-11.613-4.77-11.613-11.086c0-7.566,5.396-11.777,12.107-11.777c2.598,0,4.572,0.527,5.461,0.988l-1.021,3.98
		c-1.02-0.428-2.434-0.822-4.209-0.822c-3.98,0-7.074,2.4-7.074,7.334C80.945,99.906,83.578,102.701,88.053,102.701z M30,79.916V16
		h46.332v20.465c0,1.105,0.896,2,2,2H96v41.451H30z"/>
	<path d="M42.65,88.097h-0.066c-0.328,1.314-0.656,2.992-1.02,4.275l-1.314,4.703h4.9l-1.381-4.703
		C43.375,91.056,42.98,89.412,42.65,88.097z"/>
	<path d="M61.875,35.376c-10.315,0-18.677,8.363-18.677,18.678S51.56,72.73,61.875,72.73c10.313,0,18.675-8.361,18.675-18.676
		S72.188,35.376,61.875,35.376z M70.375,60.61c0,1.644-1.225,2.956-3.139,3.438c-2.097,0.521-4.122-0.359-4.526-1.967
		c-0.402-1.613,0.972-3.34,3.071-3.865c0.949-0.234,1.881-0.186,2.663,0.088V46.345L57.71,48.306l-0.048,14.879H57.66
		c-0.01,1.409-1.281,2.793-3.107,3.244c-2.073,0.522-4.249-0.465-4.479-1.941c-0.399-1.594,0.961-3.305,3.039-3.824
		c0.934-0.233,1.85-0.188,2.617,0.083V43.132l14.646-2.373V60.61z"/>
</g>
</svg>