<?xml version="1.0" encoding="utf-8"?>
<!DOCTYPE svg PUBLIC "-//W3C//DTD SVG 1.1//EN" "http://www.w3.org/Graphics/SVG/1.1/DTD/svg11.dtd">
<svg xmlns="http://www.w3.org/2000/svg" xmlns:xlink="http://www.w3.org/1999/xlink" viewBox="0 0 126 126">
<g>
	<path d="M63,88.376c-1.07,0-1.795,0.104-2.176,0.207v6.87c0.449,0.104,1.002,0.139,1.762,0.139c2.797,0,4.521-1.416,4.521-3.799
		C67.107,89.652,65.623,88.376,63,88.376z"/>
	<path d="M41.662,88.514h-0.068c-0.346,1.381-0.691,3.143-1.07,4.488l-1.381,4.938h5.143l-1.449-4.938
		C42.422,91.621,42.008,89.895,41.662,88.514z"/>
	<path d="M99.98,36.442c-0.006-0.468-0.156-0.929-0.477-1.295L79.838,12.682c-0.006-0.005-0.012-0.008-0.016-0.013
		c-0.117-0.132-0.254-0.239-0.398-0.334c-0.043-0.028-0.086-0.054-0.131-0.078c-0.125-0.069-0.256-0.124-0.395-0.165
		c-0.037-0.011-0.07-0.027-0.107-0.035C78.643,12.021,78.488,12,78.332,12H30c-2.205,0-4,1.794-4,4v94c0,2.205,1.795,4,4,4h66
		c2.205,0,4-1.795,4-4V36.666C100,36.591,99.988,36.517,99.98,36.442z M46.84,107.847l-1.795-5.972h-6.662l-1.656,5.972h-5.455
		l7.111-23.269h6.904l7.215,23.269H46.84z M70.182,97.18c-1.797,1.691-4.455,2.451-7.563,2.451c-0.689,0-1.311-0.035-1.795-0.104
		v8.319h-5.213V84.889c1.623-0.275,3.902-0.482,7.111-0.482c3.246,0,5.559,0.621,7.113,1.863c1.484,1.174,2.484,3.107,2.484,5.387
		C72.32,93.934,71.561,95.867,70.182,97.18z M88.584,107.847l-5.697-10.046l-2.002,2.451v7.595h-5.213V84.578h5.213v10.288h0.104
		c0.518-0.897,1.07-1.726,1.588-2.555l5.283-7.733h6.455l-7.699,9.908l8.113,13.36H88.584z M63.16,79.916l0.113-0.113
		c1.35-1.353,1.35-3.565-0.002-4.917c-1.352-1.352-3.564-1.351-4.916,0l-5.031,5.03h-2.459l6.26-6.26L35,51.531l-5,5v-2.457
		l3.77-3.772c1.354-1.353,1.354-3.565,0-4.917c-1.018-1.017-2.512-1.247-3.77-0.732V16h46.332v20.465c0,1.104,0.896,2,2,2H96v41.451
		H63.16z"/>
	<path d="M66.215,53.574l-4.613,1.455c-0.76-1.715-1.842-3.323-3.248-4.728c-1.404-1.406-3.012-2.486-4.729-3.246l1.455-4.614
		c0.072-0.228-0.055-0.473-0.283-0.545c-0.229-0.072-0.473,0.056-0.545,0.284l-1.434,4.544c-5.057-1.906-10.902-1.101-15.293,2.416
		l21.99,21.989c3.518-4.391,4.322-10.236,2.416-15.293l4.545-1.434c0.227-0.072,0.355-0.317,0.281-0.545
		C66.689,53.631,66.441,53.502,66.215,53.574z M49.074,53.313c-0.984,0.983-2.58,0.983-3.564-0.001s-0.984-2.581,0-3.565
		c0.982-0.984,2.58-0.984,3.566,0C50.059,50.733,50.059,52.328,49.074,53.313z M58.908,63.146c-0.986,0.984-2.58,0.984-3.566,0
		c-0.984-0.985-0.982-2.581,0-3.564c0.986-0.984,2.58-0.984,3.566,0C59.893,60.566,59.893,62.163,58.908,63.146z"/>
</g>
</svg>