<?xml version="1.0" encoding="utf-8"?>
<!DOCTYPE svg PUBLIC "-//W3C//DTD SVG 1.1//EN" "http://www.w3.org/Graphics/SVG/1.1/DTD/svg11.dtd">
<svg xmlns="http://www.w3.org/2000/svg" xmlns:xlink="http://www.w3.org/1999/xlink" viewBox="0 0 126 126">
<g>
	<g>
		<path d="M85.535,88.367c-1.141,0-1.914,0.111-2.318,0.222v7.327c0.479,0.11,1.066,0.146,1.877,0.146
			c2.982,0,4.824-1.509,4.824-4.05C89.918,89.729,88.334,88.367,85.535,88.367z"/>
		<path d="M64.145,88.367c-1.141,0-1.914,0.111-2.318,0.222v7.327c0.479,0.11,1.066,0.146,1.877,0.146
			c2.982,0,4.824-1.509,4.824-4.05C68.527,89.729,66.943,88.367,64.145,88.367z"/>
		<path d="M99.873,36.876c-0.006-0.468-0.154-0.93-0.475-1.295L79.73,13.116c-0.004-0.006-0.01-0.008-0.016-0.014
			c-0.117-0.131-0.252-0.239-0.396-0.334c-0.043-0.028-0.086-0.053-0.131-0.078c-0.127-0.068-0.258-0.124-0.395-0.165
			c-0.037-0.011-0.07-0.026-0.107-0.036c-0.15-0.035-0.303-0.057-0.459-0.057H29.893c-2.205,0-4,1.795-4,4v94c0,2.206,1.795,4,4,4
			h66c2.207,0,4-1.794,4-4V37.1C99.893,37.024,99.881,36.95,99.873,36.876z M46.914,109.134L45,102.764h-7.105l-1.768,6.37h-5.818
			l7.586-24.816h7.363l7.695,24.816H46.914z M71.803,97.757c-1.914,1.804-4.75,2.614-8.063,2.614c-0.736,0-1.4-0.037-1.914-0.11
			v8.873h-5.561V84.648c1.73-0.294,4.16-0.515,7.584-0.515c3.461,0,5.928,0.662,7.586,1.988c1.582,1.251,2.65,3.313,2.65,5.743
			C74.086,94.296,73.275,96.357,71.803,97.757z M93.193,97.757c-1.914,1.804-4.75,2.614-8.063,2.614c-0.736,0-1.4-0.037-1.914-0.11
			v8.873h-5.561V84.648c1.73-0.294,4.16-0.515,7.584-0.515c3.461,0,5.928,0.662,7.586,1.988c1.582,1.251,2.65,3.313,2.65,5.743
			C95.477,94.296,94.666,96.357,93.193,97.757z M29.893,80.35V16.433h46.334v20.466c0,1.104,0.895,2,2,2h17.666l0.002,41.451H29.893
			z"/>
		<path d="M41.393,88.515h-0.074c-0.369,1.473-0.736,3.351-1.143,4.787l-1.473,5.265h5.486l-1.545-5.265
			C42.201,91.829,41.76,89.987,41.393,88.515z"/>
	</g>
	<g>
		<polygon points="59.979,52.192 60.873,55.231 62.701,53.815 		"/>
		<path d="M74.285,53.337l-0.67-17.689l-27.729,1.051l0.086,2.247l-10.42,2.325l7.838,35.111l19.361-4.321l0.439-0.017
			c-0.451,0.776-0.717,1.238-0.717,1.238l-0.547,0.863c-0.258,0.41-0.135,0.954,0.275,1.213l2.131,1.348
			c0.412,0.259,0.955,0.137,1.215-0.275l0.975-1.544c0.436-0.649,1.162-1.732,2.041-3.048l2.715-0.103l0.354,0.455
			c0.418,0.54,1.057,0.746,1.426,0.461l1.33-1.033l0.59-0.021l-0.018-0.422l1.578-1.225c0.369-0.285,0.328-0.954-0.09-1.494
			l-0.961-1.237l-4.814,3.734l0.096,0.123c-0.205-0.168-0.395-0.356-0.539-0.531c-0.078-0.096-0.148-0.188-0.219-0.282l-0.402,0.016
			c0.084-0.125,0.166-0.247,0.252-0.374l0.082,0.106l1.494-1.159l1.658-1.287l0.84-0.65l0.412-0.318l0.398-0.311
			c0.01-0.003,0.02-0.01,0.029-0.014l-0.133-3.515c1.994-2.985,3.6-5.391,3.775-5.67c0.498-0.785,0.852-2.92,0.852-2.92l-3.32-2.097
			C75.949,52.071,75.004,52.686,74.285,53.337z M44.543,74.567l-7.176-32.144l8.662-1.935l1.221,32.159l7.094-0.269L44.543,74.567z
			 M66.42,73.534c-0.018-0.014-0.035-0.029-0.055-0.043l-0.914-0.576l3.119-4.675l0.742,0.958L66.42,73.534z M71.205,58.203
			l-1.947,0.287l0.096,0.657l1.424-0.209c-0.236,0.405-0.48,0.83-0.732,1.263l-2.4-3.096l-0.27,0.208l-0.553,0.432l-0.84,0.65
			l-1.658,1.285L62.83,60.84l3.918,5.052c-0.99,1.711-1.92,3.318-2.658,4.597l-15.379,0.584L47.463,38.16l24.691-0.936l0.584,15.439
			l-0.764-5.185l-7.344,1.081l1.035,7.022l-2.439-1.454l-2.182,1.688l1.295,4.39l4.814-3.735l-0.506-0.303l-1.012-6.86l5.59-0.823
			l0.271,1.836l-3.371,0.496l0.098,0.657l3.369-0.496l0.266,1.809l-2.438,0.359l0.096,0.657l2.439-0.359l0.283,1.918l-2.439,0.359
			l0.098,0.657l2.438-0.359l0.029,0.189C72.025,56.79,71.635,57.464,71.205,58.203z M78.023,56.149l-5.145,7.706l-0.742-0.958
			l4.912-7.363L78.023,56.149z"/>
		<path d="M83.787,41.705c-0.518,1.933-3.953,2.8-3.953,2.8c-3.922,0.93-3.43,6.769-3.43,6.769l3.318,2.097
			c3.586,0.087,5.879-3.631,5.879-3.631C88.771,44.076,83.787,41.705,83.787,41.705z M80.637,52.631l-1.111-0.444
			c0,0,1.781,0.746,5.896-4.585C85.422,47.602,85.02,50.914,80.637,52.631z"/>
	</g>
</g>
</svg>