<?xml version="1.0" encoding="utf-8"?>
<!DOCTYPE svg PUBLIC "-//W3C//DTD SVG 1.1//EN" "http://www.w3.org/Graphics/SVG/1.1/DTD/svg11.dtd">
<svg xmlns="http://www.w3.org/2000/svg" xmlns:xlink="http://www.w3.org/1999/xlink" viewBox="0 0 126 126">
<g>
	<g>
		<path d="M99.874,36.931c-0.006-0.468-0.154-0.93-0.475-1.295L79.731,13.171c-0.004-0.006-0.01-0.008-0.016-0.014
			c-0.117-0.131-0.252-0.239-0.396-0.334c-0.043-0.028-0.086-0.053-0.131-0.078c-0.127-0.068-0.258-0.124-0.395-0.165
			c-0.037-0.011-0.07-0.026-0.107-0.036c-0.15-0.035-0.303-0.057-0.459-0.057H29.893c-2.205,0-4,1.795-4,4v94c0,2.206,1.795,4,4,4
			h66c2.207,0,4-1.794,4-4V37.155C99.893,37.08,99.881,37.005,99.874,36.931z M49.802,107.886l-1.678-5.582h-6.229l-1.549,5.582
			h-5.099l6.648-21.751h6.455l6.744,21.751H49.802z M63.32,108.209c-2.484,0-4.937-0.646-6.163-1.323l1-4.066
			c1.322,0.679,3.356,1.354,5.454,1.354c2.259,0,3.453-0.935,3.453-2.355c0-1.354-1.033-2.13-3.646-3.065
			c-3.615-1.259-5.971-3.259-5.971-6.421c0-3.712,3.099-6.553,8.229-6.553c2.453,0,4.26,0.518,5.551,1.098l-1.097,3.97
			c-0.872-0.419-2.42-1.032-4.55-1.032s-3.163,0.968-3.163,2.096c0,1.389,1.226,2.002,4.034,3.066
			c3.84,1.422,5.648,3.422,5.648,6.487C72.099,105.112,69.291,108.209,63.32,108.209z M89.039,97.915
			c-1.678,1.582-4.163,2.291-7.067,2.291c-0.646,0-1.227-0.031-1.678-0.098v7.778H75.42v-21.46c1.516-0.259,3.646-0.451,6.648-0.451
			c3.034,0,5.196,0.58,6.648,1.741c1.388,1.097,2.323,2.904,2.323,5.034C91.04,94.881,90.33,96.688,89.039,97.915z M29.893,80.405
			V16.488h46.334v20.466c0,1.104,0.895,2,2,2h17.666l0.002,41.451H29.893z"/>
		<path d="M44.961,89.815h-0.065c-0.323,1.291-0.645,2.936-1,4.195l-1.292,4.614h4.809l-1.356-4.614
			C45.671,92.718,45.283,91.106,44.961,89.815z"/>
		<path d="M82.326,89.685c-1,0-1.678,0.097-2.033,0.194V96.3c0.42,0.099,0.936,0.13,1.646,0.13c2.614,0,4.228-1.323,4.228-3.549
			C86.167,90.879,84.779,89.685,82.326,89.685z"/>
	</g>
	<g>
		<path d="M36.238,53.264l18.23-9.407v4.472l-13.787,6.708v0.084l13.787,6.707V66.3l-18.23-9.408V53.264z"/>
		<path d="M57.288,67.988l8.13-30.584h3.835l-8.128,30.584H57.288z"/>
		<path d="M89.69,57.017L71.46,66.3v-4.473l14.091-6.707v-0.084L71.46,48.329v-4.472l18.23,9.281V57.017z"/>
	</g>
</g>
</svg>