<?xml version="1.0" encoding="utf-8"?>
<!DOCTYPE svg PUBLIC "-//W3C//DTD SVG 1.1//EN" "http://www.w3.org/Graphics/SVG/1.1/DTD/svg11.dtd">
<svg xmlns="http://www.w3.org/2000/svg" xmlns:xlink="http://www.w3.org/1999/xlink" viewBox="0 0 126 126">
<g>
	<g>
		<path d="M71.094,89.16c-0.863,0-1.447,0.084-1.754,0.167v5.541c0.363,0.082,0.809,0.11,1.42,0.11c2.256,0,3.646-1.142,3.646-3.062
			C74.406,90.19,73.209,89.16,71.094,89.16z"/>
		<path d="M38.844,89.271h-0.053c-0.279,1.115-0.559,2.534-0.863,3.619l-1.115,3.98h4.148l-1.17-3.98
			C39.457,91.777,39.123,90.387,38.844,89.271z"/>
		<path d="M99.873,36.23c-0.006-0.468-0.154-0.93-0.475-1.295L79.73,12.471c-0.004-0.006-0.01-0.008-0.016-0.014
			c-0.117-0.131-0.252-0.239-0.396-0.334c-0.043-0.028-0.086-0.053-0.131-0.078c-0.127-0.068-0.258-0.124-0.395-0.165
			c-0.037-0.011-0.07-0.026-0.107-0.036c-0.15-0.035-0.303-0.057-0.459-0.057H29.893c-2.205,0-4,1.795-4,4v94c0,2.206,1.795,4,4,4
			h66c2.207,0,4-1.794,4-4V36.454C99.893,36.379,99.881,36.305,99.873,36.23z M43.02,104.863l-1.447-4.815h-5.371l-1.338,4.815
			h-4.398l5.736-18.766h5.566l5.818,18.766H43.02z M54.693,105.14c-2.146,0-4.262-0.557-5.318-1.142l0.863-3.506
			c1.141,0.584,2.893,1.166,4.705,1.166c1.947,0,2.979-0.805,2.979-2.029c0-1.17-0.891-1.837-3.146-2.646
			c-3.119-1.084-5.148-2.811-5.148-5.54c0-3.2,2.672-5.649,7.098-5.649c2.117,0,3.676,0.444,4.789,0.943l-0.949,3.426
			c-0.75-0.361-2.088-0.892-3.924-0.892c-1.838,0-2.729,0.836-2.729,1.811c0,1.196,1.059,1.727,3.48,2.644
			c3.313,1.225,4.871,2.952,4.871,5.597C62.264,102.47,59.842,105.14,54.693,105.14z M76.885,96.259
			c-1.447,1.365-3.592,1.978-6.098,1.978c-0.557,0-1.057-0.028-1.447-0.083v6.71h-4.205V86.349c1.311-0.224,3.148-0.39,5.736-0.39
			c2.617,0,4.484,0.502,5.734,1.504c1.199,0.945,2.006,2.507,2.006,4.343C78.611,93.644,78,95.201,76.885,96.259z M90.42,104.863
			l-1.697-3.398c-0.697-1.306-1.141-2.283-1.67-3.369h-0.055c-0.391,1.086-0.863,2.063-1.449,3.369l-1.559,3.398h-4.844l5.43-9.494
			l-5.236-9.271h4.875l1.641,3.426c0.557,1.143,0.975,2.06,1.42,3.116h0.057c0.445-1.196,0.807-2.03,1.279-3.116l1.586-3.426h4.844
			l-5.289,9.159l5.568,9.606H90.42z M29.893,79.704V15.787h46.334v20.466c0,1.104,0.895,2,2,2h17.666l0.002,41.451H29.893z"/>
	</g>
	<g>
		<path d="M36.15,53.139l18.23-9.407v4.472l-13.787,6.708v0.084l13.787,6.707v4.473l-18.23-9.408V53.139z"/>
		<path d="M57.199,67.862l8.131-30.584h3.834l-8.127,30.584H57.199z"/>
		<path d="M89.602,56.892l-18.23,9.283v-4.473l14.092-6.707v-0.084l-14.092-6.708v-4.472l18.23,9.281V56.892z"/>
	</g>
</g>
</svg>