<?xml version="1.0" encoding="utf-8"?>
<!DOCTYPE svg PUBLIC "-//W3C//DTD SVG 1.1//EN" "http://www.w3.org/Graphics/SVG/1.1/DTD/svg11.dtd">
<svg xmlns="http://www.w3.org/2000/svg" xmlns:xlink="http://www.w3.org/1999/xlink" viewBox="0 0 126 126">
<g>
	<path d="M47.455,88.771h-0.072c-0.359,1.439-0.719,3.275-1.115,4.68l-1.439,5.147h5.363l-1.512-5.147
		C48.248,92.012,47.816,90.211,47.455,88.771z"/>
	<path d="M99.979,36.443c-0.004-0.468-0.154-0.93-0.475-1.295L79.838,12.684c-0.006-0.006-0.012-0.008-0.016-0.014
		c-0.117-0.131-0.254-0.239-0.398-0.334c-0.043-0.028-0.086-0.053-0.131-0.078c-0.125-0.068-0.258-0.124-0.395-0.165
		c-0.037-0.011-0.07-0.026-0.107-0.036C78.643,12.021,78.488,12,78.332,12H30c-2.207,0-4,1.795-4,4v94c0,2.206,1.793,4,4,4h66
		c2.205,0,4-1.794,4-4V36.667C100,36.592,99.988,36.518,99.979,36.443z M52.855,108.93l-1.873-6.228h-6.947l-1.727,6.228h-5.688
		l7.414-24.262h7.199l7.523,24.262H52.855z M72.008,108.93H65.6l-7.775-24.262h6.012l2.951,10.259
		c0.828,2.88,1.584,5.651,2.16,8.675h0.109c0.611-2.916,1.367-5.795,2.195-8.566l3.096-10.367h5.83L72.008,108.93z M88.279,108.93
		h-5.508V84.668h5.508V108.93z M30,79.917V16h46.332v20.466c0,1.104,0.896,2,2,2H96v41.451H30z"/>
	<path d="M44.096,29.822v41.379H81V29.822H44.096z M74.384,33.097V49.16H50.09V33.097H74.384z M45.625,36.453h3.277v3.546h-3.277
		V36.453z M45.625,44.477h3.277v3.546h-3.277V44.477z M48.902,63.964h-3.277v-3.547h3.277V63.964z M48.902,55.939h-3.277v-3.546
		h3.277V55.939z M50.09,68.253V51.862h24.294v16.391H50.09z M79.323,63.964h-3.279v-3.547h3.279V63.964z M79.323,55.939h-3.279
		v-3.546h3.279V55.939z M79.323,48.023h-3.279v-3.546h3.279V48.023z M79.323,39.999h-3.279v-3.546h3.279V39.999z"/>
</g>
</svg>