<?xml version="1.0" encoding="utf-8"?>
<!DOCTYPE svg PUBLIC "-//W3C//DTD SVG 1.1//EN" "http://www.w3.org/Graphics/SVG/1.1/DTD/svg11.dtd">
<svg xmlns="http://www.w3.org/2000/svg" xmlns:xlink="http://www.w3.org/1999/xlink" viewBox="0 0 126 126">
<g>
	<g>
		<path d="M39.251,97.649h-1.762v6.437c0.508,0.067,1.118,0.067,1.999,0.067c2.337,0,4.403-0.881,4.403-3.286
			C43.892,98.564,41.825,97.649,39.251,97.649z"/>
		<path d="M61.238,88.774h-0.067c-0.339,1.354-0.678,3.083-1.05,4.403l-1.355,4.845h5.047l-1.423-4.845
			C61.983,91.823,61.577,90.129,61.238,88.774z"/>
		<path d="M99.98,36.402c-0.006-0.468-0.154-0.93-0.475-1.295L79.838,12.643c-0.004-0.006-0.01-0.008-0.016-0.014
			c-0.117-0.131-0.252-0.239-0.396-0.334c-0.043-0.028-0.086-0.053-0.131-0.078c-0.127-0.068-0.258-0.124-0.395-0.165
			c-0.037-0.011-0.07-0.026-0.107-0.036c-0.15-0.035-0.303-0.057-0.459-0.057H30c-2.205,0-4,1.795-4,4v94c0,2.206,1.795,4,4,4h66
			c2.207,0,4-1.794,4-4V36.626C100,36.551,99.988,36.477,99.98,36.402z M46.94,105.915c-1.66,1.321-4.438,2.066-8.977,2.066
			c-2.541,0-4.438-0.17-5.589-0.339V85.218c1.355-0.271,4.099-0.475,6.673-0.475c3.15,0,5.081,0.305,6.741,1.287
			c1.592,0.847,2.744,2.405,2.744,4.472c0,2.032-1.186,3.93-3.76,4.878v0.067c2.608,0.712,4.539,2.677,4.539,5.624
			C49.312,103.137,48.363,104.764,46.94,105.915z M66.319,107.744l-1.761-5.86h-6.538l-1.626,5.86h-5.353l6.979-22.831h6.775
			l7.08,22.831H66.319z M87.596,107.744l-5.589-9.857l-1.965,2.405v7.452h-5.115V84.913h5.115v10.095h0.102
			c0.508-0.881,1.05-1.694,1.558-2.507l5.183-7.588h6.334l-7.554,9.722l7.96,13.109H87.596z M30,79.876V15.959h46.334v20.466
			c0,1.104,0.895,2,2,2H96l0.002,41.451H30z"/>
		<path d="M43.35,91.146c0-1.728-1.321-2.642-3.658-2.642c-1.118,0-1.762,0.067-2.202,0.135v5.318h1.694
			C41.893,93.957,43.35,92.84,43.35,91.146z"/>
	</g>
	<path d="M70.717,40.807v-2.056h1.918c0.162,0.845,0.902,1.486,1.793,1.486c1.008,0,1.827-0.821,1.827-1.829
		s-0.819-1.826-1.827-1.826c-0.891,0-1.631,0.64-1.793,1.484h-1.918v-2.625H69.02v2.625h-4.021c0-0.016,0-0.033,0.001-0.049
		l0.016-0.563c0.059-1.907,0.132-3.935,0.224-6.206c1.225-1.006,2.007-2.531,2.007-4.236c0-3.022-2.459-5.481-5.481-5.481
		s-5.482,2.459-5.482,5.481c0,1.749,0.827,3.307,2.106,4.311c0.091,2.242,0.163,4.246,0.221,6.131l0.016,0.564
		c0.041,1.431,0.083,2.91,0.068,4.348c0.033,0.4-0.305,1.08-0.604,1.68l-0.034,0.067c-0.38,0.73-0.813,1.464-1.185,2.083
		c-0.524,0.863-1.059,1.727-1.597,2.59c-1.187,1.912-2.415,3.887-3.522,5.909c-0.97,1.771-1.642,3.177-2.182,4.556
		c-0.344,0.881-0.6,1.685-0.784,2.46c-0.231,0.999-0.321,1.832-0.284,2.618c-0.025,0.346-0.004,0.635,0.039,0.988
		c0.04,0.313,0.106,0.635,0.203,0.984c0.183,0.631,0.441,1.236,0.765,1.802c0.585,1.03,1.393,1.974,2.471,2.892
		c1.691,1.412,3.751,2.519,6.481,3.482c0.038,0.014,0.077,0.021,0.115,0.021c0.139,0,0.268-0.085,0.319-0.222
		c0.066-0.173-0.018-0.367-0.19-0.438c-2.545-1.043-4.518-2.232-6.029-3.63c-0.919-0.863-1.619-1.769-2.082-2.688
		c-0.251-0.496-0.443-1.018-0.568-1.548c-0.064-0.288-0.104-0.548-0.125-0.799c-0.022-0.273-0.019-0.547,0.013-0.759
		c0.002-0.018,0.004-0.075,0.004-0.092c0.002-1.57,0.589-3.129,1.162-4.444c0.567-1.276,1.291-2.629,2.28-4.257
		c1.167-1.921,2.467-3.82,3.725-5.657c0.577-0.841,1.155-1.686,1.728-2.541c0.443-0.668,0.914-1.393,1.355-2.155
		c0.209-0.365,0.43-0.764,0.626-1.207c0.109-0.242,0.199-0.48,0.272-0.724c0.039-0.12,0.09-0.351,0.11-0.503l0.034-0.375
		c0.091-1.26,0.137-2.497,0.178-3.708h0.852c0.041,1.211,0.087,2.448,0.178,3.705l0.035,0.378c0.02,0.15,0.071,0.381,0.108,0.496
		c0.075,0.25,0.164,0.49,0.272,0.729c0.203,0.457,0.43,0.863,0.628,1.209c0.443,0.768,0.913,1.489,1.355,2.156
		c0.573,0.854,1.152,1.7,1.729,2.543c1.257,1.836,2.557,3.733,3.723,5.654c0.989,1.628,1.713,2.979,2.279,4.254
		c0.574,1.318,1.16,2.879,1.163,4.487c0,0.018,0.005,0.06,0.008,0.078c0.027,0.186,0.031,0.459,0.009,0.732
		c-0.02,0.251-0.06,0.511-0.124,0.795c-0.126,0.534-0.318,1.056-0.569,1.552c-0.463,0.92-1.164,1.825-2.081,2.688
		c-1.513,1.398-3.486,2.588-6.032,3.631c-0.172,0.07-0.256,0.265-0.19,0.438c0.051,0.137,0.182,0.222,0.32,0.222
		c0.038,0,0.076-0.007,0.115-0.021c2.729-0.964,4.789-2.07,6.484-3.485c1.075-0.915,1.882-1.858,2.467-2.889
		c0.326-0.567,0.583-1.175,0.766-1.806c0.097-0.346,0.163-0.668,0.203-0.982c0.042-0.353,0.063-0.641,0.038-0.986
		c0.038-0.786-0.052-1.619-0.284-2.62c-0.183-0.773-0.439-1.577-0.784-2.458c-0.54-1.379-1.212-2.784-2.182-4.556
		c-1.108-2.022-2.337-3.999-3.525-5.912c-0.536-0.863-1.072-1.725-1.594-2.587c-0.374-0.619-0.806-1.353-1.183-2.077l-0.036-0.074
		c-0.299-0.6-0.638-1.278-0.603-1.712c-0.014-1.167,0.015-2.382,0.048-3.581h4.039v2.056H70.717z M74.429,37.267
		c0.63,0,1.143,0.514,1.143,1.142c0,0.63-0.513,1.145-1.143,1.145c-0.51,0-0.938-0.34-1.084-0.802h1.084v-0.685h-1.084
		C73.491,37.604,73.919,37.267,74.429,37.267z M62.642,27.204c0.146-0.391,0.52-0.671,0.96-0.671c0.451,0,0.831,0.292,0.969,0.697
		L62.642,27.204z M56.969,27.012c0-2.645,2.152-4.796,4.796-4.796s4.796,2.151,4.796,4.796c0,1.256-0.489,2.396-1.282,3.254
		c0.009-0.229,0.02-0.464,0.03-0.697c0-0.023,0.006-0.044,0.006-0.067v-0.093c0.025-0.59,0.051-1.188,0.078-1.813
		c0.004-0.094-0.03-0.183-0.094-0.251c-0.001-0.002-0.004-0.003-0.006-0.004c-0.11-0.841-0.822-1.494-1.691-1.494
		c-0.945,0-1.713,0.769-1.713,1.714v1.94c0,0.227,0.046,0.44,0.126,0.638c0.011,0.566,0.022,1.117,0.034,1.654
		c-0.095,0.006-0.189,0.016-0.285,0.016c-0.063,0-0.126-0.008-0.188-0.01c0.013-0.583,0.024-1.183,0.037-1.801
		c0.048-0.157,0.082-0.322,0.082-0.497v-1.94c0-0.945-0.768-1.714-1.713-1.714c-0.894,0-1.621,0.69-1.698,1.564
		c-0.033,0.056-0.055,0.118-0.052,0.185c0.012,0.293,0.024,0.577,0.037,0.861v1.044c0,0.152,0.026,0.296,0.063,0.437
		c0.006,0.145,0.013,0.294,0.019,0.438C57.497,29.509,56.969,28.321,56.969,27.012z M59.014,27.232
		c0.138-0.406,0.518-0.699,0.969-0.699c0.442,0,0.816,0.281,0.961,0.671L59.014,27.232z M61.765,32.494
		c0.101,0,0.2-0.01,0.299-0.016c0.041,1.783,0.082,3.421,0.13,4.978l0.02,0.61h-0.803l0.02-0.61c0.048-1.555,0.09-3.192,0.129-4.974
		C61.629,32.485,61.696,32.494,61.765,32.494z"/>
</g>
</svg>