<?xml version="1.0" encoding="utf-8"?>
<!DOCTYPE svg PUBLIC "-//W3C//DTD SVG 1.1//EN" "http://www.w3.org/Graphics/SVG/1.1/DTD/svg11.dtd">
<svg xmlns="http://www.w3.org/2000/svg" xmlns:xlink="http://www.w3.org/1999/xlink" viewBox="0 0 126 126">
<g>
	<g>
		<path d="M64.586,87.946h-0.074c-0.367,1.473-0.736,3.351-1.141,4.787l-1.473,5.265h5.486l-1.547-5.265
			C65.396,91.261,64.955,89.419,64.586,87.946z"/>
		<path d="M45.146,90.523c0-1.877-1.436-2.871-3.977-2.871c-1.215,0-1.914,0.073-2.393,0.146v5.781h1.842
			C43.564,93.58,45.146,92.365,45.146,90.523z"/>
		<path d="M40.691,97.593h-1.914v6.996c0.553,0.073,1.215,0.073,2.172,0.073c2.541,0,4.787-0.957,4.787-3.571
			C45.736,98.587,43.49,97.593,40.691,97.593z"/>
		<path d="M99.873,36.544c-0.006-0.468-0.154-0.93-0.475-1.295L79.73,12.784c-0.004-0.006-0.01-0.008-0.016-0.014
			c-0.117-0.131-0.252-0.239-0.396-0.334c-0.043-0.028-0.086-0.053-0.131-0.078c-0.127-0.068-0.258-0.124-0.395-0.165
			c-0.037-0.011-0.07-0.026-0.107-0.036c-0.15-0.035-0.303-0.057-0.459-0.057H29.893c-2.205,0-4,1.795-4,4v94c0,2.206,1.795,4,4,4
			h66c2.207,0,4-1.794,4-4V36.768C99.893,36.692,99.881,36.618,99.873,36.544z M49.051,106.577
			c-1.805,1.436-4.824,2.246-9.758,2.246c-2.762,0-4.824-0.185-6.076-0.368V84.08c1.475-0.294,4.455-0.515,7.254-0.515
			c3.424,0,5.523,0.331,7.328,1.398c1.73,0.921,2.982,2.614,2.982,4.86c0,2.209-1.289,4.271-4.088,5.302V95.2
			c2.836,0.773,4.934,2.908,4.934,6.111C51.627,103.558,50.596,105.325,49.051,106.577z M70.109,108.565l-1.916-6.37h-7.105
			l-1.768,6.37h-5.816l7.584-24.816h7.363l7.695,24.816H70.109z M93.6,88.462h-6.775v20.104h-5.633V88.462h-6.664v-4.713H93.6
			V88.462z M29.893,80.018V16.101h46.334v20.466c0,1.104,0.895,2,2,2h17.666l0.002,41.451H29.893z"/>
	</g>
	<g>
		<path d="M77.85,31.576H45.945c-2,0-3.627,1.626-3.627,3.625v29.841c0,2,1.627,3.626,3.627,3.626H77.85
			c2,0,3.627-1.626,3.627-3.626V35.201C81.477,33.202,79.85,31.576,77.85,31.576z M79.059,65.042c0,0.667-0.541,1.209-1.209,1.209
			H45.945c-0.666,0-1.209-0.542-1.209-1.209V41.486h34.322V65.042z"/>
		<path d="M48.287,57.564c0.961,0.211,1.803,0.812,2.318,1.647c0.51,0.838,0.662,1.866,0.41,2.816
			c-0.021,0.088,0.012,0.183,0.086,0.236l2.238,1.632c0.125,0.089,0.197,0.042,0.252,0.005c0.422-0.271,0.893-0.45,1.391-0.528
			c0.475-0.074,0.949-0.057,1.414,0.059c0.955,0.23,1.787,0.848,2.283,1.696c0.043,0.077,0.137,0.121,0.227,0.106l2.734-0.43
			c0.092-0.015,0.164-0.083,0.184-0.171c0.213-0.962,0.811-1.805,1.65-2.317c0.816-0.498,1.809-0.651,2.732-0.433
			c-0.006-0.116,0.004-0.235,0.035-0.354c0.045-0.167,0.02-0.347-0.068-0.487c-0.086-0.139-0.232-0.243-0.395-0.279
			c-0.492-0.113-0.855-0.5-0.932-0.99l-0.205-1.296c-0.078-0.489,0.148-0.97,0.576-1.225c0.15-0.089,0.26-0.233,0.297-0.394
			c0.039-0.159,0.01-0.337-0.08-0.475c-0.268-0.419-0.248-0.965,0.039-1.363l0.773-1.061c0.195-0.266,0.473-0.436,0.783-0.485
			l0.215-0.034l0.26,0.057c0.205,0.054,0.365,0.021,0.5-0.063c0.145-0.088,0.25-0.235,0.283-0.396
			c0.105-0.463,0.459-0.803,0.912-0.906l-0.135-0.854c-0.016-0.09-0.086-0.164-0.174-0.186c-0.961-0.211-1.805-0.811-2.316-1.647
			c-0.512-0.839-0.664-1.865-0.414-2.815c0.023-0.086-0.01-0.183-0.084-0.236l-2.238-1.629c-0.125-0.091-0.197-0.044-0.254-0.009
			c-0.818,0.527-1.848,0.703-2.803,0.471C59.828,45,58.998,44.379,58.5,43.53c-0.045-0.076-0.135-0.12-0.227-0.105l-2.734,0.431
			c-0.09,0.013-0.164,0.084-0.184,0.171c-0.211,0.96-0.811,1.806-1.648,2.316c-0.834,0.514-1.867,0.665-2.816,0.412
			c-0.059-0.013-0.145-0.036-0.236,0.086l-1.631,2.239c-0.053,0.074-0.055,0.177-0.006,0.254c0.529,0.826,0.703,1.847,0.473,2.804
			c-0.23,0.953-0.848,1.783-1.699,2.28c-0.078,0.046-0.121,0.135-0.107,0.229l0.432,2.736
			C48.129,57.473,48.197,57.544,48.287,57.564z M57.752,49.009c2.934-0.462,5.695,1.552,6.158,4.482
			c0.461,2.934-1.549,5.695-4.484,6.157c-2.932,0.461-5.693-1.549-6.154-4.481C52.809,52.236,54.818,49.471,57.752,49.009z"/>
		<path d="M69.004,53.098c-0.1,0.455-0.387,0.855-0.779,1.098c-0.396,0.243-0.887,0.314-1.336,0.195
			c-0.027-0.006-0.07-0.018-0.111,0.041l-0.773,1.061c-0.025,0.035-0.027,0.085-0.004,0.121c0.252,0.392,0.332,0.875,0.223,1.327
			c-0.107,0.452-0.4,0.846-0.803,1.08c-0.037,0.021-0.059,0.065-0.053,0.109l0.205,1.296c0.006,0.043,0.039,0.077,0.082,0.086
			c0.455,0.101,0.855,0.385,1.096,0.781c0.244,0.396,0.318,0.884,0.197,1.334c-0.01,0.041,0.006,0.086,0.041,0.111l1.061,0.773
			c0.061,0.043,0.094,0.02,0.119,0.002c0.201-0.127,0.422-0.213,0.66-0.25c0.223-0.035,0.449-0.025,0.668,0.027
			c0.453,0.109,0.848,0.402,1.082,0.805c0.021,0.037,0.064,0.057,0.107,0.05l1.295-0.204c0.043-0.007,0.078-0.039,0.088-0.08
			c0.1-0.455,0.385-0.854,0.781-1.098s0.885-0.313,1.334-0.196c0.029,0.008,0.07,0.017,0.113-0.039l0.77-1.063
			c0.025-0.034,0.027-0.082,0.004-0.118c-0.252-0.393-0.332-0.877-0.223-1.329c0.107-0.453,0.4-0.846,0.803-1.081
			c0.037-0.022,0.059-0.064,0.053-0.107l-0.205-1.297c-0.006-0.041-0.039-0.077-0.082-0.086c-0.455-0.101-0.854-0.386-1.098-0.782
			c-0.242-0.397-0.313-0.883-0.195-1.333c0.012-0.04-0.006-0.086-0.039-0.112l-1.061-0.772c-0.059-0.043-0.096-0.02-0.121-0.004
			c-0.387,0.25-0.877,0.335-1.328,0.225c-0.453-0.108-0.846-0.402-1.082-0.805c-0.02-0.037-0.064-0.057-0.105-0.051l-1.297,0.204
			C69.047,53.024,69.012,53.057,69.004,53.098z M73.055,57.583c0.219,1.39-0.732,2.697-2.123,2.916
			c-1.389,0.22-2.697-0.733-2.916-2.124c-0.217-1.388,0.73-2.697,2.123-2.917C71.527,55.24,72.836,56.192,73.055,57.583z"/>
	</g>
</g>
</svg>