<?xml version="1.0" encoding="utf-8"?>
<!DOCTYPE svg PUBLIC "-//W3C//DTD SVG 1.1//EN" "http://www.w3.org/Graphics/SVG/1.1/DTD/svg11.dtd">
<svg xmlns="http://www.w3.org/2000/svg" xmlns:xlink="http://www.w3.org/1999/xlink" viewBox="0 0 126 126">
<g>
	<g>
		<path d="M50.574,90.934c0-1.728-1.321-2.643-3.658-2.643c-1.118,0-1.762,0.068-2.202,0.136v5.318h1.694
			C49.118,93.745,50.574,92.627,50.574,90.934z"/>
		<path d="M46.476,97.438h-1.762v6.437c0.508,0.067,1.118,0.067,1.999,0.067c2.337,0,4.403-0.881,4.403-3.286
			C51.116,98.353,49.05,97.438,46.476,97.438z"/>
		<path d="M99.98,36.446c-0.006-0.468-0.154-0.93-0.475-1.295L79.838,12.687c-0.004-0.006-0.01-0.008-0.016-0.014
			c-0.117-0.131-0.252-0.239-0.396-0.334c-0.043-0.028-0.086-0.053-0.131-0.078c-0.127-0.068-0.258-0.124-0.395-0.165
			c-0.037-0.011-0.07-0.026-0.107-0.036c-0.15-0.035-0.303-0.057-0.459-0.057H30c-2.205,0-4,1.795-4,4v94c0,2.206,1.795,4,4,4h66
			c2.207,0,4-1.794,4-4V36.67C100,36.595,99.988,36.521,99.98,36.446z M54.165,105.703c-1.66,1.321-4.438,2.066-8.977,2.066
			c-2.541,0-4.438-0.17-5.589-0.339V85.006c1.355-0.271,4.099-0.475,6.673-0.475c3.15,0,5.081,0.305,6.741,1.287
			c1.592,0.848,2.744,2.405,2.744,4.472c0,2.032-1.186,3.93-3.76,4.878v0.067c2.608,0.712,4.539,2.677,4.539,5.624
			C56.536,102.926,55.588,104.551,54.165,105.703z M65.245,107.532h-5.183V84.701h5.183V107.532z M88.619,107.532h-5.42
			l-4.878-8.808c-1.355-2.438-2.846-5.386-3.963-8.062l-0.102,0.033c0.135,3.015,0.203,6.233,0.203,9.959v6.877h-4.742V84.701h6.03
			l4.742,8.366c1.355,2.405,2.71,5.251,3.726,7.825h0.102c-0.338-3.015-0.44-6.098-0.44-9.519v-6.673h4.742V107.532z M30,79.92
			V16.003h46.334v20.466c0,1.104,0.895,2,2,2H96l0.002,41.451H30z"/>
	</g>
	<g>
		<path d="M48.153,48.822c0-4.4,3.569-7.968,7.97-7.968c2.5,0,4.728,1.151,6.189,2.951h13.416
			c-2.235-8.755-10.15-15.235-19.604-15.235c-11.187,0-20.257,9.065-20.257,20.252c0,11.189,9.07,20.26,20.257,20.26
			c0.219,0,0.432-0.025,0.649-0.033V56.762c-0.215,0.018-0.431,0.033-0.65,0.033C51.722,56.795,48.153,53.227,48.153,48.822z
			 M62.224,31.043l-4.401,8.981c-0.855-0.331-1.698-0.154-1.698-0.154l-2.546-9.432C53.579,30.438,56.954,28.925,62.224,31.043z"/>
		<path d="M49.772,48.825c0-3.503,2.85-6.355,6.353-6.355c1.462,0,2.808,0.502,3.883,1.336h0.891
			c-1.245-1.185-2.924-1.918-4.774-1.918c-3.823,0-6.934,3.112-6.934,6.938c0,3.824,3.111,6.935,6.934,6.935
			c0.219,0,0.435-0.013,0.649-0.033v-0.58c-0.213,0.021-0.43,0.033-0.649,0.033C52.622,55.18,49.772,52.328,49.772,48.825z"/>
		<path d="M52.87,48.822c0,1.797,1.46,3.256,3.254,3.256c0.222,0,0.439-0.023,0.649-0.065v-0.604
			c-0.209,0.053-0.424,0.089-0.649,0.089c-1.474,0-2.673-1.2-2.673-2.675c0-1.474,1.199-2.673,2.673-2.673
			c0.225,0,0.44,0.036,0.649,0.089v-0.605c-0.21-0.043-0.427-0.065-0.649-0.065C54.33,45.567,52.87,47.027,52.87,48.822z"/>
		<path d="M58.485,45.317v25.286h26.712V45.317H58.485z M82.75,64.486h-0.978c-0.931-2.357-2.07-4.826-3.665-4.418
			c-1.493,0.381-2.488,2.817-2.99,4.418h-0.734c-0.546-1.956-1.775-5.49-3.981-7.697c-2.498-2.498-4.935,4.563-5.863,7.697h-3.606
			V47.765H82.75V64.486z"/>
		<circle cx="64.145" cy="51.988" r="1.969"/>
		<path d="M76.09,55.224c0.398,0,0.771-0.041,1.102-0.108c0.385,0.165,0.854,0.264,1.363,0.264c1.301,0,2.357-0.636,2.357-1.422
			s-1.057-1.424-2.357-1.424c-0.49,0-0.942,0.092-1.32,0.244c-0.153-0.15-0.362-0.244-0.593-0.244h-0.341
			c-0.438,0-0.783,0.333-0.834,0.758c-1.057,0.108-1.839,0.489-1.839,0.946C73.628,54.781,74.73,55.224,76.09,55.224z"/>
	</g>
</g>
</svg>