<?xml version="1.0" encoding="utf-8"?>
<!DOCTYPE svg PUBLIC "-//W3C//DTD SVG 1.1//EN" "http://www.w3.org/Graphics/SVG/1.1/DTD/svg11.dtd">
<svg xmlns="http://www.w3.org/2000/svg" xmlns:xlink="http://www.w3.org/1999/xlink" viewBox="0 0 126 126">
<g>
	<path d="M41.141,97.425h-1.611v5.889c0.464,0.062,1.022,0.062,1.828,0.062c2.139,0,4.027-0.806,4.027-3.006
		C45.385,98.262,43.496,97.425,41.141,97.425z"/>
	<path d="M86.412,89.182c-0.961,0-1.612,0.094-1.952,0.188v6.166c0.402,0.093,0.897,0.123,1.579,0.123
		c2.511,0,4.061-1.27,4.061-3.408C90.1,90.328,88.767,89.182,86.412,89.182z"/>
	<path d="M99.98,36.402c-0.006-0.468-0.154-0.93-0.475-1.295L79.838,12.643c-0.004-0.006-0.01-0.008-0.016-0.014
		c-0.117-0.131-0.252-0.239-0.396-0.334c-0.043-0.028-0.086-0.053-0.131-0.078c-0.127-0.068-0.258-0.124-0.395-0.165
		c-0.037-0.011-0.07-0.026-0.107-0.036c-0.15-0.035-0.303-0.057-0.459-0.057H30c-2.205,0-4,1.795-4,4v94c0,2.206,1.795,4,4,4h66
		c2.207,0,4-1.794,4-4V36.626C100,36.551,99.988,36.477,99.98,36.402z M48.175,104.986c-1.519,1.209-4.06,1.891-8.213,1.891
		c-2.323,0-4.059-0.155-5.112-0.31V86.053c1.24-0.248,3.749-0.434,6.104-0.434c2.882,0,4.648,0.278,6.167,1.177
		c1.456,0.775,2.51,2.2,2.51,4.091c0,1.859-1.085,3.595-3.439,4.462v0.063c2.386,0.651,4.152,2.448,4.152,5.144
		C50.344,102.445,49.476,103.933,48.175,104.986z M71.538,106.66l-0.31-7.995c-0.093-2.51-0.186-5.547-0.186-8.584H70.95
		c-0.651,2.665-1.52,5.64-2.325,8.088l-2.541,8.149h-3.687l-2.231-8.087c-0.682-2.448-1.395-5.423-1.891-8.15h-0.062
		c-0.124,2.82-0.218,6.043-0.372,8.646l-0.372,7.934h-4.369l1.332-20.887h6.291l2.045,6.973c0.651,2.417,1.302,5.02,1.767,7.469
		h0.093c0.589-2.418,1.302-5.176,1.983-7.499l2.231-6.942h6.167l1.146,20.887H71.538z M92.857,97.085
		c-1.611,1.518-3.998,2.2-6.787,2.2c-0.619,0-1.178-0.031-1.61-0.093v7.468h-4.681V86.053c1.457-0.248,3.502-0.434,6.384-0.434
		c2.913,0,4.989,0.558,6.384,1.674c1.332,1.053,2.231,2.788,2.231,4.833C94.778,94.172,94.097,95.907,92.857,97.085z M30,79.876
		V15.959h46.334v20.466c0,1.104,0.895,2,2,2H96l0.002,41.451H30z"/>
	<path d="M44.89,91.476c0-1.58-1.208-2.417-3.347-2.417c-1.022,0-1.611,0.062-2.014,0.123v4.866h1.549
		C43.558,94.048,44.89,93.025,44.89,91.476z"/>
</g>
<g>
	<path d="M71.479,43.68c-0.737,0-1.417,0.135-1.987,0.366c-0.23-0.224-0.545-0.366-0.891-0.366h-0.516
		c-0.657,0-1.178,0.5-1.253,1.136c-1.591,0.167-2.771,0.741-2.771,1.43c0,0.819,1.66,1.481,3.709,1.481
		c0.599,0,1.158-0.063,1.657-0.16c0.579,0.248,1.285,0.397,2.051,0.397c1.962,0,3.55-0.961,3.55-2.142
		C75.029,44.64,73.441,43.68,71.479,43.68z"/>
	<path d="M49.786,39.891c-1.643,0-2.971,1.328-2.971,2.965c0,1.64,1.328,2.967,2.971,2.967c1.638,0,2.966-1.327,2.966-2.967
		C52.752,41.219,51.424,39.891,49.786,39.891z"/>
	<path d="M42.457,31.194v38.675h38.666V31.194H42.457z M77.929,58.195c0,1.471-0.566,2.803-1.482,3.785
		c-1.424-3.638-3.169-7.59-5.64-6.957c-3.133,0.801-4.811,7.604-5.049,8.639h-0.063c-0.237-1.127-2.049-9.131-6.488-13.578
		c-4.45-4.448-8.771,11.244-9.354,13.458c-2.4-0.523-4.201-2.718-4.201-5.347V40.61c0-3.017,2.374-5.465,5.305-5.465h21.667
		c2.931,0,5.306,2.448,5.306,5.465V58.195z"/>
</g>
</svg>