<?xml version="1.0" encoding="utf-8"?>
<!DOCTYPE svg PUBLIC "-//W3C//DTD SVG 1.1//EN" "http://www.w3.org/Graphics/SVG/1.1/DTD/svg11.dtd">
<svg xmlns="http://www.w3.org/2000/svg" xmlns:xlink="http://www.w3.org/1999/xlink" viewBox="0 0 126 126">
<g>
	<path d="M99.873,36.513c-0.006-0.468-0.154-0.93-0.475-1.295L79.73,12.753c-0.004-0.006-0.01-0.008-0.016-0.014
		c-0.117-0.131-0.252-0.239-0.396-0.334c-0.043-0.028-0.086-0.053-0.131-0.078c-0.127-0.068-0.258-0.124-0.395-0.165
		c-0.037-0.011-0.07-0.026-0.107-0.036c-0.15-0.035-0.303-0.057-0.459-0.057H29.893c-2.205,0-4,1.795-4,4v94c0,2.206,1.795,4,4,4h66
		c2.207,0,4-1.794,4-4V36.737C99.893,36.662,99.881,36.587,99.873,36.513z M45.748,102.875c1.414,0,2.982-0.308,3.902-0.676
		l0.707,3.656c-0.859,0.43-2.797,0.892-5.314,0.892c-7.16,0-10.85-4.456-10.85-10.355c0-7.069,5.041-11.003,11.309-11.003
		c2.43,0,4.271,0.493,5.102,0.924L49.65,90.03c-0.951-0.398-2.273-0.768-3.932-0.768c-3.719,0-6.607,2.243-6.607,6.853
		C39.111,100.263,41.568,102.875,45.748,102.875z M66.088,89.569h-7.959v4.733h7.438v3.811h-7.438v8.327h-4.701V85.729h12.66V89.569
		z M87.014,106.44l-0.309-7.929c-0.092-2.488-0.184-5.5-0.184-8.512H86.43c-0.646,2.644-1.506,5.594-2.305,8.021l-2.52,8.082h-3.658
		l-2.213-8.021c-0.676-2.427-1.381-5.377-1.873-8.081h-0.063c-0.123,2.797-0.215,5.992-0.367,8.574l-0.369,7.866h-4.334
		l1.322-20.711h6.238l2.027,6.914c0.646,2.396,1.291,4.978,1.752,7.405h0.092c0.584-2.397,1.291-5.133,1.967-7.437l2.213-6.883
		h6.115l1.137,20.711H87.014z M29.893,79.987V16.07h46.334v20.466c0,1.104,0.895,2,2,2h17.666l0.002,41.451H29.893z"/>
	<g>
		<path d="M45.953,52.577c2.893-0.041,3.225-1.612,3.225-2.935c0-1.075-0.125-2.191-0.248-3.308
			c-0.166-1.157-0.289-2.273-0.289-3.348c0-3.886,2.48-5.539,6.158-5.539h1.199v2.977h-0.744c-2.15,0-2.895,1.198-2.895,3.224
			c0,0.827,0.125,1.695,0.291,2.604c0.082,0.909,0.248,1.901,0.248,2.976c0.041,2.894-1.199,4.134-3.309,4.63v0.083
			c2.109,0.496,3.35,1.777,3.309,4.671c0,1.116-0.166,2.108-0.248,3.018c-0.166,0.909-0.291,1.777-0.291,2.604
			c0,2.066,0.828,3.265,2.895,3.265h0.744v2.936h-1.199c-3.596,0-6.158-1.488-6.158-5.663c0-1.033,0.123-2.191,0.289-3.307
			c0.123-1.116,0.248-2.191,0.248-3.266c0-1.199-0.332-2.894-3.225-2.936V52.577z"/>
		<path d="M76.957,55.263c-2.854,0.042-3.225,1.736-3.225,2.936c0,1.074,0.166,2.149,0.289,3.266
			c0.125,1.115,0.289,2.273,0.289,3.307c0,4.175-2.563,5.663-6.158,5.663h-1.199v-2.936h0.744c2.066-0.041,2.852-1.198,2.852-3.265
			c0-0.827-0.123-1.695-0.248-2.604c-0.123-0.909-0.248-1.901-0.248-3.018c-0.041-2.894,1.199-4.175,3.266-4.671v-0.083
			c-2.066-0.496-3.307-1.736-3.266-4.63c0-1.074,0.125-2.066,0.248-2.976c0.125-0.909,0.248-1.777,0.248-2.604
			c0-2.025-0.744-3.183-2.852-3.224h-0.744v-2.977h1.199c3.678,0,6.158,1.653,6.158,5.539c0,1.074-0.164,2.19-0.289,3.348
			c-0.123,1.116-0.289,2.232-0.289,3.308c0,1.322,0.371,2.894,3.225,2.935V55.263z"/>
	</g>
</g>
</svg>