<?xml version="1.0" encoding="utf-8"?>
<!DOCTYPE svg PUBLIC "-//W3C//DTD SVG 1.1//EN" "http://www.w3.org/Graphics/SVG/1.1/DTD/svg11.dtd">
<svg xmlns="http://www.w3.org/2000/svg" xmlns:xlink="http://www.w3.org/1999/xlink" viewBox="0 0 126 126">
<g>
	<path d="M99.873,36.544c-0.006-0.468-0.154-0.93-0.475-1.295L79.73,12.784c-0.004-0.006-0.01-0.008-0.016-0.014
		c-0.117-0.131-0.252-0.239-0.396-0.334c-0.043-0.028-0.086-0.053-0.131-0.078c-0.127-0.068-0.258-0.124-0.395-0.165
		c-0.037-0.011-0.07-0.026-0.107-0.036c-0.15-0.035-0.303-0.057-0.459-0.057H29.893c-2.205,0-4,1.795-4,4v94c0,2.206,1.795,4,4,4h66
		c2.207,0,4-1.794,4-4V36.768C99.893,36.692,99.881,36.618,99.873,36.544z M50.395,103.642c1.693,0,3.572-0.368,4.676-0.81
		l0.848,4.382c-1.031,0.515-3.352,1.067-6.369,1.067c-8.58,0-12.998-5.339-12.998-12.408c0-8.469,6.039-13.182,13.549-13.182
		c2.91,0,5.119,0.59,6.113,1.104l-1.143,4.456c-1.141-0.479-2.725-0.921-4.713-0.921c-4.455,0-7.916,2.688-7.916,8.211
		C42.441,100.513,45.387,103.642,50.395,103.642z M79.223,106.771c-1.73,0.589-5.006,1.399-8.283,1.399
		c-4.529,0-7.807-1.142-10.09-3.351c-2.281-2.136-3.533-5.376-3.496-9.021c0.035-8.248,6.037-12.961,14.174-12.961
		c3.203,0,5.672,0.626,6.887,1.215l-1.18,4.492c-1.361-0.589-3.055-1.067-5.779-1.067c-4.676,0-8.211,2.65-8.211,8.026
		c0,5.118,3.203,8.137,7.805,8.137c1.289,0,2.32-0.146,2.762-0.368v-5.191h-3.828v-4.381h9.24V106.771z M89.236,107.913h-5.635
		V83.097h5.635V107.913z M29.893,80.018V16.101h46.334v20.466c0,1.104,0.895,2,2,2h17.666l0.002,41.451H29.893z"/>
	<g>
		<path d="M76.939,58.481l2.109-7.045c0.072-0.243,0.086-0.488,0.053-0.725l0.545-1.674c0.084-0.276-0.029-0.525-0.232-0.732
			c0.027-0.053,0.064-0.096,0.084-0.155c0.133-0.423-0.105-0.873-0.529-1.006l-0.713-0.224c-0.422-0.129-0.875,0.105-1.006,0.528
			c-0.014,0.042-0.008,0.085-0.014,0.127c-0.262,0.04-0.475,0.152-0.557,0.413l-0.494,1.739c-0.197,0.195-0.354,0.435-0.438,0.72
			l-2.111,7.045c-0.109,0.365-0.086,0.736,0.033,1.07l-2.871,10.077c-0.189,0.622-0.553,3.385,0.07,3.576
			c0.623,0.188,1.994-2.265,2.184-2.887l3.23-9.946C76.586,59.171,76.824,58.864,76.939,58.481z"/>
		<path d="M39.809,38.397l25.396-9.462l8.324,22.342c0.113-0.289,0.252-0.567,0.436-0.821l0.379-1.327
			c0.074-0.24,0.182-0.457,0.309-0.657L66.4,26.321L37.195,37.203l14.166,38.02l17.396-6.482l0.691-2.427l-16.895,6.295
			L39.809,38.397z"/>
		<path d="M78.828,59.677l-0.324,1.084c-0.166,0.552-0.451,1.047-0.836,1.462l-0.029,0.086l0.313,0.837l-0.664,0.248l-0.803,2.468
			l4.082-1.521L78.828,59.677z"/>
		<path d="M62.813,49.382c0.172-0.193,0.402-0.308,0.648-0.325l0.174-0.011l0.199,0.063c0.156,0.057,0.285,0.043,0.396-0.014
			c0.119-0.059,0.213-0.168,0.252-0.291c0.113-0.356,0.416-0.6,0.779-0.648l-0.045-0.68c-0.006-0.071-0.057-0.135-0.125-0.158
			c-0.74-0.233-1.359-0.764-1.701-1.457c-0.344-0.695-0.391-1.513-0.129-2.241c0.025-0.066,0.006-0.145-0.047-0.191l-1.645-1.438
			c-0.092-0.08-0.15-0.048-0.199-0.023c-0.68,0.356-1.5,0.422-2.234,0.171c-0.734-0.246-1.342-0.792-1.674-1.494
			c-0.029-0.063-0.098-0.104-0.172-0.099l-2.176,0.146c-0.072,0.003-0.135,0.054-0.158,0.12c-0.232,0.74-0.764,1.361-1.457,1.703
			c-0.691,0.345-1.514,0.391-2.242,0.125c-0.045-0.014-0.111-0.038-0.191,0.052l-1.439,1.644c-0.047,0.055-0.057,0.135-0.021,0.198
			c0.357,0.687,0.42,1.501,0.172,2.235c-0.248,0.733-0.791,1.342-1.494,1.672c-0.066,0.03-0.105,0.098-0.102,0.172l0.146,2.18
			c0.004,0.071,0.053,0.132,0.121,0.155c0.74,0.233,1.359,0.765,1.705,1.458c0.342,0.693,0.387,1.513,0.123,2.241
			c-0.023,0.067-0.004,0.145,0.051,0.191l1.645,1.44c0.09,0.078,0.15,0.046,0.197,0.021c0.35-0.183,0.732-0.29,1.129-0.317
			c0.379-0.024,0.75,0.022,1.107,0.146c0.734,0.248,1.342,0.791,1.672,1.493c0.031,0.064,0.1,0.104,0.172,0.1l2.178-0.145
			c0.074-0.005,0.135-0.054,0.156-0.121c0.234-0.74,0.764-1.36,1.459-1.703c0.678-0.334,1.467-0.385,2.178-0.147
			c0.004-0.091,0.021-0.185,0.053-0.274c0.047-0.129,0.039-0.271-0.02-0.389c-0.057-0.114-0.164-0.207-0.291-0.246
			c-0.377-0.124-0.635-0.454-0.66-0.845l-0.068-1.032c-0.027-0.39,0.184-0.751,0.537-0.921c0.125-0.06,0.221-0.165,0.262-0.288
			s0.029-0.265-0.029-0.379c-0.18-0.349-0.127-0.775,0.127-1.068L62.813,49.382z M57.053,53.369
			c-2.336,0.155-4.363-1.619-4.518-3.955c-0.158-2.335,1.615-4.365,3.953-4.521c2.338-0.156,4.365,1.62,4.521,3.956
			S59.391,53.213,57.053,53.369z"/>
		<path d="M69.838,51.983c-0.35-0.111-0.643-0.363-0.805-0.691c-0.164-0.33-0.186-0.716-0.061-1.062
			c0.012-0.031,0.002-0.068-0.023-0.091l-0.777-0.682c-0.045-0.038-0.074-0.021-0.096-0.012c-0.32,0.169-0.713,0.201-1.059,0.083
			c-0.348-0.118-0.637-0.376-0.793-0.709c-0.014-0.03-0.047-0.05-0.08-0.048l-1.033,0.07c-0.033,0.003-0.064,0.025-0.072,0.057
			c-0.111,0.35-0.363,0.646-0.691,0.808c-0.328,0.163-0.717,0.185-1.061,0.059c-0.023-0.007-0.055-0.019-0.092,0.024l-0.684,0.777
			c-0.021,0.026-0.027,0.066-0.012,0.096c0.172,0.325,0.199,0.711,0.084,1.059c-0.119,0.348-0.375,0.636-0.707,0.792
			c-0.031,0.014-0.053,0.047-0.051,0.082l0.07,1.032c0.002,0.034,0.025,0.063,0.059,0.073c0.35,0.111,0.645,0.363,0.805,0.691
			c0.164,0.328,0.188,0.716,0.063,1.062c-0.012,0.032-0.002,0.067,0.021,0.091l0.781,0.683c0.043,0.037,0.07,0.021,0.092,0.01
			c0.166-0.086,0.348-0.138,0.537-0.15c0.178-0.012,0.354,0.013,0.521,0.069c0.348,0.116,0.639,0.376,0.793,0.708
			c0.014,0.031,0.049,0.049,0.082,0.047l1.031-0.069c0.033-0.002,0.064-0.024,0.074-0.056c0.111-0.352,0.361-0.646,0.691-0.808
			c0.328-0.163,0.717-0.184,1.063-0.06c0.021,0.008,0.053,0.018,0.09-0.022l0.682-0.78c0.021-0.025,0.025-0.063,0.012-0.094
			c-0.17-0.325-0.201-0.712-0.082-1.06c0.117-0.349,0.373-0.636,0.707-0.792c0.031-0.016,0.051-0.047,0.049-0.081l-0.068-1.032
			C69.895,52.023,69.871,51.993,69.838,51.983z M66.029,54.85c-1.105,0.075-2.066-0.767-2.141-1.874
			c-0.072-1.105,0.766-2.068,1.875-2.143c1.105-0.071,2.066,0.769,2.141,1.876S67.139,54.776,66.029,54.85z"/>
	</g>
</g>
</svg>