<?xml version="1.0" encoding="utf-8"?>
<!DOCTYPE svg PUBLIC "-//W3C//DTD SVG 1.1//EN" "http://www.w3.org/Graphics/SVG/1.1/DTD/svg11.dtd">
<svg xmlns="http://www.w3.org/2000/svg" xmlns:xlink="http://www.w3.org/1999/xlink" viewBox="0 0 126 126">
<g>
	<path d="M99.979,36.445c-0.004-0.469-0.154-0.93-0.475-1.295L79.838,12.686c-0.006-0.006-0.012-0.008-0.016-0.014
		c-0.117-0.131-0.254-0.24-0.398-0.334c-0.043-0.029-0.086-0.053-0.131-0.078c-0.125-0.068-0.258-0.125-0.395-0.166
		c-0.037-0.01-0.07-0.025-0.107-0.035c-0.148-0.035-0.303-0.057-0.459-0.057H30c-2.207,0-4,1.795-4,4v94c0,2.205,1.793,4,4,4h66
		c2.205,0,4-1.795,4-4V36.668C100,36.594,99.988,36.52,99.979,36.445z M46.965,105.01c1.655,0,3.491-0.359,4.571-0.793l0.827,4.285
		c-1.008,0.504-3.275,1.043-6.227,1.043c-8.387,0-12.707-5.219-12.707-12.131c0-8.279,5.904-12.887,13.247-12.887
		c2.843,0,5.003,0.576,5.976,1.08l-1.116,4.355c-1.116-0.467-2.663-0.898-4.607-0.898c-4.355,0-7.739,2.627-7.739,8.025
		C39.189,101.949,42.069,105.01,46.965,105.01z M61.904,109.545c-2.771,0-5.507-0.721-6.875-1.477l1.116-4.535
		c1.476,0.756,3.743,1.512,6.083,1.512c2.52,0,3.852-1.043,3.852-2.627c0-1.512-1.152-2.375-4.067-3.42
		c-4.031-1.404-6.659-3.635-6.659-7.162c0-4.141,3.455-7.309,9.18-7.309c2.734,0,4.75,0.576,6.19,1.225L69.5,90.18
		c-0.973-0.469-2.699-1.152-5.076-1.152c-2.375,0-3.527,1.08-3.527,2.34c0,1.549,1.368,2.232,4.5,3.42
		c4.283,1.584,6.299,3.814,6.299,7.234C71.695,106.09,68.564,109.545,61.904,109.545z M81.345,109.545
		c-2.771,0-5.507-0.721-6.875-1.477l1.116-4.535c1.475,0.756,3.743,1.512,6.082,1.512c2.521,0,3.852-1.043,3.852-2.627
		c0-1.512-1.151-2.375-4.066-3.42c-4.031-1.404-6.66-3.635-6.66-7.162c0-4.141,3.456-7.309,9.18-7.309
		c2.735,0,4.751,0.576,6.191,1.225l-1.225,4.428c-0.972-0.469-2.699-1.152-5.075-1.152s-3.527,1.08-3.527,2.34
		c0,1.549,1.368,2.232,4.499,3.42c4.283,1.584,6.3,3.814,6.3,7.234C91.136,106.09,88.004,109.545,81.345,109.545z M96,79.918H30
		V16.002h46.332v20.465c0,1.105,0.896,2,2,2H96V79.918z"/>
	<path d="M49.195,40.719c0,1.225,0.176,2.402,0.351,3.625c0.175,1.219,0.349,2.441,0.349,3.664c0,1.529-0.436,3.23-3.535,3.23v2.227
		c3.1,0,3.535,1.877,3.535,3.23c0,1.182-0.174,2.357-0.349,3.537s-0.351,2.398-0.351,3.578c0,4.408,2.707,5.982,6.331,5.982h0.917
		v-2.402h-0.785c-2.445,0-3.45-1.354-3.45-3.797c0-1.047,0.132-2.053,0.306-3.146c0.175-1.045,0.306-2.135,0.306-3.314
		c0.045-2.795-1.179-4.279-3.144-4.76v-0.084c1.965-0.527,3.188-1.924,3.144-4.717c0-1.178-0.131-2.227-0.306-3.316
		c-0.174-1.049-0.306-2.098-0.306-3.1c0-2.357,0.872-3.754,3.45-3.754h0.785V35h-0.917C51.816,35,49.195,36.703,49.195,40.719z"/>
	<path d="M74.438,48.008c0-1.223,0.176-2.445,0.35-3.664c0.175-1.223,0.35-2.4,0.35-3.625c0-4.016-2.664-5.719-6.374-5.719H67.89
		v2.402h0.786c2.533,0.043,3.449,1.396,3.449,3.754c0,1.002-0.176,2.051-0.305,3.1c-0.178,1.09-0.352,2.139-0.352,3.316
		c0,2.793,1.223,4.189,3.145,4.717v0.084c-1.922,0.48-3.145,1.965-3.145,4.76c0,1.18,0.174,2.27,0.352,3.314
		c0.129,1.094,0.305,2.1,0.305,3.146c0,2.443-1.049,3.754-3.492,3.797H67.89v2.402h0.917c3.58,0,6.33-1.574,6.33-5.982
		c0-1.18-0.175-2.398-0.35-3.578c-0.174-1.18-0.35-2.355-0.35-3.537c0-1.354,0.438-3.23,3.537-3.23v-2.227
		C74.875,51.238,74.438,49.537,74.438,48.008z"/>
</g>
</svg>