<?xml version="1.0" encoding="utf-8"?>
<!DOCTYPE svg PUBLIC "-//W3C//DTD SVG 1.1//EN" "http://www.w3.org/Graphics/SVG/1.1/DTD/svg11.dtd">
<svg xmlns="http://www.w3.org/2000/svg" xmlns:xlink="http://www.w3.org/1999/xlink" viewBox="0 0 126 126">
<g>
	<path d="M99.979,36.443c-0.004-0.467-0.154-0.93-0.475-1.295L79.838,12.683c-0.006-0.006-0.012-0.008-0.016-0.014
		c-0.117-0.131-0.254-0.238-0.398-0.334c-0.043-0.027-0.086-0.053-0.131-0.078c-0.125-0.068-0.258-0.123-0.395-0.164
		c-0.037-0.012-0.07-0.027-0.107-0.037C78.643,12.021,78.488,12,78.332,12H30c-2.207,0-4,1.795-4,4v94c0,2.205,1.793,4,4,4h66
		c2.205,0,4-1.795,4-4V36.667C100,36.591,99.988,36.517,99.979,36.443z M45.537,103.791c1.654,0,3.49-0.359,4.57-0.791l0.828,4.283
		c-1.008,0.504-3.275,1.045-6.227,1.045c-8.387,0-12.707-5.221-12.707-12.131c0-8.279,5.904-12.887,13.246-12.887
		c2.844,0,5.004,0.576,5.977,1.08l-1.117,4.355c-1.115-0.467-2.664-0.898-4.607-0.898c-4.355,0-7.738,2.627-7.738,8.025
		C37.762,100.732,40.641,103.791,45.537,103.791z M60.477,108.328c-2.771,0-5.508-0.721-6.875-1.477l1.115-4.535
		c1.477,0.756,3.744,1.512,6.084,1.512c2.52,0,3.852-1.045,3.852-2.629c0-1.512-1.152-2.375-4.068-3.418
		c-4.031-1.404-6.658-3.635-6.658-7.162c0-4.141,3.455-7.309,9.178-7.309c2.736,0,4.752,0.576,6.191,1.225l-1.223,4.428
		c-0.973-0.469-2.699-1.152-5.076-1.152c-2.375,0-3.527,1.08-3.527,2.34c0,1.549,1.367,2.232,4.5,3.42
		c4.283,1.584,6.299,3.814,6.299,7.234C70.268,104.871,67.137,108.328,60.477,108.328z M86.107,107.966h-6.406l-7.775-24.26h6.012
		l2.951,10.26c0.828,2.879,1.584,5.65,2.16,8.674h0.107c0.611-2.916,1.367-5.795,2.195-8.566l3.096-10.367h5.832L86.107,107.966z
		 M30,79.917V16h46.332v20.467c0,1.104,0.896,2,2,2H96v41.451H30z"/>
	<path d="M81.85,43.492H69.6h-0.428h-12.25l0,0H44.885v5.412v0.406v5.006v0.428v4.986v0.426v5.412h12.678l0,0h24.309V48.404H81.85
		V43.492z M57.135,65.142H45.313v-4.986h11.822V65.142z M57.135,59.73H45.313v-4.986h11.822V59.73z M57.135,54.316H45.313v-4.984
		h11.609h0.213V54.316z M57.35,48.904v-4.984h11.822v4.984H57.563H57.35z M81.371,65.068h-4.668V50.791h-3.205v14.277h-2.67v-11.32
		h-3.205v11.32h-2.352v-8.4h-3.205v8.4h-4.504v-4.912V59.73v-4.986v-0.428v-4.984h11.609H69.6h11.771V65.068z M81.422,48.404h-0.051
		v0.5H69.6v-4.984h11.822V48.404z"/>
</g>
</svg>