<?xml version="1.0" encoding="utf-8"?>
<!DOCTYPE svg PUBLIC "-//W3C//DTD SVG 1.1//EN" "http://www.w3.org/Graphics/SVG/1.1/DTD/svg11.dtd">
<svg xmlns="http://www.w3.org/2000/svg" xmlns:xlink="http://www.w3.org/1999/xlink" viewBox="0 0 126 126">
<g>
	<path d="M42.653,88.977c-1.111,0-1.83,0.099-2.254,0.196v14.407c0.425,0.098,1.111,0.098,1.731,0.098
		c4.509,0.033,7.449-2.45,7.449-7.71C49.611,91.395,46.933,88.977,42.653,88.977z"/>
	<path d="M65.853,89.042h-0.065c-0.327,1.307-0.653,2.973-1.013,4.247l-1.307,4.672h4.868l-1.372-4.672
		C66.571,91.982,66.179,90.349,65.853,89.042z"/>
	<path d="M99.98,36.443c-0.006-0.468-0.154-0.93-0.475-1.295L79.838,12.684c-0.004-0.006-0.01-0.008-0.016-0.014
		c-0.117-0.131-0.252-0.239-0.396-0.334c-0.043-0.028-0.086-0.053-0.131-0.078c-0.127-0.068-0.258-0.124-0.395-0.165
		c-0.037-0.011-0.07-0.026-0.107-0.036C78.643,12.021,78.49,12,78.334,12H30c-2.205,0-4,1.795-4,4v94c0,2.206,1.795,4,4,4h66
		c2.207,0,4-1.794,4-4V36.667C100,36.592,99.988,36.518,99.98,36.443z M51.212,104.724c-2.319,1.927-5.848,2.842-10.16,2.842
		c-2.581,0-4.411-0.163-5.652-0.326V85.612c1.83-0.294,4.214-0.458,6.729-0.458c4.182,0,6.894,0.752,9.017,2.353
		c2.287,1.699,3.724,4.41,3.724,8.298C54.871,100.02,53.335,102.927,51.212,104.724z M70.753,107.337l-1.699-5.651h-6.305
		l-1.568,5.651h-5.162l6.73-22.019h6.534l6.828,22.019H70.753z M91.6,89.5h-6.011v17.837H80.59V89.5h-5.913v-4.182H91.6V89.5z
		 M30,79.917V16h46.334v20.466c0,1.104,0.895,2,2,2H96l0.002,41.451H30z"/>
	<path d="M67.203,54.434c0.528-1.273,1.566-2.289,2.853-2.792c0.115-0.047,0.198-0.16,0.198-0.289v-3.885
		c0-0.127-0.083-0.248-0.198-0.296c-1.287-0.502-2.325-1.519-2.853-2.79c-0.524-1.273-0.512-2.729,0.042-3.99
		c0.051-0.114,0.023-0.258-0.064-0.349l-2.747-2.747c-0.152-0.149-0.268-0.103-0.353-0.068c-1.25,0.552-2.717,0.574-3.986,0.043
		c-1.276-0.525-2.292-1.566-2.794-2.851c-0.046-0.116-0.162-0.197-0.29-0.197h-3.884c-0.128,0-0.249,0.081-0.293,0.197
		c-0.499,1.284-1.52,2.325-2.789,2.851c-1.271,0.531-2.734,0.513-3.994-0.043c-0.08-0.031-0.193-0.081-0.347,0.068l-2.75,2.747
		c-0.088,0.091-0.116,0.234-0.066,0.352c0.559,1.261,0.568,2.714,0.042,3.987c-0.526,1.271-1.564,2.288-2.848,2.79
		c-0.121,0.048-0.204,0.161-0.204,0.296v3.885c0,0.129,0.083,0.242,0.204,0.289c1.283,0.503,2.321,1.519,2.848,2.792
		c0.526,1.272,0.517,2.729-0.042,3.994c-0.05,0.113-0.022,0.252,0.066,0.344l2.75,2.751c0.154,0.15,0.264,0.101,0.347,0.063
		c0.647-0.283,1.333-0.43,2.044-0.43c0.671,0,1.325,0.132,1.944,0.389c1.274,0.528,2.295,1.565,2.794,2.85
		c0.044,0.118,0.166,0.198,0.293,0.198h3.884c0.127,0,0.243-0.077,0.29-0.198c0.502-1.284,1.518-2.321,2.794-2.85
		c1.272-0.528,2.732-0.51,3.992,0.041c0.083,0.038,0.194,0.084,0.347-0.063l2.747-2.751c0.088-0.092,0.116-0.23,0.064-0.344
		C66.691,57.163,66.678,55.706,67.203,54.434z M55.067,56.964c-4.17,0-7.553-3.389-7.553-7.558c0-4.163,3.383-7.558,7.553-7.558
		c4.168,0,7.557,3.395,7.557,7.558C62.624,53.575,59.235,56.964,55.067,56.964z"/>
	<path d="M83.07,59.733c-0.646-0.252-1.167-0.763-1.433-1.4c-0.264-0.64-0.257-1.369,0.021-2.004
		c0.025-0.058,0.012-0.128-0.033-0.176l-1.379-1.378c-0.076-0.076-0.134-0.052-0.177-0.034c-0.627,0.277-1.365,0.288-2.001,0.021
		c-0.641-0.264-1.151-0.787-1.403-1.431c-0.023-0.06-0.082-0.1-0.146-0.1h-1.95c-0.064,0-0.125,0.04-0.147,0.1
		c-0.251,0.644-0.763,1.167-1.401,1.431c-0.638,0.267-1.373,0.258-2.004-0.021c-0.04-0.017-0.097-0.042-0.174,0.034l-1.381,1.378
		c-0.044,0.048-0.059,0.118-0.033,0.179c0.281,0.632,0.285,1.361,0.021,2.001c-0.264,0.638-0.785,1.148-1.429,1.4
		c-0.061,0.024-0.102,0.082-0.102,0.149v1.951c0,0.064,0.041,0.121,0.102,0.145c0.644,0.251,1.165,0.762,1.429,1.402
		c0.265,0.637,0.26,1.369-0.021,2.004c-0.025,0.057-0.011,0.127,0.033,0.174l1.381,1.381c0.078,0.074,0.133,0.05,0.174,0.03
		c0.325-0.142,0.669-0.215,1.026-0.215c0.337,0,0.666,0.065,0.976,0.195c0.64,0.264,1.152,0.786,1.403,1.43
		c0.022,0.06,0.083,0.1,0.147,0.1h1.95c0.064,0,0.123-0.039,0.146-0.1c0.252-0.644,0.762-1.166,1.403-1.43
		c0.639-0.266,1.371-0.257,2.004,0.02c0.042,0.02,0.098,0.043,0.174-0.03l1.379-1.381c0.045-0.047,0.058-0.117,0.033-0.174
		c-0.278-0.635-0.285-1.367-0.021-2.004c0.265-0.641,0.786-1.151,1.433-1.402c0.058-0.023,0.099-0.08,0.099-0.145v-1.951
		C83.168,59.819,83.127,59.758,83.07,59.733z M75.544,64.65c-2.094,0-3.792-1.702-3.792-3.795c0-2.091,1.698-3.795,3.792-3.795
		c2.092,0,3.793,1.704,3.793,3.795C79.338,62.948,77.637,64.65,75.544,64.65z"/>
</g>
</svg>