<?xml version="1.0" encoding="utf-8"?>
<!DOCTYPE svg PUBLIC "-//W3C//DTD SVG 1.1//EN" "http://www.w3.org/Graphics/SVG/1.1/DTD/svg11.dtd">
<svg xmlns="http://www.w3.org/2000/svg" xmlns:xlink="http://www.w3.org/1999/xlink" viewBox="0 0 126 126">
<g>
	<path d="M73.396,97.332h-1.871v6.84c0.539,0.072,1.188,0.072,2.123,0.072c2.484,0,4.68-0.936,4.68-3.492
		C78.328,98.305,76.133,97.332,73.396,97.332z"/>
	<path d="M77.752,90.422c0-1.836-1.404-2.809-3.887-2.809c-1.189,0-1.873,0.072-2.34,0.145v5.65h1.799
		C76.203,93.408,77.752,92.221,77.752,90.422z"/>
	<path d="M49.023,87.83c-1.223,0-2.016,0.107-2.482,0.215v15.875c0.467,0.107,1.223,0.107,1.908,0.107
		c4.967,0.037,8.205-2.699,8.205-8.494C56.691,90.494,53.74,87.83,49.023,87.83z"/>
	<path d="M99.98,36.442c-0.006-0.468-0.154-0.929-0.475-1.295L79.838,12.682c-0.004-0.005-0.01-0.008-0.016-0.013
		c-0.117-0.132-0.252-0.239-0.396-0.334c-0.043-0.028-0.086-0.054-0.131-0.078c-0.127-0.069-0.258-0.124-0.395-0.165
		c-0.037-0.011-0.07-0.027-0.107-0.035C78.643,12.021,78.49,12,78.334,12H30c-2.205,0-4,1.794-4,4v94c0,2.205,1.795,4,4,4h66
		c2.207,0,4-1.795,4-4V36.666C100,36.591,99.988,36.517,99.98,36.442z M58.455,105.18c-2.557,2.123-6.443,3.131-11.195,3.131
		c-2.844,0-4.859-0.18-6.227-0.359V84.123c2.016-0.324,4.643-0.506,7.416-0.506c4.607,0,7.594,0.828,9.934,2.592
		c2.52,1.873,4.104,4.859,4.104,9.145C62.486,99.996,60.795,103.199,58.455,105.18z M81.568,106.115
		c-1.766,1.404-4.717,2.195-9.539,2.195c-2.701,0-4.717-0.18-5.939-0.359V84.123c1.439-0.289,4.355-0.506,7.09-0.506
		c3.348,0,5.4,0.324,7.164,1.369c1.691,0.9,2.916,2.555,2.916,4.752c0,2.158-1.26,4.174-3.996,5.182v0.072
		c2.771,0.756,4.824,2.844,4.824,5.977C84.088,103.164,83.08,104.891,81.568,106.115z M30,79.916V16h46.334v20.465
		c0,1.104,0.895,2,2,2H96l0.002,41.451H30z"/>
	<path d="M73.047,37.993H49.4c-0.533,0-0.965,0.432-0.965,0.964v6.968c0,0.532,0.432,0.964,0.965,0.964h23.646
		c0.533,0,0.965-0.432,0.965-0.964v-6.968C74.012,38.425,73.58,37.993,73.047,37.993z"/>
	<path d="M73.047,49.074H49.4c-0.533,0-0.965,0.432-0.965,0.965v6.967c0,0.533,0.432,0.965,0.965,0.965h23.646
		c0.533,0,0.965-0.432,0.965-0.965v-6.967C74.012,49.505,73.58,49.074,73.047,49.074z"/>
	<path d="M73.047,60.085H49.4c-0.533,0-0.965,0.432-0.965,0.964v6.968c0,0.532,0.432,0.964,0.965,0.964h23.646
		c0.533,0,0.965-0.432,0.965-0.964v-6.968C74.012,60.517,73.58,60.085,73.047,60.085z"/>
</g>
</svg>