<?xml version="1.0" encoding="utf-8"?>
<!DOCTYPE svg PUBLIC "-//W3C//DTD SVG 1.1//EN" "http://www.w3.org/Graphics/SVG/1.1/DTD/svg11.dtd">
<svg xmlns="http://www.w3.org/2000/svg" xmlns:xlink="http://www.w3.org/1999/xlink" viewBox="0 0 126 126">
<g>
	<path d="M43.748,87.938c-1.223,0-2.016,0.107-2.482,0.215v15.875c0.467,0.107,1.223,0.107,1.908,0.107
		c4.967,0.036,8.205-2.699,8.205-8.494C51.416,90.601,48.465,87.938,43.748,87.938z"/>
	<path d="M99.98,36.443c-0.006-0.468-0.154-0.93-0.475-1.295L79.838,12.684c-0.004-0.006-0.01-0.008-0.016-0.014
		c-0.117-0.131-0.252-0.239-0.396-0.334c-0.043-0.028-0.086-0.053-0.131-0.078c-0.127-0.068-0.258-0.124-0.395-0.165
		c-0.037-0.011-0.07-0.026-0.107-0.036C78.643,12.021,78.49,12,78.334,12H30c-2.205,0-4,1.795-4,4v94c0,2.206,1.795,4,4,4h66
		c2.207,0,4-1.794,4-4V36.667C100,36.592,99.988,36.518,99.98,36.443z M53.18,105.287c-2.557,2.123-6.443,3.131-11.195,3.131
		c-2.844,0-4.859-0.18-6.227-0.359V84.229c2.016-0.323,4.643-0.504,7.416-0.504c4.607,0,7.594,0.828,9.934,2.592
		c2.52,1.872,4.104,4.859,4.104,9.143C57.211,100.104,55.52,103.307,53.18,105.287z M75.969,108.166H60.814v-24.26h5.506v19.652
		h9.648V108.166z M94.363,108.166H79.209v-24.26h5.508v19.652h9.646V108.166z M30,79.917V16h46.334v20.466c0,1.104,0.895,2,2,2H96
		l0.002,41.451H30z"/>
	<path d="M67.875,57.373c0.256-0.101,0.46-0.3,0.561-0.539c0.099-0.239,0.096-0.524-0.008-0.76
		c-0.314-0.718-0.152-1.564,0.396-2.114l1.463-1.463c0.369-0.365,0.844-0.563,1.34-0.563h0.344l0.392,0.151
		c0.305,0.133,0.563,0.122,0.794,0.026c0.246-0.102,0.445-0.306,0.538-0.548c0.278-0.696,0.912-1.14,1.643-1.19v-1.363
		c0-0.142-0.093-0.276-0.226-0.331c-1.443-0.564-2.611-1.706-3.204-3.136c-0.593-1.433-0.577-3.07,0.047-4.488
		c0.057-0.128,0.026-0.288-0.073-0.39l-3.091-3.088c-0.17-0.171-0.296-0.117-0.392-0.076c-1.406,0.622-3.053,0.644-4.484,0.047
		c-1.43-0.589-2.574-1.76-3.139-3.204c-0.052-0.131-0.182-0.222-0.327-0.222h-4.366c-0.146,0-0.278,0.091-0.33,0.222
		c-0.563,1.444-1.706,2.615-3.137,3.204c-1.426,0.597-3.07,0.579-4.489-0.047c-0.089-0.036-0.216-0.095-0.389,0.076l-3.091,3.088
		c-0.1,0.102-0.13,0.262-0.07,0.393c0.621,1.419,0.639,3.052,0.047,4.485c-0.593,1.43-1.761,2.571-3.207,3.136
		c-0.135,0.055-0.223,0.182-0.223,0.331v4.369c0,0.145,0.088,0.272,0.223,0.327c1.446,0.564,2.611,1.706,3.207,3.136
		c0.592,1.433,0.574,3.07-0.05,4.489c-0.057,0.13-0.026,0.287,0.073,0.389l3.091,3.091c0.173,0.171,0.295,0.113,0.392,0.07
		c0.725-0.317,1.499-0.481,2.296-0.481c0.757,0,1.492,0.146,2.188,0.437c1.433,0.593,2.576,1.76,3.139,3.204
		c0.052,0.131,0.185,0.222,0.33,0.222h4.366c0.147,0,0.275-0.087,0.327-0.222c0.564-1.444,1.706-2.611,3.139-3.204
		c1.395-0.576,2.978-0.571,4.364-0.003c0.02-0.184,0.066-0.367,0.143-0.543c0.11-0.248,0.113-0.533,0.013-0.775
		c-0.099-0.237-0.303-0.437-0.546-0.532c-0.74-0.297-1.21-0.99-1.21-1.771v-2.069C66.678,58.359,67.147,57.665,67.875,57.373z
		 M58.262,59.685c-4.683,0-8.491-3.809-8.491-8.493c0-4.681,3.809-8.497,8.491-8.497c4.687,0,8.498,3.815,8.498,8.497
		C66.76,55.876,62.948,59.685,58.262,59.685z"/>
	<path d="M83.182,57.499c-0.279-0.679-0.272-1.454,0.022-2.126c0.027-0.061,0.013-0.136-0.034-0.185l-1.463-1.463
		c-0.081-0.081-0.143-0.055-0.188-0.036c-0.666,0.294-1.447,0.306-2.123,0.023c-0.68-0.28-1.221-0.834-1.488-1.519
		c-0.024-0.062-0.086-0.105-0.154-0.105h-2.068c-0.068,0-0.133,0.043-0.156,0.105c-0.266,0.685-0.81,1.239-1.485,1.519
		c-0.677,0.283-1.456,0.273-2.127-0.023c-0.042-0.017-0.103-0.044-0.185,0.036l-1.465,1.463c-0.047,0.049-0.062,0.125-0.035,0.187
		c0.298,0.672,0.303,1.445,0.022,2.124c-0.28,0.677-0.833,1.218-1.517,1.486c-0.064,0.025-0.108,0.086-0.108,0.157v2.069
		c0,0.068,0.044,0.128,0.108,0.154c0.684,0.268,1.236,0.808,1.517,1.486c0.28,0.679,0.275,1.455-0.022,2.127
		c-0.026,0.062-0.012,0.136,0.035,0.184l1.465,1.465c0.082,0.081,0.141,0.054,0.185,0.033c0.345-0.15,0.71-0.228,1.089-0.228
		c0.357,0,0.706,0.069,1.035,0.207c0.679,0.281,1.223,0.834,1.488,1.518c0.023,0.063,0.088,0.105,0.156,0.105h2.068
		c0.068,0,0.13-0.042,0.154-0.105c0.268-0.684,0.809-1.237,1.488-1.518c0.678-0.281,1.455-0.272,2.126,0.021
		c0.044,0.021,0.104,0.045,0.185-0.033l1.463-1.465c0.047-0.048,0.062-0.122,0.034-0.184c-0.295-0.672-0.302-1.448-0.022-2.127
		c0.281-0.678,0.834-1.218,1.52-1.486c0.062-0.026,0.105-0.086,0.105-0.154v-2.069c0-0.068-0.044-0.132-0.105-0.157
		C84.016,58.717,83.463,58.176,83.182,57.499z M76.719,64.199c-2.221,0-4.022-1.804-4.022-4.024c0-2.218,1.802-4.025,4.022-4.025
		c2.22,0,4.024,1.808,4.024,4.025C80.743,62.395,78.938,64.199,76.719,64.199z"/>
</g>
</svg>