<?xml version="1.0" encoding="utf-8"?>
<!DOCTYPE svg PUBLIC "-//W3C//DTD SVG 1.1//EN" "http://www.w3.org/Graphics/SVG/1.1/DTD/svg11.dtd">
<svg xmlns="http://www.w3.org/2000/svg" xmlns:xlink="http://www.w3.org/1999/xlink" viewBox="0 0 126 126">
<g>
	<path d="M64.037,88.588c-3.441,0-5.447,3.275-5.447,7.652c0,4.412,2.072,7.52,5.48,7.52c3.443,0,5.414-3.275,5.414-7.653
		C69.484,92.063,67.547,88.588,64.037,88.588z"/>
	<path d="M38.402,88.654c-1.137,0-1.873,0.1-2.307,0.2v14.738c0.434,0.101,1.137,0.101,1.771,0.101
		c4.611,0.033,7.619-2.507,7.619-7.887C45.52,91.127,42.779,88.654,38.402,88.654z"/>
	<path d="M99.98,36.443c-0.006-0.468-0.154-0.93-0.475-1.295L79.838,12.684c-0.004-0.006-0.01-0.008-0.016-0.014
		c-0.117-0.131-0.252-0.239-0.396-0.334c-0.043-0.028-0.086-0.053-0.131-0.078c-0.127-0.068-0.258-0.124-0.395-0.165
		c-0.037-0.011-0.07-0.026-0.107-0.036C78.643,12.021,78.49,12,78.334,12H30c-2.205,0-4,1.795-4,4v94c0,2.206,1.795,4,4,4h66
		c2.207,0,4-1.794,4-4V36.667C100,36.592,99.988,36.518,99.98,36.443z M47.158,104.762c-2.373,1.973-5.982,2.908-10.395,2.908
		c-2.641,0-4.512-0.168-5.781-0.334V85.213c1.871-0.301,4.311-0.469,6.885-0.469c4.277,0,7.051,0.77,9.223,2.406
		c2.34,1.738,3.811,4.512,3.811,8.488C50.9,99.95,49.33,102.924,47.158,104.762z M63.803,107.804
		c-6.684,0-10.594-5.046-10.594-11.463c0-6.751,4.311-11.797,10.961-11.797c6.918,0,10.695,5.18,10.695,11.396
		C74.865,103.326,70.387,107.804,63.803,107.804z M89.738,103.56c1.537,0,3.242-0.335,4.244-0.735l0.77,3.977
		c-0.936,0.469-3.041,0.969-5.781,0.969c-7.787,0-11.797-4.846-11.797-11.262c0-7.686,5.48-11.964,12.297-11.964
		c2.641,0,4.646,0.534,5.549,1.003l-1.037,4.043c-1.035-0.434-2.473-0.836-4.277-0.836c-4.043,0-7.186,2.44-7.186,7.453
		C82.52,100.719,85.193,103.56,89.738,103.56z M30,79.917V16h46.334v20.466c0,1.104,0.895,2,2,2H96l0.002,41.451H30z"/>
	<path d="M57.93,39.611h14.555c0.73,0,1.324-0.593,1.324-1.325c0-0.732-0.594-1.325-1.324-1.325H57.93
		c-0.732,0-1.323,0.593-1.323,1.325C56.606,39.018,57.197,39.611,57.93,39.611z"/>
	<path d="M79.604,47.56H43.396c-0.732,0-1.326,0.593-1.326,1.325s0.594,1.324,1.326,1.324h36.207c0.733,0,1.326-0.592,1.326-1.324
		S80.337,47.56,79.604,47.56z"/>
	<path d="M47.18,42.265l1.227-4.988c0.314-1.211,0.52-2.234,0.709-3.367h0.031c0.125,1.148,0.314,2.156,0.581,3.367l1.103,4.988
		h2.078l2.846-10.605h-1.967l-1.101,4.799c-0.283,1.291-0.536,2.501-0.724,3.667H51.93c-0.156-1.149-0.377-2.329-0.644-3.588
		l-1.054-4.877h-2.03l-1.147,4.799c-0.301,1.337-0.602,2.597-0.773,3.713h-0.029c-0.173-1.054-0.426-2.408-0.694-3.698l-1.007-4.814
		H42.49l2.597,10.605H47.18z"/>
	<path d="M79.604,58.083H43.396c-0.732,0-1.326,0.593-1.326,1.325c0,0.732,0.594,1.325,1.326,1.325h36.207
		c0.733,0,1.326-0.593,1.326-1.325C80.93,58.676,80.337,58.083,79.604,58.083z"/>
	<path d="M79.604,68.858H43.396c-0.732,0-1.326,0.593-1.326,1.325s0.594,1.325,1.326,1.325h36.207c0.733,0,1.326-0.593,1.326-1.325
		S80.337,68.858,79.604,68.858z"/>
</g>
</svg>