<?xml version="1.0" encoding="utf-8"?>
<!DOCTYPE svg PUBLIC "-//W3C//DTD SVG 1.1//EN" "http://www.w3.org/Graphics/SVG/1.1/DTD/svg11.dtd">
<svg xmlns="http://www.w3.org/2000/svg" xmlns:xlink="http://www.w3.org/1999/xlink" viewBox="0 0 126 126">
<g>
	<path d="M99.98,36.442c-0.006-0.468-0.156-0.929-0.477-1.295L79.838,12.682c-0.006-0.005-0.012-0.008-0.016-0.013
		c-0.117-0.132-0.254-0.239-0.398-0.334c-0.043-0.028-0.086-0.054-0.131-0.078c-0.125-0.069-0.256-0.124-0.395-0.165
		c-0.037-0.011-0.07-0.027-0.107-0.035C78.643,12.021,78.488,12,78.332,12H30c-2.205,0-4,1.794-4,4v94c0,2.205,1.795,4,4,4h66
		c2.205,0,4-1.795,4-4V36.666C100,36.591,99.988,36.517,99.98,36.442z M42.854,102.186c-1.83,1.521-4.613,2.242-8.016,2.242
		c-2.035,0-3.479-0.129-4.457-0.258V87.109c1.443-0.231,3.324-0.359,5.309-0.359c3.299,0,5.438,0.592,7.111,1.855
		c1.805,1.34,2.939,3.479,2.939,6.545C45.74,98.475,44.529,100.769,42.854,102.186z M55.689,104.531c-5.154,0-8.17-3.893-8.17-8.84
		c0-5.205,3.324-9.098,8.453-9.098c5.336,0,8.246,3.996,8.246,8.789C64.219,101.078,60.766,104.531,55.689,104.531z M75.689,101.258
		c1.186,0,2.5-0.258,3.273-0.567l0.592,3.067c-0.721,0.359-2.344,0.748-4.457,0.748c-6.006,0-9.098-3.737-9.098-8.686
		c0-5.928,4.227-9.227,9.484-9.227c2.035,0,3.582,0.413,4.277,0.773l-0.799,3.119c-0.799-0.336-1.906-0.645-3.299-0.645
		c-3.119,0-5.541,1.881-5.541,5.746C70.123,99.066,72.186,101.258,75.689,101.258z M91.359,104.248l-1.572-3.145
		c-0.645-1.211-1.057-2.113-1.547-3.118h-0.051c-0.361,1.005-0.799,1.907-1.34,3.118l-1.443,3.145h-4.484l5.025-8.789l-4.844-8.581
		h4.51l1.52,3.171c0.516,1.055,0.902,1.906,1.314,2.885h0.051c0.412-1.107,0.748-1.881,1.186-2.885l1.469-3.171h4.484l-4.896,8.478
		l5.154,8.893H91.359z M30,79.916V16h46.332v20.465c0,1.104,0.896,2,2,2H96v41.451H30z"/>
	<path d="M36.102,89.764c-0.877,0-1.443,0.078-1.779,0.155v11.364c0.336,0.077,0.877,0.077,1.367,0.077
		c3.557,0.026,5.875-1.933,5.875-6.081C41.59,91.672,39.477,89.764,36.102,89.764z"/>
	<path d="M55.869,89.713c-2.654,0-4.199,2.525-4.199,5.901c0,3.401,1.598,5.798,4.227,5.798c2.654,0,4.174-2.525,4.174-5.9
		C60.07,92.393,58.576,89.713,55.869,89.713z"/>
	<g>
		<path d="M75.32,45.441V34.082h-39v27.667H47.68v11.359h39V45.441H75.32z M47.68,59.749H38.32V36.082h35v9.359H47.68V59.749z
			 M84.68,71.108h-35V47.441h35V71.108z"/>
		<circle cx="55.37" cy="51.691" r="1.333"/>
		<rect x="58.75" y="51.191" width="20.334" height="1"/>
		<circle cx="55.37" cy="56.524" r="1.333"/>
		<rect x="58.75" y="56.024" width="20.334" height="1"/>
		<circle cx="55.37" cy="61.725" r="1.333"/>
		<rect x="58.75" y="61.225" width="20.334" height="1"/>
		<circle cx="55.37" cy="66.642" r="1.333"/>
		<rect x="58.75" y="66.142" width="20.334" height="1"/>
	</g>
</g>
</svg>