<?xml version="1.0" encoding="utf-8"?>
<!DOCTYPE svg PUBLIC "-//W3C//DTD SVG 1.1//EN" "http://www.w3.org/Graphics/SVG/1.1/DTD/svg11.dtd">
<svg xmlns="http://www.w3.org/2000/svg" xmlns:xlink="http://www.w3.org/1999/xlink" viewBox="0 0 126 126">
<g>
	<path d="M99.98,36.443c-0.006-0.468-0.154-0.93-0.475-1.295L79.838,12.684c-0.004-0.006-0.01-0.008-0.016-0.014
		c-0.117-0.131-0.252-0.239-0.396-0.334c-0.043-0.028-0.086-0.053-0.131-0.078c-0.127-0.068-0.258-0.124-0.395-0.165
		c-0.037-0.011-0.07-0.026-0.107-0.036C78.643,12.021,78.49,12,78.334,12H30c-2.205,0-4,1.795-4,4v94c0,2.206,1.795,4,4,4h66
		c2.207,0,4-1.794,4-4V36.667C100,36.592,99.988,36.518,99.98,36.443z M76.088,55.252c0.029-0.015,0.059-0.033,0.088-0.047
		c0.199-0.102,0.408-0.186,0.613-0.275c0.149-0.063,0.294-0.134,0.444-0.19c0.061-0.023,0.126-0.04,0.187-0.062
		c3.327-1.186,7.161-0.792,10.254,1.405c5.027,3.574,6.211,10.568,2.638,15.599c-1.812,2.547-4.504,4.105-7.374,4.561
		c-0.328,0.052-0.658,0.094-0.985,0.116c-0.009,0.001-0.017,0-0.024,0.001c-5.643,0.361-10.772-3.603-11.736-9.299
		C69.361,62.15,71.883,57.43,76.088,55.252z M30,16h46.334v20.466c0,1.104,0.895,2,2,2H96v9.644l-4.098-2.91
		c-0.258-0.185-0.41-0.087-0.524-0.014c-0.001,0.001-0.003,0.002-0.003,0.002c-0.008,0.004-0.017,0.002-0.023,0.007
		c-0.641,0.42-1.339,0.736-2.066,0.942c-0.047,0.014-0.096,0.021-0.145,0.034c-0.186,0.049-0.372,0.096-0.562,0.13
		c-0.992,0.179-2.022,0.162-3.017-0.069c-1.986-0.449-3.729-1.719-4.781-3.471c-0.096-0.159-0.284-0.249-0.473-0.217l-5.672,0.96
		c-0.188,0.032-0.34,0.179-0.379,0.36c-0.414,2-1.641,3.772-3.369,4.851c-1.723,1.088-3.862,1.427-5.842,0.926
		c-0.123-0.028-0.301-0.076-0.488,0.185l-2.304,3.239c-0.007-0.003-0.015-0.005-0.021-0.009l-1.041,1.462
		c-0.107,0.153-0.109,0.368-0.009,0.527c1.119,1.708,1.502,3.825,1.048,5.812c-0.458,1.991-1.723,3.738-3.475,4.784
		c-0.159,0.094-0.249,0.289-0.219,0.475l0.961,5.673c0.053,0.313,0.229,0.351,0.362,0.38c1.985,0.405,3.77,1.638,4.851,3.372
		c0.824,1.306,1.214,2.845,1.14,4.376H30V16z M50.344,108.702H34.865V84.441H49.84v4.499h-9.467v5.04h8.928v4.463h-8.928v5.76h9.971
		V108.702z M66.869,108.702l-2.197-4.392c-0.898-1.691-1.475-2.951-2.158-4.355h-0.072c-0.504,1.404-1.117,2.664-1.873,4.355
		l-2.016,4.392h-6.262l7.018-12.274l-6.766-11.986h6.299l2.123,4.428c0.721,1.475,1.26,2.663,1.836,4.031h0.072
		c0.576-1.548,1.043-2.628,1.656-4.031l2.051-4.428h6.264l-6.84,11.842l7.199,12.419H66.869z M91.637,108.702H76.158V84.441h14.973
		v4.499h-9.467v5.04h8.928v4.463h-8.928v5.76h9.973V108.702z"/>
	<path d="M57.313,58.504c-0.698-0.604-1.125-1.477-1.174-2.397c-0.048-0.922,0.289-1.837,0.921-2.508
		c0.059-0.062,0.073-0.156,0.037-0.232l-0.768-1.614c0.004-0.003,0.008-0.007,0.012-0.008l-0.349-0.732
		c-0.013-0.028-0.036-0.045-0.06-0.063c-0.002-0.003-0.005-0.006-0.009-0.009c-0.011-0.009-0.02-0.017-0.032-0.023
		c-0.027-0.013-0.055-0.021-0.08-0.019c-0.01-0.001-0.018-0.005-0.025-0.006c-0.92,0.066-1.84-0.25-2.523-0.867
		c-0.685-0.618-1.096-1.501-1.123-2.423c-0.002-0.083-0.059-0.162-0.141-0.191l-2.449-0.869c-0.135-0.048-0.188,0.014-0.229,0.059
		c-0.001,0.001-0.001,0.001-0.001,0.003c-0.004,0.001-0.007,0.002-0.011,0.005c-0.226,0.261-0.489,0.485-0.78,0.664
		c-0.019,0.012-0.039,0.022-0.059,0.033c-0.074,0.045-0.15,0.086-0.229,0.125c-0.409,0.2-0.858,0.32-1.32,0.342
		c-0.919,0.05-1.833-0.287-2.506-0.919c-0.061-0.057-0.154-0.072-0.232-0.036l-2.347,1.117c-0.078,0.038-0.126,0.121-0.12,0.203
		c0.066,0.921-0.248,1.843-0.865,2.525c-0.615,0.686-1.504,1.097-2.426,1.123c-0.058,0.005-0.141,0.005-0.189,0.141l-0.602,1.692
		c-0.002,0-0.007,0-0.01-0.002l-0.272,0.765c-0.028,0.08-0.001,0.173,0.062,0.231c0.697,0.604,1.125,1.477,1.172,2.396
		c0.047,0.922-0.287,1.837-0.92,2.508c-0.057,0.061-0.072,0.156-0.036,0.232l1.119,2.349c0.062,0.13,0.142,0.123,0.204,0.12
		c0.912-0.068,1.84,0.248,2.523,0.868c0.686,0.615,1.094,1.499,1.124,2.421c0.002,0.084,0.058,0.161,0.138,0.191l2.449,0.868
		c0.016,0.005,0.031,0.001,0.047,0.002c0.11,0.026,0.16-0.025,0.195-0.069c0.154-0.177,0.324-0.338,0.51-0.478
		c0.009-0.007,0.018-0.012,0.025-0.018c0.08-0.062,0.164-0.117,0.248-0.17c0.064-0.039,0.132-0.075,0.199-0.109
		c0.031-0.018,0.063-0.036,0.096-0.051c0.406-0.198,0.852-0.315,1.308-0.338c0.917-0.05,1.837,0.287,2.509,0.92
		c0.043,0.038,0.102,0.096,0.232,0.035l2.348-1.117c0.003-0.001,0.004-0.002,0.006-0.003l0.006-0.003
		c0.08-0.038,0.125-0.118,0.12-0.204c-0.067-0.92,0.249-1.84,0.867-2.525c0.359-0.396,0.81-0.699,1.304-0.89
		c0.024-0.009,0.051-0.021,0.076-0.03c0.042-0.015,0.086-0.026,0.129-0.041c0.071-0.022,0.143-0.044,0.213-0.063
		c0.012-0.002,0.021-0.004,0.033-0.007c0.213-0.048,0.433-0.079,0.654-0.085c0.086-0.004,0.161-0.057,0.191-0.141l0.871-2.45
		C57.402,58.651,57.378,58.562,57.313,58.504z M52.128,58.25c-0.474,1.331-1.452,2.341-2.643,2.893
		c-0.137,0.063-0.274,0.123-0.413,0.172c-0.004,0.001-0.008,0.003-0.012,0.004c-2.408,0.853-5.127-0.237-6.25-2.594
		c-0.966-2.031-0.451-4.395,1.106-5.86c0.011-0.009,0.021-0.022,0.033-0.032c0.073-0.068,0.153-0.131,0.232-0.195
		c0.058-0.046,0.11-0.095,0.169-0.138c0.023-0.017,0.05-0.032,0.074-0.05c1.299-0.925,3.015-1.228,4.631-0.653
		C51.682,52.729,53.06,55.622,52.128,58.25z"/>
	<path d="M54.021,36.775c0.046,0.921-0.287,1.837-0.92,2.508c-0.057,0.061-0.072,0.156-0.037,0.233l1.119,2.347
		c0.062,0.13,0.143,0.125,0.205,0.121c0.912-0.069,1.84,0.247,2.523,0.867c0.686,0.616,1.094,1.5,1.123,2.422
		c0.003,0.084,0.059,0.161,0.139,0.191l2.449,0.869c0.016,0.004,0.031,0,0.047,0.002c0.11,0.026,0.159-0.026,0.195-0.069
		c0.154-0.178,0.324-0.339,0.51-0.479c0.008-0.006,0.018-0.011,0.025-0.017c0.08-0.061,0.162-0.118,0.248-0.171
		c0.064-0.039,0.133-0.075,0.199-0.109c0.031-0.018,0.062-0.036,0.096-0.051c0.406-0.198,0.85-0.314,1.307-0.337
		c0.918-0.051,1.839,0.286,2.509,0.92c0.042,0.038,0.103,0.097,0.233,0.035l2.348-1.117c0.002,0,0.004-0.003,0.005-0.003
		l0.007-0.003c0.079-0.038,0.125-0.118,0.119-0.203c-0.066-0.921,0.25-1.841,0.868-2.525c0.359-0.397,0.81-0.7,1.304-0.891
		c0.024-0.01,0.051-0.021,0.076-0.029c0.042-0.016,0.086-0.027,0.13-0.042c0.069-0.021,0.141-0.044,0.212-0.062
		c0.011-0.002,0.021-0.003,0.033-0.007c0.213-0.049,0.433-0.079,0.654-0.085c0.087-0.004,0.161-0.058,0.191-0.141l0.871-2.45
		c0.027-0.081,0.003-0.171-0.062-0.228c-0.699-0.604-1.125-1.478-1.174-2.398c-0.046-0.922,0.288-1.836,0.921-2.508
		c0.059-0.061,0.072-0.155,0.036-0.232l-0.767-1.613c0.004-0.003,0.006-0.007,0.012-0.008l-0.349-0.732
		c-0.013-0.027-0.037-0.045-0.059-0.063c-0.003-0.003-0.006-0.006-0.009-0.009c-0.012-0.008-0.021-0.017-0.033-0.023
		c-0.027-0.014-0.055-0.02-0.08-0.02c-0.01-0.001-0.018-0.006-0.025-0.006c-0.92,0.065-1.84-0.25-2.523-0.866
		c-0.686-0.618-1.096-1.501-1.124-2.424c-0.001-0.084-0.058-0.161-0.139-0.191l-2.45-0.869c-0.136-0.048-0.189,0.014-0.23,0.059
		c0,0.001,0,0.001,0,0.001c-0.004,0.002-0.007,0.003-0.011,0.006c-0.226,0.26-0.49,0.485-0.78,0.664
		c-0.019,0.011-0.04,0.022-0.059,0.033c-0.075,0.045-0.15,0.086-0.229,0.125c-0.41,0.2-0.859,0.32-1.319,0.343
		c-0.92,0.049-1.834-0.288-2.507-0.92c-0.062-0.057-0.154-0.073-0.232-0.036l-2.348,1.118c-0.078,0.037-0.125,0.12-0.119,0.202
		c0.066,0.921-0.248,1.843-0.866,2.526c-0.614,0.686-1.503,1.097-2.425,1.122c-0.058,0.004-0.141,0.004-0.189,0.142l-0.602,1.692
		c-0.002-0.001-0.007,0-0.01-0.001l-0.273,0.764c-0.027,0.081-0.002,0.173,0.063,0.231C53.547,34.982,53.975,35.855,54.021,36.775z
		 M59.353,32.628c0.012-0.009,0.021-0.021,0.032-0.031c0.074-0.068,0.154-0.131,0.233-0.196c0.058-0.045,0.111-0.094,0.169-0.138
		c0.024-0.016,0.05-0.032,0.074-0.05c1.299-0.926,3.014-1.228,4.63-0.654c2.627,0.933,4.004,3.827,3.071,6.454
		c-0.473,1.332-1.451,2.341-2.642,2.893c-0.138,0.063-0.274,0.123-0.413,0.172c-0.004,0-0.008,0.002-0.012,0.003
		c-2.408,0.854-5.127-0.237-6.248-2.594C57.28,36.457,57.795,34.095,59.353,32.628z"/>
</g>
</svg>