<?xml version="1.0" encoding="utf-8"?>
<!DOCTYPE svg PUBLIC "-//W3C//DTD SVG 1.1//EN" "http://www.w3.org/Graphics/SVG/1.1/DTD/svg11.dtd">
<svg xmlns="http://www.w3.org/2000/svg" xmlns:xlink="http://www.w3.org/1999/xlink" viewBox="0 0 126 126">
<path d="M99.98,36.445c-0.006-0.469-0.154-0.93-0.475-1.295L79.838,12.686c-0.004-0.006-0.012-0.008-0.016-0.014
	c-0.117-0.131-0.252-0.24-0.396-0.334c-0.043-0.029-0.088-0.053-0.133-0.078c-0.125-0.068-0.256-0.125-0.395-0.166
	c-0.035-0.01-0.07-0.025-0.107-0.035c-0.148-0.035-0.301-0.057-0.457-0.057H30c-2.205,0-4,1.795-4,4v94c0,2.205,1.795,4,4,4h66
	c2.205,0,4-1.795,4-4V36.668C100,36.594,99.988,36.52,99.98,36.445z M50.498,88.906h-9.323v5.543h8.711v4.463h-8.711v9.756h-5.507
	V84.406h14.83V88.906z M69.793,108.668H54.639V84.406h5.508v19.654h9.646V108.668z M82.826,108.668h-6.407l-7.775-24.262h6.012
	l2.951,10.26c0.828,2.879,1.584,5.65,2.16,8.674h0.108c0.611-2.916,1.367-5.795,2.195-8.566l3.096-10.367h5.831L82.826,108.668z
	 M30,79.918V16.002h46.334v20.465c0,1.105,0.895,2,2,2H96l0.002,41.451H30z"/>
<path d="M66.061,41.221c-4.845,3.631-7.912,13.484-10.495,18.893c-2.585,5.408-7.347,4.766-7.347,4.766v6.375
	c0,0,2.986,0.082,5.486-0.963c2.508-1.049,5.412-3.396,7.112-6.297c0.66-1.135,1.672-3.471,2.771-6.057h7.645v-6.543h-4.849
	c0.746-1.662,1.421-3.07,1.934-3.871c1.86-2.904,6.463-2.83,6.463-2.83v-6.219C74.781,38.475,70.905,37.588,66.061,41.221z"/>
</svg>