<?xml version="1.0" encoding="utf-8"?>
<!DOCTYPE svg PUBLIC "-//W3C//DTD SVG 1.1//EN" "http://www.w3.org/Graphics/SVG/1.1/DTD/svg11.dtd">
<svg xmlns="http://www.w3.org/2000/svg" xmlns:xlink="http://www.w3.org/1999/xlink" viewBox="0 0 126 126">
<g>
	<path d="M99.98,36.442c-0.006-0.468-0.154-0.929-0.475-1.295L79.838,12.682c-0.004-0.005-0.012-0.008-0.016-0.013
		c-0.117-0.132-0.252-0.239-0.396-0.334c-0.043-0.028-0.088-0.054-0.133-0.078c-0.125-0.069-0.256-0.124-0.395-0.165
		c-0.035-0.011-0.07-0.027-0.107-0.035C78.643,12.021,78.488,12,78.334,12H30c-2.205,0-4,1.794-4,4v94c0,2.205,1.795,4,4,4h66
		c2.205,0,4-1.795,4-4V36.666C100,36.591,99.988,36.517,99.98,36.442z M57.502,107.117c-1.691,0.576-4.896,1.367-8.1,1.367
		c-4.428,0-7.631-1.115-9.863-3.275c-2.232-2.088-3.455-5.256-3.418-8.818c0.035-8.063,5.902-12.67,13.857-12.67
		c3.131,0,5.543,0.611,6.73,1.188l-1.152,4.391c-1.33-0.576-2.986-1.043-5.652-1.043c-4.568,0-8.025,2.592-8.025,7.846
		c0,5.004,3.133,7.955,7.633,7.955c1.26,0,2.268-0.143,2.699-0.359v-5.074h-3.744v-4.285h9.035V107.117z M67.295,108.232h-5.508
		v-24.26h5.508V108.232z M86.879,88.471h-9.324v5.545h8.711v4.463h-8.711v9.754h-5.508v-24.26h14.832V88.471z M30,79.916V16h46.334
		v20.465c0,1.104,0.895,2,2,2H96l0.002,41.451H30z"/>
	<g>
		<g>
			<g>
				<polygon points="80.172,66.366 69.765,54.068 75.547,54.068 65.955,42.733 71.931,42.733 64.045,33.418 67.72,33.418 
					61.658,26.254 56.147,33.418 59.864,33.418 52.698,42.733 58.563,42.733 49.843,54.068 55.291,54.068 45.829,66.366 
					61.691,66.366 61.691,81.247 64.309,81.247 64.309,66.366 				"/>
			</g>
		</g>
	</g>
</g>
</svg>