<?xml version="1.0" encoding="utf-8"?>
<!DOCTYPE svg PUBLIC "-//W3C//DTD SVG 1.1//EN" "http://www.w3.org/Graphics/SVG/1.1/DTD/svg11.dtd">
<svg xmlns="http://www.w3.org/2000/svg" xmlns:xlink="http://www.w3.org/1999/xlink" viewBox="0 0 126 126">
<g>
	<path d="M99.98,36.487c-0.006-0.468-0.154-0.93-0.475-1.295L79.838,12.728c-0.004-0.006-0.01-0.008-0.016-0.014
		c-0.117-0.131-0.252-0.239-0.396-0.334c-0.043-0.028-0.086-0.053-0.131-0.078c-0.127-0.068-0.258-0.124-0.395-0.165
		c-0.037-0.011-0.07-0.026-0.107-0.036c-0.15-0.035-0.303-0.057-0.459-0.057H30c-2.205,0-4,1.795-4,4v94c0,2.206,1.795,4,4,4h66
		c2.207,0,4-1.794,4-4V36.711C100,36.636,99.988,36.562,99.98,36.487z M58.527,107.738c-1.592,0.542-4.607,1.287-7.622,1.287
		c-4.167,0-7.182-1.05-9.282-3.083c-2.1-1.965-3.252-4.945-3.218-8.299c0.034-7.588,5.556-11.924,13.042-11.924
		c2.947,0,5.216,0.576,6.334,1.117l-1.084,4.133c-1.253-0.542-2.812-0.982-5.318-0.982c-4.302,0-7.554,2.439-7.554,7.385
		c0,4.709,2.947,7.486,7.182,7.486c1.186,0,2.134-0.135,2.541-0.339v-4.776h-3.523v-4.03h8.502V107.738z M78.854,108.788h-17.75
		v-2.777l10.874-15.65v-0.136h-9.857v-4.268h16.564v2.98l-10.636,15.447v0.135h10.806V108.788z M30,79.961V16.044h46.334V36.51
		c0,1.104,0.895,2,2,2H96l0.002,41.451H30z"/>
	<g>
		<polygon points="57.623,55.442 46.982,52.434 46.982,63.043 62.789,67.906 62.789,43.891 60.553,48.979"/>
		<polygon points="65.621,49.076 63.703,44.195 63.703,67.906 79.51,63.043 79.51,50.96 67.959,54.227"/>
		<polygon points="64.162,41.811 68.785,52.01 82.25,48.202 78.352,41.079 78.354,41.041 78.328,41.039 78.305,40.995 
			77.988,41.014 63.402,39.891 45.885,41.015 45.539,40.995 45.514,41.039 45.482,41.041 45.484,41.092 41.131,49.051 
			56.176,53.307 61.346,41.907 53.436,41.451 63.396,40.809 71.148,41.408"/>
	</g>
</g>
</svg>