<?xml version="1.0" encoding="utf-8"?>
<!DOCTYPE svg PUBLIC "-//W3C//DTD SVG 1.1//EN" "http://www.w3.org/Graphics/SVG/1.1/DTD/svg11.dtd">
<svg xmlns="http://www.w3.org/2000/svg" xmlns:xlink="http://www.w3.org/1999/xlink" viewBox="0 0 126 126">
<g>
	<path d="M99.98,36.442c-0.006-0.468-0.156-0.929-0.475-1.295L79.838,12.682c-0.004-0.005-0.01-0.008-0.016-0.013
		c-0.117-0.132-0.252-0.239-0.396-0.334c-0.043-0.028-0.086-0.054-0.131-0.078c-0.127-0.069-0.258-0.124-0.395-0.165
		c-0.037-0.011-0.07-0.027-0.109-0.035C78.643,12.021,78.488,12,78.334,12H30c-2.205,0-4,1.794-4,4v94c0,2.205,1.795,4,4,4h66
		c2.205,0,4-1.795,4-4V36.666C100,36.591,99.988,36.517,99.98,36.442z M30,16h46.334v20.465c0,1.104,0.895,2,2,2H96l0.002,41.451H30
		V16z M45.418,104.465H41.41v-7.641h-6.619v7.641H30.76V86.203h4.031v7.018h6.619v-7.018h4.008V104.465z M61.236,89.672h-4.85
		v14.793h-4.033V89.672h-4.771v-3.469h13.654V89.672z M78.559,104.465l-0.264-6.99c-0.078-2.195-0.158-4.85-0.158-7.506h-0.078
		c-0.555,2.33-1.293,4.932-1.979,7.072l-2.16,7.125h-3.137l-1.898-7.07c-0.58-2.141-1.188-4.742-1.609-7.127h-0.053
		c-0.105,2.467-0.186,5.284-0.314,7.56l-0.318,6.937h-3.717l1.133-18.262h5.352l1.74,6.096c0.555,2.113,1.107,4.39,1.504,6.53h0.078
		c0.502-2.114,1.107-4.524,1.688-6.557l1.898-6.069h5.246l0.975,18.262H78.559z M96.674,104.465h-11.1V86.203h4.033v14.793h7.066
		V104.465z"/>
	<polygon points="40.543,58.127 55.865,65.245 55.865,61.862 44.277,56.787 44.277,56.723 55.865,51.647 55.865,48.264 
		40.543,55.382 	"/>
	<polygon points="58.23,66.522 61.453,66.522 68.283,43.38 65.061,43.38 	"/>
	<polygon points="70.137,51.647 81.98,56.723 81.98,56.787 70.137,61.862 70.137,65.245 85.457,58.223 85.457,55.286 70.137,48.264 
			"/>
</g>
</svg>