<?xml version="1.0" encoding="utf-8"?>
<!DOCTYPE svg PUBLIC "-//W3C//DTD SVG 1.1//EN" "http://www.w3.org/Graphics/SVG/1.1/DTD/svg11.dtd">
<svg xmlns="http://www.w3.org/2000/svg" xmlns:xlink="http://www.w3.org/1999/xlink" viewBox="0 0 126 126">
<g>
	<g>
		<path d="M79.416,88.012c-3.955,0-6.259,3.764-6.259,8.796c0,5.067,2.38,8.64,6.298,8.64c3.955,0,6.22-3.763,6.22-8.795
			C85.676,92.007,83.449,88.012,79.416,88.012z"/>
		<path d="M100.124,36.572c-0.006-0.468-0.154-0.93-0.475-1.295L79.981,12.813c-0.004-0.006-0.01-0.008-0.016-0.014
			c-0.117-0.131-0.252-0.239-0.396-0.334c-0.043-0.028-0.086-0.053-0.131-0.078c-0.127-0.068-0.258-0.124-0.395-0.165
			c-0.037-0.011-0.07-0.026-0.107-0.036c-0.15-0.035-0.303-0.057-0.459-0.057H30.143c-2.205,0-4,1.795-4,4v94c0,2.206,1.795,4,4,4
			h66c2.207,0,4-1.794,4-4V36.796C100.143,36.721,100.131,36.646,100.124,36.572z M41.386,109.671h-5.875V83.789h5.875V109.671z
			 M59.708,105.217c1.767,0,3.725-0.385,4.877-0.845l0.883,4.568c-1.075,0.54-3.495,1.115-6.643,1.115
			c-8.948,0-13.556-5.569-13.556-12.942c0-8.832,6.297-13.747,14.132-13.747c3.032,0,5.338,0.612,6.375,1.151l-1.191,4.646
			c-1.19-0.498-2.841-0.958-4.915-0.958c-4.647,0-8.256,2.801-8.256,8.563C51.414,101.952,54.486,105.217,59.708,105.217z
			 M79.147,110.094c-7.681,0-12.172-5.799-12.172-13.172c0-7.758,4.953-13.556,12.595-13.556c7.949,0,12.289,5.95,12.289,13.096
			C91.858,104.945,86.713,110.094,79.147,110.094z M30.143,80.046V16.129h46.334v20.466c0,1.104,0.895,2,2,2h17.666l0.002,41.451
			H30.143z"/>
	</g>
	<path d="M71.157,37.584c1.104,0,2-0.896,2-2V31.9c0-1.104-0.896-2-2-2h-18.25c-1.104,0-2,0.896-2,2v3.684c0,1.104,0.896,2,2,2
		h4.976v24.719h-4.976c-1.104,0-2,0.896-2,2v3.684c0,1.104,0.896,2,2,2h18.25c1.104,0,2-0.896,2-2v-3.684c0-1.104-0.896-2-2-2
		h-4.476V37.584H71.157z"/>
</g>
</svg>