<?xml version="1.0" encoding="utf-8"?>
<!DOCTYPE svg PUBLIC "-//W3C//DTD SVG 1.1//EN" "http://www.w3.org/Graphics/SVG/1.1/DTD/svg11.dtd">
<svg xmlns="http://www.w3.org/2000/svg" xmlns:xlink="http://www.w3.org/1999/xlink" viewBox="0 0 126 126">
<g>
	<g>
		<path d="M99.98,38.946c-0.006-0.468-0.154-0.93-0.475-1.295L79.838,15.187c-0.004-0.006-0.01-0.008-0.016-0.014
			c-0.117-0.131-0.252-0.239-0.396-0.334c-0.043-0.028-0.086-0.053-0.131-0.078c-0.127-0.068-0.258-0.124-0.395-0.165
			c-0.037-0.011-0.07-0.026-0.107-0.036c-0.15-0.035-0.303-0.057-0.459-0.057H30c-2.205,0-4,1.795-4,4v94c0,2.206,1.795,4,4,4h66
			c2.207,0,4-1.794,4-4V39.17C100,39.095,99.988,39.021,99.98,38.946z M45.699,109.833h-5.182V87.002h5.182V109.833z
			 M55.762,110.172c-2.609,0-5.184-0.678-6.471-1.389l1.051-4.269c1.389,0.712,3.523,1.423,5.725,1.423
			c2.371,0,3.625-0.982,3.625-2.473c0-1.423-1.084-2.236-3.828-3.219c-3.795-1.32-6.268-3.421-6.268-6.74
			c0-3.896,3.252-6.877,8.639-6.877c2.574,0,4.471,0.542,5.826,1.151l-1.152,4.167c-0.914-0.44-2.539-1.084-4.775-1.084
			s-3.32,1.017-3.32,2.202c0,1.456,1.287,2.1,4.234,3.218c4.031,1.49,5.928,3.591,5.928,6.809
			C64.975,106.92,62.027,110.172,55.762,110.172z M78.154,110.206c-6.773,0-10.738-5.115-10.738-11.619
			c0-6.843,4.371-11.958,11.111-11.958c7.012,0,10.84,5.251,10.84,11.551C89.367,105.666,84.828,110.206,78.154,110.206z M30,82.42
			V18.503h46.334v20.466c0,1.104,0.895,2,2,2H96l0.002,41.451H30z"/>
		<path d="M78.393,90.728c-3.49,0-5.521,3.32-5.521,7.758c0,4.471,2.1,7.621,5.555,7.621c3.49,0,5.488-3.319,5.488-7.757
			C83.914,94.251,81.949,90.728,78.393,90.728z"/>
	</g>
	<g>
		<path d="M61.031,28.481c-12.746,0-23.08,10.331-23.08,23.073c0,12.746,10.334,23.081,23.08,23.081s23.076-10.335,23.076-23.081
			C84.107,38.813,73.777,28.481,61.031,28.481z M67.979,31.299l-5.014,10.232c-0.973-0.377-1.934-0.176-1.934-0.176l-2.902-10.744
			C58.129,30.611,61.977,28.884,67.979,31.299z M61.029,60.637c-5.016,0-9.08-4.064-9.08-9.082c0-5.015,4.064-9.077,9.08-9.077
			s9.08,4.063,9.08,9.077C70.109,56.572,66.045,60.637,61.029,60.637z"/>
		<path d="M61.031,43.522c-4.43,0-8.033,3.605-8.033,8.036c0,4.429,3.604,8.033,8.033,8.033s8.033-3.604,8.033-8.033
			C69.064,47.128,65.461,43.522,61.031,43.522z M61.031,58.664c-3.918,0-7.107-3.188-7.107-7.105c0-3.922,3.189-7.11,7.107-7.11
			s7.105,3.188,7.105,7.11C68.137,55.477,64.949,58.664,61.031,58.664z"/>
		<path d="M61.031,47.716c-2.119,0-3.842,1.723-3.842,3.839c0,2.117,1.723,3.841,3.842,3.841c2.117,0,3.842-1.724,3.842-3.841
			C64.873,49.438,63.148,47.716,61.031,47.716z M61.031,54.47c-1.607,0-2.914-1.307-2.914-2.915c0-1.606,1.307-2.912,2.914-2.912
			c1.605,0,2.916,1.306,2.916,2.912C63.947,53.163,62.637,54.47,61.031,54.47z"/>
	</g>
</g>
</svg>