<?xml version="1.0" encoding="utf-8"?>
<!DOCTYPE svg PUBLIC "-//W3C//DTD SVG 1.1//EN" "http://www.w3.org/Graphics/SVG/1.1/DTD/svg11.dtd">
<svg xmlns="http://www.w3.org/2000/svg" xmlns:xlink="http://www.w3.org/1999/xlink" viewBox="0 0 126 126">
<g>
	<path d="M82.17,86.25c-1.332,0-2.088,0.107-2.482,0.18v6.695h2.158c2.736,0,4.355-1.369,4.355-3.492
		C86.201,87.4,84.689,86.285,82.17,86.25z"/>
	<path d="M99.979,36.442c-0.004-0.468-0.154-0.929-0.475-1.295L79.838,12.682c-0.006-0.005-0.012-0.008-0.016-0.013
		c-0.117-0.132-0.254-0.239-0.398-0.334c-0.043-0.028-0.086-0.054-0.131-0.078c-0.125-0.069-0.258-0.124-0.395-0.165
		c-0.037-0.011-0.07-0.027-0.107-0.035C78.643,12.021,78.488,12,78.332,12H30c-2.207,0-4,1.794-4,4v94c0,2.205,1.793,4,4,4h66
		c2.205,0,4-1.795,4-4V36.666C100,36.591,99.988,36.517,99.979,36.442z M46.063,97.695c0,6.912-3.313,9.322-8.639,9.322
		c-1.26,0-2.916-0.215-3.996-0.574l0.613-4.428c0.756,0.252,1.727,0.432,2.807,0.432c2.305,0,3.744-1.045,3.744-4.824V82.361h5.471
		V97.695z M65.105,106.623l-1.871-6.229h-6.947l-1.729,6.229h-5.688l7.416-24.262h7.199l7.523,24.262H65.105z M86.957,106.623
		c-0.395-0.684-0.971-2.664-1.691-5.652c-0.648-3.023-1.691-3.852-3.924-3.887h-1.654v9.539h-5.436V82.686
		c1.764-0.287,4.391-0.504,7.307-0.504c3.6,0,6.119,0.539,7.848,1.908c1.439,1.152,2.23,2.844,2.23,5.074
		c0,3.096-2.195,5.221-4.283,5.977v0.107c1.691,0.684,2.629,2.303,3.24,4.535c0.756,2.736,1.512,5.904,1.979,6.84H86.957z
		 M30,79.916V16h46.332v20.465c0,1.104,0.896,2,2,2H96v41.451H30z"/>
	<path d="M59.707,86.465h-0.072c-0.359,1.439-0.721,3.275-1.115,4.68l-1.441,5.146h5.363l-1.512-5.146
		C60.498,89.705,60.066,87.904,59.707,86.465z"/>
	<path d="M59.783,52.822c0,0-2.018-3.886-1.943-6.726c0.055-2.029,4.631-4.035,6.428-6.947c1.791-2.914-0.225-5.752-0.225-5.752
		s0.449,2.092-0.746,4.257c-1.195,2.167-5.607,3.439-7.324,7.172C54.258,48.563,59.783,52.822,59.783,52.822z"/>
	<path d="M67.332,41.017c0,0-6.873,2.615-6.873,5.602c0,2.99,1.867,3.96,2.166,4.931c0.299,0.973-0.521,2.616-0.521,2.616
		s2.689-1.868,2.238-4.036c-0.449-2.167-2.541-2.839-1.344-5.004C63.797,43.674,67.332,41.017,67.332,41.017z"/>
	<path d="M59.039,56.77c7.092-0.253,7.926-1.589,8.666-2.23c-4.107,1.119-15.016,1.046-15.094,0.225
		c-0.072-0.822,3.361-1.495,3.361-1.495s-5.377,0-5.826,1.345C49.697,55.958,52.691,56.992,59.039,56.77z"/>
	<path d="M68.75,53.42c0,0,3.064,0,3.361,1.866c0.299,1.868-3.883,4.631-3.883,4.631s6.586-1.326,5.973-4.703
		C73.455,51.105,68.75,53.42,68.75,53.42z"/>
	<path d="M61.275,58.798c-3.111,0.35-6.871,0.074-7.172-0.451c-0.293-0.523,0.525-0.82,0.525-0.82
		c-3.738,0.898-1.695,2.464,2.686,2.766c3.754,0.256,7.949-1.122,7.949-1.122l1.293-1.045
		C66.557,58.126,63.598,58.537,61.275,58.798z"/>
	<path d="M55.527,61.391c0,0-1.695,0.047-1.793,0.944c-0.1,0.892,0.525,1.345,4.717,1.246c4.99-0.119,5.822-0.712,6.336-1.145
		l1.217-0.917c-3.262,0.422-3.514,0.539-5.361,0.591c-1.859,0.054-5.115,0.172-5.264-0.174
		C55.227,61.588,55.527,61.391,55.527,61.391z"/>
	<path d="M71.813,65.425c0.646-0.699-0.201-1.247-0.201-1.247s0.299,0.349-0.096,0.747c-0.398,0.397-4.037,1.393-9.865,1.691
		c-5.826,0.301-12.152-0.546-12.354-1.294c-0.193-0.746,3.24-1.342,3.24-1.342c-0.396,0.049-5.18,0.148-5.332,1.445
		c-0.146,1.293,2.092,2.339,11.061,2.339C67.23,67.763,71.168,66.12,71.813,65.425z"/>
	<path d="M68.326,68.362c-3.936,0.796-15.885,0.294-15.885,0.294s7.766,1.843,16.633,0.3c4.238-0.738,4.484-2.79,4.484-2.79
		S72.262,67.563,68.326,68.362z"/>
</g>
</svg>