<?xml version="1.0" encoding="utf-8"?>
<!DOCTYPE svg PUBLIC "-//W3C//DTD SVG 1.1//EN" "http://www.w3.org/Graphics/SVG/1.1/DTD/svg11.dtd">
<svg xmlns="http://www.w3.org/2000/svg" xmlns:xlink="http://www.w3.org/1999/xlink" viewBox="0 0 126 126">
<g>
	<path d="M98.277,34.444c-0.004-0.469-0.154-0.93-0.475-1.295L78.137,10.684c-0.006-0.006-0.012-0.008-0.016-0.014
		c-0.117-0.131-0.254-0.24-0.398-0.334c-0.043-0.029-0.086-0.053-0.131-0.078c-0.125-0.068-0.258-0.125-0.395-0.166
		c-0.037-0.01-0.07-0.025-0.107-0.035C76.941,10.022,76.787,10,76.631,10H28.299c-2.207,0-4,1.795-4,4v94c0,2.205,1.793,4,4,4h66
		c2.205,0,4-1.795,4-4V34.667C98.299,34.592,98.287,34.518,98.277,34.444z M56.891,97.006c0,7.045-3.375,9.502-8.805,9.502
		c-1.285,0-2.973-0.219-4.074-0.586l0.625-4.514c0.77,0.258,1.76,0.441,2.861,0.441c2.348,0,3.814-1.066,3.814-4.918V81.377h5.578
		V97.006z M67.604,106.471c-2.824,0-5.611-0.734-7.006-1.504l1.137-4.623c1.504,0.771,3.816,1.541,6.201,1.541
		c2.568,0,3.924-1.063,3.924-2.678c0-1.541-1.174-2.422-4.145-3.484c-4.109-1.432-6.787-3.705-6.787-7.301
		c0-4.219,3.521-7.447,9.354-7.447c2.789,0,4.844,0.586,6.311,1.248l-1.246,4.512c-0.992-0.477-2.752-1.174-5.174-1.174
		c-2.42,0-3.596,1.102-3.596,2.385c0,1.576,1.395,2.275,4.588,3.484c4.365,1.615,6.42,3.889,6.42,7.373
		C77.584,102.949,74.391,106.471,67.604,106.471z M94.299,77.916h-66V14h46.332v20.465c0,1.105,0.896,2,2,2h17.668V77.916z"/>
</g>
<path d="M42.594,33.473c0,1.729,1.229,3.135,2.739,3.135c0.427,0,0.774-0.397,0.774-0.887c0-0.49-0.348-0.886-0.774-0.886
	c-0.655,0-1.19-0.611-1.19-1.362c0-0.752,0.535-1.362,1.19-1.362h0.007c0.148,0,1.476-0.034,1.486,1.214v34.011
	c0,1.467,1.042,2.66,2.323,2.66h4.133c-0.001-0.008-0.001-0.016-0.002-0.021h21.116c1.684,0,3.051-1.566,3.051-3.494
	c0-1.602-0.949-2.953-2.238-3.362c0.002-0.007,0.004-0.011,0.004-0.018h0.008V32.997c0-1.467-1.041-2.659-2.322-2.659H45.311
	c-0.001,0-0.001,0-0.001,0C43.823,30.337,42.594,31.744,42.594,33.473z M53.167,66.5c0-0.688-0.205-1.264-0.499-1.74h19.674
	c0.828,0,1.502,0.771,1.502,1.721s-0.674,1.721-1.502,1.721H52.688C52.97,67.738,53.167,67.174,53.167,66.5z M52.417,50.167h18.125
	v1.625H52.417V50.167z M52.417,44.292h18.125v1.625H52.417V44.292z M52.417,38.292h18.125v1.625H52.417V38.292z"/>
</svg>