<?xml version="1.0" encoding="utf-8"?>
<!DOCTYPE svg PUBLIC "-//W3C//DTD SVG 1.1//EN" "http://www.w3.org/Graphics/SVG/1.1/DTD/svg11.dtd">
<svg xmlns="http://www.w3.org/2000/svg" xmlns:xlink="http://www.w3.org/1999/xlink" viewBox="0 0 126 126">
<g>
	<g>
		<path d="M81.039,89.765c-1.049,0-1.76,0.101-2.131,0.203v6.732c0.439,0.103,0.98,0.136,1.725,0.136
			c2.74,0,4.434-1.388,4.434-3.721C85.066,91.018,83.611,89.765,81.039,89.765z"/>
		<path d="M99.873,36.931c-0.006-0.468-0.154-0.93-0.475-1.295L79.73,13.171c-0.004-0.006-0.01-0.008-0.016-0.014
			c-0.117-0.131-0.252-0.239-0.396-0.334c-0.043-0.028-0.086-0.053-0.131-0.078c-0.127-0.068-0.258-0.124-0.395-0.165
			c-0.037-0.011-0.07-0.026-0.107-0.036c-0.15-0.035-0.303-0.057-0.459-0.057H29.893c-2.205,0-4,1.795-4,4v94c0,2.206,1.795,4,4,4
			h66c2.207,0,4-1.794,4-4V37.155C99.893,37.08,99.881,37.005,99.873,36.931z M51.234,100.458c0,6.496-3.113,8.763-8.121,8.763
			c-1.184,0-2.74-0.203-3.756-0.541l0.576-4.161c0.711,0.236,1.623,0.406,2.639,0.406c2.166,0,3.52-0.981,3.52-4.534V86.043h5.143
			V100.458z M61.111,109.187c-2.605,0-5.176-0.677-6.461-1.388l1.049-4.264c1.387,0.711,3.518,1.422,5.717,1.422
			c2.369,0,3.621-0.981,3.621-2.471c0-1.421-1.082-2.232-3.822-3.214c-3.791-1.319-6.26-3.417-6.26-6.732
			c0-3.892,3.248-6.87,8.629-6.87c2.57,0,4.463,0.542,5.818,1.151l-1.15,4.161c-0.914-0.439-2.537-1.082-4.771-1.082
			c-2.232,0-3.314,1.015-3.314,2.198c0,1.455,1.285,2.099,4.229,3.214c4.025,1.49,5.922,3.589,5.922,6.803
			C70.316,105.938,67.373,109.187,61.111,109.187z M88.078,98.393c-1.762,1.658-4.365,2.403-7.41,2.403
			c-0.678,0-1.287-0.034-1.76-0.103v8.154h-5.109v-22.5c1.588-0.271,3.824-0.474,6.969-0.474c3.182,0,5.449,0.608,6.971,1.826
			c1.457,1.15,2.438,3.045,2.438,5.278S89.432,97.107,88.078,98.393z M29.893,80.405V16.488h46.334v20.466c0,1.104,0.895,2,2,2
			h17.666l0.002,41.451H29.893z"/>
	</g>
	<path d="M59.537,50.352c0,0-2.689-5.179-2.59-8.962c0.072-2.703,6.168-5.376,8.564-9.256c2.385-3.883-0.301-7.663-0.301-7.663
		s0.598,2.787-0.994,5.673s-7.471,4.581-9.758,9.555C52.174,44.676,59.537,50.352,59.537,50.352z"/>
	<path d="M69.594,34.625c0,0-9.158,3.483-9.158,7.463c0,3.983,2.488,5.276,2.887,6.569c0.398,1.296-0.695,3.485-0.695,3.485
		s3.584-2.487,2.982-5.377c-0.598-2.887-3.385-3.782-1.791-6.668C64.883,38.164,69.594,34.625,69.594,34.625z"/>
	<path d="M58.545,55.611c9.447-0.338,10.559-2.117,11.545-2.972c-5.473,1.491-20.004,1.395-20.109,0.299
		c-0.096-1.095,4.479-1.992,4.479-1.992s-7.164,0-7.762,1.792C46.098,54.532,50.088,55.907,58.545,55.611z"/>
	<path d="M71.482,51.148c0,0,4.082,0,4.479,2.488c0.396,2.487-5.174,6.169-5.174,6.169s8.773-1.767,7.957-6.266
		C77.75,48.065,71.482,51.148,71.482,51.148z"/>
	<path d="M61.523,58.314c-4.145,0.466-9.154,0.098-9.555-0.601c-0.391-0.697,0.701-1.093,0.701-1.093
		c-4.982,1.197-2.26,3.282,3.576,3.685c5.002,0.341,10.592-1.495,10.592-1.495l1.723-1.392
		C68.561,57.418,64.617,57.966,61.523,58.314z"/>
	<path d="M53.865,61.767c0,0-2.258,0.063-2.389,1.259c-0.133,1.188,0.701,1.791,6.285,1.659c6.648-0.158,7.756-0.949,8.441-1.525
		l1.619-1.22c-4.344,0.563-4.68,0.716-7.143,0.786c-2.477,0.072-6.814,0.229-7.012-0.23C53.465,62.03,53.865,61.767,53.865,61.767z"
		/>
	<path d="M75.563,67.143c0.861-0.931-0.268-1.661-0.268-1.661s0.398,0.465-0.129,0.995c-0.531,0.529-5.377,1.855-13.143,2.253
		c-7.762,0.402-16.191-0.728-16.459-1.724c-0.256-0.995,4.318-1.788,4.318-1.788c-0.529,0.065-6.902,0.198-7.105,1.925
		c-0.193,1.724,2.787,3.116,14.736,3.116C69.459,70.258,74.703,68.067,75.563,67.143z"/>
	<path d="M70.918,71.054c-5.244,1.063-21.162,0.394-21.162,0.394s10.346,2.454,22.158,0.398c5.646-0.982,5.975-3.717,5.975-3.717
		S76.16,69.991,70.918,71.054z"/>
</g>
</svg>