<?xml version="1.0" encoding="utf-8"?>
<!DOCTYPE svg PUBLIC "-//W3C//DTD SVG 1.1//EN" "http://www.w3.org/Graphics/SVG/1.1/DTD/svg11.dtd">
<svg xmlns="http://www.w3.org/2000/svg" xmlns:xlink="http://www.w3.org/1999/xlink" viewBox="0 0 126 126">
<g>
	<polygon points="33.866,55.497 45.41,60.86 45.41,58.311 36.68,54.487 36.68,54.438 45.41,50.614 45.41,48.065 33.866,53.428 	"/>
	<polygon points="81.783,50.614 90.707,54.438 90.707,54.487 81.783,58.311 81.783,60.86 93.327,55.569 93.327,53.356 
		81.783,48.065 	"/>
	<path d="M63.367,40.688c-7.607,0-13.774,6.167-13.774,13.774s6.167,13.774,13.774,13.774S77.14,62.069,77.14,54.462
		S70.975,40.688,63.367,40.688z M68.544,46.155l0.985-0.659c0,0-0.414-1.061-0.344-1.581c0.239-0.116,1.209,0.393,2.029,1.256
		c-0.552,2.054-1.847,1.809-1.847,1.809S68.42,46.957,68.544,46.155z M60.241,58.283c-0.061,0.308-0.432,1.049-0.678,1.541
		c-0.246,0.493-0.369,0.679-0.679,0.925c-0.309,0.25-0.492,0.679-0.492,0.679l-0.062,1.047c0,0,0.121,0.865,0.306,1.174
		c0.185,0.306-0.66,2.143-0.66,2.143c-0.536-0.106-0.834-0.728-1.02-1.218c-0.186-0.495-0.431-0.757-0.369-1.311
		c0.062-0.555-0.479-0.848-0.662-1.156c-0.184-0.312-0.432-0.741-0.432-1.049c0-0.309-0.677-0.741-0.677-0.741
		s-1.234-0.555-1.419-0.8c-0.185-0.247-0.372-1.298-0.432-1.727c-0.063-0.43,0.184-1.54,0.184-1.54s0.498-0.374,0.185-0.679
		c-0.309-0.308-0.368-1.112-0.368-1.112l-0.556-0.615c0,0-0.433-0.617-0.494-0.926c-0.062-0.308,0-0.493,0.062-0.802
		c0.061-0.31-0.123-0.863-0.123-1.17c2.304-5.649,6.167-6.967,6.167-6.967l0.309,1.292c0,0-0.678,0.186-1.046,0.064
		c-0.372-0.124-0.559-0.124-0.559-0.124l-0.491,0.677c0,0-0.188,0.433-0.249,0.68s0.123,0.615,0.123,0.615s0.862,0.062,0.862-0.184
		c0-0.247-0.121-0.37-0.121-0.37l-0.124-0.432c0,0,0.559-0.309,2.034-0.187c1.48,0.125,0.927,1.172,1.545,1.421
		c0.617,0.247-0.496,1.109-0.742,1.601c-0.246,0.494-0.616-0.617-0.616-0.617s0.37-0.427-0.246-0.554
		c-0.617-0.121-1.025,1.11-0.713,1.05c0.307-0.061,0.651,0.332,0.588,0.639c-0.062,0.309-0.062,0.285-0.37,0.962
		c-0.308,0.678-0.978,1.18-0.978,1.18s-0.315-0.192-0.133,0.179c0.189,0.369-0.061,1.232-0.061,1.479c0,0.245-0.74-0.432-0.861-1.05
		c-0.126-0.613-0.848-0.079-1.094-0.016c-0.247,0.063-0.697-0.107-0.816-0.413c-0.126-0.31-1.237,0.615-1.546,0.799
		c-0.307,0.186-0.182,0.68,0.309,0.433c0.493-0.247,0.924-0.062,0.802,0.434c-0.122,0.49-0.614,0.185-0.554,0.49
		c0.061,0.308,0.554,0.617,0.676,1.05c0.124,0.43,1.298,0.062,1.667-0.124c0.369-0.187,1.418-0.37,1.54,0.124
		c0.128,0.494,1.297,0.676,1.728,0.798c0.433,0.124,1.296,0.186,1.791,0.679C61.167,57.049,60.306,57.974,60.241,58.283z
		 M63.016,43.853c-0.063,0.618-1.047,1.418-0.924,1.667c0.124,0.249,0,1.303-0.863,0.377c-0.864-0.925-1.729-1.239-1.665-1.858
		c0.015-0.123,0.893-0.316,0.907-0.532c1.308-1.216,3.396-0.966,3.556-0.678C63.653,43.44,63.078,43.236,63.016,43.853z
		 M73.731,47.994c0.833,1.431,2.052,5.247,1.602,5.929c-0.271-0.122-0.498-0.224-0.498-0.224H73.19l0.985,1.153
		c0,0,0.477,0.7,1.153,0.655c-0.445,5.157-4.749,8.469-4.749,8.469c-0.657-0.658-0.328-1.231-0.328-1.231l0.185-0.989l0.104-1.664
		c0,0,0-1.725-1.646-0.906c-1.767,0.451-1.03,0.451-2.815,0.575c-1.788,0.124-1.492-3.646-1.492-3.646
		c0-5.643,4.327-1.384,4.327-1.384c2.469,1.642,2.798-1.362,2.798-1.362l1.808-0.655l0.164-0.824l-0.263-1.149l-2.627-1.084
		c0,0-0.253,0.854,0.421,1.903c0,0-0.225,1.192-0.778,0.884l-1.522-0.765c0,0-0.512-0.222-1.334,0.273
		c-0.824,0.492-2.217-0.024-2.217-0.024s0.112-0.827,0.978-1.256l0.707-0.467c0,0-0.185-0.844-0.023-1.501
		c0.162-0.657,0.452-0.082,1.109-0.576c0.657-0.491,1.11,0.966,2.096,0.802c0.985-0.165,0.494-0.329,1.153-0.657
		c0.659-0.329,1.151,0.657,1.151,0.657l1.313,0.164C73.848,49.095,73.643,47.609,73.731,47.994z"/>
  <path fill-rule="evenodd" clip-rule="evenodd" d="M66.49,102.9h2.84c2.78,0,4.3-1,4.3-3.13c0-2-1.49-2.83-4.28-2.83h-2.86V102.9z
   M66.49,94.06h2.39c2.61,0,3.75-1.2,3.75-3.07c0-2.06-1.22-2.89-3.69-2.89h-2.45V94.06z M96,79.92H30V16h46.33v20.46
  c0,1.11,0.9,2,2,2H96V79.92z M99.98,36.44c-0.01-0.47-0.15-0.93-0.48-1.29L79.84,12.68l-0.02-0.01c-0.11-0.13-0.25-0.24-0.4-0.34
  l-0.13-0.07c-0.12-0.07-0.25-0.13-0.39-0.17l-0.11-0.03c-0.15-0.04-0.3-0.06-0.46-0.06H30c-2.21,0-4,1.79-4,4v94c0,2.21,1.79,4,4,4
  h66c2.21,0,4-1.79,4-4V36.67C100,36.59,99.99,36.52,99.98,36.44z M35.48,105.77c-3.02,0-5.04-0.99-6.44-2.93l2.86-2.14
  c0.81,1.54,1.9,2.2,3.08,2.2c1.82,0,2.77-1,2.77-3.91V85.06h3.86v14.28C41.61,103.21,39.78,105.77,35.48,105.77z M50.19,105.94V88.1
  h-5.83v-2.87h15.57v2.87h-5.88v17.84H50.19z M62.63,105.77V85.23h6.56c4.19,0,7.3,1.12,7.3,5.06c0,2.16-1.02,4.27-2.73,4.84v0.13
  c2.15,0.5,3.73,1.98,3.73,4.75c0,4.02-3.33,5.76-7.8,5.76H62.63z M89.2,105.77c-5.24,0-9.13-3.05-9.13-10.17
  c0-7.04,4.03-10.37,9.27-10.37c2.63,0,4.73,1.02,6.07,2.15l-2.18,2.51c-1.04-1.04-2.24-1.79-3.81-1.79c-3.14,0-5.49,2.77-5.49,7.36
  c0,4.64,2.13,7.44,5.41,7.44c1.76,0,3.16-0.87,4.28-2.11l2.18,2.53C94.1,104.92,91.88,105.77,89.2,105.77z"/>
</g>
</svg>