<?xml version="1.0" encoding="utf-8"?>
<!DOCTYPE svg PUBLIC "-//W3C//DTD SVG 1.1//EN" "http://www.w3.org/Graphics/SVG/1.1/DTD/svg11.dtd">
<svg xmlns="http://www.w3.org/2000/svg" xmlns:xlink="http://www.w3.org/1999/xlink" viewBox="0 0 126 126">
<g>
	<path d="M59.639,89.599c-3.365,0-5.325,3.202-5.325,7.481c0,4.313,2.025,7.351,5.357,7.351c3.365,0,5.292-3.201,5.292-7.481
		C64.964,92.997,63.07,89.599,59.639,89.599z"/>
	<path d="M99.98,36.443c-0.006-0.468-0.154-0.93-0.475-1.295L79.838,12.684c-0.004-0.006-0.01-0.008-0.016-0.014
		c-0.117-0.131-0.252-0.239-0.396-0.334c-0.043-0.028-0.086-0.053-0.131-0.078c-0.127-0.068-0.258-0.124-0.395-0.165
		c-0.037-0.011-0.07-0.026-0.107-0.036C78.643,12.021,78.49,12,78.334,12H30c-2.205,0-4,1.795-4,4v94c0,2.206,1.795,4,4,4h66
		c2.207,0,4-1.794,4-4V36.667C100,36.592,99.988,36.518,99.98,36.443z M48.365,108.024H34.612V86.006h4.998v17.837h8.755V108.024z
		 M59.411,108.384c-6.534,0-10.356-4.933-10.356-11.205c0-6.6,4.214-11.532,10.715-11.532c6.763,0,10.454,5.063,10.454,11.14
		C70.224,104.006,65.847,108.384,59.411,108.384z M91.888,107.012c-1.536,0.522-4.443,1.241-7.351,1.241
		c-4.018,0-6.926-1.013-8.951-2.973c-2.025-1.895-3.136-4.77-3.104-8.004c0.033-7.318,5.357-11.5,12.578-11.5
		c2.842,0,5.031,0.556,6.109,1.078l-1.045,3.986c-1.208-0.523-2.711-0.947-5.129-0.947c-4.149,0-7.285,2.352-7.285,7.121
		c0,4.541,2.842,7.22,6.926,7.22c1.144,0,2.058-0.13,2.45-0.326v-4.606h-3.397v-3.888h8.2V107.012z M30,79.917V16h46.334v20.466
		c0,1.104,0.895,2,2,2H96l0.002,41.451H30z"/>
</g>
<g>
	<path d="M78.083,28.999H75.25v4.834c0,0.874-0.709,1.583-1.583,1.583c-0.875,0-1.583-0.709-1.583-1.583v-4.834h-5v4.834
		c0,0.874-0.709,1.583-1.583,1.583c-0.875,0-1.583-0.709-1.583-1.583v-4.834H57.75v4.834c0,0.874-0.709,1.583-1.583,1.583
		c-0.875,0-1.583-0.709-1.583-1.583v-4.834h-5v4.834c0,0.874-0.709,1.583-1.583,1.583c-0.875,0-1.583-0.709-1.583-1.583v-4.834
		h-1.333c-1.657,0-3,1.343-3,3v39c0,1.657,1.343,3,3,3h33c1.657,0,3-1.343,3-3v-39C81.083,30.342,79.74,28.999,78.083,28.999z
		 M78.584,71H43.917V41h34.667V71z"/>
	<path d="M49.583,28.499c0-0.874-0.709-1.583-1.583-1.583c-0.875,0-1.583,0.709-1.583,1.583v0.5h3.167V28.499z"/>
	<path d="M57.75,28.499c0-0.874-0.709-1.583-1.583-1.583c-0.875,0-1.583,0.709-1.583,1.583v0.5h3.167V28.499z"/>
	<path d="M67.083,28.499c0-0.874-0.709-1.583-1.583-1.583c-0.875,0-1.583,0.709-1.583,1.583v0.5h3.167V28.499z"/>
	<path d="M75.25,28.499c0-0.874-0.709-1.583-1.583-1.583c-0.875,0-1.583,0.709-1.583,1.583v0.5h3.167V28.499z"/>
	<path d="M48,46.75h25.667c0.276,0,0.5-0.224,0.5-0.5s-0.224-0.5-0.5-0.5H48c-0.276,0-0.5,0.224-0.5,0.5S47.724,46.75,48,46.75z"/>
	<path d="M48,52.583h25.667c0.276,0,0.5-0.224,0.5-0.5s-0.224-0.5-0.5-0.5H48c-0.276,0-0.5,0.224-0.5,0.5S47.724,52.583,48,52.583z"
		/>
	<path d="M48,59.417h25.667c0.276,0,0.5-0.224,0.5-0.5s-0.224-0.5-0.5-0.5H48c-0.276,0-0.5,0.224-0.5,0.5S47.724,59.417,48,59.417z"
		/>
	<path d="M48,65.25h25.667c0.276,0,0.5-0.224,0.5-0.5s-0.224-0.5-0.5-0.5H48c-0.276,0-0.5,0.224-0.5,0.5S47.724,65.25,48,65.25z"/>
</g>
</svg>