<?xml version="1.0" encoding="utf-8"?>
<!DOCTYPE svg PUBLIC "-//W3C//DTD SVG 1.1//EN" "http://www.w3.org/Graphics/SVG/1.1/DTD/svg11.dtd">
<svg xmlns="http://www.w3.org/2000/svg" xmlns:xlink="http://www.w3.org/1999/xlink" viewBox="0 0 126 126">
<g>
	<path d="M85.514,90.002h-0.063c-0.316,1.264-0.632,2.877-0.98,4.11l-1.265,4.521h4.711l-1.328-4.521
		C86.209,92.848,85.83,91.266,85.514,90.002z"/>
	<path d="M65.879,94.649l-2.751,4.49v0.063h4.617v-4.554c0-1.232,0.063-2.498,0.158-3.825h-0.127
		C67.112,92.151,66.575,93.353,65.879,94.649z"/>
	<path d="M99.98,36.352c-0.006-0.468-0.154-0.93-0.475-1.295L79.838,12.592c-0.004-0.006-0.01-0.008-0.016-0.014
		c-0.117-0.131-0.252-0.239-0.396-0.334c-0.043-0.028-0.086-0.053-0.131-0.078c-0.127-0.068-0.258-0.124-0.395-0.165
		c-0.037-0.011-0.07-0.026-0.107-0.036c-0.15-0.035-0.303-0.057-0.459-0.057H30c-2.205,0-4,1.795-4,4v94c0,2.206,1.795,4,4,4h66
		c2.207,0,4-1.794,4-4V36.575C100,36.5,99.988,36.426,99.98,36.352z M51.589,107.709l-0.316-8.158
		c-0.095-2.562-0.189-5.66-0.189-8.76h-0.095c-0.664,2.721-1.55,5.756-2.372,8.254l-2.593,8.316h-3.763l-2.277-8.253
		c-0.696-2.498-1.423-5.534-1.929-8.317h-0.063c-0.126,2.878-0.221,6.167-0.379,8.823l-0.38,8.095h-4.458l1.36-21.313h6.419
		l2.087,7.115c0.664,2.466,1.328,5.122,1.803,7.62h0.095c0.601-2.466,1.328-5.28,2.024-7.652l2.276-7.083h6.293l1.17,21.313H51.589z
		 M74.765,102.808h-2.466v4.901h-4.554v-4.901h-9.107v-3.13l7.779-12.522h5.882v12.048h2.466V102.808z M90.257,107.709l-1.644-5.471
		H82.51l-1.518,5.471h-4.996l6.514-21.313h6.325l6.608,21.313H90.257z M30,79.825V15.908h46.334v20.466c0,1.104,0.895,2,2,2H96
		l0.002,41.451H30z"/>
</g>
<g>
	<path d="M61.93,31.01c-1.432,0-2.83,0.147-4.18,0.426c0.805,0.936,1.356,1.895,1.722,2.766c0.806-0.113,1.622-0.191,2.458-0.191
		c9.747,0,17.676,7.93,17.676,17.677c0,9.746-7.93,17.676-17.676,17.676c-7.9,0-14.604-5.211-16.862-12.375
		c-0.19,0.015-0.38,0.035-0.572,0.035c-0.957,0-1.847-0.187-2.646-0.494c2.188,9.068,10.349,15.834,20.08,15.834
		c11.401,0,20.676-9.275,20.676-20.676C82.606,40.285,73.331,31.01,61.93,31.01z"/>
	<path d="M61.93,57.247c3.066,0,5.561-2.494,5.561-5.561s-2.495-5.562-5.561-5.562s-5.561,2.495-5.561,5.562
		S58.864,57.247,61.93,57.247z M61.93,49.125c1.412,0,2.561,1.149,2.561,2.562s-1.149,2.561-2.561,2.561s-2.561-1.148-2.561-2.561
		S60.518,49.125,61.93,49.125z"/>
	<path d="M51.612,37.363l2.743-1.624c-0.968-1.007-1.858-1.639-2.598-2.032c-0.046,0.025-0.09,0.056-0.136,0.082L51.612,37.363z"/>
	<path d="M45.263,45.812l0.006-6.317c-1.573,2.144-2.738,4.595-3.393,7.252c0.557-0.296,1.147-0.547,1.783-0.705
		C44.193,45.909,44.73,45.833,45.263,45.812z"/>
	<path d="M46.116,54.02c2.176-0.539,3.693-2.182,3.702-3.863h0.008l0.055-19.946c0,0,4.341-0.232,8.595,6.432
		c0,0,0.009-3.439-3.26-5.958c-6.379-4.459-6.363-5.508-6.363-5.508c-1.215,0.143-1.339,1.064-1.339,1.064v21.005
		c-0.913-0.317-2.004-0.372-3.122-0.098c-2.476,0.616-4.094,2.661-3.62,4.563C41.049,53.464,43.64,54.645,46.116,54.02z"/>
</g>
</svg>