<?xml version="1.0" encoding="utf-8"?>
<!DOCTYPE svg PUBLIC "-//W3C//DTD SVG 1.1//EN" "http://www.w3.org/Graphics/SVG/1.1/DTD/svg11.dtd">
<svg xmlns="http://www.w3.org/2000/svg" xmlns:xlink="http://www.w3.org/1999/xlink" viewBox="0 0 126 126">
<g>
	<path d="M64.798,93.488l-2.746,4.481v0.063h4.608v-4.545c0-1.23,0.063-2.494,0.158-3.819h-0.126
		C66.03,90.994,65.493,92.193,64.798,93.488z"/>
	<path d="M99.98,36.396c-0.006-0.468-0.154-0.93-0.475-1.295L79.838,12.636c-0.004-0.006-0.01-0.008-0.016-0.014
		c-0.117-0.131-0.252-0.239-0.396-0.334c-0.043-0.028-0.086-0.053-0.131-0.078c-0.127-0.068-0.258-0.124-0.395-0.165
		c-0.037-0.011-0.07-0.026-0.107-0.036c-0.15-0.035-0.303-0.057-0.459-0.057H30c-2.205,0-4,1.795-4,4v94c0,2.206,1.795,4,4,4h66
		c2.207,0,4-1.794,4-4V36.619C100,36.544,99.988,36.47,99.98,36.396z M50.535,106.523l-0.315-8.143
		c-0.095-2.557-0.189-5.65-0.189-8.744h-0.095c-0.663,2.715-1.546,5.745-2.367,8.238l-2.588,8.302h-3.756l-2.272-8.238
		c-0.695-2.493-1.42-5.523-1.925-8.302h-0.063c-0.126,2.873-0.221,6.155-0.378,8.807l-0.379,8.08h-4.451l1.357-21.273h6.407
		l2.083,7.102c0.663,2.462,1.326,5.113,1.799,7.606h0.095c0.6-2.461,1.326-5.271,2.02-7.638l2.272-7.07h6.281l1.168,21.273H50.535z
		 M73.668,101.631h-2.462v4.893h-4.545v-4.893h-9.09v-3.125l7.764-12.498h5.871v12.025h2.462V101.631z M87.08,106.523h-5.618
		L74.644,85.25h5.271l2.588,8.995c0.726,2.525,1.389,4.956,1.894,7.607h0.094c0.537-2.557,1.2-5.082,1.926-7.512l2.714-9.091h5.114
		L87.08,106.523z M30,79.869V15.952h46.334v20.466c0,1.104,0.895,2,2,2H96l0.002,41.451H30z"/>
</g>
<g>
	<rect x="48.784" y="40.69" width="2.494" height="2.698"/>
	<rect x="48.784" y="52.822" width="2.494" height="2.699"/>
	<rect x="48.784" y="46.798" width="2.494" height="2.699"/>
	<rect x="48.784" y="58.929" width="2.494" height="2.7"/>
	<path d="M80.564,51.513c0-4.847-1.849-9.258-4.858-12.606v25.212C78.716,60.77,80.564,56.358,80.564,51.513z"/>
	<path d="M51.043,67.137c3.029,2.065,6.685,3.276,10.619,3.276c3.936,0,7.591-1.211,10.621-3.276"/>
	<path d="M42.762,51.513c0,4.846,1.849,9.257,4.858,12.606V38.905C44.61,42.255,42.762,46.666,42.762,51.513z"/>
	<path d="M61.662,32.61c-3.772,0-7.281,1.123-10.234,3.034h20.469C68.944,33.733,65.435,32.61,61.662,32.61z"/>
	<rect x="52.182" y="38.138" width="18.489" height="12.225"/>
	<rect x="52.182" y="52.419" width="18.489" height="12.475"/>
	<rect x="71.935" y="40.69" width="2.496" height="2.698"/>
	<rect x="71.935" y="52.822" width="2.496" height="2.699"/>
	<rect x="71.935" y="46.798" width="2.496" height="2.699"/>
	<rect x="71.935" y="58.929" width="2.496" height="2.7"/>
</g>
</svg>