<?xml version="1.0" encoding="utf-8"?>
<!DOCTYPE svg PUBLIC "-//W3C//DTD SVG 1.1//EN" "http://www.w3.org/Graphics/SVG/1.1/DTD/svg11.dtd">
<svg xmlns="http://www.w3.org/2000/svg" xmlns:xlink="http://www.w3.org/1999/xlink" viewBox="0 0 126 126">
<g>
	<g>
		<path d="M87.842,91.362c0-1.48-1.133-2.265-3.137-2.265c-0.958,0-1.51,0.058-1.888,0.116v4.56h1.452
			C86.593,93.773,87.842,92.815,87.842,91.362z"/>
		<path d="M84.328,96.939h-1.51v5.519c0.436,0.058,0.958,0.058,1.713,0.058c2.004,0,3.775-0.755,3.775-2.817
			C88.307,97.724,86.536,96.939,84.328,96.939z"/>
		<path d="M64.667,89.271c-0.987,0-1.626,0.088-2.004,0.175v12.808c0.377,0.088,0.987,0.088,1.539,0.088
			c4.008,0.029,6.623-2.178,6.623-6.854C70.853,91.421,68.471,89.271,64.667,89.271z"/>
		<path d="M99.874,36.544c-0.006-0.468-0.154-0.93-0.475-1.295L79.731,12.784c-0.004-0.006-0.01-0.008-0.016-0.014
			c-0.117-0.131-0.252-0.239-0.396-0.334c-0.043-0.028-0.086-0.053-0.131-0.078c-0.127-0.068-0.258-0.124-0.395-0.165
			c-0.037-0.011-0.07-0.026-0.107-0.036c-0.15-0.035-0.303-0.057-0.459-0.057H29.893c-2.205,0-4,1.795-4,4v94c0,2.206,1.795,4,4,4
			h66c2.207,0,4-1.794,4-4V36.768C99.893,36.692,99.881,36.618,99.874,36.544z M50.494,105.595l-0.291-7.493
			c-0.087-2.353-0.174-5.199-0.174-8.045h-0.087c-0.61,2.497-1.424,5.285-2.179,7.58l-2.382,7.638h-3.456l-2.092-7.579
			c-0.638-2.295-1.306-5.083-1.771-7.639h-0.058c-0.116,2.643-0.203,5.663-0.349,8.103l-0.348,7.436h-4.095l1.249-19.576h5.896
			l1.917,6.535c0.61,2.266,1.22,4.705,1.655,7h0.087c0.553-2.266,1.22-4.851,1.859-7.028l2.091-6.507h5.78l1.074,19.576H50.494z
			 M72.276,103.271c-2.062,1.713-5.199,2.526-9.033,2.526c-2.294,0-3.921-0.146-5.025-0.29V86.28
			c1.627-0.262,3.747-0.406,5.983-0.406c3.717,0,6.128,0.668,8.016,2.091c2.034,1.511,3.311,3.921,3.311,7.377
			C75.528,99.088,74.164,101.674,72.276,103.271z M90.921,104.026c-1.424,1.132-3.805,1.771-7.697,1.771
			c-2.178,0-3.805-0.146-4.792-0.29V86.28c1.163-0.232,3.514-0.406,5.722-0.406c2.701,0,4.356,0.261,5.78,1.104
			c1.365,0.726,2.353,2.062,2.353,3.834c0,1.742-1.017,3.369-3.224,4.182v0.059c2.236,0.61,3.892,2.294,3.892,4.821
			C92.954,101.645,92.141,103.039,90.921,104.026z M29.893,80.018V16.101h46.334v20.466c0,1.104,0.895,2,2,2h17.666l0.002,41.451
			H29.893z"/>
	</g>
	<g>
		<path d="M89.86,47.26c-0.249-0.241-0.612-0.334-0.946-0.24l-3.922,1.097c-0.161,0.046-0.311,0.132-0.429,0.251l-0.871,0.872
			c-0.097,0.095-0.151,0.223-0.155,0.357l-0.052,1.498h-1.333c-0.147,0-0.282,0.059-0.377,0.155
			c-0.092,0.093-0.15,0.219-0.156,0.358l-0.046,1.398H80.39c-0.147,0-0.281,0.06-0.376,0.156c-0.094,0.093-0.151,0.218-0.156,0.358
			l-0.042,1.241h-1.21c-0.289,0.011-0.412-0.026-0.559,0.121l-0.036,0.035c-0.076,0.098-0.129,0.293-0.126,0.535l-0.043,1.285
			h-1.429c-0.142,0-0.277,0.056-0.376,0.156l-2.194,2.193c-2.687-1.087-5.807-0.465-7.873,1.602c-2.835,2.835-2.835,7.449,0,10.285
			c2.836,2.836,7.45,2.836,10.286,0c1.927-1.928,2.608-4.783,1.783-7.364L88.837,52.81c0.125-0.125,0.215-0.283,0.257-0.455
			l1.034-4.155C90.212,47.862,90.108,47.502,89.86,47.26z M71.691,70.065c-0.777,0.777-2.536,0.332-3.84-0.973
			c-1.304-1.306-1.751-3.064-0.973-3.841c0.776-0.777,2.535-0.331,3.839,0.974C72.023,67.53,72.468,69.288,71.691,70.065z
			 M76.99,60.956l10.349-10.349l0.354,0.353l-10.35,10.349L76.99,60.956z M78.001,61.968l-0.165-0.165l10.349-10.349l0.165,0.165
			L78.001,61.968z"/>
		<path d="M62.572,65.359H40.865V45.074h40.467v4.607c0.315-0.316,0.689-0.568,1.099-0.744c0.178-0.479,0.461-0.919,0.837-1.287
			l0.799-0.801v-9.753H38.129v30.998H62.67C62.519,67.19,62.481,66.271,62.572,65.359z"/>
		<rect x="49.322" y="49.254" width="23.552" height="3.039"/>
		<path d="M49.322,60.043h15.393c0.25-0.317,0.515-0.627,0.808-0.92c0.901-0.901,1.978-1.613,3.144-2.119H49.322V60.043z"/>
	</g>
</g>
</svg>