<?xml version="1.0" encoding="utf-8"?>
<!DOCTYPE svg PUBLIC "-//W3C//DTD SVG 1.1//EN" "http://www.w3.org/Graphics/SVG/1.1/DTD/svg11.dtd">
<svg xmlns="http://www.w3.org/2000/svg" xmlns:xlink="http://www.w3.org/1999/xlink" viewBox="0 0 126 126">
<g>
	<path d="M78.714,89.459c-1.075,0-1.771,0.095-2.182,0.189v13.945c0.411,0.095,1.075,0.095,1.676,0.095
		c4.364,0.031,7.209-2.371,7.209-7.463C85.449,91.799,82.856,89.459,78.714,89.459z"/>
	<path d="M99.98,36.443c-0.006-0.468-0.154-0.93-0.475-1.295L79.838,12.684c-0.004-0.006-0.01-0.008-0.016-0.014
		c-0.117-0.131-0.252-0.239-0.396-0.334c-0.043-0.028-0.086-0.053-0.131-0.078c-0.127-0.068-0.258-0.124-0.395-0.165
		c-0.037-0.011-0.07-0.026-0.107-0.036C78.643,12.021,78.49,12,78.334,12H30c-2.205,0-4,1.795-4,4v94c0,2.206,1.795,4,4,4h66
		c2.207,0,4-1.794,4-4V36.667C100,36.592,99.988,36.518,99.98,36.443z M54.274,107.23l-0.316-8.158
		c-0.095-2.562-0.189-5.661-0.189-8.76h-0.095c-0.664,2.72-1.55,5.755-2.372,8.253l-2.593,8.317h-3.763l-2.277-8.254
		c-0.696-2.497-1.423-5.534-1.929-8.316h-0.063c-0.126,2.877-0.221,6.167-0.379,8.822l-0.38,8.096H35.46l1.36-21.313h6.419
		l2.087,7.115c0.664,2.466,1.328,5.123,1.803,7.62h0.095c0.601-2.466,1.328-5.28,2.024-7.651l2.276-7.084h6.293l1.17,21.313H54.274z
		 M67.521,107.23h-4.838V85.917h4.838V107.23z M86.999,104.7c-2.245,1.866-5.66,2.752-9.834,2.752c-2.498,0-4.269-0.159-5.471-0.316
		V86.201c1.771-0.284,4.08-0.442,6.515-0.442c4.047,0,6.672,0.728,8.728,2.277c2.213,1.644,3.604,4.269,3.604,8.031
		C90.54,100.147,89.054,102.961,86.999,104.7z M30,79.917V16h46.334v20.466c0,1.104,0.895,2,2,2H96l0.002,41.451H30z"/>
</g>
<g>
	<path d="M53.662,54.044h0.008l0.064-23.154c0,0,5.04-0.269,9.977,7.467c0,0,0.011-3.993-3.784-6.917
		c-7.404-5.176-7.385-6.393-7.385-6.393c-1.411,0.166-1.555,1.235-1.555,1.235v24.384c-1.06-0.368-2.326-0.433-3.624-0.114
		c-2.874,0.717-4.752,3.09-4.203,5.297c0.322,2.036,3.329,3.405,6.204,2.682C51.89,57.904,53.651,55.997,53.662,54.044z"/>
	<path d="M56.991,43.211v22.643c-0.986-0.346-2.162-0.406-3.363-0.107c-2.672,0.668-4.42,2.869-3.908,4.918
		c0.299,1.896,3.094,3.166,5.76,2.496c2.348-0.582,3.982-2.359,3.994-4.172h0.004l0.063-19.127l13.797-2.523v15.377
		c-1.002-0.354-2.203-0.416-3.422-0.115c-2.699,0.676-4.465,2.896-3.947,4.971c0.518,2.068,3.121,3.197,5.82,2.529
		c2.459-0.621,4.033-2.309,4.033-4.42V40.156L56.991,43.211z"/>
</g>
</svg>