<?xml version="1.0" encoding="utf-8"?>
<!DOCTYPE svg PUBLIC "-//W3C//DTD SVG 1.1//EN" "http://www.w3.org/Graphics/SVG/1.1/DTD/svg11.dtd">
<svg xmlns="http://www.w3.org/2000/svg" xmlns:xlink="http://www.w3.org/1999/xlink" viewBox="0 0 126 126">
<g>
	<path d="M66.592,88.213c-3.086,0-4.885,2.937-4.885,6.861c0,3.956,1.857,6.743,4.914,6.743c3.088,0,4.855-2.937,4.855-6.862
		C71.477,91.33,69.738,88.213,66.592,88.213z"/>
	<path d="M99.98,36.442c-0.006-0.468-0.156-0.929-0.477-1.295L79.838,12.682c-0.006-0.005-0.012-0.008-0.016-0.013
		c-0.117-0.132-0.254-0.239-0.398-0.334c-0.043-0.028-0.086-0.054-0.131-0.078c-0.125-0.069-0.256-0.124-0.395-0.165
		c-0.037-0.011-0.07-0.027-0.107-0.035C78.643,12.021,78.488,12,78.332,12H30c-2.205,0-4,1.794-4,4v94c0,2.205,1.795,4,4,4h66
		c2.205,0,4-1.795,4-4V36.666C100,36.591,99.988,36.517,99.98,36.442z M49.838,105.113l-0.301-7.731
		c-0.09-2.427-0.18-5.364-0.18-8.301h-0.09c-0.629,2.577-1.469,5.456-2.246,7.823l-2.457,7.881h-3.566l-2.158-7.823
		c-0.66-2.367-1.35-5.243-1.828-7.881h-0.061c-0.119,2.727-0.209,5.845-0.359,8.36l-0.359,7.672h-4.225l1.289-20.196h6.082
		l1.979,6.741c0.629,2.338,1.258,4.855,1.707,7.223h0.09c0.57-2.338,1.26-5.005,1.918-7.252l2.158-6.712h5.963l1.109,20.196H49.838z
		 M66.383,105.443c-5.994,0-9.5-4.525-9.5-10.277c0-6.055,3.865-10.579,9.828-10.579c6.203,0,9.59,4.646,9.59,10.218
		C76.301,101.428,72.285,105.443,66.383,105.443z M89.189,105.113h-5.334l-6.473-20.196h5.004l2.457,8.54
		c0.689,2.396,1.318,4.705,1.799,7.223h0.09c0.51-2.428,1.139-4.826,1.828-7.134l2.576-8.629h4.855L89.189,105.113z M30,79.916V16
		h46.332v20.465c0,1.104,0.896,2,2,2H96v41.451H30z"/>
	<path d="M63,32.28c-10.623,0-19.236,8.612-19.236,19.235S52.377,70.751,63,70.751s19.236-8.612,19.236-19.236
		S73.623,32.28,63,32.28z M51.153,55.813c-2.659-0.172-4.677-2.469-4.505-5.126c0.172-2.661,2.467-4.678,5.129-4.506
		c2.657,0.171,4.676,2.469,4.5,5.13C56.109,53.968,53.813,55.985,51.153,55.813z M61.65,67.8c-2.658-0.17-4.676-2.466-4.505-5.127
		c0.173-2.657,2.47-4.675,5.128-4.501c2.655,0.172,4.68,2.466,4.504,5.127C66.606,65.956,64.313,67.973,61.65,67.8z M60.308,51.647
		c0-1.441,1.168-2.615,2.612-2.615c1.441,0,2.615,1.174,2.615,2.615c0,1.44-1.174,2.613-2.615,2.613
		C61.476,54.26,60.308,53.087,60.308,51.647z M63.021,44.861c-2.658-0.171-4.676-2.467-4.51-5.128
		c0.175-2.659,2.469-4.676,5.131-4.501c2.66,0.17,4.676,2.464,4.504,5.124C67.975,43.016,65.678,45.031,63.021,44.861z M73.28,57.24
		c-2.659-0.172-4.677-2.466-4.508-5.126c0.175-2.661,2.466-4.676,5.131-4.502c2.657,0.168,4.675,2.463,4.504,5.126
		C78.232,55.396,75.938,57.413,73.28,57.24z"/>
</g>
</svg>