<?xml version="1.0" encoding="utf-8"?>
<!DOCTYPE svg PUBLIC "-//W3C//DTD SVG 1.1//EN" "http://www.w3.org/Graphics/SVG/1.1/DTD/svg11.dtd">
<svg xmlns="http://www.w3.org/2000/svg" xmlns:xlink="http://www.w3.org/1999/xlink" viewBox="0 0 126 126">
<g>
	<path d="M67.791,88.708c-1.016,0-1.705,0.098-2.064,0.195v6.525c0.426,0.098,0.951,0.133,1.672,0.133
		c2.656,0,4.297-1.346,4.297-3.609C71.695,89.921,70.285,88.708,67.791,88.708z"/>
	<path d="M99.979,36.443c-0.004-0.467-0.154-0.93-0.475-1.295L79.838,12.683c-0.006-0.006-0.012-0.008-0.016-0.014
		c-0.117-0.131-0.254-0.238-0.398-0.334c-0.043-0.027-0.086-0.053-0.131-0.078c-0.125-0.068-0.258-0.123-0.395-0.164
		c-0.037-0.012-0.07-0.027-0.107-0.037C78.643,12.021,78.488,12,78.332,12H30c-2.207,0-4,1.795-4,4v94c0,2.205,1.793,4,4,4h66
		c2.205,0,4-1.795,4-4V36.667C100,36.591,99.988,36.517,99.979,36.443z M52.049,107.201l-0.328-8.459
		c-0.1-2.656-0.197-5.871-0.197-9.084h-0.098c-0.689,2.82-1.607,5.969-2.461,8.561l-2.688,8.623h-3.902l-2.361-8.561
		c-0.721-2.59-1.477-5.736-2-8.623h-0.066c-0.131,2.984-0.229,6.395-0.393,9.148l-0.395,8.395h-4.623l1.41-22.1h6.656l2.164,7.377
		c0.689,2.559,1.377,5.313,1.869,7.902h0.1c0.623-2.559,1.377-5.475,2.098-7.934l2.361-7.346h6.525l1.213,22.1H52.049z
		 M74.613,97.068c-1.705,1.609-4.23,2.33-7.182,2.33c-0.656,0-1.246-0.033-1.705-0.098v7.9h-4.953V85.396
		c1.543-0.264,3.707-0.461,6.756-0.461c3.082,0,5.279,0.592,6.756,1.773c1.41,1.113,2.361,2.949,2.361,5.115
		C76.646,93.986,75.924,95.824,74.613,97.068z M85.24,107.562c-2.756,0-5.084-0.721-6.33-1.508l1.018-3.738
		c0.885,0.459,2.918,1.311,4.951,1.311c2.59,0,3.902-1.246,3.902-2.852c0-2.098-2.1-3.051-4.297-3.051h-2.033V94.15h1.936
		c1.672-0.031,3.805-0.654,3.805-2.459c0-1.279-1.051-2.229-3.148-2.229c-1.738,0-3.574,0.754-4.461,1.279l-1.016-3.609
		c1.279-0.818,3.836-1.605,6.592-1.605c4.557,0,7.082,2.395,7.082,5.313c0,2.262-1.279,4.033-3.902,4.951v0.066
		c2.559,0.459,4.625,2.393,4.625,5.18C93.963,104.808,90.65,107.562,85.24,107.562z M30,79.917V16h46.332v20.467
		c0,1.104,0.896,2,2,2H96v41.451H30z"/>
	<path d="M77.186,55.457c-5.363-3.283-5.344-4.059-5.344-4.059c-1.023,0.105-1.129,0.787-1.129,0.787V67.66
		c-0.77-0.236-1.684-0.279-2.625-0.072c-2.082,0.451-3.443,1.959-3.045,3.359c0.232,1.295,2.414,2.166,4.494,1.703
		c1.828-0.398,3.102-1.609,3.111-2.848h0.004l0.047-14.348c0,0,3.652-0.52,7.227,4.391C79.926,59.845,79.936,57.31,77.186,55.457z"
		/>
	<path d="M57.076,52.626c0,1.814,1.477,3.291,3.291,3.291s3.289-1.477,3.289-3.291s-1.475-3.289-3.289-3.289
		S57.076,50.812,57.076,52.626z"/>
	<path d="M54.072,52.626c0,3.471,2.824,6.295,6.295,6.295c3.469,0,6.293-2.824,6.293-6.295s-2.824-6.295-6.293-6.295
		C56.896,46.332,54.072,49.156,54.072,52.626z M65.107,52.626c0,2.613-2.125,4.74-4.74,4.74c-2.613,0-4.742-2.127-4.742-4.74
		s2.129-4.74,4.742-4.74C62.982,47.886,65.107,50.013,65.107,52.626z"/>
	<path d="M67.861,66.339c0.506-0.111,0.977-0.172,1.533-0.164l0.002-1.863c-2.502,1.938-5.629,3.104-9.029,3.104
		c-8.156,0-14.789-6.635-14.789-14.789s6.633-14.789,14.789-14.789c8.127,0,14.738,6.592,14.783,14.709
		c0.41,0.289,0.916,0.627,1.51,1.008c0.018-0.309,0.047-0.615,0.047-0.928c0-9.01-7.33-16.342-16.34-16.342
		c-9.014,0-16.344,7.332-16.344,16.342s7.33,16.342,16.344,16.342c1.391,0,2.732-0.193,4.021-0.521
		C65.139,67.421,66.377,66.66,67.861,66.339z"/>
	<path d="M74.146,57.953l-0.012,3.441c0.703-1.104,1.279-2.293,1.705-3.555c-0.521-0.32-0.996-0.531-1.408-0.664
		C74.346,57.439,74.244,57.695,74.146,57.953z"/>
</g>
</svg>