<?xml version="1.0" encoding="utf-8"?>
<!DOCTYPE svg PUBLIC "-//W3C//DTD SVG 1.1//EN" "http://www.w3.org/Graphics/SVG/1.1/DTD/svg11.dtd">
<svg xmlns="http://www.w3.org/2000/svg" xmlns:xlink="http://www.w3.org/1999/xlink" viewBox="0 0 126 126">
<g>
	<path d="M86.455,93.344l-2.947,4.81v0.067h4.943v-4.877c0-1.32,0.068-2.675,0.17-4.098h-0.135
		C87.775,90.669,87.199,91.955,86.455,93.344z"/>
	<path d="M99.98,36.443c-0.006-0.468-0.156-0.93-0.475-1.295L79.838,12.684c-0.004-0.006-0.01-0.008-0.016-0.014
		c-0.117-0.131-0.252-0.239-0.396-0.334c-0.043-0.028-0.086-0.053-0.131-0.078c-0.127-0.068-0.258-0.124-0.395-0.165
		c-0.037-0.011-0.07-0.026-0.109-0.036C78.643,12.021,78.488,12,78.334,12H30c-2.205,0-4,1.795-4,4v94c0,2.206,1.795,4,4,4h66
		c2.205,0,4-1.794,4-4V36.667C100,36.592,99.988,36.518,99.98,36.443z M51.465,107.33l-0.338-8.738
		c-0.104-2.74-0.203-6.062-0.203-9.38h-0.102c-0.711,2.913-1.66,6.165-2.541,8.841l-2.777,8.906h-4.029l-2.438-8.84
		c-0.746-2.676-1.523-5.927-2.066-8.907h-0.068c-0.135,3.081-0.236,6.604-0.406,9.448l-0.404,8.67h-4.777l1.457-22.824h6.875
		l2.234,7.619c0.711,2.642,1.422,5.486,1.932,8.162h0.102c0.641-2.643,1.422-5.656,2.166-8.195l2.439-7.586h6.738l1.254,22.824
		H51.465z M74.768,96.865c-1.76,1.661-4.367,2.405-7.416,2.405c-0.678,0-1.287-0.033-1.76-0.101v8.16h-5.115v-22.52
		c1.592-0.271,3.826-0.476,6.977-0.476c3.184,0,5.451,0.61,6.977,1.83c1.455,1.15,2.438,3.047,2.438,5.283
		C76.867,93.683,76.121,95.579,74.768,96.865z M95.971,102.082h-2.643v5.248h-4.877v-5.248h-9.752v-3.354l8.33-13.41h6.299v12.902
		h2.643V102.082z M30,79.917V16h46.334v20.466c0,1.104,0.895,2,2,2H96l0.002,41.451H30z"/>
	<path d="M67.723,88.23c-1.049,0-1.76,0.102-2.131,0.202v6.74c0.438,0.101,0.98,0.136,1.727,0.136c2.742,0,4.436-1.389,4.436-3.727
		C71.754,89.484,70.297,88.23,67.723,88.23z"/>
	<path d="M46.967,63.163h28.131V42.547H46.967V63.163z M57.082,46.707c0-0.109,0.064-0.213,0.162-0.26
		c0.102-0.05,0.221-0.037,0.309,0.032l9.629,6.146c0.068,0.058,0.107,0.141,0.107,0.228c0,0.088-0.039,0.172-0.107,0.229
		l-9.629,6.149c-0.053,0.041-0.115,0.063-0.18,0.063l-0.129-0.03c-0.098-0.046-0.162-0.15-0.162-0.259V46.707z"/>
	<path d="M46.967,63.485v-0.322h-1.02v5.035h30.277v-5.035h-1.127v0.322H46.967z M75.582,63.807v3.747h-28.99v-3.747H75.582z"/>
	<path d="M45.947,42.547h1.02v-0.322h28.131v0.322h1.127v-5.035H45.947V42.547z M46.592,38.156h28.99v3.747h-28.99V38.156z"/>
	<rect x="47.719" y="39.047" width="4.309" height="1.825"/>
	<rect x="53.238" y="39.047" width="4.309" height="1.825"/>
	<rect x="58.715" y="39.047" width="4.309" height="1.825"/>
	<rect x="64.232" y="39.047" width="4.309" height="1.825"/>
	<rect x="69.93" y="39.117" width="4.309" height="1.826"/>
	<rect x="47.771" y="64.708" width="4.311" height="1.826"/>
	<rect x="53.291" y="64.708" width="4.309" height="1.826"/>
	<rect x="58.768" y="64.708" width="4.309" height="1.826"/>
	<rect x="64.287" y="64.708" width="4.309" height="1.826"/>
	<rect x="69.982" y="64.779" width="4.309" height="1.826"/>
</g>
</svg>