<?xml version="1.0" encoding="utf-8"?>
<!DOCTYPE svg PUBLIC "-//W3C//DTD SVG 1.1//EN" "http://www.w3.org/Graphics/SVG/1.1/DTD/svg11.dtd">
<svg xmlns="http://www.w3.org/2000/svg" xmlns:xlink="http://www.w3.org/1999/xlink" viewBox="0 0 126 126">
<g>
	<path d="M99.98,36.402c-0.006-0.468-0.154-0.93-0.475-1.295L79.838,12.643c-0.004-0.006-0.01-0.008-0.016-0.014
		c-0.117-0.131-0.252-0.239-0.396-0.334c-0.043-0.028-0.086-0.053-0.131-0.078c-0.127-0.068-0.258-0.124-0.395-0.165
		c-0.037-0.011-0.07-0.026-0.107-0.036c-0.15-0.035-0.303-0.057-0.459-0.057H30c-2.205,0-4,1.795-4,4v94c0,2.206,1.795,4,4,4h66
		c2.207,0,4-1.794,4-4V36.626C100,36.551,99.988,36.477,99.98,36.402z M56.832,107.461l-0.339-8.739
		c-0.102-2.744-0.203-6.063-0.203-9.384h-0.102c-0.711,2.913-1.66,6.165-2.541,8.842l-2.778,8.908h-4.031L44.4,98.247
		c-0.746-2.676-1.524-5.928-2.066-8.909h-0.068c-0.135,3.083-0.237,6.605-0.407,9.451l-0.406,8.672h-4.776l1.457-22.831h6.876
		l2.236,7.621c0.711,2.643,1.423,5.488,1.931,8.164h0.102c0.644-2.643,1.422-5.657,2.168-8.197l2.439-7.588h6.741l1.253,22.831
		H56.832z M71.436,107.8c-2.608,0-5.183-0.678-6.47-1.389l1.05-4.269c1.389,0.711,3.523,1.423,5.725,1.423
		c2.371,0,3.625-0.982,3.625-2.473c0-1.423-1.084-2.236-3.828-3.219c-3.794-1.32-6.267-3.421-6.267-6.74
		c0-3.896,3.252-6.877,8.638-6.877c2.574,0,4.472,0.542,5.826,1.151l-1.151,4.167c-0.915-0.44-2.541-1.084-4.776-1.084
		s-3.32,1.017-3.32,2.202c0,1.456,1.287,2.1,4.234,3.218c4.031,1.49,5.928,3.591,5.928,6.809
		C80.65,104.548,77.703,107.8,71.436,107.8z M89.324,107.461h-5.183V84.63h5.183V107.461z M30,79.876V15.959h46.334v20.466
		c0,1.104,0.895,2,2,2H96l0.002,41.451H30z"/>
	<g>
		<path d="M74.878,49.201v-6.572l11.4-4.193L73.034,33.43l1.732-3.102l-6.021-2.042l-1.507,3.12
			c-0.326,0.07-0.802,0.188-0.848,0.197c-8.588,2.031-21.621,5.064-22.357,5.109c-0.139,0.001-0.255,0.078-0.324,0.188l-0.037-0.022
			l-0.077-0.054l-0.092-0.017l-3.441-0.658l-3.056-0.584l2.767,1.422l2.112,1.086v36.061l6.059,1.712v-36.29v-0.062l-0.177-0.05
			l-1.834-1.152l-1.389-0.869c3.038-0.57,18.714-4.441,22.252-5.277l4.859,1.729L49.254,39.66l-0.095-0.035l-0.096-0.047v36.27
			l16.54-4.271c-2.052-2.38-3.303-5.47-3.303-8.851C62.301,55.579,67.858,49.717,74.878,49.201z M45.68,38.662l-3.47-0.925
			l-2.232-1.146l3.441,0.657L45.68,38.662z M69.003,28.901l5.034,1.708l-1.353,2.422l-4.8-1.814L69.003,28.901z M72.738,34.125
			l11.31,4.255l-20.381,5.98l-11.969-4.515L72.738,34.125z"/>
		<path d="M76.453,50.855c-6.809,0-12.329,5.519-12.329,12.325c0,6.809,5.521,12.329,12.329,12.329
			c6.809,0,12.327-5.521,12.327-12.329C88.78,56.374,83.262,50.855,76.453,50.855z M80.164,52.36l-2.678,5.466
			c-0.52-0.201-1.033-0.095-1.033-0.095l-1.55-5.739C74.903,51.992,76.958,51.07,80.164,52.36z M76.451,68.032
			c-2.679,0-4.85-2.172-4.85-4.852c0-2.679,2.171-4.85,4.85-4.85c2.68,0,4.851,2.171,4.851,4.85
			C81.302,65.86,79.131,68.032,76.451,68.032z"/>
		<path d="M76.453,58.89c-2.367,0-4.291,1.926-4.291,4.293c0,2.365,1.924,4.291,4.291,4.291c2.366,0,4.291-1.926,4.291-4.291
			C80.744,60.815,78.819,58.89,76.453,58.89z M76.453,66.978c-2.093,0-3.796-1.702-3.796-3.795c0-2.096,1.703-3.798,3.796-3.798
			c2.093,0,3.795,1.702,3.795,3.798C80.249,65.275,78.546,66.978,76.453,66.978z"/>
		<path d="M76.453,61.13c-1.132,0-2.052,0.92-2.052,2.051s0.92,2.052,2.052,2.052c1.131,0,2.052-0.921,2.052-2.052
			S77.584,61.13,76.453,61.13z M76.453,64.737c-0.859,0-1.557-0.697-1.557-1.557c0-0.858,0.698-1.556,1.557-1.556
			c0.858,0,1.557,0.697,1.557,1.556C78.01,64.04,77.311,64.737,76.453,64.737z"/>
	</g>
</g>
</svg>