<?xml version="1.0" encoding="utf-8"?>
<!DOCTYPE svg PUBLIC "-//W3C//DTD SVG 1.1//EN" "http://www.w3.org/Graphics/SVG/1.1/DTD/svg11.dtd">
<svg xmlns="http://www.w3.org/2000/svg" xmlns:xlink="http://www.w3.org/1999/xlink" viewBox="0 0 126 126">
<g>
	<path d="M40.973,89.638c-3.301,0-5.225,3.143-5.225,7.342c0,4.23,1.986,7.213,5.256,7.213c3.303,0,5.193-3.143,5.193-7.34
		C46.197,92.974,44.338,89.638,40.973,89.638z"/>
	<path d="M99.979,36.443c-0.004-0.469-0.154-0.93-0.475-1.295L79.838,12.683c-0.006-0.006-0.012-0.008-0.016-0.014
		c-0.117-0.131-0.254-0.24-0.398-0.334c-0.043-0.029-0.086-0.053-0.131-0.078c-0.125-0.068-0.258-0.125-0.395-0.166
		c-0.037-0.01-0.07-0.025-0.107-0.035C78.643,12.021,78.488,12,78.332,12H30c-2.207,0-4,1.795-4,4v94c0,2.205,1.793,4,4,4h66
		c2.205,0,4-1.795,4-4V36.666C100,36.591,99.988,36.517,99.979,36.443z M40.748,108.072c-6.412,0-10.162-4.842-10.162-10.994
		c0-6.477,4.135-11.318,10.516-11.318c6.635,0,10.258,4.971,10.258,10.932C51.359,103.775,47.064,108.072,40.748,108.072z
		 M72.617,106.724c-1.508,0.514-4.361,1.219-7.215,1.219c-3.943,0-6.795-0.994-8.783-2.918c-1.986-1.859-3.078-4.68-3.045-7.854
		c0.031-7.18,5.258-11.283,12.342-11.283c2.789,0,4.938,0.545,5.994,1.059l-1.025,3.91c-1.186-0.514-2.66-0.93-5.033-0.93
		c-4.07,0-7.148,2.309-7.148,6.988c0,4.455,2.789,7.084,6.797,7.084c1.121,0,2.02-0.127,2.404-0.32v-4.52H64.57v-3.816h8.047
		V106.724z M94.48,106.724c-1.506,0.514-4.359,1.219-7.213,1.219c-3.941,0-6.795-0.994-8.783-2.918
		c-1.988-1.859-3.076-4.68-3.045-7.854c0.031-7.18,5.258-11.283,12.342-11.283c2.789,0,4.938,0.545,5.996,1.059l-1.027,3.91
		c-1.186-0.514-2.66-0.93-5.033-0.93c-4.07,0-7.148,2.309-7.148,6.988c0,4.455,2.789,7.084,6.797,7.084
		c1.121,0,2.02-0.127,2.404-0.32v-4.52h-3.334v-3.816h8.045V106.724z M30,79.916V16h46.332v20.465c0,1.105,0.896,2,2,2H96v41.451H30
		z"/>
	<path d="M53.934,63.158c-0.986-0.346-2.162-0.406-3.363-0.107c-2.672,0.668-4.42,2.869-3.908,4.918
		c0.299,1.896,3.094,3.166,5.76,2.496c2.348-0.582,3.982-2.359,3.994-4.172h0.004l0.063-19.127l13.797-2.523v15.377
		c-1.002-0.354-2.203-0.416-3.422-0.115c-2.699,0.676-4.465,2.896-3.947,4.971c0.518,2.068,3.121,3.197,5.82,2.529
		c2.459-0.621,4.033-2.309,4.033-4.42V37.46l-18.83,3.055V63.158z"/>
</g>
</svg>