<?xml version="1.0" encoding="utf-8"?>
<!DOCTYPE svg PUBLIC "-//W3C//DTD SVG 1.1//EN" "http://www.w3.org/Graphics/SVG/1.1/DTD/svg11.dtd">
<svg xmlns="http://www.w3.org/2000/svg" xmlns:xlink="http://www.w3.org/1999/xlink" viewBox="0 0 126 126">
<g>
	<path d="M99.98,36.442c-0.006-0.468-0.154-0.929-0.475-1.295L79.838,12.682c-0.004-0.005-0.012-0.008-0.016-0.013
		c-0.117-0.132-0.252-0.239-0.396-0.334c-0.043-0.028-0.088-0.054-0.133-0.078c-0.125-0.069-0.256-0.124-0.395-0.165
		c-0.035-0.011-0.07-0.027-0.107-0.035C78.643,12.021,78.488,12,78.334,12H30c-2.205,0-4,1.794-4,4v94c0,2.205,1.795,4,4,4h66
		c2.205,0,4-1.795,4-4V36.666C100,36.591,99.988,36.517,99.98,36.442z M44.172,108.59c-7.201,0-11.41-5.434-11.41-12.346
		c0-7.271,4.643-12.707,11.807-12.707c7.451,0,11.518,5.58,11.518,12.275C56.086,103.768,51.264,108.59,44.172,108.59z
		 M75.49,88.541h-6.623v19.654h-5.506V88.541h-6.516v-4.607H75.49V88.541z M93.238,88.434h-9.322v5.543h8.711v4.463h-8.711v9.756
		h-5.508V83.934h14.83V88.434z M30,79.916V16h46.334v20.465c0,1.104,0.895,2,2,2H96l0.002,41.451H30z"/>
	<path d="M44.424,87.893c-3.707,0-5.869,3.529-5.869,8.244c0,4.752,2.234,8.098,5.906,8.098c3.707,0,5.828-3.527,5.828-8.242
		C50.289,91.637,48.203,87.893,44.424,87.893z"/>
	<path d="M73.346,62.696c-0.512-1.069-0.906-3.287-1.184-6.654l-1.215-14.48l-0.273-6.979l-4.271,0.775
		c-1.383,0.112-2.414,0.189-3.1,0.231c-3.42,0.237-6.031,0.761-7.832,1.572c-1.799,0.811-3.363,2.174-4.689,4.088
		c-1.201,1.718-1.934,3.892-2.199,6.519l4.104-2.034c0-2.71,0.793-4.796,2.379-6.256c1.584-1.46,3.836-2.19,6.754-2.19
		c1.088,0,2.393,0.09,3.914,0.272l-9.025,15.598c-2.512,4.355-4.672,7.389-6.48,9.099c-1.809,1.71-3.738,2.565-5.791,2.565
		c-2.148,0-3.887-1.019-5.215-3.057l-2.826,2.848c1.885,1.689,4.119,2.534,6.701,2.534c2.723,0,5.068-0.765,7.035-2.293
		c1.971-1.528,4.057-4.205,6.262-8.031h11.414l0.857,10.324l9.613-1.592l0.271-1.382c-1.396,0.084-2.213,0.126-2.449,0.126
		C74.771,64.298,73.855,63.764,73.346,62.696z M57.293,55.272L66.32,39.53l1.34,15.743H57.293z"/>
</g>
</svg>