<?xml version="1.0" encoding="utf-8"?>
<!DOCTYPE svg PUBLIC "-//W3C//DTD SVG 1.1//EN" "http://www.w3.org/Graphics/SVG/1.1/DTD/svg11.dtd">
<svg xmlns="http://www.w3.org/2000/svg" xmlns:xlink="http://www.w3.org/1999/xlink" viewBox="0 0 126 126">
<path fill-rule="evenodd" clip-rule="evenodd" d="M29.893,110.41V16.49h46.34v20.46c0,1.11,0.89,2,2,2h17.66v71.46H29.893z
	 M95.893,114.49c2.21,0,4-1.8,4-4V37.15c0-0.07-0.01-0.15-0.02-0.22c0-0.47-0.15-0.93-0.47-1.29l-19.67-22.47l-0.02-0.01
	c-0.11-0.13-0.25-0.24-0.39-0.34l-0.13-0.07c-0.13-0.07-0.26-0.13-0.4-0.17l-0.1-0.04c-0.15-0.03-0.31-0.05-0.46-0.05h-48.34
	c-2.2,0-4,1.79-4,4v94c0,2.2,1.8,4,4,4H95.893z"/>
</svg>