<?xml version="1.0" encoding="utf-8"?>
<!DOCTYPE svg PUBLIC "-//W3C//DTD SVG 1.1//EN" "http://www.w3.org/Graphics/SVG/1.1/DTD/svg11.dtd">
<svg xmlns="http://www.w3.org/2000/svg" xmlns:xlink="http://www.w3.org/1999/xlink" viewBox="0 0 126 126">
<g>
	<path d="M61.508,88.796c-1.225,0-2.016,0.108-2.484,0.216v15.874c0.469,0.108,1.225,0.108,1.908,0.108
		c4.967,0.035,8.207-2.699,8.207-8.495C69.174,91.459,66.223,88.796,61.508,88.796z"/>
	<path d="M40.303,88.725c-1.115,0-1.871,0.107-2.268,0.215v7.164c0.469,0.107,1.045,0.144,1.834,0.144
		c2.918,0,4.717-1.476,4.717-3.96C44.586,90.056,43.037,88.725,40.303,88.725z"/>
	<path d="M99.98,36.443c-0.006-0.468-0.154-0.93-0.475-1.295L79.838,12.684c-0.004-0.006-0.012-0.008-0.016-0.014
		c-0.117-0.131-0.252-0.239-0.396-0.334c-0.043-0.028-0.088-0.053-0.133-0.078c-0.125-0.068-0.256-0.124-0.395-0.165
		c-0.035-0.011-0.07-0.026-0.107-0.036C78.643,12.021,78.488,12,78.334,12H30c-2.205,0-4,1.795-4,4v94c0,2.206,1.795,4,4,4h66
		c2.205,0,4-1.794,4-4V36.667C100,36.592,99.988,36.518,99.98,36.443z M47.789,97.902c-1.871,1.764-4.643,2.557-7.883,2.557
		c-0.719,0-1.369-0.037-1.871-0.108v8.675H32.6V85.088c1.691-0.287,4.068-0.504,7.416-0.504c3.383,0,5.795,0.648,7.414,1.944
		c1.549,1.224,2.59,3.239,2.59,5.615S49.23,96.535,47.789,97.902z M70.936,106.146c-2.553,2.123-6.441,3.131-11.191,3.131
		c-2.844,0-4.859-0.18-6.229-0.359v-23.83c2.016-0.323,4.645-0.504,7.416-0.504c4.605,0,7.594,0.828,9.934,2.592
		c2.52,1.872,4.104,4.859,4.104,9.143C74.969,100.963,73.277,104.166,70.936,106.146z M93.402,89.264h-9.324v5.543h8.711v4.464
		h-8.711v9.755h-5.506V84.765h14.83V89.264z M30,79.917V16h46.334v20.466c0,1.104,0.895,2,2,2H96l0.002,41.451H30z"/>
	<path d="M83.52,54.988c-0.117-0.011-2.936-0.268-7.262-0.268c-1.355,0-2.721,0.026-4.068,0.077
		c-8.543-6.411-15.541-12.827-19.287-16.423c0.068-0.396,0.115-0.709,0.137-0.949c0.494-5.216-0.055-8.737-1.627-10.466
		c-1.029-1.13-2.541-1.506-4.117-1.075c-0.979,0.256-2.791,1.206-3.371,3.139c-0.641,2.136,0.389,4.729,3.094,7.736
		c0.043,0.045,0.961,1.007,2.629,2.637c-1.084,5.169-3.922,16.324-5.299,21.68c-3.234,1.728-5.928,3.81-8.014,6.197l-0.137,0.156
		l-0.088,0.188c-0.215,0.451-1.242,2.794-0.471,4.676c0.352,0.855,1.012,1.48,1.908,1.808l0.24,0.065c0,0,0.217,0.047,0.598,0.047
		c1.668,0,5.787-0.877,7.996-9.017l0.535-2.063c7.711-3.748,17.35-4.957,24.336-5.294c3.594,2.665,7.17,5.113,10.635,7.281
		L82,65.186c0.168,0.085,1.688,0.836,3.467,0.837l0,0c2.543,0,4.4-1.56,5.092-4.28l0.035-0.186c0.193-1.554-0.197-2.955-1.129-4.05
		C87.502,55.2,83.848,54.999,83.52,54.988z M38.447,71.212c-0.016-0.018-0.023-0.036-0.031-0.056
		c-0.166-0.399,0.033-1.368,0.326-2.078c1.258-1.406,2.768-2.697,4.51-3.859C41.555,70.711,39.088,71.185,38.447,71.212z
		 M49.219,34.721L49.219,34.721c-2.605-2.9-2.566-4.338-2.426-4.822c0.23-0.809,1.268-1.115,1.277-1.118
		c0.523-0.142,0.84-0.114,1.123,0.196c0.639,0.702,1.188,2.821,0.971,6.707C49.549,35.066,49.219,34.721,49.219,34.721z
		 M47.873,59.42l0.045-0.172l-0.006,0.002c1.305-5.11,3.186-12.592,4.268-17.398l0.039,0.037l0.004-0.023
		c3.5,3.296,8.867,8.117,15.293,13.131L67.443,55l0.107,0.08C61.496,55.592,54.266,56.785,47.873,59.42z M87.627,61.096
		c-0.461,1.694-1.348,1.926-2.16,1.926l0,0c-0.943,0-1.852-0.393-2.059-0.488c-2.359-1.479-4.773-3.09-7.209-4.814
		c0.02,0,0.037,0,0.059,0c4.176,0,6.957,0.253,7.066,0.261c0.697,0.026,2.904,0.352,3.855,1.47
		C87.553,59.889,87.695,60.413,87.627,61.096z"/>
</g>
</svg>