<?xml version="1.0" encoding="utf-8"?>
<!DOCTYPE svg PUBLIC "-//W3C//DTD SVG 1.1//EN" "http://www.w3.org/Graphics/SVG/1.1/DTD/svg11.dtd">
<svg xmlns="http://www.w3.org/2000/svg" xmlns:xlink="http://www.w3.org/1999/xlink" viewBox="0 0 126 126">
<path fill-rule="evenodd" clip-rule="evenodd" d="M39.463,90.347v7.08h2.02c2.75,0,4.12-1.2,4.12-3.59c0-2.33-1.36-3.49-4.08-3.49
	H39.463z M82.333,90.347v7.08h2.03c2.75,0,4.12-1.2,4.12-3.59c0-2.33-1.36-3.49-4.08-3.49H82.333z M36.243,53.257v3.63l18.23,9.41
	v-4.47l-13.79-6.71v-0.08l13.79-6.71v-4.47L36.243,53.257z M57.293,67.987h3.84l8.12-30.59h-3.83L57.293,67.987z M89.693,57.017
	v-3.88l-18.23-9.28v4.47l14.09,6.71v0.08l-14.09,6.71v4.47L89.693,57.017z M29.893,80.407v-63.92h46.34v20.46c0,1.11,0.89,2,2,2
	h17.66v41.46H29.893z M95.893,114.487c2.21,0,4-1.8,4-4v-73.34c0-0.07-0.01-0.15-0.02-0.22c0-0.47-0.15-0.93-0.47-1.29l-19.67-22.47
	l-0.02-0.01c-0.11-0.13-0.25-0.24-0.39-0.34l-0.13-0.07c-0.13-0.07-0.26-0.13-0.4-0.17l-0.1-0.04c-0.15-0.03-0.31-0.05-0.46-0.05
	h-48.34c-2.2,0-4,1.79-4,4v94c0,2.2,1.8,4,4,4H95.893z M39.463,101.007v7.64h-4.68v-21.93h7.55c5.46,0,8.19,2.31,8.19,6.94
	c0,2.25-0.83,4.05-2.47,5.4c-1.65,1.36-3.71,2-6.19,1.95H39.463z M72.543,108.647h-4.68v-9.04h-9.34v9.04h-4.68v-21.93h4.68v8.85
	h9.34v-8.85h4.68V108.647z M82.333,101.007v7.64h-4.67v-21.93h7.55c5.46,0,8.18,2.31,8.18,6.94c0,2.25-0.82,4.05-2.47,5.4
	c-1.64,1.36-3.71,2-6.18,1.95H82.333z"/>
</svg>