<?xml version="1.0" encoding="utf-8"?>
<!DOCTYPE svg PUBLIC "-//W3C//DTD SVG 1.1//EN" "http://www.w3.org/Graphics/SVG/1.1/DTD/svg11.dtd">
<svg xmlns="http://www.w3.org/2000/svg" xmlns:xlink="http://www.w3.org/1999/xlink" viewBox="0 0 126 126">
<g>
	<path d="M40.139,88.686c-1.051,0-1.764,0.102-2.137,0.204v6.759c0.441,0.102,0.984,0.135,1.732,0.135
		c2.75,0,4.449-1.393,4.449-3.735C44.184,89.942,42.723,88.686,40.139,88.686z"/>
	<polygon points="77.494,38.276 77.502,38.279 77.502,38.276 	"/>
	<path d="M99.98,36.443c-0.006-0.468-0.156-0.93-0.475-1.295L79.838,12.684c-0.004-0.006-0.01-0.008-0.016-0.014
		c-0.117-0.131-0.252-0.239-0.396-0.334c-0.043-0.028-0.086-0.053-0.131-0.078c-0.127-0.068-0.258-0.124-0.395-0.165
		c-0.037-0.011-0.07-0.026-0.109-0.036C78.643,12.021,78.488,12,78.334,12H30c-2.205,0-4,1.795-4,4v94c0,2.206,1.795,4,4,4h66
		c2.205,0,4-1.794,4-4V36.667C100,36.592,99.988,36.518,99.98,36.443z M47.205,97.346c-1.766,1.664-4.381,2.412-7.438,2.412
		c-0.68,0-1.293-0.035-1.766-0.103v8.185h-5.129V85.256c1.596-0.271,3.838-0.476,6.996-0.476c3.191,0,5.469,0.611,6.996,1.834
		c1.459,1.154,2.445,3.056,2.445,5.298C49.311,94.153,48.564,96.056,47.205,97.346z M71.559,107.84h-5.434l-4.891-8.83
		c-1.361-2.445-2.854-5.399-3.977-8.082l-0.1,0.033c0.137,3.023,0.203,6.249,0.203,9.984v6.895h-4.754V84.95h6.045l4.756,8.388
		c1.357,2.412,2.717,5.264,3.734,7.846h0.102c-0.34-3.023-0.441-6.113-0.441-9.543v-6.69h4.756V107.84z M95.164,106.787
		c-1.596,0.543-4.619,1.291-7.643,1.291c-4.176,0-7.201-1.053-9.305-3.091c-2.105-1.97-3.262-4.958-3.227-8.32
		c0.033-7.607,5.57-11.954,13.074-11.954c2.955,0,5.232,0.576,6.352,1.12l-1.086,4.144c-1.258-0.544-2.82-0.985-5.334-0.985
		c-4.311,0-7.572,2.445-7.572,7.403c0,4.721,2.955,7.506,7.201,7.506c1.188,0,2.139-0.136,2.547-0.34v-4.789h-3.533V94.73h8.525
		V106.787z M30,79.917V16h46.334v14.387h1.25v7.889h7.807v0.19H96l0.002,41.451H30z"/>
	<polygon points="46.135,61.942 53.885,61.942 53.885,54.054 46.078,54.054 46.078,46.165 53.885,46.165 53.885,38.276 
		46.078,38.276 46.078,30.387 38.189,30.387 38.189,38.276 45.996,38.276 45.996,46.165 38.189,46.165 38.189,54.054 45.996,54.054 
		45.996,61.942 38.248,61.942 38.248,69.832 46.055,69.832 46.055,77.72 53.941,77.72 53.941,69.832 46.135,69.832 	"/>
	<polygon points="61.889,61.942 69.639,61.942 69.639,54.054 61.832,54.054 61.832,46.165 69.639,46.165 69.639,38.276 
		61.832,38.276 61.832,30.387 53.941,30.387 53.941,38.276 61.748,38.276 61.748,46.165 53.941,46.165 53.941,54.054 61.748,54.054 
		61.748,61.942 54,61.942 54,69.832 61.807,69.832 61.807,77.72 69.695,77.72 69.695,69.832 61.889,69.832 	"/>
	<path d="M69.695,38.276h7.799c-0.684-0.318-1.16-1.006-1.16-1.81v-6.079h-6.639V38.276z"/>
	<path d="M77.502,38.279v7.886h-7.807v7.889h7.807v7.888h-7.75v7.889h7.809v7.889h7.887v-7.889h-7.805v-7.889h7.748v-7.888h-7.807
		v-7.889h7.807v-7.699h-7.057C78.035,38.466,77.756,38.396,77.502,38.279z"/>
</g>
</svg>