<?xml version="1.0" encoding="utf-8"?>
<!DOCTYPE svg PUBLIC "-//W3C//DTD SVG 1.1//EN" "http://www.w3.org/Graphics/SVG/1.1/DTD/svg11.dtd">
<svg xmlns="http://www.w3.org/2000/svg" xmlns:xlink="http://www.w3.org/1999/xlink" viewBox="0 0 126 126">
<g>
	<path d="M62.498,88.844c-1.115,0-1.871,0.107-2.268,0.215v7.164c0.469,0.107,1.045,0.144,1.836,0.144
		c2.916,0,4.715-1.476,4.715-3.96C66.781,90.175,65.234,88.844,62.498,88.844z"/>
	<path d="M41.582,88.844c-1.115,0-1.871,0.107-2.268,0.215v7.164c0.469,0.107,1.045,0.144,1.836,0.144
		c2.916,0,4.715-1.476,4.715-3.96C45.865,90.175,44.318,88.844,41.582,88.844z"/>
	<path d="M99.98,36.443c-0.006-0.468-0.156-0.93-0.477-1.295L79.838,12.684c-0.006-0.006-0.012-0.008-0.016-0.014
		c-0.117-0.131-0.254-0.239-0.398-0.334c-0.043-0.028-0.086-0.053-0.131-0.078c-0.125-0.068-0.256-0.124-0.395-0.165
		c-0.037-0.011-0.07-0.026-0.107-0.036C78.643,12.021,78.488,12,78.332,12H30c-2.205,0-4,1.795-4,4v94c0,2.206,1.795,4,4,4h66
		c2.205,0,4-1.794,4-4V36.667C100,36.592,99.988,36.518,99.98,36.443z M49.07,98.021c-1.873,1.764-4.645,2.557-7.885,2.557
		c-0.719,0-1.367-0.037-1.871-0.108v8.675h-5.436V85.207c1.691-0.287,4.068-0.504,7.416-0.504c3.383,0,5.795,0.648,7.414,1.944
		c1.549,1.224,2.592,3.239,2.592,5.615S50.51,96.654,49.07,98.021z M69.986,98.021c-1.873,1.764-4.645,2.557-7.885,2.557
		c-0.719,0-1.367-0.037-1.871-0.108v8.675h-5.436V85.207c1.691-0.287,4.068-0.504,7.416-0.504c3.383,0,5.795,0.648,7.414,1.944
		c1.549,1.224,2.592,3.239,2.592,5.615S71.426,96.654,69.986,98.021z M92.521,89.491h-6.623v19.653h-5.508V89.491h-6.516v-4.607
		h18.646V89.491z M30,79.917V16h46.332v20.466c0,1.104,0.896,2,2,2H96v41.451H30z"/>
	<path d="M59.889,37.984c-9.044,0-16.373,7.331-16.373,16.374c0,9.042,7.329,16.372,16.373,16.372
		c9.042,0,16.373-7.33,16.373-16.372H59.889V37.984z"/>
	<path d="M62.11,51.774v0.005h16.374c0-4.606-1.91-8.761-4.971-11.736L62.11,51.774z"/>
	<path d="M61.938,48.897L73.514,37.32c-3.256-3.257-7.319-4.846-11.588-4.785l0.008,16.358L61.938,48.897z"/>
</g>
</svg>