<?xml version="1.0" encoding="utf-8"?>
<!DOCTYPE svg PUBLIC "-//W3C//DTD SVG 1.1//EN" "http://www.w3.org/Graphics/SVG/1.1/DTD/svg11.dtd">
<svg xmlns="http://www.w3.org/2000/svg" xmlns:xlink="http://www.w3.org/1999/xlink" viewBox="0 0 126 126">
<g>
	<path d="M99.98,36.282c-0.006-0.468-0.154-0.93-0.475-1.295L79.838,12.522c-0.004-0.006-0.01-0.008-0.016-0.014
		c-0.117-0.131-0.252-0.239-0.396-0.334c-0.043-0.028-0.086-0.053-0.131-0.078c-0.127-0.068-0.258-0.124-0.395-0.165
		c-0.037-0.011-0.07-0.026-0.107-0.036c-0.15-0.035-0.303-0.057-0.459-0.057H30c-2.205,0-4,1.795-4,4v94c0,2.206,1.795,4,4,4h66
		c2.207,0,4-1.794,4-4V36.506C100,36.431,99.988,36.356,99.98,36.282z M44.416,97.581c-1.395,1.313-3.458,1.903-5.869,1.903
		c-0.536,0-1.02-0.027-1.395-0.081v6.459h-4.046V88.041c1.26-0.215,3.028-0.376,5.521-0.376c2.52,0,4.314,0.482,5.521,1.447
		c1.151,0.911,1.929,2.412,1.929,4.181S45.487,96.563,44.416,97.581z M59.989,97.581c-1.394,1.313-3.458,1.903-5.869,1.903
		c-0.536,0-1.019-0.027-1.394-0.081v6.459H48.68V88.041c1.26-0.215,3.028-0.376,5.521-0.376c2.52,0,4.315,0.482,5.521,1.447
		c1.152,0.911,1.929,2.412,1.929,4.181S61.062,96.563,59.989,97.581z M76.77,91.23h-4.932v14.632h-4.101V91.23h-4.851V87.8H76.77
		V91.23z M88.938,105.862l-1.635-3.27c-0.669-1.26-1.099-2.197-1.608-3.243h-0.053c-0.376,1.046-0.832,1.983-1.394,3.243
		l-1.502,3.27h-4.662l5.226-9.14L78.272,87.8h4.689l1.581,3.296c0.536,1.099,0.938,1.983,1.367,3.002h0.054
		c0.429-1.152,0.777-1.957,1.232-3.002l1.527-3.296h4.664l-5.092,8.817l5.359,9.245H88.938z M30,79.756V15.839h46.334v20.466
		c0,1.104,0.895,2,2,2H96l0.002,41.451H30z"/>
	<path d="M38.842,90.747c-0.831,0-1.395,0.081-1.689,0.161v5.333c0.349,0.081,0.777,0.107,1.367,0.107
		c2.171,0,3.512-1.099,3.512-2.948C42.031,91.738,40.878,90.747,38.842,90.747z"/>
	<path d="M54.415,90.747c-0.831,0-1.394,0.081-1.688,0.161v5.333c0.349,0.081,0.777,0.107,1.366,0.107
		c2.172,0,3.512-1.099,3.512-2.948C57.604,91.738,56.451,90.747,54.415,90.747z"/>
</g>
<g>
	<path d="M48.978,34.064c-9.539,0.645-17.083,8.566-17.083,18.27c0,2.266,0.431,4.427,1.183,6.43l15.9-6.973V34.064z"/>
	<path d="M33.878,60.597c3.023,5.97,9.201,10.07,16.35,10.07c6.186,0,11.645-3.073,14.965-7.766l-15.048-9.439L33.878,60.597z"/>
	<path d="M51.338,33.814v17.585l15.285,9.589c1.46-2.632,2.298-5.656,2.298-8.879C68.921,42.237,61.112,34.211,51.338,33.814z"/>
	<rect x="72.334" y="44.416" width="20" height="2.985"/>
	<rect x="72.334" y="52.015" width="20" height="2.985"/>
	<rect x="72.334" y="59.495" width="20" height="2.985"/>
</g>
</svg>