<?xml version="1.0" encoding="utf-8"?>
<!DOCTYPE svg PUBLIC "-//W3C//DTD SVG 1.1//EN" "http://www.w3.org/Graphics/SVG/1.1/DTD/svg11.dtd">
<svg xmlns="http://www.w3.org/2000/svg" xmlns:xlink="http://www.w3.org/1999/xlink" viewBox="0 0 126 126">
<g>
	<path d="M81.4,87.199c-1.225,0-2.016,0.109-2.484,0.217v15.873c0.469,0.109,1.225,0.109,1.908,0.109
		c4.967,0.035,8.207-2.701,8.207-8.496C89.066,89.863,86.115,87.199,81.4,87.199z"/>
	<path d="M99.979,36.442c-0.004-0.468-0.154-0.929-0.475-1.295L79.838,12.682c-0.006-0.005-0.012-0.008-0.016-0.013
		c-0.117-0.132-0.254-0.239-0.398-0.334c-0.043-0.028-0.086-0.054-0.131-0.078c-0.125-0.069-0.258-0.124-0.395-0.165
		c-0.037-0.011-0.07-0.027-0.107-0.035C78.643,12.021,78.488,12,78.332,12H30c-2.207,0-4,1.794-4,4v94c0,2.205,1.793,4,4,4h66
		c2.205,0,4-1.795,4-4V36.666C100,36.591,99.988,36.517,99.979,36.442z M48.244,96.307c-1.873,1.764-4.645,2.555-7.883,2.555
		c-0.721,0-1.369-0.035-1.873-0.107v8.676h-5.436V83.492c1.693-0.287,4.068-0.504,7.416-0.504c3.383,0,5.795,0.648,7.416,1.943
		c1.547,1.225,2.59,3.24,2.59,5.615C50.475,92.924,49.684,94.939,48.244,96.307z M59.908,107.789c-2.771,0-5.506-0.721-6.875-1.477
		l1.117-4.535c1.475,0.756,3.742,1.512,6.082,1.512c2.52,0,3.852-1.043,3.852-2.627c0-1.512-1.152-2.375-4.066-3.42
		c-4.031-1.404-6.66-3.635-6.66-7.162c0-4.141,3.455-7.309,9.18-7.309c2.734,0,4.75,0.576,6.191,1.225l-1.225,4.428
		c-0.973-0.469-2.699-1.152-5.076-1.152c-2.375,0-3.527,1.08-3.527,2.34c0,1.549,1.369,2.232,4.5,3.42
		c4.283,1.584,6.299,3.814,6.299,7.234C69.699,104.334,66.568,107.789,59.908,107.789z M90.83,104.549
		c-2.555,2.125-6.441,3.133-11.193,3.133c-2.844,0-4.859-0.18-6.229-0.361V83.492c2.018-0.324,4.645-0.504,7.416-0.504
		c4.607,0,7.596,0.828,9.936,2.592c2.52,1.871,4.104,4.859,4.104,9.143C94.863,99.367,93.17,102.57,90.83,104.549z M30,79.916V16
		h46.332v20.465c0,1.104,0.896,2,2,2H96v41.451H30z"/>
	<path d="M40.756,87.127c-1.115,0-1.871,0.109-2.268,0.217v7.162c0.469,0.109,1.045,0.145,1.836,0.145
		c2.916,0,4.717-1.475,4.717-3.959C45.041,88.459,43.492,87.127,40.756,87.127z"/>
	<path d="M40.277,47.402l28.505,5.452c0.33,0.063,0.724,0.004,0.872-0.133l10.858-9.937c0,0,0.707-0.424-0.298-0.616
		c-1.005-0.192-28.271-5.438-28.271-5.438c-0.334-0.064-0.726-0.004-0.872,0.132L39.947,47.039
		C39.798,47.175,39.945,47.338,40.277,47.402z M52.859,38.266l24.709,4.727l-7.296,6.673l-1.802-0.344
		c0.162-1.315,0.57-3.12-1.622-3.289c-2.569-0.197-6.148,1.803-6.148,1.803s1.56-2.731-0.223-4.695
		c-1.787-1.964-10.607,2.624-10.607,2.624l-4.306-0.823L52.859,38.266z"/>
	<path d="M68.166,43.635c0.454,0.088,0.899,0.149,1.312,0.19c0.354,0.162,0.836,0.311,1.417,0.421
		c1.484,0.283,3.017,0.214,3.42-0.155c0.404-0.37-0.473-0.899-1.957-1.183c-0.56-0.107-1.121-0.165-1.629-0.175
		c-0.1-0.103-0.287-0.193-0.553-0.243l-0.39-0.075c-0.499-0.095-1.063-0.015-1.337,0.173c-1.262-0.178-2.351-0.17-2.584,0.045
		C65.585,42.891,66.615,43.339,68.166,43.635z"/>
	<path d="M69.652,61.303l10.86-9.936c0,0,0.707-0.424-0.3-0.617c-0.24-0.045-1.979-0.38-4.477-0.861l-4.969,4.545
		c-0.562,0.514-1.313,0.591-1.709,0.591c-0.196,0-0.397-0.018-0.588-0.054L45.467,50.57l-5.521,5.05
		c-0.149,0.137,0,0.299,0.332,0.364l28.503,5.452C69.112,61.499,69.504,61.439,69.652,61.303z"/>
	<path d="M81.038,59.464c-0.24-0.045-1.979-0.38-4.477-0.861l-4.969,4.544c-0.562,0.515-1.312,0.592-1.709,0.592
		c-0.196,0-0.397-0.019-0.588-0.055l-23.004-4.401l-5.521,5.051c-0.147,0.136,0,0.299,0.332,0.363l28.503,5.452
		c0.332,0.064,0.724,0.004,0.875-0.133l10.857-9.936C81.338,60.081,82.045,59.656,81.038,59.464z"/>
</g>
</svg>