<?xml version="1.0" encoding="utf-8"?>
<!DOCTYPE svg PUBLIC "-//W3C//DTD SVG 1.1//EN" "http://www.w3.org/Graphics/SVG/1.1/DTD/svg11.dtd">
<svg xmlns="http://www.w3.org/2000/svg" xmlns:xlink="http://www.w3.org/1999/xlink" viewBox="0 0 126 126">
<g>
	<path d="M39.365,88.463c-1.332,0-2.088,0.108-2.484,0.181v6.694h2.16c2.736,0,4.355-1.367,4.355-3.49
		C43.396,89.615,41.885,88.5,39.365,88.463z"/>
	<path d="M62.188,88.68h-0.072c-0.359,1.439-0.719,3.275-1.115,4.68l-1.439,5.146h5.363l-1.512-5.146
		C62.979,91.919,62.547,90.119,62.188,88.68z"/>
	<path d="M99.98,36.443c-0.006-0.468-0.156-0.93-0.477-1.295L79.838,12.684c-0.006-0.006-0.012-0.008-0.016-0.014
		c-0.117-0.131-0.254-0.239-0.398-0.334c-0.043-0.028-0.086-0.053-0.131-0.078c-0.125-0.068-0.256-0.124-0.395-0.165
		c-0.037-0.011-0.07-0.026-0.107-0.036C78.643,12.021,78.488,12,78.332,12H30c-2.205,0-4,1.795-4,4v94c0,2.206,1.795,4,4,4h66
		c2.205,0,4-1.794,4-4V36.667C100,36.592,99.988,36.518,99.98,36.443z M44.152,108.837c-0.396-0.685-0.973-2.663-1.691-5.651
		c-0.648-3.023-1.691-3.852-3.924-3.887h-1.656v9.538h-5.436V84.9c1.764-0.289,4.393-0.504,7.307-0.504
		c3.6,0,6.121,0.539,7.848,1.907c1.439,1.151,2.232,2.844,2.232,5.075c0,3.096-2.195,5.22-4.283,5.976v0.108
		c1.691,0.684,2.627,2.303,3.238,4.535c0.756,2.735,1.512,5.902,1.98,6.839H44.152z M67.586,108.837l-1.871-6.228h-6.947
		l-1.727,6.228h-5.688l7.414-24.261h7.199l7.523,24.261H67.586z M89.439,108.837c-0.396-0.685-0.973-2.663-1.693-5.651
		c-0.646-3.023-1.691-3.852-3.922-3.887h-1.656v9.538h-5.436V84.9c1.764-0.289,4.391-0.504,7.307-0.504
		c3.6,0,6.119,0.539,7.848,1.907c1.439,1.151,2.232,2.844,2.232,5.075c0,3.096-2.197,5.22-4.285,5.976v0.108
		c1.693,0.684,2.629,2.303,3.24,4.535c0.756,2.735,1.512,5.902,1.98,6.839H89.439z M30,79.917V16h46.332v20.466c0,1.104,0.896,2,2,2
		H96v41.451H30z"/>
	<path d="M84.652,88.463c-1.332,0-2.088,0.108-2.484,0.181v6.694h2.16c2.734,0,4.355-1.367,4.355-3.49
		C88.684,89.615,87.172,88.5,84.652,88.463z"/>
	<rect x="39.518" y="39.28" width="30.297" height="4.012"/>
	<polygon points="69.814,48.43 74.938,48.43 74.938,49.751 74.938,51.257 74.938,52.969 74.938,54.477 74.938,56.228 74.938,57.735 
		74.938,59.77 69.814,59.77 69.814,64.68 39.518,64.68 39.518,68.687 69.814,68.687 69.814,64.907 84.963,64.907 84.963,59.77 
		76.498,59.77 76.498,57.735 79.84,57.735 79.84,56.228 76.498,56.228 76.498,54.477 79.84,54.477 79.84,52.969 76.498,52.969 
		76.498,51.257 79.84,51.257 79.84,49.751 76.498,49.751 76.498,48.43 84.963,48.43 84.963,43.292 69.814,43.292 	"/>
	<rect x="43.414" y="45.355" width="22.504" height="17.492"/>
</g>
</svg>