<?xml version="1.0" encoding="utf-8"?>
<!DOCTYPE svg PUBLIC "-//W3C//DTD SVG 1.1//EN" "http://www.w3.org/Graphics/SVG/1.1/DTD/svg11.dtd">
<svg xmlns="http://www.w3.org/2000/svg" xmlns:xlink="http://www.w3.org/1999/xlink" viewBox="0 0 126 126">
<g>
	<g>
		<path d="M45.534,89.193c-1.137,0-1.782,0.092-2.121,0.154v5.715h1.845c2.335,0,3.718-1.167,3.718-2.98
			C48.976,90.177,47.685,89.225,45.534,89.193z"/>
		<path d="M99.874,36.443c-0.006-0.468-0.154-0.93-0.475-1.295L79.731,12.684c-0.004-0.006-0.01-0.008-0.016-0.014
			c-0.117-0.131-0.252-0.239-0.396-0.334c-0.043-0.028-0.086-0.053-0.131-0.078c-0.127-0.068-0.258-0.124-0.395-0.165
			c-0.037-0.011-0.07-0.026-0.107-0.036C78.536,12.021,78.383,12,78.227,12H29.893c-2.205,0-4,1.795-4,4v94c0,2.206,1.795,4,4,4h66
			c2.207,0,4-1.794,4-4V36.667C99.893,36.592,99.881,36.518,99.874,36.443z M49.621,106.587c-0.338-0.585-0.829-2.274-1.444-4.825
			c-0.553-2.582-1.444-3.288-3.35-3.318h-1.414v8.144h-4.64V86.15c1.506-0.245,3.749-0.43,6.238-0.43
			c3.073,0,5.224,0.461,6.699,1.629c1.229,0.983,1.905,2.428,1.905,4.332c0,2.645-1.875,4.457-3.656,5.102v0.093
			c1.443,0.583,2.242,1.966,2.766,3.872c0.645,2.336,1.289,5.039,1.689,5.839H49.621z M62.063,106.894
			c-2.365,0-4.701-0.614-5.869-1.26l0.953-3.872c1.26,0.646,3.195,1.291,5.193,1.291c2.15,0,3.287-0.892,3.287-2.243
			c0-1.291-0.982-2.028-3.472-2.92c-3.442-1.198-5.685-3.103-5.685-6.114c0-3.534,2.949-6.239,7.836-6.239
			c2.335,0,4.055,0.493,5.285,1.045l-1.045,3.78c-0.83-0.399-2.305-0.983-4.333-0.983s-3.011,0.921-3.011,1.997
			c0,1.321,1.167,1.906,3.841,2.919c3.656,1.353,5.377,3.259,5.377,6.178C70.422,103.943,67.749,106.894,62.063,106.894z
			 M78.655,106.894c-2.367,0-4.701-0.614-5.869-1.26l0.952-3.872c1.26,0.646,3.196,1.291,5.192,1.291
			c2.152,0,3.289-0.892,3.289-2.243c0-1.291-0.984-2.028-3.473-2.92c-3.441-1.198-5.686-3.103-5.686-6.114
			c0-3.534,2.951-6.239,7.837-6.239c2.335,0,4.056,0.493,5.285,1.045l-1.045,3.78c-0.829-0.399-2.304-0.983-4.333-0.983
			c-2.027,0-3.011,0.921-3.011,1.997c0,1.321,1.167,1.906,3.841,2.919c3.656,1.353,5.377,3.259,5.377,6.178
			C87.013,103.943,84.34,106.894,78.655,106.894z M29.893,79.917V16h46.334v20.466c0,1.104,0.895,2,2,2h17.666l0.002,41.451H29.893z
			"/>
	</g>
	<g>
		<g>
			<path d="M41.058,61.335c-3.705,0-6.718,3.013-6.718,6.723c0,3.699,3.014,6.716,6.718,6.716c3.708,0,6.725-3.017,6.725-6.716
				C47.783,64.348,44.766,61.335,41.058,61.335z"/>
		</g>
		<g>
			<path d="M35.039,44.27c-0.385,0-0.699,0.314-0.699,0.703v8.529c0,0.387,0.313,0.699,0.699,0.699
				c10.956,0,19.873,8.916,19.873,19.875c0,0.381,0.312,0.697,0.698,0.697h8.534h0.031c0.389,0,0.702-0.316,0.702-0.697
				l-0.036-0.221C64.719,57.523,51.392,44.27,35.039,44.27z"/>
		</g>
		<g>
			<path d="M79.638,73.855c-0.115-24.498-20.086-44.384-44.6-44.384c-0.385,0-0.699,0.313-0.699,0.702v8.779
				c0,0.387,0.313,0.698,0.699,0.698c18.98,0,34.421,15.445,34.421,34.425c0,0.381,0.313,0.697,0.697,0.697h8.781h0.034
				c0.384,0,0.706-0.316,0.706-0.697L79.638,73.855z"/>
		</g>
	</g>
</g>
</svg>