<?xml version="1.0" encoding="utf-8"?>
<!DOCTYPE svg PUBLIC "-//W3C//DTD SVG 1.1//EN" "http://www.w3.org/Graphics/SVG/1.1/DTD/svg11.dtd">
<svg xmlns="http://www.w3.org/2000/svg" xmlns:xlink="http://www.w3.org/1999/xlink" viewBox="0 0 126 126">
<g>
	<path d="M63.375,86.466c-3.742,0-5.902,3.672-5.902,8.207c-0.037,4.607,2.195,8.135,5.867,8.135c3.707,0,5.867-3.492,5.867-8.242
		C69.207,90.138,67.119,86.466,63.375,86.466z"/>
	<path d="M99.98,36.443c-0.006-0.468-0.154-0.93-0.475-1.295L79.838,12.684c-0.004-0.006-0.012-0.008-0.016-0.014
		c-0.117-0.131-0.252-0.239-0.396-0.334c-0.043-0.028-0.088-0.053-0.133-0.078c-0.125-0.068-0.256-0.124-0.395-0.165
		c-0.035-0.011-0.07-0.026-0.107-0.036C78.643,12.021,78.488,12,78.334,12H30c-2.205,0-4,1.795-4,4v94c0,2.206,1.795,4,4,4h66
		c2.205,0,4-1.794,4-4V36.667C100,36.592,99.988,36.518,99.98,36.443z M39.293,107.128c-2.773,0-5.508-0.721-6.875-1.477
		l1.115-4.535c1.475,0.756,3.744,1.512,6.082,1.512c2.521,0,3.852-1.045,3.852-2.629c0-1.512-1.15-2.375-4.066-3.418
		c-4.031-1.404-6.66-3.637-6.66-7.164c0-4.139,3.457-7.307,9.18-7.307c2.736,0,4.752,0.576,6.191,1.224l-1.225,4.427
		c-0.971-0.467-2.699-1.15-5.074-1.15c-2.377,0-3.527,1.079-3.527,2.339c0,1.548,1.367,2.231,4.498,3.419
		c4.283,1.584,6.301,3.816,6.301,7.236C49.084,103.671,45.951,107.128,39.293,107.128z M73.525,110.942
		c-3.455-1.008-6.334-2.051-9.574-3.42c-0.539-0.215-1.115-0.324-1.691-0.359c-5.471-0.359-10.582-4.391-10.582-12.311
		c0-7.271,4.607-12.742,11.842-12.742c7.416,0,11.482,5.615,11.482,12.238c0,5.508-2.555,9.395-5.76,10.834v0.145
		c1.873,0.541,3.961,0.973,5.867,1.367L73.525,110.942z M93.758,106.767H78.604v-24.26h5.508v19.652h9.646V106.767z M30,79.917V16
		h46.334v20.466c0,1.104,0.895,2,2,2H96l0.002,41.451H30z"/>
	<path d="M73.873,43.698c0.088-0.242,0.15-0.49,0.15-0.752c0-3.22-6.957-4.957-13.504-4.957c-6.541,0-13.496,1.737-13.496,4.957
		c0,0.262,0.061,0.511,0.15,0.754l-0.035,0.062c-0.299,0.543-0.447,1.091-0.447,1.63v3.984c0,0.613,0.193,1.202,0.535,1.759
		l-0.045,0.076c-0.326,0.566-0.49,1.139-0.49,1.705v3.983c0,0.594,0.182,1.164,0.506,1.705l-0.016,0.025
		c-0.326,0.565-0.49,1.139-0.49,1.704v3.984c0,3.54,6.074,6.313,13.828,6.313c7.762,0,13.836-2.772,13.836-6.313v-3.984
		c0-0.566-0.164-1.141-0.494-1.705l-0.014-0.022c0.322-0.542,0.508-1.112,0.508-1.707v-3.983c0-0.567-0.164-1.142-0.494-1.707
		l-0.043-0.073c0.342-0.558,0.537-1.146,0.537-1.761v-3.984c0-0.539-0.15-1.088-0.447-1.631L73.873,43.698z M72.873,64.317
		c0,2.286-5.07,4.832-12.354,4.832c-7.277,0-12.348-2.546-12.348-4.832V60.57c2.271,2.08,6.943,3.407,12.348,3.407
		c5.412,0,10.084-1.328,12.354-3.409V64.317z M72.873,56.899c0,2.285-5.07,4.832-12.354,4.832c-7.277,0-12.348-2.547-12.348-4.832
		v-3.747c2.271,2.079,6.943,3.407,12.348,3.407c5.412,0,10.084-1.328,12.354-3.409V56.899z M72.873,49.375
		c0,2.285-5.07,4.832-12.354,4.832c-7.277,0-12.348-2.546-12.348-4.832V46.06c2.219,1.881,7.365,2.856,12.348,2.856
		c4.99,0,10.133-0.975,12.354-2.856V49.375z"/>
</g>
</svg>