<?xml version="1.0" encoding="utf-8"?>
<!DOCTYPE svg PUBLIC "-//W3C//DTD SVG 1.1//EN" "http://www.w3.org/Graphics/SVG/1.1/DTD/svg11.dtd">
<svg xmlns="http://www.w3.org/2000/svg" xmlns:xlink="http://www.w3.org/1999/xlink" viewBox="0 0 126 126">
<g>
	<path d="M99.98,36.402c-0.006-0.468-0.154-0.93-0.475-1.295L79.838,12.643c-0.004-0.006-0.01-0.008-0.016-0.014
		c-0.117-0.131-0.252-0.239-0.396-0.334c-0.043-0.028-0.086-0.053-0.131-0.078c-0.127-0.068-0.258-0.124-0.395-0.165
		c-0.037-0.011-0.07-0.026-0.107-0.036c-0.15-0.035-0.303-0.057-0.459-0.057H30c-2.205,0-4,1.795-4,4v94c0,2.206,1.795,4,4,4h66
		c2.207,0,4-1.794,4-4V36.626C100,36.551,99.988,36.477,99.98,36.402z M41,109.147c-2.74,0-5.444-0.712-6.796-1.458l1.103-4.483
		c1.458,0.747,3.7,1.493,6.013,1.493c2.491,0,3.807-1.031,3.807-2.597c0-1.494-1.138-2.349-4.021-3.38
		c-3.985-1.388-6.582-3.594-6.582-7.081c0-4.091,3.416-7.223,9.073-7.223c2.704,0,4.696,0.569,6.12,1.21l-1.209,4.376
		c-0.96-0.462-2.669-1.138-5.017-1.138c-2.349,0-3.487,1.066-3.487,2.313c0,1.53,1.352,2.206,4.448,3.38
		c4.234,1.565,6.227,3.771,6.227,7.151C50.677,105.732,47.582,109.147,41,109.147z M66.9,108.792
		c-0.392-0.677-0.961-2.633-1.673-5.586c-0.64-2.989-1.672-3.808-3.878-3.843h-1.637v9.429h-5.373V85.131
		c1.744-0.285,4.341-0.498,7.223-0.498c3.558,0,6.049,0.533,7.757,1.886c1.423,1.138,2.206,2.811,2.206,5.017
		c0,3.06-2.17,5.159-4.234,5.906v0.106c1.672,0.677,2.598,2.277,3.203,4.483c0.747,2.705,1.494,5.835,1.957,6.761H66.9z
		 M92.052,89.364h-6.547v19.428h-5.444V89.364h-6.44v-4.554h18.431V89.364z M30,79.876V15.959h46.334v20.466c0,1.104,0.895,2,2,2H96
		l0.002,41.451H30z"/>
	<path d="M62.167,88.653c-1.317,0-2.063,0.106-2.455,0.178v6.618h2.135c2.704,0,4.305-1.353,4.305-3.452
		C66.152,89.792,64.658,88.688,62.167,88.653z"/>
</g>
<g>
	<polygon points="71.288,30.467 58.663,30.467 58.663,27.467 55.788,27.467 55.788,30.467 42.038,30.467 42.038,33.467 
		71.288,33.467 	"/>
	<path d="M63.272,59.247c-1.8-1.521-3.385-3.088-4.764-4.66c7.948-9.687,9.02-19.144,9.077-19.721L64.6,34.567
		c-0.013,0.128-0.981,8.665-8.065,17.601c-6.547-8.653-7.492-16.729-7.504-16.854l-2.985,0.302c0.056,0.562,1.07,9.534,8.449,18.941
		c-3.378,3.679-7.863,7.305-13.829,10.32l1.354,2.678c6.19-3.13,10.88-6.854,14.447-10.65c1.667,1.854,3.613,3.697,5.849,5.474
		L63.272,59.247z"/>
	<path d="M77.086,44.104h-8.138l-8.381,27.424h6.428l1.953-7.039h7.853l2.116,7.039h6.673L77.086,44.104z M69.844,59.851
		l1.627-5.818c0.447-1.588,0.854-3.662,1.261-5.29h0.082c0.407,1.628,0.895,3.663,1.383,5.29l1.709,5.818H69.844z"/>
</g>
</svg>