<?xml version="1.0" encoding="utf-8"?>
<!DOCTYPE svg PUBLIC "-//W3C//DTD SVG 1.1//EN" "http://www.w3.org/Graphics/SVG/1.1/DTD/svg11.dtd">
<svg xmlns="http://www.w3.org/2000/svg" xmlns:xlink="http://www.w3.org/1999/xlink" viewBox="0 0 126 126">
<g>
	<path d="M99.98,36.443c-0.006-0.468-0.156-0.93-0.477-1.295L79.838,12.684c-0.006-0.006-0.012-0.008-0.016-0.014
		c-0.117-0.131-0.254-0.239-0.398-0.334c-0.043-0.028-0.086-0.053-0.131-0.078c-0.125-0.068-0.256-0.124-0.395-0.165
		c-0.037-0.011-0.07-0.026-0.107-0.036C78.643,12.021,78.488,12,78.332,12H30c-2.205,0-4,1.795-4,4v94c0,2.206,1.795,4,4,4h66
		c2.205,0,4-1.794,4-4V36.667C100,36.592,99.988,36.518,99.98,36.443z M38.256,109.08c-2.771,0-5.508-0.72-6.875-1.476l1.115-4.536
		c1.477,0.756,3.744,1.512,6.084,1.512c2.52,0,3.852-1.043,3.852-2.627c0-1.512-1.152-2.376-4.068-3.42
		c-4.031-1.403-6.658-3.635-6.658-7.162c0-4.141,3.455-7.308,9.178-7.308c2.736,0,4.752,0.575,6.191,1.224l-1.223,4.428
		c-0.973-0.469-2.699-1.152-5.076-1.152c-2.375,0-3.527,1.08-3.527,2.34c0,1.548,1.367,2.232,4.5,3.42
		c4.283,1.584,6.299,3.815,6.299,7.234C48.047,105.625,44.916,109.08,38.256,109.08z M63.887,108.721H57.48l-7.775-24.262h6.012
		l2.951,10.259c0.828,2.88,1.584,5.651,2.16,8.675h0.107c0.611-2.916,1.367-5.795,2.195-8.566l3.096-10.367h5.832L63.887,108.721z
		 M94.629,107.604c-1.691,0.575-4.895,1.368-8.098,1.368c-4.428,0-7.631-1.116-9.863-3.275c-2.232-2.088-3.455-5.256-3.42-8.819
		c0.037-8.063,5.904-12.671,13.859-12.671c3.131,0,5.543,0.612,6.73,1.188l-1.152,4.393c-1.332-0.576-2.986-1.045-5.65-1.045
		c-4.572,0-8.027,2.592-8.027,7.848c0,5.004,3.131,7.955,7.631,7.955c1.26,0,2.268-0.145,2.699-0.36v-5.075h-3.742v-4.283h9.033
		V107.604z M96,79.917H30V16h46.332v20.362c0,0-0.133,2.104,2.643,2.104s17.025,0,17.025,0V79.917z"/>
	<g>
		<path d="M45.638,54.346V53.51h-1.881l-2.242-0.836V51.9h-1.601c-0.047-0.05-0.091-0.103-0.131-0.158l0.009-1.984
			c0.089-0.109,0.198-0.199,0.327-0.27v0.192h2.017v-0.174c0.446,0.184,0.793,0.473,1.043,0.869l-0.009,2.017h2.016v-0.5
			l1.854-0.251v0.299h2.016v-2.017h-0.467c-0.432-1.721-1.375-3.148-2.807-4.246c-1.08-0.828-2.305-1.338-3.646-1.521V43.71h-2.017
			v0.424c-0.011,0-0.021,0.001-0.033,0.002c-0.961,0.103-1.919,0.462-2.844,1.065c-1.26,0.813-2.137,1.937-2.604,3.34
			c-0.131,0.392-0.227,0.788-0.284,1.183h-0.448v2.017h0.442c0.138,1.053,0.506,2.027,1.099,2.901
			c0.619,0.916,1.43,1.642,2.412,2.161v0.784h1.924l2.229,0.81v0.828h1.242v1.864h0.029c-0.137,0.179-0.312,0.317-0.525,0.418
			v-0.176H40.74v0.269c-0.223-0.063-0.412-0.15-0.566-0.262c-0.23-0.163-0.416-0.426-0.557-0.786h0.09v-2.017H37.69v0.567
			l-1.937,0.242v-0.272h-2.018v2.017h0.625c0.428,1.975,1.381,3.492,2.836,4.512c1.025,0.72,2.216,1.147,3.543,1.273v0.428h2.018
			v-0.452l0.262-0.031l0.11-0.032c1.212-0.202,2.303-0.693,3.242-1.461c0.943-0.771,1.628-1.749,2.032-2.902
			c0.152-0.427,0.266-0.874,0.338-1.334h0.397v-2.017h-0.393C48.455,57.027,47.412,55.44,45.638,54.346z M42.758,65.583v-0.297
			H40.74v0.35c-1.072-0.131-2.021-0.483-2.825-1.049c-1.103-0.781-1.862-1.956-2.264-3.497h0.103v-0.482l1.937-0.242v0.188h0.62
			c0.34,1.159,0.989,1.9,1.945,2.212c0.156,0.044,0.317,0.083,0.484,0.115v0.469h2.018v-0.517c0.95-0.225,1.611-0.82,1.936-1.743
			h0.605v-2.017h-0.609c-0.143-0.373-0.363-0.698-0.661-0.974v-0.919h-1.731l-2.393-0.892v-0.717h-1.73
			c-0.693-0.415-1.273-0.969-1.727-1.655c-0.443-0.667-0.73-1.396-0.859-2.175h0.363v-2.017h-0.332
			c0.045-0.271,0.11-0.533,0.193-0.782c0.342-1.024,0.956-1.869,1.827-2.509c0.735-0.541,1.567-0.883,2.479-1.02v0.313h2.017v-0.31
			c1.059,0.16,2.03,0.58,2.896,1.251c1.123,0.862,1.859,1.931,2.239,3.255h-0.231v0.46l-1.854,0.257v-0.265h-0.647
			c-0.433-1.144-1.238-1.87-2.402-2.167v-0.544h-2.017v0.5c-0.846,0.207-1.431,0.739-1.715,1.562h-0.629v2.017h0.624
			c0.202,0.605,0.57,1.083,1.099,1.426v0.749h1.805l2.318,0.864v0.746h1.553c1.299,0.865,2.059,2.031,2.309,3.547h-0.359v2.017
			h0.362c-0.054,0.317-0.136,0.621-0.247,0.91c-0.732,2.003-2.188,3.173-4.47,3.581C42.766,65.582,42.762,65.582,42.758,65.583z"/>
		<path d="M69.981,46.376v-2.017h-2.017v0.339h-1.908v-0.076l3.262-2.931h1.32v-1.938h-1.938v1.485l-3.474,3.12h-1.188v1.068
			l-2.242,2.014h-1.553v1.938h1.938v-1.276l1.736-1.56l-4.836,12.665l-4.52-13.009v-1.84h-2.018v0.339h-1.908v-0.339h-2.018v2.017
			h0.709l6.408,18.469v1.921h2.017v-0.311h2.36v0.311h2.018V65.25l-0.016-0.089l7.174-18.784H69.981z M57.016,64.75l-6.379-18.388
			v-0.409h1.908v0.423h0.766l4.742,13.726v2.005h2.045V60.09h-0.029l5.238-13.714h0.75v-0.423h1.908v0.351L60.947,64.75h-0.834
			v0.452h-2.36V64.75H57.016z"/>
		<path d="M92.885,56.374v-2.017H90.84v0.423h-8.518v-0.423h-2.045v2.017h0.339v1.937h-0.339v2.045h2.045v-0.367h3.009
			c-0.872,0.854-1.884,1.384-3.065,1.606v-0.29h-2.017v0.318c-1.315-0.176-2.438-0.726-3.417-1.674
			c-0.973-0.942-1.553-2.032-1.761-3.32h0.247v-2.045h-0.283c0.195-1.313,0.773-2.432,1.76-3.409
			c0.987-0.98,2.121-1.548,3.454-1.727v0.318h2.017v-0.27c0.922,0.163,1.77,0.536,2.53,1.113v1.049h2.045v-0.363l2.841,0.021v0.343
			h2.045v-2.017h-0.893c-0.944-1.55-2.193-2.82-3.719-3.778c-1.477-0.927-3.105-1.478-4.85-1.638v-0.486h-2.017v0.477
			c-2.757,0.197-5.156,1.296-7.139,3.269c-1.982,1.973-3.095,4.359-3.31,7.098h-0.48v2.045h0.486c0.25,2.722,1.38,5.084,3.363,7.03
			c1.98,1.944,4.359,3.027,7.079,3.224v0.421h2.017v-0.435c1.697-0.174,3.285-0.714,4.732-1.609v1.536h2.018v-0.396h1.824v0.396
			h2.045v-2.017h-0.422l0.025-8.404H92.885z M80.249,65.286v0.338c-2.39-0.193-4.477-1.155-6.209-2.863
			c-1.73-1.705-2.729-3.767-2.974-6.134h0.27v-2.045h-0.277c0.213-2.387,1.199-4.473,2.94-6.206c1.743-1.734,3.843-2.718,6.25-2.928
			v0.334h2.017v-0.297c1.463,0.155,2.843,0.628,4.109,1.409c1.311,0.807,2.395,1.872,3.229,3.169h-2.763v-0.423h-1.285
			c-0.961-0.748-2.065-1.221-3.29-1.41v-0.51h-2.017v0.463c-1.671,0.189-3.125,0.893-4.329,2.098
			c-1.204,1.204-1.916,2.649-2.121,4.301h-0.497v2.045h0.503c0.223,1.636,0.949,3.055,2.164,4.224
			c1.211,1.165,2.648,1.848,4.28,2.034v0.436h2.017v-0.479c1.789-0.257,3.293-1.092,4.48-2.487h1.027v-2.045h-2.018v0.452h-3.434
			v-0.452h-0.451v-1.937h0.451v-0.339h8.518v0.339h0.392c-0.004,0.69-0.013,2.086-0.024,4.188v4.216H90.84v0.367h-1.824v-2.344
			h-2.018v0.98c-1.43,1.019-3.018,1.632-4.732,1.826v-0.321H80.249z"/>
	</g>
</g>
</svg>