<?xml version="1.0" encoding="utf-8"?>
<!DOCTYPE svg PUBLIC "-//W3C//DTD SVG 1.1//EN" "http://www.w3.org/Graphics/SVG/1.1/DTD/svg11.dtd">
<svg xmlns="http://www.w3.org/2000/svg" xmlns:xlink="http://www.w3.org/1999/xlink" viewBox="0 0 126 126">
<g>
	<path d="M99.98,36.445c-0.006-0.469-0.154-0.93-0.475-1.295L79.838,12.686c-0.004-0.006-0.012-0.008-0.016-0.014
		c-0.117-0.131-0.252-0.24-0.396-0.334c-0.043-0.029-0.088-0.053-0.133-0.078c-0.125-0.068-0.256-0.125-0.395-0.166
		c-0.035-0.01-0.07-0.025-0.107-0.035c-0.148-0.035-0.301-0.057-0.457-0.057H30c-2.205,0-4,1.795-4,4v94c0,2.205,1.795,4,4,4h66
		c2.205,0,4-1.795,4-4V36.668C100,36.594,99.988,36.52,99.98,36.445z M38.078,107.686c-2.586,0-5.139-0.67-6.415-1.375l1.041-4.232
		c1.377,0.705,3.493,1.41,5.676,1.41c2.351,0,3.593-0.975,3.593-2.451c0-1.41-1.074-2.217-3.795-3.191
		c-3.761-1.309-6.213-3.391-6.213-6.682c0-3.863,3.225-6.818,8.564-6.818c2.553,0,4.433,0.537,5.776,1.141l-1.142,4.131
		c-0.907-0.436-2.52-1.074-4.736-1.074c-2.216,0-3.291,1.008-3.291,2.184c0,1.445,1.276,2.082,4.199,3.189
		c3.996,1.479,5.877,3.563,5.877,6.752C47.213,104.463,44.291,107.686,38.078,107.686z M72,107.352h-5.542l-1.914-9.74
		c-0.437-2.283-0.806-4.4-1.075-6.986h-0.066c-0.403,2.555-0.773,4.703-1.311,6.986l-2.148,9.74h-5.609l-5.373-22.637h5.475
		l1.713,9.336c0.503,2.688,0.973,5.609,1.343,7.893h0.067c0.369-2.451,0.906-5.172,1.478-7.959l1.914-9.27h5.44l1.814,9.539
		c0.504,2.652,0.873,5.07,1.209,7.59h0.066c0.336-2.52,0.84-5.174,1.311-7.859l1.848-9.27h5.205L72,107.352z M94.336,88.912h-8.698
		v5.172h8.128v4.166h-8.128v9.102H80.5V84.715h13.836V88.912z M30,79.918V16.002h46.334v20.465c0,1.105,0.895,2,2,2H96l0.002,41.451
		H30z"/>
	<path d="M66.061,41.303c-4.845,3.631-7.912,13.484-10.495,18.893c-2.585,5.408-7.347,4.766-7.347,4.766v6.373
		c0,0,2.986,0.082,5.486-0.961c2.508-1.051,5.412-3.396,7.112-6.297c0.66-1.137,1.672-3.471,2.771-6.059h7.645v-6.541h-4.849
		c0.746-1.662,1.421-3.07,1.934-3.873c1.86-2.902,6.463-2.828,6.463-2.828v-6.219C74.781,38.557,70.905,37.668,66.061,41.303z"/>
</g>
</svg>