<?xml version="1.0" encoding="utf-8"?>
<!DOCTYPE svg PUBLIC "-//W3C//DTD SVG 1.1//EN" "http://www.w3.org/Graphics/SVG/1.1/DTD/svg11.dtd">
<svg xmlns="http://www.w3.org/2000/svg" xmlns:xlink="http://www.w3.org/1999/xlink" viewBox="0 0 126 126">
<g>
	<path d="M99.98,36.507c-0.006-0.468-0.154-0.93-0.475-1.295L79.838,12.747c-0.004-0.006-0.01-0.008-0.016-0.014
		c-0.117-0.131-0.252-0.239-0.396-0.334c-0.043-0.028-0.086-0.053-0.131-0.078c-0.127-0.068-0.258-0.124-0.395-0.165
		c-0.037-0.011-0.07-0.026-0.107-0.036c-0.15-0.035-0.303-0.057-0.459-0.057H30c-2.205,0-4,1.795-4,4v94c0,2.206,1.795,4,4,4h66
		c2.207,0,4-1.794,4-4V36.73C100,36.655,99.988,36.581,99.98,36.507z M42.757,107.119c-2.608,0-5.183-0.678-6.47-1.389l1.05-4.269
		c1.389,0.711,3.523,1.423,5.725,1.423c2.371,0,3.625-0.982,3.625-2.473c0-1.423-1.084-2.236-3.828-3.219
		c-3.794-1.32-6.267-3.421-6.267-6.74c0-3.896,3.252-6.877,8.638-6.877c2.574,0,4.472,0.542,5.826,1.151l-1.151,4.167
		c-0.915-0.44-2.541-1.084-4.776-1.084s-3.32,1.017-3.32,2.202c0,1.456,1.287,2.1,4.234,3.218c4.031,1.49,5.928,3.591,5.928,6.809
		C51.971,103.867,49.024,107.119,42.757,107.119z M65.896,97.262v9.519h-5.149v-9.35l-7.215-13.481h5.895l2.337,5.487
		c0.711,1.66,1.186,2.879,1.762,4.37h0.068c0.508-1.423,1.05-2.744,1.728-4.37l2.303-5.487h5.793L65.896,97.262z M80.499,107.119
		c-2.608,0-5.183-0.678-6.47-1.389l1.05-4.269c1.389,0.711,3.523,1.423,5.725,1.423c2.371,0,3.625-0.982,3.625-2.473
		c0-1.423-1.084-2.236-3.828-3.219c-3.794-1.32-6.267-3.421-6.267-6.74c0-3.896,3.252-6.877,8.638-6.877
		c2.575,0,4.471,0.542,5.827,1.151l-1.152,4.167c-0.915-0.44-2.541-1.084-4.776-1.084s-3.32,1.017-3.32,2.202
		c0,1.456,1.287,2.1,4.234,3.218c4.031,1.49,5.928,3.591,5.928,6.809C89.713,103.867,86.766,107.119,80.499,107.119z M30,79.98
		V16.063h46.334v20.466c0,1.104,0.895,2,2,2H96l0.002,41.451H30z"/>
	<g>
		<path d="M78.592,28.559l-35.678,0.05l0.005,46.372l35.679-0.021L78.592,28.559z M45.269,72.653l-0.028-41.725l30.943-0.016
			l0.008,41.726L45.269,72.653z"/>
		<path d="M72.962,47.215c-1.038-0.401-1.893-1.234-2.32-2.273c-0.431-1.035-0.417-2.22,0.033-3.251
			c0.041-0.092,0.02-0.206-0.055-0.281l-2.237-2.236c-0.073-0.074-0.188-0.095-0.282-0.055c-1.028,0.451-2.213,0.466-3.249,0.035
			c-1.036-0.426-1.87-1.278-2.274-2.325c-0.028-0.063-0.064-0.159-0.239-0.161l-3.165-0.001c-0.105,0.001-0.201,0.068-0.239,0.165
			c-0.408,1.046-1.234,1.893-2.274,2.323c-1.034,0.429-2.218,0.415-3.249-0.036c-0.096-0.042-0.208-0.022-0.283,0.054l-2.239,2.239
			c-0.073,0.073-0.094,0.184-0.052,0.281c0.452,1.031,0.463,2.212,0.037,3.25c-0.431,1.035-1.279,1.867-2.326,2.273
			c-0.096,0.039-0.161,0.134-0.161,0.238l-0.002,3.167c0.002,0.174,0.094,0.21,0.165,0.235c0.534,0.209,1.016,0.521,1.423,0.93
			c0.388,0.389,0.691,0.84,0.897,1.346c0.43,1.039,0.418,2.222-0.033,3.251c-0.041,0.093-0.02,0.207,0.055,0.281l2.236,2.236
			c0.076,0.076,0.188,0.097,0.281,0.056c1.031-0.451,2.213-0.464,3.251-0.034c1.01,0.419,1.818,1.233,2.238,2.234
			c0.104-0.084,0.221-0.154,0.35-0.205c0.184-0.07,0.333-0.216,0.404-0.391c0.071-0.172,0.069-0.379-0.007-0.553
			c-0.228-0.531-0.114-1.128,0.288-1.526l1.06-1.061c0.4-0.402,0.996-0.516,1.518-0.293c0.183,0.079,0.391,0.083,0.563,0.01
			c0.173-0.071,0.318-0.217,0.385-0.393c0.208-0.529,0.725-0.879,1.287-0.881h1.499c0.376,0.003,0.721,0.145,0.975,0.397
			l0.176,0.178l0.123,0.278c0.088,0.225,0.226,0.35,0.394,0.419c0.177,0.074,0.385,0.071,0.557-0.005
			c0.498-0.214,1.05-0.116,1.451,0.232l0.698-0.698c0.072-0.073,0.094-0.189,0.053-0.286c-0.45-1.028-0.463-2.212-0.035-3.248
			c0.431-1.037,1.277-1.868,2.324-2.275c0.094-0.037,0.161-0.133,0.162-0.236l-0.001-3.166
			C73.125,47.279,73.034,47.243,72.962,47.215z M65.109,53.39c-2.4,2.399-6.304,2.399-8.706-0.003
			c-2.397-2.399-2.397-6.302,0.002-8.701c2.397-2.398,6.304-2.401,8.704-0.002C67.51,47.084,67.507,50.99,65.109,53.39z"/>
		<path d="M71.202,61.666c-0.492-0.189-0.899-0.585-1.101-1.075c-0.204-0.491-0.197-1.053,0.016-1.541
			c0.021-0.045,0.009-0.098-0.024-0.133l-1.06-1.061c-0.036-0.034-0.089-0.045-0.134-0.025c-0.486,0.215-1.049,0.219-1.538,0.018
			c-0.491-0.203-0.886-0.606-1.078-1.103c-0.013-0.03-0.031-0.075-0.114-0.075l-1.5-0.002c-0.049,0.002-0.096,0.033-0.114,0.078
			c-0.192,0.497-0.585,0.896-1.076,1.1c-0.491,0.203-1.051,0.197-1.538-0.016c-0.045-0.02-0.1-0.011-0.137,0.024l-1.059,1.061
			c-0.036,0.036-0.044,0.089-0.024,0.136c0.213,0.487,0.22,1.048,0.016,1.537c-0.203,0.491-0.604,0.888-1.101,1.08
			c-0.045,0.017-0.076,0.063-0.076,0.111v1.501c0,0.084,0.044,0.1,0.078,0.111c0.252,0.1,0.48,0.247,0.674,0.441
			c0.183,0.183,0.326,0.397,0.424,0.636c0.203,0.491,0.199,1.054-0.016,1.541c-0.02,0.044-0.009,0.099,0.027,0.134l1.059,1.059
			c0.035,0.035,0.088,0.046,0.133,0.026c0.488-0.214,1.048-0.219,1.54-0.016c0.491,0.203,0.884,0.605,1.078,1.1
			c0.014,0.034,0.031,0.076,0.112,0.078l1.5-0.002c0.049,0,0.094-0.031,0.112-0.076c0.194-0.496,0.587-0.896,1.078-1.1
			c0.491-0.206,1.051-0.199,1.54,0.016c0.045,0.019,0.098,0.011,0.134-0.025l1.06-1.06c0.034-0.035,0.045-0.09,0.024-0.134
			c-0.213-0.489-0.219-1.05-0.016-1.541c0.205-0.49,0.605-0.884,1.101-1.077c0.045-0.017,0.075-0.064,0.077-0.112v-1.5
			C71.279,61.697,71.233,61.68,71.202,61.666z M67.48,64.592c-1.137,1.138-2.986,1.138-4.123,0s-1.136-2.985,0.001-4.123
			c1.136-1.136,2.984-1.14,4.123-0.001C68.617,61.604,68.617,63.454,67.48,64.592z"/>
	</g>
</g>
</svg>