<?xml version="1.0" encoding="utf-8"?>
<!DOCTYPE svg PUBLIC "-//W3C//DTD SVG 1.1//EN" "http://www.w3.org/Graphics/SVG/1.1/DTD/svg11.dtd">
<svg xmlns="http://www.w3.org/2000/svg" xmlns:xlink="http://www.w3.org/1999/xlink" viewBox="0 0 126 126">
<g>
	<path d="M83.303,88.673c-1.332,0-2.088,0.107-2.484,0.18v6.695h2.16c2.736,0,4.355-1.367,4.355-3.492
		C87.334,89.826,85.822,88.708,83.303,88.673z"/>
	<path d="M99.98,36.443c-0.004-0.469-0.154-0.93-0.475-1.295L79.84,12.683c-0.006-0.006-0.012-0.008-0.016-0.014
		c-0.117-0.131-0.254-0.24-0.398-0.334c-0.043-0.029-0.086-0.053-0.131-0.078c-0.127-0.068-0.258-0.125-0.395-0.166
		c-0.037-0.01-0.07-0.025-0.107-0.035C78.645,12.021,78.49,12,78.334,12H30.002c-2.207,0-4,1.795-4,4v94c0,2.205,1.793,4,4,4H96
		c2.207,0,4-1.795,4-4V36.666C100,36.591,99.99,36.517,99.98,36.443z M44.82,109.046h-5.508V89.394h-6.516v-4.607h18.646v4.607
		H44.82V109.046z M66.238,109.046l-1.871-6.227H57.42l-1.729,6.227h-5.688l7.416-24.26h7.199l7.523,24.26H66.238z M88.09,109.046
		c-0.395-0.684-0.971-2.664-1.691-5.65c-0.648-3.023-1.691-3.852-3.924-3.889h-1.656v9.539h-5.434V85.111
		c1.764-0.289,4.391-0.506,7.307-0.506c3.6,0,6.119,0.541,7.848,1.908c1.439,1.152,2.23,2.844,2.23,5.076
		c0,3.096-2.195,5.219-4.283,5.975v0.107c1.691,0.686,2.629,2.305,3.24,4.537c0.756,2.734,1.512,5.902,1.979,6.838H88.09z
		 M30.002,79.916V16h46.332v20.465c0,1.105,0.896,2,2,2H96l0.002,41.451H30.002z"/>
	<path d="M60.84,88.89h-0.072c-0.359,1.439-0.721,3.275-1.115,4.678l-1.441,5.148h5.363l-1.512-5.148
		C61.631,92.128,61.199,90.33,60.84,88.89z"/>
	<rect x="41.11" y="39.464" width="29.101" height="3.854"/>
	<polygon points="70.211,48.253 75.136,48.253 75.136,49.523 75.136,50.969 75.136,52.613 75.136,54.062 75.136,55.744 
		75.136,57.191 75.136,59.146 70.211,59.146 70.211,63.862 41.11,63.862 41.11,67.712 70.211,67.712 70.211,64.08 84.763,64.08 
		84.763,59.146 76.632,59.146 76.632,57.191 79.843,57.191 79.843,55.744 76.632,55.744 76.632,54.062 79.843,54.062 79.843,52.613 
		76.632,52.613 76.632,50.969 79.843,50.969 79.843,49.523 76.632,49.523 76.632,48.253 84.763,48.253 84.763,43.318 70.211,43.318 
			"/>
	<rect x="44.854" y="45.3" width="21.614" height="16.801"/>
</g>
</svg>