<?xml version="1.0" encoding="utf-8"?>
<!DOCTYPE svg PUBLIC "-//W3C//DTD SVG 1.1//EN" "http://www.w3.org/Graphics/SVG/1.1/DTD/svg11.dtd">
<svg xmlns="http://www.w3.org/2000/svg" xmlns:xlink="http://www.w3.org/1999/xlink" viewBox="0 0 126 126">
<g>
	<g>
		<path d="M99.98,36.402c-0.006-0.468-0.154-0.93-0.475-1.295L79.838,12.643c-0.004-0.006-0.01-0.008-0.016-0.014
			c-0.117-0.131-0.252-0.239-0.396-0.334c-0.043-0.028-0.086-0.053-0.131-0.078c-0.127-0.068-0.258-0.124-0.395-0.165
			c-0.037-0.011-0.07-0.026-0.107-0.036c-0.15-0.035-0.303-0.057-0.459-0.057H30c-2.205,0-4,1.795-4,4v94c0,2.206,1.795,4,4,4h66
			c2.207,0,4-1.794,4-4V36.626C100,36.551,99.988,36.477,99.98,36.402z M48.812,89.934h-5.872v17.424h-4.882V89.934h-5.776v-4.085
			h16.531V89.934z M69.78,107.357l-0.318-8.233c-0.096-2.585-0.192-5.712-0.192-8.84h-0.096c-0.67,2.744-1.563,5.808-2.394,8.329
			l-2.617,8.393h-3.797l-2.298-8.328c-0.703-2.521-1.436-5.585-1.947-8.394h-0.064c-0.128,2.904-0.224,6.223-0.383,8.903
			l-0.383,8.17h-4.5l1.372-21.509h6.479l2.106,7.18c0.67,2.489,1.341,5.171,1.819,7.691h0.096c0.606-2.489,1.34-5.329,2.042-7.723
			l2.298-7.148h6.35l1.181,21.509H69.78z M91.741,97.497c-1.66,1.563-4.117,2.265-6.989,2.265c-0.639,0-1.213-0.031-1.66-0.096
			v7.691h-4.818V86.136c1.5-0.256,3.606-0.447,6.574-0.447c3,0,5.138,0.575,6.574,1.724c1.372,1.085,2.298,2.872,2.298,4.979
			S93.017,96.283,91.741,97.497z M30,79.876V15.959h46.334v20.466c0,1.104,0.895,2,2,2H96l0.002,41.451H30z"/>
		<path d="M85.103,89.358c-0.989,0-1.66,0.096-2.011,0.191V95.9c0.415,0.096,0.926,0.128,1.628,0.128
			c2.585,0,4.181-1.308,4.181-3.511C88.9,90.54,87.528,89.358,85.103,89.358z"/>
	</g>
	<path d="M77.977,40.422c-0.002-0.189-0.063-0.377-0.192-0.524l-7.966-9.099c-0.001-0.001-0.004-0.003-0.006-0.005
		c-0.047-0.054-0.102-0.097-0.161-0.135c-0.018-0.013-0.035-0.022-0.053-0.032c-0.052-0.027-0.105-0.05-0.16-0.066
		c-0.015-0.005-0.029-0.012-0.043-0.016c-0.061-0.014-0.123-0.022-0.186-0.022H49.635c-0.893,0-1.62,0.727-1.62,1.62v38.068
		c0,0.894,0.727,1.62,1.62,1.62h26.729c0.894,0,1.62-0.727,1.62-1.62V40.513C77.985,40.482,77.979,40.452,77.977,40.422z
		 M49.635,69.975V32.143H68.4v8.289c0,0.446,0.362,0.809,0.81,0.809h7.155l0,28.734H49.635z"/>
</g>
</svg>