<?xml version="1.0" encoding="utf-8"?>
<!DOCTYPE svg PUBLIC "-//W3C//DTD SVG 1.1//EN" "http://www.w3.org/Graphics/SVG/1.1/DTD/svg11.dtd">
<svg xmlns="http://www.w3.org/2000/svg" xmlns:xlink="http://www.w3.org/1999/xlink" viewBox="0 0 126 126">
<g>
	<path d="M99.873,35.484c-0.006-0.468-0.154-0.93-0.475-1.295L79.73,11.725c-0.004-0.006-0.01-0.008-0.016-0.014
		c-0.117-0.131-0.252-0.239-0.396-0.334c-0.043-0.028-0.086-0.053-0.131-0.078c-0.127-0.068-0.258-0.124-0.395-0.165
		c-0.037-0.011-0.07-0.026-0.107-0.036c-0.15-0.035-0.303-0.057-0.459-0.057H29.893c-2.205,0-4,1.795-4,4v94c0,2.206,1.795,4,4,4h66
		c2.207,0,4-1.794,4-4V35.708C99.893,35.633,99.881,35.559,99.873,35.484z M53.66,89.399h-6.232v18.495h-5.184V89.399h-6.131v-4.336
		H53.66V89.399z M72.971,89.399h-6.232v18.495h-5.184V89.399h-6.131v-4.336h17.547V89.399z M89.674,89.298H80.9v5.216h8.197v4.201
		H80.9v9.18h-5.184V85.063h13.957V89.298z M29.893,78.958V15.041h46.334v20.466c0,1.104,0.895,2,2,2h17.666l0.002,41.451H29.893z"/>
	<g>
		<path d="M64.209,40.691c-0.535-2.327-0.971-3.539-1.553-4.314c-0.775-1.164-1.6-1.503-5.234-1.503H53.98v23.85
			c0,3.831,0.387,4.314,4.992,4.606v1.356H45.061V63.33c4.41-0.292,4.799-0.775,4.799-4.606v-23.85h-3.006
			c-4.023,0-4.994,0.388-5.623,1.503c-0.582,0.824-0.971,2.181-1.551,4.314h-1.406c0.242-2.909,0.484-6.06,0.582-8.727h0.969
			c0.68,1.115,1.309,1.212,2.666,1.212h19.148c1.309,0,1.697-0.29,2.473-1.212h1.018c0,2.23,0.242,5.77,0.484,8.58L64.209,40.691z"
			/>
		<path d="M81.754,47.045c-0.533-2.327-0.969-3.539-1.551-4.314c-0.775-1.164-1.6-1.503-5.236-1.503h-3.441v23.85
			c0,3.831,0.389,4.314,4.992,4.606v1.356H62.605v-1.356c4.412-0.292,4.801-0.775,4.801-4.606v-23.85h-3.008
			c-4.021,0-4.992,0.388-5.623,1.503c-0.582,0.824-0.969,2.181-1.551,4.314H55.82c0.242-2.909,0.482-6.06,0.58-8.727h0.971
			c0.678,1.115,1.309,1.212,2.666,1.212h19.146c1.311,0,1.697-0.29,2.473-1.212h1.018c0,2.23,0.244,5.77,0.486,8.58L81.754,47.045z"
			/>
	</g>
</g>
</svg>