<?xml version="1.0" encoding="utf-8"?>
<!DOCTYPE svg PUBLIC "-//W3C//DTD SVG 1.1//EN" "http://www.w3.org/Graphics/SVG/1.1/DTD/svg11.dtd">
<svg xmlns="http://www.w3.org/2000/svg" xmlns:xlink="http://www.w3.org/1999/xlink" viewBox="0 0 126 126">
<g>
	<path d="M99.98,36.443c-0.006-0.468-0.156-0.93-0.477-1.295L79.838,12.684c-0.006-0.006-0.012-0.008-0.016-0.014
		c-0.117-0.131-0.254-0.239-0.398-0.334c-0.043-0.028-0.086-0.053-0.131-0.078c-0.125-0.068-0.256-0.124-0.395-0.165
		c-0.037-0.011-0.07-0.026-0.107-0.036C78.643,12.021,78.488,12,78.332,12H30c-2.205,0-4,1.795-4,4v94c0,2.206,1.795,4,4,4h66
		c2.205,0,4-1.794,4-4V36.667C100,36.592,99.988,36.518,99.98,36.443z M50.992,89.52h-6.623v19.653h-5.506V89.52h-6.516v-4.607
		h18.645V89.52z M67.336,109.173l-2.195-4.392c-0.9-1.691-1.477-2.951-2.16-4.355h-0.072c-0.504,1.404-1.115,2.664-1.871,4.355
		l-2.016,4.392h-6.264l7.02-12.274L53.01,84.912h6.299l2.125,4.428c0.719,1.475,1.26,2.663,1.836,4.031h0.072
		c0.574-1.548,1.043-2.628,1.654-4.031l2.053-4.428h6.264l-6.84,11.842l7.199,12.419H67.336z M93.652,89.52h-6.623v19.653h-5.508
		V89.52h-6.516v-4.607h18.646V89.52z M30,79.917V16h46.332v20.466c0,1.104,0.896,2,2,2H96v41.451H30z"/>
	<path d="M44.287,39.457h22.187c0.735,0,1.334-0.597,1.334-1.333s-0.599-1.332-1.334-1.332H44.287c-0.736,0-1.332,0.596-1.332,1.332
		S43.551,39.457,44.287,39.457z"/>
	<path d="M80.666,47.45H44.252c-0.736,0-1.332,0.596-1.332,1.332s0.596,1.333,1.332,1.333h36.414c0.736,0,1.334-0.597,1.334-1.333
		S81.402,47.45,80.666,47.45z"/>
	<path d="M80.666,58.033H44.252c-0.736,0-1.332,0.596-1.332,1.333c0,0.736,0.596,1.333,1.332,1.333h36.414
		c0.736,0,1.334-0.597,1.334-1.333C82,58.629,81.402,58.033,80.666,58.033z"/>
	<path d="M80.666,68.87H44.252c-0.736,0-1.332,0.597-1.332,1.333s0.596,1.332,1.332,1.332h36.414c0.736,0,1.334-0.596,1.334-1.332
		S81.402,68.87,80.666,68.87z"/>
</g>
</svg>