<?xml version="1.0" encoding="utf-8"?>
<!DOCTYPE svg PUBLIC "-//W3C//DTD SVG 1.1//EN" "http://www.w3.org/Graphics/SVG/1.1/DTD/svg11.dtd">
<svg xmlns="http://www.w3.org/2000/svg" xmlns:xlink="http://www.w3.org/1999/xlink" viewBox="0 0 126 126">
<g>
	<path d="M99.98,36.442c-0.006-0.468-0.154-0.929-0.475-1.295L79.838,12.682c-0.004-0.005-0.01-0.008-0.016-0.013
		c-0.117-0.132-0.252-0.239-0.396-0.334c-0.043-0.028-0.086-0.054-0.131-0.078c-0.127-0.069-0.258-0.124-0.395-0.165
		c-0.037-0.011-0.07-0.027-0.107-0.035C78.643,12.021,78.49,12,78.334,12H30c-2.205,0-4,1.794-4,4v94c0,2.205,1.795,4,4,4h66
		c2.207,0,4-1.795,4-4V36.666C100,36.591,99.988,36.517,99.98,36.442z M47.574,105.502l-1.752-8.908
		c-0.398-2.091-0.736-4.026-0.982-6.393h-0.061c-0.369,2.336-0.707,4.302-1.199,6.393l-1.965,8.908h-5.131l-4.916-20.707h5.008
		l1.566,8.541c0.461,2.457,0.891,5.131,1.229,7.221h0.063c0.338-2.242,0.828-4.732,1.352-7.282l1.75-8.479h4.979l1.658,8.727
		c0.461,2.427,0.799,4.639,1.105,6.943h0.063c0.307-2.305,0.768-4.731,1.197-7.19l1.691-8.479h4.762l-5.346,20.707H47.574z
		 M71.111,105.502l-1.598-5.314h-5.93l-1.475,5.314h-4.854l6.328-20.707h6.145l6.422,20.707H71.111z M87.459,105.502H81.99
		l-6.637-20.707h5.133l2.518,8.756c0.707,2.457,1.352,4.824,1.844,7.405h0.092c0.523-2.489,1.168-4.948,1.875-7.313l2.643-8.848
		h4.977L87.459,105.502z M30,79.916V16h46.334v20.465c0,1.104,0.895,2,2,2H96l0.002,41.451H30z"/>
	<path d="M66.504,88.299h-0.063c-0.307,1.229-0.613,2.795-0.951,3.992l-1.23,4.395h4.578l-1.289-4.395
		C67.18,91.063,66.811,89.527,66.504,88.299z"/>
	<path d="M54.09,51.729c0-1.124-0.91-2.036-2.035-2.036h-3.529c-1.125,0-2.035,0.912-2.035,2.036v8.687
		c0,1.125,0.91,2.036,2.035,2.036h3.529c1.125,0,2.035-0.912,2.035-2.036v2.167l19.99,8.665V40.76l-19.99,8.803V51.729z"/>
</g>
</svg>