<?xml version="1.0" encoding="utf-8"?>
<!DOCTYPE svg PUBLIC "-//W3C//DTD SVG 1.1//EN" "http://www.w3.org/Graphics/SVG/1.1/DTD/svg11.dtd">
<svg xmlns="http://www.w3.org/2000/svg" xmlns:xlink="http://www.w3.org/1999/xlink" viewBox="0 0 126 126">
<g>
	<path d="M99.979,36.443c-0.004-0.468-0.154-0.93-0.475-1.295L79.838,12.684c-0.006-0.006-0.012-0.008-0.016-0.014
		c-0.117-0.131-0.254-0.239-0.398-0.334c-0.043-0.028-0.086-0.053-0.131-0.078c-0.125-0.068-0.258-0.124-0.395-0.165
		c-0.037-0.011-0.07-0.026-0.107-0.036C78.643,12.021,78.488,12,78.332,12H30c-2.207,0-4,1.795-4,4v94c0,2.206,1.793,4,4,4h66
		c2.205,0,4-1.794,4-4V36.667C100,36.592,99.988,36.518,99.979,36.443z M30,16h46.332v20.466c0,1.104,0.896,2,2,2H96v41.451H30V16z
		 M49.949,104.838h-4.674l-1.615-8.217c-0.369-1.926-0.68-3.71-0.906-5.891h-0.057c-0.34,2.152-0.652,3.965-1.105,5.891
		l-1.813,8.217h-4.73l-4.533-19.095h4.617l1.445,7.876c0.424,2.266,0.82,4.73,1.133,6.657h0.057
		c0.313-2.068,0.764-4.362,1.246-6.714l1.615-7.819h4.59l1.529,8.046c0.424,2.238,0.736,4.277,1.02,6.402h0.057
		c0.283-2.125,0.709-4.363,1.105-6.629l1.559-7.819h4.391L49.949,104.838z M73.551,104.838l-0.283-7.309
		c-0.086-2.295-0.17-5.072-0.17-7.848h-0.086c-0.594,2.436-1.387,5.155-2.123,7.394l-2.324,7.45h-3.371l-2.039-7.393
		c-0.623-2.238-1.275-4.958-1.729-7.451h-0.057c-0.113,2.578-0.199,5.524-0.34,7.904l-0.34,7.252h-3.994l1.217-19.095h5.752
		l1.869,6.374c0.596,2.209,1.189,4.59,1.615,6.827h0.084c0.539-2.209,1.189-4.73,1.814-6.854l2.039-6.347h5.637l1.049,19.095H73.551
		z M92.393,104.838l-1.473-4.901h-5.469l-1.359,4.901h-4.477l5.836-19.095h5.666l5.922,19.095H92.393z"/>
	<path d="M88.143,88.973h-0.057c-0.283,1.133-0.566,2.578-0.877,3.684l-1.135,4.051h4.223l-1.189-4.051
		C88.766,91.523,88.428,90.105,88.143,88.973z"/>
	<rect x="39.088" y="37.3" width="8.51" height="2.503"/>
	<rect x="39.088" y="41.305" width="8.51" height="2.503"/>
	<rect x="39.088" y="45.185" width="8.51" height="2.503"/>
	<rect x="39.088" y="49.19" width="8.51" height="2.502"/>
	<rect x="39.088" y="52.994" width="8.51" height="2.503"/>
	<rect x="39.088" y="56.999" width="8.51" height="2.503"/>
	<rect x="39.088" y="60.878" width="8.51" height="2.503"/>
	<rect x="39.088" y="64.882" width="8.51" height="2.503"/>
	<rect x="51.477" y="45.185" width="8.512" height="2.503"/>
	<rect x="51.477" y="49.19" width="8.512" height="2.502"/>
	<rect x="51.477" y="52.994" width="8.512" height="2.503"/>
	<rect x="51.477" y="56.999" width="8.512" height="2.503"/>
	<rect x="51.477" y="60.878" width="8.512" height="2.503"/>
	<rect x="51.477" y="64.882" width="8.512" height="2.503"/>
	<rect x="64.617" y="37.3" width="8.51" height="2.503"/>
	<rect x="64.617" y="41.305" width="8.51" height="2.503"/>
	<rect x="64.617" y="45.185" width="8.51" height="2.503"/>
	<rect x="64.617" y="49.19" width="8.51" height="2.502"/>
	<rect x="64.617" y="52.994" width="8.51" height="2.503"/>
	<rect x="64.617" y="56.999" width="8.51" height="2.503"/>
	<rect x="64.617" y="60.878" width="8.51" height="2.503"/>
	<rect x="64.617" y="64.882" width="8.51" height="2.503"/>
	<rect x="77.289" y="56.999" width="8.51" height="2.503"/>
	<rect x="77.289" y="60.878" width="8.51" height="2.503"/>
	<rect x="77.289" y="64.882" width="8.51" height="2.503"/>
</g>
</svg>