<?xml version="1.0" encoding="utf-8"?>
<!DOCTYPE svg PUBLIC "-//W3C//DTD SVG 1.1//EN" "http://www.w3.org/Graphics/SVG/1.1/DTD/svg11.dtd">
<svg xmlns="http://www.w3.org/2000/svg" xmlns:xlink="http://www.w3.org/1999/xlink" viewBox="0 0 126 126">
<g>
	<path d="M99.98,36.442c-0.006-0.468-0.156-0.929-0.477-1.295L79.838,12.682c-0.006-0.005-0.012-0.008-0.016-0.013
		c-0.117-0.132-0.254-0.239-0.398-0.334c-0.043-0.028-0.086-0.054-0.131-0.078c-0.125-0.069-0.256-0.124-0.395-0.165
		c-0.037-0.011-0.07-0.027-0.107-0.035C78.643,12.021,78.488,12,78.332,12H30c-2.205,0-4,1.794-4,4v94c0,2.205,1.795,4,4,4h66
		c2.205,0,4-1.795,4-4V36.666C100,36.591,99.988,36.517,99.98,36.442z M50.049,104.795h-4.375l-1.51-7.686
		c-0.346-1.804-0.635-3.474-0.848-5.514h-0.053c-0.318,2.014-0.611,3.71-1.033,5.514l-1.697,7.686h-4.428l-4.238-17.864h4.318
		l1.352,7.368c0.398,2.119,0.77,4.427,1.061,6.229h0.055c0.289-1.934,0.715-4.082,1.164-6.281l1.512-7.315h4.295l1.432,7.528
		c0.396,2.094,0.688,4.002,0.953,5.99h0.053c0.266-1.988,0.662-4.082,1.035-6.203l1.457-7.315h4.107L50.049,104.795z
		 M72.131,104.795l-0.266-6.839c-0.08-2.146-0.158-4.745-0.158-7.343h-0.08c-0.557,2.28-1.299,4.826-1.988,6.92l-2.174,6.972h-3.154
		l-1.908-6.92c-0.582-2.095-1.191-4.638-1.615-6.972h-0.055c-0.105,2.412-0.186,5.17-0.316,7.396l-0.318,6.785h-3.738L57.5,86.931
		h5.381l1.748,5.963c0.557,2.067,1.113,4.294,1.512,6.388h0.078c0.504-2.066,1.115-4.426,1.697-6.414l1.908-5.937H75.1l0.98,17.864
		H72.131z M88.117,104.795h-4.719l-5.725-17.864h4.428l2.172,7.554c0.609,2.119,1.166,4.162,1.59,6.389h0.082
		c0.449-2.147,1.006-4.27,1.615-6.31l2.279-7.633h4.293L88.117,104.795z M30,79.916V16h46.332v20.465c0,1.104,0.896,2,2,2H96v41.451
		H30z"/>
	<path d="M61.998,34.032c-10.422,0-18.9,8.479-18.9,18.901s8.479,18.901,18.9,18.901c10.424,0,18.902-8.479,18.902-18.901
		S72.422,34.032,61.998,34.032z M61.998,68.39c-8.521,0-15.457-6.934-15.457-15.457s6.936-15.457,15.457-15.457
		c8.523,0,15.459,6.934,15.459,15.457S70.521,68.39,61.998,68.39z"/>
	<path d="M56.349,41.68c-0.181,0.083-0.295,0.271-0.295,0.469v22.19c0,0.198,0.114,0.384,0.295,0.467l0.229,0.054
		c0.117,0,0.229-0.041,0.324-0.114l17.374-11.094c0.124-0.102,0.198-0.255,0.198-0.413c0-0.156-0.074-0.307-0.198-0.412
		L56.902,41.737C56.744,41.612,56.53,41.589,56.349,41.68z"/>
</g>
</svg>