<?xml version="1.0" encoding="utf-8"?>
<!DOCTYPE svg PUBLIC "-//W3C//DTD SVG 1.1//EN" "http://www.w3.org/Graphics/SVG/1.1/DTD/svg11.dtd">
<svg xmlns="http://www.w3.org/2000/svg" xmlns:xlink="http://www.w3.org/1999/xlink" viewBox="0 0 126 126">
<g>
	<path d="M99.874,36.585c-0.006-0.468-0.154-0.93-0.475-1.295L79.731,12.825c-0.004-0.006-0.01-0.008-0.016-0.014
		c-0.117-0.131-0.252-0.239-0.396-0.334c-0.043-0.028-0.086-0.053-0.131-0.078c-0.127-0.068-0.258-0.124-0.395-0.165
		c-0.037-0.011-0.07-0.026-0.107-0.036c-0.15-0.035-0.303-0.057-0.459-0.057H29.893c-2.205,0-4,1.795-4,4v94c0,2.206,1.795,4,4,4h66
		c2.207,0,4-1.794,4-4V36.809C99.893,36.733,99.881,36.659,99.874,36.585z M49.151,109.033l-2.246-4.492
		c-0.92-1.73-1.51-3.019-2.209-4.455h-0.074c-0.516,1.437-1.141,2.725-1.914,4.455l-2.063,4.492h-6.406l7.18-12.556l-6.922-12.261
		h6.443l2.172,4.529c0.736,1.509,1.289,2.725,1.879,4.123h0.072c0.59-1.583,1.068-2.688,1.693-4.123l2.1-4.529h6.406L48.267,96.33
		l7.365,12.703H49.151z M74.149,109.033H58.647V84.217h5.635v20.104h9.867V109.033z M83.536,109.401
		c-2.834,0-5.633-0.736-7.031-1.51l1.141-4.639c1.51,0.772,3.83,1.546,6.223,1.546c2.578,0,3.939-1.067,3.939-2.688
		c0-1.547-1.178-2.431-4.16-3.498c-4.123-1.436-6.813-3.719-6.813-7.327c0-4.234,3.535-7.475,9.391-7.475
		c2.797,0,4.859,0.59,6.332,1.252l-1.252,4.529c-0.994-0.479-2.762-1.179-5.191-1.179s-3.607,1.104-3.607,2.394
		c0,1.583,1.398,2.283,4.602,3.498c4.381,1.62,6.443,3.902,6.443,7.4C93.552,105.867,90.349,109.401,83.536,109.401z M29.893,80.059
		V16.142h46.334v20.466c0,1.104,0.895,2,2,2h17.666l0.002,41.451H29.893z"/>
	<path d="M68.81,37.766H53.227H35.643v7.5v1v6.5v1v6.5v1v7.5h16.583h1H68.81h1h16.583v-8.5v-6.5v-7.5v-1v-7.5H68.81z M68.81,52.766
		H53.227v-6.5H68.81V52.766z M36.643,38.766h15.583v6.5H36.643V38.766z M36.643,46.266h15.583v6.5H36.643V46.266z M36.643,53.766
		h15.583v6.5H36.643V53.766z M36.643,67.766v-6.5h15.583v6.5H36.643z M53.227,67.766v-6.5H68.81v6.5H53.227z M85.393,67.766H69.81
		v-6.5h15.583V67.766z M85.393,52.766H69.81v-6.5h15.583V52.766z M69.81,45.266v-6.5h15.583v6.5H69.81z"/>
</g>
</svg>