<?xml version="1.0" encoding="utf-8"?>
<!DOCTYPE svg PUBLIC "-//W3C//DTD SVG 1.1//EN" "http://www.w3.org/Graphics/SVG/1.1/DTD/svg11.dtd">
<svg xmlns="http://www.w3.org/2000/svg" xmlns:xlink="http://www.w3.org/1999/xlink" viewBox="0 0 126 126">
<g>
	<path d="M99.874,36.537c-0.006-0.468-0.154-0.93-0.475-1.295L79.731,12.777c-0.004-0.006-0.01-0.008-0.016-0.014
		c-0.117-0.131-0.252-0.239-0.396-0.334c-0.043-0.028-0.086-0.053-0.131-0.078c-0.127-0.068-0.258-0.124-0.395-0.165
		c-0.037-0.011-0.07-0.026-0.107-0.036c-0.15-0.035-0.303-0.057-0.459-0.057H29.893c-2.205,0-4,1.795-4,4v94c0,2.206,1.795,4,4,4h66
		c2.207,0,4-1.794,4-4V36.761C99.893,36.686,99.881,36.611,99.874,36.537z M42.69,106.637l-1.74-3.479
		c-0.712-1.34-1.168-2.338-1.71-3.45h-0.057c-0.399,1.112-0.883,2.11-1.482,3.45l-1.597,3.479h-4.96l5.56-9.724l-5.36-9.493h4.99
		l1.682,3.508c0.57,1.168,0.998,2.108,1.455,3.192h0.056c0.457-1.226,0.827-2.081,1.311-3.192l1.626-3.508h4.96l-5.417,9.379
		l5.703,9.838H42.69z M62.046,106.637H50.042V87.42h4.363v15.566h7.641V106.637z M69.314,106.921c-2.194,0-4.361-0.57-5.444-1.169
		l0.883-3.592c1.169,0.598,2.966,1.197,4.818,1.197c1.997,0,3.05-0.826,3.05-2.082c0-1.196-0.912-1.881-3.221-2.708
		c-3.193-1.111-5.275-2.878-5.275-5.673c0-3.279,2.737-5.788,7.272-5.788c2.165,0,3.763,0.456,4.902,0.97l-0.969,3.507
		c-0.77-0.37-2.138-0.913-4.02-0.913s-2.793,0.855-2.793,1.854c0,1.226,1.083,1.768,3.563,2.708c3.393,1.255,4.989,3.022,4.989,5.73
		C77.069,104.185,74.589,106.921,69.314,106.921z M90.125,106.637l-1.74-3.479c-0.712-1.34-1.168-2.338-1.71-3.45H86.62
		c-0.399,1.112-0.885,2.11-1.484,3.45l-1.596,3.479h-4.961l5.559-9.724l-5.36-9.493h4.99l1.683,3.508
		c0.57,1.168,0.997,2.108,1.453,3.192h0.057c0.456-1.226,0.826-2.081,1.312-3.192l1.625-3.508h4.961l-5.417,9.379l5.702,9.838
		H90.125z M29.893,80.011V16.094h46.334V36.56c0,1.104,0.895,2,2,2h17.666l0.002,41.451H29.893z"/>
	<path d="M69.737,37.766H54.154H36.571v7.5v1v6.5v1v6.5v1v7.5h16.583h1h15.583h1h16.583v-8.5v-6.5v-7.5v-1v-7.5H69.737z
		 M69.737,52.766H54.154v-6.5h15.583V52.766z M37.571,38.766h15.583v6.5H37.571V38.766z M37.571,46.266h15.583v6.5H37.571V46.266z
		 M37.571,53.766h15.583v6.5H37.571V53.766z M37.571,67.766v-6.5h15.583v6.5H37.571z M54.154,67.766v-6.5h15.583v6.5H54.154z
		 M86.321,67.766H70.737v-6.5h15.583V67.766z M86.321,52.766H70.737v-6.5h15.583V52.766z M70.737,45.266v-6.5h15.583v6.5H70.737z"/>
</g>
</svg>