<?xml version="1.0" encoding="utf-8"?>
<!DOCTYPE svg PUBLIC "-//W3C//DTD SVG 1.1//EN" "http://www.w3.org/Graphics/SVG/1.1/DTD/svg11.dtd">
<svg xmlns="http://www.w3.org/2000/svg" xmlns:xlink="http://www.w3.org/1999/xlink" viewBox="0 0 126 126">
<g>
	<path d="M99.98,36.443c-0.006-0.468-0.154-0.93-0.475-1.295L79.838,12.684c-0.004-0.006-0.01-0.008-0.016-0.014
		c-0.117-0.131-0.252-0.239-0.396-0.334c-0.043-0.028-0.086-0.053-0.131-0.078c-0.127-0.068-0.258-0.124-0.395-0.165
		c-0.037-0.011-0.07-0.026-0.107-0.036C78.643,12.021,78.49,12,78.334,12H30c-2.205,0-4,1.795-4,4v94c0,2.206,1.795,4,4,4h66
		c2.207,0,4-1.794,4-4V36.667C100,36.592,99.988,36.518,99.98,36.443z M57.111,108.944H38.25v-2.952l11.555-16.629v-0.145H39.33
		v-4.535h17.602v3.168l-11.303,16.414v0.143h11.482V108.944z M66.078,108.944H60.57V84.684h5.508V108.944z M86.02,97.822
		c-1.871,1.764-4.643,2.555-7.883,2.555c-0.721,0-1.367-0.035-1.871-0.107v8.675H70.83V85.008c1.691-0.289,4.066-0.504,7.414-0.504
		c3.385,0,5.795,0.647,7.416,1.943c1.547,1.224,2.592,3.239,2.592,5.615C88.252,94.438,87.459,96.454,86.02,97.822z M30,79.917V16
		h23.92v-0.629h6.066V16h16.348v20.466c0,1.104,0.895,2,2,2H96l0.002,41.451H30z"/>
	<path d="M78.533,88.643c-1.117,0-1.873,0.108-2.268,0.217v7.162c0.467,0.108,1.043,0.145,1.836,0.145
		c2.914,0,4.715-1.477,4.715-3.959C82.816,89.975,81.268,88.643,78.533,88.643z"/>
	<rect x="59.986" y="19.392" width="6.066" height="2.503"/>
	<rect x="53.92" y="16" width="6.066" height="1.875"/>
	<rect x="53.92" y="23.138" width="6.066" height="2.503"/>
	<rect x="59.986" y="27.236" width="6.066" height="2.503"/>
	<rect x="59.986" y="35.145" width="6.066" height="2.503"/>
	<rect x="53.92" y="31.125" width="6.066" height="2.503"/>
	<path d="M59.986,39.692c-4.295,0-6.338,3.48-6.338,7.776l-1.438,13.027c0,4.296,3.48,7.778,7.775,7.778s7.773-3.482,7.773-7.778
		l-1.434-13.027C66.326,43.173,64.281,39.692,59.986,39.692z M62.563,64.857h-5.148V53.982h5.148V64.857z"/>
</g>
</svg>