<svg viewBox="0 0 222 80" version="1.1" xmlns="http://www.w3.org/2000/svg">
  <g transform="matrix(7.042253572722276,0,0,7.042253572722276,41.056338077883446,113.02817147158969)" fill="#ffffff">
    <path d="m0.732,-6.87l0,-8.75l-2.19,0l0,8.46l0,0q0,0.73 -1.02,0.73l0,0l0,0q-1.02,0 -1.02,-0.73l0,0l0,-1.17l-2.19,0l0,1.46l0,0q0,1.9 3.21,1.9l0,0l0,0q3.21,0 3.21,-1.9l0,0zm3.91,1.75l2.13,0l0,-9.04l2.59,0l0,-1.46l-7.32,0l0,1.46l2.6,0l0,9.04zm5.16,-10.5l0,10.5l5.11,0l0,0q2.18,0 2.18,-1.75l0,0l0,-2.04l0,0q0,-1.75 -2.04,-1.75l0,0l0,0q1.9,0 1.9,-1.46l0,0l0,-1.75l0,0q0,-1.75 -2.19,-1.75l0,0l-4.96,0zm4.23,4.23l-2.04,0l0,-2.77l2.04,0l0,0q0.73,0 0.73,0.73l0,0l0,1.31l0,0q0,0.73 -0.73,0.73l0,0zm0.15,1.46l0,0q0.73,0 0.73,0.73l0,0l0,1.89l0,0q0,0.73 -0.73,0.73l0,0l-2.19,0l0,-3.35l2.19,0zm11.37,3.06l0,-1.46l-2.19,0l0,1.17l0,0q0,0.73 -1.45,0.73l0,0l0,0q-1.46,0 -1.46,-0.73l0,0l0,-6.42l0,0q0,-0.87 1.46,-0.87l0,0l0,0q1.45,0 1.45,0.87l0,0l0,1.17l2.19,0l0,-1.46l0,0q0,-1.9 -3.64,-1.9l0,0l0,0q-3.65,0 -3.65,1.9l0,0l0,7l0,0q0,1.9 3.65,1.9l0,0l0,0q3.64,0 3.64,-1.9l0,0z"></path>
  </g>
</svg>