<svg viewBox="0 0 1024 1024" version="1.1" xmlns="http://www.w3.org/2000/svg">
  <g fill="#cccccc">
    <path d="m906.0255,1023.73335l-788.05116,0c-76.22426,0 -118.20768,-41.94244 -118.20768,-118.0923l0,-787.28202c0,-76.14986 41.98342,-118.0923 118.20768,-118.0923l788.05116,0c76.22426,0 118.20768,41.94244 118.20768,118.0923l0,787.28202c0,76.14986 -41.98342,118.0923 -118.20768,118.0923zm-866.85628,-208.35419l0,90.26188c0,54.46024 24.29168,78.72821 78.80512,78.72821l788.05116,0c54.51344,0 78.80512,-24.26797 78.80512,-78.72821l0,-90.26188l-374.32431,-373.95897l-169.15518,168.99009l84.57759,84.49504a19.68158,19.66237 0 1 1 -27.8576,27.83042l-183.084,-182.90529l-275.8179,275.54871zm571.33709,-421.47143c5.04353,0 10.08706,1.92884 13.92881,5.76684l360.3955,360.04376l0,-641.3593c0,-54.46024 -24.29168,-78.72821 -78.80512,-78.72821l-788.05116,0c-54.51344,0 -78.80512,24.26797 -78.80512,78.72821l0,641.3593l261.8891,-261.6335a19.68158,19.66237 0 0 1 27.85761,0l84.57759,84.49504l183.08398,-182.90531a19.64218,19.62301 0 0 1 13.9288,-5.76684zm-295.51919,-59.04615c-32.21159,0 -60.42382,-11.86828 -83.86835,-35.28991c-22.79438,-22.75245 -34.33933,-50.60255 -34.33933,-82.80239c0,-32.06206 11.48585,-60.16803 34.10291,-83.55031c23.87795,-23.06736 52.01138,-34.542 84.10476,-34.542c32.2313,0 60.1086,11.53369 82.90299,34.30581c23.42481,23.42164 35.30468,51.60634 35.30468,83.78649c0,32.31793 -11.95867,60.24676 -35.56081,83.03858c-22.34125,23.10672 -50.29737,35.05373 -82.64687,35.05373zm0,-196.82051c-21.80932,0 -40.23001,7.51855 -56.22744,23.00832c-15.05178,15.52914 -22.57767,33.93185 -22.57767,55.71988c0,21.66994 7.44708,39.65933 22.79438,54.95228c16.01714,16.00151 34.31962,23.77592 56.01073,23.77592c21.55321,0 39.46167,-7.69569 54.78926,-23.52005c16.31266,-15.78501 24.01586,-33.67599 24.01586,-55.20815c0,-21.66994 -7.782,-39.95456 -23.77945,-55.95607c-15.32759,-15.33233 -33.33456,-22.77214 -55.02567,-22.77214z"/>
  </g>
</svg>