<svg viewBox="0 0 1024 1024" version="1.1" xmlns="http://www.w3.org/2000/svg">
  <g fill="#cccccc">
    <path d="m207.27032,80l-166.21621,0c-24.07365,0 -41.55405,17.037 -41.55405,40.5l0,783.00003c0,23.463 17.4804,40.5 41.55405,40.5l941.89183,0c24.07365,0 41.55405,-17.037 41.55405,-40.5l0,-783.00003c0,-23.463 -17.4804,-40.5 -41.55405,-40.5l-775.67562,0zm-180.06756,823.50003l0,-783.00003c0,-8.451 5.18041,-13.5 13.85135,-13.5l152.36485,0l0,810.00003l-152.36485,0c-8.67095,0 -13.85135,-5.049 -13.85135,-13.5zm193.91891,13.5l0,-810.00003l581.75672,0l0,810.00003l-581.75672,0zm775.67562,-796.50003l0,783.00003c0,8.451 -5.18041,13.5 -13.85135,13.5l-152.36485,0l0,-810.00003l152.36485,0c8.67095,0 13.85135,5.049 13.85135,13.5zm-587.93442,231.76801c-4.23851,-2.754 -9.72365,-3.024 -14.23919,-0.675c-4.46013,2.349 -7.28581,6.912 -7.28581,11.907l0,324.00001c0,4.995 2.82568,9.558 7.31351,11.907c2.05,1.053 4.29392,1.593 6.53784,1.593c2.68716,0 5.34662,-0.756 7.67365,-2.268l249.32431,-162.00001c3.85068,-2.511 6.1777,-6.723 6.1777,-11.232s-2.32703,-8.721 -6.1777,-11.232l-249.32431,-162.00001zm6.1777,310.01401l0,-273.56401l210.51282,136.782l-210.51282,136.782zm-277.02701,-366.28201l-55.4054,0c-7.64595,0 -13.85135,6.048 -13.85135,13.5s6.2054,13.5 13.85135,13.5l55.4054,0c7.64595,0 13.85135,-6.048 13.85135,-13.5s-6.2054,-13.5 -13.85135,-13.5zm-55.4054,-81l55.4054,0c7.64595,0 13.85135,-6.048 13.85135,-13.5s-6.2054,-13.5 -13.85135,-13.5l-55.4054,0c-7.64595,0 -13.85135,6.048 -13.85135,13.5s6.2054,13.5 13.85135,13.5zm55.4054,189.00001l-55.4054,0c-7.64595,0 -13.85135,6.048 -13.85135,13.5s6.2054,13.5 13.85135,13.5l55.4054,0c7.64595,0 13.85135,-6.048 13.85135,-13.5s-6.2054,-13.5 -13.85135,-13.5zm0,108l-55.4054,0c-7.64595,0 -13.85135,6.048 -13.85135,13.5s6.2054,13.5 13.85135,13.5l55.4054,0c7.64595,0 13.85135,-6.048 13.85135,-13.5s-6.2054,-13.5 -13.85135,-13.5zm0,108l-55.4054,0c-7.64595,0 -13.85135,6.048 -13.85135,13.5s6.2054,13.5 13.85135,13.5l55.4054,0c7.64595,0 13.85135,-6.048 13.85135,-13.5s-6.2054,-13.5 -13.85135,-13.5zm0,108l-55.4054,0c-7.64595,0 -13.85135,6.048 -13.85135,13.5s6.2054,13.5 13.85135,13.5l55.4054,0c7.64595,0 13.85135,-6.048 13.85135,-13.5s-6.2054,-13.5 -13.85135,-13.5zm0,108l-55.4054,0c-7.64595,0 -13.85135,6.048 -13.85135,13.5s6.2054,13.5 13.85135,13.5l55.4054,0c7.64595,0 13.85135,-6.048 13.85135,-13.5s-6.2054,-13.5 -13.85135,-13.5zm747.97292,-513.00002l55.4054,0c7.64595,0 13.85135,-6.048 13.85135,-13.5s-6.2054,-13.5 -13.85135,-13.5l-55.4054,0c-7.64595,0 -13.85135,6.048 -13.85135,13.5s6.2054,13.5 13.85135,13.5zm0,-108l55.4054,0c7.64595,0 13.85135,-6.048 13.85135,-13.5s-6.2054,-13.5 -13.85135,-13.5l-55.4054,0c-7.64595,0 -13.85135,6.048 -13.85135,13.5s6.2054,13.5 13.85135,13.5zm0,216.00001l55.4054,0c7.64595,0 13.85135,-6.048 13.85135,-13.5s-6.2054,-13.5 -13.85135,-13.5l-55.4054,0c-7.64595,0 -13.85135,6.048 -13.85135,13.5s6.2054,13.5 13.85135,13.5zm0,108l55.4054,0c7.64595,0 13.85135,-6.048 13.85135,-13.5s-6.2054,-13.5 -13.85135,-13.5l-55.4054,0c-7.64595,0 -13.85135,6.048 -13.85135,13.5s6.2054,13.5 13.85135,13.5zm0,108l55.4054,0c7.64595,0 13.85135,-6.048 13.85135,-13.5s-6.2054,-13.5 -13.85135,-13.5l-55.4054,0c-7.64595,0 -13.85135,6.048 -13.85135,13.5s6.2054,13.5 13.85135,13.5zm0,108l55.4054,0c7.64595,0 13.85135,-6.048 13.85135,-13.5s-6.2054,-13.5 -13.85135,-13.5l-55.4054,0c-7.64595,0 -13.85135,6.048 -13.85135,13.5s6.2054,13.5 13.85135,13.5zm55.4054,81l-55.4054,0c-7.64595,0 -13.85135,6.048 -13.85135,13.5s6.2054,13.5 13.85135,13.5l55.4054,0c7.64595,0 13.85135,-6.048 13.85135,-13.5s-6.2054,-13.5 -13.85135,-13.5z"/>
  </g>
</svg>